<svg xmlns="http://www.w3.org/2000/svg" width="2661" height="3486" preserveAspectRatio="none" style="display:block" viewBox="0 0 3486 3486">
  <defs>
    <linearGradient id="b" x1="1064.2" x2="1103.3" y1="2971.3" y2="3027.7" gradientUnits="userSpaceOnUse">
      <stop class="stop0" offset="0" stop-color="#6d6255"/>
      <stop class="stop1" offset="1" stop-color="#807863"/>
    </linearGradient>
    <linearGradient id="a" x1="1073.9" x2="1018.3" y1="1020.4" y2="1101.8" gradientUnits="userSpaceOnUse">
      <stop class="stop0" offset="0" stop-color="#5f5f5f"/>
      <stop class="stop1" offset="1" stop-color="#747475"/>
    </linearGradient>
  </defs>
  <path fill="#070908" d="M2491 0h68q12 4 26 4c32 4 59 26 59 60l1 115v199l117 1q40-2 79-1c20 1 32 11 54 11 19-1 20-10 30-11l40 1 84-1c42 0 98-1 125 1 143 9 297 96 309 251l3 1v47c-6 9-4 57-3 72-76 5-114 70-30 101 11 4 25 3 33 10v265h-1c-25 7-56 7-71 33q-9 16-5 33c8 26 33 37 57 41q11 0 20 5v269c-41 5-67 7-79 53 16 63 54 37 79 58v263q-9 7-22 7c-35 6-47 16-57 51 18 64 56 37 79 57v266h-2c-38 8-66 10-78 54 5 19 8 27 26 39 16 11 41 10 54 18v266q-15 6-30 6c-16 2-42 19-47 36-7 30 11 50 38 59 13 5 30 5 39 11v266c-24 11-36-1-61 21-34 31-19 63 19 80 15 7 26 8 42 9v107c-2 3-8 28-10 34-43 143-204 215-343 215H417c-40 0-84 2-123-4-80-12-157-45-215-102-36-37-71-94-75-146-2-27 0-76 0-105 42-2 91-17 75-70l-3-4c-6-8-7-9-16-17-21-11-31-12-55-15l-2-14-3-2v-212c5-8 4-34 3-44 41-5 66-7 80-52-11-45-37-51-79-53l-1-25-3-2v-242c14-10 38-7 55-16 17-10 23-22 28-40-19-69-64-40-83-59v-263c26-20 65 7 82-56-15-67-64-40-82-61v-264c5-4 24-5 32-7 73-15 62-87-5-98-10-1-20 0-27-8v-267c15-4 28 0 46-8 28-12 44-38 29-68-14-25-49-27-75-33V856c18-1 23-2 40-6l2-1c18-8 30-16 37-35l2-6c2-8-2-23-7-29-23-27-46-25-72-30l-2-1V632c5-6 6-35 10-47q12-44 41-81c61-78 165-119 262-125q18-3 37-1c6 0 12 5 18 5q10-1 19-4 9 0 14 4l8 6c16 5 23-8 36-11 20-4 40 11 55 4q5-3 11-4 28-1 56 0 48-2 96 0c5 0 10 4 14 4 6 0 12-5 19-4 10 3 12 13 26 13 10-1 11-5 17-10 8-6 160-3 182-3V58c2-19 18-39 35-46 33-14 86-9 123-9h1310c22 0 85 1 102-3M272 866c39-9 57-23 68-63-8-25-13-36-37-51-16-10-42-14-61-11q-36 5-59 32-14 20-10 42c9 43 61 58 99 51m-20 1387c-27 3-50 9-67 32-20 27-11 64 18 81 25 15 38 14 65 14q59-4 72-63c-7-26-12-36-37-52-11-7-39-14-51-12m2973-754q-36 2-61 27c-23 25-15 61 11 80 23 16 44 19 71 18 107-21 87-128-21-125M340 1181c-8-26-14-37-40-53-13-7-40-12-54-9-24 3-45 10-61 30-23 27-12 63 16 81 20 15 41 17 65 16 42-7 63-23 74-65m2914 1955c84-16 85-108 1-124-8-1-26-2-33 0-109 15-80 142 32 124m-25-2017c-115 12-93 130 11 127 13-2 21-3 34-8 68-30 51-102-17-117-8-2-20-4-28-2m-15 1514c-22 6-45 17-56 37q-11 19-5 39c13 44 64 53 104 48 61-12 89-77 26-113-22-14-44-12-69-11m39-253c104-23 76-136-34-126-25 5-45 14-60 36-20 30-1 65 29 80 23 12 40 10 65 10m68-439c-7-76-123-91-162-31-5 7-8 21-12 30l1 1 8 24c37 54 130 53 159-8q5-8 6-16m-3088-63c-20 4-40 15-52 33q-11 19-7 39 8 27 32 40c24 14 45 13 72 11 103-29 67-137-45-123m13-379q-37 1-62 28c-22 26-14 62 13 80 26 19 48 17 78 17 39-9 54-24 64-62-13-53-41-63-93-63m2978-758c-24 3-49 13-64 33q-12 18-9 40c8 37 57 59 92 53 123-17 74-142-19-126M276 3136c96-18 75-138-41-125-20 4-41 14-53 31q-13 19-9 41c9 44 63 62 103 53m-41-502q-33 4-54 31-12 17-8 38c8 45 60 62 100 56 112-28 66-141-38-125"/>
  <path fill="#c9a64e" d="M23 679q61-1 124-1c92 0 176-10 232 79 9 24 10 31 10 57-6 61-63 98-118 110-33 8-68 5-102 6l-55-1c-28-1-65 3-92-2-2-14-5-45 1-57l5-3 4-6c6-2 17-5 21-9q-5-3-13-2l2-1c18-8 30-16 37-35l2 8c14-2 14-26 14-36-7-30-48-43-74-50-1-17-1-41 2-57m249 187c39-9 57-23 68-63-8-25-13-36-37-51-16-10-42-14-61-11q-36 5-59 32-14 20-10 42c9 43 61 58 99 51"/>
  <path fill="#232220" d="M95 786c17 46-29 72-67 81l4-6c6-2 17-5 21-9q-5-3-13-2l2-1c18-8 30-16 37-35l2 8c14-2 14-26 14-36"/>
  <path fill="#c9a64e" d="M22 2949q25-4 51-2 78-1 158 0c47 2 102 21 133 59 42 52 28 118-23 157-61 47-136 37-208 37-34 1-77 2-111-1-3-17-2-39-1-57 29-9 67-18 76-52-1-17 3-31-16-37l-2 3-3-4c-6-8-7-9-16-17l7-1 1-2c-6-8-12-8-19-17l-27-9c-2-15-3-42 0-57m254 187c96-18 75-138-41-125-20 4-41 14-53 31q-13 19-9 41c9 44 63 62 103 53"/>
  <path fill="#232220" d="M49 3015c31 9 60 40 48 75-1-17 3-31-16-37l-2 3-3-4c-6-8-7-9-16-17l7-1 1-2c-6-8-12-8-19-17M379 757c22 19 19 18 14 46l2-2c-1 7 0 8-6 13 0-26-1-33-10-57"/>
  <path fill="#fefefe" d="M530 1231c17-2 45-1 63-1h2249l154 1c27 0 50 21 51 49v1137c0 7-1 18-4 24q-13 22-39 28c-24 2-68 1-93 1H562c-41 0-75-9-74-57l-1-73V1275c1-26 20-38 43-44"/>
  <path fill="#070908" d="M908 1934c123-13 277 47 316 174-104 22-209 40-313 62v-66c-72 17-156 32-230 47-3 154 171 225 303 204l44-10c58-18 113-52 143-107h49c-53 98-132 139-242 153-134 20-327-58-340-212-13-149 143-233 270-245"/>
  <path fill="#fefefe" d="M923 1968q33 0 67 5c78 12 133 45 179 109-69 12-142 28-211 42v-65l-264 50c40-93 133-134 229-141"/>
  <path fill="#070908" d="M1764 1335h4c4 5 3 27 3 35v162c-13 0-34 2-46-3-3-1-4-8-5-11-7 1-21 10-36 13-41 8-72 3-107-19-95-74 24-185 146-126v-41z"/>
  <path fill="#fefefe" d="M1643 1405c28-2 64 4 75 35q4 16-3 30c-10 17-27 23-45 28-21 2-36 2-55-9-23-14-32-43-14-65q17-17 42-19"/>
  <path fill="#070908" d="M2580 1337c6-1 7-2 12-1 4 6 2 177 2 196-12 0-34 2-44-2q-4-4-4-12c-8 1-21 9-31 12-41 9-73 6-109-16-98-74 22-187 141-128l1-42q15-5 32-7"/>
  <path fill="#fefefe" d="M2465 1406c29-2 66 2 78 34q5 15-2 29c-9 17-26 24-43 29-30 5-68-3-78-36q-5-16 4-30c9-16 25-21 41-26"/>
  <path fill="#070908" d="M1372 2092h201v154l-200 1z"/>
  <path fill="#fefefe" d="M1384 2102h177v135h-176c1-43 0-92-1-135"/>
  <path fill="#070908" d="M1420 2116c29-1 72-5 98 8 5 2 11 10 12 15 2 26-16 33-38 36 13 8 41 34 47 47q-9 3-19 2c-8-5-27-33-46-47l-37-1 1 48h-19z"/>
  <path fill="#fefefe" d="M1437 2128c18-1 96-8 68 30-18 8-47 6-68 6z"/>
  <path fill="#070908" d="M2805 1369c29-2 64 6 87 25 51 42 32 107-25 130-18 7-29 9-48 11-137 6-166-151-14-166"/>
  <path fill="#fefefe" d="M2797 1406c29-2 65 1 77 33q4 16-2 30c-9 17-25 24-42 29-29 4-69-4-78-37q-4-15 4-29c9-16 24-22 41-26"/>
  <path fill="#070908" d="M1394 1371c52-9 114 15 126 72 2 8-1 21-11 22q-24 2-48 1h-106c24 38 71 41 108 20 6-2 33 14 41 18q-25 20-55 26c-34 7-74 4-105-16-35-23-52-68-25-104q29-34 75-39"/>
  <path fill="#fefefe" d="M1402 1405c24-2 55 1 67 25l-1 3c-8 2-35 1-44 1h-69l3-4c12-17 25-22 44-25"/>
  <path fill="#070908" d="M916 1371c57-4 132 17 122 88-2 16-143 0-158 9 2 12 21 23 32 27 28 9 48 4 73-9 8 0 31 13 39 18-39 34-120 40-160 9-75-58-27-131 52-142"/>
  <path fill="#fefefe" d="M925 1405c18-2 65 4 64 28-6 2-33 1-41 1h-71l5-7c12-16 25-20 43-22"/>
  <path fill="#070908" d="M1154 1371c50-7 126 15 124 81 0 4-3 11-7 12-20 7-141-4-151 4 1 21 52 35 71 30 15-4 19-5 32-12l3-1c8 2 29 14 37 19-50 44-163 40-191-27-24-59 30-99 82-106"/>
  <path fill="#fefefe" d="M1163 1405c18-1 64 3 65 27-7 3-36 2-45 2-13 0-57 5-63-5 5-15 29-22 43-24"/>
  <path fill="#070908" d="M775 2238h319v42h-67l-63-1v65h-58l1-64H774zM698 1371q51-6 98 13l-22 28c-21-9-81-23-93 5 9 28 114 10 119 58s-44 56-81 58c-36 0-61-2-93-21l24-25q23 12 51 14c14 2 51 1 52-19-13-21-117-10-122-54-5-40 35-53 67-57M1933 1371q52-6 99 13l-21 28c-19-8-85-24-90 6 8 31 119 3 117 63 0 44-45 50-78 52-37 1-65-2-96-21l23-24c21 9 97 29 103-5-12-22-115-9-120-55-5-39 32-53 63-57M2160 1372h46c0 57-20 139 62 125 45-8 31-91 30-125h47v37c1 18 2 55-2 72-18 62-123 68-164 27q-10-10-15-24c-6-21-4-87-4-112M775 2178c103 2 215 0 319 0v41c-104 3-214 0-320 1zM1552 1590c28-1 63 8 70 40q3 18-6 32-18 22-45 25c-31 1-69-6-75-43q-3-17 8-32 20-21 48-22"/>
  <path fill="#fefefe" d="M1546 1602c68-6 84 55 27 74-63 9-88-56-27-74"/>
  <path fill="#070908" d="M1969 1778c30-3 68 3 77 37q5 15-3 29c-9 16-26 24-43 28-30 5-69-3-79-38q-4-16 5-31c10-16 26-21 43-25"/>
  <path fill="#fefefe" d="M1974 1788c23-3 49 3 56 28q3 13-3 25c-8 13-19 17-33 21-69 4-79-63-20-74"/>
  <path fill="#070908" d="M2101 1345c4 0 2-1 6 1 3 8 1 26 1 36h25v37h-26q0 22-1 46c0 26 7 31 30 36 0 10 4 29-6 33-80-5-68-51-68-112v-69zM1093 1778c38-1 110-9 113 46 1 15-5 23-15 34-27 18-66 14-99 14z"/>
  <path fill="#fefefe" d="M1107 1788c29-1 83-7 85 38 0 9-7 18-13 25-24 14-44 11-71 11z"/>
  <path fill="#070908" d="M2617 2113c20-1 52 5 49 32-2 11-10 10-15 18 38 29 23 52-18 62-22 0-60-6-55-40 2-11 14-17 23-23-34-18-15-42 16-49"/>
  <path fill="#fefefe" d="M2624 2169c38 3 42 38 3 45-39-3-44-39-3-45M2614 2125c29-4 50 18 20 32-27 3-47-15-20-32"/>
  <path fill="#070908" d="M2504 2113c17-1 32 1 44 15 19 21 17 67-4 86-18 14-54 17-69-3q-4-6-3-13l5-2 9 2c7 16 24 23 39 12 16-12 17-21 20-39-63 50-117-41-41-58"/>
  <path fill="#fefefe" d="M2506 2124c14-1 27 1 34 16q3 9 0 18-7 12-19 16c-39 2-51-33-15-50"/>
  <path fill="#070908" d="M2662 1383q9-2 14 1c2 9 1 39 1 49v99h-29c-8 0-10 1-16-3-2-14-2-120 1-141 0-4 21-5 29-5M1834 1591c26 1 79-6 92 20 11 24-7 35-25 43 6 6 25 23 26 31l-3 2c-16-2-24-17-37-31h-39v18c0 7 2 8-2 12-7-1-7 1-12-3-2-12 0-75 0-92"/>
  <path fill="#fefefe" d="M1848 1602c21-1 91-4 59 37-17 9-39 7-59 7z"/>
  <path fill="#070908" d="M2214 1777c26 0 80-6 92 19 12 23-6 36-24 44 6 6 24 23 26 31l-4 2c-16-3-23-17-36-31h-39c0 5 1 24-1 29h-11c-5-8-3-78-3-94"/>
  <path fill="#fefefe" d="M2229 1787c22 0 90-3 58 38-16 9-40 7-58 7z"/>
  <path fill="#070908" d="M980 1586q7-1 14 1c1 13 3 94-3 99-12 1-7-5-12-9-27 10-28 15-60 3-50-33 9-90 60-54z"/>
  <path fill="#fefefe" d="M943 1624c16 0 32 5 36 21q3 11-3 18c-6 10-14 11-24 13-42-1-52-40-9-52"/>
  <path fill="#070908" d="M825 1616c13-2 22-3 35 2 20 7 36 30 22 50q-11 12-27 17c-64 8-89-50-30-69"/>
  <path fill="#fefefe" d="M832 1624c16 0 33 3 38 21q3 8-1 16c-5 10-14 12-23 15-41 2-56-38-14-52"/>
  <path fill="#070908" d="M639 1590c19 0 51 53 64 70 9-13 47-73 61-69 3 7 4 87 0 94h-11c-3-5-1-37-1-46v-26c-11 14-37 56-51 59-11-4-38-44-48-57 0 12 2 63-1 69-6 2-5 2-11 1-5-6-3-82-2-95M1842 1778q9-2 16 1c7 10 52 85 52 91-7 3-3 2-11 1q-11-9-17-24h-65q-5 14-15 24h-11c0-9 44-81 51-93"/>
  <path fill="#fefefe" d="M1849 1792c7 4 23 37 28 46h-54z"/>
  <path fill="#070908" d="M1419 1591c7 0 9 0 15 2 9 11 46 76 53 90l-2 2c-16 3-19-11-25-24h-66c-4 8-9 19-16 24-6 1-6 1-11-1 2-11 44-79 52-93"/>
  <path fill="#fefefe" d="M1426 1604c5 5 23 38 28 47h-54z"/>
  <path fill="#070908" d="M2151 2114c19 0 53-2 70 2 2 4 2 2 1 7-8 7-43 5-57 5l-7 29c26-12 67-8 70 26q1 14-7 25c-10 13-24 16-39 17-14-1-56-10-43-31 15-6 19 10 27 17 10 8 33 1 40-9q6-11 3-22c-9-35-58-4-70-10 1-14 9-39 12-56M2162 1851c0-14-2-59 0-71l3-2c7 0 7-1 11 2 2 15 1 76 0 92-12 0-13-2-22-10l-65-64 1 63c0 6-4 13-12 12-7-8-4-79-3-96 2 0 9 0 11 2 27 21 52 48 76 72M2063 2113h3c14-1 32 1 42 12 31 34-40 66-62 83l-2 2c13 0 63-2 71 2 2 5 2 3 0 8-10 6-45 3-59 3-8 0-29 1-35-2v-3c9-29 75-45 77-79 1-10-16-13-23-15-26-7-20 16-40 21q-5 1-8-3c-4-19 22-27 36-29M2285 2113c63-2 68 42 19 70-11 6-27 18-36 25l-2 2c17 0 55-2 70 1 3 5 3 3 1 8-9 7-47 4-61 4-10 0-29 4-33-8 9-25 73-44 77-74-1-13-24-20-34-19-15 2-15 21-28 24q-6 1-9-3c-3-20 21-28 36-30M1664 2113h12c56 1 48 51 7 70l-35 25-2 2c15 0 59-2 70 2 1 5 2 2-1 7-10 7-48 4-63 4h-32l1-1 1-2c9-20 29-32 50-46 27-16 42-45-1-52-16-3-22 25-39 23-5-3-3-1-4-7 4-18 20-22 36-25M1059 1614c19 0 48 10 50 32-9 18-60 0-75 11v4c14 17 27 16 47 13 7-4 9-6 16-3l1 3c-21 32-106 2-73-44q13-15 34-16"/>
  <path fill="#fefefe" d="M1056 1624c10 0 39 4 35 19q-8 3-17 2c-11 0-32 3-39-3v-3c6-10 10-11 21-15"/>
  <path fill="#070908" d="M2395 2113c16 0 46 4 48 26 1 11-9 16-16 23 6 11 17 5 21 20 13 45-76 60-88 20q-1-5 3-9c11-2 14 6 18 14 21 14 61 4 47-26-6-12-24-10-36-13-1-11 23-8 33-24q2-6-3-10c-17-20-30-13-45 5-5 5-14 7-18-2 4-16 22-22 36-24M1261 1778c14 0 87-3 94 2 2 13-63 70-74 82 13 0 71-2 78 3l1 4-3 3c-26 0-66 1-93-1q-2 0-3-4c5-12 64-65 77-79-17 0-59 4-75-2q-3-2-2-8M2066 1591c12 1 65-3 70 5l-2 3c-8 5-43 3-55 3l-3 27c17 0 82-1 63 42-4 8-23 14-33 15q-29 5-53-12l2-5c12-3 41 17 68 2q4-4 4-10c-1-28-47-22-67-21q5-24 6-49M2870 1777c16 1 54-1 68 2l1 3c-5 9-44 5-56 5l-4 28c17-1 80-1 64 41-4 8-24 14-34 16-12 1-48 0-52-14l3-3c3-1 18 3 24 5 17 8 57 0 42-26-7-11-47-9-63-8q6-24 7-49M2491 1591c17 1 51-1 66 2l1 3-2 3c-7 4-43 3-53 3l-3 27c15 0 80-1 63 40-3 8-21 15-31 17-11 1-56 1-54-17 15-6 57 27 72-9-2-27-46-21-66-20zM1258 1628c13-13 26-31 43-38l3 2c-5 13-26 33-37 45 12 13 33 33 44 47l-6 4c-15-3-36-30-47-43-11 11-36 48-51 40 2-10 33-39 42-48q-22-22-42-46h11c12 2 32 28 40 37M2447 1778c14-1 59-3 68 3v4c-5 4-45 2-55 2l-4 28c14 0 34-1 47 5 35 18 22 42-10 52-14 1-55 3-58-15l2-2c4-1 20 3 27 6 20 6 55-1 38-28-7-11-45-8-61-8q5-23 6-47M1631 1778l10-1c12 3 32 28 41 38l34-37h17l-43 45 44 46c-2 4-5 3-10 5-10-5-33-31-43-42-11 12-36 48-53 38 7-10 34-35 45-47-7-7-39-39-42-45M1847 2114c17 0 81-2 90 4 2 8-10 18-16 25-22 26-29 44-36 76l-2 4c-6 1-6 2-12 0q-3-3-4-10c6-36 25-61 49-85-20-1-48 1-67-1-3-5-2-5-2-13M786 1778c21-2 41-2 58 12l-1 3-5 4c-9-3-24-9-33-9-14-1-31 2-42 11q-10 11-9 27-1 14 11 24c13 13 30 12 47 12 12-3 19-8 31-7l2 3c-24 28-93 18-105-22q-5-17 4-33c9-17 25-21 42-25M909 1777c15-1 48-1 57 15l-2 3c-14 4-22-8-35-8-72 1-76 75 4 76 15-4 19-11 33-8-9 28-91 26-104-19q-5-17 4-33c10-16 26-21 43-26M2339 1778c14 0 78-3 86 2v5l-2 2h-69v35h48c6 0 11-2 15 3v5c-8 5-51 3-63 2 1 10 3 35-4 40-5 1-3 2-7-2-7-15-4-72-4-92M1959 1591c15 1 77-2 86 3-3 13-59 8-72 7l1 35 41-1h17c4 4 3 2 3 8-6 6-49 3-62 3 1 11 2 27-1 38-5 3-3 2-10 1-6-7-3-78-3-94M639 1777c13 0 81-3 86 5-7 10-57 6-71 6v34l42-1q11-1 20 3c0 6 1 4-2 8-16 2-43 1-60 0 0 9 2 34-3 39-7 0-6 1-11-2-2-12-1-73-1-92M2597 1777l13 1v3l-57 57h49c0-9-3-22 9-24l3 3q5 10 2 21c10 0 15-2 23 4v3c-5 3-2 3-9 2-25 1-8 9-15 24-5 2-4 1-11 0-4-5-2-16-2-23-16-1-53 3-67-2v-3c4-12 49-53 62-66M1429 1778h14v3l-56 57h48c0-9-3-21 9-24 8 6 6 15 6 24 8 0 19-3 24 4l-1 5-4 1-17 1c-6 6 1 13-5 23-7 1-3 1-10-1q-3-11-2-23c-13 0-56 2-65-1l-2-3c5-12 49-54 61-66M2216 1592h14c-1 5-50 52-57 59l49 1v-18c5-6 2-4 8-6l4 3q3 9 2 20c8 0 18-1 24 5-1 4 0 2-5 6h-17c-5 6 2 18-6 26l-10-4v-23c-12 1-58 2-66-1l-1-3c5-14 47-51 61-65M1714 1615q7-1 13 2l2 6c18-2 42-19 61 1 11 11 16 51 3 63-6 0-4 1-8-2l-1-39c-2-16-16-22-31-22-28 0-25 40-24 60l-3 2c-5 1-6 1-11-1-2-5-1-60-1-70M1791 2112c7 1 5-1 9 3 1 13 2 98-1 106q-8 4-14-1c-4-8-2-23-2-32v-51c-6 4-27 16-34 15l-1-3c6-13 28-20 42-35zM1468 1778c20 0 82-2 98 1l1 3-1 4c-6 3-32 2-41 2v82l-4 2c-5 0-5 1-10-2-2-13-1-66-1-82-9 0-33 2-40-2q-2-3-2-8M2280 1591l13 1c4 5 2 72 2 83 16 0 48-3 63 2q3 3 2 9h-80zM2661 1777c8 1 8-1 14 3 2 13 1 65 1 82 14 0 55-4 64 3l1 7h-81zM2410 1591h43l-1 96-11-1c-4-7-2-72-2-85-10 0-15 2-25 0-5-4-3-2-4-10M2791 1778l42-1-1 96c-7-1-7 0-13-3-2-12 0-67 0-83-10 0-20 3-27-2zM2650 1330c30 0 42 25 9 38-34-1-44-29-9-38M1131 1585q6-1 12 2c3 9 2 85 2 99q-9 1-14-2c-2-19-1-78 0-99M1332 1591q8-1 14 3v92c-7 0-9 1-14-3-2-15-1-73 0-92M1755 1778h11c5 6 3 81 4 94q-9 1-15-3c-2-16 0-73 0-91M1041 1778h13l1 94q-8 2-14-3c-2-17 0-71 0-91M1999 2176l8 1c5 5 4 3 4 8l-1 2c-10 3-33 2-44 2l-10-1-3-4 1-4c8-6 34-4 45-4M1640 1643c12-1 36-3 47 1q3 3 4 9c-12 0-38 3-49-2q-3-2-2-8M1574 1829c11 0 36-3 44 2q2 3 2 9c-10 0-40 2-47-3-1-5-1-3 1-8M1175 1669c7 1 11 0 16 6 0 7 0 5-4 11-8 0-11 1-16-5 0-7 0-5 4-12M1228 1800a9 9 0 1 1 10 15 9 9 0 0 1-10-15M1173 1613q9-1 17 4c2 7 1 4-1 12-8 1-11 1-17-4-2-6-1-4 1-12M1230 1855q9 1 13 7c-1 7 0 5-5 11-8-1-10-1-15-8 2-7 1-5 7-10"/>
  <path fill="#cbcbcb" d="M939 1014c2-216 0-437 0-653V166l1-99c0-59 64-51 106-51h1512c20 0 42 2 57 18q9 10 11 25v1036h-251c-111-21-32-106-76-164-19-26-84-20-114-20h-120c-29 0-73 12-68 49 11 77 131 18 173 59 17 18 13 53 14 76h-81l-156 1h-521c0-10 0-38 2-46 13-82 125-23 171-62 16-12 21-44 4-59-39-32-120-13-168-18-30 1-64-3-93 3-32 7-44 28-45 57-2 34 10 80-16 105-26 26-69 17-102 19h-67c-18 2-69 0-91 0h-82z"/>
  <path fill="#646361" d="M2478 1095c-1-13-3-59 2-66 15-6 74-5 89 0 7 8 4 52 4 66z"/>
  <path fill="url(#a)" d="M999 1095c0-11-1-58 2-65 11-9 66-4 82-4q5 0 8 3c8 18-3 54 4 64l17 2c-18 2-69 0-91 0z"/>
  <path fill="#a8a8a7" d="M1399 739c27-2 128-5 150 5q15 6 21 20 4 13-2 25c-7 13-21 18-34 22-32 2-124 5-150-6-9-4-20-11-23-21q-2-9 3-19c8-16 19-21 35-26M2079 739c40 0 90-3 129 1 49 5 58 60-2 71l-63 1c-29-1-93 9-103-30-7-25 17-39 39-43M1983 3146h973c16 0 23 7 33 18 4 81-2 166 0 247 1 18-13 24-28 27h-972c-12 0-29-6-32-19-4-23-2-48-2-71v-171q1-27 28-31"/>
  <path fill="#cbcbcb" d="M2384 2559c19-2 56-1 75-1h442c27 0 43 10 43 39v297c-1 22-11 28-30 34-23 2-59 1-83 1h-444c-41-2-36-38-35-68l1-36-1-150 1-87c0-20 15-26 31-29"/>
  <path fill="#232220" d="M2624 2624q76-9 138 34c48 36 63 100 24 149-28 35-72 52-115 57q-68 8-126-28c-52-32-76-97-37-150 28-38 71-55 116-62"/>
  <path fill="#7e7a75" d="M2645 2637c39 1 73 9 104 33 62 48 48 126-18 161-27 14-44 17-74 20-42 0-80-8-112-35-65-56-35-136 36-165 24-10 39-12 64-14"/>
  <path fill="#cbcbcb" d="M611 2559c27-2 65-1 94-1h426q22 0 37 16c6 20 4 61 4 84l-1 126c0 32 3 96 0 125-11 14-16 17-34 20H669c-24 0-71 6-85-18l-3-20v-297c0-23 8-29 30-35"/>
  <path fill="#232220" d="M852 2624c50-5 98 4 139 35 48 36 61 100 23 148-29 35-70 52-115 57-71 7-163-22-181-102-5-25 3-54 18-75 28-40 70-55 116-63"/>
  <path fill="#7e7a75" d="M853 2639c188-14 227 180 51 210-185 21-237-178-51-210"/>
  <path fill="#646361" d="M824 3124q83 2 165 1 36-3 73 1 13 2 22 11c9 8 8 20 9 31 0 29 7 186-6 199-17 17-44 14-66 14l-150 1c-29 0-63 2-91-3q-21-3-30-22c-3-66-2-137-1-203 1-32 51-30 75-30"/>
  <path fill="#685e4a" d="M909 3133c46-1 65 1 107 23 84 45 87 144 5 192-12 7-52 24-65 26l-9 1c-37 0-65 2-99-11-5-3-16-5-20-9-25-24-54-42-62-78-9-44 10-83 44-110 31-24 62-29 99-34"/>
  <path fill="#c9a64e" d="M1018 3340q-28 19-62 25c-46 9-94 0-133-26-49-32-67-95-29-143 53-70 168-73 235-22 47 36 58 91 20 140q-13 15-31 26"/>
  <path fill="#ceb276" d="M1018 3340q-28 19-62 25c-46 9-94 0-133-26-49-32-67-95-29-143 53-70 168-73 235-22 47 36 58 91 20 140v-7c58-136-99-188-200-147-28 11-51 37-61 65q-13 36 1 71 11 21 32 34l13 8-4 1c15 12 16 4 28 8q76 26 149-5c6-2 5-3 11-2"/>
  <path fill="#86642c" d="M913 3161c151-6 185 167 17 185q-49 3-90-25c-58-41-47-115 15-145 21-10 35-12 58-15"/>
  <path fill="#c9a64e" d="M917 3221c50-2 67 48 12 62-49 2-69-48-12-62M3173 908q-35-16-57-46a98 98 0 0 1-6-106c33-61 106-79 170-80h146q20-1 38 3c2 15 4 42-2 56-9 6-26 10-36 15-60 30-46 91 12 112l27 9c1 17 2 40-2 57l-32 2c-16 5-43-1-58 1-52 9-99 14-151 0h2c-17-4-43-6-51-23m70-41c123-17 74-142-19-126-24 3-49 13-64 33q-12 18-9 40c8 37 57 59 92 53"/>
  <path fill="#232220" d="M3173 908c50 22 79 22 133 22q62-1 125 0c-16 5-43-1-58 1-52 9-99 14-151 0h2c-17-4-43-6-51-23"/>
  <path fill="#c9a64e" d="M23 1057c58-2 119 1 178-1 58-1 122 8 161 56 50 60 31 121-25 165-3 9-18 17-27 21-36 19-81 11-120 12-6 0-42 1-45-2l-122-1c-3-15-5-40 0-54 2-7 34-15 42-19 27-14 43-49 28-77-15-27-44-35-71-43q-3-28 1-57m243 189c42-7 63-23 74-65-8-26-14-37-40-53-13-7-40-12-54-9-24 3-45 10-61 30-23 27-12 63 16 81 20 15 41 17 65 16"/>
  <path fill="#232220" d="M145 1308c84-4 110 12 192-31-3 9-18 17-27 21-36 19-81 11-120 12-6 0-42 1-45-2"/>
  <path fill="#c9a64e" d="M23 2569c39-2 85 0 124-1 26 0 80-1 104 2q27 3 51 14c121 50 115 178-9 226q-25 9-54 11-69 2-140 1c-17 0-67 7-77-8-4-6-2-37 0-46 2-12 34-14 42-21 47-24 47-76 3-102-15-9-28-12-45-17-2-17-3-42 1-59m250 190c112-28 66-141-38-125q-33 4-54 31-12 17-8 38c8 45 60 62 100 56M23 1435l136-1c52 0 96-4 145 16 65 26 105 87 76 155-15 34-51 57-84 69l-3 1c-17 5-50 11-66 12-28 0-187 5-203-3-6-10-3-44-2-57 23-7 45-11 62-29q17-18 15-41c-4-54-60-54-75-66-7-13-3-42-1-56m252 189c39-9 54-24 64-62-13-53-41-63-93-63q-37 1-62 28c-22 26-14 62 13 80 26 19 48 17 78 17M23 1813q95-1 189-1 20 0 40 2 26 4 49 13c62 25 108 83 80 153-15 37-49 59-85 73q-33 10-67 12c-19 2-187 3-197 0q-7-2-11-8c-3-8-1-38 2-46s31-15 39-19q25-13 36-40 5-19-4-37c-16-27-43-36-72-44q-3-30 1-58m255 188c103-29 67-137-45-123-20 4-40 15-52 33q-11 19-7 39 8 27 32 40c24 14 45 13 72 11M24 2191q83-1 168-1 30-1 58 2 27 3 53 14c120 50 114 178-7 225-63 20-128 12-194 13-23 1-58 2-79-2-4-16-3-43 0-59 41-8 96-38 72-91-13-27-46-35-73-43-2-16-3-42 2-58m244 189q59-4 72-63c-7-26-12-36-37-52-11-7-39-14-51-12-27 3-50 9-67 32-20 27-11 64 18 81 25 15 38 14 65 14M3279 2188c48 0 142-3 185 3 2 17 3 42 0 59-28 7-62 21-72 51q-6 20 3 39c15 27 43 35 70 43v58c-20 5-74 3-97 3-75 0-162 9-224-43-48-40-59-107-15-155 42-45 92-54 150-58m-26 192c104-23 76-136-34-126-25 5-45 14-60 36-20 30-1 65 29 80 23 12 40 10 65 10M3287 1054h77c28 0 76-2 101 3 2 17 1 39 1 57-30 9-67 22-76 54-14 51 40 71 76 81l-1 58-105 1c-71 0-158 9-217-39-82-66-41-171 50-200 36-11 57-12 94-15m-47 192c13-2 21-3 34-8 68-30 51-102-17-117-8-2-20-4-28-2-115 12-93 130 11 127M3247 2569c35-2 80 0 117-1 28 0 76-1 102 2v58c-31 7-66 19-75 54q-5 21 7 41c15 23 42 32 68 38v59c-20 3-50 2-71 2-73 0-187 11-242-36-115-98-21-200 94-217m10 188c61-12 89-77 26-113-22-14-44-12-69-11-22 6-45 17-56 37q-11 19-5 39c13 44 64 53 104 48M3243 1435h222l1 58c-30 8-67 21-76 53-13 50 40 71 75 81v58l-66 1h-28c-75-1-147 12-214-31-86-55-70-160 19-200 26-11 39-14 67-20m3 189c107-21 87-128-21-125q-36 2-61 27c-23 25-15 61 11 80 23 16 44 19 71 18M3248 2947c15-2 68-1 86-1 40 1 93-2 131 2l1 58c-30 8-63 18-74 51q-6 21 3 41c14 26 43 35 69 43 11 72-8 59-67 59h-83c-54 0-120 0-163-37-111-97-18-202 97-216m6 189c84-16 85-108 1-124-8-1-26-2-33 0-109 15-80 142 32 124"/>
  <path fill="#ceb276" d="M3256 1813h209v59c-98 12-107 116-1 134l1 57h-153c-62 0-114 1-165-39-70-55-52-147 23-186 31-16 52-21 86-25m65 128c-7-76-123-91-162-31-5 7-8 21-12 30l1 1 8 24c37 54 130 53 159-8q5-8 6-16"/>
  <path fill="#c9a64e" d="M3254 1820c13-3 196-3 201 5v3c-5 25 17 32-20 45-84 27-76 116 9 134 18 4 15 34 8 44-8 10-43 6-55 6h-72c-56 1-130 3-171-39-21-22-43-46-43-78-1-68 80-120 143-120m67 121c-7-76-123-91-162-31-5 7-8 21-12 30l1 1 8 24c37 54 130 53 159-8q5-8 6-16"/>
  <path fill="#c8a867" d="M3321 1941c3 24-5 36-25 51q-34 25-78 19c-33-6-78-32-71-71l1 1 8 24c37 54 130 53 159-8q5-8 6-16"/>
  <path fill="#646361" d="M1351 926h102c36 0 82-3 118 2 6 1 19 9 21 16 20 61-75 41-106 45-23 3-29 4-47 12-37 25-31 55-32 94h-120c67-50-14-147 64-169M2043 926c33-2 76 0 110 0 28-1 102-5 124 7 30 16 10 91 19 119 8 24 13 30 34 43h-128c0-19 1-57-9-72-32-50-107-27-154-38-7-2-19-8-21-16-8-24 6-35 25-43"/>
  <path fill="#cbcbcb" d="M485 2606h78c-2 72 0 192-1 269l-2 2h-8c-20 0-60 4-75-6q-3-10-3-20v-234q3-6 11-11M1190 2606c20 0 57-5 76 2q6 1 8 5a2895 2895 0 0 1 0 259c-14 9-65 5-84 5 2-88 0-182 0-271M2962 2606c20 0 71-4 84 6q3 11 3 22v157c0 23 1 52-1 76q-1 4-6 9c-11 2-65 1-80 1v-271M2259 2606h75v185q0 43-1 84-3 3-11 2c-16 0-63 5-72-8-7-39 0-205-1-253 0-4 6-8 10-10M1872 3168l64-1-1 148c0 38-1 70 2 109q-11 2-24 1c-24 1-46 5-63-15-5-19-6-214-1-225 4-10 15-13 23-17M3009 3168c24-1 66-6 83 11 4 4 6 19 6 24q1 101-1 200-2 8-8 15c-19 11-56 7-80 7 2-27 0-67 0-95z"/>
  <path fill="#646361" d="M497 493c0-9-2-43 4-49 15-13 83-12 98 0 6 6 4 39 4 50v99c1 44 8 59-47 58l-31-1c-28-2-28-11-28-34-3-20 0-99 0-123"/>
  <path fill="#cbcbcb" d="M497 493c0-9-2-43 4-49 15-13 83-12 98 0 6 6 4 39 4 50-19-3-84-1-106-1M498 594c30 0 75 1 105-1 1 44 8 59-47 58l-31-1c-28-2-28-11-28-34z"/>
  <path fill="#646361" d="M2925 449c13-18 37-13 57-13 56-3 48 13 48 58v100c0 11 2 42-4 48-16 14-50 9-70 9q-20 2-31-15z"/>
  <path fill="#cbcbcb" d="M2925 449c13-18 37-13 57-13 56-3 48 13 48 58h-104zM2926 594h104c0 11 2 42-4 48-16 14-50 9-70 9q-20 2-31-15c2-10 1-31 1-42"/>
  <path fill="#646361" d="M1216 3009h221v82h-221z"/>
  <path fill="#fefefe" d="M2925 2981c30 0 64-3 94 5 19 5 32 21 25 42-4 11-15 16-25 20 29 10 42 19 32 52-28 34-85 26-126 25z"/>
  <path fill="#070908" d="M2950 3057c23 0 59-3 78 14 9 9 1 23-7 30-20 12-47 9-70 9zM2950 2996c20 0 98-3 62 39-20 10-39 8-62 8z"/>
  <path fill="#7e7a75" d="M1778 2781h132c0 27-2 59-1 85h-108c-15 0-53 2-64 0q-6-4-8-11c-1-15-5-60 4-70 4-6 38-4 45-4"/>
  <path fill="#cbcbcb" d="M1737 2866q-6-4-8-11c-1-15-5-60 4-70 4-6 38-4 45-4l-1 84z"/>
  <path fill="#7e7a75" d="M1906 2606h1q2 43 1 85l-47 1h-85c-11 0-31 1-41-2-9-11-8-68-2-80 9-6 31-4 43-4z"/>
  <path fill="#685e4a" d="M1906 2606h1q2 43 1 85l-47 1c-6-31 2-53 2-83h36z"/>
  <path fill="#cbcbcb" d="M1776 2692c-11 0-31 1-41-2-9-11-8-68-2-80 9-6 31-4 43-4z"/>
  <path fill="#c9a64e" d="M2646 398c88-7 113 108 65 164-13 10-54 29-66 13-4-17-5-162 1-177M899 399q11-3 21 1c5 11 4 161 1 177-12 8-38-2-50-7-15-10-29-23-32-41-13-57-5-114 60-130"/>
  <path fill="#fefefe" d="M536 2981c32 0 109-9 121 28 11 32-16 47-41 54l48 62h-27c-7-6-39-52-46-61h-30v61h-26c1-20-2-133 1-144"/>
  <path fill="#070908" d="M561 2996c22 0 74-5 72 27 0 10-3 13-10 19-17 9-43 7-62 7z"/>
  <path fill="#ceb276" d="M917 1125c-4-3-16-6-23-10-36-19-32-57-32-92q3-58 60-71c3 10 6 95 8 97 5-17 1-20 9-35v81h82c-9 6-20 1-31 5v3l6 6q-1 8-8 11l-6 4 7-2c-17 12-56 14-72 3"/>
  <path fill="#c9a64e" d="M935 1110c11 5 26-2 31 7-8 7-11 6-21 7q6-1 6-4h-4c-24 0-46-3-63-21-18-12-6-33-8-40q-8-33 0-66c1-6 25-27 31-27 15 14-5 114 10 143h5z"/>
  <path fill="#232220" d="M922 952c3 10 6 95 8 97 5-17 1-20 9-35v81h82c-9 6-20 1-31 5v3l6 6q-1 8-8 11l-6 4 7-2c-17 12-56 14-72 3 34 6 50 3 78-16l-60 1-13-1c-3-9-1-141 0-157"/>
  <path fill="#cbcbcb" d="M776 3071c31-2 69-1 101-1h167c6 0 18-1 22 4 6 9 10 32 0 38l-8-2H791l-22 5c-1-16-5-34 7-44"/>
  <path fill="#c9a64e" d="M2375 1095h33c-13 3-38 6-52 7 12 3 57 2 62 6q14-1 26 3c8 12 5 77-4 86-19 2-86 3-102 0q7-2 13-1c-2-3-13-3-20-4-11-9-2-26-2-38l-3-17 1 4c-5-12-2-29 6-40 7-3 31-2 41-3z"/>
  <path fill="#232220" d="M2375 1095h33c-13 3-38 6-52 7 12 3 57 2 62 6-24 1-65-2-86 2-1 15-4 61 2 73 14 11 93 11 107 0 7-17 1-53 3-72 8 12 5 77-4 86-19 2-86 3-102 0q7-2 13-1c-2-3-13-3-20-4-11-9-2-26-2-38l-3-17 1 4c-5-12-2-29 6-40 7-3 31-2 41-3z"/>
  <path fill="#cbcbcb" d="m768 3391 6 1c25 7 269 6 298 0q2 19-3 35c-13 5-287 6-296 1-9-11-6-23-5-37M1907 2606c23 0 105-5 119 7 4 9 3 24 2 35s5 39-10 41c-34 5-74 3-110 2q1-42-1-85M1910 2781c21 0 105-4 118 7 3 8 3 25 2 34-1 10 5 39-9 42-36 5-75 2-112 2-1-26 1-58 1-85M1550 2606c31-2 67-1 97 1 18 1 13 28 13 41-1 18 6 34-11 44-21 0-90 3-104-5-6-8-4-27-4-36 1-17-7-34 9-45M1551 2781c21 0 93-3 106 5 5 9 3 57 3 69q-3 7-10 11c-17 0-89 5-106-7-3-2-2-24-2-31v-35c1-7 4-8 9-12"/>
  <path fill="#c9a64e" d="M2645 953c50 15 59 39 59 87-1 30-1 60-32 75l-1 1c-26 21-73 12-98-6h70c4-7 3-26 3-35z"/>
  <path fill="#ceb276" d="M2645 953c50 15 59 39 59 87-1 30-1 60-32 75 6-17 25-21 23-49-1-21-5-42-1-63l2 1c1 10-2 28 1 32l2-2v-1c-1-14 3-20-6-34-7-11-15-27-29-31-16 3-9 26-11 38-3 11 0 58-2 63v6l-2 2-3-2z"/>
  <path fill="#c8a867" d="M2695 1066c2 28-17 32-23 49l-1 1c-26 21-73 12-98-6h70c4-7 3-26 3-35l3 2 2-2v-6c1 10 6 34 12 39 14-1 31-30 32-42"/>
  <path fill="#ceb276" d="M2573 1110h70c-8 6-40 6-51 7q30 12 61 2 9-3 18-3c-26 21-73 12-98-6"/>
  <path fill="#c9a64e" d="M1087 1109c20-2 89-2 106 1 2 18 6 66-6 79-15 3-84 4-98-2-9-4-11-69-2-78M2180 1109c17-2 89-3 102 2 7 9 3 45 4 58q0 12-10 20c-23 4-56 0-82 1-32 2-18-55-19-75q0-5 5-6M1256 1109q46 0 91 1c5 15 6 49 3 65-2 9-5 11-11 15h-78c-5 1-15-1-18-5-7-13-6-60-2-72q7-5 15-4"/>
  <path fill="#7e7a75" d="M3106 470c0-5 1-5 2-9 11-9 53-8 64 1 2 10 2 93 0 102-11 11-53 10-65 1-2-9-1-81-1-95"/>
  <path fill="#cbcbcb" d="M3106 470c0-5 1-5 2-9 11-9 53-8 64 1v21c-9 0-58 1-63-1zM3107 565c0-6 0-15 3-19 13 0 50-3 60 3q3 8 2 15c-11 11-53 10-65 1"/>
  <path fill="#7e7a75" d="M355 462c10-10 49-10 62-2 3 1 2 18 2 22 0 14 2 73 0 83-10 10-53 9-64-1-2-8-2-94 0-102"/>
  <path fill="#cbcbcb" d="M355 462c10-10 49-10 62-2 3 1 2 18 2 22-19-1-44 1-62-1q-3-9-2-19M355 564q-2-9 3-16c13-8 25-2 40-2q11-1 20 1l1 18c-10 10-53 9-64-1"/>
  <path fill="#fefefe" d="M538 758c30-3 50-1 74 17l-14 13a67 67 0 0 0-50-15q-23 4-37 22c-19 26-15 70 14 88 17 11 35 10 54 6 10-4 15-8 24-14l14 12c-48 36-123 28-140-34-14-48 15-85 61-95"/>
  <path fill="#7e7a75" d="M1346 3379c20-2 111-2 129 1 6 8 7 37-3 45l-9 1c-14 1-106 1-116-1-5-8-6-37-1-46"/>
  <path fill="#cbcbcb" d="m1346 3379 29 1-1 45h-27c-5-8-6-37-1-46M1475 3380c6 8 7 37-3 45l-9 1c-3 0-12 0-13-3-5-11-3-31-3-42z"/>
  <path fill="#7e7a75" d="M1348 3160c17-2 112-3 128 0 6 8 6 36 0 43q-12 3-26 2h-78c-7 0-18 1-24-1-6-9-6-36 0-44"/>
  <path fill="#cbcbcb" d="m1449 3161 27-1c6 8 6 36 0 43q-12 3-26 2c-2-5-1-37-1-44M1348 3160h25l-1 45c-7 0-18 1-24-1-6-9-6-36 0-44"/>
  <path fill="#7e7a75" d="M1428 3264q-1-11 2-21c9-4 47-4 57-1 2 15 2 85 0 99-9 5-49 5-58 0q-2-9-1-20z"/>
  <path fill="#cbcbcb" d="M1428 3321c12 0 46-1 57 1q2 10 2 19c-9 5-49 5-58 0q-2-9-1-20M1428 3264q-1-11 2-21c9-4 47-4 57-1l-1 22z"/>
  <path fill="#7e7a75" d="M1498 3017q-1-11 2-20c6-4 49-6 56 2 2 1 1 15 1 19v56q1 11-2 21c-7 5-48 5-55 0q-3-10-2-21z"/>
  <path fill="#cbcbcb" d="M1498 3017q-1-11 2-20c6-4 49-6 56 2 2 1 1 15 1 19zM1498 3074h59q1 11-2 21c-7 5-48 5-55 0q-3-10-2-21"/>
  <path fill="url(#b)" d="M1047 2977h72q12-1 23 2c5 11 11 33-3 43-3 2-14 1-19 1h-73q-15 1-28-1c-7-9-7-35-1-44 7-2 21-1 29-1"/>
  <path fill="#cbcbcb" d="M1047 3023q-15 1-28-1c-7-9-7-35-1-44 7-2 21-1 29-1l-1 38zM1119 2977q12-1 23 2c5 11 11 33-3 43-3 2-14 1-19 1l-1-2z"/>
  <path fill="#7e7a75" d="M1046 3015c18 9 54-4 67 6l3-1v-15l1-1c4 7-1 9 2 17l1 2h-73z"/>
  <path fill="#685e4a" d="M1221 3185q-1-10 1-18c8-5 47-5 56-1q2 11 1 20v57q1 11-2 21c-9 5-45 3-56 1-2-11-1-67 0-80"/>
  <path fill="#cbcbcb" d="M1221 3265q-1-11 2-20c9-2 43-1 56-2q1 11-2 21c-9 5-45 3-56 1M1221 3185q-1-10 1-18c8-5 47-5 56-1q2 11 1 20c-12 0-51 1-58-1M677 3207q25-2 52-1c0 15 3 87-3 94-14 0-38 3-50-3-7-10-7-80 1-90"/>
  <path fill="#c9a64e" d="m1691 1188-6-10c-2-15-5-53 1-65 12-8 37-8 49-1q5 6 6 15c4 16 12 36 5 52-10 22-34 16-53 13l-2-2z"/>
  <path fill="#232220" d="M1741 1127c4 16 12 36 5 52-10 22-34 16-53 13l-2-2v-2c67 10 43-19 50-61"/>
  <path fill="#cbcbcb" d="M1113 3206c11 0 40-2 48 3 7 13 6 76 3 88-14 5-36 3-51 3z"/>
  <path fill="#fefefe" d="M2927 759h24v131c17-1 71-5 81 4 1 6 1 6-1 11h-104z"/>
  <path fill="#c9a64e" d="M2080 1109c43-2 52-7 49 43 0 14 1 25-9 36-6 2-19 3-25 3q-11-1-17-9c-11-14-6-47-5-65q2-6 7-8M1498 1109c13-1 31-3 43 2 12 10 8 64-3 77-58 19-49-34-47-70 1-6 3-6 7-9M1789 1109c18-1 28-2 45 2 1 24 12 59-6 78-62 12-45-25-46-71q0-7 7-9M1401 1109c18-2 29-1 47 1 2 16 2 37 2 53 0 12-1 18-10 26-33 5-46 3-46-33 1-14-7-39 7-47M1888 1109c17-1 28-1 44 2 2 15 2 41 1 57 0 11-1 15-9 21-29 3-47 6-45-32 1-14-2-30 2-44q3-3 7-4M1595 1109c11-1 36-3 44 3 6 13 3 37 3 51 0 12 0 18-9 26-60 15-44-34-44-77zM1985 1109c18-1 28-2 45 2q2 28 1 58c0 10-2 13-9 20-47 8-45-7-45-47q-1-14 1-29 3-3 7-4"/>
  <path fill="#cbcbcb" d="M1234 2989c10 1 19-2 28 1 4 5 3 3 3 11q-15 2-28-1c-4-4-3-3-3-11M1310 2990c9 0 23-3 30 2q3 3 2 9c-10 0-24 4-31-3zM1388 2989c10 1 18-2 27 1 4 4 3 3 4 11-13-1-22 4-31-3zM1232 3100c8-1 25-3 32 1q2 3 3 8c-7 2-26 4-32-1q-2-2-3-8M1309 3099c12 1 17-2 29 1 5 4 3 3 4 11-9-1-24 2-31-3q-2-3-2-9M1387 3100c9 0 24-3 31 2q3 3 2 8c-9 0-24 3-31-2q-2-3-2-8"/>
</svg>
