<svg xmlns="http://www.w3.org/2000/svg" width="2376" height="2295" preserveAspectRatio="none" style="display:block" viewBox="0 0 2295 2295">
  <path fill="#00865f" d="M55 0h296l-1 3c11 21 29 39 54 27 8-3 22-23 23-30h66q0 3 4 4 5 17 20 25c13 8 30 6 42-4q12-9 14-25h65l4 5c13 31 45 40 69 14q6-6 9-16l4-3h61l3 4c13 30 46 42 70 14 5-4 5-10 10-15l2-3h60l-1 3c8 4 7 10 12 16 21 24 52 17 67-9l3-6 2-4h62l5 3q7 21 27 29 14 5 28-1c16-8 18-20 27-29l-1-2h65l-1 2c8 22 29 38 54 29 18-6 18-20 29-28l-2-3h66v4q9 22 31 28c31 11 40-23 50-28l2-4h63c1 11 6 12 8 18 11 12 26 20 43 14q15-6 24-21l5-7 3-4h62l18 28c13 5 15 6 29 6l18-10c9-8 10-17 16-20l3-4h67c4 11 10 27 22 31 31 17 46-24 55-27V0h67c5 7 8 4 12 15q5 13 19 18c36 4 37-25 48-29V0h201c3 6 3 4 9 6 25 6 41 27 42 53v355c0 6 1 29-2 33l1 27c-20 8-18 17-29 29 3 19 16 29 30 39 0 10 1 50-2 55l1 26c-18 9-18 13-29 30 5 26 18 23 29 39 2 3 2 46-1 51l1 27c-18 7-20 14-29 31 5 20 16 25 30 37 0 9 1 53-2 56l1 27c-17 7-20 15-29 30 3 19 16 28 30 38 0 8 1 49-2 52l1 26c-17 6-20 16-29 30q4 22 22 33l8 4c0 10 1 51-2 57v26c-18 6-18 17-28 29 5 22 13 24 27 37 5 4 4 50 1 53l1 27c-20 8-18 17-29 30 3 18 16 29 30 38 0 7 1 54-2 57l1 26c-19 7-19 17-29 30 3 18 16 29 30 38v598q1 33-1 64c-2 22-24 42-44 46-5 1-5 0-7 5h-178l-1-5h-28c-13-19-29-32-53-21-10 9-12 13-17 26h-47l-4-5c-23-1-22 4-37-16-11-14-32-10-46-2-11 8-8 14-16 21l-1 2h-45q-3-6-11-5h-13c-20-28-40-34-69-11-2 8-6 8-8 16h-47l-5-5h-16c-17-22-36-35-63-16-4 3-9 11-13 15l-4 6h-50l-1-5c-32 0-19-20-57-26q-3 2-7 2c-13 2-22 15-30 24l-5 5H723l-4-5c-9-4-8-11-17-17-8-6-12-6-20-8-15 1-24 3-33 15-7 10-9 10-21 10-4 2-3 0-6 5h-48q-1-4-4-7c-23-31-53-32-74 2h-18l-5 5h-46l-11-19c-13-10-20-10-36-10-13 7-23 12-29 26v3H55l-4-4q-18-4-32-17c-6-6-14-17-14-25q-2-36-1-73v-605c19-11 28-22 29-45-9-12-10-24-26-32q-2-2-2-7-3-33-1-67c19-12 27-23 29-46-7-13-13-23-26-32q-3-2-2-6c-1-9-3-58 0-62 11-14 25-14 28-45-11-22-7-19-27-33q-3-7-1-14c-2-11-1-46-1-58 18-13 28-22 29-45q-9-19-25-32-4-2-3-7c-3-46-1-110-1-159V56q0-13 7-25Q24 12 46 6c5-2 6-1 9-6"/>
  <path fill="#efbe59" d="M1977 2269q-2-3 1-5c18-18 49-15 67 2 6 6 13 16 13 24h-28c-13-19-29-32-53-21M327 2291c10-33 44-50 75-32q11 6 14 17c-13-10-20-10-36-10-13 7-23 12-29 26q-11-3-24-1M1671 2279q1-7 6-11c21-23 53-22 73 0 4 5 12 14 10 21l-7 1h-13c-20-28-40-34-69-11M1826 2272l-1-2c22-30 70-21 83 14q2 3 1 6c-23-1-22 4-37-16-11-14-32-10-46-2M478 2290l-2-2c13-22 21-36 51-36 17 0 43 17 43 36-23-31-53-32-74 2zM1519 2289c0-22 29-39 49-37q21 2 35 17l10 18-2 3h-16c-17-22-36-35-63-16-4 3-9 11-13 15M2037 4h27l-8 14c-15 23-41 32-65 19l-2-2v-2c36 4 37-25 48-29M1891 4c9 1 14 0 23-1-14 29-34 50-71 35l-8-6 1-1c31 17 46-24 55-27M327 4c9 0 14 1 23-1 11 21 29 39 54 27v4c-9 6-17 6-28 10-27-6-40-12-49-40M1744 4h20c-10 28-35 46-65 36-5-1-15-8-18-12 13 5 15 6 29 6l18-10c9-8 10-17 16-20"/>
  <path fill="#fecb51" d="M1011 4h8c2 7-4 14-9 20-18 21-50 26-71 5-5-4-20-22-13-27l3 1c8 4 7 10 12 16 21 24 52 17 67-9z"/>
  <path fill="#efbe59" d="M720 3c5 12-15 30-25 34-27 13-55 2-67-26V5q7-2 14 0c13 31 45 40 69 14q6-6 9-16M1453 4h9c6 7-6 20-12 25a48 48 0 0 1-71-5c-3-4-10-15-10-20h3q9 22 31 28c31 11 40-23 50-28M1598 4l19-1c-11 18-15 32-39 38-18 5-48-4-52-23 11 12 26 20 43 14q15-6 24-21zM474 4h23q5 17 20 25c13 8 30 6 42-4-2 11-20 16-29 17-33 2-42-14-56-38"/>
  <path fill="#fecb51" d="M1308 3q5-1 8 3c-10 31-47 48-75 28q-15-10-20-27c1-4 0-3 4-5 8 22 29 38 54 29 18-6 18-20 29-28"/>
  <path fill="#efbe59" d="M788 4c13 30 46 42 70 14 5-4 5-10 10-15 6 10-12 27-20 32q-18 11-38 6c-23-6-27-20-36-36z"/>
  <path fill="#fecb51" d="M1162 2h2l2 1c2 14-19 33-31 37q-20 6-38-3c-9-5-30-23-24-33l7-1q7 21 27 29 14 5 28-1c16-8 18-20 27-29"/>
  <path fill="#efbe59" d="M1394 2257c27-12 56-3 69 26l1 7c-32 0-19-20-57-26q3-4 9-5c-6-2-16-2-22-2M628 2290l-2-2q0-5 3-11c14-22 43-33 67-20h-17l-1 2 4 6c-15 1-24 3-33 15-7 10-9 10-21 10M2259 801c-5-16 2-34 12-47 3-4 11-11 16-11l1 27c-18 7-20 14-29 31M2259 653c-7-16 12-59 28-56l1 26c-18 9-18 13-29 30M2259 503c-7-17 12-54 28-56l1 27c-20 8-18 17-29 29M2259 1246c-7-16 13-57 28-55v26c-18 6-18 17-28 29M2259 1393c-7-18 12-55 28-57l1 27c-20 8-18 17-29 30M2259 1544c-8-17 13-55 28-56l1 26c-19 7-19 17-29 30M2259 951c-8-18 10-50 28-57l1 27c-17 7-20 15-29 30M2259 1097c-7-17 12-54 28-56l1 26c-17 6-20 16-29 30"/>
  <path fill="#fecb51" d="m5 1182 2-2c4 1 11 9 14 12q14 16 12 37c-11-22-7-19-27-33q-3-7-1-14M5 1040c0-5 0-5 2-8 15 2 28 32 26 47q-9-19-25-32-4-2-3-7M5 1487l1-8 1-1c16 10 29 29 26 48-9-12-10-24-26-32q-2-2-2-7M5 1336l1-6c8-5 20 17 23 23q5 10 4 21c-7-13-13-23-26-32q-3-2-2-6M696 2257q17 11 24 31l-1 2c-9-4-8-11-17-17-8-6-12-6-20-8l-4-6 1-2zM1370 2290l-1-2q7-20 25-31c6 0 16 0 22 2q-6 1-9 5-3 2-7 2c-13 2-22 15-30 24"/>
  <path fill="#fbf9f7" d="M700 167c9-21 35-44 59-45h1104q131-2 260 0 14 0 27 6 29 13 40 43c6 19 3 96 3 120v1780c0 31-19 61-49 71l-13 3H243c-31 0-60-25-67-54-6-22-1-51-3-74V959c0-27 26-63 53-68 27-4 63-2 91-2q122 1 242-1c30 0 98 5 120-10 14-9 10-64 10-81V245c0-25-3-49 8-72z"/>
  <path fill="#e9e5e5" d="M700 167c9-21 35-44 59-45h1104q131-2 260 0 14 0 27 6 29 13 40 43c6 19 3 96 3 120v1780c0 31-19 61-49 71l-13 3H243c-31 0-60-25-67-54-6-22-1-51-3-74V959c0-27 26-63 53-68 27-4 63-2 91-2q122 1 242-1c30 0 98 5 120-10-3 8-25 22-30 23-20 3-47 2-67 2H323q-23-1-39 14a77 77 0 0 0-23 62v1041c0 45-6 89 46 109 4 2 18 4 20 6-28-1-55-20-63-47-7-23-4-68-4-93v-919q-1-55 0-110c-1-20 20-56 39-62 15-5 59-3 78-3h178c29 0 68 2 98-3q3 0 4-4H311c-23 0-54 0-77 2q-17 4-32 12c-27 17-21 60-21 88v1099q3 11 9 18 17 21 42 27h24q33 0 66-1l291 1h1506c56-1 52-42 52-83V198q1-30-25-45-8-5-17-6-37-2-75-1H742c-20 0-28 10-42 21"/>
  <path fill="#000100" d="M1879 1635c43-5 60 27 83 57l50 66 74 98q23 27 43 56c23 34 12 79-22 100-9 5-16 4-22 9h-387c-26-1-52-22-59-47-12-42 11-66 34-95l61-82 75-98 19-24c13-17 21-31 43-37z"/>
  <path fill="#fbf9f7" d="M1879 1679c6-1 17-2 21 2l27 33 50 66 79 104 39 51q5 8 6 15 0 13-9 22l-4 3q-5 5-10 6h-376c-6 0-6-1-10-4l-3-2c-5-2-9-9-12-13-1-6-2-17 1-22q10-15 23-31l48-63 82-107c13-18 32-45 48-60"/>
  <path fill="#000100" d="m1853 1969-10-5a118 118 0 0 1 10-215q36-14 72 0c9 3 12 14 8 21q-3 6-9 6c-21-3-42-9-63-1-25 9-48 33-54 59l-5 25c0 6 8 35 11 40 44 80 152 52 160-37 0-2 1-11 3-13 10-12 18-5 25 5a117 117 0 0 1-79 115c-11 1-22 6-34 6-11 0-21-5-33-6z"/>
  <path fill="#bdbdc0" d="M1853 1969h2c12 1 22 6 33 6 12 0 23-5 34-6-4 3-4 2-6 5 5 6 45 3 54 3h66q27 1 52-2-5 5-10 6h-376c-6 0-6-1-10-4l-3-2 16 2 144 1 11-2 1-3c-3-3-3-2-8-4"/>
  <path fill="#000100" d="M1960 1790c18 3 19 2 19 20-26 32-66 65-92 95l-13 5c-25-16-13-27-22-36-3-15-8-21-10-40 6-14 12-11 24-9l11 30q1 8 4 14c10-7 23-22 32-32zM1990 1155c16 1 103-1 110 3 1 3 2 13 1 16-4 16-30 3-41 10-11 20 46 6 52 10 3 10 3 31 1 41q-6-2-11 1-4 8-1 17c2 10 6 4 11 7 4 8 2 31 2 41-10-1-36-3-42 4 0 11 34 7 42 6 0 6 1 23-2 27q-12-1-12 11l-1 2c-4 3-30 2-39 3h-1c-1-7 1-13-6-17l-2 1c-8 8-8 57 0 66 3 0 2 1 5-1q4-7 3-14h8c6-5 3-15 3-24 7-1 25-2 30 2 3 5-7 23 10 23h1c4 5 3 21 3 28-10 0-40-4-44 6 6 8 34 5 44 5 0 11 2 61-2 67h-42v-27q9 1 15-3c1-4 1-2-1-6-5-5-17-3-25-2-1 10 3 32-3 38h-60c-13 0-2-17-8-25q-3-2-8-1c-9 5 0 13-4 23q-3 4-7 4c-13-5-11 6-21-7 0-32 9-31-25-33-1 10 1 32-3 39-6-2-29 3-39-1q-2-6-2-13c-9 0-18 3-24-2-2-5-2-14-2-19 9-13 39 1 53-7q3-6 2-12h15q-1-25 0-48c1-8 5-1 12-5q2-6-2-11h-7q-6-11-3-25h-27c-1-6 0-14-8-15-7 6-5 18-4 27 6 0 18-2 23 0q5 9 3 19c-1 14-18 4-25 8-2 4-3 4-2 8 5 6 14 2 24 4 6 5 4 18 0 25-5 3-22 3-26-3-1-2 2-4-2-8h-9q-2 3-3 10c-4 4-31 2-39 2 0 8-2 34 3 39l7 1c8 1 5 17 3 22-6 6-37 6-40 3-4-4-2-30-2-37l-15-1v-27l15-1c-1-19-4-27 14-26 9 1 40 4 41-6-4-8-19-6-26-5l-1-14h-26c-1 7 1 10-6 14q-4 0-6-2c-6-6-4-54-3-63 5-4 16-2 24-2 5-5-1-8 5-12 5-2 24-3 27 3 3 5 1 18-4 22l-8 3c-5 6-3 15-3 24 31 1 27 0 26-30 0-8 2-26 0-32q-5-3-12-3c-3-6 1-10-4-14l-8 1c-4-4-3-6-5-12-3-3-6-1-11-3-2-5-1-19-1-25 12-1 58-2 66 0 6 6 3 11 3 19s7 9 12 5c2-3 2-32 2-38h68l1 79 66 1v-41c11 0 36 4 43-4 0-4 1-3-1-6q-7-2-14-1c0-6-1-24 2-28 8 0 9 1 13-5l-3-6c-6-3-44-1-52 0 0-7-3-26 4-28l7 1q3-5-1-11c-6-4-28-2-38-2z"/>
  <path fill="#fbf9f7" d="M1964 1339c11 0 46-3 52 3 4 7 2 36 2 47-16 2-39 1-55 0z"/>
  <path fill="#000100" d="M1980 1350c8 1 18-1 23 4 3 7 4 19-2 25-6-1-17 1-22-2-5-6-4-21 1-27"/>
  <path fill="#fbf9f7" d="M2019 1418q8-3 11 3l1 8c5 4 21-2 27 3 0 4 1 4-1 8-6 4-19 2-27 1l-1 16q-5-2-9-2c-2 6-3 15-9 16q-3-1-5-4c-2-4-2-31 2-36q5 1 9-2 3-5 2-11M1938 1418h51l1 2v9l-2 1c-12-1-47 3-52-5q0-4 2-7M1884 1300c12 1 29-2 37 2 2 4 2 4 1 9-8 2-32 4-39-2zM1924 1261q5-2 11 1c1 8 0 30-1 37l-9-1c-3-5-2-30-1-37M1856 1273c8 0 18-2 23 4q1 5-1 9c-7-1-17 1-22-3q-2-5 0-10M1926 1312l6 1c4 3 3 1 4 6q0 4-3 7-4 0-8-2c-3-4-2-2-3-7z"/>
  <path fill="#e9e5e5" d="M960 530c16-37 37-65 74-84 29-14 66-18 96-8 10 23 8 24-5 44v2l-4 1-1 2q5 1 6 4l-1 2c16 2 10 11 17 17q3 4 6 10l2-5c7-2 20 9 26 12 50 28 85 110 62 163l-8 7-17-1-14-11c-4-5-4-4-10-4v1c-3 23-32 24-44 8q-3-7 0-13v-15c-3-3-2-2-7-3-1 14-3 42-24 40q-9 0-16-4c-8-10-10-13-10-25 3-16-2-51 0-67l-1-4c-5-3-34 0-45-1 0 7 1 29-1 37l-3 3c-6 0-38 4-42 3q-3-4-4-12c-2-24-11-42 0-68l-1-4c-3-5-2-4-2-10-10-12-15-12-29-17"/>
  <path fill="#0069c6" d="M960 530c16-37 37-65 74-84 29-14 66-18 96-8 10 23 8 24-5 44h-1q-18-1-37 0c-34 5-61 25-83 49q-8 7-15 16c-10-12-15-12-29-17M1148 520l2-5c7-2 20 9 26 12 50 28 85 110 62 163l-8 7-17-1-14-11c1-76-16-88-63-143q10-9 12-22"/>
  <path fill="#0069c6" d="M1150 570c34 43 41 54 39 111v1c-3 23-32 24-44 8q-3-7 0-13v-15c-3-3-2-2-7-3v-12q1-17 0-33 1-3 4-5-1-7-5-13c7-10 9-15 13-26"/>
  <path fill="#ebe6da" d="M1138 647q1-17 0-33 1-3 4-5c4 20 11 49 3 68v-15c-3-3-2-2-7-3z"/>
  <path fill="#0069c6" d="M1014 533a111 111 0 0 1 111-40c16 2 10 11 17 17q-3 17-13 29c-15-5-52-8-66-2-33 12-22 0-49-4M1011 542c13 4 17 4 25 16 1 22 0 61 2 80-6 0-38 4-42 3q-3-4-4-12c-2-24-11-42 0-68l-1-4c4-10 10-12 20-15M1088 603c16 1 28 3 43-4l7 48v12c-1 14-3 42-24 40q-9 0-16-4c-8-10-10-13-10-25 3-16-2-51 0-67M1078 544c12-3 39 0 51 5l8 6c2 12 2 16-1 27-12 14-19 12-37 11-17 0-33 4-49 2-2 0-8-37-5-44 6-4 24-5 33-7M1367 489h82c34 0 81-6 107 21 17 19 20 33 20 58 0 32-12 41-33 62 2 3 1 2 5 4 31 18 25 60 28 90 0 8 8 22 4 28-6 1-47 2-53-1q-2-6-3-13c-7-21 2-59-17-77q-6-6-15-9c-11-3-55-1-69-1v101h-54c-6-5-4-42-4-51V548c0-10-2-53 2-59"/>
  <path fill="#fbf9f7" d="M1425 535c24 2 67-6 86 10 14 12 12 41-1 54-14 14-43 7-61 8h-23c-3-5-2-64-1-72"/>
  <path fill="#0069c6" d="M2000 489c20 0 54 1 72-1l-11 13-76 79q-6 7-11 15c1 5 64 95 71 105q13 21 28 40 3 3 3 9c-5 3-55 0-66 2-6-5-14-18-19-26l-36-55c-6-10-16-27-23-35q-15 18-30 34c0 11 2 75-3 81h-53q-1-78-1-157v-66c0-7-1-33 2-38h55v39l-1 69c9-8 20-22 29-31zM1684 489c13-1 46-1 58 1 2 11 19 56 24 69l48 134c5 12 18 45 19 57l-53 1h-2c-8-15-13-38-20-55-1-2-13-1-16-1h-75c-6 7-18 44-20 55-8 1-49 1-56-1-3-7 70-192 77-218z"/>
  <path fill="#fbf9f7" d="M1712 559q2 0 3 2c1 10 23 78 28 88l-32 1h-30c1-11 26-81 31-91"/>
  <path fill="#000100" d="M322 1478c-4-6-24-32-23-39q5-2 10-2c17 1 14 11 23 23l3-1q8-8 13-20l19-2 1 2c-1 12-21 30-21 41 0 2 22 35 25 40q12-20 24-38c6-10-24-33-19-43q4-3 9-1c15 0 17 15 26 25l1-3c2-6 10-21 16-23 7 3 11-1 15 3-1 13-19 27-22 39l21 33 6 4c5-2 19-30 25-37l-14-23c-3-6-10-9-7-16q6-4 11-2c14 1 12 12 20 22 10-1 5-9 15-16q7-7 17-8c4 3 3 1 4 5-1 11-16 25-20 34s17 29 23 45c5-8 23-31 26-40 3-10-23-31-22-42l1-1c10 3 13 0 18 1 6 6 13 18 16 26l16-25q12-1 23-3c-7 14-21 29-26 42 2 8 19 34 26 39l2-1c5-14 18-24 22-35 4-10-24-31-20-43l2-1q4 2 8 1c16-3 14 18 23 22 11-3 9-24 22-22 7 2 8-3 12 2 0 10-17 27-21 39l24 38c7-4 15-19 20-26l7-13c-5-11-21-30-24-40h21q8 11 15 24l17-24q9 1 17-1l2 2c-1 10-23 33-22 41 0 5 21 34 26 39 4-10 19-31 26-40-5-6-27-35-22-42l19 2 12 20c11 3 10-27 26-20l8-1 1 3c0 11-16 24-21 37 0 3 22 36 23 38l7-3 22-34c-5-10-23-32-21-40l2-1c21 1 21 3 29 24 9-8 11-13 17-23l18-2 2 1c-1 10-20 31-22 41-1 5 21 35 25 41l25-40c2-7-22-30-21-41 4-2 13-1 18-1 7 8 10 17 18 25 2-8 10-23 17-26 35 2-6 27-6 40 0 11 18 25 20 38q5 2 9 0c2 5 1 4 4 6l9 2-38 1c-4-7-11-21-16-25-9-1-11 18-21 24-49-1-29 10-58-28q-7 13-15 28c-11 0-32-1-42 1-4-6-13-25-19-25-6 5-12 18-18 25-12-2-26 1-36-1-8-2-17-21-21-29-5 10-13 19-16 29h-37c-15 0-13-25-26-26q-5 15-15 25c-8 2-33 2-41 0-5-6-14-20-16-27q-9 14-19 27l-17 1c-27 2-23 0-37-20l-7-6-15 26-41 1-16-27c-5 1-14 19-21 26-6 2-29-1-36 0-6 0-17-21-22-28q-7 14-15 28h-20l-1-1c2-9 20-32 26-43z"/>
  <path fill="#0e100e" d="M976 1515q5 2 9 0c2 5 1 4 4 6l9 2-38 1c6-3 13-1 17-6z"/>
  <path fill="#000100" d="M1812 999c7 0 24-3 28 2q-1 15 12 8l3-8c7-4 19-3 28-2 1 6 2 21-3 25q-6-1-10 2c-4 6 0 10-5 13h-8q-5 6 1 12h8c4 4 2 29 2 38h25l2-6c-3-5-11-6-12-9-3-7-4-32 2-37q12 1 9-13v-13c7 0 24 2 28-2q0-5 2-8c5-4 20-2 27-2l-1 26c-6 0-19-1-23 1-5 5-6 19-2 25h7c4-6 0-7 4-13 3-2 24-1 26 2 3 4 1 19 1 24l-27 1c-1 10 1 29-2 37-6 3-12 3-12 12q0 9 4 15l7-1q2-7 2-13h29c0 7 1 25-3 29l-8-1q-4 6-1 11c4 3 20 1 26 1v27c-6 0-11-2-14 4q-2 5 1 7c16 8 49-15 39 25-4 4-56 3-67 4h-2c-1-10 2-36-3-41-18 6-5-16-11-24l-8-1c-6 6-4 27-3 34 0 6 7 2 12 5l1 4v23c-11-2-17-1-28 0-2-10 2-19-3-25q-4-2-7 0c-4 4-2 29-2 38l-71-1v-39l25-1c8 7 0 15 3 24q3 3 7 2c14-1 2-17 8-25 7-3 20 3 28-4-1-12-18-8-24-9-8-2-7-19-4-25 4-3 31-2 39-2 1-9 1-28-1-37l-4-2c-9 1-6 19-6 27-8 1-23 2-28-2-5-7 0-23-1-34q-7-6-14-1v38l-28-1v-53c9-1 21 2 26-3 2-5 3-20-2-23-5 0-4-1-7 1-2 5 0 9-3 12l-24 1c-4 9-2 52-2 66l-16-1c-2-40 0-91 0-132l16-1c0 11-3 35 5 41l6-1c3-8 1-39 1-50z"/>
  <path fill="#000100" d="M1621 1168c10 0 35 1 41-2l1-8c4-6 19-4 25-1l3 9c5 4 20 3 25-1l1-8c5-3 69-1 83-3 0 8 1 35-1 41q-10 0-15 5c2 10 9 7 16 7 0 9 2 20-3 27q-4 3-9 1c-4 4-5 18-1 23q6 0 11 3c3 6 3 20 0 26l-1 1-4-2q-6 4-7 13c-3 2-10 2-13 2l-1 39-27-1v-26h-40c0 5 4 39-14 23-3-3-1-18 0-23h-26l-1 24c-3 4-35 2-43 2v-27h27q7 1 13-1c3-4 2-2 2-6-5-7-32-5-42-5v-27l16-1-1-51h-15z"/>
  <path fill="#0e100e" d="M1621 1312h27c-3 3-17 2-22 2 1 37 10 15 38 23-3 4-35 2-43 2z"/>
  <path fill="#fbf9f7" d="M1734 1181c12 4 32-3 38 4 0 4 1 4-1 8-6 6-20-4-26 3-2 5-3 22 1 26 7-1 16 0 11 9-5 3-31 2-40 2 0 9 2 23-7 29l-2-2c-5-10-4-16-4-27-6-2-32 0-39 0v-25q-8 1-14-3c1-12 14-9 23-9h30c-1 33 0 22 28 26 1-11-1-32 2-41M1746 1261c7 0 24-3 27 5l-3 7c-8-1-21 2-26-4zM1721 1273c8 0 20-3 23 5-1 5 0 5-3 8-7-1-20 2-24-6q1-4 4-7M1678 1248h4c10 0 7 18 6 25h-8c-7-3-4-20-2-25"/>
  <path fill="#000100" d="M1622 997h64c17-1 73 1 86-2v147c-4 3-134 2-150 2-2-27 0-59-1-87z"/>
  <path fill="#fbf9f7" d="M1650 1024c29-2 65 1 93-1l1 51-1 42c-24-2-67 0-94-1 1-24-2-70 1-91"/>
  <path fill="#000100" d="M1668 1037h62c4 5 4 62 1 66l-3 1c-11 0-60 2-65-3v-58q0-5 5-6M1622 1351h150c2 25 0 59 1 85l-1 60-43 1-108-1v-95c0-12-1-39 1-50"/>
  <path fill="#fbf9f7" d="M1657 1378c15 1 73 1 86-1 1 12 3 87-1 92h-92l-1-43 1-46q1-3 7-2"/>
  <path fill="#000100" d="M1664 1390c20-2 48 2 68-1v18c-1 10 3 46-2 52-13-1-59 1-67-3-1-6-1-62 1-66M2112 996zc2 8 1 132 1 148l-58-1-76 1q-3-2-3-5c-3-11 0-38 0-52q-1-39-1-79l2-8c5-8 115 0 133-4z"/>
  <path fill="#fbf9f7" d="M2007 1023h78c1 14 2 80 0 91l-3 2-78-1c2-18-1-83 3-92"/>
  <path fill="#000100" d="M2020 1036c10 3 42 2 54 1v67h-56c0-12-2-60 2-68M955 1292c6 1 11 26 19 25l14-23c4-1 18-2 20 0 0 9-18 26-23 39 0 6 21 35 26 41h1c5-12 18-30 26-40v-1l-2-1c-5-7-21-29-22-37q1-2 3-3c4-1 13 2 16 3q5 3 6 7 3 9 12 14c7-4 9-31 22-22 1 0 4-3 8-1 5 12-20 30-20 42l23 37h3c7-6 22-30 26-39-6-8-23-32-25-40 7-2 10 3 18-1 8 5 14 19 17 28q9-13 17-27h19c5 8-21 30-21 40-1 14 29 34 20 44q-9 2-18 1-7-15-16-28-9 13-16 28h-40c-9-1-11-19-19-24-12 2-10 31-34 24h-25c-6-4-15-22-18-28l-14 24q-5 5-13 4c-9 0-23 2-31-1-5-2-14-25-22-24-4 12-7 15-15 26-8-2-31-1-40-1q-9-13-16-27c-8 8-9 15-16 23-4 4-17 7-21 1 0-10 22-32 23-40s-24-32-22-42h14c10 0 18 20 22 28q5-15 15-27l24-3c-9 11-20 29-28 42 3 8 20 38 28 39l23-37c-1-12-19-25-21-39 2-4 0-2 4-4 31 3 17 17 30 23 12-3 8-24 22-22q5 0 10-1l2 2c1 11-16 28-20 36-5 8 19 32 22 45 8-8 22-29 26-39 5-8-23-34-21-43q9 1 18-1"/>
  <path fill="#0069c6" d="m942 547 19-7c8 5 16 6 23 14l2-1 2 7 4 1c-11 26-2 44 0 68-7 12 4 23-9 28q-4 4-3 11l-2 2h-4l-3 3c3 8 5 2 8 9l-1 2c5 9 4 9 12 17-10 11-10 12-13 27-8-1-11-3-17-6-39-21-68-61-76-104-1-9-4-23-4-32l6-31c15-15 31-9 43 7 1 8 5 29 5 37h1c2-6 0-16 2-24 0-13 0-15 5-28"/>
  <path fill="#0069c6" d="m942 547 19-7c8 5 16 6 23 14l2-1 2 7 4 1c-11 26-2 44 0 68-7 12 4 23-9 28q-4 4-3 11l-2 2h-4c-26-24-37-60-37-95 0-13 0-15 5-28"/>
  <path fill="#ebe6da" d="m984 554 2-1 2 7 4 1c-11 26-2 44 0 68-7 12 4 23-9 28 9-15-4-36-4-53q0-21 3-44z"/>
  <path fill="#e9e5e5" d="M929 562c1 8 5 29 5 37h1c2-6 0-16 2-24 0 35 11 71 37 95l-3 3c3 8 5 2 8 9l-1 2q-15-11-26-27-30-42-23-95"/>
  <path fill="#000100" d="M301 1040h77c30 1 42 33 34 58-1 4-12 12-13 18 1 4 3 3 5 6 11 12 8 30 10 44q1 5 4 14c-5 3-24 2-30 1q-3-5-3-11l-5-35-10-8h-40c0 11 4 49-4 55-7-1-19 1-23-1-3-9-2-26-2-36z"/>
  <path fill="#fbf9f7" d="M335 1066h20c21-1 26 2 29 22l-2 4c-2 5-2 5-6 9-8 5-35 3-46 3l1-33q0-5 4-5"/>
  <path fill="#000100" d="M566 1040h33c0 10-2 47 2 54h2c11-17 33-36 47-54h42l-41 41c-20 19-10 24 4 43l23 34c4 5 16 18 14 24l-35 1c-8-7-33-51-44-64q-6 9-15 17c0 8 3 42-3 46-8-1-22 2-28-2l-1-47zM476 1040c4 0 29-1 30 2q25 66 48 131l2 9-28 1-6-7c-1-7-4-19-8-24q-4-2-9-2c-31 1-40-9-47 25l-7 7c-6 0-22 1-26-1 1-17 22-63 28-82 3-10 18-52 23-59"/>
  <path fill="#fbf9f7" d="M489 1080c3 2 17 42 16 46q-7 2-13 1h-16c-2-4 11-39 13-47"/>
  <path fill="#000100" d="M997 1607c6-20 26-19 43-14 5 5 12 13 11 22 0 7-10 11-6 16q4 6 9 10l-1 19q-29 39-59 0c-13 7-21 23-39 18-9-3-18-15-20-25s-2-28 0-39q3-14 17-23h25q7 5 10 13l2 1 7 3z"/>
  <path fill="#fbf9f7" d="M961 1603q8 9 17 13c10 1 12-1 19 6q4 3 6 8l-8 11c-11-15-7-17-29-23-4 1-14 3-16 6l-1-2q3-11 12-19"/>
  <path fill="#e9e5e5" d="m987 1604 2 1 7 3 1-1v15c-7-7-9-5-19-6q6-1 11-4 1-4-2-8"/>
  <path fill="#fbf9f7" d="M962 1633c14 1 18 20 3 30-16-1-14-12-13-24zM1019 1637q10-1 15 7 3 5 2 9-2 7-8 10c-13 0-13-3-20-13q4-9 11-13M1017 1604c17-1 27 8 10 21q-11 3-14-8-1-7 4-13"/>
  <path fill="#0069c6" d="M1139 699c4 1 10 7 13 10 6 0 13-1 15 5-1 6-3 6-5 11q-11 24-30 43c-19 19-49 35-75 40l-37 1-18-2-10-9v-23l8-12c17-2 33 0 50-3 44-10 56-37 89-61"/>
  <path fill="#000100" d="M486 1778c-7-1-12 1-16-4-6-28 51-50 57-16 3 2 2 1 6 1q4-1 5-7l10-8c16-4 32-4 40 12 2 6 3 4 2 6l4-3q-2 9-1 17h-3l-1 2c-4 13-23 22-34 34 10 0 28-2 36 2 3 3 2 1 2 6q1 6-1 9c-8 2-44 1-54 1h-65q-2 0-3-2c-1-36 46-41 42-63q-2-4-5-6-5-2-11-1c-3 2-8 15-10 20"/>
  <path fill="#000100" d="M486 1778c-7-1-12 1-16-4-6-28 51-50 57-16v22c-2 8-15 18-23 21-2 4-3 3-2 7 6 4 29 3 35-2-4 8-8 10-6 18 4 3 51 2 59 2l3-6q1 6-1 9c-8 2-44 1-54 1h-65q-2 0-3-2c-1-36 46-41 42-63q-2-4-5-6-5-2-11-1c-3 2-8 15-10 20"/>
  <path fill="#bdbdc0" d="m492 1812 12-11c-2 4-3 3-2 7 6 4 29 3 35-2-4 8-8 10-6 18 4 3 51 2 59 2l3-6q1 6-1 9c-8 2-44 1-54 1h-65q-2 0-3-2c18-5 36 0 54-2q5-6 1-13z"/>
  <path fill="#fbf9f7" d="M550 1767q6-11 19-8c21 18-29 35-32 47-6 5-29 6-35 2-1-4 0-3 2-7 8-3 21-13 23-21 5-6 14 1 21-3 3-4 2-4 2-10"/>
  <path fill="#9e9c9c" d="M527 1758c3 2 2 1 6 1q4-1 5-7v2c-2 8-8 16 0 22 9 3 10-2 12-9 0 6 1 6-2 10-7 4-16-3-21 3z"/>
  <path fill="#bdbdc0" d="M588 1756c2 6 3 4 2 6l4-3q-2 9-1 17h-3l-1 2z"/>
  <path fill="#000100" d="M900 1823v-2c2-8 25-76 28-78q8-3 16 0 4 2 7 6c4 10 26 70 24 77q-6 2-12 1l-2 1c-4-4-8-15-10-21-22 2-28-7-33 19q-19 0-37 2l-6-9c0-28-4-24-30-25v31h-21v-82l53-1c11 2 16 12 19 22 2 9-5 14-9 22-1 1 5 12 6 14l1 13z"/>
  <path fill="#fbf9f7" d="M847 1757c12 2 38-3 25 20-4 2-14 3-19 2-12-1-8-15-6-22M938 1767c3 3 9 23 6 28h-4q-6 1-9-2c-3-7 4-18 7-26"/>
  <path fill="#000100" d="M1104 1590c19 4 45-2 59 3l8 8c2 17 2 20-5 35q0 3 3 5c5 7 1 25 4 32l3-1c1-6 2-6 5-10l1-2v-2c2-7 20-58 25-66l18-1c4 3 25 61 26 70 3 5 8 11 1 15-9 0-11-2-17-3-2-9-2-17-15-17l-19 1-3 13-6 6h-9q-14-1-28 0l-1-24-6-9c-6 0-20-1-24 5s6 16-1 23q-9 5-19 4z"/>
  <path fill="#fbf9f7" d="M1125 1605c14-2 42 2 25 21-6 3-19 2-26 2zM1219 1619l1 1q3 10 2 18c-2 4-1 3-7 5-11-4-6-13-1-21z"/>
  <path fill="#000100" d="M1054 1041q52-7 57 45c3 37-52 51-58 68l1 1c6 2 49 1 59 1 0 5 1 20-2 24-10 4-70 2-85 2q-4 1-10-1-3-1-3-4c-1-43 46-53 68-82 3-18 0-23-15-30-9 1-9 2-17 7-5 12-5 13-8 26h-26q-1-19 9-36t30-21M729 1072c-5 21-5 18-27 17l-4-5c0-22 21-41 40-44q21-3 37 10 9 7 14 16c1 12 4 23-4 32l-8 9q4 5 12 9c5 11 10 24 5 37-21 51-101 41-99-20h27c1 9 1 15 9 22 15 14 38 0 35-20q-2-7-7-12l-8-3-16 1q-2-12 0-20c3-3 2-2 8-2 11-1 21-6 20-19q-1-7-8-12c-10-7-17-2-26 4"/>
  <path fill="#0e100e" d="M735 1121q-2-12 0-20c3-3 2-2 8-2-11 12 5 16 8 21z"/>
  <path fill="#000100" d="M1056 1520c5-7 25-34 26-42 0-11-26-31-21-40 6-2 8 2 14 0l4-1 17 26q7-14 15-24l18-2c6 10-26 34-20 46 5 8 24 31 23 39-8 5-24-1-28-10-2-5-5-14-9-16-6 4-13 25-20 27h-37c-7-2-12-23-21-25-6 6-11 23-17 25h-2l-9-2c-3-2-2-1-4-6 2-6 18-30 22-35-5-13-19-28-21-39l1-3c4-1 4 1 13-1 15 8 11 24 20 23 8-7 10-19 17-21q3 0 14-2c10 7-21 35-19 42 6 14 18 26 24 41M789 1626c-8 12-11 14-23 23q-8 4-10 11l36 2q4-7 6-16c5-13 14-45 21-54l18-1h2c4 19 22 54 25 73l4 8c-2 7-14 3-20 3-5-25-12-18-34-19q-3 12-10 21l-72-1c-8-6 5-24 10-29 8-8 29-15 30-29 0-6-7-11-11-15l-10 7c-1 9-2 14-12 18-12-1-7-17-5-24 14-15 22-16 42-12q8 7 13 16z"/>
  <path fill="#fbf9f7" d="M825 1616c5 5 13 18 9 25h-12c-3-5 2-16 3-25"/>
  <path fill="#000100" d="m365 1895 26-1c2 27 0 60 0 88h-17l-2-1c-6-8 3-15-1-25q-3-4-7-4c-8 47-30 33-34-3l-2-4h-2c-7 11 3 34-7 37l-17-1q0-44 1-86c4 0 24-1 25 1 10 19 12 37 23 56 2-25 12-40 14-57"/>
  <path fill="#e9e5e5" d="m364 1952 2-5q4-10 6-21c3 15 3 40 2 56l-2-1c-6-8 3-15-1-25q-3-4-7-4"/>
  <path fill="#9e9c9c" d="M319 1982c4-9-2-45 2-52l1 1c3 10 7 10 8 18l-2-4h-2c-7 11 3 34-7 37"/>
  <path fill="#000100" d="M594 1590c15 3 36 0 53 2l10 9c14 16 15 52-2 65l-9 7c-15 2-35 5-51 3-3-8-2-75-1-86"/>
  <path fill="#fbf9f7" d="M617 1606c30-2 40 25 24 48-7 4-17 8-25 3-4-6-4-44 1-51"/>
  <path fill="#000100" d="m341 1293 2-1c25 8 33 18 33 45 0 24-12 42-37 41h-37l1-85z"/>
  <path fill="#fbf9f7" d="M324 1309c12 2 16 1 26 5l7 11v22l-6 9c-5 6-21 5-28 5 0-11-1-43 1-52"/>
  <path fill="#000100" d="M917 1042c13 4 67-1 85 2l1 24c-25 23-37 61-43 94q-1 12-3 21c-8-2-22 0-26-3-6-14 11-59 18-74 3-8 21-30 20-36-14-3-49 3-56-2q-4-9-3-19 1-4 7-7"/>
  <path fill="#0069c6" d="M1088 670c0 12 2 15 10 25l-2 3 2 7c5 3 8 2 12 5-1 7-16 18-21 21-27 20-63 26-95 18l-7-9c-1-12 1-32 14-36l3 1c11-1 34 3 40-1v-1q-10 2-19-3c9 1 47-3 56-9q2-1 2-3c6-7 3-7 5-16z"/>
  <path fill="#e9e5e5" d="M1088 670c0 12 2 15 10 25l-2 3 2 7c-13-9-8-5-22-2-22 5-50 10-72 2 11-1 34 3 40-1v-1q-10 2-19-3c9 1 47-3 56-9q2-1 2-3c6-7 3-7 5-16z"/>
  <path fill="#000100" d="M854 1042q8 2 18 2c1 5 2 35 1 42 0 12 2 92-2 95-9 2-14 2-23 0-3-3-2-1-3-6v-82h-33v-23l19-1q7-5 13-11zM732 1742h26c29 25 7 26 8 40 10 9 7 9 10 22l-4 12-12 10-5 3c-15 1-36-1-39-18l-10 4 2-2c7-7 4-33 3-44l3 3q2-3 3-10 5-12 15-20"/>
  <path fill="#bdbdc0" d="m711 1769 3 3q2-3 3-10c0 18 16 15-1 27v22l-10 4 2-2c7-7 4-33 3-44"/>
  <path fill="#fbf9f7" d="M737 1790c9-1 22 0 21 15q-1 5-6 8c-14 3-17 1-21-12zM742 1755c18 1 19 13 5 22-14 1-20-14-5-22"/>
  <path fill="#0069c6" d="M993 691c-15-24-3-42 25-43h38c6 0 19-3 23-1 4 6 2 30 4 41q0 2-2 3c-9 6-47 10-56 9-9-4-16-1-32-9"/>
  <path fill="#000100" d="m671 1743 24-1c11 8 15 13 16 27 1 11 4 37-3 44l-2 2c-4 12-18 15-29 14-15-8-18-11-23-28l-3-8v-18l4-7c2-13 6-18 16-25"/>
  <path fill="#bdbdc0" d="m651 1775 4-7-1 33-3-8z"/>
  <path fill="#fbf9f7" d="M681 1755c7 1 8 4 13 9 2 16 1 25 0 41l-7 9c-10-1-10-4-15-12l1-36z"/>
  <path fill="#000100" d="M386 1296c1-4 0-3 3-5 6-1 53-2 59 0l1 2c9-1 23-9 26 3-4-1-14-4-19-3q-3 7 2 13v3q-6-2-11 4l-35-1q-7 3-3 11c12 6 32-6 38 5v6q1 4-1 7c-9 3-29 1-39 1l1 19h41l1 6c3 13-7 11-17 11h-46c0-23 1-60-1-82"/>
  <path fill="#9e9c9c" d="M386 1296c1-4 0-3 3-5 6-1 53-2 59 0l1 2c9-1 23-9 26 3-4-1-14-4-19-3q-3 7 2 13v3q-6-2-11 4l-35-1q-7 3-3 11c12 6 32-6 38 5v6l-2-5c-10-7-31 3-38-7-7-24 29-10 40-15 1-2 1-12-2-12-13 0-48-3-59 1"/>
  <path fill="#000100" d="M1309 1591c6 0 16-1 21 1 1 9-24 22-26 33 6 14 29 40 30 50l-19 2c-8-9-20-35-30-36-9 6-5 25-7 36l-2 2c-10 0-38 4-41-6 6 1 8 3 17 3 7-4 2-10-1-15l5-3c7-8-7-59 5-68l18 1v34z"/>
  <path fill="#e9e5e5" d="m1251 1661 5-3c7-8-7-59 5-68 0 14-2 77 1 84q7 3 16 3l-2 2c-10 0-38 4-41-6 6 1 8 3 17 3 7-4 2-10-1-15"/>
  <path fill="#000100" d="M508 1923c-1-8-4-20 1-26q7-3 16-2 1 43 1 86h-16l-3-4-8 3q-9 3-19 2c-10-8-14-12-16-25v-16c2-12 7-16 16-23 13-1 14-2 26 4z"/>
  <path fill="#fbf9f7" d="M493 1929q5 1 10 6c7 14 8 24-6 34h-5q-6-3-11-10l1-20z"/>
  <path fill="#000100" d="M610 1743h24c12 9 15 13 17 28v22c-2 21-5 25-23 36l-15 1c-12-9-9-8-19-19l-1-1v-3c10-9 21 1 27 6 6 4 17-10 12-17-4 0-3 0-7 4q-27 3-32-24-1-9 1-17c6-8 7-10 16-16"/>
  <path fill="#fbf9f7" d="M620 1757h2q15 5 10 22-2 5-9 7-7 0-12-7l-1-17z"/>
  <path fill="#000100" d="M590 1293c3 0 2 0 5 2l2 10c-6 11-29 2-39 6q-9 5-4 14l38 1 1 16h-40v19h40c27 24-52 17-60 17-1-13-2-74 1-83 12-5 42-1 56-2M1031 1742c4 0 18-1 21 1-1 6-23 28-29 33q17 22 30 42l3 7-2 2h-20q-6-10-13-19-4-8-9-16c-27 7 6 45-31 32 3-19-2-61 1-80q4-3 9-2c18-1 5 20 10 29h2c4-1 3 0 5-4q10-13 23-25M675 1292l1 1c3 8 2 57 1 68q-3 5-7 9a41 41 0 0 1-45 8c-7-3-9-6-14-11-4-14-3-39-3-54l-1-9c0-6 0-6 4-10q7-2 15 0c1 21-1 42 2 64 47 27 23-39 31-61 2-6 10-2 16-5M864 1664q4-2 5-5c4-20-6-51 4-69 3-7 43-1 51-3q3-1 6 3 1 8-1 14c-6 5-14 3-22 2-22 0-16 1-16 20h33l2 1 2-1q1-6 7-12c-2 11-2 29 0 39-6-5-5-7-8-13-9 6-26 4-36 1-1 11 3 28-3 34-6 3-5-1-11 2l-4-3-2-1-2 4c-7 3-16 5-21-2 6 0 18 4 20-3z"/>
  <path fill="#e9e5e5" d="M864 1664q4-2 5-5c4-20-6-51 4-69 3-7 43-1 51-3q3-1 6 3c-11 3-44 2-57 1 1 12 2 75 0 83l-2-1-2 4c-7 3-16 5-21-2 6 0 18 4 20-3z"/>
  <path fill="#e9e5e5" d="m924 1626 2 1 2-1q1-6 7-12c-2 11-2 29 0 39-6-5-5-7-8-13-9 6-26 4-36 1 11-2 28 4 34-4z"/>
  <path fill="#000100" d="M370 1738c15-3 46 23 34 33-29 1-24-34-51-4-4 16-3 19 0 35q6 7 15 11c14 2 18-15 27-21 6 1 9-2 13 3 0 4-3 13-5 17-9 18-32 21-48 13q-17-8-23-26a46 46 0 0 1 29-58zM400 1587c12-1 19 0 29 8 6 5 18 18 10 26l-16-1c-10-24-24-18-37-2v29c17 22 28 16 40-5 4-4 3 1 12-1 4 1 2 0 5 3 3 12-17 29-27 33q-11 4-23-2-17-7-25-25c-9-23 0-50 24-59z"/>
  <path fill="#000100" d="M482 1587c12 0 16 0 28 7 4 4 13 12 13 18 0 11-12 8-18 8-6-21-19-18-33-8-8 20-8 21-1 41q6 6 14 7 17 1 20-17l2-1q7-2 14 0c11 13-16 39-37 36q-18-3-29-18c-15-20-11-56 14-67zM778 1895c10-2 14-1 25 0 7 6 16 12 19 22 0 5 1 3-3 6q-7 2-16 1c-10-20-22-15-35-2q-3 15-1 32c15 17 31 16 38-7q9-3 17 1c6 12-12 27-20 34-13 0-23 2-35-5q-17-9-20-28c-5-22 7-50 31-54M532 1934q6-9 13-13 28-13 43 13c12 12 3 19 1 34l-15 13c-12 2-16 1-27-1-7-6-10-8-15-16z"/>
  <path fill="#e9e5e5" d="M588 1934c12 12 3 19 1 34l-3-6q-15-3-26 9-7-4-12-11c1-12 34-2 43-11z"/>
  <path fill="#fbf9f7" d="M559 1930c6 0 13 4 12 11-5 2-4 1-9 1q-7 1-12-1v-3q3-5 9-8"/>
  <path fill="#000100" d="m418 1917 27 1c7 4 7 5 11 12l5 11 2 1 1-1v15l-2-2c-5 5-3 12-4 19 1 5 1 4-1 8-8 4-15-3-18-3-13 4-16 5-30 3-6-5-13-15-10-24 6-15 33-10 38-22q1-3-3-6c-12-4-14 10-17 12-10-5-9 1-15-3-2-10 9-17 16-21"/>
  <path fill="#e9e5e5" d="m456 1930 5 11 2 1 1-1v15l-2-2c-5 5-3 12-4 19q-6-21-2-43"/>
  <path fill="#fbf9f7" d="m431 1952 8 2q0 12-10 16-8 2-11-6c3-8 7-8 13-12"/>
  <path fill="#000100" d="M489 1353q9-28 19-55c1-4 13-7 17-5 3 11-19 67-23 81-1 5-19 6-24 1-3-7-19-59-20-66v-3q-6-6-2-13c5-1 15 2 19 3 1 13 11 36 14 57M1259 1743h27c7 7 9 10 14 18v16c-14 22-24 19-37 36 10 0 26-3 36 0 3 1 1 11 0 14h-43c-7 0-16 2-18-6 3-24 68-47 35-64q-6 0-11 4c-2 8-2 15-12 17q-10-3-8-13 4-15 17-22M1548 1591c3-1 13 1 17 1l10 11c7 39-12 35-34 57l-2 2c10-1 26-2 35-1q4 2 5 5c0 3-2 10-6 10h-50q-3 1-4-2-1-6 1-14c12-16 29-24 39-38 8-10-19-30-23 3v1c-6 0-11 2-16-3-3-7 3-16 6-23 10-8 10-9 22-9M1352 1591l27 1 11 11c2 14 3 14-4 26 0 8 12 8 9 23-7 29-44 36-57 8-3-5-5-7-3-14 3-2 1-1 5-1 13-1 9 5 17 16l1 1c14 0 14-1 20-12l-7-11c-5 0-14 0-15-7 6-8 31-15 12-29-13-2-13 26-30 16-6-10 7-22 14-28M1002 1918h29l11 9c1 18-1 36 2 54h-17l-4-4-5 2c-6 5-14 3-23 2l-7-8c-3-4-2-14-1-19 16-15 24-5 37-15v-6c-9-9-16-1-23 7q-7 1-12-3c-4-8 7-15 13-19"/>
  <path fill="#fbf9f7" d="M1021 1952h2c5 6 1 10-3 14q-5 6-11 4-5-1-6-5c-1-8 11-11 18-13"/>
  <path fill="#000100" d="m1074 1743 25-1 2 2c14 12 20 22 4 37q9 6 11 14c4 40-55 47-59 5 1-4 1-2 5-5 17 3 7 10 20 17 6 4 15-3 16-10 2-14-10-10-16-14-11-20 35-8 5-34l-3 2c-9 4-7 17-19 17-8-3-7-9-6-16 6-7 7-8 15-14M303 1591h51q9 1 10 10c-6 13-30 1-39 6q-4 9-1 19c10 0 23-3 31 2 3 4 2 4 2 9l-1 3c-6 4-22-1-27 1-12 2-1 25-8 35h-18zM831 1895h15q0 13 2 25l1 1 2-1c12-3 12-3 25-2 2 2 7 7 7 9 5 16 2 37 3 54h-17v-28l-1-18c-5-2-12-5-16 0-8 10-5 34-5 46h-17q0-43 1-86M666 1981q-8 2-13-2c-2-9-1-48 0-59l5-2c10 0 8 7 20 1q9-2 20-2c18 15 13 43 13 64q-10 2-19-1c-3-11 7-41-6-48q-10-2-15 8c0 9 2 35-1 40z"/>
  <path fill="#0e100e" d="M666 1981c-2-4-2-29-1-35q2-4 6-6c0 9 2 35-1 40z"/>
  <path fill="#000100" d="M927 1917c9 1 14 5 20 3 8-3 12-3 20-3l4 4c13 11 8 41 9 60l-17 1v-31l-1-12-8-9-12 7c-2 12-2 31-1 44h-18c0-16-1-44 1-61zM1464 1592h51l-1 16c-16 22-24 35-24 62q-1 5-7 6c-22 2-10-17-7-30 3-12 12-23 16-35l-1-2-32-1v-13c2-3 0-2 5-3M1183 1743h55v13c-21 30-24 37-29 72l-14-2c-8-12 8-42 14-53l10-13-37 1q-1-10 1-18M1150 1743q7-1 10 2c2 9 1 72 0 81-5 3-6-2-14 2q-2-1-3-6v-50c-8 1-15 4-20-3-2-13 18-9 21-20q1-5 6-6M1426 1591h14c0 13 2 78-3 84q-4 2-10 2-3-1-4-5v-50c-8 0-27 4-21-11 4-9 17 0 24-20M303 1743q9-2 20-1c0 11 2 81-2 85-4 0-15 1-18-1-2-16 0-64 0-83"/>
  <path fill="#0e100e" d="M303 1743q9-2 20-1c0 11 2 81-2 85-4 0-15 1-18-1 4-1 15-1 15-6l1-72-2-2c-5-3-7-1-12-2z"/>
  <path fill="#000100" d="M579 1591zl1 1c2 7 2 77 0 84l-3 1c-4-1-4-2-8-1h-3q-3-2-4-6c0-10-3-73 1-78q7-2 15-1M708 1293h1c4 4 2 74 2 86l-16-1c-5-4-3-25-3-31 1-8-2-48 2-53q6-2 14-1M1979 1260c6 0 19-1 25 2 3 6 3 34-2 39-6 0-18 0-24-2-3-6-3-34 1-39M627 1918h16c2 16 1 47 1 64l-18-1c1-13-1-53 1-63M897 1919h16v63h-16zM1836 1155l2 1c4 4 2 20 1 27l-23-1-3-1c-2-5-1-19-1-26zM1060 1633h33q2 9 0 17h-34q-1-8 1-17M781 1786c12 3 28-3 34 6v10c-11 1-27 0-38-2zM422 1807h14v8c0 7 1 7-3 12h-7c-12 3-15-10-10-19zM896 1910c0-8-1-15 9-17 10 2 9 9 8 17v9h-16z"/>
  <path fill="#e9e5e5" d="M913 1910v9h-16l-1-9z"/>
  <path fill="#000100" d="m691 1656 2 1c2 4 2 16-1 20l-10-1c-4 0-3 0-6-2q-2-9-2-18zM415 1766l21 1-1 17h-20zM679 1614c7 1 9 0 15-1q3 12-2 21c-6 0-14 1-18-6q-3-9 5-14M727 1318c13 0 26 0 16 18-14 1-26-2-16-18M727 1360l18-1c0 6 1 15-2 19q-9 0-16-1-5-9 0-17M627 1895c6 0 12-2 17 3q1 6-1 13c-7-1-11 1-16-3z"/>
  <path fill="#ebe6da" d="M179 145c69-2 144 0 214 0h84c16 0 37-1 52 1l14 13c29 5 67-10 89 20 11 15 8 43 8 62v151q1 32-2 63v2c-10 12-21 25-38 26h-52c0 12 3 32-4 40-2 6-8 14-14 16q-4 4-10 6c-13 4-76-3-83 2-2 24-2 36-24 51-36 1-83 2-119 0-11-8-12-10-20-22v-31q-37 1-75 1-10 1-19-5c-7-2-16-12-19-19-5-16-1-27-5-36-15-15-70 21-100-33-2-9-1-55-1-67V198q2-13 11-24c20-25 82-7 100-17q4-8 13-12"/>
  <path fill="#b7c2cc" d="M55 198q2-13 11-24c20-25 82-7 100-17q-7 9-7 19v304c5 13 3 28 2 42-5-16-1-27-5-36-15-15-70 21-100-33-2-9-1-55-1-67V198"/>
  <path fill="#bdbdc0" d="m55 198 5-7 2 15v162c0 14 1 71-1 81q-2 3-5 4c-2-9-1-55-1-67V198"/>
  <path fill="#b7c2cc" d="M543 159c29 5 67-10 89 20 11 15 8 43 8 62v151q1 32-2 63v2c-10 12-21 25-38 26h-52c0 12 3 32-4 40l2-24c4-69 2-143 2-212V172q-2-6-5-13M180 541h4c28 4 59 0 88 1l4 4 143-1 32-3c29 0 50 2 79-3q-4 4-10 6c-13 4-76-3-83 2-2 24-2 36-24 51-36 1-83 2-119 0-11-8-12-10-20-22v-31q-37 1-75 1-10 1-19-5"/>
  <path fill="#efbe59" d="M333 207a143 143 0 1 1 30 285 143 143 0 0 1-30-285"/>
  <path fill="#ebe6da" d="M334 220a130 130 0 1 1 32 259 130 130 0 0 1-32-259"/>
  <path fill="#efbe59" d="M341 310a41 41 0 1 1 21 79 41 41 0 0 1-21-79"/>
</svg>
