<svg xmlns="http://www.w3.org/2000/svg" style="display:block" viewBox="0 0 782 1181">
  <path d="M0 0h546c30 0 59 5 82 26l3 3q28 27 30 66v1047q1 13-4 25l-1 2q-7 9-17 12h-34l-230 1H1c-32 0-59-6-84-28l-2-1a106 106 0 0 1-36-88V102q0-22 8-42l1-2q19-36 57-52 27-7 55-6m643 1130-4 5a114 114 0 0 1-27 27v1h11l4 1h6l8-4q4-9 3-19v-11z" style="fill:#a2a3a7" transform="translate(121)"/>
  <path d="M0 0h572c7 0 7 0 9 2v581q0 4-3 5l-4 1H3c-6 0-6 0-9-2q-3-6-1-12v-13l-1-124V10l1-3V5q1-5 7-5" style="fill:#292929" transform="translate(104 496)"/>
  <path d="M0 0h546c30 0 59 5 82 26l3 3q28 27 30 66v1047q1 13-4 25l-1 2q-7 9-17 12h-34l-230 1H1c-32 0-59-6-84-28l-2-1a106 106 0 0 1-36-88V102q0-22 8-42l1-2q19-36 57-52 27-7 55-6m-14 48v7q0 6-2 13l-1 3q-10 20-30 29-11 5-22 3-5 1-8 4-2 4-1 9v42l-1 363v543q2 6 6 8h4q22 1 37 14 16 17 19 39v4q-1 5 3 9 4 2 8 1h149v15h5v-15h8v2h6l4 1 3-1 2-3h3v16h24v-4h-18v-11h21v6l2 5 1 2 4 2q7 2 13-1l3-8-5 1-2 3h-8l-2-9h21l1 14h5l1-22 8-1q2 4 2 7v6l1 3v7h5v-15h5v4q1 5 4 9 6 4 13 2 4-2 7-7l1-8 17 1 1 4q2 7 9 10 8 2 15-3 3-3 3-9h-5l-1 3-3 4c-7 1-7 1-10-1l-3-9h30l-3 5q0 5 2 9 6 3 12 1l4-2v2h5l-1-15h6v15h6v-15h10v3q1 8 7 12h17v-15h5l137 1 8-5v-6q1-24 20-43 15-13 34-12 6-1 11-5V637q1-3-3-7l-9-5q-9-3-16-10l-2-1-9-15q-7-16-1-34 8-19 27-28l8-3 5-5V114q0-5-3-9-5-2-10-2a50 50 0 0 1-34-14q-15-14-16-34-1-5-4-9-4-3-10-3H-3q-7 0-11 5m657 1082-4 5a114 114 0 0 1-27 27v1h11l4 1h6l8-4q4-9 3-19v-11z" style="fill:#cbcdd0" transform="translate(121)"/>
  <path d="M0 0q24 17 29 45v18l1 21c0 33 1 64 25 89q20 17 45 29c24 13 44 24 53 51l2 15q1 28-17 48a61 61 0 0 1-38 19q-19 3-37-5l-2-1-27-15q-23-14-48-22h-2c-34-9-65 8-94 24l-13 8q-8 6-18 9l-3 1c-13 4-30 3-42-3l-3-1q-19-9-29-28l-1-2q-12-25-4-51c7-20 21-31 39-41l51-30 3-2c17-14 25-36 28-58l1-35V60q0-19 8-36l1-2A65 65 0 0 1 0 0" style="fill:#c5c5c6" transform="translate(427 93)"/>
  <path d="M0 0h551q10 0 19 6c7 8 9 13 9 24q1 13 10 21 11 9 24 8 10 1 19 6l1 2q9 7 10 18v411q2 17-9 28-6 5-14 7-13 5-18 15-4 11-1 21 7 14 22 18 12 6 19 17 2 11 1 21v408c0 12 0 22-9 31q-10 8-24 7-15 1-24 13-8 10-8 22t-7 23q-8 8-21 8h-62l-158 1H1q-14 0-23-10-8-9-7-20 0-16-10-28-13-10-30-9a27 27 0 0 1-25-28V97q-1-14 6-26 10-11 25-11 14-1 24-9 9-11 10-25 0-12 9-20 9-7 20-6m-9 24-1 7q1 7-1 13l-1 3q-10 20-30 29-12 5-23 3-4 1-7 4-2 4-2 9v948q1 6 6 8h4q21 1 37 14 16 17 19 39l-1 4q1 5 4 9 3 2 8 1h149v15h5v-15h8v2l10 1 3-1 2-3h3v16h24v-4h-18v-11h21v6q0 3 2 5l1 2 4 2q6 2 13-1l3-8-5 1-2 3h-8l-2-9h21l1 14h5l1-22 8-1q3 4 2 7v9l1 7h5v-15h5v4q0 5 4 9 6 4 13 2 4-2 7-7l1-8 17 1 1 4q2 7 9 10 8 2 15-3 3-3 3-9h-5l-1 3-3 4c-8 1-8 1-10-1l-3-9h30l-3 5q0 5 2 9 6 3 12 1l4-2v2h5l-1-15h6v15h6v-15h10v3q1 8 7 12h17v-15h5l133 1h4l8-5v-6q1-24 20-43 14-13 34-12 6-1 11-5V613q1-3-3-7l-9-5q-9-3-16-10l-2-1-9-15q-7-16-1-34 7-19 27-28l7-3q4-1 6-5V90q0-5-3-9-6-2-10-2a50 50 0 0 1-34-14q-15-14-16-34 0-5-4-9-4-3-11-3H2q-7 0-11 5" style="fill:#e4e5e7" transform="translate(116 24)"/>
  <path d="M0 0h1v73l4-3 2 1q-3 6-10 8-21 7-29 27-6 15-1 31a51 51 0 0 0 35 33l5 4v114l1 316v2q-1 4-3 7-5 3-12 2-21 2-36 18-9 12-13 27l-1 2v12q-1 5-6 7h-145v15h-17q-5-4-7-11v-4h-10v15h-6v-15h-6l1 15h-5v-2l-2 1q-5 3-11 1l-5-5q0-5 3-10h-30c2 9 2 9 5 10 5 1 5 1 10-1l2-6h5q0 5-3 9-6 4-13 3-4 0-8-4l-4-10-17-1-1 8-7 7q-7 2-13-2-4-6-4-13h-5v15h-5v-13l-1-3v-3l-2-4-8 1-1 22h-5l-1-14h-21l2 9h8l3-4h4q0 4-3 7-6 4-13 2-5-3-7-9v-6h-21v11h18v4h-24v-16h-3l-2 3h-13v-2h-8v-12h16v-43h390l5-3 2-6h4l14-4q12-4 24-5l4-1v-76h-40q-2-3-1-6v-3l2-4H0V269h-40l-1-3v-7l1-3H0v-83l-10-3q-19-10-27-30-2-8-2-17v-3q1-21 16-36l9-6 2-1 12-4z" style="fill:#c2c4c8" transform="translate(732 458)"/>
  <path d="M0 0h84l507 1-1 2H22c-31 0-58 7-81 29l-2 3a96 96 0 0 0-26 73v958q-1 21 6 40l1 2a105 105 0 0 0 73 65q17 4 34 3l125-1h419q21 1 42-5l2-1q43-16 61-58l1-2c9-22 8-45 8-68V107l-3-28v-7l4 2q5 17 4 35v1032q1 13-5 25l-1 2q-5 9-17 12H401l-226 1H30c-33 0-60-6-85-28l-2-1a106 106 0 0 1-35-88v-78l-1-624v-3l1-258q0-23 8-42l1-2A100 100 0 0 1 0 0m671 1129-3 5q-10 15-25 25l-3 2v1h21q5 0 8-3 5-9 3-19v-11z" style="fill:#8b8d90" transform="translate(93 1)"/>
  <path d="M0 0h518q16 0 27 10 7 8 7 20 1 14 10 23 10 7 21 8 14-1 25 9 10 10 9 25v417q-2 13-13 22-6 4-13 5-9 3-14 11-5 10-1 21t16 14q14 5 22 17 4 14 3 27v408q2 18-10 32-10 9-23 8l-1-3h2q15-2 23-14 4-8 4-17V625q2-16-9-29l-14-7q-12-5-18-16-3-10-1-21 6-11 16-16l9-3q10-4 15-14 3-4 2-10V101q2-15-7-27-9-8-22-9-17 0-28-13-6-9-7-21 0-12-9-20-9-6-20-5H-32q-11 0-18 7-9 9-9 23 0 11-8 20-13 10-29 10-9 0-16 6l-3 2q-8 10-8 21v944c0 10 0 19 8 26q7 8 19 8 17 0 29 11 10 13 9 29 0 10 7 18 11 9 24 8h144l66 1h322q18 1 33-6 9-10 9-22 0-17 11-29c9-8 9-8 14-8h3v3l-2 1-10 6h-2l-1 2-2 4q-5 9-6 21 0 13-10 24-13 9-29 8H-30q-14 1-23-9-9-11-9-24 0-9-4-18l-2-2q-5-9-14-12l-13-1q-9-1-17-5l-2-1q-10-6-12-17-2-10-2-21V101q-2-17 10-31 10-9 22-9 14 0 25-9 7-9 8-21 1-13 10-22l1-1C-38-3-16 0 0 0" style="fill:#babbbe" transform="translate(146 19)"/>
  <path d="M0 0q20 15 25 39 3 29-14 51c-8 10-23 20-36 21q-26 3-46-12l-2-2q-18-15-22-39-3-27 14-48C-59-14-26-17 0 0" style="fill:#9a9b9e" transform="translate(426 242)"/>
  <path d="M0 0c17 14 31 33 34 55 2 27-2 50-20 71l-2 2-1 2a81 81 0 0 1-64 24 84 84 0 0 1-69-43l-1-2a85 85 0 0 1-6-65 88 88 0 0 1 52-55l3-1c24-8 53-2 74 12m-95 30a63 63 0 0 0-14 47q4 24 23 41 17 13 38 13h3q10 0 18-5l4-1Q1 112 9 86A63 63 0 0 0-2 31l-1-2Q-18 13-39 8q-34-2-56 22" style="fill:#dfa36e" transform="translate(440 223)"/>
  <path d="M0 0q16 12 22 32 5 26-9 48-14 18-37 23-25 3-46-13a58 58 0 0 1-19-38c-1-21-1-21 4-29l2-3Q-71-2-47-9q26-4 47 9" style="fill:#ebd754" transform="translate(424 101)"/>
  <path d="M0 0q19 15 24 38 2 27-14 47a55 55 0 0 1-40 17q-24 1-43-16l-10-15-1-2q-7-19-3-39A60 60 0 0 1-51-8q27-7 51 8" style="fill:#ead755" transform="translate(298 317)"/>
  <path d="M0 0q20 14 24 39 2 26-15 46a54 54 0 0 1-39 18q-21 1-37-12l-2-1q-15-12-19-32-4-27 12-49c19-22 52-26 76-9" style="fill:#ead755" transform="translate(549 317)"/>
  <path d="M0 0h124v71H0z" style="fill:#999b9f" transform="translate(113 111)"/>
  <path d="M0 0h158v43h-16v27h-5V43H-8l-3-12q-2-12-9-23l-3-7L0 2z" style="fill:#9b9da1" transform="translate(131 1084)"/>
  <path d="m0 0 4 2q5 17 3 35v633l1 73v336q-1 4-3 7l-2 2-5 7q-5 7-14 9h-57q4-4 10-5l4-2h2l4-2 9-1h11c12 0 12 0 22-5q4-6 3-13v-7q-1-19 8-36l-2-1 2-15a144 144 0 0 0 2-34V35Q3 21 0 7z" style="fill:#a6a8aa" transform="translate(775 73)"/>
  <path d="M0 0h14l1 4v29H4V14l-2-4q-6-2-12-1h-125l-3-1h-395V1h227l281-1H0" style="fill:#b2b4b7" transform="translate(682 487)"/>
  <path d="M0 0h71v58H0z" style="fill:#9a9a9f" transform="translate(463 50)"/>
  <path d="M0 0h57l37 1v29H-19l4-17 1-7c3-7 8-6 14-6" style="fill:#9a9b9f" transform="translate(127 49)"/>
  <path d="m0 0 4 2q3 11 2 23v437L5 760l-2-1V441L2 46C3 26 3 26 0 7z" style="fill:#7c7d7f" transform="translate(775 73)"/>
  <path d="M0 0h570c30 0 59 5 82 26l3 2q20 19 26 46l-5-1-2-6q-6-17-19-31l-2-2a94 94 0 0 0-70-28H442L167 5H-4V4l590-1-241-1h-50L0 1z" style="fill:#aaabad" transform="translate(97)"/>
  <path d="M0 0c17 14 31 33 34 55 2 27-2 50-20 71l-2 2-1 2a81 81 0 0 1-64 24 84 84 0 0 1-69-43l-1-2a85 85 0 0 1-6-65 88 88 0 0 1 52-55l3-1c24-8 53-2 74 12m-101 7-2 2q-14 12-20 29l-1 3a79 79 0 0 0 0 58q13 32 43 45 31 13 63 1a77 77 0 0 0 50-76v-3q0-16-7-31l-1-2Q9 4-22-8l-10-2h-2q-38-8-67 17" style="fill:#7b4c2b" transform="translate(440 223)"/>
  <path d="M0 0h84l507 1-1 2H419L149 4H7L-5 5h-7V1z" style="fill:#838487" transform="translate(93 1)"/>
  <path d="M0 0q9 5 11 14 2 10-3 18-6 7-15 8-8 1-16-4-7-6-7-16 0-11 7-17 10-7 23-3" style="fill:#c5c6ca" transform="translate(66 33)"/>
  <path d="M0 0q8 6 12 14 2 10-4 19-5 7-14 7c-12 0-12 0-16-4-7-7-8-11-8-20q1-8 8-13 10-7 22-3" style="fill:#c3c4c8" transform="translate(735 33)"/>
  <path d="M0 0q9 5 12 14 1 10-4 18-5 7-14 7-8 2-15-4-8-6-8-16 0-8 6-14 9-9 23-5" style="fill:#c9cbce" transform="translate(66 1104)"/>
  <path d="M0 0q7 5 10 11 3 12-4 21-7 7-17 7-7 0-13-6-7-8-6-20 3-8 12-14 9-2 18 1" style="fill:#cacbcf" transform="translate(734 1105)"/>
  <path d="M0 0q16 12 22 32 5 26-9 48-14 18-37 23-25 3-46-13a58 58 0 0 1-19-38c-1-21-1-21 4-29l2-3Q-71-2-47-9q26-4 47 9m-75 13-6 10-2 3q-6 18-1 36l1 2a54 54 0 0 0 35 34l3 1q24 4 43-9 16-13 22-33 3-23-9-41Q-2 0-23-6q-31-3-52 19" style="fill:#8d7c2a" transform="translate(424 101)"/>
  <path d="M0 0v334q1 15-10 27-9 9-23 8l-1-3h3q14-2 23-14 5-12 4-28v-28l1-187V3q-1-4 3-3" style="fill:#b5b6ba" transform="translate(763 727)"/>
  <path d="m0 0 33 1h303l238 1v2H2c-6 0-6 0-9-2l-2-1q5-2 9-1" style="fill:#797c81" transform="translate(97 1176)"/>
  <path d="M0 0h1v46q1 16-9 28-10 8-24 6h-44q4-4 10-5l4-2h2l4-2 9-1h11c12 0 12 0 22-5q4-6 3-13v-7q0-19 8-36z" style="fill:#c5c9cc" transform="translate(778 1097)"/>
  <path d="M0 0q19 15 24 38 2 27-14 47a55 55 0 0 1-40 17q-24 1-43-16l-10-15-1-2q-7-19-3-39A60 60 0 0 1-51-8q27-7 51 8m-71 9a58 58 0 0 0-14 45q4 21 21 35 19 13 42 10 21-5 33-22 10-14 9-30v-3A51 51 0 0 0-15-4l-3-1c-17-7-40 0-53 14" style="fill:#8d7d2b" transform="translate(298 317)"/>
  <path d="M0 0q20 14 24 39 2 26-15 46a54 54 0 0 1-39 18q-21 1-37-12l-2-1q-15-12-19-32-4-27 12-49c19-22 52-26 76-9m-71 9a58 58 0 0 0-14 45q3 21 21 35 19 14 42 9 22-4 35-23 10-19 7-42Q13 11-6 0c-21-11-48-9-65 9" style="fill:#8b7c2b" transform="translate(549 317)"/>
  <path d="M0 0q20 15 25 39 3 29-14 51c-8 10-23 20-36 21q-26 3-46-12l-2-2q-18-15-22-39-3-27 14-48C-59-14-26-17 0 0m-80 15q-15 20-12 45 1 6 3 10l1 3q12 23 36 33 23 6 43-4 8-4 15-12l2-2q17-18 14-43Q20 23 4 8L2 6a57 57 0 0 0-82 9" style="fill:#7c4b2a" transform="translate(426 242)"/>
  <path d="M0 0c17 0 17 0 23 3q3 4 2 7v2l-2 5h-2v2l2 1 3 3v9l-7 6H0z" style="fill:#070808" transform="translate(160 345)"/>
  <path d="M0 0h1v73l4-3 2 1q-3 6-10 8-21 7-29 27-6 15-1 31a51 51 0 0 0 35 33l4 3-1 4-4-3v82H0v-83l-10-3q-19-10-27-30-2-8-2-17v-3q1-21 16-36l9-6 2-1 12-4z" style="fill:#babbbd" transform="translate(732 458)"/>
  <path d="M0 0h17v2h2q10 0 18 4v3l-4-1-5-2-3-1Q5-1-16 8l-10 7-2 2c-9 7-16 20-17 31q-4 28 13 48a58 58 0 0 0 26 16q7 2 15 1h3q10 1 19-3l2-1 2 1-4 2-2 1q-10 4-20 3H6q-9 1-17-3l-2-1-5-2-2-1-5-3-1-3-2-1q-6-3-10-9l-1-5-3-1-3-7-1-3-2-5h-1c-2-20-2-20 1-27l1-5-1 1-6 7-2 2q-9 10-21 15l-2 1-4-2 3-1q25-12 37-36l4-5 3 1 1-2 3-5h2l1-2 4-3 1-3 8-2V4l2-1h2l3-1z" style="fill:#ccc1b0" transform="translate(507 305)"/>
  <path d="M0 0h5v39H-5c-6 1-6 1-9-1q-5-7-4-16 0-5 4-9 5-2 10-2l3 2z" style="fill:#121212" transform="translate(519 1115)"/>
  <path d="M0 0q5 4 7 9 1 8-3 14-3 4-7 4-6 2-11-2-6-8-4-17 5-12 18-8" style="fill:#121212" transform="translate(399 1127)"/>
  <path d="M0 0v3l2 1-3 1q-27 6-46 25l-2 2q-24 26-27 61l-1 2-2 1c-4-17 4-36 12-50Q-45 12-7 1z" style="fill:#909194" transform="translate(81 3)"/>
  <path d="M0 0h1v3q6 43 41 70 20 15 45 20l-2 2 1 2c-23-1-47-17-62-33Q2 38-3 6h2z" style="fill:#8d9093" transform="translate(5 1082)"/>
  <path d="M0 0q9 14 6 30-4 24-23 39a63 63 0 0 1-48 10q-11-3-20-11l-2-1-10-12h3c5 5 5 5 5 8h2v2l3 1 9 3q19 10 39 4 21-5 31-24 8-15 7-31h1q0-6-3-13z" style="fill:#92812e" transform="translate(567 340)"/>
  <path d="M0 0q9 5 12 14 1 10-4 18-5 7-14 7-8 2-15-4-8-6-8-16 0-8 6-14 9-9 23-5m-22 10q-4 6-2 13 3 8 11 12 7 2 13-2 7-5 8-14-2-8-8-14-13-6-22 5" style="fill:#83858a" transform="translate(66 1104)"/>
  <path d="M0 0q9 5 11 14 2 10-3 18-6 7-15 8-8 1-16-4-7-6-7-16 0-11 7-17 10-7 23-3m-23 8q-4 7-3 17 4 7 10 11 7 2 14-1t9-11q2-7-1-14Q1 4-7 3q-9-2-16 5" style="fill:#818286" transform="translate(66 33)"/>
  <path d="M0 0q8 6 12 14 2 10-4 19-5 7-14 7c-12 0-12 0-16-4-7-7-8-11-8-20q1-8 8-13 10-7 22-3m-24 9q-3 7-2 13 1 8 8 13 9 3 17 0 6-2 8-8 3-8-1-15T-4 3q-12-2-20 6" style="fill:#818185" transform="translate(735 33)"/>
  <path d="M0 0q7 5 10 11 3 12-4 21-7 7-17 7-7 0-13-6-7-8-6-20 3-8 12-14 9-2 18 1m-23 8q-4 6-3 13 3 9 11 13 10 2 18-5 4-5 4-11 0-8-8-14-12-6-22 4" style="fill:#85878c" transform="translate(734 1105)"/>
  <path d="M0 0h3q5 1 8 5v12l1 3v7H7v-2l-2 1q-5 3-11 1l-5-5q-1-5 2-9 7-2 16-2L5 5l-7-1-3 3h-5q2-7 10-7" style="fill:#101111" transform="translate(467 1127)"/>
  <path d="M0 0q6 2 9 9v4H4l-1-3-1-4Q-3 4-9 5q-5 3-5 7v9q0 6 2 11 5 3 10 2 4-2 5-6v-2h6q-1 7-6 12-6 3-13 1-8-4-11-13V15q0-7 6-12 7-5 15-3" style="fill:#0d0e0e" transform="translate(617 345)"/>
  <path d="m0 0 14 1q3 2 2 5v4l1 5q1 5-2 8c-3 2-3 2-15 2z" style="fill:#151516" transform="translate(559 164)"/>
  <path d="M0 0h12l104 2v2H-30l-2 4-3 3-2 2-2 1-4 4-2 2-6 5q-2 4-5 3l7-9 5-6C-32-2-17 0 0 0" style="fill:#0e0e0f" transform="translate(543 202)"/>
  <path d="M0 0h23v4H4v12h16v4H4v13h19v4H0z" style="fill:#0d0d0e" transform="translate(300 1117)"/>
  <path d="m0 0 6 7v4H1L0 8l-3-4c-6-1-6-1-11 2q-4 8-2 17 0 4 3 7l10 1 3-5 1-2h5q0 5-4 9-5 4-12 3-5 0-8-4-6-10-4-21 2-7 6-11 8-3 16 0" style="fill:#0f1010" transform="translate(445 1118)"/>
  <path d="M0 0h5l1 13 4-2 9 1q4 8 2 15v12h-4V26l-1-3v-3l-2-4-8 1-1 22H0z" style="fill:#101011" transform="translate(354 1115)"/>
  <path d="m0 0 1 5v3h8l1 4-1 4H1v3q1 5-2 6h-5l-1-3v-6h-8l-1-4 1-4h8V0z" style="fill:#78797e" transform="translate(61 1111)"/>
  <path d="M0 0h5l7 17q4-4 5-10l1-2 2-5h5v25h-4l-1-15-6 15h-3L5 10 4 25H0z" style="fill:#1c1c1d" transform="translate(516 123)"/>
  <path d="m0 0 4 1v8h8l1 4-1 4H4v8l-4 1-4-2v-7h-8l-1-7 3-1h7l-1-4 1-4z" style="fill:#87888c" transform="translate(725 1110)"/>
  <path d="m0 0 1 2 3 1-1 3q-7 13-7 27v3l-3 2-1-10-2 4q-12 16-28 27l21 1v1h-23l-2-5 2-2Q-11 34 0 0" style="fill:#85888d" transform="translate(772 1103)"/>
  <path d="M0 0q9 18 4 38-5 16-17 27l-2 2a55 55 0 0 1-66 6q5-1 10 2h6v3q18 1 36-5h4l1-3 5-4Q-2 53 1 33v-2q2-8 1-17L0 6V0" style="fill:#a99489" transform="translate(443 269)"/>
  <path d="M0 0v13c1 7 1 7-2 11q-4 3-9 2l-4-2 1-3h2v2l7-1v-3h-3q-4 1-6-2-3-6-2-12 6-8 16-5" style="fill:#1c1c1d" transform="translate(580 129)"/>
  <path d="M0 0h6l1 3v6h7l3 1v5l-4 2H7v8l-3 1-4-1-1-8h-4l-5-2v-5l3-1h7z" style="fill:#7c7c81" transform="translate(53 40)"/>
  <path d="m0 0 3 1q3 6 2 13v2L1 82H0v-3l1-18V19l-2 7h-3z" style="fill:#818488" transform="translate(777 1079)"/>
  <path d="M0 0h6v9h9l2 2-2 6H7v3q1 5-2 6l-5-1-1-8-9-1v-6q4-2 9-2z" style="fill:#7d7d81" transform="translate(723 40)"/>
  <path d="M0 0v2l3 1h3l4 1 7 4v2L3 5q-19-5-38 1-7 4-15 11l-3 1-1 2-3 4-5 9-2 3q-4 11-3 22v4q0 8 2 17l-2 1a65 65 0 0 1 1-46q5-12 15-21h3l1-3 5-1V7c13-9 27-7 42-7" style="fill:#c4c1a5" transform="translate(278 305)"/>
  <path d="M0 0h2l11 2v2l3 1h-4Q-5 2-23 8l-3 2q-20 11-29 33l-1 16v3q0 10 3 20-7-8-7-20 0-18 8-34l5-5 2-2 1-3h2v-2h3l1-3q8-7 18-8V3q10-3 20-3" style="fill:#c8c3aa" transform="translate(392 88)"/>
  <path d="M0 0h2q6 0 10 2L7 3v1H4q-23 1-42 17l-8 12-1 4q-2 3-3 7l-2-1-2 7h-1c-1-11 6-23 13-31Q-25 1 0 0" style="fill:#988633" transform="translate(390 91)"/>
  <path d="M0 0h1c3 27 3 27-2 35q-7 5-16 4h-11c-11 0-11 0-21 4l-6 1q2-5 7-7l2-1 2-1c5-3 5-3 8-3l2 1v3h14c8-1 8-1 15-4q4-10 4-20V8z" style="fill:#818589" transform="translate(766 1128)"/>
  <path d="m0 0 7 2v2l2 1 7 4V3l4 8q6 15 18 26l-2 2-1-1-2-2-1-2-5-3v4l1 2 1 3q2 10-1 19v3c-3 13-3 13-7 15l-2 1 5-13q7-21-3-41Q14 10 0 1z" style="fill:#cdbfaf" transform="translate(295 315)"/>
  <path d="M0 0h29v4H17v33h-5V4H0z" style="fill:#101011" transform="translate(256 1117)"/>
  <path d="M0 0q9 6 15 15l-2 1-1-1-2-2-1-2-4-3V6H2V3H0l-7-4q-18-8-36-4l-4 1-5 2q-16 6-26 21l-4 5-1-3Q-70-1-46-8q25-5 46 8" style="fill:#aa968b" transform="translate(423 244)"/>
  <path d="m0 0 2 1c1 27-3 49-22 69l-2 2q-6 8-16 12h-3q1-4 5-6A83 83 0 0 0-1 16v-3l1-3V0" style="fill:#754a2b" transform="translate(472 281)"/>
  <path d="m0 0 5 5v4H1l-2-5h-6l-4 2-1 7v3l2 6h8l3-4h4q0 4-3 7-6 4-13 2l-7-9q-1-8 3-15 7-6 15-3" style="fill:#111112" transform="translate(344 1127)"/>
  <path d="M0 0q5 1 6 5 2 7-1 13l-6 3-5-2q-4-7-3-14 3-5 9-5" style="fill:#dcdde0" transform="translate(395 1130)"/>
  <path d="m0 0 1 2 2 1c-23 10-47 15-71 6l-7-3q6-2 12 0l2 1 7 2c17 3 38-1 54-9" style="fill:#825534" transform="translate(430 363)"/>
  <path d="m0 0 5 3 1 7v2l-1 6q-3 3-10 2-3-3-3-7V7q1-7 8-7" style="fill:#e0e2e2" transform="translate(514 1130)"/>
  <path d="M0 0h1v2Q0 30 18 50a62 62 0 0 0 23 13l15 1h3q10 1 19-3l2-1 2 1-4 2-2 1q-10 4-20 3h-3q-9 1-17-3l-2-1-12-6-1-3-2-1q-6-3-10-9l-1-5-3-1q-7-11-5-26V0" style="fill:#c5bf9f" transform="translate(460 354)"/>
  <path d="M0 0h9q4 0 7 3l1 4v2l-3 4-8 1H0z" style="fill:#9a9a9c" transform="translate(165 365)"/>
  <path d="M0 0h17v2h2q10 0 18 4v3l-4-1-5-2-3-1Q5-1-16 8l-10 7-3 2-9 12-1-3h-2l2-4 3 1 1-2 3-5h2l1-2 4-3 1-3 8-2V4l2-1h2l3-1z" style="fill:#c4c0a6" transform="translate(507 305)"/>
  <path d="M0 0h30l-2 5-1-4h-4l-1 4V3h-5v3q0 3-4 5c-7 1-7 1-10-2-2-2-2-2-3-9" style="fill:#dfe0e2" transform="translate(429 1139)"/>
  <path d="M0 0q0 6-4 11-11 22-9 47l-3-11v-7l-1 17h-1Q-21 26-3 1z" style="fill:#976746" transform="translate(325 243)"/>
  <path d="m0 0 4 3v16h-9q-3 1-5-2l1-8q4-2 10-1L0 4h-6l-1 2h-3l1-4q4-2 9-2" style="fill:#070708" transform="translate(556 129)"/>
  <path d="m0 0 4 4v7H-8l3 5 9-1-3 4c-7 1-7 1-10-2q-4-5-2-12 4-6 11-5" style="fill:#0d0e0f" transform="translate(614 129)"/>
  <path d="M0 0h4v12q2 6-2 11-3 3-8 3h-2q-4-1-6-5V1h3v12l1 3v2l2 4 7-1z" style="fill:#222223" transform="translate(530 164)"/>
  <path d="m0 0 6 4v4H3L2 5l-8-1v5l2 1 3 1 3 2 4 3c1 5 1 5-1 8q-4 3-10 1-4 0-7-5v-2h4l1 3h9l-1-5-5-2q-6-2-7-5-1-4 3-8z" style="fill:#101011" transform="translate(549 164)"/>
  <path d="M0 0v5l-7 2-1 21h-5V1h4v2l2-1q3-2 7-2" style="fill:#141414" transform="translate(498 1126)"/>
  <path d="m0 0 13 1q3 2 2 6v3q-7 3-15 2z" style="fill:#959699" transform="translate(165 349)"/>
  <path d="M0 0q9 1 14 8l5 6 1 1 5 8 2 4 1 3 1 2q2 8 1 17v4q0 12-6 24h-2l1-2 3-9q6-22-4-42Q16 10 2 2L0 1z" style="fill:#c6c3aa" transform="translate(544 314)"/>
  <path d="M0 0h1v8h8l1 4-1 4H1v8l-4-2v-9h-9v-2h9V3h2z" style="fill:#87888c" transform="translate(727 1111)"/>
  <path d="M0 0h3v2l3-2c5-1 5-1 8 1q2 5 1 10v8h-3L11 4H5L4 19H0z" style="fill:#0a0b0d" transform="translate(584 129)"/>
  <path d="M0 0q4 1 5 4 8 16 8 34l-2 3-1 6q-1 6-3 10l-3-1 1-3q8-23-1-45L3 6z" style="fill:#c5c0a6" transform="translate(438 116)"/>
  <path d="m0 0 3 1Q1 8-4 11l-2 2-11 8 21 1v1h-23l-2-5 3-2z" style="fill:#8a8d91" transform="translate(751 1141)"/>
  <path d="M0 0q4 2 4 6 6 19 1 37l-1-3-3 1v-2l1-13v-3q1-8-2-17z" style="fill:#8d813e" transform="translate(315 338)"/>
  <path d="m0 0 1 4q-4 8-12 13l-2 2q-5 4-12 4v2q-10 4-21 3h-3l-7-1v-1h4q26 0 45-16z" style="fill:#c5c1a4" transform="translate(313 393)"/>
  <path d="m0 0 2 1Q-2 5-8 6h-6l1 3h-11l-3 1-15 1V9l3-1 3-1 1-3h2c16 1 16 1 31-3z" style="fill:#c4b29c" transform="translate(413 199)"/>
  <path d="m0 0 1 2h2l1 6h8l1 7 6 2v2l2 1q-7 1-13-2-5-4-8-11z" style="fill:#c4c7ca" transform="translate(708 1119)"/>
  <path d="m0 0 1 3h2v2Q1 20 5 34h1l2 10h2l1 5h2l5 6-2 2A60 60 0 0 1-1 15v-3z" style="fill:#a89389" transform="translate(335 277)"/>
  <path d="M0 0q9 18 4 38C2 44-1 53-6 56l-2 1 5-10 4-14v-2q2-8 1-17L0 6V0" style="fill:#ab968b" transform="translate(443 269)"/>
  <path d="m0 0 7 2v2l2 1 7 4V3l4 8 1 2 1 3 1 3 2 9 1 2v6l-4-8Q16 12 0 1z" style="fill:#c7bd9f" transform="translate(295 315)"/>
  <path d="M0 0c8 7 12 21 13 31v4h-1l-1 20h-1v-2C9 33 6 19-2 1z" style="fill:#7a4a2a" transform="translate(461 247)"/>
  <path d="m0 0 1 4h-8v2h9v9h2V7l2 4-1 7H0l-1-3V9h-8l-1-4 1-4 5-1h4" style="fill:#7d8084" transform="translate(55 1118)"/>
  <path d="m0 0 4 4v3H1l-2-3h-5l-1 3v5l1 3h6l1-2h3l-1 4q-5 3-10 2-4-3-4-7-1-5 2-10 5-3 9-2" style="fill:#0c0d0e" transform="translate(652 129)"/>
  <path d="M0 0h1c1 10 1 10-3 14s-4 4-10 4l1-11h4l4-1z" style="fill:#cfd1d5" transform="translate(739 1120)"/>
  <path d="m0 0 4 4v2l5-1v2H7v2h-17l2-8q4-2 8-1" style="fill:#b9babd" transform="translate(341 1130)"/>
  <path d="M0 0v3h12l-1 2H7C-4 5-4 5-15 10l-6 1q2-5 7-7l2-1 2-1q5-3 10-2" style="fill:#7c7f84" transform="translate(732 1161)"/>
  <path d="m0 0-2 2a84 84 0 0 0-25 46h-1q0-10 3-19h2v-3l4-8 3-1v-2q2-5 5-8l2-2c5-6 5-6 9-5" style="fill:#cbb9ad" transform="translate(336 229)"/>
  <path d="M0 0h5v1L2 2q-20 4-33 17l-3-3Q-20 1 0 0" style="fill:#7e4e2f" transform="translate(381 234)"/>
  <path d="M0 0h6l1 9 7 1v1H7l-3-1V2H2v8l-3 1h-7v3h9v10H0l-1-7-9-1v-6q4-2 9-2z" style="fill:#747479" transform="translate(723 40)"/>
  <path d="m0 0 3 4v4h-15c1-6 1-6 3-8z" style="fill:#c2c3c5" transform="translate(398 1131)"/>
  <path d="M0 0h6l1 3v7l-1 3H0Q-2 8-2 3z" style="fill:#9b9b9d" transform="translate(569 132)"/>
  <path d="M0 0h2l1 8 9 2v2l-6 1-3 1-1 4v4H0l-1-9-9-1V9l9-1z" style="fill:#a1a1a6" transform="translate(55 42)"/>
  <path d="M0 0h2l1 6 1 3 8 1v2L2 13v9H0l-1-9-9-1V9l9-1z" style="fill:#9fa0a4" transform="translate(725 42)"/>
  <path d="m0 0 5 3v6H-8q0-6 2-7 2-2 6-2" style="fill:#bdbec0" transform="translate(514 1130)"/>
  <path d="M0 0h4c1 5 1 5-1 8q-4 2-9 1l-2-2 1-6z" style="fill:#dcddde" transform="translate(469 1141)"/>
  <path d="m0 0 3 3v6H-9l1-7q3-2 8-2" style="fill:#b9babb" transform="translate(368 1130)"/>
  <path d="M0 0h3v4h3v2H3v14h4v3H2q-2-2-2-5V7h-3V4h3z" style="fill:#08090a" transform="translate(623 125)"/>
  <path d="m0 0 3 1 3 5-14-4q-12-4-22-4v-1l8-1h2q10-1 20 4" style="fill:#8c792a" transform="translate(415 96)"/>
  <path d="m0 0 7 8q13 14 31 18v1q-10 0-19-4l-1-2-3-1-5-5v-2l-2-1q-4-1-6-6L0 5z" style="fill:#c2bd9c" transform="translate(217 392)"/>
  <path d="M0 0q3 1 5 4v4h-9l-8-2 2-1 4-3q2-2 6-2" style="fill:#bbbbbe" transform="translate(469 1130)"/>
  <path d="M0 0v2q2 10 10 17l-1 2q-5 0-8-4-4-5-4-12V3q-1-4 3-3" style="fill:#7b7e83" transform="translate(708 1120)"/>
  <path d="M0 0h5l1 6-2 1-1 18H0z" style="fill:#171718" transform="translate(516 123)"/>
  <path d="M0 0h3v12l1 3v2l2 4 5 1v2l-9-1q-3-6-2-13V0" style="fill:#040406" transform="translate(516 165)"/>
  <path d="M0 0h2q6 0 11 2H9l-26 4-9 2q3-3 9-5l2-1q8-2 15-2" style="fill:#908143" transform="translate(390 91)"/>
  <path d="M0 0h4v19H0z" style="fill:#292a29" transform="translate(633 129)"/>
  <path d="m0 0-9 8-11 11-1 2h-3l-1 2q1-5 6-9l2-3 1-2h2V7h3l1-3q4-5 10-4" style="fill:#cdc8b1" transform="translate(364 97)"/>
  <path d="M0 0h8l2 2-2 6H0z" style="fill:#97979b" transform="translate(563 178)"/>
  <path d="M0 0h8l2 2-2 6H0z" style="fill:#8c8c8f" transform="translate(562 167)"/>
  <path d="M0 0h3v3l2 1-1 15H0z" style="fill:#272828" transform="translate(584 129)"/>
  <path d="m0 0 16 5 8 2 1 4q-9 0-16-5L6 5z" style="fill:#917f2f" transform="translate(357 192)"/>
  <path d="m0 0 4 1-1 3h-7q-2 6 0 14l-4-3q-3-5-1-10 2-6 9-5" style="fill:#1a191b" transform="translate(573 129)"/>
  <path d="M0 0q2 5-1 10l-3 6-1 5-2-1-2 7h-1C-11 17-5 8 0 0" style="fill:#978740" transform="translate(345 114)"/>
  <path d="m0 0-8 4q-13 6-24 14l-1-3C-10 0-10 0 0 0" style="fill:#cebeb3" transform="translate(369 210)"/>
  <path d="M0 0q0 3-4 5l-3 1-4 6-4 2-2 3h-2v2l-3 6-1 2-1 2h-2q4-15 17-24l3-2q3-4 6-3" style="fill:#897d39" transform="translate(239 314)"/>
  <path d="M0 0q7 5 9 12l1 2 3 8h-3l-1-3-2-4-1-2-5-8-2-2z" style="fill:#714120" transform="translate(435 252)"/>
  <path d="m0 0 2 1v15q0 10-4 19l-2 2q0-5 3-11l1-16V0" style="fill:#86731c" transform="translate(444 137)"/>
  <path d="M0 0q6 0 11 5l3 3 4 5-3 2-1-1L4 5Q1 3 0 0" style="fill:#7f4d2a" transform="translate(418 239)"/>
  <path d="m0 0 2 1-2 3-1 2-4 4 21 1v1H-7l-2-5z" style="fill:#9a9ea1" transform="translate(739 1152)"/>
  <path d="m0 0 1 2h-7l-1-1-26 1c9-6 23-6 33-2" style="fill:#dbc956" transform="translate(531 312)"/>
  <path d="M0 0v1l-18-1v2h-2l-11 2h-7c8-8 28-6 38-4" style="fill:#a78e80" transform="translate(406 236)"/>
  <path d="M0 0q9 15 6 32l-2 6H3V14L0 5z" style="fill:#958a51" transform="translate(567 340)"/>
  <path d="m0 0-8 1v2l2 1-24-1-1-2h10l2-1 12-1z" style="fill:#925930" transform="translate(410 372)"/>
  <path d="M0 0q7 5 11 13v6L3 8Q0 5 0 0" style="fill:#887926" transform="translate(304 323)"/>
  <path d="M0 0q10 1 19 7v2l2 1q4 2 4 6l-1-1Q13 6 0 1z" style="fill:#c2bda0" transform="translate(408 93)"/>
  <path d="M0 0q8 6 14 15v3h-3l-4-5-6-8z" style="fill:#764727" transform="translate(447 230)"/>
  <path d="m0 0-5 8q-6 9-8 20h-1v-2l-2-5q1-5 4-5l2-5C-5 0-5 0 0 0" style="fill:#948326" transform="translate(227 326)"/>
  <path d="m0 0 2 2-1 3-4 11h-2v5q-3-6-1-13l2-6 1 2z" style="fill:#8b5935" transform="translate(316 260)"/>
  <path d="m0 0 2 1Q-2 5-8 6h-26l-1-2h2c16 1 16 1 31-3z" style="fill:#c4b992" transform="translate(413 199)"/>
  <path d="M0 0h1v8h10v2H1v9H0v-9h-9V8h9z" style="fill:#b5b7bc" transform="translate(57 1114)"/>
  <path d="M0 0q3 2 2 6l1 1q1 5-2 8-6 3-14 2v-1h8l4-4V3l-2-1z" style="fill:#0e0e10" transform="translate(573 172)"/>
  <path d="m0 0 1 5v3H0l-1-5-1 8h-3Q-8 6-7 0z" style="fill:#8a8b90" transform="translate(61 1111)"/>
  <path d="M0 0h1v8h9v2H1v9H0v-9h-9V8h9z" style="fill:#bdbfc3" transform="translate(724 1114)"/>
  <path d="m0 0-1 4q-13 3-27 2V5h3q13-3 25-5" style="fill:#9a862a" transform="translate(289 411)"/>
  <path d="M0 0h10v2h8v2h2l2 1h3l5 3v2l-4-1-2-1-11-4-3-1L0 1z" style="fill:#c2aea2" transform="translate(402 208)"/>
  <path d="M0 0h1q2 6-2 10-4 6-11 8l1-1L-1 2z" style="fill:#c2bca3" transform="translate(441 172)"/>
  <path d="M0 0v1l-3 1-5 1h-2l-8 3-6 1q1-3 4-5 10-2 20-2" style="fill:#794828" transform="translate(386 234)"/>
  <path d="m0 0 1 3q-5 8-13 12h-2v2l-12 2 10-5Q-6 10 0 0" style="fill:#958322" transform="translate(558 395)"/>
  <path d="m0 0 3 8v5H2L1 33H0l-1-23V6z" style="fill:#8d5f3f" transform="translate(471 269)"/>
  <path d="m0 0 2 1-1 1-16 18-1-2Q-9 8 0 0" style="fill:#e6d161" transform="translate(360 104)"/>
  <path d="m0 0 1 2h-2v3l-7 3-2 1q-6 3-13 3l-2-2h2Q-11 7 0 0" style="fill:#948022" transform="translate(422 190)"/>
  <path d="M0 0q-5 12-17 18h-2v-2l3-3 2-1 4-1 1-2 4-5 1-3z" style="fill:#8c7f3e" transform="translate(563 394)"/>
  <path d="M0 0h1v2c0 15 0 15 4 30l-2 2q-4-10-3-21V0" style="fill:#b8b38e" transform="translate(460 354)"/>
  <path d="M0 0h8l2 2-2 6H0l-1-3h8V3h-8z" style="fill:#89898d" transform="translate(730 49)"/>
  <path d="M0 0h2l6 1Q6 4 2 4h-5q-4 0-7-3 5-2 10-1" style="fill:#81858a" transform="translate(98 1176)"/>
  <path d="M0 0h1q1 12-4 22l-4 1 4-11z" style="fill:#c5c0a4" transform="translate(321 370)"/>
  <path d="M0 0v2q-11 4-23 3h-3l-8-1V3h13q9-1 16-3z" style="fill:#c0a99a" transform="translate(416 373)"/>
  <path d="M0 0h1q0 12-4 22l-2 1q0-8 2-16l2-2z" style="fill:#72472a" transform="translate(473 300)"/>
  <path d="m0 0 8 5 12 6 6 3Q14 13 5 6L3 5 0 2z" style="fill:#c9c2a2" transform="translate(352 189)"/>
  <path d="M0 0h3v5l-6 2-2-1q0-7 5-6" style="fill:#86878a" transform="translate(554 139)"/>
  <path d="M0 0h1l1 20q0 3-3 5z" style="fill:#7b7f83" transform="translate(766 1128)"/>
  <path d="m0 0 15 1v4L2 4l2-2z" style="fill:#c0c1c4" transform="translate(48 1092)"/>
  <path d="m0 0 1 4q-3 6-9 11h-2l4-8z" style="fill:#c7c5b1" transform="translate(313 393)"/>
  <path d="M0 0q6 2 8 7v2h2v2h2q5 1 7 5v2Q7 13 0 1z" style="fill:#8d7f3c" transform="translate(470 394)"/>
  <path d="M0 0h1v3l2 5q2 10-1 19H1z" style="fill:#cecbb4" transform="translate(321 347)"/>
  <path d="M0 0v24l1 3v7q-4-8-3-18V6z" style="fill:#857b3c" transform="translate(212 348)"/>
  <path d="M0 0h6v8h3V2h1v9H5L4 8V1z" style="fill:#797c80" transform="translate(717 1125)"/>
  <path d="M0 0h1l1 10v3l1 2v3l-2 6v-3l-3 1v-2L0 8V0" style="fill:#a2933e" transform="translate(318 357)"/>
  <path d="m0 0 9 2 7 1v4l3 1Q9 7 0 1z" style="fill:#9f8a7c" transform="translate(362 341)"/>
  <path d="m0 0 1 4-3 4-1 3-2 2-3 5q-2-4 1-8z" style="fill:#ccc9b1" transform="translate(221 324)"/>
  <path d="m0 0 5 2v2l3 1-21-2q6-4 13-3" style="fill:#c3bda1" transform="translate(400 88)"/>
  <path d="M0 0v3l-6 4-5 6-3 3-2 2-2-1Q-11 6 0 0" style="fill:#e4d05b" transform="translate(239 317)"/>
  <path d="m0 0 3 3 1 10v6l-4-9-1-3z" style="fill:#90802e" transform="translate(315 338)"/>
  <path d="M0 0h2v21l-2-4V0" style="fill:#bca89e" transform="translate(474 286)"/>
  <path d="M0 0q-3 3-7 3h-9l-3-1h-8V1z" style="fill:#c0b996" transform="translate(284 418)"/>
  <path d="m0 0 7 1 1 8H-3V8h8Q4 3 0 0" style="fill:#040405" transform="translate(610 130)"/>
  <path d="M0 0h8v2l4 1H4v7H3L2 3 1 9H0z" style="fill:#8a8d90" transform="translate(58 1124)"/>
  <path d="m0 0 1 2q-2 4-5 4l-1 2h-3v2c-5 4-5 4-8 4l-2-1 3-1 3-3 6-4z" style="fill:#c6c2a7" transform="translate(556 403)"/>
  <path d="M0 0v1h-10v2l-16 1q12-6 26-4" style="fill:#985c33" transform="translate(398 231)"/>
  <path d="m0 0-2 5q-5 5-12 4l11-8z" style="fill:#c3bda1" transform="translate(429 190)"/>
  <path d="M0 0h5q3 2 2 5h-9z" style="fill:#919193" transform="translate(608 132)"/>
  <path d="M0 0v1l-5 1v2l-9 1-1-4z" style="fill:#c6c7cb" transform="translate(735 1092)"/>
  <path d="M0 0q4 5 4 11v3H2L-2 2z" style="fill:#7d5131" transform="translate(467 258)"/>
  <path d="M0 0q8 6 12 15v2l-3-1-2-6H5L4 7 3 4 0 3z" style="fill:#938544" transform="translate(430 107)"/>
  <path d="M0 0h12v3H0z" style="fill:#050605" transform="translate(282 1137)"/>
  <path d="M0 0q4 4 3 10v16H2L1 16v-2z" style="fill:#cbc9b1" transform="translate(571 344)"/>
  <path d="M0 0h2Q1 6-3 11l-3-1q2-6 6-10" style="fill:#764725" transform="translate(323 243)"/>
  <path d="m0 0 6 9 2 2 2 4-4-1v-2l-2-1q-3-1-4-6z" style="fill:#c0ba97" transform="translate(339 170)"/>
  <path d="M0 0q5 0 9 2l3 2v4H9L8 5 2 3z" style="fill:#1c1d1e" transform="translate(543 164)"/>
  <path d="M0 0h28l-2 5-1-4H0z" style="fill:#d4d5d8" transform="translate(431 1139)"/>
  <path d="m0 0 1 4-3 3-1 2-6 1V8l4-4 2-1 2-2z" style="fill:#714728" transform="translate(452 346)"/>
  <path d="m0 0 9 2q4 1 4 4l1 2Q6 6 0 1z" style="fill:#93833d" transform="translate(357 192)"/>
  <path d="m0 0-2 1-13 9q0-3 4-7c6-4 6-4 11-3" style="fill:#927f1f" transform="translate(243 316)"/>
  <path d="M0 0h2l1 3q2 4 5 4v7H6L3 8 1 5z" style="fill:#93812b" transform="translate(435 117)"/>
  <path d="m0 0 3 1-10 10-2-1 5-7 2-2z" style="fill:#d1c1b8" transform="translate(333 228)"/>
  <path d="m0 0 1 3c-7 5-7 5-12 4 7-7 7-7 11-7" style="fill:#7f583c" transform="translate(352 218)"/>
  <path d="M0 0h1v9h2V1h1l1 10-6-1z" style="fill:#828387" transform="translate(54 55)"/>
  <path d="M0 0q-1 5-6 6l-3 2-4 1 1-3h4l1-3q3-3 7-3" style="fill:#a58c7f" transform="translate(426 336)"/>
  <path d="m0 0 1 4h-2v3l-5 10-1-2 2-6 2-3z" style="fill:#8f8345" transform="translate(469 332)"/>
  <path d="M0 0v2l1 2v3l2 4v9H1l-2-9V5l-1-2V1z" style="fill:#cfbeb5" transform="translate(473 266)"/>
  <path d="M0 0h10l6 2-1 2C4 3 4 3 0 1z" style="fill:#834f2b" transform="translate(405 212)"/>
  <path d="m0 0 1 4-5 1h-3V1z" style="fill:#979799" transform="translate(575 147)"/>
  <path d="M0 0h1L0 8q-2 3-5 2l2-8h2z" style="fill:#8d9195" transform="translate(767 1150)"/>
  <path d="m0 0-1 2h-14V1q8-3 15-1" style="fill:#853" transform="translate(413 348)"/>
  <path d="M0 0h1q0 10-5 18-2-5 1-11l1-2z" style="fill:#897834" transform="translate(445 156)"/>
  <path d="m0 0 14 7 2 1v2Q7 8 0 1z" style="fill:#8c7e3a" transform="translate(230 406)"/>
  <path d="M0 0h3l1 7q0 5-3 7z" style="fill:#8a5a39" transform="translate(308 298)"/>
  <path d="M0 0h6l1 5H1z" style="fill:#919295" transform="translate(550 132)"/>
  <path d="M0 0h5v1H3q-8 1-14 7 2-8 11-8" style="fill:#c1c1c4" transform="translate(54 103)"/>
  <path d="m0 0 9 7Q1 7-4 2l2-1 2 1z" style="fill:#938337" transform="translate(421 100)"/>
  <path d="M0 0h1v18l-1 4h-2v-2L0 8V0" style="fill:#9f8e2f" transform="translate(569 358)"/>
  <path d="m0 0 9 9H4l-5-6z" style="fill:#7d5233" transform="translate(347 329)"/>
  <path d="M0 0q-4 4-10 5l-1-3 4-2h7" style="fill:#c0ba9e" transform="translate(415 200)"/>
  <path d="m0 0 2 13-4-3V3q0-4 2-3" style="fill:#070707" transform="translate(567 134)"/>
  <path d="M0 0h8l1 4v3H4V5h2l1-4H0z" style="fill:#808287" transform="translate(62 1119)"/>
  <path d="M0 0h1v9q1 3-2 5-2-5 0-11z" style="fill:#828286" transform="translate(4 1076)"/>
  <path d="m0 0 8 9-1 3q-3-2-5-6L0 5z" style="fill:#c6c1a4" transform="translate(217 392)"/>
  <path d="m0 0 1 2-3 6-2 3-1 3h-2q2-7 7-14" style="fill:#938849" transform="translate(220 329)"/>
  <path d="m0 0 3 1-2 1-2 2-3 2-5 5q1-5 5-8l2-2z" style="fill:#907e1e" transform="translate(485 318)"/>
  <path d="M0 0q3 4 3 9l1 3v2l-2 2Q0 9 0 0" style="fill:#764727" transform="translate(310 305)"/>
  <path d="M0 0q-1 4-6 4l-2 2-3 1q3-8 11-7" style="fill:#1a1a1c" transform="translate(614 129)"/>
  <path d="M0 0q8 0 12 6l-2 2-5-3-3-2-2-2z" style="fill:#c2bd9f" transform="translate(544 314)"/>
  <path d="m0 0 3 1-9 7-1-3h2l1-4h3z" style="fill:#8e7e37" transform="translate(428 187)"/>
  <path d="M0 0q5 0 8 2t2 5H7L5 1H0z" style="fill:#1b1c1d" transform="translate(646 129)"/>
  <path d="M0 0h4v2l2 1q4 2 4 6L6 6 4 5z" style="fill:#ccc7ab" transform="translate(423 100)"/>
  <path d="M0 0h2l11 2h8v1H5Q2 3 0 0" style="fill:#89792b" transform="translate(499 415)"/>
  <path d="m0 0 1 4-3 4-2 2-2 2-2-1 1-2 2-2 1-2z" style="fill:#c6c2a5" transform="translate(565 391)"/>
  <path d="m0 0-6 1v2l-10 2q2-3 6-4l3-1z" style="fill:#8e8344" transform="translate(255 309)"/>
  <path d="M0 0h4l1 3 2 1v3L2 5z" style="fill:#181818" transform="translate(537 182)"/>
  <path d="m0 0 1 2 7 4v1H1l-2-2z" style="fill:#050506" transform="translate(547 141)"/>
  <path d="m0 0 2 1-2 5-5 4 1-5 4-1z" style="fill:#9b9ea1" transform="translate(752 1141)"/>
  <path d="M0 0c7 2 7 2 9 4L8 8 4 5 2 3 0 1z" style="fill:#7b4e2d" transform="translate(438 225)"/>
  <path d="m0 0 2 1-3 7-3 1c1-6 1-6 3-8z" style="fill:#0d0e0e" transform="translate(534 132)"/>
  <path d="M0 0h-3l-1 3h-8V1c8-2 8-2 12-1" style="fill:#7f4f2c" transform="translate(414 372)"/>
  <path d="m0 0 8 8-1 2-2-2-5-3z" style="fill:#8d7f3c" transform="translate(556 324)"/>
  <path d="m0 0-5 7h-2q1-7 7-7" style="fill:#784c2d" transform="translate(337 230)"/>
  <path d="m0 0-2 1-4 4-4 1 1-4q4-2 9-2" style="fill:#141416" transform="translate(556 129)"/>
  <path d="m0 0 4 1-8 7-1-3z" style="fill:#bec0c1" transform="translate(112 43)"/>
  <path d="m0 0 3 1v5l-4 2z" style="fill:#82868a" transform="translate(778 1153)"/>
  <path d="M0 0h1q1 7-3 13h-2l1-2V9l1-3z" style="fill:#c1bda0" transform="translate(570 378)"/>
  <path d="M0 0v6l-1 3-1 2-1 2Q-4 8-2 2h2z" style="fill:#877c3c" transform="translate(569 378)"/>
  <path d="m0 0 12 7H8Q3 5 0 0" style="fill:#cdbbae" transform="translate(336 357)"/>
  <path d="M0 0h2L1 11H0V9l-2-5z" style="fill:#8e8031" transform="translate(213 343)"/>
  <path d="m0 0-5 7h-3q3-6 8-7" style="fill:#1b1b1c" transform="translate(495 223)"/>
  <path d="m0 0 3 1v3L-7 6V4l3-1z" style="fill:#cabbaf" transform="translate(378 204)"/>
  <path d="m0 0 3 3 1 3 1 3-1 6Q1 8 0 0" style="fill:#dfca54" transform="translate(338 153)"/>
  <path d="M0 0q4 4 5 10l-1 4C-1 5-1 5 0 0" style="fill:#8f854b" transform="translate(567 340)"/>
  <path d="M0 0h1v12l-3 1z" style="fill:#baa79c" transform="translate(473 306)"/>
  <path d="m0 0 10 6Q4 7 0 4z" style="fill:#948122" transform="translate(357 188)"/>
  <path d="M0 0h2v2h5l2 3Q3 6-1 3z" style="fill:#222224" transform="translate(566 150)"/>
  <path d="M0 0h3L2 4l-4 2V4l-4-1h2l3-1z" style="fill:#202022" transform="translate(653 142)"/>
  <path d="m0 0 2 4v6l-3 1z" style="fill:#787b7e" transform="translate(59 1125)"/>
  <path d="m0 0 1 2 2 1-8 3 1-4z" style="fill:#82593b" transform="translate(430 363)"/>
  <path d="M0 0h1v16h-3l1-3L0 3z" style="fill:#101112" transform="translate(598 132)"/>
  <path d="M0 0q-1 5-6 8l-2-1q3-6 8-7" style="fill:#938028" transform="translate(356 106)"/>
  <path d="M0 0q5 1 9 6-5 0-9-5z" style="fill:#d1c1b6" transform="translate(438 221)"/>
  <path d="m0 0 8 1-1 3-6-1z" style="fill:#1f2020" transform="translate(569 129)"/>
  <path d="m0 0 1 4h-8V2z" style="fill:#7a7c80" transform="translate(55 1118)"/>
  <path d="M0 0q-5 4-11 5V3q6-3 11-3" style="fill:#8b7e3a" transform="translate(544 412)"/>
  <path d="M0 0q5 4 6 10L1 7z" style="fill:#92811f" transform="translate(217 385)"/>
  <path d="M0 0c7 4 7 4 8 7Q3 6 0 2z" style="fill:#a99588" transform="translate(354 334)"/>
  <path d="m0 0 3 8 1 2v2L0 8z" style="fill:#bcb48f" transform="translate(335 158)"/>
  <path d="M0 0h8L3 4z" style="fill:#c1c2c4" transform="translate(720 1093)"/>
  <path d="m0 0 1 4-3 1-2 4-2-1z" style="fill:#c7c1a2" transform="translate(313 393)"/>
  <path d="m0 0 2 1Q1 5-3 7l-3 1q2-5 6-8" style="fill:#87751b" transform="translate(431 182)"/>
  <path d="M0 0h5l1 3h-7z" style="fill:#212122" transform="translate(569 145)"/>
  <path d="m0 0 4 1-1 1-4 5-2-4z" style="fill:#151517" transform="translate(549 137)"/>
  <path d="m0 0-2 1-6 5V2q3-2 8-2" style="fill:#b6b7b7" transform="translate(396 1130)"/>
  <path d="m0 0 7 5-1 2Q0 3 0 0" style="fill:#cecab0" transform="translate(473 401)"/>
  <path d="m0 0 6 1v2l3 1-2 2-3-2-2-2-2-1z" style="fill:#928020" transform="translate(544 318)"/>
  <path d="m0 0 3 6H1L0 9z" style="fill:#88512a" transform="translate(332 276)"/>
  <path d="m0 0 4 1-2 6H1z" style="fill:#8d5832" transform="translate(316 253)"/>
  <path d="m0 0-9 4 3-4z" style="fill:#e6d15c" transform="translate(416 194)"/>
</svg>
