<svg xmlns="http://www.w3.org/2000/svg" viewBox="0 0 512 512">
  <rect width="512" height="512" rx="80" fill="#0A1628"/>
  <g transform="translate(256,180)">
    <!-- Mesh lines -->
    <g stroke="#0077B6" stroke-width="8" opacity="0.6">
      <line x1="0" y1="-80" x2="-100" y2="80"/>
      <line x1="0" y1="-80" x2="100" y2="80"/>
      <line x1="-100" y1="80" x2="100" y2="80"/>
      <line x1="0" y1="-80" x2="0" y2="20"/>
      <line x1="-100" y1="80" x2="0" y2="20"/>
      <line x1="100" y1="80" x2="0" y2="20"/>
    </g>
    <!-- Outer nodes -->
    <circle cx="0" cy="-80" r="18" fill="#00B4D8"/>
    <circle cx="0" cy="-80" r="8" fill="#CAF0F8"/>
    <circle cx="-100" cy="80" r="18" fill="#00B4D8"/>
    <circle cx="-100" cy="80" r="8" fill="#CAF0F8"/>
    <circle cx="100" cy="80" r="18" fill="#00B4D8"/>
    <circle cx="100" cy="80" r="8" fill="#CAF0F8"/>
    <!-- Hub node -->
    <circle cx="0" cy="20" r="26" fill="#00B4D8"/>
    <circle cx="0" cy="20" r="12" fill="#CAF0F8"/>
    <text x="0" y="26" text-anchor="middle" font-family="monospace"
          font-size="18" font-weight="700" fill="#0A1628">NL</text>
    <!-- Radio waves -->
    <g fill="none" stroke="#48CAE4" stroke-width="4">
      <path d="M 30 5 Q 55 20 30 35" opacity="0.5"/>
      <path d="M 42 -5 Q 75 20 42 45" opacity="0.35"/>
    </g>
  </g>
  <!-- DOMCA text -->
  <text x="256" y="380" text-anchor="middle" font-family="sans-serif"
        font-size="72" font-weight="800" fill="#48CAE4" letter-spacing="6">DOMCA</text>
</svg>