<svg xmlns="http://www.w3.org/2000/svg" width="2478" height="3252" preserveAspectRatio="none" style="display:block" viewBox="0 0 3252 3252">
  <path d="M231 665c15-21 37-64 53-90q92-140 218-248C797 80 1196 2 1572 3q115-1 230 8c340 31 708 109 984 319 94 72 161 144 236 233l16 3c97 20 174 93 202 188 4 12 6 49 12 57v1596l-3 2c-3 17-2 23-7 43a268 268 0 0 1-189 194l-1 1c-13 14-31 40-44 56a1230 1230 0 0 1-243 229c-295 220-673 296-1034 315l-24 1 5-5-3-1h-18c-24-2-50 1-74 1-87-1-173-2-259-14l-33-3c-3 5-3 3-11 4-62-8-126-24-187-39-22-6-57-20-77-23-12-1-56 6-70 8l-113 15c-75 9-138 11-201-38-69-54-130-206-140-291-13-14-42-38-58-55q-62-63-115-133C135 2384 47 1990 15 1634q1-11 7-18c1-5-3-33-3-40q-4-53-5-106l-2 1v-6l-2-1c-3 9 1 13-5 17q-2-32-1-66c-2-138-1-273 12-411 14-146 33-323 215-339m1190 2275 22 11c133 66 294 116 443 69 22-6 53-29 73-42a756 756 0 0 0 255-288c38-77 63-171 74-257 8-59 5-120 8-180 5-91 3-182 3-274v-803q1-93-2-187c-3-60-1-121-7-181q-9-100-41-195a694 694 0 0 0-353-388 782 782 0 0 0-593-33 948 948 0 0 0-525 473l-34 71-6-3-1-4q-21 53-40 107a1455 1455 0 0 0-57 429v71c3 207 26 404 87 603 9 28 26 86 39 112 5-4 4-6 5-12 3 12 33 80 39 95 78 178 193 340 350 456 62 45 131 71 185 122 58 56 76 148 76 228m882-1957c0-9 4-28-2-34v33zM764 3034c13 22 23 33 49 39q9 1 17-2zm386-270c26 23 69 51 99 72q6 5 11 5c3-12-9-33-15-44-14-22-47-41-74-37zm2091-574c2 9 0 13 4 21l1-200v-775l-1-181c0-20 2-67-1-85-1 1-1 15-3 19v1056c0 40-3 109 0 145"/>
  <path fill="#393939" d="M1036 3162c-59 5-120 16-179 22-28 3-56 7-84 4q-58-7-104-44a547 547 0 0 1-136-299c-3-48 5-95-7-142-18-74-99-169-141-238a1797 1797 0 0 1-240-619c-45-225-59-566-28-792q15-112 51-220c44-134 130-276 222-383C639 162 1023 43 1393 16c386-28 885 34 1229 219a1193 1193 0 0 1 334 266c13 15 40 47 52 59-77-18-308-16-389 0q-57 10-106 41a270 270 0 0 0-121 172c-9 43-7 86-7 129v1410c0 26-1 64 1 88q6 71 43 131c41 65 112 109 185 123 94 18 340 21 426-4l-2 1c-13 12-45 56-60 73q-69 78-148 145c-271 230-594 319-941 359-64 8-134 10-198 14-24-2-50 1-74 1-87-1-173-2-259-14l-33-3-3-1c5-2 66 1 77 1 355-4 739-208 889-539 84-185 81-421 83-622l1-467v-388c0-130-1-263-13-393-7-74-24-157-50-227a787 787 0 0 0-416-416q-104-46-216-69c-239-46-540-16-766 69a1072 1072 0 0 0-630 581c-78 175-94 326-99 515-8 305 24 597 133 883q60 159 152 305c37 57 86 120 114 180q26 56 24 119c-1 29-5 52-1 82 12 98 70 256 166 299 60 27 136 12 198-1z"/>
  <path fill="#393939" d="M14 1470q-2-94-2-190 0-158 18-314c10-84 21-177 83-240q48-48 116-55c-26 36-28 74-65 104-14 12-31 53-37 70-21 69-27 152-32 224-15 248-11 508 27 753 40 256 121 541 266 757q46 68 100 129l35 40c0 30-2 69-1 98-68-65-128-129-182-207-177-254-257-559-300-862q-10-81-18-161c1-5-3-33-3-40q-4-53-5-106"/>
  <path fill="none" d="M653 1251c5 7 2 100 2 116-5-6-2-102-2-116"/>
  <path fill="#393939" d="M2398 799c9-107 99-205 203-227 115-23 236-19 353-11 86 5 164 28 223 95 90 102 58 213 64 333v1056c0 40-3 109 0 145l1 133c0 99-2 169-76 246-91 96-221 88-341 91-190 6-400-20-428-253q-2-28-1-54v-42c1-68-2-138 0-206-2-22 0-61 0-84V891q-1-46 2-92"/>
  <path fill="#575857" d="M2398 799c4 14 3 87 3 105l-1 284v545c0 41 3 473-1 480-5-19 3-85-3-108-2-22 0-61 0-84V891q-1-46 2-92M2396 2353c7-26-4-72 3-94 1 18 5 138-2 148q-2-28-1-54"/>
  <path d="M2787 591h2q55 0 110 1c99 2 208 19 268 108 27 39 40 86 41 133l-2 148v896l1 334 1 114c1 82 0 150-60 214-74 77-181 81-281 83h-1q-53 2-106 0c-85-4-167-12-233-72-45-42-69-103-71-164l1-134 1-164V1005l-2-125c0-81 3-146 63-209 71-74 173-77 268-80"/>
  <path fill="#1d1d1e" d="M2799 598q53-1 105 2c83 4 164 11 228 72 41 38 66 102 66 158q-2 153-1 305v1126c0 98 16 200-60 276-73 73-183 77-279 78-104 2-239 5-321-67-85-75-70-176-70-277V1006l-1-115c-1-82 0-150 59-214 72-77 177-75 274-79"/>
  <path d="M2592 1009c19-2 55-1 76-1h314l93 1c17-2 50 14 52 34 2 28 1 66 1 95v865c0 30-18 41-45 48h-196l-184 1q-50 1-100-1-13 0-27-6-17-7-25-26c-6-18-2-163-2-192v-765c0-33 13-44 43-53"/>
  <path fill="#1d1d1e" d="m2601 1014 328-1h95c28 0 65-5 86 16q9 8 10 21c2 20 1 66 1 88l-1 184v638c0 76 0 86-81 85h-386c-29 0-95 8-95-36l-1-92v-539l1-334 6-10c9-13 22-17 37-20"/>
  <path fill="#f7f7f7" d="M2694 1292c13 0 101-3 107 2 0 13 9 13 21 19 2 10 2 60 0 69-11 6-19 9-22 21-25-3-73 3-101-1-5 0-9-17-13-18q-4 2-10-1c-2-12-1-60 0-72 12-5 17-6 18-19"/>
  <path fill="#1d1d1e" d="M2720 1320h72c1 5 2 5 2 11s1 20-1 25c-5 2-6 1-11-1v-3l-1-6c-10-9-18 4-29-3l-1-8-4-3c-8 3-25-3-29-10z"/>
  <path d="M2718 1322q16-1 33 1l1 2q-4 3-5 7c-8 3-25-3-29-10"/>
  <path fill="#1d1d1e" d="M2782 1352q4-2 4-5-1-12 3-22h2l3 6c0 6 1 20-1 25-5 2-6 1-11-1zM2704 1342q9 0 15 4l-2 7c11 7 24-3 33 4 0 5 0 5 2 9 8 5 9-3 22 5l-2 4c-12 2-55 1-69 1z"/>
  <path fill="#eef0f0" d="M2698 1658h22c0 9 3 17-5 23q-4-1-9 1c-6 9-1 46-3 61h43v-85h79v98h-28v-73h-24c0 18 2 48-2 65l-9 2c-12 17-12 18-33 18l-30-2-12-17c-5 0-5 0-9-2-2-7-2-61 0-68 10-6 19-8 20-21"/>
  <path fill="#f7f7f7" d="M2781 1510h8c10 0 13-2 15 8 15 6 4 1 11 10q5 0 9 2c2 14 1 56 0 70-5 5-16 9-22 15-3 4 5 1-2 6-10 0-24 2-34 0 0 0-2-12-8-17-4 0-4 1-8 3l-1 12c-5 5-43 2-51 1l-10-17q-6 1-10-2c-2-7-1-60-1-69 3-4 3-3 9-3 6-4 9-5 13-11v-6c5-2 16-1 21-1q2 12-1 22c-6 4-7 2-15 2 0 14 1 46-1 60l41-1v-48h27l-1 48 28 1c-1-15 1-50-3-59h-9l-3-2q-3-11-2-24"/>
  <path fill="#eef0f0" d="M2703 1595c-12-22-7-38 1-60 0 14 1 46-1 60"/>
  <path fill="#f7f7f7" d="M2678 1437q19-2 36 1c5 4 3 3 4 10l1 6c5 0 5 1 8-1q3-5 2-12c6-6 30-4 40-4v40c-9 0-30 1-38-1-4-7 1-7-3-13l-8-1c-8 9 6 14-14 15l-26-1q-3-6-1-14zM2945 1347h81c0 12 2 37-3 46l-10 1c-1 5 0 4-3 8-3 1-11 4-14 3-15-1-7-6-13-11q-5 0-10-2c-2-8-1-25 0-34q-15 2-28 0c-3-5-2-2-2-9z"/>
  <path fill="#eef0f0" d="M2945 1347h81c0 12 2 37-3 46l-10 1 8-11-1-31-32-2c-13-1-31 0-43-3"/>
  <path fill="#1d1d1e" d="m2987 1359 24-1v34l-24-1z"/>
  <path fill="#f7f7f7" d="M2943 1653h83v48q0 6-4 7c-7 1-4 2-10-1-4-9 1-29-2-40q-8-3-15-2c-3 11 4 33-12 32-9-8 0-20-5-31q-9-2-19-1c0 13 2 31-3 41-4 3-3 2-10 2-5-6-3-44-3-55M2942 1570c14 0 76-1 84 3l1 4c-7 10-27 15-28 25 7 5 8-1 14 4-1 4-1 4 1 8l7 1 3-1 3 4v5c-9 5-31 3-42 3-12 0-39 5-41-9 11-8 46 5 55-7-5-8-16-3-15-16 6-5 6 1 14-4v-4c-7-6-41-4-52-4q-4-3-4-12M2956 1266c14 0 57-2 69 2l1 4-2 4c-12 6-50 3-66 3v33h26c9 0 36-2 41 2 0 7 1 4-1 9-9 2-62 3-67-1v-6c-4-6-4 0-13-5l-2-8q-3-14 5-25l8-5zM2944 1501c7 0 7-1 12 3q2 7 5 10c10 1 45 4 50-2q-2-5 1-11 8-3 14 2v39c-23-1-10-4-17-12-3-4-24-1-31-2-18-2-16 5-26 15-5 0-3 1-8-3zM3012 1447c-1-8-4-16 1-23l11-1c4 6 4 52-3 59-12 1-11-11-10-19l1-5c-17 0-53 2-67-1-3-4-2-2-2-7 10-6 55-3 69-3"/>
  <path fill="#eef0f0" d="M3012 1447c-1-8-4-16 1-23l11-1c4 6 4 52-3 59-12 1-11-11-10-19l1-5c0 7 0 9 2 16h2l3-3c4-11 2-29-2-41l-3 1z"/>
  <path fill="#393939" d="M961 3134c-63 13-140 25-199-8-82-45-140-197-150-286-8-75 14-124-23-205-23-49-39-69-69-114q-30-43-59-90-126-206-191-440c-63-224-84-443-81-675 0-106 5-212 24-316 78-428 393-739 807-853q202-57 411-55c197 1 355 27 530 125a730 730 0 0 1 361 440c28 106 34 202 38 311q5 132 3 264v819c-1 137-4 269-19 405-42 368-345 633-691 727-203 55-419 45-616-29-101-37-189-83-283-136-15-27-33-82-42-111l11 8c245 170 562 284 861 227a936 936 0 0 0 586-357c124-177 134-364 137-571q7-604 0-1208c-2-93-3-189-18-280-49-304-288-497-567-587-9-3-35-11-44-9l41 14q33 10 64 24l-6 2c-31-9-46-11-78-16-179-31-362-2-522 84a973 973 0 0 0-405 418q-20 37-35 73-21 53-40 107a1455 1455 0 0 0-57 429v71c3 207 26 404 87 603 9 28 26 86 39 112l9 25c78 198 197 383 368 512 49 38 104 63 155 97 87 57 112 152 114 250q-41-23-83-48c-2-51-21-108-62-141-45-36-99-26-153-21l-100 9-146 13-102 9c-22 3-46 10-59 28-18 25-17 66-11 95 14 68 44 165 103 206 30 20 69 27 103 21z"/>
  <path d="M423 974c25-2 55-2 77 12q22 14 28 40 6 28-10 53c-13 20-32 28-54 33-43 3-99 1-109-53q-4-29 12-54 21-27 56-31"/>
  <path fill="#393939" d="M455 982q19-1 36 9 21 13 26 36 6 25-8 48c-13 19-29 25-50 29-85 1-91-106-4-122"/>
  <path fill="#393939" d="M394 993c5 3 4 3 7 7l-4 6a76 76 0 0 0-13 52c4 23 18 35 35 47-60-17-74-71-25-112"/>
  <path fill="#393939" d="M394 993c13-7 18-9 34-12q-15 7-27 19c-3-4-2-4-7-7"/>
  <path d="M419 1484a60 60 0 1 1 12 120 60 60 0 0 1-12-120"/>
  <path fill="#1d1d1e" d="M410 1490c12-1 25-2 36 5 44 29 39 90-14 104q-15-2-29-7 22-8 30-27c10-26-1-57-29-63q-5-1-5-5z"/>
  <path fill="#1d1d1e" d="M391 1506c12 0 25 10 30 21 8 16 6 27 1 42l-12 10c-18 10-27-5-30-21q-7-28 11-52"/>
  <path d="M443 1734c16-1 26 0 41 9q25 15 32 44 11 54-42 69c-73 5-111-97-31-122"/>
  <path fill="#1d1d1e" d="M449 1741q20-1 35 11c36 27 37 91-16 97l-17-3c-1-10 17-12 19-31 3-34-14-58-47-63 10-6 14-9 26-11"/>
  <path fill="#1d1d1e" d="M417 1761q14-1 24 7 16 12 19 31c2 16-3 23-12 34-16 12-28-10-32-22-7-19-7-32 1-50"/>
  <path d="M413 1232a60 60 0 1 1 11 120 60 60 0 0 1-11-120"/>
  <path fill="#1d1d1e" d="M416 1237c30 0 52 20 54 50q1 25-15 42a52 52 0 0 1-39 18c-12-2-15-4-25-9l2-1c36-6 53-50 27-78-3-4-17-12-22-15q9-5 18-7"/>
  <path fill="#1d1d1e" d="M392 1252c35 4 39 55 6 77-17 4-21-10-27-23v-9c1-20 7-31 21-45"/>
  <path d="M509 1979q23 1 42 13 25 17 32 48 8 50-42 57c-19 0-28-1-45-12-31-18-50-66-20-93q15-12 33-13"/>
  <path fill="#1d1d1e" d="M502 1987c65-10 106 89 40 104l-24-2c9-9 10-10 17-21q2-60-57-67 11-9 24-14"/>
  <path fill="#1d1d1e" d="M476 2008c18 1 39 14 46 31 6 16 2 24-3 38q-5 6-11 4c-30-14-38-45-32-73"/>
  <path d="M510 739c76 2 51 110-37 117-53-3-56-50-27-85q25-29 64-32"/>
  <path fill="#1d1d1e" d="M497 749c19-2 24-3 41 6 24 42-15 82-54 93-22 1-24 1-39-15 26-3 52-20 58-48v-23c-5-6-7-7-6-13"/>
  <path fill="#1d1d1e" d="M476 759q6-3 13-2c23 18-20 78-45 68-9-14 2-42 15-51z"/>
  <path fill="#1d1d1e" d="M476 759q0 11-11 16c-4 0-2 1-6-1z"/>
  <path d="M595 2214c72-5 132 93 53 110-81 1-131-93-53-110"/>
  <path fill="#1d1d1e" d="M590 2220q28-3 51 13c20 13 47 45 31 69-5 9-16 13-25 14-6 1-8 2-14 0-1-4-1-2 1-8 19-59-57-64-63-73 3-6 14-12 19-15"/>
  <path fill="#1d1d1e" d="M570 2249c33-2 70 28 51 62-22 5-59-40-51-62"/>
  <path d="M623 528c42-3 60 17 37 56-15 26-43 41-72 48-88 5-44-90 35-104"/>
  <path fill="#1d1d1e" d="M624 535c76-3 22 66-12 81q-12 6-25 8c-15 0-32 1-35-17-1-8 12-7 17-8q26-7 44-28c10-13 12-21 11-36"/>
  <path fill="#1d1d1e" d="M611 541c12 10-15 35-24 41-11 9-17 10-30 12l-1-2c5-6 21-13 28-21 8-10 17-23 27-30"/>
  <path d="M793 353c34 0 46 20 23 48q-32 34-81 39c-31-1-53-14-29-44 20-26 55-39 87-43"/>
  <path fill="#1d1d1e" d="M782 362c14-1 50-2 35 23-16 28-45 39-74 47-12 2-33 1-37-13 4-18 24-14 39-22 16-10 26-19 37-35"/>
  <path fill="#393939" d="M1129 2765c13 1 51 35 64 43 196 133 430 282 677 226-39 18-73 36-115 53q-147 58-305 63c-215 4-401-57-590-159-52-28-102-62-151-94l-4-20c-2-16-6-53 5-67 21-11 115-16 146-19q137-11 273-26"/>
  <path fill="#1d1d1e" d="M148 1919c7 4 12 39 15 49 18 60 34 120 56 179a1759 1759 0 0 0 192 379c45 66 97 126 111 207-6-3-26-23-31-29-169-192-264-436-321-683-5-21-23-86-22-102M1171 2727h4c30-3 66 6 88 26 40 35 52 76 55 127-9-8-30-18-42-26-12-37-7-55-44-84q-19-14-43-15c-32-2-74 2-106 6-39 4-90 6-128 12l-144 12-77 8q-12 3-21 5l-2-3c4-11 27-25 37-28q37-7 75-9l119-10 163-15q33-4 66-6"/>
  <path d="m737 729 1 4 6 3q-12 33-25 65-23 68-38 138c-69 328-27 790 90 1100-1 6 0 8-5 12-13-26-30-84-39-112-61-199-84-396-87-603 3 6 2 17 4 25 2-12 2-95 0-107q-3 5-4 11v-29c4-134 16-271 57-400q19-54 40-107"/>
  <path fill-opacity=".9" d="M3241 989c2-4 2-18 3-19 3 18 1 65 1 85l1 181v775l-1 200c-4-8-2-12-4-21-3-36 0-105 0-145V989"/>
  <path fill="#393939" d="m182 763 1 2q-56 137-75 286l-3-5c3-67 16-162 40-225 7-18 24-41 37-58"/>
  <path fill="#1d1d1e" d="m830 3071 3 2q-5 4-17 4c6 2 22 3 28 2 14 6 32 14 44 22-29 2-53 2-76-20l2-5-1-3q9 1 17-2"/>
  <path fill-opacity=".8" d="M640 1265q1-6 4-11c2 12 2 95 0 107-2-8-1-19-4-25z"/>
  <path fill="#1d1d1e" d="M1783 168q10 2 19 8l1 1c-11 0-16-2-26-7z"/>
  <path fill-opacity=".9" d="M2301 949c6 6 2 25 2 34l-2-1z"/>
  <path d="m1325 3226 33 3c86 12 172 13 259 14 24 0 50-3 74-1h18l3 1-5 5c-35 2-74 1-109 1q-143 3-284-19c8-1 8 1 11-4M5 1481c6-4 2-8 5-17l2 1v6l2-1q1 53 5 106c0 7 4 35 3 40q-7 7-7 18c-3-10-2-25-3-36q-4-43-5-87z"/>
</svg>
