<svg version="1.1" xmlns="http://www.w3.org/2000/svg" style="display: block;" viewBox="0 0 3525 3525" width="1182" height="3525" preserveAspectRatio="none">
<path transform="translate(0,0)" fill="rgb(43,44,43)" fill-opacity="0.0117647" d="M 338.09 2292.05 C 340.95 2301.52 341.854 2322.52 339.236 2332.15 L 338.229 2332.14 C 335.189 2324.43 337.256 2300.9 338.09 2292.05 z"/>
<path transform="translate(0,0)" fill="rgb(43,44,43)" fill-opacity="0.0117647" d="M 337.762 2376.47 L 339.939 2379.18 C 341.745 2389.98 340.177 2397.01 338.933 2407.89 L 337.689 2407.16 C 336.879 2394.72 336.355 2388.89 337.762 2376.47 z"/>
<path transform="translate(0,0)" fill="rgb(43,44,43)" fill-opacity="0.0117647" d="M 337.716 2118.29 C 342.636 2126.74 340.748 2134.24 339.904 2144.07 L 337.385 2141.95 C 336.022 2132.39 336.845 2127.8 337.716 2118.29 z"/>
<path transform="translate(0,0)" fill="rgb(43,44,43)" fill-opacity="0.0117647" d="M 337.685 2156.13 C 341.967 2164.55 341.645 2169.84 339.044 2178.86 L 337.728 2178.29 C 336.108 2169.4 336.931 2165.03 337.685 2156.13 z"/>
<path transform="translate(0,0)" fill="rgb(49,49,13)" fill-opacity="0.0117647" d="M 760.191 52.3089 L 762.788 54.3338 C 764.862 61.0928 763.869 66.7521 763.401 73.8641 L 762.209 73.1991 C 759.138 68.9561 760.166 58.2172 760.191 52.3089 z"/>
<path transform="translate(0,0)" fill="rgb(43,44,43)" d="M 893.387 2218.9 C 933.709 2199.18 960.522 2183.08 983.165 2143.51 C 1028.65 2064.04 1136.85 2085.33 1212.65 2065.28 C 1251.43 2055.03 1301.79 2058.4 1343.75 2058.4 L 1520.74 2058.43 C 1647.59 2058.43 1774.81 2057.97 1901.66 2058.6 C 1938.52 2058.79 1956.55 2072.15 1994.71 2072.18 L 2872.19 2071.82 L 3113.69 2071.85 C 3152.69 2072 3225.03 2070.7 3262.41 2077.37 C 3328.64 2079.54 3462.37 2107.66 3506.7 2157.03 C 3515.05 2166.32 3517.4 2173.98 3525 2178.05 L 3525 3416.87 C 3518.64 3420.7 3520.39 3419.52 3516.58 3425 C 3488.62 3465.31 3435.7 3482.43 3390.57 3495.3 C 3269.69 3528.53 3141.44 3521.76 3017.06 3521.77 L 2701.18 3521.82 L 1846.31 3521.8 L 815.292 3521.74 L 484.191 3521.74 C 338.184 3521.76 207.962 3529.24 69.22 3473.13 C 76.8861 3471.01 73.4683 3472.86 79.4036 3466.62 C 55.0007 3452.37 33.5897 3447.86 20.3861 3419.77 L 15.6761 3418.84 C 12.2894 3423.73 14.64 3426.74 14.6958 3434.41 C 5.90436 3428.03 12.4056 3424.98 0 3417.1 L 0 2629.35 C 9.53298 2624.47 9.24373 2616.19 18.9818 2610.44 C 38.9199 2598.67 59.574 2587.84 79.8488 2576.63 C 141.69 2543.11 204.051 2510.56 266.909 2478.99 C 278.443 2473.3 348.54 2442.3 349.106 2432.83 C 350.365 2411.75 350.999 2368.51 350.949 2346.06 L 358.851 2347.08 C 358.896 2359.61 356.764 2410.68 361.198 2417.65 L 363.81 2418 C 368.236 2410.76 366.759 2284.21 366.81 2263.17 L 369.403 2262.09 C 369.525 2245.9 369.775 2232.75 371.137 2216.49 C 390.561 2214.71 426.343 2215.45 446.727 2215.49 C 479.64 2215.55 516.899 2214.32 549.476 2215.57 C 554.861 2216.51 555.151 2217.05 560.248 2215.56 C 595.825 2213.97 633.051 2216.64 667.949 2214.92 C 675.489 2217.24 675.103 2217.41 682.589 2215.38 C 708.196 2215.43 839.536 2213.36 853.191 2218.08 C 856.068 2221.83 855.129 2219.84 855.618 2224.3 C 864.947 2223.83 869.026 2223.2 878.295 2225.08 C 883.512 2225.33 888.106 2221.72 893.387 2218.9 z M 3194.14 2189.07 L 3194.05 2314.73 C 3229.62 2345.66 3328.02 2345.72 3363.43 2314.3 C 3363.94 2294.44 3368.74 2196.49 3359.04 2186.13 C 3347.92 2174.23 3319.75 2169.6 3304.05 2168.43 C 3286.17 2168.09 3267.61 2168.5 3249.68 2168.66 C 3229.18 2171.72 3210.68 2175.85 3194.14 2189.07 z"/>
<path transform="translate(0,0)" fill="rgb(43,44,43)" d="M 3262.41 2077.37 C 3328.64 2079.54 3462.37 2107.66 3506.7 2157.03 C 3515.05 2166.32 3517.4 2173.98 3525 2178.05 L 3525 3416.87 C 3518.64 3420.7 3520.39 3419.52 3516.58 3425 C 3488.62 3465.31 3435.7 3482.43 3390.57 3495.3 C 3269.69 3528.53 3141.44 3521.76 3017.06 3521.77 L 2701.18 3521.82 L 1846.31 3521.8 L 815.292 3521.74 L 484.191 3521.74 C 338.184 3521.76 207.962 3529.24 69.22 3473.13 C 76.8861 3471.01 73.4683 3472.86 79.4036 3466.62 C 55.0007 3452.37 33.5897 3447.86 20.3861 3419.77 L 15.6761 3418.84 C 12.2894 3423.73 14.64 3426.74 14.6958 3434.41 C 5.90436 3428.03 12.4056 3424.98 0 3417.1 L 0 2629.35 C 9.53298 2624.47 9.24373 2616.19 18.9818 2610.44 C 38.9199 2598.67 59.574 2587.84 79.8488 2576.63 C 141.69 2543.11 204.051 2510.56 266.909 2478.99 C 278.443 2473.3 348.54 2442.3 349.106 2432.83 C 350.365 2411.75 350.999 2368.51 350.949 2346.06 L 358.851 2347.08 C 358.896 2359.61 356.764 2410.68 361.198 2417.65 L 363.81 2418 C 368.236 2410.76 366.759 2284.21 366.81 2263.17 L 369.403 2262.09 C 369.525 2245.9 369.775 2232.75 371.137 2216.49 C 390.561 2214.71 426.343 2215.45 446.727 2215.49 C 479.64 2215.55 516.899 2214.32 549.476 2215.57 C 554.861 2216.51 555.151 2217.05 560.248 2215.56 C 595.825 2213.97 633.051 2216.64 667.949 2214.92 C 675.489 2217.24 675.103 2217.41 682.589 2215.38 C 708.196 2215.43 839.536 2213.36 853.191 2218.08 C 856.068 2221.83 855.129 2219.84 855.618 2224.3 C 864.947 2223.83 869.026 2223.2 878.295 2225.08 C 883.512 2225.33 888.106 2221.72 893.387 2218.9 C 897.775 2221.92 897.43 2221.08 900.579 2225.03 C 892.641 2230.22 860.878 2243.74 849.944 2248.81 C 756.082 2292.29 652.38 2321.1 555.107 2356.52 C 505.092 2374.73 451.53 2401.35 403.006 2423.84 C 312.085 2465.04 222.837 2509.84 135.474 2558.12 C 105.43 2574.35 39.0093 2602.41 19.8589 2627.25 C 20.7602 2681.54 19.2058 2742.23 19.3046 2797.26 L 20.1087 3301 L 2420.51 3300.26 L 3159.48 3300.4 L 3383.1 3300.51 C 3416.35 3300.47 3474.04 3298.68 3505.71 3301.38 C 3504.56 3273.46 3505.55 3244.14 3505.44 3216.05 L 3505.47 3022.41 L 3505.06 2467.69 L 3504.93 2281.53 C 3505.06 2248.34 3505.93 2212.02 3503.6 2178.67 C 3503.36 2175.14 3494.04 2159.64 3491.56 2157.21 C 3437.82 2104.41 3312.56 2087.33 3242.25 2079.39 C 3248.05 2078.43 3256.36 2077.93 3262.41 2077.37 z"/>
<path transform="translate(0,0)" fill="rgb(4,4,4)" d="M 3262.41 2077.37 C 3328.64 2079.54 3462.37 2107.66 3506.7 2157.03 C 3515.05 2166.32 3517.4 2173.98 3525 2178.05 L 3525 3416.87 C 3518.64 3420.7 3520.39 3419.52 3516.58 3425 C 3488.62 3465.31 3435.7 3482.43 3390.57 3495.3 C 3269.69 3528.53 3141.44 3521.76 3017.06 3521.77 L 2701.18 3521.82 L 1846.31 3521.8 L 815.292 3521.74 L 484.191 3521.74 C 338.184 3521.76 207.962 3529.24 69.22 3473.13 C 76.8861 3471.01 73.4683 3472.86 79.4036 3466.62 C 93.6764 3470.02 119.771 3485.32 137.396 3489.59 C 205.635 3506.12 264.267 3515.56 334.191 3516.06 L 2267.01 3516.16 L 2912.63 3516.17 L 3108.58 3516.09 C 3186.46 3516.12 3259.13 3516.9 3335.78 3501.24 C 3381.17 3491.96 3487.76 3466.46 3503.42 3415.98 C 3507.52 3402.77 3505.34 3325.02 3505.24 3306.85 C 3478.83 3308.78 3436.44 3307.31 3408.27 3307.29 L 3221.88 3307.25 L 2638.82 3307.23 L 802.959 3307.1 L 247.95 3307.31 L 100.912 3307.05 C 82.621 3306.95 36.8959 3305.59 21.4056 3307.96 C 16.8122 3319.35 20.2133 3401.3 20.3861 3419.77 L 15.6761 3418.84 C 12.2894 3423.73 14.64 3426.74 14.6958 3434.41 C 5.90436 3428.03 12.4056 3424.98 0 3417.1 L 0 2629.35 C 9.53298 2624.47 9.24373 2616.19 18.9818 2610.44 C 38.9199 2598.67 59.574 2587.84 79.8488 2576.63 C 141.69 2543.11 204.051 2510.56 266.909 2478.99 C 278.443 2473.3 348.54 2442.3 349.106 2432.83 C 350.365 2411.75 350.999 2368.51 350.949 2346.06 L 358.851 2347.08 C 358.896 2359.61 356.764 2410.68 361.198 2417.65 L 363.81 2418 C 368.236 2410.76 366.759 2284.21 366.81 2263.17 L 369.403 2262.09 C 369.525 2245.9 369.775 2232.75 371.137 2216.49 C 390.561 2214.71 426.343 2215.45 446.727 2215.49 C 479.64 2215.55 516.899 2214.32 549.476 2215.57 C 554.861 2216.51 555.151 2217.05 560.248 2215.56 C 595.825 2213.97 633.051 2216.64 667.949 2214.92 C 675.489 2217.24 675.103 2217.41 682.589 2215.38 C 708.196 2215.43 839.536 2213.36 853.191 2218.08 C 856.068 2221.83 855.129 2219.84 855.618 2224.3 C 864.947 2223.83 869.026 2223.2 878.295 2225.08 C 883.512 2225.33 888.106 2221.72 893.387 2218.9 C 897.775 2221.92 897.43 2221.08 900.579 2225.03 C 892.641 2230.22 860.878 2243.74 849.944 2248.81 C 756.082 2292.29 652.38 2321.1 555.107 2356.52 C 505.092 2374.73 451.53 2401.35 403.006 2423.84 C 312.085 2465.04 222.837 2509.84 135.474 2558.12 C 105.43 2574.35 39.0093 2602.41 19.8589 2627.25 C 20.7602 2681.54 19.2058 2742.23 19.3046 2797.26 L 20.1087 3301 L 2420.51 3300.26 L 3159.48 3300.4 L 3383.1 3300.51 C 3416.35 3300.47 3474.04 3298.68 3505.71 3301.38 C 3504.56 3273.46 3505.55 3244.14 3505.44 3216.05 L 3505.47 3022.41 L 3505.06 2467.69 L 3504.93 2281.53 C 3505.06 2248.34 3505.93 2212.02 3503.6 2178.67 C 3503.36 2175.14 3494.04 2159.64 3491.56 2157.21 C 3437.82 2104.41 3312.56 2087.33 3242.25 2079.39 C 3248.05 2078.43 3256.36 2077.93 3262.41 2077.37 z"/>
<path transform="translate(0,0)" fill="rgb(43,44,43)" d="M 549.476 2215.57 C 554.861 2216.51 555.151 2217.05 560.248 2215.56 C 564.802 2240.22 562.888 2312.87 561.469 2340.81 C 562.338 2341.73 563.206 2342.65 564.074 2343.56 C 560.689 2344.62 550.576 2348.66 547.911 2349.17 C 520.948 2356.95 489.681 2372.63 464.037 2383.98 C 432.752 2397.82 401.17 2411.81 370.488 2426.94 C 371.438 2410.3 369.824 2386.54 369.667 2369.22 L 369.403 2262.09 C 369.525 2245.9 369.775 2232.75 371.137 2216.49 C 390.561 2214.71 426.343 2215.45 446.727 2215.49 C 479.64 2215.55 516.899 2214.32 549.476 2215.57 z"/>
<path transform="translate(0,0)" fill="rgb(21,22,21)" d="M 549.476 2215.57 C 554.861 2216.51 555.151 2217.05 560.248 2215.56 C 564.802 2240.22 562.888 2312.87 561.469 2340.81 C 562.338 2341.73 563.206 2342.65 564.074 2343.56 C 560.689 2344.62 550.576 2348.66 547.911 2349.17 C 548.265 2348.37 548.966 2229.38 549.476 2215.57 z"/>
<path transform="translate(0,0)" fill="rgb(43,44,43)" d="M 667.949 2214.92 C 675.489 2217.24 675.103 2217.41 682.589 2215.38 C 683.987 2243.88 681.723 2269.97 683.448 2300.05 L 686.482 2302.39 C 678.848 2303.26 678.401 2303.24 671.604 2306.54 C 636.248 2318.33 598.807 2330.42 564.074 2343.56 C 563.206 2342.65 562.338 2341.73 561.469 2340.81 C 562.888 2312.87 564.802 2240.22 560.248 2215.56 C 595.825 2213.97 633.051 2216.64 667.949 2214.92 z"/>
<path transform="translate(0,0)" fill="rgb(21,22,21)" d="M 667.949 2214.92 C 675.489 2217.24 675.103 2217.41 682.589 2215.38 C 683.987 2243.88 681.723 2269.97 683.448 2300.05 L 686.482 2302.39 C 678.848 2303.26 678.401 2303.24 671.604 2306.54 C 668.867 2280.52 668.207 2241.27 667.949 2214.92 z"/>
<path transform="translate(0,0)" fill="rgb(43,44,43)" d="M 682.589 2215.38 C 708.196 2215.43 839.536 2213.36 853.191 2218.08 C 856.068 2221.83 855.129 2219.84 855.618 2224.3 C 854.31 2229.5 854.208 2236.41 849.685 2238.85 C 799.338 2266.04 737.338 2279.25 686.482 2302.39 L 683.448 2300.05 C 681.723 2269.97 683.987 2243.88 682.589 2215.38 z"/>
<path transform="translate(0,0)" fill="rgb(21,22,21)" d="M 893.387 2218.9 C 933.709 2199.18 960.522 2183.08 983.165 2143.51 C 1028.65 2064.04 1136.85 2085.33 1212.65 2065.28 C 1251.43 2055.03 1301.79 2058.4 1343.75 2058.4 L 1520.74 2058.43 C 1647.59 2058.43 1774.81 2057.97 1901.66 2058.6 C 1938.52 2058.79 1956.55 2072.15 1994.71 2072.18 L 2872.19 2071.82 L 3113.69 2071.85 C 3152.69 2072 3225.03 2070.7 3262.41 2077.37 C 3256.36 2077.93 3248.05 2078.43 3242.25 2079.39 C 3219.92 2080.98 3166.26 2077.72 3140.05 2077.75 L 2873.29 2077.99 L 2300.41 2078 C 2191.88 2077.17 2083.34 2077.3 1974.8 2078.4 C 1967.4 2086.49 1959.35 2090.48 1950.37 2096.26 C 1909.05 2122.88 1892.36 2141.51 1840.03 2141.75 C 1798.06 2141.95 1754.61 2142.23 1711.97 2142.19 L 1499.23 2142.4 L 1382.45 2142.68 C 1354.43 2142.81 1312.24 2143.29 1285.6 2138.63 C 1261.48 2134.41 1197.52 2095.49 1181.81 2077.74 C 1138.14 2079.73 1052.37 2086.75 1015.5 2118.39 C 1010.97 2122.27 996.843 2147.01 991.911 2153.47 C 961.442 2193.4 945.797 2208.07 900.579 2225.03 C 897.43 2221.08 897.775 2221.92 893.387 2218.9 z"/>
<path transform="translate(0,0)" fill="rgb(240,240,240)" d="M 1249.06 2064.56 C 1300.05 2062.81 1357.02 2063.98 1408.52 2063.99 L 1690 2063.99 L 1836.06 2063.96 C 1856.76 2063.96 1943.72 2060.19 1953.06 2075.21 C 1949.7 2083 1904.97 2111.35 1894.71 2118.43 C 1861.4 2141.39 1797.66 2135.87 1757.85 2135.83 L 1604.61 2135.78 L 1411.04 2135.81 C 1298.69 2135.78 1290.05 2146.41 1199.57 2075.68 C 1219.71 2066.37 1227.49 2065.54 1249.06 2064.56 z"/>
<path transform="translate(0,0)" fill="rgb(21,22,21)" d="M 3271.25 2150.59 C 3315.16 2147.24 3379.69 2153.61 3412.08 2186.59 C 3412.78 2232.3 3409.95 2266.68 3412.5 2313.79 C 3382.43 2347.37 3332.2 2349.74 3288.74 2354.32 C 3282.75 2354.38 3276.77 2354.35 3270.78 2354.23 C 3231.33 2353.3 3170.65 2345.67 3141.97 2315.79 C 3142.57 2285.98 3140.65 2212.41 3144.6 2187.45 C 3180.79 2154.22 3223.49 2152.95 3271.25 2150.59 z M 3194.14 2189.07 L 3194.05 2314.73 C 3229.62 2345.66 3328.02 2345.72 3363.43 2314.3 C 3363.94 2294.44 3368.74 2196.49 3359.04 2186.13 C 3347.92 2174.23 3319.75 2169.6 3304.05 2168.43 C 3286.17 2168.09 3267.61 2168.5 3249.68 2168.66 C 3229.18 2171.72 3210.68 2175.85 3194.14 2189.07 z"/>
<path transform="translate(0,0)" fill="rgb(4,4,4)" d="M 3304.05 2168.43 C 3286.3 2161.65 3276.22 2166.65 3261.06 2163.9 C 3290.79 2161.6 3372.6 2156.07 3379.13 2200.04 C 3384.12 2233.59 3373.59 2270.7 3379.81 2305.96 C 3383.78 2328.48 3331.42 2337.85 3316.27 2339.67 C 3276.02 2345.49 3220.13 2344.68 3184.61 2321.5 C 3164.83 2308.5 3178.58 2270.46 3175.49 2250.82 C 3173.97 2237.85 3172.55 2203.43 3176.4 2191.36 C 3189.9 2175.5 3232.14 2157.07 3251.87 2165.9 L 3249.68 2168.66 C 3229.18 2171.72 3210.68 2175.85 3194.14 2189.07 L 3194.05 2314.73 C 3229.62 2345.66 3328.02 2345.72 3363.43 2314.3 C 3363.94 2294.44 3368.74 2196.49 3359.04 2186.13 C 3347.92 2174.23 3319.75 2169.6 3304.05 2168.43 z"/>
<path transform="translate(0,0)" fill="rgb(4,4,4)" d="M 476.845 48.3141 C 495.301 31.8188 496.672 35.8065 517.071 27.27 C 541.267 17.1441 557.508 7.36244 584.493 4.27258 C 628.235 -0.735802 665.574 4.56007 705.29 23.2905 C 728.064 33.4964 730.176 30.6327 751.224 47.0956 C 752.688 65.9351 751.569 100.092 751.71 119.953 C 751.859 140.927 752.943 178.43 750.924 197.732 C 747.284 202.796 748.303 201.239 741.412 203.87 C 747.044 189.882 747.818 64.0628 741.253 56.5097 C 738.696 57.4096 736.079 58.9189 735.964 61.8024 C 734.495 98.7907 740.434 139.541 735.432 176.434 C 733.294 192.206 743.673 192.757 732.609 202.082 C 735.37 202.753 738.175 203.289 740.802 204.302 C 733.738 205.846 727.169 205.738 722.058 210.79 C 720.754 215.2 722.199 255.081 722.194 263.266 L 722.038 475.422 L 722.016 1487.81 L 722.054 1765.98 C 722.061 1788.99 723.589 1874.94 720.455 1892.67 C 739.29 1892.6 768.676 1890.09 784.53 1897.34 C 791.377 1907.58 845.476 2016.21 846.846 2024.4 C 837.821 2024.09 837.596 2015.52 832.107 2008.14 L 829.273 2009.31 L 827.802 2014.12 C 862.821 2080.52 854.814 2080.24 854.065 2156.6 C 853.899 2173.59 856.086 2192.15 855.01 2209.72 C 817.291 2210.19 779.569 2210.3 741.848 2210.05 C 722.904 2209.98 697.615 2209.07 679.557 2210.06 L 672.965 2210.61 C 648.12 2208.14 586.97 2210.18 559.68 2210.31 C 549.292 2203.21 553.753 2213.54 542.616 2210.47 C 485.824 2208.22 426.804 2211.92 369.649 2209.28 C 369.966 2154.61 363.872 2104.25 379.63 2052.95 C 387.39 2041.56 390.724 2030.17 396.834 2018.43 C 410.284 1992.58 421.425 1964.31 434.344 1938.54 C 435.159 1931.17 445.142 1912.94 449.031 1905.58 C 437.451 1900.28 448.573 1908.69 434.742 1905.25 C 442.396 1886.47 490.166 1893.14 509.527 1892.14 C 510.658 1859.23 504.324 1837.98 502.655 1806.33 C 501.463 1783.73 503.5 1756.54 503.549 1733.33 L 503.395 1555.45 L 507.897 499.817 C 507.846 435.531 497.356 375.304 508.533 310.804 C 511.169 295.593 505.309 265.642 506.381 248.958 C 508.912 209.583 512.88 211.187 477.22 200.31 C 474.928 154.82 476.646 94.6787 476.845 48.3141 z M 488.881 199.12 L 490.543 199.231 C 490.368 198.469 490.193 197.708 490.018 196.946 C 490.319 195.525 490.619 194.103 490.92 192.682 C 492.794 176.325 493.354 51.0767 491.905 44.7151 L 491.034 44.6779 C 487.97 46.7954 486.209 48.0067 482.975 49.8918 C 481.58 57.9842 484.185 64.3746 485.445 72.3418 C 488.854 93.8998 482.036 183.5 488.881 199.12 z"/>
<path transform="translate(0,0)" fill="rgb(43,44,43)" d="M 636.642 1898.54 C 653.323 1900.62 674.723 1897.57 693.816 1898.89 L 772.259 1899.32 C 788.826 1935.61 809.659 1976.46 827.375 2012.45 C 827.518 2013.01 827.66 2013.56 827.802 2014.12 C 862.821 2080.52 854.814 2080.24 854.065 2156.6 C 853.899 2173.59 856.086 2192.15 855.01 2209.72 C 817.291 2210.19 779.569 2210.3 741.848 2210.05 C 722.904 2209.98 697.615 2209.07 679.557 2210.06 L 672.965 2210.61 C 648.12 2208.14 586.97 2210.18 559.68 2210.31 C 549.292 2203.21 553.753 2213.54 542.616 2210.47 C 485.824 2208.22 426.804 2211.92 369.649 2209.28 C 369.966 2154.61 363.872 2104.25 379.63 2052.95 C 387.39 2041.56 390.724 2030.17 396.834 2018.43 C 410.284 1992.58 421.425 1964.31 434.344 1938.54 C 435.159 1931.17 445.142 1912.94 449.031 1905.58 L 449.938 1905.12 C 451.71 1901.65 451.616 1901.85 454.503 1899.2 C 482.447 1896.85 544.743 1899.66 574.809 1899.33 C 576.614 1899.31 577.19 1902.57 578.312 1905.26 C 583.638 1901.01 585.185 1901.18 591.979 1900.48 C 606.873 1899.99 621.762 1899.34 636.642 1898.54 z"/>
<path transform="translate(0,0)" fill="rgb(43,44,43)" d="M 449.031 1905.58 L 449.938 1905.12 C 451.71 1901.65 451.616 1901.85 454.503 1899.2 C 482.447 1896.85 544.743 1899.66 574.809 1899.33 C 576.614 1899.31 577.19 1902.57 578.312 1905.26 C 583.638 1901.01 585.185 1901.18 591.979 1900.48 C 585.816 1909.29 564.385 2064.96 561.519 2086.55 C 557.496 2116.85 568.099 2177.76 559.68 2210.31 C 549.292 2203.21 553.753 2213.54 542.616 2210.47 C 485.824 2208.22 426.804 2211.92 369.649 2209.28 C 369.966 2154.61 363.872 2104.25 379.63 2052.95 C 387.39 2041.56 390.724 2030.17 396.834 2018.43 C 410.284 1992.58 421.425 1964.31 434.344 1938.54 C 435.159 1931.17 445.142 1912.94 449.031 1905.58 z"/>
<path transform="translate(0,0)" fill="rgb(21,22,21)" d="M 449.031 1905.58 L 449.938 1905.12 C 451.71 1901.65 451.616 1901.85 454.503 1899.2 C 482.447 1896.85 544.743 1899.66 574.809 1899.33 C 576.614 1899.31 577.19 1902.57 578.312 1905.26 C 583.638 1901.01 585.185 1901.18 591.979 1900.48 C 585.816 1909.29 564.385 2064.96 561.519 2086.55 C 557.496 2116.85 568.099 2177.76 559.68 2210.31 C 549.292 2203.21 553.753 2213.54 542.616 2210.47 L 546.196 2209.39 C 550.33 2170.59 542.961 2118.33 546.693 2086.36 C 553.712 2026.23 571.017 1961.79 575.16 1900.18 C 553.217 1900.58 481.099 1897.64 458.099 1902.03 C 452.153 1903.16 444.787 1929.72 434.344 1938.54 C 435.159 1931.17 445.142 1912.94 449.031 1905.58 z"/>
<path transform="translate(0,0)" fill="rgb(43,44,43)" d="M 636.642 1898.54 C 637.674 1899.69 638.705 1900.83 639.737 1901.97 C 647.419 1958.27 663.331 2029.26 667.624 2084.35 C 670.14 2116.63 667.274 2187.79 672.965 2210.61 C 648.12 2208.14 586.97 2210.18 559.68 2210.31 C 568.099 2177.76 557.496 2116.85 561.519 2086.55 C 564.385 2064.96 585.816 1909.29 591.979 1900.48 C 606.873 1899.99 621.762 1899.34 636.642 1898.54 z"/>
<path transform="translate(0,0)" fill="rgb(21,22,21)" d="M 636.642 1898.54 C 653.323 1900.62 674.723 1897.57 693.816 1898.89 C 683.779 1899.16 664.761 1898.74 656.104 1901.79 C 652.503 1908.31 681.992 2063.42 681.983 2084.11 C 681.976 2102.23 686.804 2200.22 679.557 2210.06 L 672.965 2210.61 C 667.274 2187.79 670.14 2116.63 667.624 2084.35 C 663.331 2029.26 647.419 1958.27 639.737 1901.97 C 638.705 1900.83 637.674 1899.69 636.642 1898.54 z"/>
<path transform="translate(0,0)" fill="rgb(43,44,43)" d="M 524.086 207.301 C 538.288 205.824 572.151 206.855 587.134 207.085 C 626.179 207.685 663.972 208.525 703.109 208.07 L 703.463 1331.6 L 703.351 1695.32 C 703.386 1759.62 701.865 1828.74 704.003 1892.47 C 689.518 1892.23 675.851 1892.09 661.376 1892.45 C 616.193 1891.7 571.003 1891.36 525.813 1891.43 C 526.11 1865.54 524.376 1834.58 524.341 1807.26 L 524.076 1505.96 L 524.392 824.587 L 524.307 398.504 C 524.227 335.763 526.249 269.699 524.086 207.301 z"/>
<path transform="translate(0,0)" fill="rgb(21,22,21)" d="M 548.946 29.2944 C 560.09 -0.402058 669.812 5.22487 683.668 26.3122 C 683.141 30.7163 683.803 28.7076 681.081 32.1702 L 679.737 33.4953 L 685.282 34.7758 C 693.747 32.9924 702.465 30.4415 710.201 34.9715 C 720.523 38.1575 724.173 40.2886 733.428 45.298 C 733.427 80.8659 734.176 116.417 733.948 151.914 C 733.864 165.072 734.162 185.95 732.238 197.994 C 725.874 199.651 714.997 196.925 707.489 196.415 C 688.674 198.005 653.883 194.596 639.744 197.907 C 614.546 203.809 605.339 202.795 579.393 200.2 L 577.368 196.416 C 567.235 198.219 507.181 197.159 494.793 197.059 C 495.44 157.55 492.09 80.5877 496.735 44.0843 C 518.213 30.5357 524.855 30.3579 548.803 35.2529 L 548.946 29.2944 z"/>
<path transform="translate(0,0)" fill="rgb(43,44,43)" d="M 685.282 34.7758 C 693.747 32.9924 702.465 30.4415 710.201 34.9715 C 720.523 38.1575 724.173 40.2886 733.428 45.298 C 733.427 80.8659 734.176 116.417 733.948 151.914 C 733.864 165.072 734.162 185.95 732.238 197.994 C 725.874 199.651 714.997 196.925 707.489 196.415 C 694.189 193.612 675.817 196.021 661.59 194.758 C 648.156 193.566 648.437 186.013 648.883 173.375 C 650.385 130.871 649.798 88.5056 648.876 46.0748 C 648.779 41.6051 659.329 39.4849 662.255 38.7016 C 670.717 38.5252 677.066 36.6601 685.282 34.7758 z"/>
<path transform="translate(0,0)" fill="rgb(43,44,43)" d="M 496.735 44.0843 C 518.213 30.5357 524.855 30.3579 548.803 35.2529 C 558.541 36.9747 567.712 37.9016 576.524 42.1874 C 578.307 48.0926 578.864 187.388 577.368 196.416 C 567.235 198.219 507.181 197.159 494.793 197.059 C 495.44 157.55 492.09 80.5877 496.735 44.0843 z"/>
<path transform="translate(0,0)" fill="rgb(43,44,43)" d="M 594.543 42.748 C 604.955 40.4054 629.563 39.454 640.011 41.433 C 636.1 52.6994 635.07 65.3053 635.471 77.1423 C 636.792 116.163 634.451 157.507 635.598 196.272 C 621.489 196.555 603.033 197.442 589.293 196.534 C 600.027 157.353 587.466 81.2345 594.543 42.748 z"/>
<path transform="translate(0,0)" fill="rgb(43,44,43)" d="M 548.946 29.2944 C 560.09 -0.402058 669.812 5.22487 683.668 26.3122 C 683.141 30.7163 683.803 28.7076 681.081 32.1702 C 671.043 33.0031 661.621 34.7708 651.705 36.4453 L 641.184 39.2162 L 640.011 41.433 C 629.563 39.454 604.955 40.4054 594.543 42.748 L 593.02 39.0187 C 588.744 38.4847 586.478 38.2396 582.306 37.095 L 579.38 36.2741 C 569.086 34.4607 558.549 33.1881 548.946 29.2944 z"/>
<path transform="translate(0,0)" fill="rgb(21,22,21)" d="M 579.38 36.2741 C 603.167 35.2742 627.814 36.0517 651.705 36.4453 L 641.184 39.2162 L 640.011 41.433 C 629.563 39.454 604.955 40.4054 594.543 42.748 L 593.02 39.0187 C 588.744 38.4847 586.478 38.2396 582.306 37.095 L 579.38 36.2741 z"/>
<path transform="translate(0,0)" fill="rgb(4,4,4)" fill-opacity="0.854902" d="M 491.034 44.6779 L 491.905 44.7151 C 493.354 51.0767 492.794 176.325 490.92 192.682 C 490.619 194.103 490.319 195.525 490.018 196.946 C 490.193 197.708 490.368 198.469 490.543 199.231 L 488.881 199.12 C 482.036 183.5 488.854 93.8998 485.445 72.3418 C 484.185 64.3746 481.58 57.9842 482.975 49.8918 C 486.209 48.0067 487.97 46.7954 491.034 44.6779 z"/>
<path transform="translate(0,0)" fill="rgb(4,4,4)" fill-opacity="0.984314" d="M 827.802 2014.12 L 829.273 2009.31 L 832.107 2008.14 C 837.596 2015.52 837.821 2024.09 846.846 2024.4 C 883.62 2078.59 872.779 2142.98 874.187 2205.18 C 874.317 2210.88 867.971 2208.9 869.152 2215.29 L 870.63 2216.39 C 874.667 2219.45 876.646 2220.31 878.295 2225.08 C 869.026 2223.2 864.947 2223.83 855.618 2224.3 C 855.129 2219.84 856.068 2221.83 853.191 2218.08 C 839.536 2213.36 708.196 2215.43 682.589 2215.38 C 675.103 2217.41 675.489 2217.24 667.949 2214.92 C 633.051 2216.64 595.825 2213.97 560.248 2215.56 C 555.151 2217.05 554.861 2216.51 549.476 2215.57 C 516.899 2214.32 479.64 2215.55 446.727 2215.49 C 426.343 2215.45 390.561 2214.71 371.137 2216.49 C 369.775 2232.75 369.525 2245.9 369.403 2262.09 L 366.81 2263.17 C 366.765 2254.42 367.264 2236.56 365.29 2228.81 L 363.312 2228.67 C 360.078 2235.33 358.621 2332.88 358.851 2347.08 L 350.949 2346.06 C 348.526 2309.19 350.76 2257.21 350.503 2218.63 C 350.284 2185.95 347.994 2124.16 351.467 2094.4 C 353.314 2079.59 357.582 2065.19 364.1 2051.77 C 367.224 2056.09 367.579 2057.54 368.996 2062.49 L 370.786 2063.32 C 373.655 2059.8 376.604 2056.34 379.63 2052.95 C 363.872 2104.25 369.966 2154.61 369.649 2209.28 C 426.804 2211.92 485.824 2208.22 542.616 2210.47 C 553.753 2213.54 549.292 2203.21 559.68 2210.31 C 586.97 2210.18 648.12 2208.14 672.965 2210.61 L 679.557 2210.06 C 697.615 2209.07 722.904 2209.98 741.848 2210.05 C 779.569 2210.3 817.291 2210.19 855.01 2209.72 C 856.086 2192.15 853.899 2173.59 854.065 2156.6 C 854.814 2080.24 862.821 2080.52 827.802 2014.12 z M 362.03 2208.84 C 363.491 2207.11 365.899 2204.16 365.942 2201.84 C 366.246 2185.62 369.585 2099.3 364.058 2092.26 L 361.831 2090.93 C 360.719 2107.87 358.382 2195.7 362.03 2208.84 z"/>
<path transform="translate(0,0)" fill="rgb(4,4,4)" fill-opacity="0.823529" d="M 361.831 2090.93 L 364.058 2092.26 C 369.585 2099.3 366.246 2185.62 365.942 2201.84 C 365.899 2204.16 363.491 2207.11 362.03 2208.84 C 358.382 2195.7 360.719 2107.87 361.831 2090.93 z"/>
<path transform="translate(0,0)" fill="rgb(4,4,4)" fill-opacity="0.909804" d="M 434.742 1905.25 C 448.573 1908.69 437.451 1900.28 449.031 1905.58 C 445.142 1912.94 435.159 1931.17 434.344 1938.54 C 421.425 1964.31 410.284 1992.58 396.834 2018.43 C 390.724 2030.17 387.39 2041.56 379.63 2052.95 C 376.604 2056.34 373.655 2059.8 370.786 2063.32 L 368.996 2062.49 C 367.579 2057.54 367.224 2056.09 364.1 2051.77 L 365.601 2051.04 C 366.571 2046.9 432.756 1907.7 434.742 1905.25 z"/>
<path transform="translate(0,0)" fill="rgb(4,4,4)" fill-opacity="0.827451" d="M 358.851 2347.08 C 358.621 2332.88 360.078 2235.33 363.312 2228.67 L 365.29 2228.81 C 367.264 2236.56 366.765 2254.42 366.81 2263.17 C 366.759 2284.21 368.236 2410.76 363.81 2418 L 361.198 2417.65 C 356.764 2410.68 358.896 2359.61 358.851 2347.08 z"/>
<path transform="translate(0,0)" fill="rgb(4,4,4)" fill-opacity="0.976471" d="M 740.802 204.302 C 738.175 203.289 735.37 202.753 732.609 202.082 C 743.673 192.757 733.294 192.206 735.432 176.434 C 740.434 139.541 734.495 98.7907 735.964 61.8024 C 736.079 58.9189 738.696 57.4096 741.253 56.5097 C 747.818 64.0628 747.044 189.882 741.412 203.87 L 740.802 204.302 z"/>
<path transform="translate(0,0)" fill="rgb(4,4,4)" fill-opacity="0.976471" d="M 14.6958 3434.41 C 14.64 3426.74 12.2894 3423.73 15.6761 3418.84 L 20.3861 3419.77 C 33.5897 3447.86 55.0007 3452.37 79.4036 3466.62 C 73.4683 3472.86 76.8861 3471.01 69.22 3473.13 C 50.7039 3463.16 28.318 3451.07 14.6958 3434.41 z"/>
</svg>