<svg xmlns="http://www.w3.org/2000/svg" width="2911" height="3030" preserveAspectRatio="none" style="display:block" viewBox="0 0 3030 3030"><path fill="#34719c" d="M126.1 0H159c8.3 7.1 55.6 1.7 72.8 4.1a82 82 0 0 0 30.1 2c15.8 1.1 32 .7 47.9.6l-3.9-2.4q4-1.7 7.3-4.3h2585.3l1.4 2.3c5.8.8 16.1 1.6 21.2 3.3 45.3 9.8 92 55.7 99.9 103 4 23.6 2 59.5 2 84.3V491c0 21.3 1.2 59.3-.2 79.6v52c-19.4 6.4-34 15-44 34.3a60 60 0 0 0-3.6 45.5c7.6 23.1 25.2 36 47.8 42.1l-.2 54q.4 54.3.1 108.4v54c-18 4.6-32 12.7-41.6 29.5a59 59 0 0 0-5.8 46.5c7 24.2 24.6 37.2 47.6 44.4-.1 17.4-.5 35.6-.2 52.8V1295c-19.4 6.5-33.3 14-43.5 33.5a59 59 0 0 0-3.3 47.8c5.6 15.5 19 29.9 34 36.6q6.6 3 13.3 5.2a1136 1136 0 0 0-.4 52.2v160.6c-36 13-58.8 40.6-45.8 80.8 6.6 20.5 18 28.5 36.8 37.4 13.5 6 12.5 15 12.5 28.7 0 9.3-.3 19.6-3.4 28.7l.1 779.5.1 222.9c0 29.2-1.2 60.3 0 89.4 2.5 61.5-53.4 127.3-116.9 128.5l-.7 1.1.1 2.1H121.4l.4-1.6c-5.9-2-13.7-2.5-20.6-4.6-17.8-2.6-45.6-21.1-58.5-33.4-12.7-12-35.4-43.5-35-61.2-7.7-17.2-3.2-92-4.4-118.3-4.3-9.7-2.2-40-1.6-52.3l7.2-2.5c51.8-17.9 60.6-80.2 14.3-110.9-6.1-4-14.6-6.5-21.7-8.9-.8-18-1-35.3 1-53.2-.2-4.8.8-21.5.8-28q.7-39.6 0-79.3c-3.5-10.4-4-37-.9-48.3 1.4-4.8 3.8-5.3 7.6-7.3 33-6.6 51.4-50.8 38.9-80.4-9.5-22.3-26.3-30.4-46.8-39.6-2-16.7-2.1-32.3 1.9-48.6-3.3-11-.4-92.8-.7-111-2-8.7-5.3-42.9.4-51.1 3.2-4.6 24-10.8 29.2-15.9 18.5-17.8 27.2-43.6 16.7-68-10.3-23.4-26.5-31.5-47.7-40.7a172 172 0 0 1 1.4-49.5c-1.3-4.2 0-97.8.4-109-4-12.4-4.6-40.8.5-53 21.8-10 34.8-14.9 44.7-39.6a58 58 0 0 0-1-45.5c-9.8-21.7-25.3-29.8-45.8-38-2-17.2-1.3-56.6-.3-74.4.1-23.2 3-34.6 0-59.4.9-7.3.2-19.5 2.7-24.3 5-3.3 3.6-2.2 11-1.7 15 .3 54.2 2.7 66.8-2.3l-1.5-1.7c-21.5-1.4-51-.6-73.1-.5v-43.4c10.2-3.8 13.8-5 23-10.8l-5-3.2c31.6-28.5 39.8-65.8 6-98.7-8-7.9-19.3-11.8-29.6-16-2.4-28.5-1.2-80.1-.4-109.7l.7-.4q0-24.9 1.2-49.8c6.2 0 7.4 0 13.5 1q30.6.8 61.1-.7c.7-1.2.3-.3-.2-2.8-23-.6-47.4-.2-70.5-.2.5-15-.2-29.4.7-44.7l-2.4-6.1c23.7-3 44.6-30.4 45.6-53.7 1.5-38.7-18-53.7-49.7-68-.9-10.5-.9-22.4-.6-33 1.6-59.5-2.4-121.1.6-180.3 18.1-5.7 32-12 42.3-29.5a61 61 0 0 0 6.7-46.2 72 72 0 0 0-32.7-41l1.7-5.2-2.4-1.5c-3.8-1-4.4-1.1-8-2.8-4.6-8.5-2.6-33-2.6-44.5 12.6 0 67.8 1.4 77.4-1.1-12.6-6.2-51.9-3.9-68.1-3.7-4.4.6-7 1.3-11.1-.1-3.3-5.5-2.2-9.4-2.4-16.6H1.2v-97l.2-46.7c17-6.2 20-8.2 34-20.7q6.6-7.5 10.7-16.7c18.7-42.2-8.2-70.3-45-86.1q-.2-33.6.4-67.2C0 208 .3 124.1 3 114.3l.8-4.2a132 132 0 0 1 24.7-55.4C44.5 33.9 76 9.3 102.4 6c9.3-3.6 17.2-.8 23.7-6"/><path fill="#6c7478" d="M2023.5 2359.4c14.9-1.7 58.6.2 64.8-4.8 7.3-11.1 3.9-25.6 6.8-38.5 20.3-90.3 113.5-68.4 182.1-70.8 12.8-.4 26.6 1 39.4.3 10.4-.5 46.6 3.4 51.6-5.6 7.4-13.5-5.6-48.2 7.5-58.7 17.5-3.5 169.5-3.9 177.4.7 12.2 13.3-3.6 52.6 8.9 60.3 4 2.4 9.4 2.5 14 2.6 39 1.6 78.6.4 117.7.2 24.1 0 49.9-2.3 73.5 3.6a94 94 0 0 1 45.6 26c28.3 30.3 17.1 70.5 26 80.1 2.8 3.2 10.5 3.5 14.5 3.7 13.8.7 38.7-5.2 50 3.6 4.5 6.2 2.1 66 2.1 78.7q.7 97.6 0 195.3l.1 101.5c0 36.5 1.5 73-.7 109.5-15.9 18.3-48.2-1.4-65.5 11.6-6.7 8-5 26.2-7.1 35.2-6.2 29.8-43.2 61.3-73.8 62.1-47.4 1.3-98 1.4-145.6 1.3-56.8 0-59.6-6-53.4 59.4.2 4.6-.6 7 1.7 9.8 26.8 1.6 54.6.1 81.6.5 5.4 0 12.7.3 18-.2 58 1.1 117-.4 175 0 9.5.1 63.2-.8 70 1.1v2.1H121.4l.4-1.6c6.7-2.7 84.7-1.6 97.3-1.7 84.5 1.2 170.7.3 255.3.3l474 .1h303c47.8 0 106.7 1.7 153.6-.3 72.6 1.2 148.1.2 221 .2h412.3l221.1.1c25.8 0 85.2 1.7 109-.8 1.6-2.6.4-5.8 0-9.7 1.2-12.3 3.3-45-1.4-55.2-7.8-5.3-29.1-4.2-39-4.3l-91.7-.2c-46-.1-87 7.2-122-30.8-26.7-29-14-44.1-24.7-68-17-11-52.7 4.8-66.4-8.3-2.8-29.7-1.2-68.8-1-99.6l-.1-137.6q-.7-90 .2-180c.2-20.1-.5-54.2 1.2-73.2"/><path fill="#cecece" d="M2174.3 2252c31.3-1.4 73.4-.3 105.2-.3l216-.1h229c25-.1 44.7-.6 66.8 13.3a79 79 0 0 1 35.6 50.3c3.3 14.5 2.1 72 2.2 89.2v178.8l-.1 202.2c-.2 31 1 63-1 93.8-2.7 41.2-35 63.9-72.4 71.5-40.6.8-84-.1-124.9-.1l-259 .1-131.6.2c-33.3 0-72.5 5.2-101.3-12.3-48.1-29.2-39.6-76.8-39.7-124.7l-.2-155.1.2-218.5q-.2-49.5 0-99c.1-22.2 1-36.2 14.4-54.6 16.2-22.3 35.2-29.9 60.8-34.7"/><path fill="#6c7478" d="M2458 2339a262 262 0 1 1 10.7 524 262 262 0 0 1-10.6-524"/><path fill="#a5a5a4" d="M2455.3 2350.1h2.5a276 276 0 0 1 157.1 46.4c127.6 89.6 148.1 262 40.3 375a256 256 0 0 1-182 79.7 374 374 0 0 1-35.6-1.2c-204.2-18.1-313.2-253.3-173.3-411.6 52-58.8 114.1-82.6 191-88.3"/><path fill="#84623f" d="M2443.2 2387.7a214.2 214.2 0 1 1 40.6 426.4 214.2 214.2 0 0 1-40.6-426.4"/><path fill="#c08a54" d="M2449.7 2397.4c108-6.9 208.4 64.5 223.3 177.3 2 15-.8 40.6-1.6 56.4l-2 1.2c-2.5-1.9-3.1-2.3-4.2-5.2-1.1 48.5-4.5 61.2-36.5 101.4a204 204 0 0 1-141.7 75.2c-222.2 18-325-246.4-140.2-373.9 32-22 64.6-28.6 102.9-32.4"/><path fill="#946b42" d="M2447.5 2530.6a72.9 72.9 0 1 1 32.2 142.1 72.9 72.9 0 0 1-32.2-142"/><path fill="#c08a54" d="M2450.5 2535a67.2 67.2 0 1 1 26 131.8 67.2 67.2 0 0 1-26-131.8"/><path fill="#a5a5a4" d="M2028.9 2364.2q32.1.3 64.2.2c-1.8 65.6 1.3 132.5.4 198.2-1.2 95.3 2 191.4-.7 286.5-20.7-.4-43.6.5-64.8.4zM2835.5 2364.3l64.6-.1v485.6a2323 2323 0 0 0-65.1-1.4zM2376.8 2956.3q55.5.6 111 .3c19.4 0 45.7 1 64.4-.4.9 21.3.5 45.5.5 67q-88.7-.9-177.5.3c.8-16.2-1.3-53.4 1.6-67.2M2412.7 2184.5c9.4-.8 35.2 0 45.4 0q47 .4 94 0c-.5 20.1-.1 41.9 0 62.2h-37.3c-47.2-.4-91.4-1-138.8-.5-.5-20.2-.2-41.4-.2-61.7z"/><path fill="#17324a" d="M313.1 0h2585.3l1.4 2.3c5.8.8 16.1 1.6 21.2 3.3 45.3 9.8 92 55.7 99.9 103 4 23.6 2 59.5 2 84.3V491c0 21.3 1.2 59.3-.2 79.6-4.5 1.1-7.9.3-12.5-.2q.8-8.2.8-16.5l-.3-293.3v-82.5c0-52 3.8-87.2-35.8-126.9a124 124 0 0 0-75.9-36.5c-26-2.6-61-2.2-87.4-2.1l-149.8.8-487-.2h-1656l-3.9.1c-8-1-15.8-1.3-23.9-1.8-19.3-1.2-37.5-1.7-56.7-2.8l8.8-.2c-11.5-3.1-41 .2-53.6-.4-26.9-1.4-52.9-1.5-79.8-1.4l-3.9-2.4q4-1.7 7.3-4.3"/><path fill="#22425a" d="M313.1 0h767.4c-5.1 2.7-6.3 3.1-11.9 4.2l.6 2c-5.1 2.5-193.2 1.2-214.4 1.2h-58.6c-7.9.2-22.2 1-29 .4-24-2.6-44.5 2.4-68.4.8l.3-.3c-46.8-4.5-117 1.3-166.5-1-3.2 6.5-7.3 4.3-13.8 5.9l-3.9.1c-8-1-15.8-1.3-23.9-1.8-19.3-1.2-37.5-1.7-56.7-2.8l8.8-.2c-11.5-3.1-41 .2-53.6-.4-26.9-1.4-52.9-1.5-79.8-1.4l-3.9-2.4q4-1.7 7.3-4.3"/><path fill="#1d425c" d="m491 11.5-.9-2.1Q482 8.7 474 7.7c12.4-1.7 45-.6 58.8-.5-3.3 6.6-7.4 4.4-13.9 6l-3.9.1c-8-1-15.8-1.3-23.9-1.8M2146.4 0h752l1.4 2.3c5.8.8 16.1 1.6 21.2 3.3-9.4 0-11.1.5-20.2 2.1-9.8 1.8-26.6-1.7-36-1.5q-32.9.6-65.6.5l-415.7-.2-.9 1 3.8 1.5c-30.2-1.2-57.1-2.3-87.6-2.3h-126.1c-21.6.1-46 1.3-67-2.2 8.2-1.4 36.6-1.5 40.7-4.5M1080.5 0h219.7c9.1 5.2 42.4.3 48 4-7 3.2-256 3.9-279 2.1l-.6-2c5.6-1 6.8-1.4 11.9-4.1"/><path fill="#214c69" d="m3.3 2810.9 11.8 1.2 1.3-.1c-1.3 19.3-.2 37-.4 55.7-.4 43.4-.7 70.7 28.9 105.6a131 131 0 0 0 87.5 42.2c47.6 1 97 1.5 144.7 1.5l264.5-.4 825 .1h894.2c27.2 0 82 1.9 107.7-.1.3 3.9 1.5 7-.2 9.7-23.7 2.5-83 .8-108.9.8H1626c-72.9 0-148.4 1-221-.3-47 2-105.8.3-153.7.3H474.4c-84.6 0-170.8.8-255.3-.4-12.6.1-90.6-1-97.3 1.8-5.9-2-13.7-2.6-20.6-4.7-17.8-2.6-45.6-21.1-58.5-33.4-12.7-12-35.4-43.5-35-61.2-7.7-17.2-3.2-92-4.4-118.3"/><path fill="#1d425c" d="m3.3 2810.9 11.8 1.2c-12.8 37.6.6 94.2-7.4 117.1-7.7-17.2-3.2-92-4.4-118.3"/><path fill="#22425a" d="M101.2 3023.8c10-3.5 70.7-2.2 84.2-1.1l2.8.3c11.3 1.1 20.6-.4 31.7 2.3l-.8 1.4c-12.6.1-90.6-1-97.3 1.8-5.9-2-13.7-2.6-20.6-4.7"/><path fill="#214c69" d="M3009.4 1807.2c2.7-.4 10.5-.5 13.6-.7l.1 779.5.1 222.9c0 29.2-1.2 60.3 0 89.4 2.5 61.5-53.4 127.3-116.9 128.5l-.7 1.1c-6.7-2-60.4-1-69.8-1-58.2-.5-117 1-175.2 0-5.2.4-12.5.2-18 .1-26.9-.4-54.7 1-81.5-.5-2.3-2.8-1.5-5.2-1.7-9.8l3.4.1c96.7 2.8 195.7-2.5 292.6 0 45.5 1.2 82-.5 116.7-33.8a127 127 0 0 0 37.3-68.7c3.2-17.6 2.2-38.2 2.2-56.3 0-34.9-1.7-69.2-1.5-104.1l.8-385c.2-40.9-1-82.6-.1-123.3q-.7-35.7-.3-71.6c-1.5-88 1.6-177.7-.5-266-.8-30 3-72.3-.6-100.8"/><path fill="#22425a" d="M2660.6 3026.8c15.3-5 83.8-2 101.8-2l141.4.2 2.5 1.8-.7 1.1c-6.7-2-60.4-1-69.8-1-58.2-.5-117 1-175.2 0"/><path fill="#1d425c" d="M3010.5 2174c5 16 9.5 53.7 4.5 69.3l-4.2 2.3q-.7-35.7-.3-71.6"/><path fill="#84623f" d="m3009.7 1576.6 13.2.3v54c-36 13-58.8 40.6-45.8 80.8 6.6 20.5 18 28.5 36.8 37.4 13.5 6 12.5 15 12.5 28.7 0 9.3-.3 19.6-3.4 28.7-3.1.2-10.9.3-13.6.7-14.2.3-57.2 3.4-67.8-4.8-4.1-3-5.2-18.2-5.3-24-1-40.6.6-83.1.3-123.4-.6-90.3-11.2-77.5 73.1-78.4"/><path fill="#c08a54" d="m2942.5 1581.6 76.4-.1c.4 14.4 0 30.2 0 44.8-19.4 6.5-34.7 16.5-44.4 35.3a65 65 0 0 0-4.3 50.4c8.2 25.3 25.7 35.4 47.7 46 2.3 3.9 1.3 37.2 1.3 44-22.2-.8-54.4-.5-76.5.2-2-19.3.3-69 .1-92.3-.3-39.8-2.4-89-.3-128.3M1.5 219c.7 6.5-.4 8.8 3.2 12.6l.7.2c14.5.6 69 .1 77.7 3.8 11 20.6 3 186.5 2.8 219.6-.1 13-71.5 8.2-82.7 6.1-1.4 29.5-.7 62.3-.7 92H1.2v-97l.2-46.7c17-6.2 20-8.2 34-20.7q6.6-7.5 10.7-16.7c18.7-42.2-8.2-70.3-45-86.1q-.2-33.6.4-67.2"/><path fill="#946b42" d="M1.5 219c.7 6.5-.4 8.8 3.2 12.6l.7.2c14.5.6 69 .1 77.7 3.8 11 20.6 3 186.5 2.8 219.6-.1 13-71.5 8.2-82.7 6.1-1.4 29.5-.7 62.3-.7 92H1.2v-97c3 2.6 1.8 2 5.5 3.4l1.3-4.1c7 4 60 1.4 72.6 1.2.4-19.7 2.8-208.6-1.2-213.6-6.5-.8-20.7-.1-26.7 2-12.2 4.2-22.2.8-36.4 2.5-2.6 5.5 1.3 15.3.6 19.8-.7 4.3-2 7.2-2.7 12.6 3.6 5.6 13 7.5 20.6 10.3C50.4 308.1 60.6 319 61 343.7l-1.4-5.9c.2 21.2-4.2 40.4-18.7 56.5l-5.5-5.4q6.6-7.5 10.7-16.7c18.7-42.2-8.2-70.3-45-86.1q-.2-33.6.4-67.2"/><path fill="#946b42" d="M1.4 409.6c17-6.2 20-8.2 34-20.7l5.5 5.4A80 80 0 0 1 8.5 414c-.2 13.4-.7 28.3-.5 41.6l-1.3 4c-3.7-1.3-2.5-.7-5.6-3.3zM3010.9 906.1q6 .6 11.9.8v54c-18 4.6-32 12.7-41.6 29.5a59 59 0 0 0-5.8 46.5c7 24.2 24.6 37.2 47.6 44.4-.1 17.4-.5 35.6-.2 52.8-7.3-.3-7.9-.4-14.7 1.5-19.7-.1-41.2 1.7-60.5-.7-9-1.1-11-17-11.1-24.4-.7-62 .8-124-.2-186q0-6.6 2.5-12.5c9.8-9.5 53.8-4.7 72-5.9"/><path fill="#c08a54" d="M2974.6 910.6h43.1q-.2 22.8.4 45.5l-2 .5a69 69 0 0 0-41.6 33.4 66 66 0 0 0-4.5 50.6c8.2 25.2 25.5 35.7 47.2 46.8.3 7.1.1 15.3.1 22.6l-1 21.3c-16.7-2.3-55.4-1-73.1-.4-3.4-23.5.2-61.6-.4-86.2-1-44.5-.6-89.2-1.1-133.7z"/><path fill="#84623f" d="M16.4 2582.3c15 0 55.2-1.8 66.6 3 3.2 3.7 4.7 12.7 4.8 17.5.9 64.7.5 129.5 1 194.2 0 3.2-1.1 6.7-2.4 9.6-11.5 9.3-52.8 5-70 5.4h-1.3L3.3 2811c-4.3-9.7-2.2-40-1.6-52.3l7.2-2.5c51.8-17.9 60.6-80.2 14.3-110.9-6.1-4-14.6-6.5-21.7-8.9-.8-18-1-35.3 1-53.2 6.2.6 7.7.2 14-.8"/><path fill="#c08a54" d="M7.5 2588.6q36.9.6 73.8.2.6 108-.2 216l-48.2.6-25.6.3c.4-14.1 0-29.2 0-43.4 21.7-6.4 38-18.2 47-39.8 7-17 6.6-36.1-.9-52.9-9.6-21.6-25-29.8-45.5-37.3-.7-14-.4-29.7-.4-43.7"/><path fill="#946b42" d="M3008.4 798.8c-14.1 1-50 1-64.5-2-1.7-.3-5.6-2-5.7-4.6-4.2-65.6-1.7-134-1.9-200a59 59 0 0 1 3.7-19.2c9.5-4.5 56.4-2.5 70.2-2.6 4.6.5 8 1.3 12.5.2v52c-19.4 6.4-34 15-44 34.3a60 60 0 0 0-3.6 45.5c7.6 23.1 25.2 36 47.8 42.1l-.2 54c-6.4-1.6-7.7-1.4-14.3.3"/><path fill="#c08a54" d="M2942.6 576c22-.7 52.6-.7 74.2.4.8 14.5.7 27.6.6 42l-5.1 2.1c-18 7.3-32 17.6-40.6 35.7a66 66 0 0 0-2.2 50.6c8.6 23.5 23.6 32.2 44.3 42l1.8.6c3.8 6.3 1.2 33.8.8 43l-73.2.1c-1.3-61.3.8-123.5-.7-184.9a669 669 0 0 1 .1-31.7"/><path fill="#946b42" d="M1.8 1555.9c.9 6.7.5 16.8 3 21.3 4 1.8 6.8 1.2 11.7-.1 17.1.3 51.8-2 65.9 3.3 7.7 8.2 5.5 66.4 5.6 79.6q.4 64.8-.4 129.6c-.1 5.4.1 8.5-3 13-11.3 6-20.2 4.8-33 4.5-16 0-31.9 0-48-.8-3.9-12.3-4.5-40.7.6-53 21.8-9.9 34.8-14.8 44.7-39.5a58 58 0 0 0-1-45.5c-9.8-21.7-25.3-29.8-45.8-38-2-17.2-1.3-56.6-.3-74.4"/><path fill="#84623f" d="M4.2 1753.4c3.8 3.5 2.7 5.8 2.8 12.6.4 12 0 24.6-.1 36.8 25.6 0 52.2.3 77.7-.2-11.3 6-20.2 4.8-33 4.5-16 0-31.9 0-48-.8-3.9-12.3-4.5-40.7.6-53"/><path fill="#c08a54" d="M58 1582.5c3.3.8 19.7 0 24-.2.7 33.9.8 187.3-7.5 211.2-4.3 2.8-48.1-1.8-57.6-2.2-3.8-3.5-2.8-10.8-3.4-17.6 1-24.6 10.5-13.5 27-29.7.7-9.8 10.2-17 15.3-30.3 6-15.7 5.4-33.2-1.8-48.4-9.8-20.8-25.5-30.9-46.2-38.5v-43.5c17-.3 33.3.1 50.3-.8M17.3 2246.9c14.8 0 54.3-1.4 65.8 3.3 3.4 4.2 4.8 16.4 4.9 22.3 1.5 63.8-1 127.6-.4 191.4 0 4.6-3.7 9-6.8 11.8-21.2 0-43.3-.2-64.5.5l-13-.4c-3.5-10.4-4-37-.9-48.3 1.4-4.8 3.8-5.3 7.6-7.3 33-6.6 51.4-50.8 38.9-80.4-9.5-22.3-26.3-30.4-46.8-39.6-2-16.7-2.1-32.3 1.9-48.6l1-3.1c4.8-1 7.4-1.2 12.3-1.6"/><path fill="#946b42" d="M17.3 2246.9c14.8 0 54.3-1.4 65.8 3.3 3.4 4.2 4.8 16.4 4.9 22.3 1.5 63.8-1 127.6-.4 191.4 0 4.6-3.7 9-6.8 11.8l-.2-4.6c3.8-9.7.1-190.9.9-217.9q-36.7.6-73.5 0c-.5 14-.2 30.3-.3 44.5 68.5 20 65.5 107 10 126.4l-7.7-3.9c33-6.6 51.4-50.8 38.9-80.4-9.5-22.3-26.3-30.4-46.8-39.6-2-16.7-2.1-32.3 1.9-48.6l1-3.1c4.8-1 7.4-1.2 12.3-1.6"/><path fill="#84623f" d="M3.3 2475.8c-3.5-10.4-4-37-.9-48.3 1.4-4.8 3.8-5.3 7.6-7.3l7.7 3.9c-4.5 1.6-8.5 1.8-9.4 6.2-2.6 12-.6 28-.6 40.6q36.5.5 72.9.2l.2 4.6c-21.2 0-43.3-.2-64.5.5z"/><path fill="#946b42" d="m3009.2 1243 13.6 1v51c-19.4 6.5-33.3 14-43.5 33.5a59 59 0 0 0-3.3 47.8c5.6 15.5 19 29.9 34 36.6q6.6 3 13.3 5.2a1136 1136 0 0 0-.4 52.2c-4.4 0-9.6-.4-14 .6-16.8-.6-51.3 1.6-65.2-3a10 10 0 0 1-4-5.5c-7.3-20.2-2.7-136.1-2.6-166 0-12.2-1.2-24.8-.3-37 .3-4.5.8-8 2.9-12.1 9-6.2 56.2-4.3 69.5-4.3"/><path fill="#c08a54" d="M2942 1248c25.2-.3 50.6.6 75.9.3 1 13.3.8 28.4 1 41.9l-1.5.5c-49.9 18-69.5 70.5-31.9 112.7 8.1 9 18.8 13.5 29.7 18.3 6.5 3.8 3.9 35.6 3.7 44a1941 1941 0 0 0-75.9-1c-2.2-68.6-.5-146.8-1-216.7"/><path fill="#84623f" d="M23.2 1912.8c15.8 0 50.5-3.5 61.1 6q2.8 7.6 3.1 15.7c.9 17.5 2.5 188.8-2.1 198.6a11 11 0 0 1-7.4 6c-19.3 6-43.1-.7-63.3 2.4l-11.3-.9c-2-8.7-5.3-42.9.4-51.1 3.2-4.6 24-10.8 29.2-15.9 18.5-17.8 27.2-43.6 16.7-68-10.3-23.4-26.5-31.5-47.7-40.7a172 172 0 0 1 1.4-49.5l.6-1c4.3-2 14-1.5 19.3-1.6"/><path fill="#c08a54" d="M78 1918.2c2-.2.8-.2 3.8 1 2 5.5 1 194 .9 216.5-24.7-.1-50.5-.6-75.1.4v-43.7c22.5-8.2 35.8-15 46.8-39a62 62 0 0 0 1.2-49.8c-9.4-23.1-26-33.3-47.5-42-.4-14.3-.4-29-.5-43.1q35.3.5 70.4-.3M1.7 1184.2l.7-.4c0 13.5-.6 47.8 1.8 59.2 3.8 1.5 8.8.5 13.3 0 16.4.4 52.6-1.7 65.4 3.3 6 6.4 5 43.5 5 53.7.5 50.9-.7 102 0 152.9 0 5.8-.7 11.9-5.6 15.3l-1.5-1.7c-21.5-1.4-51-.6-73.1-.5v-43.4c10.2-3.8 13.8-5 23-10.8l-5-3.2c31.6-28.5 39.8-65.8 6-98.7-8-7.9-19.3-11.8-29.6-16-2.4-28.5-1.2-80.1-.4-109.7"/><path fill="#946b42" d="m1.7 1184.2.7-.4c0 13.5-.6 47.8 1.8 59.2 3.8 1.5 8.8.5 13.3 0 16.4.4 52.6-1.7 65.4 3.3 6 6.4 5 43.5 5 53.7.5 50.9-.7 102 0 152.9 0 5.8-.7 11.9-5.6 15.3l-1.5-1.7c1.7-3.3 2.6-200 .5-214-3.7-1.8-54.5 2.6-61.3 3.9-6.2 5.8-1.2 14.8-5.2 23-1.5 3.2-1.6 4.5-2.2 7.9 2.5 4.1 12.7 7.1 17.5 11 36 28 41.7 86.4.7 113.5l-5.2-3.2c31.7-28.5 39.9-65.8 6-98.7-8-7.9-19.2-11.8-29.5-16-2.4-28.5-1.2-80.1-.4-109.7"/><path fill="#c08a54" d="m7.3 910.7 74.9-.1c0 25 1.6 213-1.8 219.6l-2.4 1.3c-23-.6-47.4-.2-70.5-.2.5-15-.2-29.4.7-44.7 34.2-6.8 56.7-44.5 49.3-78.1a70 70 0 0 0-32.3-44.6 157 157 0 0 0-17.5-8.6z"/><path fill="#214c69" d="M126.1 0H159c8.3 7.1 55.6 1.7 72.8 4.1a82 82 0 0 0 30.1 2c15.8 1.1 32 .7 47.9.6 27 0 52.9 0 79.8 1.4 12.6.6 42.1-2.7 53.6.4l-8.8.2c19.2 1.1 37.4 1.6 56.7 2.8q12 .6 24 1.8c-31.6 1.3-68 .4-99.8.3q-98.2-.7-196.5 0C153.8 14 94.6 3.2 45.6 54.3 1 100.6 18.6 154.8 14.5 212.8c-.4 5.2.2 6.9 3.7 10.3 19 6.2 70.9-7.5 78.2 11.2 8.5 21.7-1.6 75.4-2.3 99-1.1 35.4 0 67 2 102 .5 7.8-.8 20-.7 28.9l-10.6 7c-24 0-46.2-1.7-70.7-1.4-.3 20.5-1.6 82.3 1.9 100.2-4.4.6-7 1.3-11.1-.1-3.3-5.5-2.2-9.4-2.4-16.6 0-29.7-.7-62.5.7-92 11.2 2.1 82.6 7 82.7-6 .3-33.2 8.3-199.1-2.8-219.7-8.7-3.7-63.2-3.2-77.7-3.8l-.7-.2c-3.6-3.8-2.5-6-3.2-12.7C0 208 .3 124.1 3 114.3l.8-4.2a132 132 0 0 1 24.7-55.4C44.5 33.9 76 9.3 102.4 6c9.3-3.6 17.2-.8 23.7-6"/><path fill="#17324a" d="M3 114.3c11.2 15.7 11 57.2 8.8 76-1 9.5-3.8 20-3.9 29.8 0 4.7 2.9 5.6 4.5 10l-7 1.7-.7-.2c-3.6-3.8-2.5-6-3.2-12.7C0 208 .3 124.1 3 114.3M126.1 0H159c8.3 7.1 55.6 1.7 72.8 4.1-3.8 1.6-4.4 2.3-8.4 2.6l2.8 3-11.5-.5 6.1-1.1c-11.7-2-17.2 1.8-28.3.5-27-3.2-65 5.4-90-2.6 9.3-3.6 17.2-.8 23.7-6"/><path fill="#c08a54" d="M17.3 622.1c-6.2-11.4-4.8-22-4.2-34.8 6.4-8.8 18.5-6.8 28-5 9.3 1.8 25.4-4.6 32.8 2 1.6 51.1 7.4 101.9 5.4 153.2-.5 13.8 3.4 38.2-.7 50.6-10.4 7-56.5 4.3-70.9 4.2l-.3-43c65.2-19.2 69.4-102 12.3-125.7z"/><path fill="#946b42" d="M84.1 573.7c1.5 3 3 6.4 3 10.5.6 68.3 3 138.6-.3 206.7-.1 2.7-3.2 4.5-5.2 5-17.6 5-47 2.8-65.6 3.1-2.9 9.7-3.4 96.6-1 107.2l2 .2c15.3 1.4 61.1-2.3 66 4.6 7.4 10.4 5 104.6 5.1 117.8q.2 33.4-.2 66.9c-.1 10.1 3.4 37-9.7 38.6.7-1.2.3-.3-.2-2.8l2.4-1.3c3.4-6.6 1.7-194.5 1.8-219.6l-74.9.1.4 44.6a157 157 0 0 1 17.5 8.6c16.4 9.8 28 26 32.3 44.6 7.4 33.6-15 71.3-49.3 78l-2.4-6c23.7-3 44.6-30.4 45.6-53.7 1.5-38.7-18-53.7-49.7-68-.9-10.5-.9-22.4-.6-33 1.6-59.5-2.4-121.1.6-180.3 18.1-5.7 32-12 42.3-29.5a61 61 0 0 0 6.7-46.2 72 72 0 0 0-32.7-41l1.7-5.2C76.8 647.3 72.6 730 7.4 749.2l.3 43c14.4.2 60.5 2.9 70.9-4 4.1-12.5.2-37 .7-50.7 2-51.3-3.8-102-5.4-153.2-7.4-6.6-23.5-.2-32.7-2-9.6-1.8-21.7-3.8-28.1 5-.6 12.7-2 23.4 4.2 34.8-3.8-1-4.4-1.1-8-2.8-4.6-8.5-2.6-33-2.6-44.5 12.6 0 67.8 1.4 77.4-1.1"/><path fill="#22425a" d="M15 906.2c-3.8.3-6 .2-9.8.1-3.2-8.6-3.6-102 .4-108.3l10.4 1c-2.9 9.7-3.4 96.6-1 107.2"/><path fill="#214c69" d="M3008 1135.6c7-2 7.5-1.8 14.8-1.5V1244l-13.6-1c3.5-18.7 1.9-87.8-1.1-107.4"/><path fill="#1d425c" d="M3023 1470.3v106.6l-13.3-.3c2.3-15 1.5-90-.7-105.7 4.3-1 9.5-.6 14-.6"/><path fill="#22425a" d="M3008.4 798.8c6.6-1.7 8-1.9 14.3-.3q.4 54.3.1 108.4-6-.2-12-.8c2-12.4.7-95.5-2.4-107.3"/><path fill="#214c69" d="M3.6 1134c6.2 0 7.4 0 13.5 1-4.5 16.2-5 92.8.4 108-4.5.5-9.5 1.5-13.3 0-2.4-11.4-1.7-45.7-1.8-59.2q0-24.9 1.2-49.8M3.7 1806.3q24 1 48 .8c-5.2 2.4-28 1.7-35.6 1.9-2 15.7-4.6 89.9 1.3 101.7 4 .8 3.9 0 5.8 2-5.3.2-15-.3-19.3 1.8l-.6 1c-1.3-4.3 0-98 .4-109.2"/><path fill="#22425a" d="M1.9 1496.6c.8-7.4 0-19.6 2.6-24.4 5-3.3 3.6-2.2 11-1.7-2.1 13.5-2.4 94.6 1 106.6-4.9 1.3-7.7 2-11.7.1-2.5-4.5-2.1-14.6-3-21.3.1-23.2 3-34.6 0-59.4"/><path fill="#1d425c" d="m3.3 2475.8 13 .4-1.3 4.4c-1.2 21-1.4 78.6.1 99.9l1.3 1.8c-6.2 1-7.7 1.4-13.8.8-.3-4.8.7-21.5.7-28q.7-39.6 0-79.3"/><path fill="#22425a" d="m3.3 2475.8 13 .4-1.3 4.4c-3.4 2.4-7 3.8-6.9 8 .2 12.6-2 82.5.1 89.3 3.1 2.4 3 2.2 7 2.6l1.2 1.8c-6.2 1-7.7 1.4-13.8.8-.3-4.8.7-21.5.7-28q.7-39.6 0-79.3M3.3 2140.6l11.3.9c-.7 15.6-2 94.2 2.7 105.4-4.9.4-7.5.7-12.3 1.6l-1 3.1c-3.3-11-.4-92.8-.7-111"/><path fill="#6c7478" d="M283 66c92.7-2.2 185.1-.3 277.9-.2l436.4-.3 1233.7.6 356-.4c57.9-.1 133.6-5.8 189.6 4.8 59.8 11.3 104.8 75.2 104.5 135.6-.4 97.7 0 196.8.2 295.2l-1 689.3.3 512.1.3 108.6c.7 95.3 17.2 205.6-102.7 239a198 198 0 0 1-45.7 4.8c-47.1.5-94.3-.2-141.5-.2h-499.8q-61.5.3-123.2 0c-35.7 0-84.7-4.6-116.2 13.3-18.3 9.7-49.2 37.4-53.9 57.6-11 47.8-7.5 110.5-7.5 159.8v396.7l-.3 110c-.3 51.1 4 88.4-30.7 130.4-47.6 57.7-111.7 49.9-178.5 49.8H954.2l-445-.1q-78.7.7-157.6.1c-61.1 0-114.6 7.6-164.4-36-51.4-44.8-47.2-85.6-47-147.8v-103.2l.1-325.5v-808.4l.4-843.8-.1-205.8c-.3-100.4-2-201.8-.2-302 1-51.9 31.6-99 78.5-120.3 23-10.4 38.5-12.2 64-13.8"/><path fill="#a5a5a4" d="m313.4 73.2 1548.2.2h608.8l167-.2C2722.5 72.8 2824 57 2863 156c15.2 38.5 10.3 94.2 10 136.3q-.5 67.5-.2 134.9l.1 546.1.1 627V1778c.2 47.7.5 95.5-.1 143.2-.5 16.6-2.9 33-9.4 48.2A131 131 0 0 1 2751 2047c-21.3 1-41.9.8-63 .8h-91.2l-480.8-.2-141.4.1c-44.2-.1-79.8-5.3-121.4 11.8-89 46.3-70.2 129.7-70 216.6l.2 381.8-.2 121.3c-.2 29.7 1.1 62.6-4.5 91.5-3.5 18.2-16.9 37.7-29 51.3a131 131 0 0 1-96.4 42.7c-34.2.6-69.9.3-104.5.3l-184.8-.1H439.2l-107 .2c-21 0-44.1.7-64.8-1.2-31.6-3-56.4-14.4-79.5-36.2-23.2-22-39.7-52.5-39.9-85.1q-.1-72.9 0-145.9v-352.5l.1-1115.7V519.6l-.3-220.3c0-33.8-.7-70.7.7-104a131 131 0 0 1 35.2-81c41.5-40.5 76.8-40.5 129.7-41.1"/><path fill="#6c7478" d="m344 111.7 1627.4.2 490.2-.2 147 .6c44 0 109.3-5.7 147.5 14 33.1 17.1 58 47 69 82.7 10.3 32.5 7.6 107.5 7.7 144.8l-.4 165.6-.1 544.7v528.3l.2 185.3c0 32.8-.5 67.3-.4 99.1 1 65.3-57.3 126.4-122.2 129.7-46.5 2.3-96.2 1-143.3 1l-434.1.2-168.1-.1c-42.4 0-89-3.9-129.3 8.7a142 142 0 0 0-87 92.9c-9.7 34.8-5.3 105.8-5.2 144.9l-.3 387.3v98.1c.1 25.3 2.2 55.2-3 79.6-13.7 65.2-75.6 107.4-140 107.7-89 .3-177 0-265.7.2H736l-274-.1-95.5.1c-55-.3-93.2.4-135.5-40.3-49.7-47.9-42-100-42.1-162.2l.4-168.8-.3-479.6-.9-1751.7c-.6-63.4-6.5-124 42.5-173 35.1-35.1 67-39.4 113.5-39.7"/><path fill="#cecece" d="m443.5 117.6 1470 .4h520.3l170.5-.3c49.2-.1 111.3-7.4 154 18a140 140 0 0 1 64 87c6.3 25.5 4.3 69.4 4.2 97v629.1l.2 632.3.2 194.7c0 31 1.3 74.5-.5 104.7a125 125 0 0 1-19 59.7 132 132 0 0 1-80.6 57.8c-22.7 5.6-54.7 4-78.7 4l-89.6-.2h-611.8c-81.3 0-141.7-5.5-191 73-9 15-14.7 31.7-16.8 49-2.6 21.6-2 53-2 75.2l.2 112.3v360.3c0 15.7.4 31.9 0 47.5-1.4 31.6 3.3 66.7-3.5 97.7-14.2 65.5-73.7 104.3-138.2 104.2l-282.4-.2H448.8c-31.2 0-108.1 2.1-136-1.5-30-4-58-17.7-79.6-39-28.6-28.2-38.3-60.5-38.5-99.6l-.4-1728.3-.2-551.2.2-176.4c.1-21-1-64.7 1-84.1 3.2-32 17.3-61.9 40-84.7 40.2-40.2 78.1-38 129.7-38.2z"/><path fill="#010101" d="M628.8 1300.9c18.8.4 39 .2 57.9.3v54.6h57.6V1301c19.3.3 39.1 0 58.5-.1q-.7 82.3 0 164.5l173.8.2-.2 53.8 56.9-.1.2-162.8h-58.2v-55.3l57.9-.5-.3 55.8c19-.5 39-.2 58-.3l-.2-55.1 59-.2q-.8 137.6-.2 275c-19-.1-38.5.1-57.6.2l-.1 55.2c-37-.9-79.9-1-116.8-.1 1-35.6.2-74.3.1-110q-57.2.2-114.5-.3l-.4 110-58.4.3.5-165-57-.2.2 219.8-57.3-.3-.3 55.8 76.6-.2h96.6c-.2 18 .1 36.7.2 54.7h-57.8v56.2H861l-.2 108.6h57.8l.4 56.1 57-.1.1 54.5h57q.6-27.2.3-54.2l114.6-.3v-111.2l58.4.2c-.4-17.5-.2-36-.2-53.6l-57.6-.7V1796H1091q.5-27 0-54.3l-57.5-.2v54.7l-57.8-.3c.8 35.8.1 74.2.1 110.2l-57.7-.2c-1-73 .1-147.3-.4-220.6l173.6.2q-.4 27.8 0 55.4l56.6.3-.3-55.4c18.9-.4 38.9-.1 57.8-.2-.4-17.8 0-37 0-55h59.7q-.2 27.4 0 54.8c18.7-.2 37.8 0 56.4 0v-109.8l-57.5-.1c.7-16.8.2-37.4.1-54.5l-57.2.2-.2-55.7h57.8c-.7-16.6-.2-37-.2-54l57.2-.1-.1-110.5c18.8.5 39.6 0 58.6 0l-.2 55.7 58.8-.7-.1 55.5q-58-.2-116 .1l-.1 53.7 115.7.2.2 55.8q-57.7.3-115.5-.3l.1 54.3c37.8-.7 77.4-.1 115.4-.1v56.1c-17.5-1-40-.5-57.8-.6l.1 55h57.9l-.1 56.6c-19.6-.9-40.2-.3-59.8 0q.3-27.7.3-55.5l-56.2-.4v55.3H1264q.6-27.3.3-54.5l-57.2-.1v164h57.3v-55l58.3.1.2 56c16-1.1 39.3-.7 56-.8V1796h58.6l.3 55.8-57.7-.3v54h58.9l-.3 56.3-58.5-.2.4 55h58.3l.2 55.6c-16.4-.1-43.8-1.3-59.2.2 1 14.8.3 39.3.2 54.8l58.1-.3v55.5l-926-.2v-881.1c19.4.2 39.4 0 59-.1v329.6h115.4v-55H629v-55.3q29-.2 57.7.3l.1-55.2h-57.9z"/><path fill="#cecece" d="M1149.5 2017.8h57.5l-.3 54.9q57.8-.6 115.5 0-.3 27.2-.1 54.4l-172.9.2v-55zM1322.4 2018l57.2.2c0 15.6-.6 39 .3 54.2-18.5.7-39 .3-57.7.3zM571 2017.6c19.3-.3 39.1 0 58.4-.1l-.3 54.3H688v-53.7l115.3-.2v53.4l58 .4-.2-53.8c12.8 0 46.1-.9 57.3.7.8 35.5 0 72.9.2 108.5l-347.5.1c.5-36.2 0-73.3 0-109.6M596.6 1851.6l89.5.3c-.4 17.2 0 36.3 0 53.6h-57.4l.1 17.5v37.7l-57.6-.1v-108.8zM571 1685.8c18.8-.4 39.1.2 58 .4l-.3 54.8-57.7.1q-.4-27.7 0-55.3M687.9 1796h56.8l-.2 56-56.7.1zM630 1961.7c18.8.4 38.4.3 57.3.4q.5 27.4 0 55l-57.6-.1q0-27.6.3-55.3M1264.8 1961.9h56.6l-.2 54.9h-56.5zM803.6 1962l56.1-.3.1 55h-56.2zM652 1742l34.1-.2v54h-56.6v-53.5zM1322.7 1906.5h56c-.5 17.7-.2 36.3-.3 54.2h-55.8zM1033.7 1521c17.3.8 38.8.1 56.5 0v53.5l-56.7.2z"/><path fill="#17324a" d="M2275.3 289.5c9.3-3.3 43-17 50.4-13.4 2.7 17 1.4 36.6 1.7 53.9.8 70-1.5 141 .2 211h-52l.4-22c-11.6 9.3-28.8 21.2-44.2 22.2-17 4.7-39 3.1-55.6-2.6a98 98 0 0 1-58.8-47.4 120 120 0 0 1-9-88 105 105 0 0 1 167.4-52.2c0-19.3.4-42.4-.5-61.5"/><path fill="#17324a" d="M2176.2 538.6c12.6-4.6 21.6-.2 34 1.2 9 1 12-1.6 21.6 1.4-17 4.7-39 3.1-55.6-2.6"/><path fill="#cecece" d="M2201.5 377.2a59.7 59.7 0 1 1 25.9 116.6 59.7 59.7 0 0 1-25.9-116.6"/><path fill="#17324a" d="M1464.6 273.7c1.4.6 4.8 2.6 4.8 3.7.3 54.5-.2 218.2.2 263.5-16 .4-33.7 0-50 .1l.1-22c-42 37.3-98 30.5-139.4-3.6a112 112 0 0 1-9.6-148.2 107 107 0 0 1 71.3-38.7 100 100 0 0 1 77.2 23.3l-.3-62.2c15-5.5 30.4-11.7 45.7-15.9"/><path fill="#cecece" d="M1304 455.7c-.8-1.7-.7-1.3-1.2-3a59 59 0 0 1 5-47.2c15.2-26.3 50-39.9 77-23.2a59 59 0 0 1 26 82.2 37 37 0 0 1-8 10.7c-3.6 4.6-7 8.4-12.5 11a45 45 0 0 1-13.8 7.3 56 56 0 0 1-42.4-2.9 56 56 0 0 1-30-34.9"/><path fill="#cbd3dc" d="M1384.8 382.3a59 59 0 0 1 26 82.2 37 37 0 0 1-8 10.7l-.6-3.3c7.7-11 8.8-33 7.9-46l-.2-1.9c3 4.8 1.3 10.2 5 15.2 1-25.9-10.6-39-30.3-54zM1304 455.7h3c5.4 13 27.8 39.8 44.5 34.3l-1.5-.1c3.8-.6 17.7-2.6 20.4-1.9 7.6 2 15.2-2 20-1.8a45 45 0 0 1-13.9 7.3 56 56 0 0 1-42.4-2.9 56 56 0 0 1-30-34.9"/><path fill="#17324a" d="M2531.2 327a110.6 110.6 0 1 1 36.7 218 110.6 110.6 0 0 1-36.7-218"/><path fill="#cecece" d="M2543.2 375.2a61 61 0 1 1 14.2 121.2 61 61 0 0 1-14.2-121.2"/><path fill="#010101" d="M816.7 2285c10.6-.7 23.7-.3 34.5-.3v55.1c-73.4 1-126 22.9-147.7 98.4l110.7.3-.2 55.4c-36.6.8-74.7.3-111.4.3a123 123 0 0 0 24.1 50c24.8 31.1 56.9 45 95.5 49.2l29 .2c-.3 18 0 36.5 0 54.6-27 .9-50.9 1.5-77.1-6.6-71.4-21.9-125.4-80-133.2-155.2-5-47.3 9.2-94.6 39.4-131.3 35.2-42.8 82-64.9 136.4-70.2"/><path fill="#17324a" d="M1118 327.8c-3.8-2.4-9.7-1.7-14.2-1.6 17-7.3 59.3 7.4 61.8 6.2l.9-3 3.1.2c6.6 7.6 5.1-1.4 11.4 8.6-.5 2.5.1 1.4-2 3.2a80 80 0 0 1 38.6 43.5l-1.5 2.6c10 27.6 10.9 38.6 11.6 68-53 0-109-1-161.6-.1 16.8 53.4 70.6 56.4 109.6 23.2a812 812 0 0 0 33 30.1c-7.9 7.6-15 14.3-24.4 19.6-48.5 27.6-121.8 19.7-154.2-29.3a65 65 0 0 1-8.7-16.4c-12.8-24.8-12.9-52.3-6.4-78.9 8.2-49.2 57.5-73.7 103-76"/><path fill="#cbd3dc" d="M1118 327.8c-3.8-2.4-9.7-1.7-14.2-1.6 17-7.3 59.3 7.4 61.8 6.2l.9-3 3.1.2c6.6 7.6 5.1-1.4 11.4 8.6-.5 2.5.1 1.4-2 3.2a80 80 0 0 1 38.6 43.5l-1.5 2.6c-22.4-41.6-51.6-56.8-98-59.7"/><path fill="#22425a" d="M1015 403.7c.6 14.8 2.7 22.1 4.6 36.3.8 5.8-4.6 7.5-4.1 14.3.6 9 7.5 20.3 5.9 28.3-12.8-24.8-12.9-52.3-6.4-78.9"/><path fill="#cecece" d="M1111.6 371.6c34.4-2.1 52 10.6 61.8 43.2l-46.4-.1h-61.8c7.8-26.2 20.5-37 46.4-43.1"/><path fill="#17324a" d="M866 328.8c52-5.9 100.1 18.5 115.8 70.6a194 194 0 0 1 7.8 56H828.3a58.6 58.6 0 0 0 37.5 41 71 71 0 0 0 52-2.8c7.6-3.5 14-10.3 22.3-13.3q15.6 14.4 31.6 28.4c-17.8 17-31.8 27.2-56.6 32-45 9.6-107.2-4-128.9-49.8-34.5-73-.4-148.4 79.8-162"/><path fill="#cecece" d="M872.8 371.7c33.5-1.8 54 9.5 62.4 43.1l-39.7-.3-69 .2c8.8-26 19.6-37 46.3-43"/><path fill="#17324a" d="M627.8 328.7q7.6-.7 15.3-.7c78.3-.6 108.3 57.5 109 127.6-52.3-1.1-108-.2-160.5-.1 13.4 45 54.7 54.6 94.6 34 4.7-2.5 11.4-9.1 16.1-9.3l30.7 28.3c-17.7 17.1-30.8 26.5-56.1 32.2-105.6 23.4-177.9-77-122-169 15.2-25 44-37.6 72.9-43"/><path fill="#cecece" d="M597 399.5c10.7-28.4 59.6-37.4 82.2-16.5 12.2 8 15.4 18.3 18.8 31.8H591c1.7-5.7 2.6-10.4 6-15.3"/><path fill="#cbd3dc" d="M679.2 383c12.2 8 15.4 18.3 18.8 31.8H591c1.7-5.7 2.6-10.4 6-15.3l.6 4.1c-1.9 3.7-1.6 2.2-1.4 6.3 22.5 8.2 75.3-13.1 95 2.3l2.1-2.8c-.8-7.5-9.5-17-14.5-22.9z"/><path fill="#010101" d="M501.6 2286.4c11.7-1.6 28.6-1 40.7-.9l-.3 55.1c-41.9-.5-79.3 6.9-110.7 36.8-24 22.6-37.6 54-38 87-.5 33.6 12.5 66 36 90 33.5 33.7 68 40 112.9 40-.3 15.5 2.3 38.2-1 51.7-3.7 4.2-2.3 2.9-9.7 3.4-95.7 1.4-181.6-57.7-195.8-156.3-15.4-106.7 61-193.2 166-206.8"/><path fill="#17324a" d="m2078.4 332.3.4 82.3c.1 19.8 1 39.4-2.1 59.1-11.2 68.7-99 89.4-151.7 52.7-53.3-37.1-28.2-125-35.2-180.1-1.6-12.5 13-15.3 22.5-14.8 8.7.4 18.6.3 27.8.6 2.5 37.5-2.7 85.5.8 122.3l.2-1.6c1.7-17.3-.9-70.6 1.6-80.8l1.9-.1c4.9 10.6-4.7 22.3 4 27.4 2.9 13.2-5.7 24.2-4.5 41.5.9 14.9 4.6 53 26.5 50.5l1-3c19.2-7.8 20.2 15 46.3-10.6 4.2-14.6 3.9-22.7 7-35.8l1 .8 1.1 11.7c1.5-10.3.8-31.6.8-43l-.3-79.3q25.4-.2 50.9.2"/><path fill="#cbd3dc" d="m1941 454.4.1-1.6c1.7-17.3-.9-70.6 1.6-80.8l1.9-.1c4.9 10.6-4.7 22.3 4 27.4 2.9 13.2-5.7 24.2-4.5 41.5.9 14.9 4.6 53 26.5 50.5l1-3c19.2-7.8 20.2 15 46.3-10.6 4.2-14.6 3.9-22.7 7-35.8l1 .8 1.1 11.7c-1.9 58.4-85.4 57-86 0"/><path fill="#17324a" d="m1593.4 477.8 2.4 2c24.4 18.4 49.1 26.1 79.8 22.4 24-2 33.8-30.4 7.1-39-32.7-10.7-94.3-8.5-106.4-50.1-11.3-38.9 13.8-72.7 52-81.2 42-9.3 79-3.2 115.7 19l-23.5 35.7a119 119 0 0 0-30.6-13.7c-15.7 6.4-14.9 6-32.6 2-12.5-2.8-19.6 2.5-25.9 13.3-1 16.8 13.1 11.3 19.7 21.6 34.7 13.3 99 .7 100.9 63.6 2.7 88-138 85.4-183.6 39.9q13-17.4 25-35.5"/><path fill="#cbd3dc" d="M1651.1 409.8c-7-1-18.1-5.1-22-11.4-5.4-8.8 2.8-19.2 10.4-23.6 15.5-8.9 34-6.4 50.4-1.9-15.7 6.4-14.9 6-32.6 2-12.5-2.8-19.6 2.5-25.9 13.3-1 16.8 13.1 11.3 19.7 21.6"/><path fill="#17324a" d="M355.4 478.7c26.4 19.4 94.1 44 105.5 4.7 10.2-34.8-98-19.9-115-57.3-36.9-80.5 49-109.7 113.5-94.8 18.8 4.4 30.9 9 47.3 19.4-2.4 3.5-6 9.4-9 12l-.5 1.3c-5 8.9-8.8 14-14.9 22.2-24.4-14.2-32.6-15.6-60.3-18.4-7 1.3-20.1 3.5-24.9 8.5-25.7 27.6 26 34.4 43 37.4 36.9 6.4 69.8 14.5 74.2 57.8 4.8 47-38.7 69.2-78.8 72.2-39.5 3-74.9-4.6-105.6-30 8.6-11.4 17-23.5 25.5-35"/><path fill="#22425a" d="M422 367.8c4-3.5 13.2-1.3 20.5-2.5l1.2-3.2 2.7.4-.2 5c6.2 3 14 5.8 21 5.8l-.1-2.9c2.4-5.1 7.5 3.7 18.1-2l.8 1.5-4.4 6.3 1.4 1.5c5.3.1 5-10.8 14.2-13.7-5 8.9-8.8 14-14.9 22.2-24.4-14.2-32.6-15.6-60.3-18.4"/><path fill="#22425a" d="M459.4 331.3c18.8 4.4 30.9 9 47.3 19.4-2.4 3.5-6 9.4-9 12l-.4-2.9c1.8-2.9 1.4-1.5 1.7-4l-4.3 1.5c23 31.7-25-34.3-1.7-3.4-5.5-7.1-27.2-17.4-33.6-22.6"/><path fill="#17324a" d="M326.5 662.6h30.6c11.7 56.5 31.7 115.1 42.3 172.9 15.7-56.4 34.8-116.8 49-172.9l34 .1c13.8 44.6 40.6 129.7 46.8 173.7 13.9-58 29.6-115.6 44-173.6l29.7-.1c-17.8 66.2-38 132-56.2 198.4-.2 2-1.2 4.5-1.7 6.5-9.1 6.5-18.6 4.3-28 .6-4.1-4.8-3-4.7-4.4-12-2.8-5.3-8-25.8-10.2-32.8-8.8-28-16-63-26.6-90-10.2-4.8-2.4-11.6-9.5-19.7l-7 1.6c-14.7 50.8-30.8 104-43.5 155l-31 .1c-16.3-63-38.9-145.9-58.3-207.8"/><path fill="#22425a" d="m512.6 856.2 4.8 5.4c4.4-2.7 7.8-3.8 12.7-1.3-1.5 3.2-1.8 3.3-4.1 6 4.3 1.3 2 1 6.9-.2a48 48 0 0 0 4-8l2.9-1.1c3 1.8 2.2 1.2 4.7 3.6l2.2.5c-.2 2-1.2 4.5-1.7 6.5-9.1 6.5-18.6 4.3-28 .6-4.1-4.8-3-4.7-4.4-12"/><path fill="#cbd3dc" d="M464.7 693.7c4.3 13.8 7.5 25.8 11 39.7-10.1-4.8-2.3-11.6-9.4-19.7l-7 1.6z"/><path fill="#17324a" d="M1738 739c16.5.4 23.3-9 48.6 2.4a62 62 0 0 1 33.4 36.9c21.9 63.3-39.4 117.5-98 86.9-60-31.4-53.2-186.2 19.6-201.5 42.3-8.8 70.3 8.7 79.9 50.7q-14 .6-27.9 1.3c-15.4-53-70-35.8-80.6 15.8q1.5 3.7 2.3 7.6c8 4.3 14.8-.4 22.7-.2"/><path fill="#cbd3dc" d="M1709.5 761.7c.6-11 .7-19.5 3.5-30.2q1.5 3.7 2.3 7.6c8 4.3 14.8-.4 22.7-.2a85 85 0 0 0-28.5 22.8"/><path fill="#cecece" d="M1748 759.2c58.9-4.5 66.8 77.8 14 93-54.6 2.7-67.7-78.3-14-93"/><path fill="#010101" d="M1783.5 1012.4c49.4-3 67.7 25 69 70.7 1.2 44.4 4.8 99-47.5 112.4-37.7 2.9-64-11.2-69.3-51-6.2-45.1-10.7-121.5 47.8-132"/><path fill="#cecece" d="M1787.6 1030c44.6 0 44.2 42.5 44.4 76.4.2 27.9-1 63-32.6 71.4-49.8 1.8-46-50.4-45.2-86 .5-25.4 5.3-55 33.4-61.8"/><path fill="#17324a" d="M743.3 718c38-3 73.3 12.5 81.8 52 10.5 48.7-4.4 92.1-57.5 102.7-77.7 10-106.4-69.3-71.2-128.2 9.2-15.4 29.5-23.8 46.9-26.5"/><path fill="#cecece" d="M753.4 738.7c25.9 2.2 41.7 16.4 45.4 42.3 4.9 35-4 65.5-42.4 70.8-60.8-4-64.4-103.5-3-113.1"/><path fill="#010101" d="M842.6 1015c23.8.3 69.9-4 88.3 9.9 36.5 27.5 30.1 117.9 6.5 151-22 23-65 16.8-95.2 16.5z"/><path fill="#cecece" d="M863 1033.3c62.1-.8 71.2 5.4 71.7 73.2.1 18.3-2.2 38.5-11.5 54.6-16.3 17-38.1 13.1-60 12.8z"/><path fill="#17324a" d="m982.4 802 .2 1.3.5 2.1a45 45 0 0 0 21.2 33.4c26.2 21.4 111.7 8.3 88.7-38.1-14.7-29.7-109.6-21-125.8-60.8a53 53 0 0 1 3.3-51c28.4-44 122.7-39.3 143 10.8 2.8 7.1 4.4 14.9 5.9 22.3l-29.4 2c-2.2-12.7-5.4-23-16.4-30.9-18.3-14.4-66.6-12.4-79.4 8.9-24.7 41.4 54 44.7 77.1 52.7 14.9 5.1 20 7 32.7 15 14.4-2 24 29.9 25.2 42 2 20.1-7.8 28.7-19.6 43-1.9-.4-2.2-.2-3.8-1.2-22.5 17.8-49.2 22.6-77 19.6-43.8-4.7-68.8-25.5-74-69.9z"/><path fill="#cbd3dc" d="M1104 769.7c14.4-2 24 29.9 25.2 42 2 20.1-7.8 28.7-19.6 43-1.9-.4-2.2-.2-3.8-1.2 25-28.6 25.1-56.6-1.8-83.8"/><path fill="#17324a" d="M1778 289.5q19.5-.2 39 .4c6.6-.1 5.3-1.1 9.2 2.1 4 12.6 1.2 31.5 1.3 45.4l31.1-.2q-.5 23.2-.3 46.3h-29.4c.1 22 0 44.4-.3 66.4-.3 26.2 5.3 43.6 33.1 48l.8 46.5c-20.4-2-48-4.7-63.8-21.5-33.3-35.4-15.9-103.2-20.5-147.7-.6-6.2-.2-19.4.3-25-.6-19.7-.2-40.8-.4-60.7"/><path fill="#22425a" d="M1778 289.5q19.5-.2 39 .4c-11.9 1.7-19 4.4-30.5 8.2 1.8 21.2-6.6 24.6-6.5 45.3 0 2.8-.5 4.2-1.5 6.7-.6-19.6-.2-40.7-.4-60.6"/><path fill="#17324a" d="M1298.4 663.2c10.6-1.2 23.2-.8 34-.8-3.8 5-11 15-15 19.4-7.6 13-49.6 64.5-60.4 78.2 6.3 10.4 20 27.5 27.8 38a7183 7183 0 0 1 53 72l-37.4.3c-19.1-24.3-43.3-61-61.9-87.2-19.9 29.3-41.4 57.4-61.4 87l-36.2-.2c8.5-9.8 21.6-28.9 30-40l51.1-67.6-74.7-99.8h35.9l57 77.8c16-23.3 40.7-53.7 58.2-77"/><path fill="#22425a" d="M1298.4 663.2c10.6-1.2 23.2-.8 34-.8-3.8 5-11 15-15 19.4 1.1-7 2.5-7.6.3-13.3-3.6-2.7-12.6-2.5-19.3-5.3"/><path fill="#010101" d="M1545.3 1015h25.7c8.2 48.4 24.2 106.8 29.5 154.3 8.7-49.3 22.4-103.6 32.1-154.3h22.4l-5 22.2c-12.5 50.2-24 104.5-35.6 155.3l-26.8-.2c-8.4-49.4-23-100.1-29.6-150.1q-16.5 75-32 150.2h-25.3c-12-58.5-26.2-118.6-38.8-177.4l22.5.1c6.4 48.2 22.4 102.2 29 153.1 9.1-50.2 21.2-103 31.8-153.2M2503.8 1014c34.5-2.6 46.1 11.3 53.4 42.5-7.6.3-11.4.4-19.1-.5-5.4-3.7-5-14.5-8.2-17-45-35.2-49.3 38.7-50.5 59.3l1.2-1.2c7.8-8.5 13.2-13.2 25-16a42 42 0 0 1 32.7 5.6c13.7 9 17.3 20.2 20.8 34.9 1.3 28.2-.4 60.9-33.2 71.7-35 11.5-59.4-11.6-65-45.2-3-18.5-3.6-39.1-2-58.2 2.5-32.2 8.4-67.1 45-76"/><path fill="#cecece" d="M2500.1 1098.1c50.8-7.3 48 65.4 18.6 80.3-34 4.9-42.1-30.6-36.6-57.7 2.4-11.7 8-16.9 18-22.6"/><path fill="#17324a" d="M1914.3 661.8c19-1 38.3 1.5 53.8 13.9a59 59 0 0 1 21.3 39.7c4.6 52.7-70.5 90-104.1 129.2h104.4l.3 25.9h-109.2l-33.1-.1c9.4-56.8 60.4-74.2 95.7-113.4 13-11 27.2-46 10.3-60-31.8-26.2-70.5-12.2-72.7 29.3-8.7-1.3-19.3-2.1-28.2-3 7.6-40.2 20-55.2 61.5-61.5M1580.7 662c35.7-1.3 73.9 13.7 75 54.8 1.8 55.6-71.2 87.4-103.4 126.1l-1.5 1.8 105.2-.2.2 25.8c-37.2-.3-75 0-112.4.1h-30c7.4-68.2 95.2-84.1 113.5-144.8 10.2-33.8-41.6-54.3-65.7-33.1-12.5 11-13.4 17.5-15.5 33.3q-13.7-.9-27.4-2.2c5.5-40 22.6-56.2 62-61.7M2360.5 345.8c17 0 34-.2 51 .6 2.3 58.6.3 134.6 0 194.3l-50.7.2z"/><path fill="#010101" d="m1224.2 1015 20.6-.1-.3 115.7c10.7 0 14.5-2.6 20.5 7.4-.8 12-11.4 10.4-20.2 10.2v44.2h-20.3l.3-31.4c.2-5 .8-7.3-1.3-11.8-8.4-2.4-55.3-1-66.7-1l.3-20.2q34-56.2 67.1-113"/><path fill="#cecece" d="M1223.5 1046c2.6 3 1.5 74 1.5 84.6l-47 .1-.7-1c.9-6 39.9-72.6 46.2-83.8"/><path fill="#010101" d="M1998.8 1012.5c40.2-2.6 59 9.5 61.4 50.7h-20.6c-.5-8.5-.8-19.9-8-26-12-10.6-35-10.2-45.6 2.3-4.4 5.4-8.2 17.8-6.4 24.8 7.5 28.6 51.3 26 70.8 43.9 9.3 8.5 14.4 16.7 15.2 29a63 63 0 0 1-11.8 42.1c-12 13.8-28.4 15.6-45.2 17.2-42.5-3.2-52.5-20.9-52.7-60.7h21.1c0 5.9 0 13.3 1.2 19 6 28.3 49 33.4 62.8 9 3.8-6.7 5.8-21 2.7-28.5-10.3-21.8-39.9-23.2-60.8-34-29-14.7-30.2-40.7-16.9-68.2 5.8-12 20-17.2 32.8-20.6M2178.4 1015h25.2c-17 28.3-34 58.4-50.6 87.1 10.8 17.6 21.2 36.6 31.6 54.5 4.6 7.8 16.6 27.5 19.4 34.3l-2.5 1.5h-21.1a4097 4097 0 0 1-39.7-74.3c-12.1 24.6-26.3 49.7-39.1 74.3l-24-.4c17.3-29.1 34.5-61.3 51.7-91-16.6-26.4-33.7-58.3-49.1-85.9h24.7c9.6 21.7 25.5 49.3 36.4 71.8 10.8-23.4 25.4-48.4 37-72M493 1012.4c44-2.7 59 15.3 63.6 57.1h-21.8c-1.1-18.2-5.3-36.3-27-39.2-45.6-6-42.6 65.7-41.5 94.2 1 24.3 11.1 58.9 42.1 53.6 10.1-1.7 14.8-6 20.5-14 5.7-13 6.2-22.1 7.2-36l20.8-.2c-2.4 26.2-6.6 58-35.6 65.4-70.8 17.9-80.4-50.7-76.7-102.6 2.6-36.5 7.8-67.7 48.4-78.3M626.3 1012.4c44.7-2.9 58.7 15.3 64.3 57.1h-21.2c-1.2-10.7-3.3-23.8-11.5-31.3-11.4-10.6-33.3-10.3-43.3 2.2-10.4 13-13.2 32.7-13.7 48.9-1 29.1-4.1 92.4 40.1 89 10.4-.8 16.3-6.8 22.2-14.6a93 93 0 0 0 7-35.5h21.2c-2.2 24.8-6 53.8-33 63.8-28.8 11.8-64.4-.8-73-32.9-9.3-34.2-10.6-86.4 5-119.4 7.5-15.8 20.3-22.6 35.9-27.3M2624 1013.8c56.8-2.8 68.6 54 38.2 91.5-20.1 24.9-47.8 33.8-59 66.8l-.6 2c13 .2 65.5-1 75.6 1.2 2.4 5.2 1.6 11.2 1.6 17h-81.9l-17.8-.1c3.8-56.3 29.8-60 64.3-96.1 13.6-14.4 16-42.4 3-57.8-9.2-10.9-26.2-8.3-35.4 1.2-10.5 10.9-9.8 20.7-9.4 34.7l-21.2-.2c1.4-33.3 5.4-54.3 42.6-60.2M1038.4 1014.9l105.3.2-.3 19.8c-28.7 45-55.8 92.3-85.2 137.9 28 .6 59-.2 87.2-.4l.2 19.9h-108.8l.2-21.2q42-69.1 84.9-138c-26 1.4-57 .6-83.4.6zM2382.5 1013.8c54.3-3.1 67.3 54 38 90.1-23.2 28.5-47.2 33.6-60.7 70.5l76.7-.5.3 18.6-80.7-.1h-17.5c.6-39.2 17-56.4 45.9-79.4 22.2-17.7 42.4-45.2 21.6-72.3-9.3-12.2-22.5-14-34-3.2-11.7 11-11.3 22-11.6 36.7l-21.1-.1c1.2-33.8 6-54.2 43-60.3"/><path fill="#17324a" d="M1432.3 662h18.3q-.7 104.3.5 208.4h-27.5l.3-64.4q.2-48.6-.5-97.2a210 210 0 0 1-51.7 29.9l-.1-24.5c26.5-13.7 45-26.8 60.7-52.3"/><path fill="#010101" d="M340.5 1015.1h87l.2 18.6h-66.5c.6 18.3 0 39.3 0 57.9q31.4-.2 62.9-.7c.3 5.5 1.4 11.7-.6 16.6-4.9 3.4-4.9 2.2-12 2.3l-50.3-.2.2 82.7-21 .1zM1274.1 1015l115 .1v18.6l-46.7-.1v112l.1 46.8h-21.2l.2-158.9c-15.5.4-31.8.2-47.3.2zM2267.7 1014c5.7-.2 10-1 15 1.5 3.1 8.1 1.2 157.1 1.2 176.8l-20.5-.1v-24.4l.2-106c-10.9.4-30.3 3.7-38-3.8-1-5-.8-4.7 0-9.7 13.5-12 32.7 10.7 41.7-32.2z"/><path fill="#17324a" d="M624.8 734.4c-.5-5-1-7 1-11.5 6.4-4.7 16.7-2.5 25-2 2.4 5.9 1.2 133.7 1.3 149.6h-27.6q.6-68 .3-136.1"/><path fill="#22425a" d="M624.8 734.4c-.5-5-1-7 1-11.5 6.4-4.7 16.7-2.5 25-2-8.1 13.4-12.6 2-22.4 9.9-1.8 5-1.5 6.4-1.5 11.6-.5-6-.8-3.5-2.1-8"/><path fill="#010101" d="M1677.8 1015h20.7l.3 177.4h-21c.7-58.6 0-118.7 0-177.4M781.4 1015.2h21c-1 56-1 121.5.5 177.3l-21.8-.2c2-55.2.4-121.2.3-177.1M859.6 1301.2h59l.4 55.3c-19.3.5-40.2 0-59.6.1zM1033.1 1851.1h58.6v55.8H1033q.3-27.9 0-55.8M1213.7 1301.2q24.9-.2 49.8.3c0 10.9 2.2 47-1.4 54.2l-4.2.9h-51.2c0-10.4-1.7-48.4 2.3-54.7z"/><path fill="#17324a" d="M2358.2 303.3a27.9 27.9 0 1 1 55-9 27.9 27.9 0 0 1-55 9"/><path fill="#22425a" d="M2395.4 272.7a28 28 0 1 1-37.2 30.6c3 1.8 6.7 7.6 9.3 11 16.9 22 43.3 0 42.6-21.6-.3-8.3-9.7-12.8-14.7-20"/><path fill="#17324a" d="m849.5 781.3 81.7.2c0 8.7 0 17-.5 25.7q-40.5-.7-81 0z"/><path fill="#010101" d="m1875.2 1115.2 61.4-.2.1 20-61.6.3zM1389 1115.2h61.6l.2 19.2c-9 1.5-50.3.7-61.9.6z"/><path fill="#17324a" d="M624.5 662.5h27.1v30.2l-27-.1z"/><path fill="#010101" d="M987.7 1062.4h22.2l.3 23.7c-6.6.5-15.8.3-22.5.3zM987.9 1168.5h22l.1 23.5-22 .3z"/><path fill="#84623f" d="m25.6 1408.6 5.2 3.2c-9.3 5.8-12.9 7-23 10.8l-.1 43.4c22-.1 51.6-1 73.1.5l1.5 1.7c-12.6 5-51.9 2.6-66.9 2.3-7.3-.5-5.8-1.6-10.9 1.7-2.5 4.8-1.8 17-2.6 24.3-1.6-16.8-1.2-61 0-77.6q11.8-5.4 23.7-10.3"/><path fill="#946b42" d="M1.2 553.3h1.3c.2 7.2-1 11.1 2.4 16.6 4.2 1.4 6.7.7 11 .1 16.3-.2 55.6-2.5 68.2 3.7-9.6 2.5-64.8 1-77.4 1.1 0 11.4-2 36 2.7 44.5 3.5 1.7 4.1 1.9 7.9 2.8l2.4 1.5-1.7 5.2c-5.2-2.3-11.4-4.6-16.8-6.8q-.3-34.3 0-68.7"/><path fill="#22425a" d="M158.9 0h154.2a39 39 0 0 1-7.3 4.3l3.9 2.4c-15.9.1-32 .5-47.9-.5A82 82 0 0 1 231.7 4c-17.2-2.4-64.5 3-72.8-4.1"/><path fill="#1d425c" d="M263.9 0H313a39 39 0 0 1-7.3 4.3l3.9 2.4c-15.9.1-32 .5-47.9-.5 10-1.3 15.6-1.3 25.7-1.3-5.2-3.2-15.6.8-23.6-4.9"/><path fill="#946b42" d="M1.7 1184.2v-1.8c-.6-24.2-2.1-73 .7-98.4l3.4-3.5 2.4 6c-.9 15.4-.2 29.8-.7 44.8 23.1 0 47.5-.4 70.5.2.5 2.5.9 1.6.2 2.8q-30.5 1.5-61.1.8c-6.1-1-7.3-1.1-13.5-1q-1.3 24.8-1.2 49.7z"/></svg>