<svg xmlns="http://www.w3.org/2000/svg" width="4096" height="2096" preserveAspectRatio="none" style="display:block" viewBox="0 0 2096 2096">
  <defs>
    <linearGradient id="c" x1="947.6" x2="1104.2" y1="1729.4" y2="2063.8" gradientUnits="userSpaceOnUse">
      <stop class="stop0" offset="0" stop-color="#0e2f5b"/>
      <stop class="stop1" offset="1" stop-color="#1e487e"/>
    </linearGradient>
    <linearGradient id="b" x1="1058.7" x2="1058.9" y1="1652.3" y2="1727" gradientUnits="userSpaceOnUse">
      <stop class="stop0" offset="0" stop-color="#0a0800"/>
      <stop class="stop1" offset="1" stop-color="#020712"/>
    </linearGradient>
    <linearGradient id="a" x1="1321.9" x2="1337.5" y1="1837" y2="1732.3" gradientUnits="userSpaceOnUse">
      <stop class="stop0" offset="0" stop-color="#0b2d5b"/>
      <stop class="stop1" offset="1" stop-color="#254f82"/>
    </linearGradient>
  </defs>
  <path fill="#010101" d="M1791 2h89l2 2c2 14 2 17 8 31 22 28 31-16 31-33h91q1 13 4 25c10 28 29 17 34-7l2-16c26 11 35 41 40 66l4 21v1914c-5 28-10 65-35 83l-9 5c-1-12-2-29-13-37q-4-3-9-3-8 4-11 10-7 15-7 31-14-1-29 2h-52l-3-1-5-2c-2-1-4-28-13-38l-6-3q-6 0-9 5c-15 12-7 29-14 38l-2 1h-86c-4-13-1-28-12-38q-5-5-12-6c-16 2-14 36-19 43l-1 1h-86c-3-6-2-17-4-24q-3-11-13-18-5-2-8-1c-15 7-12 35-16 42l-1 1h-90c-6-14 2-25-13-40q-4-4-9-4c-19 6-15 35-20 43l-1 1h-84q-5-6-4-13c-2-9-6-24-14-29q-3-3-7-1c-19 4-13 34-19 42l-1 1h-84c-6-5-6-21-8-28q-2-9-10-13-5-3-12 0c-13 6-10 28-14 39l-1 2h-84l-3-3c-4-7-2-22-9-32q-3-6-9-7t-10 2c-12 9-10 25-12 38v2h-88c-5-9-4-23-10-35q-3-5-9-7-6-1-11 2c-11 8-11 28-12 40h-89c-6-12-2-26-13-39q-3-3-8-4-5 1-10 5c-9 9-9 26-10 38h-87c-3-4-5-26-12-36q-3-6-9-7-6 0-10 5c-10 10-11 25-11 38h-90q-1-12-3-22-2-12-11-18-5-2-9-1-9 5-12 14l-1 5q-2 10-2 22h-91c0-12-1-27-10-37q-3-4-10-5-5 1-8 5c-9 9-10 25-11 37h-90c-2-12 0-24-8-35q-4-6-12-7-4 0-7 3c-8 6-11 21-11 30l-1 9h-92q1-17-6-32-3-7-11-10-6-1-9 3c-11 9-11 26-12 39h-90c-2-11-1-31-12-39-24-17-24 28-28 37-32 2-50-55-53-80-4-30-2-62-2-92v-640H9q-5 1-7-3l-1-41v-69c0-10-1-61 1-67V996c-2-5-2-168 0-177q2-3 8-3c3-5 2-73 2-85V171c0-49-7-124 35-161q9-7 21-9-1 8 2 18c1 11 11 31 25 21 10-8 11-26 12-38h90c2 54 35 56 38 0h92c0 52 38 55 39 0h90c0 53 39 53 39 0h90c2 54 37 55 39 0h90c1 11 5 52 28 37 8-5 11-26 11-37h90c3 54 36 56 39 0h91c1 12 4 48 25 40 12-5 12-27 16-38 5-3 78-2 88-2 1 9 5 45 22 43 14-3 15-33 21-42 7-2 24-1 33-1h54c1 10 2 28 8 34 24 24 30-22 32-34h90c0 10 3 52 26 38 10-6 12-27 13-38h56c8 0 24-1 31 1 2 3 4 14 5 18 2 10 11 32 24 20 12-10 12-24 13-39h93c1 56 37 54 38 0h91c1 10 4 54 28 37 9-6 11-26 11-37M606 1979q12-4 17-17c7-17 7-40 0-58q-5-10-16-15l-3-1q-11 4-16 15c-8 17-7 42-1 59q3 11 13 16zM1912 204c17-25 23-74-9-88-31 15-29 64-9 87q8 6 18 1m-532 1684q-11 5-16 15c-7 16-7 40-1 56q3 12 13 18l9 1q13-9 16-24c4-16 4-40-5-54q-4-10-15-12zm0-1772q-13 6-17 20c-6 16-6 40 2 56q4 9 13 13l5 1q13-6 17-21c6-16 5-39-2-54q-4-11-15-14zm278 13c-7-10-14-19-26-7-17 17-14 47-7 68 11 21 25 24 35 0q12-30-2-61m-535 78q14-6 19-22c6-16 5-39-3-54q-4-10-15-15h-2q-11 4-16 15c-8 16-8 39-2 56q4 12 16 19zm523 1771q9-4 13-14c8-16 9-38 3-55q-4-12-14-19l-6-1q-10 2-15 12c-9 16-9 38-4 55q3 12 13 20 4 3 10 2m-506-14 3-12q5-18 0-38c-3-14-10-27-27-24-35 30-7 122 24 74m-385-47c-4-16-10-33-30-25-19 24-21 73 9 88q7-2 12-7l6-10q7-22 3-46m-264-18c-5-5-7-9-15-9-21 1-24 35-23 51 1 14 6 31 20 38l1 1h2c14-7 15-10 21-26 4-22 3-34-6-55m4-1712c6-25 8-57-18-72-8 3-10 4-15 11-23 42 6 116 33 61m1019 19q14-9 17-26c4-16 3-39-6-53q-5-8-13-11l-5 1q-13 8-17 23c-5 17-4 38 4 53q5 9 14 13zM370 162v-3c-1-21-15-62-38-32q-14 29-3 60c8 23 29 25 37 1q3-13 4-26m1661-45q-13 5-17 19c-7 16-6 40 1 56q4 9 13 13l8 1q13-7 16-21c6-18 5-41-4-58q-5-8-14-10zM197 136c-5 21-7 41 5 60q5 6 8 9c29 4 32-43 27-63-8-29-26-37-40-6m1580 70q16-13 17-34c2-14 0-36-9-48q-5-7-13-8l-3 1q-14 7-17 23c-5 16-5 38 3 53q5 9 14 13zM211 1890q-13 10-15 25c-5 16-4 40 6 55q4 8 12 9 4 1 7-1 14-10 16-28c3-16 2-38-7-51q-4-7-12-9zm1820-2q-12 5-17 18c-6 17-6 39 1 56q4 10 13 15h9q13-8 16-22c4-17 4-39-5-55q-3-8-13-11zM975 190c8 12 16 25 31 9 16-19 15-88-20-82-19 24-19 45-11 73m-130-2q4 10 12 16 5 3 9 1 12-4 16-16c5-19 7-45-4-61-18-27-35 0-36 20-2 20-1 22 3 40M70 1905c-7 25-7 38 2 63l3 3q5 8 15 9c28-4 28-93-4-90-7 1-12 9-16 15m918-15q-14 11-16 30c-3 15-2 37 7 51q5 6 13 8l5-1q13-8 16-24c5-16 5-39-5-54q-4-7-12-10zM607 206q14-7 18-22c5-16 4-39-4-55q-4-9-15-13h-3q-13 6-17 21c-6 17-5 40 3 56q5 9 14 13zm-522 0q11 0 17-9 9-18 9-38c0-13-4-34-16-41q-6-2-11 0c-24 9-26 73 1 88m1686 1682q-12 6-17 17c-7 17-7 40 0 57q3 11 14 15h9q12-8 15-23c5-17 4-39-5-54q-4-9-14-11zm-238 53c0-16 0-36-13-47q-4-4-10-6-13 5-18 19c-7 17-6 41 2 58q3 6 9 11l1 2q8 1 14-3c11-7 13-22 15-34m-1203-37c-9 25-11 63 17 76 13-6 15-11 20-25l1-1c2-15 4-51-12-62-11-7-20 3-26 12m534 75q12-5 17-17c7-17 7-40 0-57q-4-10-14-15l-5-1q-13 4-16 17c-8 17-7 40 0 57q4 12 14 16zM722 123a75 75 0 0 0-8 62c4 9 5 11 12 18 29 18 47-60 12-87-8 0-10 2-16 7m1159 1794c-2 18-2 37 8 53 5 7 16 11 23 5 11-10 13-29 13-43 0-19-4-36-22-44-16 6-18 14-22 29M1237 196q5 6 11 9 6 2 10-1c14-8 17-34 16-49 0-14-5-21-11-33-11-7-20-8-27 6-10 21-9 47 1 68m37 1746c0-16 0-30-9-45-23-26-37 17-36 36 0 12 2 30 11 40 23 18 32-18 34-31"/>
  <path fill="#cfaa59" d="m580 2081-7 1-3-3q-1-81 1-162c1-17 10-49 30-53s32 24 35 40l1 1 2 24v125c0 7 2 21-1 27h-8l-2-2q-3-5-5-12h-1l-1 7q-2-12-11-18-5-2-9-1-9 5-12 14l-1 5-3-4-1 4-2 6zm26-102q12-4 17-17c7-17 7-40 0-58q-5-10-16-15l-3-1q-11 4-16 15c-8 17-7 42-1 59q3 11 13 16z"/>
  <path fill="#caab69" d="m580 2081-7 1-3-3q-1-81 1-162c1-17 10-49 30-53s32 24 35 40c-6-5-15-40-30-36-28 7-27 36-32 55-4 14-1 139-2 139v-4q-1 11 3 19h1l3-1 1-13q4-14 16-25c14-10 15-3 22 4 11 11 10 23 17 34v1l-3 1h4c4-7-2-127 1-144 1-6-2-19 0-27v-2l2 24v125c0 7 2 21-1 27h-8l-2-2q-3-5-5-12h-1l-1 7q-2-12-11-18-5-2-9-1-9 5-12 14l-1 5-3-4-1 4-2 6z"/>
  <path fill="#050912" d="M580 2081c0-10 4-23 9-30q5-7 14-9 7 0 13 5c8 7 11 21 12 32q-3-5-5-12h-1l-1 7q-2-12-11-18-5-2-9-1-9 5-12 14l-1 5-3-4-1 4-2 6z"/>
  <path fill="#caab69" d="M1893 53q8 6 15 2c14-8 15-25 20-39h8c4 5 0 120 1 133 3 21-4 89-37 84-34-5-32-69-32-92V73c0-10-3-53 3-58 5 0 4 0 7 2 1 12 5 29 15 36m19 151c17-25 23-74-9-88-31 15-29 64-9 87q8 6 18 1"/>
  <path fill="#cfaa59" d="m1929 17 5 2q2 9 1 19l-2 69q2 29 1 58c-1 18-3 45-17 58l-6 2-4 3q-6 1-13-1c-9-4-14-15-17-24l-3-7-1-4-1-2c-3-16-1-51-1-69V28l1-6 3 1c4 6 1 16 9 27q7 8 16 10 10 1 17-6c10-9 11-24 12-37m-17 187c17-25 23-74-9-88-31 15-29 64-9 87q8 6 18 1"/>
  <path fill="#caab69" d="m1894 203-4 1c-18-14-17-58-8-77 11-20 34-19 41 4 5 18 9 32 4 50-3 8-5 21-15 23 17-25 23-74-9-88-31 15-29 64-9 87"/>
  <path fill="#c5c4c2" d="M2 996h12v106H2z"/>
  <path fill="#050912" d="M1882 4c2 14 2 17 8 31l-3 2q2 8 6 16c-10-7-14-24-15-36l3 4 1-1z"/>
  <path fill="#9f9f9e" d="M1814 15q2-4 6-3h44c2 12 3 95-2 102-1 37-5 89 19 120q7 9 19 10c53-4 44-98 43-134l1-94 48-1v165c3 24 13 68 46 64q8-3 14-9c26-30 22-81 21-117V61l1-20 2 3q12 24 13 50c2 46 0 99 0 145v1667c0 31 3 100-5 126q-4 13-10 25c-2-46 1-92-1-137-1-19-9-50-24-62-16-13-32-4-42 11l-6 11-4 10h-1q-7-7-8-17l1-1q2-4 1-11v-6h-27v-2l-6-12-5-12 2-1q-6-4-9-12l-2-16 1-16q1-9 9-15c-8-4-80 1-96 0-42-4-87 2-130 0l-8 1c-9-2-13-2-21-1l-1 1q-8 4-11 13l-1 1-2 16c-21 2-49-1-68 1q-9 1-17-1l-4-17q-4-7-9-12c-6-2-8-2-14-2-11 6-14 10-17 21l-2 18v9h-2c-13 0-73-3-83 0-3-10-4-12-13-16h-22q3 0 5 4c-8 3-9 5-13 13-4 13-4 18-2 31h-2c-1-5-2-25 1-29-4-3-42-4-50-4 5 9 16 33 23 40q-10-5-22-2l-1 1c-39 26-30 89-30 131l-1 96h-48v-112c0-34 1-44-5-77l-1-2c-11-32-31-55-61-22 0 4-8 16-9 22-8 28-6 56-6 85v106h-47l-1-103c1-41 7-87-23-119q-18-13-35 0v-5q3-4 10-6l2 2c5 1 5 2 9 1 1-6-41-89-44-89-25-4-56-1-81-2-7 0-20 2-27 0-6-5-13-23-16-31h4l-14-1H390c-15-2-39-1-55-1l-1-19v-62h-20v-173h20V482l1-113h136c3 1 165 0 166-1h-68c4-8 9-21 15-28l58 2 194-1h159l57-1 27 1c53-2 106 1 159 0 17-1 49 1 64-2q6-6 10-13c8-8 15-2 26-6 9-9 0-16 2-23-2-2-8-1-10-1 5-8 23-56 31-58l6 2c13 6 17 4 29-1l2-1c28-28 24-78 24-114V15l36 1h11l1 33v67c0 37-6 98 27 124 16 12 32-2 41-15 10-22 12-34 14-57V88l-1-73h51l-1 57 1 99 1 17c4 15 7 34 18 45 33 33 56-13 60-41q3-35 2-69V16l48-1v102c0 28-2 57 4 84q4 16 14 31c2 3 10 10 15 11 57 9 49-102 49-126V48c0-7-1-28 1-33"/>
  <path fill="#1d4679" d="M1814 15q2-4 6-3h44c2 12 3 95-2 102-1 37-5 89 19 120q7 9 19 10c53-4 44-98 43-134l1-94 48-1v165c3 24 13 68 46 64q8-3 14-9c26-30 22-81 21-117V61l1-20 2 3q12 24 13 50c2 46 0 99 0 145v1667c0 31 3 100-5 126q-4 13-10 25c-2-46 1-92-1-137-1-19-9-50-24-62-16-13-32-4-42 11l-6 11-4 10h-1q-7-7-8-17l1-1q2-4 1-11v-6h-27v-2l-6-12-5-12 2-1q-6-4-9-12l-2-16 1-16q1-9 9-15c-8-4-80 1-96 0-42-4-87 2-130 0l-8 1c-9-2-13-2-21-1l-1 1q-8 4-11 13l-1 1-2 16c-21 2-49-1-68 1q-9 1-17-1l-4-17q-4-7-9-12c-6-2-8-2-14-2l-2-1h-66c-11 2-110 1-119-1-7-5-15-23-19-31q-1-3 1-4c37-2 74 1 111 0q76 2 153-1 29-1 57 3c11 1 31-4 42-3q27 0 52 3 8-6 6-16-2-46-2-92l2-375-1-67q1-6 7-7 37-3 73-1 11 0 22-1h115c8 0 35 1 39-2 3-26 0-56 1-82q1-59 1-118V808l-1-47 1-217v-62l-1-76c1-9 3-34 0-40-4-2-17-2-22-2h-338l-37 2q-29-1-59-3c-10-1-28 7-35-1-1-6 0-7-5-11-11-2-87-3-92 0q-4 8-3 18h-364q-226 1-451-1h-68c4-8 9-21 15-28l58 2 194-1h159l57-1 27 1c53-2 106 1 159 0 17-1 49 1 64-2q6-6 10-13c8-8 15-2 26-6 9-9 0-16 2-23-2-2-8-1-10-1 5-8 23-56 31-58l6 2c13 6 17 4 29-1l2-1c28-28 24-78 24-114V15l36 1h11l1 33v67c0 37-6 98 27 124 16 12 32-2 41-15 10-22 12-34 14-57V88l-1-73h51l-1 57 1 99 1 17c4 15 7 34 18 45 33 33 56-13 60-41q3-35 2-69V16l48-1v102c0 28-2 57 4 84q4 16 14 31c2 3 10 10 15 11 57 9 49-102 49-126V48c0-7-1-28 1-33"/>
  <path fill="#f8fdfd" d="M1551 15h51l-1 57c-3 5 2 7-3 11l1 48h-47V88z"/>
  <path fill="#1d4679" d="M1551 15h51l-1 57c-3 5 2 7-3 11-2-8-5-23-13-27-24-11-31 18-33 32z"/>
  <path fill="#1a3d6b" d="M1571 73h2q7-1 13 3c7 8 5 26 5 36h-31q-1-14 1-27 3-8 10-12"/>
  <path fill="#1d4679" d="M1580 77zl7 10c0 6 2 17 0 22q-12 2-25 0l1-1h7c4 1 12 2 16-1v-1l-25 1v-2q-1-12 5-23 5-5 13-5"/>
  <path fill="#1a3d6b" d="M2076 44q12 24 13 50c2 46 0 99 0 145v1667c0 31 3 100-5 126v-20c5-58 3-116 3-175V184q1-52-2-102c-1-12-9-31-9-38"/>
  <path fill="#f8fdfd" d="M1598 83c5-4 0-6 3-11l1 99 1 17q-4-5-3-11l-1-1c-8 1-11 13-20 16q-6 6-11 14l31-1v18h-23l-24-1c-3-5-2-13-4-16-4 6-3 12-10 19 10-22 12-34 14-57v-37h47z"/>
  <path fill="#204069" d="M1598 83c5-4 0-6 3-11l1 99 1 17q-4-5-3-11l-1-1c-8 1-11 13-20 16l20-24v-18h-47v-19h47z"/>
  <path fill="#1a3d6b" d="m1567 134 32 1v3q2 5-2 10l-12 1h-25q-5-1-7-5l1-7c1-3 8-2 12-3z"/>
  <path fill="#204069" d="M1552 168h30l-21 26-7 8c-4 5-2 14-2 20-3-5-2-13-4-16-4 6-3 12-10 19 10-22 12-34 14-57M1951 1793l3-1q5 7 9 16c5-1 0-2 8-1q6 14 16 23c0 6 16 35 20 39l-6 11-4 10h-1q-7-7-8-17l1-1q2-4 1-11v-6h-27v-2l-6-12-5-12 2-1 2-1q2-2 1-7c1-17-8-6-6-27"/>
  <path fill="#0e3160" d="M1963 1808c5-1 0-2 8-1q6 14 16 23c0 6 16 35 20 39l-6 11-4 10h-1q-7-7-8-17l1-1q2-4 1-11v-6l-3-2z"/>
  <path fill="#1a3d6b" d="M1990 1861q7 9 11 19l-4 10h-1q-7-7-8-17l1-1q2-4 1-11"/>
  <path fill="#0f2b50" d="m1957 1820 2 1c1 12 16 22 14 32h-10l-6-12-5-12 2-1 2-1q2-2 1-7"/>
  <path fill="#f8fdfd" d="M1982 1768q4 0 8 3c2 13-1 51 1 59h-4q-10-9-16-23c-8-1-3 0-8 1q-4-9-9-16l-3 1c-2 21 7 10 6 27q1 5-1 7l-2 1q-6-4-9-12l-2-16 1-16q1-9 9-15c16 1 21 23 28 36z"/>
  <path fill="#0f2b50" d="M1951 1793c2-5 1-4 4-6 8 1 13 13 16 20-8-1-3 0-8 1q-4-9-9-16z"/>
  <path fill="#f8fdfd" d="M1469 265c-2 10-1 51-1 63q-5-2-8-7c-8-8-16-36-27-38-6 3-6 15-3 20q7 9 5 20l-2 1c-15-5-14-38-9-49 13-29 29 13 33 22l2 2c3-5-2-21 2-32 3-3 3-2 8-2M1460 229c0-8-2-30 2-36h5c2 6 2 56 0 62-17-10-21-42-32-44-10 3-10 19 1 24l-2 18c-20-11-19-64 5-59 10 9 14 23 21 35"/>
  <path fill="#1d4679" d="M1594 1783q21-1 43 1c13 0 36-3 48 0l-2 16c-21 2-49-1-68 1q-9 1-17-1z"/>
  <path fill="#0e3160" d="M1677 1769c5-1 15-2 20-1l1 1-1 1q-8 4-11 13l-1 1c-12-3-35 0-48 0q-21-2-43-1-4-7-9-12c4-2 22-1 29-2 21-2 46 1 63 0"/>
  <path fill="#0f2b50" d="m1686 1783-2-1c-3-10 4-15 13-12q-8 4-11 13"/>
  <path fill="#1a3d6b" d="m1422 15 36 1c-3 2-29 1-35 1q1 26 3 52 0 47 1 93c1 11-5 27-6 38 5-6 4-7 12-9q4-1 6 1v2c-24-5-25 48-5 59l-2 2-3-1c-13-13-11-27-11-46l-1 1c0 10-9 30-21 30l2-1c28-28 24-78 24-114z"/>
  <path fill="#050912" d="M1814 15q2-4 6-3h44c2 12 3 95-2 102V16z"/>
  <path fill="#204069" d="M1436 235c-11-5-11-21-1-24 11 2 15 34 32 44 2 2 2 8 2 10-5 0-5-1-8 2-4 11 1 27-2 32l-2-2c2-9-2-23 2-33q3-2 7-2h1q-2-7-11-12c-7-8-11-28-18-35-5 1-4 1-7 3q0 9 5 17M1599 223q0 3-2 5c-10 3-33 1-43-4l22-1z"/>
  <path fill="#1a3d6b" d="M1503 1768c16-4 38 1 55 0 3 0 15-5 17-4 15 7 24 4 39 5-7 1-25 0-29 2-6-2-8-2-14-2l-2-1z"/>
  <path fill="#204069" d="M1677 1769c19-6 30-8 50 0l-8 1c-9-2-13-2-21-1l-1-1c-5-1-15 0-20 1"/>
  <path fill="#050912" d="M1911 1212h45v87l33 1c17 16 15 26 16 47h39l1 116-1 65-39-1v25h12v26q-10 2-17-3h-44v26h-43l-1-26h-28q-3 7-10 9c-15-4-10-43-10-56h-40l-1-27c2-51-2-104 1-155h40c0-17-3-32 8-46l39-1z"/>
  <path fill="#bfbfc0" d="M2005 1552h12v26q-10 2-17-3c6-8 5-13 5-23"/>
  <path fill="#c5c4c2" d="M1873 1306h116l9 12q4 5 3 11c2 22 2 231 0 236q0 4-4 4c-16 0-114 4-121-2q-8-10-9-23v-227q2-7 6-11"/>
  <path fill="#010101" d="M1928 1330q11-1 20 3c18 9 28 30 33 48 13 42 12 95-9 134q-10 22-32 30-9 2-17-2c-16-6-26-23-32-38-17-41-17-95 0-135q10-28 37-40"/>
  <path fill="#caab69" d="M1927 1336q10-2 20 2c16 8 25 26 31 42 13 39 12 90-6 128q-9 22-32 32-8 1-15-2c-16-5-25-20-31-35-17-38-17-90-1-129q10-27 34-38"/>
  <path fill="#010101" d="M1930 1349q8 0 14 2c14 7 23 22 27 36 13 34 12 79-4 112q-9 19-28 27-9 1-16-3c-15-7-23-24-28-39-10-34-9-78 7-110q10-18 28-25"/>
  <path fill="#c5c4c2" d="M1933 1354q7 0 13 4c14 8 22 26 26 41 8 32 7 73-10 101q-8 17-26 21-7 0-14-4c-14-8-22-26-26-41-8-31-7-72 10-100q8-18 27-22"/>
  <path fill="#010101" d="M1932 1412q5 0 9 4 8 11 6 24 0 14-11 23-5-1-9-5-7-10-6-23 0-15 11-23"/>
  <path fill="#cfaa59" d="M1925 1430q1-7 7-12c14 0 19 35 2 38-8-2-8-8-10-15z"/>
  <path fill="#caab69" d="M1925 1430q1-7 7-12c14 0 19 35 2 38-8-2-8-8-10-15 5 4 2 8 10 11 9-3 7-15 6-22-2-9-6-4-9-6l3-3c-5 3-5 5-9 9"/>
  <path fill="#c7a358" d="m1929 1338 10 1 1 1 4 1v1c-5 5-13 3-19 6l-1 1q-4 4-8 3l-1-1q5-9 14-13"/>
  <path fill="#9f9f9e" d="M1826 1352h38v39h-13v93h13v39h-38zM2005 1352h37v170h-37v-39h13v-91h-13zM1914 1217h39v82c-11 3-28 1-39 1z"/>
  <path fill="#caab69" d="M1853 1397q7-1 10 1c3 25 1 55 1 80q-6 1-10-1l-1-29z"/>
  <path fill="#c7a358" d="m1857 1402 3 2c3 6 1 55 0 63l-1 4h-1c-3-12-3-57-1-69M2005 1398q4-1 9 1 2 14 1 28v51l-9-1c-3-8-1-66-1-79"/>
  <path fill="#caab69" d="M1915 1575h38v20h-38z"/>
  <path fill="#c7a358" d="M1919 1580c8 0 23-3 30 3q2 4 0 8l-20 1q-6 0-11-4z"/>
  <path fill="#c5c4c2" d="M1866 1557q6 10 9 19-3 1-6-2-4-7-3-17"/>
  <path fill="#f8fdfd" d="m1824 1549 2-4c14 3 4 37 8 43l2-1 9 23 24 45 126 6h41v-111q3-3 7-2c5 6 2 37 3 47v-8c1 17 1 72-2 88-6 5-43 3-45 0h-134q-20-38-39-77c-4-9-2-37-2-49"/>
  <path fill="#1a3d6b" d="m1824 1549 2-4c14 3 4 37 8 43l2-1 9 23 24 45 126 6h-126c-11-20-28-52-38-74-2-4 3-28-1-37-4-2-2-1-6-1M2043 1548c5 6 2 37 3 47v-8c1 17 1 72-2 88-6 5-43 3-45 0 10 0 32 2 40 0 7-8 2-109 4-127"/>
  <path fill="#f8fdfd" d="M1817 203c5-20 22-19 37-11 9 15 14 35 5 52l2 2c0 3-14 12-16 13l-1-2q-9-3-19-2h2c-3 3-2 1-2 4l6 2h-8v-1c2-9-14-19-13-29 1-5 4-8 1-13l3-11 2-1z"/>
  <path fill="#1a3d6b" d="M1817 203c5-20 22-19 37-11 9 15 14 35 5 52l2 2c0 3-14 12-16 13l-1-2q-9-3-19-2h2c-3 3-2 1-2 4l6 2h-8v-1c2-9-14-19-13-29 1-5 4-8 1-13l3-11 2-1c-3 12-5 31 5 41 8 8 25 9 33 0 7-8 7-17 8-26 1-27-27-40-45-18"/>
  <path fill="#1a3d6b" d="M1834 210q6-1 13 2 5 3 7 9 2 4-1 7-4 5-11 6-8 1-15-2-5-3-7-9 0-4 3-7 4-5 11-6"/>
  <path fill="#1d4679" d="M1831 216q9-3 17 3 3 2 2 5l-6 6q-11 0-18-6l-1-4z"/>
  <path fill="#f8fdfd" d="M1574 240h20c5 18 7 30 5 49l-2 16c0 27-32 29-35 13q-7-8-9-17h-1c-5-5-6-35-2-41l4-10h1q3-5 8-7l3 3v15c-4 10-9 34 4 38 24 8 18-23 19-34q1-4-2-7h-2q-6 7-3 16 3 7-4 10-3 2-4-1l-1-3z"/>
  <path fill="#1a3d6b" d="M1589 265q3 8 3 17c0 11-6 24-18 23-18-1-19-36-8-45v1c-4 10-9 34 4 38 24 8 18-23 19-34M1553 301h-1c-5-5-6-35-2-41l4-10h1l-1 7q-6 22-1 44M1562 318c16 15 28 2 35-13 0 27-32 29-35 13"/>
  <path fill="#1a3d6b" d="M1582 274q3 7-4 10-3 2-4-1l-1-3 6-1c3-2 2-1 3-5"/>
  <path fill="#f8fdfd" d="m1829 1239-3-3c1-1 70-5 75-1 2 4 3 24-2 24-19 1-46-1-65-1 0 12 2 61-3 68l-7-1v-23c1-12-5-57 5-63"/>
  <path fill="#1a3d6b" d="m1829 1239-3-3c1-1 70-5 75-1 2 4 3 24-2 24-19 1-46-1-65-1 0 12 2 61-3 68v-73h69v-14z"/>
  <path fill="#f8fdfd" d="M1953 197c43-23 44 47 29 55l-2-1q-3-6-2-15l3-6-3-9c-3 3-1 13-4 19h-1c-17 42-45-12-20-43"/>
  <path fill="#1a3d6b" d="M1973 240c1-5 2-14 1-19l-3-9h2c12 3 14 19 5 24l3-6-3-9c-3 3-1 13-4 19z"/>
  <path fill="#1d4679" d="M1967 229c-2 6-2 7-8 9-12-1-12-27 3-25q4 2 4 6z"/>
  <path fill="#1a3d6b" d="M1967 229c-2 6-2 7-8 9-12-1-12-27 3-25q4 2 4 6c-5-3-3-3-8-3-7 5-6 14 2 17q4 0 7-4"/>
  <path fill="#f8fdfd" d="m1731 272 1-4c2 2 5 60-5 64-11-6-20-44-31-44-7 10 10 25 3 38q-3 3-6 2c-15-9-14-43-8-57 5-11 11-9 20-6q5 4 5 10l12 26c1-9-2-30 4-36q3-1 4 1z"/>
  <path fill="#1a3d6b" d="m1731 272 1-4c2 2 5 60-5 64-11-6-20-44-31-44-7 10 10 25 3 38q-3 3-6 2c-15-9-14-43-8-57 5-11 11-9 20-6q5 4 5 10c-30-39-34 52-14 48 9-13-12-26-3-39l5-1c11 8 19 40 31 42 3-4 2-45 2-53"/>
  <path fill="#f8fdfd" d="m1828 309 1-1 1-1c0 5 1 20-3 22l-9-3c-8-14-13-53 4-63h8l1 2c10 11 14 23 21 36 0-6-1-32 2-35h5c3 3 2 55 1 61v4h-2l-18-21c-4-4-8-21-15-22l-1 3q-2 7 3 13v2z"/>
  <path fill="#1a3d6b" d="m1828 309 1-1 1-1c0 5 1 20-3 22l-9-3c-8-14-13-53 4-63h8l1 2q-6-1-10 3c-11 12-10 41 0 53l5 3c2-3 2-11 2-15"/>
  <path fill="#204069" d="M1827 306c-9-5-8-23 1-23 13 7 13 34 32 44v4h-2l-18-21c-4-4-8-21-15-22l-1 3q-2 7 3 13z"/>
  <path fill="#f8fdfd" d="M1968 1239h66l6 2c5 7 4 73 2 84l-6-1c-3-10 0-57 0-71h-69zM1684 207c7-5 34-2 43-4l3 1 2 2v2h-1l-1 18-1 1v1c-10 4-18-1-25 5v13q-3 4-5 3c-7-4-6-16-15-26z"/>
  <path fill="#204069" d="M1684 207c7-5 34-2 43-4l3 1 2 2v2h-1c-12 0-36 1-47-1M1697 226l32 1v1c-10 4-18-1-25 5v13z"/>
  <path fill="#f8fdfd" d="M1943 280h47v18h-32c-2 4 3 15 4 19q1 2-1 4h-2c-7-4-10-19-15-26l-1-1z"/>
  <path fill="url(#a)" d="M1115 1738v-4l9-2c11-3 206-3 223 0 8 6 23 40 33 51 56 1 118-3 173 2-1 4-2 3 0 5h1l-2 18v9h-2c-13 0-73-3-83 0-3-10-4-12-13-16h-22q3 0 5 4c-8 3-9 5-13 13-4 13-4 18-2 31h-2c-1-5-2-25 1-29-4-3-42-4-50-4 5 9 16 33 23 40q-10-5-22-2l-1 1c-39 26-30 89-30 131l-1 96h-48v-112c0-34 1-44-5-77l-1-2c-11-32-31-55-61-22 0-11 11-12 13-18l-26-6-1 4-2-1v-13q-19-4-30-18-6-6-9-13l-7-1h-26l-16-32c-6-11-15-27-20-39v-1h10z"/>
  <path fill="#1a3d6b" d="m1301 1803 14-1c10-3 15 0 25 1h1c7 3 19 44 27 51l3 1c-39 26-30 89-30 131l-1 96h-48v-112c0-34 1-44-5-77l-1-2c-11-32-31-55-61-22 0-11 11-12 13-18l-26-6-1 4-2-1v-13q-19-4-30-18-6-6-9-13l2-1q18 0 33-2l58 2z"/>
  <path fill="#f8fdfd" d="M1296 1811q4-5 9-4c4 2 4 5 8 9 6-3 2-18 18-10 11 15 9 27 7 44-7 16-15 20-25 3v-1q-3 9-12 10c-15-7-11-39-5-51"/>
  <path fill="#0e3160" d="m1321 1821 6 1q3 2 5 7 1 9-4 17h-6q-4-2-5-7-1-10 4-18"/>
  <path fill="#1a3d6b" d="M1301 1823h3q4 1 5 6 2 8-2 16h-4l-5-5q-1-9 3-17"/>
  <path fill="#0e3160" d="m1303 1825 4 4q1 6-1 12l-2-1q-2 0-3-4 0-6 2-11"/>
  <path fill="#1d4679" d="m1137 1803-16-32c-6-11-15-27-20-39v-1h10l4 7c5 13 16 39 27 48l41-1 70 2c27-1 64-3 91 0 6 8 33 55 34 64l-6 3-1 1-3-1c-8-7-20-48-27-51h-1c-10-1-15-4-25-1l-14 1h-38l-58-2q-15 2-33 2l-2 1-7-1z"/>
  <path fill="#0e3160" d="M1454 1801c30 3 56-1 85 0 5 0 7-4 12-1l1 8v9h-2c-13 0-73-3-83 0-3-10-4-12-13-16M1374 1814c-5-7-22-35-19-43l2-1c9 5 14 28 19 31 4 2 49 1 54 0h2q3 0 5 4c-8 3-9 5-13 13-5-4-42-4-50-4"/>
  <path fill="#050912" d="M1452 369q-1-10 3-18c5-3 81-2 92 0 5 4 4 5 5 11 7 8 25 0 35 1q29 2 59 3l37-2h338c5 0 18 0 22 2a3016 3016 0 0 0 1 116v62l-1 217 1 47v165q0 59-1 118c-1 26 2 56-1 82-4 3-31 2-39 2h-115q-11 1-22 1-37-2-73 1-6 1-7 7l1 67-2 375q0 46 2 92 2 10-6 16-25-3-52-3c-11-1-31 4-42 3q-28-4-57-3-77 3-153 1c-37 1-74-2-111 0q-2 1-1 4-3-3-3-6h266l98-1v-1c7-6 13 4 18-6 22-17 29-41 36-67l1-4-4-1c6-32 4-88 4-122v-346c1-11 3-15 14-16h145l43-1c32-2 46-44 52-70q6-33 4-67V558q1-47-1-96c-2-21-10-46-22-64-18-28-40-23-70-23h-72l-285 1H389c-32 6-46 54-50 81q-2 32-2 62v1032c0 32-1 71 4 102l-3 3c7 25 14 51 37 66 4 5 8 3 15 7-15-2-39-1-55-1l-1-19v-62h-20v-173h20V482l1-113h136c3 1 165 0 166-1q225 2 451 1h364"/>
  <path fill="#c5c4c2" d="M1780 1655c3 18-1 50 1 67h-37c22-17 29-41 36-67M337 1722l1-66c7 25 14 51 37 66z"/>
  <path fill="#6f7073" d="M1781 1651v71c-2-17 2-49-1-67z"/>
  <path fill="#caab69" d="M318 1479h16q-2 81 1 162h-18z"/>
  <path fill="#cfaa59" d="M321 1485q5 0 8 2 3 0 2 3 0 28-1 55v37c0 13-4 33 0 44l2 7-3 2-6-1c-3-14-5-141-2-149"/>
  <path fill="#caab69" d="M1544 356h2l1 13h-89l-2-1-1-12z"/>
  <path fill="#c5c4c2" d="M2001 375h38v68l-6-18q-8-30-32-50M2036 1108l3-12v70h-39c21-14 28-36 36-58"/>
  <path fill="#bfbfc0" d="m2036 1108 3-12v42c-4-4 1-24-3-30"/>
  <path fill="#c5c4c2" d="M337 375h38a85 85 0 0 0-28 38l-9 30z"/>
  <path fill="#1d4679" d="M1139 1860c-4-25-35-75-46-100-5-11-10-17-13-30l2-1c12 12 41 74 53 92l26 4 2-1v-21l7 1q3 7 9 13 11 14 30 18v13l2 1 1-4 26 6c-2 6-13 7-13 18 0 4-8 16-9 22-8 28-6 56-6 85v106h-47l-1-103c1-41 7-87-23-119"/>
  <path fill="#f8fdfd" d="m1163 1803 7 1q3 7 9 13 11 14 30 18v15c-13 4-32-17-38-26v41l-8-2v-60"/>
  <path fill="#1a3d6b" d="M1163 1824v39l8 2v3l-6-1-4 3c-3-7-2-39 0-45z"/>
  <path fill="#0e3160" d="M1726 1728v1l-98 1h-266q0 3 3 6c4 8 12 26 19 31 9 2 108 3 119 1h66l2 1c-11 6-14 10-17 21h-1c-2-2-1-1 0-5-55-5-117-1-173-2-10-11-25-45-33-51-17-3-212-3-223 0l-9 2v4l-4-7h-10v1c5 12 14 28 20 39l16 32h26v21l-2 1-26-4c-12-18-41-80-53-92l-2 1c3 13 8 19 13 30 11 25 42 75 46 100q-18-13-35 0v-5q3-4 10-6l2 2c5 1 5 2 9 1 1-6-41-89-44-89-25-4-56-1-81-2-7 0-20 2-27 0-6-5-13-23-16-31h4l48-1h642z"/>
  <path fill="url(#b)" d="m1777 1650 4 1-1 4c-7 26-14 50-36 67-5 10-11 0-18 6l-75 1h-642l-48 1-14-1H390c-7-4-11-2-15-7-23-15-30-41-37-66l3-3c5 22 21 64 43 68 21 3 69 1 91 1l152 1 787-1c43 0 314 3 322-2h1l3-2c23-14 32-44 37-68"/>
  <path fill="#010101" d="M392 389h1573c16 0 28 0 40 12 16 17 23 44 25 66q3 37 2 75v384q1 67-1 133c0 29-8 71-35 88q-6 4-14 4-27 2-53 0h-102q-19-1-38 1-4 0-7 3-7 8-7 19-2 20-1 40v353c0 36 2 74-13 108-6 13-15 27-28 32-14 4-113 2-136 2H404q-11 0-21-4c-16-8-26-28-31-44q-6-17-7-34-3-45-1-91V479q2-32 15-60 11-22 33-30"/>
  <path fill="#c5c4c2" d="M395 395h1579c12 1 21 2 30 12 14 15 21 39 23 60q3 40 1 80v144l1 243q1 63-1 126c-1 26-8 65-32 80q-5 4-11 5c-16 2-36 0-52 0h-106q-19-1-38 1-4 1-9 4-8 11-9 26v400q1 29-2 58-3 21-12 41c-6 11-15 23-27 26-10 3-58 1-73 1H461q-33 2-65 0-9 0-16-5c-16-11-25-36-29-54q-6-36-4-73V568q-1-44 1-88 1-35 19-65 10-15 28-20"/>
  <path fill="#535351" d="M1680 551h115c33 0 53 4 78 28q24 26 38 60c36 81 31 169 31 256v165h-79c-22 1-52 3-73-2q-23-8-40-26-27-28-41-63c-33-80-29-164-29-248z"/>
  <path fill="#c5c4c2" d="M1851 642c3 9-1 65-3 75l-25 108c-5 24-9 52-17 75q-2 6-6 10l-7-1-6-7q-4-18-6-36l-10-59q-8 33-13 67-2 12-6 23-3 10-10 14l-4-1c-10-8-16-69-19-86l-16-101c8 0 18-2 24 3 11 9 16 69 18 84 6-23 12-67 21-86q8-1 15 1c6 4 16 76 17 86q6-17 8-35l13-60q4-24 13-47 7-14 19-27M1878 729q6-1 11 2c5 17 31 115 30 127-2 18-24 105-31 119q-6 12-17 20-1-33 4-65 4-20 11-41l6-24c2-20-7-43-11-61-6 19-18 91-27 101q-4 4-9 4l-6-4q-7-9-5-21 2-15 7-29l13-51c5-22 10-50 18-70q2-4 6-7"/>
  <path fill="#535351" d="M736 1355c7 4 9 12 16 16l1 4q-2 11-6 20l-12 49c1 10 14 99 16 105q1 3 3 2c3-11-2-34-2-47v-2c7 13 12 49 16 56h2l2-6-3-14-5-31q-5-36 3-72 1-10 6-17 3-3 7-3c10 0 22 19 28 27-5 15-32 82-28 92h2c21-12 39-45 51-65 6 2 99 114 111 128H660l28-89z"/>
  <path fill="#c5c4c2" d="M812 1543h3q3 2 1 4c-4 7-18 10-26 12h-2l-1-2q-2-3-1-6c6-6 18-7 26-8M831 1499l2 4c-2 10-17 21-24 28h-1q-2-3-2-6c4-9 17-19 25-26M777 1448l5 2q5 2 6 8 0 5-3 9a10 10 0 0 1-11-8q-1-6 3-11"/>
  <path fill="#535351" d="M815 1104c3 3 50 164 56 182q-40 16-82 29c-11 4-23 11-34 12q-4 0-8-3c3-20 15-52 22-73zM876 555q6-1 11 1 13 5 19 17c15 32 14 139 2 172q-6 17-21 25h-11q-10-4-16-15c-17-31-17-137-6-172q6-18 22-28"/>
  <path fill="#c5c4c2" d="M878 589q6-1 10 3c8 8 7 31 7 41 1 23 3 72-4 93l-6 9h-2q-4 0-7-3c-8-7-8-28-8-38-1-23-3-75 4-96q1-5 6-9"/>
  <path fill="#535351" d="m717 554 10 1q13 7 19 22c12 32 12 141-2 173q-6 15-21 20-6 1-12-2-13-8-17-23c-12-35-14-138 2-172q6-15 21-19"/>
  <path fill="#c5c4c2" d="M717 589q5-1 8 3c12 11 9 85 8 103 0 13-1 31-11 40q-4 1-8-3c-10-9-8-45-8-58 0-20-4-70 11-85"/>
  <path fill="#535351" d="M1144 557c18 1 45-5 59 8 12 11 15 29 16 45 1 24-1 50-18 69l23 88-24-1-7-27-13-49h-14v77h-22z"/>
  <path fill="#c5c4c2" d="M1166 593c6 0 16-2 22 2q7 4 9 12c3 13 1 30-6 42-7 7-16 6-25 6z"/>
  <path fill="#535351" d="M429 556c17 1 43-4 57 8 14 14 17 38 17 56 0 21-3 43-18 58l23 89-24-1-8-31-11-47h-15v79h-21z"/>
  <path fill="#c5c4c2" d="M450 592c6 0 16-1 21 2q8 5 9 15c3 12 2 28-5 40-7 6-16 4-25 4z"/>
  <path fill="#535351" d="M518 556c17 0 44-4 58 8 14 13 18 37 18 55 1 20-1 49-16 64-10 11-25 10-38 10v74h-22z"/>
  <path fill="#c5c4c2" d="M540 593c6 0 17-1 22 2q7 4 9 12c4 14 2 32-4 44l-1 2q-12 7-26 4z"/>
  <path fill="#535351" d="M1090 606h10q14 6 20 19c15 30 15 83 5 114q-6 20-24 30-6 2-13-1-14-6-19-21c-14-30-13-86-1-117q6-16 22-24"/>
  <path fill="#c5c4c2" d="M1091 641q6-1 10 3c9 9 9 28 9 40 0 15 1 37-11 49h-3q-4 0-7-3c-9-9-9-28-9-39 0-16 0-38 11-50"/>
  <path fill="#535351" d="M805 557h21v130l2 2 5-1 3 2c2 5 0 25-1 30-3 3-4 0-7 1-5 8-2 36-2 46-7 0-16 2-21-2l-1-5v-38h-40l1-32q6-23 13-46z"/>
  <path fill="#bfbfc0" d="M804 622c3 18 1 48 0 67h-19c-1-7 16-58 19-67"/>
  <path fill="#535351" d="M1258 605q10-1 18 4c21 15 18 54 18 77v47q0 16 4 34h-21l-3-12q-3 7-10 12-6 4-13 2-9-3-14-13-6-15-7-33c0-14 1-33 12-44 9-10 19-10 31-10v-14q-2-11-9-17h-5q-6 7-7 17h-21q1-17 8-33 6-13 19-17"/>
  <path fill="#c5c4c2" d="m1265 695 7 1 1 2c3 8 1 24-3 31q-3 7-10 8-7-5-8-13-3-12 2-22 4-7 11-7"/>
  <path fill="#535351" d="M632 555q9-2 16 1 14 7 18 22c20 52-14 108-34 153h42v36q-34 1-69-1-1-14 0-28c2-12 27-59 33-75 8-18 19-44 10-64q-3-7-8-10-4 0-7 3c-8 6-8 23-9 32h-21q0-23 8-46 5-17 21-23M1441 556h65v36h-43v53h38v36c-9 0-31-2-38 1v84h-23V628q-1-36 1-72M892 1363c4 3 57 183 63 206l-20-23-87-102zM1364 556h22l-1 174h43v36h-65zM987 557h21v174h43v35h-64zM1230 873h15v121l-12-1v-71l-1-1c-1 7-12 68-14 71h-8l-3-15-11-62-1 35 1 44h-13V873h15l17 84z"/>
  <path fill="#6f7073" d="M1195 950v-41l1 6z"/>
  <path fill="#9f9f9e" d="M1234 910c0 7 1 19-1 26v-14l-1-1z"/>
  <path fill="#535351" d="M1149 872h8q6 2 9 8c11 17 10 73 5 93q-1 15-13 22h-6q-4-1-9-5c-12-17-10-66-8-86q0-19 14-32"/>
  <path fill="#c5c4c2" d="m1152 891 4 1q5 4 6 12c2 15 3 60-6 72l-3-1q-5-4-6-10c-3-15-3-62 5-74"/>
  <path fill="#535351" d="M981 872h6q6 2 9 6c12 17 10 70 7 91q-2 16-14 26h-7q-6-2-9-7c-12-18-11-71-7-92q1-15 15-24"/>
  <path fill="#c5c4c2" d="m982 891 5 1 4 7c3 14 3 64-4 76h-4q-5-4-6-10c-3-15-2-52 1-66z"/>
  <path fill="#535351" d="M566 899c8 0 9 4 14 8q-1-4 2-6l8 1q2 21 1 42v84q-6 1-13-1v-40l-1 1-3 4q-4 3-8 2-6-3-8-8c-10-16-9-48-5-67q2-14 13-20"/>
  <path fill="#c5c4c2" d="m570 918 4 3c6 6 6 19 6 27q1 16-8 28l-4-2c-5-6-6-17-6-24 0-11 0-24 8-32"/>
  <path fill="#535351" d="M1292 873h13v79q1 21-1 41l-2 1q-5 0-9-2-3-24-1-50l-24 1 1 51h-13V873h13l-1 49h24zM896 872q6 0 10 2c4 24-1 49 1 73q5 2 6 6 3 8 0 15l-5 1c-3 5-1 18-1 24q-6 1-11-1l-1-3v-21h-25v-14q4-16 10-33z"/>
  <path fill="#c5c4c2" d="M894 913v-3h1v39h-13z"/>
  <path fill="#9f9f9e" d="M894 913v-3h1v39c-1-10 1-27-1-36"/>
  <path fill="#535351" d="M800 900q7-2 13 4c12 11 10 36 10 51h-28q0 10 7 19h4q7-2 9-9l7 11v2q-3 11-11 15-4 3-10 1-8-2-12-11c-9-17-8-47-3-65q4-13 14-18"/>
  <path fill="#c5c4c2" d="M801 920h2q4 0 6 4 3 6 2 14h-16q1-10 6-18"/>
  <path fill="#535351" d="M663 899q8 0 13 5c12 12 10 36 10 51h-28c1 7 1 14 8 19l4 1q6-4 8-10l8 12v2c-1 4-8 12-11 14q-4 4-10 2t-11-9c-10-16-10-45-6-63q3-15 15-24"/>
  <path fill="#c5c4c2" d="m664 920 5 1q3 3 5 8t-1 9h-11q-3 0-4-4 1-8 6-14"/>
  <path fill="#535351" d="M522 900h1q8-2 12 4c12 11 10 36 10 51h-27c0 5 1 14 6 18q2 3 6 1l7-8 8 11q-3 10-10 16-5 3-11 2-7-2-11-8c-10-17-10-47-5-65q3-15 14-22"/>
  <path fill="#c5c4c2" d="m524 919 5 2q4 4 5 10l-1 7h-11q-3-1-4-4-1-8 6-15"/>
  <path fill="#535351" d="M1049 874h33v20h-23q-1 11 0 22 2 2 5 1h1q5-2 9 1c7 5 9 18 10 26 1 14 1 34-9 45q-6 7-14 6l-6-3c-8-7-10-20-11-30l11-1 2 7q2 6 8 8 2 1 3-2c5-7 6-24 4-31-4-13-17-1-24-6-4-4 1-54 1-63M432 872h38v20h-26v32h24v20h-24v49l-12 1zM713 900h5q4 0 7 5 4 7 5 15c2 14 2 60 0 72q-5 2-11 2c0-17 3-51-1-65q0-5-4-8-4 0-7 3c-5 15-3 36-2 52l-1 13q0 4-4 5-3 1-5-1l-3-9v-83c15 0 8 2 14 6zM626 901h12v92q-5 1-10-1l-1-5h-1q-4 7-11 8-4 1-7-2c-12-11-8-74-8-92h11c0 16-2 57 3 69q1 4 5 5l3-2c8-7 5-59 4-72M1314 900h36c0 26-13 50-23 73h23v19l-1 1c-5 2-29 1-37 1 0-25 13-50 22-73h-20zM755 899l6 1q7 2 10 7c4 6 9 18 7 26l-5 4c-7-1-6-14-13-17l-5 2c-4 4-5 14-5 20 0 10-1 24 6 31q3 2 4 1 4-3 5-7l2-3q1-4 5-4l4 1q3 4 1 9-1 14-11 23-4 3-9 2-8-2-11-9c-10-16-10-45-6-63q4-15 15-24M1117 872c2 4 2 105 1 120l-2 1q-4 1-8-1-3-8-2-17v-74l-13 10v-19q13-9 24-20M946 872c2 4 2 103 1 114q1 4-1 7l-9-1q-2-6-1-12v-79l-13 9v-19zM476 901q5-1 11 1l1 7 6-8h7l1 4c0 5 1 15-3 19l-7 2c-7 9-4 36-4 48v20l-12-1zM1308 654h40q1 18-1 34h-39zM930 655h40v33h-40zM1013 930h23v20h-23zM836 899l4 2q4 5 4 11 0 9-6 15l-4-2q-4-5-4-11 0-8 6-15M835 969l5 1q4 4 4 9 1 10-5 16l-4-1q-4-3-5-8-1-10 5-17"/>
  <path fill="#1d4679" d="m1034 15 47-1v104c0 35-7 119 43 126 5 0 14-5 18-9 24-30 21-75 21-111l-1-108h48l1 92-1 22q-1 31 3 61c4 21 14 53 40 53 16-1 23-17 30-29 6-16 8-26 9-44V15h48v109c0 34-3 56 9 89l5 11 13 16-6-2c-8 2-26 50-31 58 2 0 8-1 10 1-2 7 7 14-2 23-11 4-18-2-26 6q-4 7-10 13c-15 3-47 1-64 2-53 1-106-2-159 0l-27-1-57 1H836l-194 1-58-2c-6 7-11 20-15 28h68c-1 1-163 2-166 1H335l-1 113v561c-4-4-12-20-15-26l-58-110q-13-1-26 1c-6-2-13 1-17-3q-1-5 2-10l-1-34h-44l-1-94c-8-1-70 1-73-2-4-13-5-16-16-25-24-2-45-4-51 26q-6 0-7 3c-3 9-1 18-2 29q2 8 0 16c-3 3-2 2-6 3l-1-59V650q-1-141 1-283v-1c-2-49 0-107-1-157v-67c0-40-1-85 28-116q1 53 1 108c0 36-3 64 17 96l14 12c10 2 14 1 23-2l11-11c20-38 16-70 16-111V15h47v108c1 22-1 43 2 65 2 17 13 51 33 55 28 6 39-28 44-49 1-7 3-18 2-25-1-8 1-26 1-35-2-10-1-40 0-51V15h49v58c0 16 1 60-1 74 3 21 0 27 5 53 6 19 21 55 48 41 16-8 22-32 26-48l3-13v-17c-2-46 0-102 0-149l48 1 1 68c0 19 1 53-1 70v4c0 12 0 20 2 32 3 16 10 42 24 50 35 20 48-28 54-49l1-19 1-20q-3-15 0-30V96l-1-81h48v112l-1 21v1l1 26q2 19 8 37 5 10 12 21c37 38 61-28 61-58V15h48v81c0 9 1 39-1 48l1 19 2 27c4 23 21 72 56 47 15-10 21-41 23-60 2-50 1-111 1-162l47-1v152q1 22 7 43c5 15 16 36 35 35 30-2 41-53 39-77v-16l15-1h23c6 0 5-1 8 2q2 8 1 18l2 1c3 16 3 30 9 45l1 2 7 13c13 13 30 19 43 4 31-35 20-104 22-149z"/>
  <path fill="#1d4679" d="M19 367zc-2-49 0-107-1-157v-67c0-40-1-85 28-116q1 53 1 108c0 36-3 64 17 96l14 12c10 2 14 1 23-2l11-11-1 128q-1 20 2 39c3 13 53 109 63 125V378l1 46v194l-1 37c4 5 9 3 14 3 0 20-1 57 1 76h54v-77q4-1 8 2v156c0 7 0 36 2 40 21 49 49 95 72 143l7 14v31c-4-4-12-20-15-26l-58-110q-13-1-26 1c-6-2-13 1-17-3q-1-5 2-10l-1-34h-44l-1-94c-8-1-70 1-73-2-4-13-5-16-16-25-24-2-45-4-51 26q-6 0-7 3c-3 9-1 18-2 29q2 8 0 16c-3 3-2 2-6 3l-1-59V650q-1-141 1-283"/>
  <path fill="#1d4679" d="m101 240 11-11-1 128q-1 20 2 39c3 13 53 109 63 125V378l1 46v194l-1 37c-1-13-11-29-17-40l-35-69c-13-25-27-55-41-79-1-8 1-11 3-19q-2-6-2-13l-7-20v2q-2-7-1-15c6-16 6-13 4-32 1-12 2-18 1-31q-3-4-3-9c15-23-6-66 0-83l25-2v-4z"/>
  <path fill="#0e3160" d="m101 240 11-11-1 128q-1 20 2 39c3 13 53 109 63 125V378l1 46v194l-1 37c-1-13-11-29-17-40l-35-69c-13-25-27-55-41-79-1-8 1-11 3-19l20 39q34 68 70 134c0-8 1-69-1-74-13-34-35-67-51-100-5-11-16-29-20-41 1-47-4-117-1-161v-4z"/>
  <path fill="#f8fdfd" d="m66 404 10-2q-1 8 1 15v-2l7 20q0 6 2 13c-2 8-4 11-3 19l-1 3-2-4v16H33v-17h17l-3-7c-4-16-3-36 16-42l4-3q1-5-2-8z"/>
  <path fill="#1a3d6b" d="m66 404 10-2q-1 8 1 15v-2l7 20q0 6 2 13c-2 8-4 11-3 19l-1 3-2-4-3-1c3-17 12-43-14-49l4-3q1-5-2-8z"/>
  <path fill="#204069" d="M60 435zq6-1 10 3 4 6 3 13 0 9-7 14h-6q-4-1-6-5-4-6-3-14 1-7 8-11"/>
  <path fill="#1a3d6b" d="M65 438h3q4 5 4 11 1 5-3 9-4 2-10 1h-2l-2-4q-2-7 3-14 3-2 7-1z"/>
  <path fill="#f8fdfd" d="m101 240 2 1v4l-25 2c-6 17 15 60 0 83q0 5 3 9c1 13 0 19-1 31-3-9-3-7 0-17v-10H47l1-3c7-4 24 3 17-17l-1 2-2 1-5 2c-16-3-14-48-4-56h2q3 4 7 4 1-5 6-8l7 3c1-7-2-26 3-29 10 2 14 1 23-2"/>
  <path fill="#1a3d6b" d="m101 240 2 1v4l-25 2c-6 17 15 60 0 83q0 5 3 9c1 13 0 19-1 31-3-9-3-7 0-17v-10H47l1-3c7-4 24 3 17-17l-1 2-2 1v-2c4-8 4-32 10-37l1 2-2-1 2 2 2 7q1 10-6 17l1 5q-1 7 3 9c6-4 8-20 8-27q1-16-6-30c1-7-2-26 3-29 10 2 14 1 23-2"/>
  <path fill="#204069" d="M55 272q3 4 7 4c-3 10-3 28-6 34l-2 1c-4-6-1-17 1-24v-15"/>
  <path fill="#f8fdfd" d="M47 343h33v10c-3 10-3 8 0 17 2 19 2 16-4 32l-10 2-20-1v-17h23l-3-2 1-9c4-19-19-5-26-15l2-10 1-1 2-1z"/>
  <path fill="#204069" d="M46 348v13c14-1 30-4 28 17q0 6-5 8l-3-2 1-9c4-19-19-5-26-15l2-10 1-1z"/>
  <path fill="#f8fdfd" d="M129 752c-8 0-16 2-20-3q-2-4 0-7l2-2 58-1q9-1 16 2c3 9 2 76 1 88q0 3-5 3l-1-28v-52z"/>
  <path fill="#1a3d6b" d="M19 367c2 4 1 15 1 20v171l2 70v88-2 98l3-14q2 8 0 16c-3 3-2 2-6 3l-1-59V650q-1-141 1-283M129 752h51v52l1 28-4-1c0 7-1 21 2 25 14 10 40-11 44 8 1 6-1 26-3 31l-1-34h-44l-1-94c-8-1-70 1-73-2h40c9-1 27-3 34 1q2 2 2 6v1q2-9-1-16c-7-4-34-3-45-3z"/>
  <path fill="#0f2b50" d="m64 230 14 12c-5 3-2 22-3 29l-7-3c-2-14 2-27-4-38"/>
  <path fill="#f8fdfd" d="m33 491 47 33v19l-47 33 1-21 1-4 14-13 4 2c6-4-2-2 5-6l1-1-6-4h2l1-1-22-14 1-2c-2-4-2-16-2-21"/>
  <path fill="#204069" d="M35 512c9 4 24 15 33 21-10 7-24 17-34 22l1-4 14-13 4 2c6-4-2-2 5-6l1-1-6-4h2l1-1-22-14z"/>
  <path fill="#050e1c" d="m191 299 54 1v75l12 1 2 3v228c0 15 1 36-1 50h-13v77h-54c-2-19-1-56-1-76-5 0-10 2-14-3l1-37V424l-1-46q6-3 15-2z"/>
  <path fill="#535351" d="M190 385q-6 0-10-2l-1-3h8l5-4h50l2 1c3 2 11 0 13 4l-2 187v72c-1 7 0 7-7 8h8l1 1-1 2c-9 2-10-2-14 4l-3 2h-46c-5-9-11-2-14-8l1-2v-54l1-145v-61q5-2 9-2"/>
  <path fill="#010101" d="M190 385q-6 0-10-2l-1-3h8l5-4h50l2 1c3 2 11 0 13 4l-2 187V385zM193 657c-5-9-11-2-14-8l1-2 68 1h8l1 1-1 2c-9 2-10-2-14 4l-3 2z"/>
  <path fill="#9f9f9e" d="M193 305h49v71h-49zM239 657l2 1c2 7 1 61 1 70h-49v-71z"/>
  <path fill="#1d4679" d="M259 379c13 29 31 59 44 86 5 14 3 62 3 80v262c1 6 23 49 26 51l2-4v158l-7-14c-23-48-51-94-72-143-2-4-2-33-2-40V659q-4-2-8-2h13c2-14 1-35 1-50V379"/>
  <path fill="#0e3160" d="M259 379c13 29 31 59 44 86 5 14 3 62 3 80v262c1 6 23 49 26 51l2-4v63c-3-10 0-24-4-34-8-21-26-45-32-67l-1-33 1-50V555c0-21 3-67-5-84-3-8-30-60-34-63z"/>
  <path fill="#0e3160" d="M259 492zc2 22 2 66 2 90l1 186v74c0 9 10 25 15 34l29 58c4 7 23 47 28 52v25l-7-14c-23-48-51-94-72-143-2-4-2-33-2-40V659q-4-2-8-2h13c2-14 1-35 1-50zM564 295l2-2 1 4v1c3-1 6-6 9-6 24-1 53 1 77 2l-7 6c-1 4 1 3 1 6l-2 3v16l2 1 12-8-5 7c15 3 46 1 62 1 12 0 62 2 69-2l3 1c7 2 21 4 28 0l4 2 2-1h1c4 2 72-1 80 0q9 1 18-2h10l7 2c17 0 94 2 107-2l1 1 6 2c8 0 18 2 20-7q3 7 10 7l1-4 8 4c12-2 69 2 76-2v-5l8 6h21q3-1 4-4 3 4 9 5l1-2c21 2 63 3 86 1q4-1 5-4 6-1 11 1v3q-4 7-10 13c-15 3-47 1-64 2-53 1-106-2-159 0l-27-1-57 1H836l-194 1-58-2c-6 7-11 20-15 28h68c-1 1-163 2-166 1 10-3 45 0 57-2 6-1 4 1 7-4l19-36-1-1-1-2c10-8 11-17 12-29"/>
  <path fill="#1d4679" d="M576 309c11-1 60-2 69 0v16h-2q-31 3-63 2c-6 10-16 34-22 40h-11c7-18 20-41 29-58M387 14l48 1 1 68c0 19 1 53-1 70v4c0 12 0 20 2 32l-3-2c-9 2-10 16-15 20l1-3v-1q-5 4-6 9c6 0 16-2 20 5l-2 1h-29l31-37v-18h-47c-2-46 0-102 0-149"/>
  <path fill="#204069" d="m387 14 48 1 1 68c0 19 1 53-1 70v-1c-1-15-2-128-4-132q-5-1-9 1c-9 4-27-9-33-2l-1 31q-1 38 2 76 0 13 2 28c3 3 31 5 37 6q4-1 6-3c0 12 0 20 2 32l-3-2c-9 2-10 16-15 20l1-3v-1q-5 4-6 9c6 0 16-2 20 5l-2 1h-29l31-37v-18h-47c-2-46 0-102 0-149"/>
  <path fill="#f8fdfd" d="M1292 15h48v109c0 34-3 56 9 89-7 2-13 17-13 24l-2 2c0-7 4-18 2-24l3-19c2-45-8-43-47-42V15"/>
  <path fill="#1d4679" d="M1292 15h48v46h-1l-47-1z"/>
  <path fill="#204069" d="M1339 61zv63c0 34-3 56 9 89-7 2-13 17-13 24l-2 2c0-7 4-18 2-24l3-19c2-45-8-43-47-42v-21h46v-17h-31l31-37z"/>
  <path fill="#1d4679" d="M1312 136c8 2 18-2 25 1v1c2 5 2 16 0 21q-3-7-11-9l-2 1h-29c2-3 11-1 15-2q-5-2-11-2l-3-3c3-5 11-6 16-8M1336 86zq2 7 2 16 0 6-5 8-6 2-12 0l-4-2c0-6 13-18 18-23"/>
  <path fill="#204069" d="M1292 78h30l-30 35z"/>
  <path fill="#1d4679" d="M1296 82q7-2 13 1 3 3 1 6l-7 6-6 6-2-1q-2-9 1-18"/>
  <path fill="#204069" d="M645 15h48v81c0 9 1 39-1 48l1 19 2 27-4-6c-3-2-11 11-19 9-7-1-14-13-13-20-2-16-3-26 5-41l-1-1c11-14 15-4 26-3 7-18-4-13-15-18l-7 1-6 10-2-1-1-8c-4-5-7 1-13-10V15"/>
  <path fill="#1d4679" d="M651 76c-2-13-7-44-2-56l2-2 20 3c5 0 16-4 19-2 4 16 1 50 0 67 0 2-22 6-25-6l-5-1q-2 5-3 14h-2c-6-5-2-9-4-17"/>
  <path fill="#f8fdfd" d="M664 132c3-3 9-8 13-4 1 8-1 36 2 41q5-1 6-6c1-8 2-11-3-17-2-3-2-13 2-16l2 1q4 6 6 13l1 19 2 27-4-6c-3-2-11 11-19 9-7-1-14-13-13-20-2-16-3-26 5-41"/>
  <path fill="#1a3d6b" d="M659 173c4 9 10 20 23 14 7-3 9-16 10-23l1-1 2 27-4-6c-3-2-11 11-19 9-7-1-14-13-13-20"/>
  <path fill="#1a3d6b" d="m671 144 1 2c1 5 1 20-1 24l-3-1q-4-6-4-14 0-7 7-11"/>
  <path fill="#f8fdfd" d="m645 79 1-2q2-2 5-1c2 8-2 12 4 17h2q1-9 3-14l5 1v12h27v18h-18l-7 1-6 10-2-1-1-8c-4-5-7 1-13-10z"/>
  <path fill="#1d4679" d="M682 146c5 6 4 9 3 17l-3 1-2-1q-4-9 2-17"/>
  <path fill="#f8fdfd" d="M257 15h49v58c-3 4 0 7-3 12l1 49h-47c-2-10-1-40 0-51V15"/>
  <path fill="#1d4679" d="M257 15h49v58c-3 4 0 7-3 12-3-12-4-16-12-25-21-9-30 5-34 23V15"/>
  <path fill="#1a3d6b" d="m257 58 3 8h1q0-6 5-10c5-3 17-3 23 0l2 4c-21-9-30 5-34 23zM278 76q8 0 12 4c8 7 5 25 5 35h-31c0-10-2-25 4-33q4-5 10-6"/>
  <path fill="#1d4679" d="M288 82h2q3 9 3 17 1 5-2 9-8 3-17 2l-2-1q-4-3-4-6-3-9 2-17c5-7 10-2 16-4zM516 15h48v112c-2-10-3-13-9-21l-1-3c-7-6-11 1-17 6l-7-5c-8-3-7 4-12 5l-1-13z"/>
  <path fill="#f8fdfd" d="M1336 237c0-7 6-22 13-24l5 11 13 16-6-2c-8 2-26 50-31 58 2 0 8-1 10 1-2 7 7 14-2 23-11 4-18-2-26 6v-3q-5-2-11-1l-1-5h-8c-1-10-6-102 22-69l4 16c5-12 9-14 16-25z"/>
  <path fill="#0e3160" d="M1336 237c0-7 6-22 13-24l5 11 13 16-6-2c-8 2-26 50-31 58l-2 1h-1c-4-4-5-4-8-9 1-16 20-22 20-39l-1-13z"/>
  <path fill="#1d4679" d="M1336 237c0-7 6-22 13-24l5 11c-4 7-9 20-15 25l-1-13z"/>
  <path fill="#1a3d6b" d="M1319 288c3 5 4 5 8 9h1l2-1c2 0 8-1 10 1-2 7 7 14-2 23-11 4-18-2-26 6v-3q-5-2-11-1l-1-5h39v-18h-20z"/>
  <path fill="#0e3160" d="M1303 261q4 1 6 3c4 7 4 27 1 34l-2 1-8-1-1-2c-2-8 0-28 4-35"/>
  <path fill="#204069" d="m1308 283 2 1v7q-1 4-5 5l-2-2z"/>
  <path fill="#f8fdfd" d="M303 85c3-5 0-8 3-12 0 16 1 60-1 74 3 21 0 27 5 53-5-7-3-15-8-20-7 1-12 17-19 20l-1 1q11 2 20 5v1l-3 1q3 0 4 2c1 4 1 13-1 17-8-2-37-1-46-1 1-14-3-14 6-25l-1-2 16-20h1l-1-1-4 4h-1l-1-5c-12-7-13 10-17 17 1-7 3-18 2-25-1-8 1-26 1-35h47z"/>
  <path fill="#204069" d="M303 85c3-5 0-8 3-12 0 16 1 60-1 74 3 21 0 27 5 53-5-7-3-15-8-20-7 1-12 17-19 20l-1 1q11 2 20 5v1l-3 1-27 1 32-38v-17h-47l-1 15c4 3 26 2 32 2l-26 30-1-2 16-20h1l-1-1-4 4h-1l-1-5c-12-7-13 10-17 17 1-7 3-18 2-25-1-8 1-26 1-35h47z"/>
  <path fill="#1d4679" d="m693 292 1-2q13 2 28 3 26 1 51-1l1 1v5l1 9c3 9 3 11 10 17-7 4-57 2-69 2-16 0-47 2-62-1l5-7 13-9 20-15z"/>
  <path fill="#0e3160" d="m693 292 1-2q13 2 28 3 26 1 51-1l1 1v5l1 9c-6 1-91 2-99 1q-1 3-4 1l20-15z"/>
  <path fill="#0f2b50" d="m693 292 3 2-5 3-4 8h3l-14 3q-1 3-4 1l20-15z"/>
  <path fill="#1d4679" d="M951 293c25-1 54 1 79-3q3-1 5-6c0 11-1 17 1 27q3 8 9 13c-13 4-90 2-107 2l-7-2q10-4 15-16l4-15z"/>
  <path fill="#0e3160" d="M951 293c25-1 54 1 79-3q3-1 5-6c0 11-1 17 1 27-7-5-80-6-90-3l4-15z"/>
  <path fill="#1d4679" d="M903 290q1 10 5 20 4 8 13 14-9 3-18 2c-8-1-76 2-80 0h-1v-35c6 3 74 2 81-1"/>
  <path fill="#0e3160" d="M903 290q1 10 5 20c-12-2-73-5-85-2h-1v-17c6 3 74 2 81-1"/>
  <path fill="#1a3d6b" d="M823 308c4 4 4 12 2 16l-2 2h-1v-18z"/>
  <path fill="#f8fdfd" d="M941 150c6 0 5-1 8 2q2 8 1 18l2 1c3 16 3 30 9 45l1 2h-2c-6-8-4-10-7-17-2-1-15 1-18 1 4 0 12-1 15 1v19h-46l-1-2v-16l31-37h-31v-16l15-1z"/>
  <path fill="#1d4679" d="M920 205q14-19 30-35l2 1c3 16 3 30 9 45l1 2h-2c-6-8-4-10-7-17-2-1-15 1-18 1 4 0 12-1 15 1v2z"/>
  <path fill="#f8fdfd" d="M925 239h19c7 20 8 33 6 54l-4 15q-4 12-15 16h-10q-9-6-13-14-4-10-5-20-5-30 13-51c1 5 2 16 1 21 3 13-12 30 10 29h12c0-5 2-21-2-24-3 6-1 16-3 19l-7-1c-6-5-7-30-2-36z"/>
  <path fill="#204069" d="M939 289c0-5 2-21-2-24-3 6-1 16-3 19l-7-1c-6-5-7-30-2-36 0 6-1 29 1 32h5c6-6-3-17 5-21 8 3 7 27 5 34-8-2-18 1-29-1-2-10-3-23 5-31 3 13-12 30 10 29z"/>
  <path fill="#0e3160" d="M912 291c11 2 21-1 29 1-5 18-22 18-29-1"/>
  <path fill="#f8fdfd" d="M387 163h47v18l-31 37h29q3 8 2 18c-7-2-40-1-47 0v-19l15-18c-3-4 5-6 5-12-2-2-12-3-16-3q-4 2-7 9l3-13z"/>
  <path fill="#204069" d="M387 180h31l-16 19c-3-4 5-6 5-12-2-2-12-3-16-3q-4 2-7 9z"/>
  <path fill="#f8fdfd" d="M1162 293c0-8 2-21 9-27 9-7 18 11 21 17l1-1 4 7 4-18v-5h6c3 2 2 53 2 61q-6-1-9-5-1 4-4 4h-21l-8-6-4-12z"/>
  <path fill="#1a3d6b" d="M1177 308c-10-5-12-20-2-23 9 1 15 15 16 22l9 15q-1 4-4 4h-21c2-3 2-14 2-18M1197 289l4-18v30l-9-18 1-1z"/>
  <path fill="#f8fdfd" d="M774 298c0-9 0-26 9-32 13-8 26 27 30 35 0-6-1-32 2-36 5 0 3 0 6 2 2 6 1 17 1 24v35l-2 1-4-2c-7 4-21 2-28 0l-3-1c-7-6-7-8-10-17z"/>
  <path fill="#1d4679" d="m804 307 12 18c-7 4-21 2-28 0 2-3 1-13 1-17z"/>
  <path fill="#0e3160" d="M782 292c6-2 9 1 14-2l8 17-15 1c-8-4-7-9-7-16"/>
  <path fill="#204069" d="M782 292q0-4 2-7c3-2 2-2 5-1q4 1 7 6c-5 3-8 0-14 2"/>
  <path fill="#f8fdfd" d="m1071 296 2 2c2-4 0-24 2-33l4 1c5 5 3 18 3 26v35q-6-1-10-7c-2 9-12 7-20 7l-6-2-1-1q-6-5-9-13c-2-10-1-16-1-27 2-6 5-23 16-19 9 5 15 23 20 31"/>
  <path fill="#1a3d6b" d="M1052 307c6-2 9 1 12 0l8 13c-2 9-12 7-20 7l-6-2 2-1q2-8 1-17z"/>
  <path fill="#1a3d6b" d="M1049 307c-9-2-9-15-4-22 10-4 16 14 19 22-3 1-6-2-12 0z"/>
  <path fill="#f8fdfd" d="m645 241 47 33v20l-20 15-13 9-12 8-2-1v-16l2-3c0-3-2-2-1-6l7-6c4-3 13-2 16-10-2-4-19-16-23-20v-1z"/>
  <path fill="#204069" d="m646 263 33 21c-8 6-24 18-32 22 0-3-2-2-1-6l7-6c4-3 13-2 16-10-2-4-19-16-23-20z"/>
  <path fill="#f8fdfd" d="m516 171 9 6 20 14 18 13v20c-8 6-41 27-45 33l-3-2q-3-10-1-21c9-10 18-9 28-18 5-4-1-2-1-9-4-4-20-14-26-17z"/>
  <path fill="#1a3d6b" d="m541 207 10 6-35 24-1 18q-3-10-1-21c9-10 18-9 28-18 5-4-1-2-1-9"/>
  <path fill="#f8fdfd" d="M1292 154c39-1 49-3 47 42l-3 19c-5 8-7 10-17 11h-27l-1-20c8 2 29 3 35-2 10-8 6-23 0-31-5-3-28-2-34-2zM517 96l1 13c5-1 4-8 12-5l7 5c6-5 10-12 17-6l1 3c6 8 7 11 9 21l-1 21q-1 12-12 18c-1-4-2-13-1-17 2-7 7-16 0-23l-2 1q-6 7-6 16c-13-3-5-8-12-16-3-1-1-1-5 1q-6 12 4 21l-1 16c-7-5-7-6-11-14q-3-15 0-30z"/>
  <path fill="#204069" d="m517 96 1 13c5-1 4-8 12-5l7 5c6-5 10-12 17-6l1 3c-12-5-15 5-18 14-2-7-3-11-12-11q-6 5-8 12z"/>
  <path fill="#1a3d6b" d="M542 143c-1-8-3-18 7-19 11 3 10 18 1 25 2-7 7-16 0-23l-2 1q-6 7-6 16"/>
  <path fill="#f8fdfd" d="M538 278c1-4 3-14 8-15 15-5 18 23 18 32-1 12-2 21-12 29-2-3-3-15-1-18l-2-4c2-4 3 0 6-5q1-8-7-11c-7 3-1 6-6 12v4c-9-3-7-3-9-12q0-3-3-5c-10-1-9 15-1 22q1 6-2 13l-2 1c-12-5-15-57 5-54q5 3 8 11"/>
  <path fill="#204069" d="M542 298q-3-9 3-16c11-5 17 14 6 24l-2-4c2-4 3 0 6-5q1-8-7-11c-7 3-1 6-6 12"/>
  <path fill="#f8fdfd" d="M1034 252c4-13-2-52 4-59 9 0 13 22 37 29l2 1 4 1c2 3 1 13 0 17v2c-16 4-24-16-33-18-6 7 4 24-6 31q-4 1-6-1l1-2z"/>
  <path fill="#204069" d="M1044 213c11 16 19 23 37 28v2c-16 4-24-16-33-18-6 7 4 24-6 31q-4 1-6-1l1-2q3 1 6-2z"/>
  <path fill="#1a3d6b" d="M903 167h31l-31 37v16l-1 1q-2-8-1-17l-1 1c0 9-2 9-4 16-13 45-61 29-70-10-4-21-6-24-4-45q1 22 7 43c5 15 16 36 35 35 30-2 41-53 39-77"/>
  <path fill="#1d4679" d="m911 171 3 1q5-1 9 2c-1 5-10 13-13 17v1q-3 4-5 6c-2-5-1-17 1-22q1-3 5-5"/>
  <path fill="#1a3d6b" d="M334 523c-4-3-2-128-2-141 0-4 0-13 3-16 10-3 26-2 36-2h61q25 2 50 2l25-1c11-2 16-2 28-2-3 5-1 3-7 4-12 2-47-1-57 2H335l-1 113z"/>
  <path fill="#0e3160" d="M1083 292c26-2 52 2 79 1l1 15c-7-3-70 0-80 0z"/>
  <path fill="#1a3d6b" d="M1034 86c5 6-2 96 3 101h3q9 9 14 19c4 4 16 14 22 13v-1l-4-2q5-2 10 3l1 2q-1 2-6 2l-2-1c-24-7-28-29-37-29-6 7 0 46-4 59-2-4-1-45-2-52-4 20-13 44-36 48-12 2-25-5-27-17 13 13 30 19 43 4 31-35 20-104 22-149M1292 171c6 0 29-1 34 2 6 8 10 23 0 31-6 5-27 4-35 2v-2c9-5 33 4 36-10 1-3 0-13-2-17-7-2-11 3-17 0h-9c-10 8-5 30-16 38 6-16 8-26 9-44M775 15l47-1v16l-3-11c-6-3-14 4-22 1-3-1-16 0-19 2q-1 14-1 29l-1 51c-1 15 3 66-2 75 2-50 1-111 1-162"/>
  <path fill="#0e3160" d="M1336 215c2 6-2 17-2 24-7 11-11 13-16 25l-4-16c3-3 10-16 12-20l-16-1q5 1 9-1c10-1 12-3 17-11"/>
  <path fill="#1a3d6b" d="M545 191c11-1 22 12 21 25-2 17-9 15-22 26v1c-6 4-20 14-26 14 4-6 37-27 45-33v-20zM925 239q7-3 19-3c12 5 12 44 10 55l-3 2h-1c2-21 1-34-6-54z"/>
  <path fill="#204069" d="M563 148zl1 26q2 19 8 37c-13-9-8-44-14-47q-3 4-7 1 11-6 12-18"/>
  <path fill="#1a3d6b" d="M1071 296c3-7-8-29 5-36h2c9 6 8 23 4 32 0-8 2-21-3-26l-4-1c-2 9 0 29-2 33zM387 236c7-1 40-2 47 0q1 2-2 3l-4-1h-4l1 1 5 1c-2 1-37-1-41-1zM256 226c9 0 38-1 46 1-5 4-41 4-46 1zM517 151c4 8 4 9 11 14l1 1-1 2q-4 0-6 2v1l-1-1v1l-1-1v1q4 1 5 6l-9-6zM1292 226h27q-4 2-9 1l7 3-25-1zM533 290c2 9 0 9 9 12-2 3-1 1-4 3l-2-1c-4-6-4-7-3-14"/>
  <path fill="#f8fdfd" d="M263 249c0-4-1-2 2-6 3-2 1-1 5-1 8 10 3 24-3 33-1 10-2 19 5 27 5 4 13 3 16-2 5-6 7-22 4-29l-1-1q-4 6-4 13l-8-1-1-39h20l4 17 2 1c6 17 1 86-32 71-6-2-13-15-13-22q-9-31 4-61"/>
  <path fill="#1a3d6b" d="M263 249c0-4-1-2 2-6 3-2 1-1 5-1 8 10 3 24-3 33-1 10-2 19 5 27 5 4 13 3 16-2 5-6 7-22 4-29l-1-1q-4 6-4 13-2-10-1-21l3-2c11 11 11 51-10 49-19-1-19-35-8-47l-1-19z"/>
  <path fill="#204069" d="m302 260 2 1c6 17 1 86-32 71-6-2-13-15-13-22 7 15 22 27 36 10 11-13 9-43 7-60"/>
  <path fill="#f8fdfd" d="M426 251v-3c3-3 10 3 12 6q2 9-1 16-3 8-1 14c2 3-1 4 0 7v-1c0 8 2 26-1 32-4 3-13 1-18 1q-15 2-30-3c0-9-1-62 1-67h6c3 4 1 40 1 47l2-17 1 13h2c3-4 3-14 3-20l2 11c1-8-2-26 3-31l5 1c5 14 1 25 5 38l3 2c7-5-2-36 5-46"/>
  <path fill="#1a3d6b" d="M426 251v-3c3-3 10 3 12 6q2 9-1 16-3 8-1 14c2 3-1 4 0 7v-1c0 8 2 26-1 32-4 3-13 1-18 1q-15 2-30-3h47c0-13 1-58-1-68-3-2-2-1-7-1"/>
  <path fill="#1a3d6b" d="M413 257c5 14 1 25 5 38l3 2c7-5-2-36 5-46v51h-13z"/>
  <path fill="#204069" d="m395 300 2-17 1 13h2c3-4 3-14 3-20l2 11q1 8-1 14l-7 1z"/>
  <path fill="#f8fdfd" d="m785 195-1-1 6-1 6 5c5-3 10-9 16-8q6 3 7 9v2c3 12 9 62-17 50l-5-2c-10 5-17 9-20-5-2-19-9-33 8-49"/>
  <path fill="#204069" d="m785 195-1-1 6-1 6 5c5-3 10-9 16-8q6 3 7 9v2c-5-4-6-9-15-7-6 4-6 10-8 11-4-6-4-8-11-10M777 244q13 15 19-4l6 11-5-2c-10 5-17 9-20-5M806 210l5 2q4 5 4 11 0 9-6 14l-6-3q-4-6-3-13t6-11"/>
  <path fill="#1d4679" d="m807 215 2 1 3 7q0 6-4 8-4-2-5-8z"/>
  <path fill="#1a3d6b" d="m785 212 3 1q3 1 4 4 2 9-2 18l-4-1q-4-2-4-6-2-8 3-16"/>
  <path fill="#1d4679" d="m785 218 5 2q1 6-1 11l-4-3z"/>
  <path fill="#f8fdfd" d="M1190 192q6 0 10 2 8 7 9 16c2 11 1 26-6 35q-5 8-13 9-10 1-18-5-10-10-10-25-1-13 4-24 2-3 6-5c7 8-3 21-3 30q0 4 3 6 4 4 9 3v-1q-3-11-2-21 1-13 11-20"/>
  <path fill="#1a3d6b" d="M1189 210q5-2 9 1 3 2 4 6 1 9-4 16-4 2-9-1l-4-7q-1-9 4-15"/>
  <path fill="#1d4679" d="m1192 214 3 1q3 1 4 5l-3 9-4-1-3-3q-1-5 3-11"/>
  <path fill="#f8fdfd" d="m121 316 2-1c8 3 40 26 46 32l-1 1v21l-47 33v-21l32-20-1-1c-5-9-35-14-32-26z"/>
  <path fill="#204069" d="m121 316 2-1c8 3 40 26 46 32l-1 1c-5-1-40-27-47-32"/>
  <path fill="#1a3d6b" d="M153 361zc-5-9-35-14-32-26 5 6 32 18 35 25z"/>
  <path fill="#f8fdfd" d="M143 113h2q0 3 3 3v-1q2-4 5-7c24-7 21 47 12 61l-3 5q-2 1-3-1c-1-5-2-14-1-19l-3-1v3l-2-1c-1 7-4 16-12 15-10-9-11-51 0-57z"/>
  <path fill="#204069" d="M143 113h2q0 3 3 3v-1q2-4 5-7c24-7 21 47 12 61l-3 5q-2 1-3-1c10-10 10-28 9-42 0-8-1-20-11-21-13 5-8 36-14 42h-2c-2-5-2-16 0-20 4-6 2-11 2-19"/>
  <path fill="#204069" d="M153 155c1-6 1-21 6-26l1 1c5 7 3 18-2 24l-3-1v3z"/>
  <path fill="#f8fdfd" d="M134 176c8-4 31 18 34 24 10 8 12 9 13 23q2 8-1 15c-3 2-2 2-5 2-2-8 0-15-5-20-7 1-29 20-37 25-2-8-4-24 5-27s5-7 8-10l3 2 1-1c-2-5-9-4-12-11l-3-3q-2-9-1-19"/>
  <path fill="#1a3d6b" d="m138 198 20 12-24 16-1 19c-2-8-4-24 5-27s5-7 8-10l3 2 1-1c-2-5-9-4-12-11M134 176c8-4 31 18 34 24-8-4-27-18-34-24"/>
  <path fill="#f8fdfd" d="M140 274c0 6-1 15 2 19 7-7 2-39 16-42 16 7 13 54 2 60q-4-6-3-14 9-13 3-28l-2 1c-5 11-3 20-5 25q0 11-8 17c-15-4-16-50-4-56l2 1q4 10-3 17"/>
  <path fill="#ecfbfd" d="M153 295q0 11-8 17c-15-4-16-50-4-56l2 1q4 10-3 17 1-6-1-10c-5 5-4 35 1 40q2 2 6 3c2-1 4-8 7-12"/>
  <path fill="#0e3160" d="M1290 291v15l-79 2h-1v-16c14 1 69 3 80-1"/>
  <path fill="#f8fdfd" d="M659 191c14 9 3 13 9 22 8 5 15 3 24 3v19l-1 1c-5 4-27 3-33 1v-18l3-2c-1-13-5-7-2-26"/>
  <path fill="#1a3d6b" d="M658 234c9 0 25-1 34 1l-1 1c-5 4-27 3-33 1z"/>
  <path fill="#1d4679" d="M34 766c6-30 27-28 51-26 11 9 12 12 16 25 3 3 65 1 73 2l1 94h44l1 34q-3 5-2 10c4 4 11 1 17 3q13-2 26-1l58 110c3 6 11 22 15 26v431h-20v173h20v62l1 19c16 0 40-1 55 1h471l12 1c-4 7-18 42-25 43-34 5-74-6-107 3-7 2-23 39-27 46-7 0-18-2-22 4l-1 2-8 1v29h28l1 1c-1 4-2 3-2 9-22 38-17 75-17 117v97h-48v-107c0-22 2-46-2-68-3-20-12-53-38-53q-13 0-21 9c-24 30-20 76-20 111v108h-48v-105c0-23 2-48-2-71-2-18-16-55-37-53-47 5-42 85-42 116v113h-48v-105c0-21 2-50-2-70-15-78-66-68-78 6-2 17-1 40-1 57v112l-50 1 1-73v-3q-2-17 0-35v-37l-1-18-2-15c-4-14-7-26-17-38-8-12-29-15-39-3-30 33-23 95-22 137l-1 84h-47v-109q1-32-2-63c-10-74-65-77-77-1q-3 17-3 34 2 64 0 128c-35-35-28-116-28-163v-174l1-299c0-48-2-104 0-152l7-1c4 8 2 26 1 35 0 16 1 9 10 16 5-3 53-2 61-2 12-8 58 1 73-4-3-2-28-1-35-1l-2-1H88v-19h21V792H88v-18h83l2-1v-2c-8-6-62 5-75-5H34"/>
  <path fill="#c5c4c2" d="M88 774h83v551H88v-19h21V792H88z"/>
  <path fill="#1d4679" d="M220 966c10-1 26 0 35 1q28 51 54 104l25 50v268h-14c-14 3-45-2-59 1l-4 3-1-2c-11-7-44 2-63-4l5-14 21-42 29-57c6-13 21-37 20-50-1-37 3-80-1-117-1-5-23-45-26-53-6-9-23 3-19-16q3-14-2-28l-2-9 2-2-1-1 2-15z"/>
  <path fill="#1d4679" d="M220 966c10-1 26 0 35 1q28 51 54 104l25 50v22c-5-6-18-34-22-42q-29-58-60-116c-9-1-22 0-31-2z"/>
  <path fill="#0e3160" d="M221 983c9 2 22 1 31 2q31 58 60 116c4 8 17 36 22 42v23h-2c-1-6-78-158-85-166-5-2-21-1-27-1l-1-1z"/>
  <path fill="#1a3d6b" d="M332 1166h2v223h-14c9-1 9-3 10-12l1-159c0-11-1-45 1-52"/>
  <path fill="#050912" d="M34 766c6-30 27-28 51-26 11 9 12 12 16 25 3 3 65 1 73 2l1 94h44l1 34q-3 5-2 10c4 4 11 1 17 3q13-2 26-1l58 110c3 6 11 22 15 26v78l-25-50q-26-53-54-104c-9-1-25-2-35-1l1 17-2 15 1 1-2 2 2 9q5 14 2 28c-4 19 13 7 19 16-5-3-15-2-20-3l-2-1v-9c-12 2-33 1-44 0v16h43c2 4 1 26 1 33h-44v16l44-1c0 8 1 26-2 32q-2 2-5 2h5v1c-9 5-31-5-39 4v5c9 0 14-2 22 3 2 1 14 2 16 0h1c3 8 2 27 1 36h-43v15l44 1-1 32c-9 0-35-2-41 3-4 6-3 31-3 40v52h-73c-3 13-4 18-15 26q-19 1-31 1c-14-6-14-8-20-21q-3-6-7-6c-4-4-2-42-2-49 4 8 2 26 1 35 0 16 1 9 10 16 5-3 53-2 61-2 12-8 58 1 73-4-3-2-28-1-35-1l-2-1h37V774l2-1v-2c-8-6-62 5-75-5H34"/>
  <path fill="#0e3160" d="m175 896 45-1q-3 5-2 10c4 4 11 1 17 3q13-2 26-1l58 110c3 6 11 22 15 26v78l-25-50q-26-53-54-104c-9-1-25-2-35-1l-1-1-1-4c-5-2-35-2-43-2v-14l43-1v-33c-11 0-32 1-43-1z"/>
  <path fill="#1d4679" d="M220 920q19 0 37 1c4 5 20 38 24 46 17 34 38 71 53 105v20c-9-12-16-30-24-44-20-36-36-75-57-111l-33 1z"/>
  <path fill="#204069" d="m175 896 45-1q-3 5-2 10c4 4 11 1 17 3-23 4-40 0-60 2z"/>
  <path fill="#9f9f9e" d="M37 1333c5-3 53-2 61-2-5 22-21 25-42 21q-15-4-19-19M38 766c4-21 23-24 42-20q15 5 18 20z"/>
  <path fill="#1a3d6b" d="m219 965 1 1 1 17-2 15 1 1-2 2 2 9q5 14 2 28c-4 19 13 7 19 16-5-3-15-2-20-3l-2-1v-42h-44v-15h44z"/>
  <path fill="#9f9f9e" d="M175 916h42v22q-21 2-42 0zM175 867l42 1-1 21c-4 3-34 1-41 1zM175 1062l41 1v21l-41 1zM175 1160h42l-1 22h-41zM175 965h42l-1 22q-20 2-41 0zM175 1111h42l-1 22h-41zM175 1014h42l-1 22h-41zM175 1209h42l-1 22-41-1z"/>
  <path fill="#0e3160" d="M175 1041c11 1 32 2 44 0v9l2 1c5 1 15 0 20 3 3 8 25 48 26 53 4 37 0 80 1 117 1 13-14 37-20 50l-29 57-21 42-8 16q-9-3-14 4l-3 1 2-5 2-1c4-5 81-154 83-162 3-15 0-37 0-53v-46l-2-15c-4-10-17-38-24-44q-7-4-13-2v13q3 3 6 2c6 2 25 38 25 43-2 23 4 75-1 95-9 28-34 65-45 94q-10 18-18 37v-40l-1-8v-13l-1-24-6 1c-5 9 1 21-3 31v-34h-1l-2 16c0-9-1-34 3-40 6-5 32-3 41-3l1-32-44-1v-15h43c1-9 2-28-1-36h-1c-2 2-14 1-16 0-8-5-13-3-22-3v-5c8-9 30 1 39-4v-1h-5q3 0 5-2c3-6 2-24 2-32l-44 1v-16h44c0-7 1-29-1-33h-43z"/>
  <path fill="#1a3d6b" d="M187 1289h6c3 5 0 20-4 24l-1-3-1-8z"/>
  <path fill="#1d4679" d="m230 1148 10 5c1 15 3 45 0 57l-4 9-4 7c-2-4-2-68-2-78M225 1113h5l5 5q4 8 2 17h-1q-6 0-10-5-4-8-1-17M222 1216l3 2q2 7-1 14l-3-3q-3-6 1-13"/>
  <path fill="#050e1c" d="M208 1426h18l14 1v56q1 21 3 41c0 17 0 153-2 156-3 2-11 2-15 3-8 1-12 4-19 0-7 3-15-1-18 1l1 2q-2-1-2-3v-2l4-1-4-1c-2-9-1-28-1-38l1-47v-167z"/>
  <path fill="#535351" d="M191 1466h21c6 4 21-2 26 3l-1 4-1 24v107c-9 0-28-1-37 1h-8v-133q-2-4 0-6"/>
  <path fill="#9f9f9e" d="M191 1466h21c6 4 21-2 26 3l-1 4-1 24v6h-45v-31q-2-4 0-6"/>
  <path fill="#050912" d="M191 1466h21c6 4 21-2 26 3l-1 4c-4-2-39-1-46-1q-2-4 0-6M191 1498l45-1v6h-45z"/>
  <path fill="#9f9f9e" d="M190 1432h47v34h-46zM191 1641h46v34l-47-1zM191 1610l40-1 6 1-1 25h-45z"/>
  <path fill="#010101" d="M199 1605h1c8 0 33-1 38 1q1 3-1 4l-6-1c-10-2-31 1-39-1l-1-3z"/>
  <path fill="#204069" d="M290 1898q0 7-7 10c0 3 0 2 2 5v1-2l-2 2c6 2 16 1 22 1l2-2c-2 17-1 40-1 57v112l-50 1 1-73v-3q-2-17 0-35v-37h47l-1-17h-31z"/>
  <path fill="#f8fdfd" d="m278 1951 19 1c7 21 11 50 1 71q-4 10-15 15-5 1-10-2c-9-5-14-17-16-26v-3q-2-17 0-35 1-10 9-16h2q3 3 3 7v6l-4 7c-4 6-4 17-3 24l2 5q5 7 14 9l7-2q7-9 7-20 1-8-3-15l-2 1-3 12-1 1h-5c-5-10-1-28-2-39z"/>
  <path fill="#1a3d6b" d="M286 1990c0-5-2-16 1-19l3-1q6 5 5 12 4 16-4 29-5 7-11 7-5 1-9-3-5-4-5-10 5 7 14 9l7-2q7-9 7-20 1-8-3-15l-2 1z"/>
  <path fill="#1d4679" d="m267 1976 4-1q3-7 2-15 0-5-3-9-5 1-9 4l-1-1v-10l3-3c8-3 30-3 38 1q4 12 2 25 1-6-2-13-2-3-5-4c-4-2-15-2-19 0l1 1v1c1 11-3 29 2 39h5l1-1 3-12 2-1q4 8 3 15-1 11-7 20l-7 2q-8-2-14-9l-2-5c-1-7-1-18 3-24M304 2015zc0 11 3 49 0 58q-1 3-4 3c-7 2-15-1-22-1-6 1-11 6-17 2q-4-4-3-9l-1-1c1-9-1-31 5-38l2 2 9 9h6q5 1 8-1 14-9 17-25"/>
  <path fill="#f8fdfd" d="m198 1373-5 14c19 6 52-3 63 4l1 2v23h-1v67c0 8 2 31-3 35h-1c-3-3-2-40-2-48l-10 13v-56l-14-1h-18l-20-1-5 12c-3 9-5 9-4 21q3 16-1 31v2c-1 9 2 23-3 29q-3-1-3-4c0-17-4-113 1-122l3-1q6-7 14-4z"/>
  <path fill="#1a3d6b" d="M177 1406h73v64l-10 13v-56l-14-1h-18l-20-1-5 12c-3 9-5 9-4 21q3 16-1 31z"/>
  <path fill="#1d4679" d="M183 1437c2-9-2-20 1-27 10-3 45 1 59 0q3 0 4 4l-7 12h-32l-20-1z"/>
  <path fill="#0e3160" d="m247 1414 1-2v19l-3 6-5 8v-18l-14-1h14z"/>
  <path fill="#1d4679" d="M245 1437q3 6 2 17l-7 12v-21z"/>
  <path fill="#204069" d="m198 1373-5 14c19 6 52-3 63 4l1 2v23h-1q1-11-2-21c-5-3-69-2-78-2q6-7 14-4z"/>
  <path fill="#0e3160" d="M390 1729h471l12 1c-4 7-18 42-25 43-34 5-74-6-107 3-7 2-23 39-27 46-7 0-18-2-22 4l-1-12c-3-3-2-2-7-3q-2-1-2-7c6 2 16 1 21 0h6c5-2 19-35 28-46l17-1h94l11-23 2-2c-1-4-11-2-16-2H392zM187 1357l-1 3-2 2c-5 6-19 31-19 38v267c0 8 2 27-3 31-4 0-2 0-5-2-3-8-1-88-1-101v-125l-1-74q0-8 4-16l7-13 2-5-3-2 4-2h12z"/>
  <path fill="#0f2b50" d="M170 1358h11q-3 11-12 5c0-4-1-2 1-5"/>
  <path fill="#0e3160" d="m188 1425 20 1-20 1v77l-1 137c0 10-1 29 1 38l4 1-4 1v2q0 2 2 3 3 5 2 9c6 6 17-1 23 2v2c-5 1-17 0-23-1l1 1c8 2 38 0 45 2-4 3-41 2-48 1 1-15-8-16-10-25-1-11 3-31-2-42-2-12 3-40-3-48l-2-1v-65l2-1c5-6 2-20 3-29v-2q3-15 1-31c-1-12 1-12 4-21z"/>
  <path fill="#f8fdfd" d="m238 1701 11-21c4-13-3-85 3-93l2 1c6 13 0 71 2 89 1 9-11 30-16 39h-53l-16-30v-93q1-4 4-6c6 8 1 36 3 48 5 11 1 31 2 42 2 9 11 10 10 25 7 1 44 2 48-1"/>
  <path fill="#0f2b50" d="M178 1635c5 11 1 31 2 42 2 9 11 10 10 25-16-21-13-42-12-67"/>
  <path fill="#f8fdfd" d="m256 1862 47 1 1 17c-3 4-13 15-14 18l-18 20h31l1 17h-47l-1-18c8-10 23-26 30-36l-1-1h-4l-25-1z"/>
  <path fill="#204069" d="M333 1733c0-5-1-20 1-24l1 19c16 0 40-1 55 1l2 1h453c5 0 15-2 16 2l-2 2h-82l-129-1-63 1H381l-2-3-3 2z"/>
  <path fill="#f8fdfd" d="m645 1811 22 1c13 0 4-6 9-12 4 0 3-1 6 1v3q0 6 2 7c5 1 4 0 7 3l1 12-1 2-8 1v38h-6c-7-4-18-22-24-30l-8-11z"/>
  <path fill="#204069" d="m659 1829 16-1v21z"/>
  <path fill="#f8fdfd" d="m180 1346 1-77q0-3 5-4l1 24v68l-6 1h-12q-29 2-59-1c-2 0-2-8 0-11 15-2 54 0 70 0"/>
  <path fill="#1a3d6b" d="m174 1279 2-16h1v34c4-10-2-22 3-31l6-1q-5 1-5 4l-1 77c-16 0-55-2-70 0-2 3-2 11 0 11q29 3 59 1l-4 2 3 2-2 5c-18-11-51 0-58-4-1-6-5-15-2-19 10-10 32-1 44-2q11-1 20-3l6 2c5-6 0-8 1-13l1-7c-1 6 0 12-7 13-8 2-16-1-24-1l-38 1c-11 1-8 21-22 26q-17 4-32-2 13 0 31-1c11-8 12-13 15-26h73z"/>
  <path fill="#c5c4c2" d="M223 1719c6 0 17-1 20 2v5c-5 13 7 19-14 19h3c-13-2-29 0-42-3q-2-3-2-7v-2q0-4 4-9l-4-1c2-3 25-2 31-3z"/>
  <path fill="#0e3160" d="M266 1423c14-2 60 1 68-1v16h-67c-5 8-7 12-10 21v-27zM320 1389h14v16c-14-3-54-1-70 0-1 2-5 10-7 11v-23l4-3c14-3 45 2 59-1"/>
  <path fill="#bfbfc0" d="m185 1719 34 1c-6 1-29 0-31 3l4 1q-4 5-4 9v2q0 4 2 7c13 3 29 1 42 3h-3c21 0 9-6 14-19l1 23-59-1z"/>
  <path fill="#204069" d="M281 1880h4l1 1c-7 10-22 26-30 36l-2-15c3 4 2 4 5 5 10-3 11-14 17-20l1-1-25-5q14-1 29-1"/>
  <path fill="#0f2b50" d="m171 1686 16 30c16 2 38-1 54 1q-11 2-18 2l-4 1-34-1-3-2c-1-5-6-17-10-21z"/>
  <path fill="#204069" d="m645 1811 1-3c7-4 19 3 28-8l1-2h8l3 6h-4v-3c-3-2-2-1-6-1-5 6 4 12-9 12zM256 1862c2-6 10-4 16-3q16 0 30 1c4 2 3 16 2 20l-1-17z"/>
  <path fill="#1a3d6b" d="M653 1837c6 8 17 26 24 30h6q0 4-3 6c-10-1-27-28-27-36"/>
  <path fill="#0e3160" d="M172 1696c4 4 9 16 10 21q-12-7-10-21"/>
  <path fill="#f8fdfd" d="M256 1843c2-21-4-46 7-66 5-12 18-14 28-7 8 5 10 16 12 24l1 1c3 11 2 37 1 49-1 6-42 4-47 2q-2-1-2-3"/>
  <path fill="#1a3d6b" d="m303 1794 1 1c3 11 2 37 1 49-1 6-42 4-47 2q-2-1-2-3h47z"/>
  <path fill="#1d4679" d="M265 1797q4-15 20-11c13 3 11 27 11 39-10 0-24 2-31-2q-2-4-1-9z"/>
  <path fill="#204069" d="M265 1797q4-15 20-11c13 3 11 27 11 39-10 0-24 2-31-2q-2-4-1-9 0 4 3 7c5 1 20-1 26-1 0-10 3-36-14-31l2 1c-14 0-10 4-16 7"/>
  <path fill="#f8fdfd" d="M46 1735c23-2 34 1 36 22q2 6-1 12c-1 15-6 34-26 32q-10-1-15-9c-8-10-7-23-6-35-4-8 6-17 12-22"/>
  <path fill="#1a3d6b" d="M46 1735c23-2 34 1 36 22q2 6-1 12v-2c-2-14-2-18-13-26q-26-8-34 16c-4-8 6-17 12-22"/>
  <path fill="#204069" d="m47 1759 13-1q8 1 13 6 3 4 2 8-2 6-9 9l-8 1q-10 0-16-6-3-4-3-7 2-7 8-10"/>
  <path fill="#1d4679" d="M48 1761c6 0 16-2 21 2l2 4q1 6-5 9h-1c-5 2-15 2-20-2q-2-3-2-5 1-5 5-8"/>
  <path fill="#f8fdfd" d="m425 1810 1-4c3-2 3-1 9-1v64l-2-1c-4 3-3 3-7 2q-3-1-1-6l-6-8-2 1-1-1c0-11-8-21-14-31h-2q-3 7-2 16l1 1h3v3l-2 1 1 2c1 5 2 13-4 15-13-8-15-58 4-59 8 0 17 22 21 29 3-7-1-17 3-23"/>
  <path fill="#1a3d6b" d="M435 1805v64l-2-1c-4 3-3 3-7 2q-3-1-1-6l-6-8-2 1-1-1c0-11-8-21-14-31h-2q-3 7-2 16l1 1h3v3l-2 1c-7-5-8-17-1-23 14-1 21 45 34 41 4-15-2-42 2-59"/>
  <path fill="#204069" d="M422 1833c3-7-1-17 3-23v26l-1 1z"/>
  <path fill="#f8fdfd" d="M136 1853c-3-2-19-34-13-39 7-5 45-6 51 0q1 10-1 21c-5 3-20 3-27 3l1 21q-6 1-10-1v-3z"/>
  <path fill="#1a3d6b" d="M136 1853c-3-2-19-34-13-39 7-5 45-6 51 0q1 10-1 21c-5 3-20 3-27 3l1 21q-6 1-10-1v-3q3 2 7 1l1-2q-1-11-6-20h33v-18h-47v14q10 9 11 23"/>
  <path fill="#f8fdfd" d="M547 1802q4 0 7 3c6 4 8 13 9 19 2 11 1 26-6 35q-1 4-6 4v-1c-4-8 3-17 5-24q1-8-2-14-2-3-5-3l-5 2q-4 8-3 17l-2 1-4-2v-3q-1-6-5-12-3-1-5 3c-8 8 4 16 4 26q1 5-3 9-3-1-5-5c-6-8-6-25-4-35q1-9 8-14h5q6 3 8 10 1-10 9-16"/>
  <path fill="#1d4679" d="M1727 1769c43 2 88-4 130 0 16 1 88-4 96 0q-7 6-9 15l-1 16 2 16q3 8 9 12l-2 1 5 12 6 12v2h27v6q1 7-1 11l-1 1q1 10 8 17h1q-1 12-4 23c-2 11-1 45-1 57v112l-48-1-1-96c1-37 4-79-13-113-8-16-25-25-42-15-14 8-20 31-23 45-4 27-3 47-3 73v106h-49v-113c0-31 4-111-43-115-19-2-32 29-35 45-6 27-4 57-4 85v99h-48v-112c0-21 2-42-2-63-3-22-16-59-44-54-11 2-18 13-24 22-18 40-9 81-11 125v82h-51v-37l1-36v-30l-1-20v-21a133 133 0 0 0-7-50c-5-16-15-35-34-35-25 0-35 36-38 55-4 22-2 46-2 67v106l-48 1v-107c0-36 4-94-28-119-7-7-18-31-23-40 8 0 46 1 50 4-3 4-2 24-1 29h2c-2-13-2-18 2-31 4-8 5-10 13-13q-2-3-5-4h22c9 4 10 6 13 16 10-3 70 0 83 0h2v-9l2-18c3-11 6-15 17-21 6 0 8 0 14 2q5 5 9 12l4 17q8 2 17 1c19-2 47 1 68-1l2-16 1-1q3-9 11-13l1-1c8-1 12-1 21 1z"/>
  <path fill="#f8fdfd" d="m1551 1959 2-12q0-3 4-4c8-4 33-5 41-1q2 12 1 25l-2-7q-1-5-6-8-6-1-12 1v2h14q8 26 6 54c3 6-1 14 3 19v54h-51v-37l1-36v-30z"/>
  <path fill="#1d4679" d="M1552 2009c2 10 5 22 14 28q6 3 14 2l6-3q10-11 13-27c3 6-1 14 3 19v54h-51v-37z"/>
  <path fill="#204069" d="M1552 2009c2 10 5 22 14 28q6 3 14 2l6-3 1 2q-6 6-14 5-11-4-18-14l-4 16z"/>
  <path fill="#1d4679" d="m1551 1959 2-12q0-3 4-4c8-4 33-5 41-1q2 12 1 25l-2-7q-1-5-6-8-6-1-12 1v2h-4l-2 3v1q0 17 1 34 3 2 7 1v-11q0-6 4-11l2 1q3 5 3 11c0 7 1 20-4 26q-4 5-10 6-6-2-10-6c-7-9-2-20-1-30v-6c3-5 0-14-1-19q-10 9-12 24z"/>
  <path fill="#1a3d6b" d="m1581 1994-1 7-3 1-3-3c-5-8-5-31-3-40l2-1v1q0 17 1 34 3 2 7 1"/>
  <path fill="#1a3d6b" d="m1590 1984 1 1c2 8 2 21-2 28q-4 5-10 6t-11-2q-7-6-9-16-2-14 6-27v6c-1 10-6 21 1 30q4 5 10 6 7-2 10-6c5-6 4-19 4-26"/>
  <path fill="#0e3160" d="M1727 1769c43 2 88-4 130 0 16 1 88-4 96 0q-7 6-9 15c-9-1-81-2-87 1h-36q-6 0-7 3v12c-14 1-71 3-82-1l-2-15c-4-8-5-10-11-14z"/>
  <path fill="#1d4679" d="M1730 1784q46-3 91 1-6 0-7 3v12c-14 1-71 3-82-1z"/>
  <path fill="#0e3160" d="M1857 1785c6-3 78-2 87-1l-1 16 2 16-11-1c-15-1-35 1-50 2h-52q3 7-2 9-7-2-7-10-3-10-9-16v-12q1-3 7-3z"/>
  <path fill="#1d4679" d="M1857 1785c6-3 78-2 87-1l-1 16c-22 4-58 0-81 0l-1 2q1-9-1-16z"/>
  <path fill="#f8fdfd" d="m1857 1785 3 1q2 7 1 16c-6 3-22 1-30 2h-3q0 6 4 13 3 7-2 9-7-2-7-10-3-10-9-16v-12q1-3 7-3z"/>
  <path fill="#0f2b50" d="M1832 1817q-4-7-4-13h3c7 1 29-1 31 2-4 10-21 0-29 4l1 4z"/>
  <path fill="#f8fdfd" d="M1571 1769c6 0 8 0 14 2q5 5 9 12l4 17 1 16v31c-10-2-36-1-47-1v-38l2-18c3-11 6-15 17-21"/>
  <path fill="#1a3d6b" d="M1569 1789q17-6 21 11l1 27h-31q-1-10 1-21 0-11 8-17"/>
  <path fill="#0e3160" d="m1569 1789 1 2q-4 3-5 7c4 4 16 4 22 4 1 3 0 10-1 13l-14 1h-10q-2-4-1-10 0-11 8-17"/>
  <path fill="#1d4679" d="m1572 1816 14-1c2 4 2 2 2 6-4 6-17 3-22 0l-1-1q3-3 7-4"/>
  <path fill="#f8fdfd" d="M1552 1865h47l-1 21v1q-12 17-25 30h27v-1h-7c15-5 4-27 20-41-18 40-9 81-11 125v28c-4-5 0-13-3-19q2-28-6-54h-14v-2q6-2 12-1 4 2 6 8l2 7q1-13-1-25c-8-4-33-3-41 1q-4 1-4 4l-2 12v-38l31-39h-22c-4 0-4 1-8-1q-1-7 0-16"/>
  <path fill="#1a3d6b" d="M1573 1917h27v-1h-7c15-5 4-27 20-41-18 40-9 81-11 125v28c-4-5 0-13-3-19q2-28-6-54h-14v-2q6-2 12-1 4 2 6 8l2 7q1-13-1-25c-8-4-33-3-41 1q-4 1-4 4l-2 12v-21h48v-18h-31c4-5 26-32 30-34v1q-12 17-25 30"/>
  <path fill="#f8fdfd" d="M1698 1769c8-1 12-1 21 1 6 4 7 6 11 14l2 15q-2 12-6 22l-2 2c-13 11-29 7-38-7l-3-16 2-16 1-1q3-9 11-13z"/>
  <path fill="#204069" d="M1691 1800q0-12 10-13 18-6 23 11c-3 18-29 17-33 2"/>
  <path fill="#0f2b50" d="M1691 1800c7 4 26 3 33-2-3 18-29 17-33 2"/>
  <path fill="#f8fdfd" d="M1432 1801h22c9 4 10 6 13 16h-1c3 11 6 40-7 45-4-2-4-14-1-18l-1-1q5-8-1-15-4 6-3 14h-1c-5 25-19 34-30 7-2-13-2-18 2-31 4-8 5-10 13-13q-2-3-5-4"/>
  <path fill="#1a3d6b" d="M1432 1801h22c9 4 10 6 13 16h-1c-8-13-15-14-29-12q-2-3-5-4"/>
  <path fill="#204069" d="M1452 1842c0-7 0-10-2-17l1-2c9 0 15 14 7 21l-1-1q5-8-1-15-4 6-3 14zM1436 1823q6 1 8 5 3 6 1 12-3 7-8 9-4-1-7-5-2-5-2-10 2-8 8-11"/>
  <path fill="#0e3160" d="M1732 1799c11 4 68 2 82 1q6 7 9 16c-7 1-19-1-27-1q-32 2-65 2l-3 5-2-1q5-10 6-22M1615 1801c19-2 47 1 68-1l3 16h-87l-1-16q8 2 17 1"/>
  <path fill="#f8fdfd" d="M1963 1855h27v6q1 7-1 11l-1 1h-12l-20-1 7 21-1 2h-6l-9-21-5-5 1-14z"/>
  <path fill="#ecfbfd" d="M1963 1855h27v6q1 7-1 11l-1 1h-12l-20-1c7-1 27-2 30-6 1-4 1-2-1-5-9-4-30-4-39-3-3 5 0 10 1 16l-5-5 1-14z"/>
  <path fill="#1a3d6b" d="M1813 2026c5 15-1 40 4 50 5 1 37 2 40 1 4-10-2-72 1-90 2-13-4-75 7-85-4 27-3 47-3 73v106h-49z"/>
  <path fill="#0f2b50" d="M1976 1873h12q1 10 8 17h1q-1 12-4 23c-1-11-10-26-16-35-2-3-1-2-1-5"/>
  <path fill="#1a3d6b" d="M1550 1817h2v29c11 0 37-1 47 1-6 7-40 5-48 2-4-5-1-24-1-32M1560 1882h22l-31 39c-2-13-3-21-7-33 7 9 5 14 11 20l2-1v-2l2 2q4-2 5-7c1-5 6-4 9-9l-2-6c-5-3-9 1-17-1q4 1 6-2M1686 1816c9 14 25 18 38 7v2q-4 5-9 7l6-2 1-1c-9 14-33 1-38-13zM1942 1869l5 5 9 21h6l1-2 1 4c-2 4-1 2-4 4-14-2-6-14-14-22q-4-4-4-10M1956 1872l20 1c0 3-1 2 1 5-23-6-11 7-14 15zM1934 1815l11 1q3 8 9 12l-2 1 5 12c-7-6-11-18-17-24z"/>
  <path fill="#f8fdfd" d="m1813 1851 48 1v17h-32l-1 2 5 15q1 3-2 5l-5 1-1-4c-5-17-12-16-12-37M1684 1856h47v18l-31-1-2 1c0 6 5 12 5 19q0 2-2 3h-3l-2-1-3-9-9-18z"/>
  <path fill="#204069" d="m1563 1860 4-1c7 0 26 0 31 4q-3 2-8 1c-7 1-31 2-36-1q3-2 9-3"/>
  <path fill="#1a3d6b" d="M861 1729h86l14 1h-4c3 8 10 26 16 31 7 2 20 0 27 0 25 1 56-2 81 2 3 0 45 83 44 89-4 1-4 0-9-1l-2-2q-6 2-10 6v5c-27 30-23 80-23 118v104h-47l-1-105v-33c2-26-5-90-41-90-26 0-35 39-39 61q-1 45-1 92v76h-49l1-73v-33c-1-13-2-46-1-57 0-17-8-44-20-56-31-31-54 11-58 40q-5 39-3 78v101h-48v-114c0-37 5-80-23-109-5-5-15-7-21-6q-14 3-20 14c0-6 1-5 2-9l-1-1h-28v-29l8-1 1-2c4-6 15-4 22-4 4-7 20-44 27-46 33-9 73 2 107-3 7-1 21-36 25-43z"/>
  <path fill="url(#c)" d="M861 1729h86l14 1h-4c3 8 10 26 16 31 7 2 20 0 27 0 25 1 56-2 81 2 3 0 45 83 44 89-4 1-4 0-9-1l-2-2q-6 2-10 6v5c-27 30-23 80-23 118v104h-47l-1-105v-33c2-26-5-90-41-90-26 0-35 39-39 61-4 5-2 6-3 12l-1-5c-5-4-22-2-29-2l30-36v-18h-45v-1c3-3 41-2 48-2l-1-15-1 2-46-2-1-1v-44c1-21 7-35 30-33v-1h5v1l-1-4c5-3 7 1 13-3v-2l-2-1-15-30h-61z"/>
  <path fill="#1d4679" d="M943 1730h14c3 8 10 26 16 31 7 2 20 0 27 0 25 1 56-2 81 2 3 0 45 83 44 89-4 1-4 0-9-1l-2-2c-2-19-22-45-31-62q-3-5-7-6c-35-3-71 2-106-3-6-8-23-38-27-48"/>
  <path fill="#f8fdfd" d="M904 1847v-44c1-21 7-35 30-33 10 9 15 16 16 31v45c-9 0-39-1-46 1"/>
  <path fill="#0e3160" d="M920 1789h4q7-2 12 3 7 8 7 19c0 4 0 14-3 17h-29v-20q1-12 9-19"/>
  <path fill="#f8fdfd" d="M1040 1855c-5-13-11-43 5-51l1 2c3 10-1 13-4 22q-2 14 10 17c1-3 0-15-1-20q1-11 9-20c9-10 18 4 20 12q5 16 1 30c1 7 1 8-2 14-6 11-23 11-33 5q-4-3-6-11"/>
  <path fill="#204069" d="M1081 1847c1 7 1 8-2 14-6 11-23 11-33 5q-4-3-6-11c15 16 34 13 41-8"/>
  <path fill="#1a3d6b" d="M1074 1840c-15 17-26-21-4-20 7 7 6 11 4 20"/>
  <path fill="#204069" d="M1074 1840c-15 17-26-21-4-20q-7 3-9 10c-1 13 7 11 13 10"/>
  <path fill="#f8fdfd" d="M914 1956q-3 0-8 2l-1-3q0-6 2-12c7-5 32-2 41-3v2c-1 4 2 8 0 12h-1l-5-3q-6-1-13 1l2 2h13q8 25 6 50l2 3v76h-49l1-73v-33q2-13 10-21"/>
  <path fill="#1d4679" d="M904 2010q1 9 7 19 4 7 14 10 7 0 12-4c9-7 12-20 13-31l2 3v76h-49z"/>
  <path fill="#204069" d="M914 1956q-3 0-8 2l-1-3q0-6 2-12c7-5 32-2 41-3v2c-1 4 2 8 0 12h-1l-5-3q-6-1-13 1l2 2q-4 0-6 2-1 18 1 37l1 1 6-2c1-6-3-15 2-18q3-1 4 1c5 5 4 20 3 28q-1 9-8 15-6 3-11 2-6-3-9-8c-4-9-4-23-1-32l5-7q1-8-2-16z"/>
  <path fill="#1d4679" d="M873 1730h14l-29 55c-5 7-33 5-41 5-24 2-50-1-74 1-7 10-18 34-26 47-7 1-26 3-31-1q-2-4 4-6l-7-2 8-1 1-2c4-6 15-4 22-4 4-7 20-44 27-46 33-9 73 2 107-3 7-1 21-36 25-43"/>
  <path fill="#f8fdfd" d="M905 1866h45v18l-30 36c7 0 24-2 29 2l1 5v9c-4 3-39 1-46 1l-1-17 31-37h-31c0-5-1-15 2-17"/>
  <path fill="#1d4679" d="M898 1730h36l15 30-1 2c-11 2-53 0-66-1q7-15 16-31"/>
  <path fill="#f8fdfd" d="M775 1853c0-8-3-49 5-48 8 5 0 25 4 34l6 2c3-6-3-35 11-38 28-6 24 56 10 59-3-4-4-13 0-17 7-8 5-23-7-25-11 5-5 21-4 30v12z"/>
  <path fill="#535351" d="M56 774h28v25h22v63H84l-1 33h23v16H84l-1 34 23-1v16H83v33h23v16H83v33h23v15H83v33h23v16H83v33h23v16H84v32c3 2 17 1 22 1v15H83v33l23 1v63H85l-1 25-29-1v-50H19V824h36z"/>
  <path fill="#050912" d="M84 1187v-32z"/>
  <path fill="#caab69" d="M1380 1863h2q14 3 21 15 10 17 12 37c4 31 1 69 1 101 0 18 3 48 0 65h-10q-1-12-7-25-6-11-16-15c-29 2-18 33-32 41q-3 0-5-2-1-41 0-82-2-42 1-83 2-18 11-35 7-14 22-17m5 115q13-9 16-24c4-16 4-40-5-54q-4-10-15-12h-1q-11 5-16 15c-7 16-7 40-1 56q3 12 13 18z"/>
  <path fill="#cfaa59" d="M1377 1868h3q9 0 16 5 9 9 11 24v2q5 13 7 27 0 20-1 42c0 27 4 80-2 105h-1q-2-5-3-11-6-16-20-24 0-3-4-4l-9 3c-18 8-12 28-23 36l-1-1c-4-27-1-55-1-82 1-27-3-54 2-81 2-14 14-33 26-41m8 110q13-9 16-24c4-16 4-40-5-54q-4-10-15-12h-1q-11 5-16 15c-7 16-7 40-1 56q3 12 13 18zM1411 200c-4 13-16 36-32 33-36-8-33-72-33-97V17c3-2 3-2 8-2 5 8 5 25 15 35 27 25 34-30 40-36q8 2 8 11l-1 113q1 24-1 47zm-28 6q13-6 17-21c6-16 5-39-2-54q-4-11-15-14l-3-1q-13 6-17 20c-6 16-6 40 2 56q4 9 13 13z"/>
  <path fill="#caab69" d="M1411 200c-4 13-16 36-32 33-36-8-33-72-33-97V17c3-2 3-2 8-2 5 8 5 25 15 35 27 25 34-30 40-36q8 2 8 11l-1 113q1 24-1 47c-2-4-2-58-2-65 0-28 5-72-2-99-6 12-13 34-25 39-14 6-27-11-30-22l-3-20h-4v1l4 1 1 5-1 1-2-3-1 19q-3 31-1 62c3 27-5 58 2 84 6 19 19 55 42 35 7-6 13-20 18-23M1607 15h7c6 2 5 27 19 38q6 4 13 3c16-4 16-31 22-40h9c2 14 0 39 0 54v64q1 28-2 55-4 20-16 36-6 8-16 8-10-1-17-7a76 76 0 0 1-17-39c-4-24-2-50-2-74zm51 114c-7-10-14-19-26-7-17 17-14 47-7 68 11 21 25 24 35 0q12-30-2-61"/>
  <path fill="#cfaa59" d="M1609 18h5l-4 2 1 2c5 5 6 15 10 21q5 14 18 19 6 2 11-1c13-7 13-24 18-36q1-4 5-5l1 1q2 14 1 29l-1 86q2 22 0 43v4l-1 2c-2 8-7 27-12 33l-2-1-4 6q-8 6-17 5l-11-8c-23-24-15-74-16-105zm49 111c-7-10-14-19-26-7-17 17-14 47-7 68 11 21 25 24 35 0q12-30-2-61"/>
  <path fill="#caab69" d="M1658 129c8 4 7 8 10 16 3 18 0 41-9 57-11 20-35 4-34-12 11 21 25 24 35 0q12-30-2-61M1087 14l8 1c6 6 5 18 8 25q6 11 17 15h9c12-7 14-26 18-38l3-1h7c2 11 0 40 0 53v99l-2 23q-4 19-16 33-7 8-18 9-8 0-14-7a77 77 0 0 1-17-38c-5-24-3-49-3-73zm36 193q14-6 19-22c6-16 5-39-3-54q-4-10-15-15h-2q-11 4-16 15c-8 16-8 39-2 56q4 12 16 19z"/>
  <path fill="#cfaa59" d="M1092 20c7 6 9 28 19 37q5 5 13 3c19-2 19-25 28-37l1 1c5 20 2 77 1 100 0 22 3 43-1 65l-2 6q-3 11-10 21-4 7-13 10-11 3-20-3c-10-8-14-30-16-42q-2-24-2-47l1-69c1-13-2-27-1-40zm31 187q14-6 19-22c6-16 5-39-3-54q-4-10-15-15h-2q-11 4-16 15c-8 16-8 39-2 56q4 12 16 19zM1676 1914q2 22 1 46v120q-4 2-8 1c-4-3-16-73-45-26-4 7-4 19-10 26-4 2-2 1-6 1-4-8 1-134 0-152 0-17 5-44 16-57 28-31 50 15 52 40zm-30 64q9-4 13-14c8-16 9-38 3-55q-4-12-14-19l-6-1q-10 2-15 12c-9 16-9 38-4 55q3 12 13 20 4 3 10 2"/>
  <path fill="#caab69" d="M1676 1914q2 22 1 46v120q-4 2-8 1c-4-3-16-73-45-26-4 7-4 19-10 26-4 2-2 1-6 1-4-8 1-134 0-152 0-17 5-44 16-57 28-31 50 15 52 40-7-10-7-34-21-41-4-2-16-5-20-2-31 22-24 65-25 97l2 104 2 2 1-1c5-14 5-28 20-35 22-10 30 21 33 36l1-1h2l2 4c3-11 1-29 1-41l1-26c-1-11-2-89 1-95M1119 1864q12 0 19 7c10 10 15 26 17 39 4 22 2 45 2 67v104h-10l-2-11q-4-19-18-28l-4-1c-24-1-18 30-29 41l-6-1c-3-15-1-43-1-59 0-32-2-72 1-102q1-16 7-31 7-18 24-25m21 100 3-12q5-18 0-38c-3-14-10-27-27-24-35 30-7 122 24 74"/>
  <path fill="#cfaa59" d="M1118 1869q7-2 12 3c16 9 20 33 24 49q2 10 1 21v120l-3 12h-2l-1-3q-1-9-5-16l-5-10-7-5q-7-6-16-2c-20 10-17 34-23 38l-2-2q-3-16-1-32l-1-19q-1-57 4-113l-1 4q0-11 4-21c5-9 12-20 22-24m22 95 3-12q5-18 0-38c-3-14-10-27-27-24-35 30-7 122 24 74"/>
  <path fill="#caab69" d="M1140 1964c0 6-5 15-9 19h-3c-16 7-23-9-27-21q-6-20-5-41c1-10 8-32 20-31-35 30-7 122 24 74M1247 1864h4q11 1 18 9 13 18 16 38 3 23 2 44l-1 56c0 18 2 46 0 64q0 4-2 7c-14-1-6-28-28-40l-1-1h-6c-19 3-17 28-25 39l-6 2-1-2c-2-4-1-144 0-158q0-15 5-29 6-20 25-29m18 33c-23-26-37 17-36 36 0 12 2 30 11 40 23 18 32-18 34-31 0-16 0-30-9-45"/>
  <path fill="#cfaa59" d="m1249 1869 5 1q20 7 24 28 0 9 3 16h1l-1-6 1-1c4 6 1 148 0 166q-3 0-4 2l1 2 4 1h-6q0-7 2-12c0-5-7-18-11-21l-2-1q-6-5-12-8c-34 6-21 28-31 39l-4-1c-1-17 2-34 1-51 0-40-9-99 9-136q6-14 20-18m16 28c-23-26-37 17-36 36 0 12 2 30 11 40 23 18 32-18 34-31 0-16 0-30-9-45"/>
  <path fill="#caab69" d="M1251 1882q14 3 14 15c-23-26-37 17-36 36 0 12 2 30 11 40 23 18 32-18 34-31q2 14-5 27c-16 36-38 7-42-19-5-32-4-49 24-68M1509 1863h4q13 4 19 16 10 17 12 36 2 24 1 47v63c0 15 2 43-1 56l-4 1c-7-4-8-18-11-24q-4-12-16-17h-5c-19 3-17 27-25 39l-6 2-1-2q-2-41-1-82c0-28-2-57 2-85q1-17 10-32 7-13 22-18m-5 115q8 1 14-3c11-7 13-22 15-34 0-16 0-36-13-47q-4-4-10-6-13 5-18 19c-7 17-6 41 2 58q3 6 9 11z"/>
  <path fill="#cfaa59" d="M1505 1869h6c7 1 15 8 19 13 8 10 11 28 12 41 2 17 0 45 0 64v70l-1 14-1 3-2-3q-4-21-22-36h-10q-11 7-17 18c-5 9-3 17-12 24v-90q-1-34 2-66 2-17 9-32 5-14 17-20m-1 109q8 1 14-3c11-7 13-22 15-34 0-16 0-36-13-47q-4-4-10-6-13 5-18 19c-7 17-6 41 2 58q3 6 9 11z"/>
  <path fill="#caab69" d="m1504 1978-5-2q-11-8-13-23c-4-17-2-42 8-58q5-8 14-11 6 0 12 4 12 10 14 25c1 7 3 23-1 28 0-16 0-36-13-47q-4-4-10-6-13 5-18 19c-7 17-6 41 2 58q3 6 9 11z"/>
  <path fill="#cfaa59" d="M1534 24q0-6 2-8h8q3 4 2 7l-1 62c-1 27 4 88-4 111l-3 10c-8 23-32 39-47 16-26-38-13-103-16-147 0-15-1-47 1-58 3-2 1-2 4-2 10 5 10 45 33 41 9-2 10-8 15-14zm-20 182q14-9 17-26c4-16 3-39-6-53q-5-8-13-11l-5 1q-13 8-17 23c-5 17-4 38 4 53q5 9 14 13z"/>
  <path fill="#caab69" d="M1538 206c-8 23-32 39-47 16-26-38-13-103-16-147 0-15-1-47 1-58 3-2 1-2 4-2 10 5 10 45 33 41 9-2 10-8 15-14 1 7-7 14-14 16q3 1 6-1c-4 7-12 5-19 2-13-6-13-35-21-38-7 4-1 48-1 58-1 34-4 68 1 102q1 10 4 22l1 1v-3h1l5 11c-4 9 7 10 13 14 20 13 26-15 34-20M1534 24q0-6 2-8h8q3 4 2 7l-1 62c-1 27 4 88-4 111-3-57 5-119-1-175l-1-3zM1216 15h7c6 5 6 17 9 24q4 11 15 16 5 2 10 0c13-5 16-27 20-38q3-2 7-1l2 1q2 31 0 62c0 33 3 83-3 113q-3 18-14 32-7 8-18 9-9-1-15-7a75 75 0 0 1-17-37c-5-23-3-47-3-70zm47 107c-11-7-20-8-27 6-10 21-9 47 1 68q5 6 11 9 6 2 10-1c14-8 17-34 16-49 0-14-5-21-11-33"/>
  <path fill="#cfaa59" d="m1221 20 2 2 1 1s9 30 20 36q7 3 14 1l1-1 3-1q8-5 10-15l-1 2 5-12-1 4 5-12 1-1 1 13v66q1 36 1 74l-3 16c0 5-8 17-10 22q-4 9-13 12-10 1-18-5c-17-13-17-42-19-61v3-67c0-20-4-59 1-77m42 102c-11-7-20-8-27 6-10 21-9 47 1 68q5 6 11 9 6 2 10-1c14-8 17-34 16-49 0-14-5-21-11-33"/>
  <path fill="#caab69" d="M958 14h7c6 5 6 19 9 26q5 11 16 15h9c13-7 15-27 19-39l3-1 6 1q3 34 1 68c0 32 3 76-2 106q-4 19-16 34-7 8-18 9-8-1-14-6a75 75 0 0 1-18-39c-4-23-2-47-2-70zm17 176c8 12 16 25 31 9 16-19 15-88-20-82-19 24-19 45-11 73"/>
  <path fill="#cfaa59" d="M962 19c9 8 7 22 13 32q5 7 13 9t16-4c12-8 12-18 15-30q1-4 3-5l3 1-2 53c0 29 5 59 2 87l-2 13q1 5-2 10c-4 11 0 22-10 34-6 8-14 8-23 9-12-7-20-22-24-36-4-15-2-45-2-62-1-33-4-72-2-106zm13 171c8 12 16 25 31 9 16-19 15-88-20-82-19 24-19 45-11 73"/>
  <path fill="#c7a358" d="M975 190c-15-13-10-71 11-73-19 24-19 45-11 73"/>
  <path fill="#caab69" d="M828 14h7l2 1c4 5 5 23 13 34q3 5 9 7 7 0 12-4c12-9 14-24 16-37h11v105c0 23 2 48-3 72q-3 16-14 31-8 9-18 10-9 1-14-6a79 79 0 0 1-20-43q-3-31-1-63zm54 175c5-19 7-45-4-61-18-27-35 0-36 20-2 20-1 22 3 40q4 10 12 16 5 3 9 1 12-4 16-16"/>
  <path fill="#cfaa59" d="M870 59c15-14 12-25 21-39h2l2 5c2 14-1 38-1 52 0 17 4 105-1 112l-1 4c-8 9-8 20-20 32q-7 2-13 1-9-1-14-9-8-12-11-25c-4-23-3-51-4-74 0-30-2-66 2-95l4-2 5 20q4 13 18 18zm12 130c5-19 7-45-4-61-18-27-35 0-36 20-2 20-1 22 3 40q4 10 12 16 5 3 9 1 12-4 16-16"/>
  <path fill="#caab69" d="M845 188h-2c-6-10-7-25-6-35 1-20 17-63 40-33 3 3 8 13 9 16 3 13 8 44-4 53 5-19 7-45-4-61-18-27-35 0-36 20-2 20-1 22 3 40"/>
  <path fill="#cfaa59" d="M1752 2057c-3 8-3 19-8 24h-6c-3-4-2-153 1-169 2-15 8-36 21-45q7-4 15-3 11 2 17 12 11 17 13 37c4 29 2 70 2 100 0 17 2 52-1 67q-2 3-5 2c-6-3-10-27-17-35q-4-6-10-7-10 1-17 8zm25-80q12-8 15-23c5-17 4-39-5-54q-4-9-14-11l-2-1q-12 6-17 17c-7 17-7 40 0 57q3 11 14 15z"/>
  <path fill="#caab69" d="M1752 2057c-3 8-3 19-8 24h-6c-3-4-2-153 1-169 2-15 8-36 21-45q7-4 15-3 11 2 17 12 11 17 13 37c4 29 2 70 2 100 0 17 2 52-1 67q-2 3-5 2c-6-3-10-27-17-35q-4-6-10-7-10 1-17 8 1-4 5-7 9-4 20-1-7-4-14-3l-6 2h-1q3-4 8-5 6 0 11 2a51 51 0 0 1 18 39q1-2 4-2c6-11 4-153 0-167-3-11-9-29-20-35q-6-4-16-2c-10 4-17 20-21 30q-4 7-4 15c-3 23 0 47 0 69 0 31-3 61-1 92l2 1c6-4 3-17 10-19M858 1864h9q12 5 19 17 8 17 11 35c1 16 2 156-1 165l-1 1c-13-1-8-27-27-40h-1q-5-2-11 1c-14 6-13 23-19 35l-4 4q-3 1-5-2-1-31 0-64-1-46 0-91 1-15 5-30 6-22 25-31m6 115q12-5 17-17c7-17 7-40 0-57q-4-10-14-15l-5-1q-13 4-16 17c-8 17-7 40 0 57q4 12 14 16z"/>
  <path fill="#cfaa59" d="m857 1869 6 1c7 1 16 6 19 12 8 10 11 27 12 39l1 31-1 73c0 14 3 35 1 48l-3 3c-4-1-7-21-12-28q-5-9-13-11h-2l-3-1q-10 2-17 9-8 10-9 22v5l-4 2c-4-17-2-43-2-61 0-33-3-68 2-102q2-11 6-20 6-15 19-22m7 110q12-5 17-17c7-17 7-40 0-57q-4-10-14-15l-5-1q-13 4-16 17c-8 17-7 40 0 57q4 12 14 16z"/>
  <path fill="#caab69" d="M1900 1863h2q12 1 19 10c8 9 13 24 15 37 4 26 1 71 1 99q2 35 0 69l-1 4c-16-2-7-28-28-41h-7c-21 2-17 27-26 39q-3 3-6 1l-1-2v-95q-2-35 1-69 2-17 8-31 7-15 23-21m25 69c0-19-4-36-22-44-16 6-18 14-22 29-2 18-2 37 8 53 5 7 16 11 23 5 11-10 13-29 13-43"/>
  <path fill="#cfaa59" d="m1900 1868 6 1c10 2 14 12 19 20h3c-1 17 6 21 7 32v152l-4 3c-7-6-3-26-21-39l-2-1h-1q-10-1-17 6c-6 6-14 21-14 29l1 1-1 1-3-1-1-3-1-12q0-40 1-80c0-19-3-38-1-56q1-17 7-32c5-8 13-18 22-21m25 64c0-19-4-36-22-44-16 6-18 14-22 29-2 18-2 37 8 53 5 7 16 11 23 5 11-10 13-29 13-43"/>
  <path fill="#caab69" d="M1909 1983c-11 1-14 1-23-8-8-9-15-51-5-58-2 18-2 37 8 53 5 7 16 11 23 5 11-10 13-29 13-43q6 30-16 51"/>
  <path fill="#cfaa59" d="M993 1863c18 5 25 18 30 35q3 11 4 23 2 68 1 135v22q-1 6-7 5c-7-6-5-18-10-27q-4-9-12-14c-22-6-27 19-32 35q-1 5-5 6l-4-3v-122c0-32-3-83 35-95m4 115q13-8 16-24c5-16 5-39-5-54q-4-7-12-10h-8q-14 11-16 30c-3 15-2 37 7 51q5 6 13 8z"/>
  <path fill="#caab69" d="M993 1863c18 5 25 18 30 35-8-8-18-43-40-25-30 24-23 85-23 119 0 17-2 72 1 82l2 2 13-33 11-7 10 1 17 13c2 8 4 25 8 29 5 0 4-4 6-8v7q-1 6-7 5c-7-6-5-18-10-27q-4-9-12-14c-22-6-27 19-32 35q-1 5-5 6l-4-3v-122c0-32-3-83 35-95M699 15h7c6 4 6 16 8 22q4 12 15 18 5 2 11 0c12-5 15-27 19-39l2-1 7 1c2 12 1 37 1 50v105l-3 21q-3 18-15 32-7 8-18 9-9-1-15-7-13-16-17-37c-4-22-2-46-2-69zm15 170c4 9 5 11 12 18 29 18 47-60 12-87-8 0-10 2-16 7a75 75 0 0 0-8 62"/>
  <path fill="#cfaa59" d="M703 20c7 4 7 30 22 40q6 3 11 2l9-6c12-11 9-21 16-34l4 1c2 11 1 158-1 165 0 9-7 26-13 33q-11 9-25 7l-10-12q-10-16-13-37-1-20 0-41l-1-82q-1-18 1-36m11 165c4 9 5 11 12 18 29 18 47-60 12-87-8 0-10 2-16 7a75 75 0 0 0-8 62"/>
  <path fill="#caab69" d="M738 116c25-2 37 81-2 94l-11-4 1-3c29 18 47-60 12-87"/>
  <path fill="#c7a358" d="M714 185c-12-7-9-56 8-62a75 75 0 0 0-8 62"/>
  <path fill="#cfaa59" d="M584 35c10 23 27 31 39 4q3-11 7-23 5-2 9 1l1 2v93c0 24 3 87-13 104l-6 9c-27 24-45-15-49-37q-3-27-2-53V35c0-5-2-17 2-20 12 0 9 9 12 20m23 171q14-7 18-22c5-16 4-39-4-55q-4-9-15-13h-3q-13 6-17 21c-6 17-5 40 3 56q5 9 14 13z"/>
  <path fill="#caab69" d="M584 35c10 23 27 31 39 4q3-11 7-23 5-2 9 1l1 2v93c0 24 3 87-13 104-1-7 9-27 9-33-1-21 4-154-2-162l-1 2h-2c-2 2 1 6-1 10-11 32-30 43-47 8h-1c-4-7-2-14-7-18-3 5-3 24-3 30 2 24-1 49 0 74 1 27-4 53 9 79l-2-5 8 14q7 11 19 14c8 2 15-11 21-13l-6 9c-27 24-45-15-49-37q-3-27-2-53V35c0-5-2-17 2-20 12 0 9 9 12 20M1737 15h7c5 4 5 17 8 23q5 12 16 18h10c12-6 15-27 19-39q4-2 8-2l1 2c2 11 1 35 1 47v67q1 30-3 60-3 19-16 34-6 8-17 8-8-1-14-6a73 73 0 0 1-18-39c-4-23-2-47-2-71zm40 191q16-13 17-34c2-14 0-36-9-48q-5-7-13-8l-3 1q-14 7-17 23c-5 16-5 38 3 53q5 9 14 13z"/>
  <path fill="#cfaa59" d="M1744 23zc1 10 8 28 15 33q10 7 22 4 13-18 20-38l2-1c4 16 0 78 0 100q1 26 1 51-2 14-7 27-3 11-9 20-6 8-16 8c-16 1-13-11-21-18l1 4h-2l-2-2c-5-8-7-28-8-38q-1-33 0-65c0-16-3-74 2-86zm33 183q16-13 17-34c2-14 0-36-9-48q-5-7-13-8l-3 1q-14 7-17 23c-5 16-5 38 3 53q5 9 14 13z"/>
  <path fill="#caab69" d="M730 1864h8q13 5 19 17 9 16 10 34c2 14 3 157 0 166l-1 1c-13-1-7-29-28-40l-1-1q-5-1-11 2c-12 6-13 21-17 33q-1 4-5 6-3 1-4-2c-3-16-1-45-1-62 0-32-2-69 1-100q1-15 7-31t23-23m4 116q7-2 12-7l6-10q7-22 3-46c-4-16-10-33-30-25-19 24-21 73 9 88"/>
  <path fill="#cfaa59" d="M728 1869h11c7 3 14 14 17 20q6 13 8 25c1 8 2 23 1 31l-1 9 2 17c1 20 3 88-1 102l-2 1c-7-6-12-28-23-39l-11 1c-18 7-15 22-22 35q-1 3-4 2 1-11-1-22v-38q1-21 1-44l-1-44 6-25-2-6c5-10 12-22 22-25m6 111q7-2 12-7l6-10q7-22 3-46c-4-16-10-33-30-25-19 24-21 73 9 88"/>
  <path fill="#c7a358" d="m755 1917 4 4c6 12 4 33-7 42q7-22 3-46"/>
  <path fill="#cfaa59" d="M506 1897c2 7 4 21 4 29l1 122-1 32-4 3c-9-2-8-29-19-37-31-20-31 28-38 35h-7l-1-1v-89c2-35-5-75 10-107 16-34 44-21 53 9l1 2zm-9 57c4-22 3-34-6-55-5-5-7-9-15-9-21 1-24 35-23 51 1 14 6 31 20 38l1 1h2c14-7 15-10 21-26"/>
  <path fill="#caab69" d="M506 1897c2 7 4 21 4 29l1 122-1 32-4 3c-9-2-8-29-19-37-31-20-31 28-38 35h-7l-1-1v-89c2-35-5-75 10-107 16-34 44-21 53 9l1 2c-5-3-15-26-25-26-18-2-33 27-35 41q-1 25 0 49c0 24-4 96 2 115l2 1c2-9 0-12 5-19 4-6 6-15 13-19l2 2q2-3 6-5 8 1 13 7l4 3q5 16 12 30l2 1c3-6 2-97 1-110v-33c0-9-3-28-1-35"/>
  <path fill="#c7a358" d="M491 1899c14 6 14 41 8 54l-2 1c4-22 3-34-6-55"/>
  <path fill="#caab69" d="M441 15h6c8 5 8 24 14 32q7 8 16 9c19 0 18-32 25-40h8c3 15 1 37 1 52v67q1 27-3 53-2 20-15 35-7 10-18 10-9 0-14-7a75 75 0 0 1-18-37c-4-22-2-46-2-68zm54 172c6-25 8-57-18-72-8 3-10 4-15 11-23 42 6 116 33 61"/>
  <path fill="#cfaa59" d="M445 20zq4 4 4 10c3 10 9 25 18 29q6 4 13 1c14-5 18-25 24-37h1v26q3 42 2 84 1 28-2 55l-1 4c-2 13-13 28-24 36q-12-3-20-11c-8-8-14-25-16-37-4-21 0-46 0-67l-1-31zm50 167c6-25 8-57-18-72-8 3-10 4-15 11-23 42 6 116 33 61"/>
  <path fill="#c7a358" d="M462 126c0-11 0-6 6-11 11-9 13-5 22 4 11 10 19 61 5 68 6-25 8-57-18-72-8 3-10 4-15 11"/>
  <path fill="#caab69" d="M241 15q5-1 9 1c3 20 0 43 0 63 0 31 3 71 0 102q-2 16-9 31-5 14-18 20-9 2-17-2c-11-6-16-19-20-31q-4-14-5-29c0-16-1-148 1-154h8c6 7 5 20 10 28q5 9 14 12 5 1 9-2c12-9 16-26 18-39m-31 190c29 4 32-43 27-63-8-29-26-37-40-6-5 21-7 41 5 60q5 6 8 9"/>
  <path fill="#cfaa59" d="M185 19c7 3 9 30 24 40q10 2 18-3c13-8 10-20 15-32q0-3 4-4 3 3 2 8 0 18-1 36l1 13-1 101c-5 20-7 35-23 50h-16c-6-6-15-17-19-25-11-26-3-100-3-132 0-11-4-43-1-52m25 186c29 4 32-43 27-63-8-29-26-37-40-6-5 21-7 41 5 60q5 6 8 9"/>
  <path fill="#caab69" d="M197 136c-2-18 10-27 27-24 14 12 17 26 19 44 1 18-4 51-26 53q-4 1-6-2l-1-2c29 4 32-43 27-63-8-29-26-37-40-6M312 15h7c5 4 6 14 7 20q4 12 15 19 5 3 11 2c13-6 15-28 20-40l8-1 1 2c2 12 0 30 0 43l1 71q1 30-3 59-3 18-14 33-7 9-18 10-10 0-16-7-13-15-16-35c-5-23-3-48-3-71zm58 147v-3c-1-21-15-62-38-32q-14 29-3 60c8 23 29 25 37 1q3-13 4-26"/>
  <path fill="#cfaa59" d="M316 22h3l4 12v4q4 13 16 21 7 3 13 1c16-7 16-24 21-34q2-3 6-4v3c-3 12 0 65 0 80q1 36-1 72 1 4-1 6c-1 13-10 32-20 41q-4 4-9 3-11-2-18-12c-23-30-14-93-14-129V22m54 140v-3c-1-21-15-62-38-32q-14 29-3 60c8 23 29 25 37 1q3-13 4-26M381 2055c0 6 2 16 0 22q-1 4-4 5l-6-2-5-20q-5-13-16-19h-8c-15 6-16 28-21 40h-8l-1-6q-2-29 0-58c0-30-3-81 2-109q3-19 15-34 6-9 17-10 9 0 16 8c26 25 20 85 19 118zm-34-75c13-6 15-11 20-25l1-1c2-15 4-51-12-62-11-7-20 3-26 12-9 25-11 63 17 76"/>
  <path fill="#caab69" d="M381 2055c0 6 2 16 0 22q-1 4-4 5l-6-2-5-20q-5-13-16-19h-8c-15 6-16 28-21 40h-8l-1-6q-2-29 0-58c0-30-3-81 2-109q3-19 15-34 6-9 17-10 9 0 16 8c26 25 20 85 19 118l-1 1q-2-9-1-19c0-28 4-87-26-102q-8 0-15 2c-5 2-13 19-17 24-13 18-6 153-6 183h1v-3c2-2 3 0 5-3v-8q-1-8 5-14c4-6 13-16 20-16q6 0 10 5l4 4c4 7 13 28 18 32 5-10-2-37 2-46q0 12 1 25"/>
  <path fill="#c7a358" d="m340 1983-5-5-8-9c-7-13-11-56 3-65-9 25-11 63 17 76 13-6 15-11 20-25l1-1c1 14-5 20-14 29z"/>
  <path fill="#caab69" d="M213 1864h2q11 1 18 9 13 15 15 35c5 28 2 59 2 88l1 78q0 5-3 8c-14-1-6-27-27-40l-1-1h-4c-22 2-17 29-27 40l-7 1-1-2v-94q-1-35 1-70 2-16 8-30 7-16 23-22m8 114q14-10 16-28c3-16 2-38-7-51q-4-7-12-9h-7q-13 10-15 25c-5 16-4 40 6 55q4 8 12 9 4 1 7-1"/>
  <path fill="#cfaa59" d="M211 1869h11q8 4 13 13 10 16 12 31c3 20 2 46 1 65l-3 25 3 39v37l-2 1-3-1 3-1v-2c-5-11-9-27-18-35h-1q-5-4-9-4-6-1-11 2c-5 4-13 13-14 20 0 4-2 14-5 17l-2-1-2-7q1-11 1-23l-1-62v-56q1-15 4-28c3-10 15-25 23-30m10 109q14-10 16-28c3-16 2-38-7-51q-4-7-12-9h-7q-13 10-15 25c-5 16-4 40 6 55q4 8 12 9 4 1 7-1"/>
  <path fill="#caab69" d="M61 15c3 2 8 28 15 36q5 4 11 4c22-1 18-28 28-40h6c3 14 1 47 1 62v94l-4 26q-4 17-16 30-7 6-16 5-11-1-17-10-13-16-15-37c-4-28-1-66-1-95q-2-35 0-69 3-4 8-6m41 182q9-18 9-38c0-13-4-34-16-41q-6-2-11 0c-24 9-26 73 1 88q11 0 17-9"/>
  <path fill="#cfaa59" d="m115 20 4 2c3 9-2 63-2 77l2 31a556 556 0 0 1-5 72l-1-2h-1l-3 8c-4 7-9 16-16 18q-7 3-15-1c-11-6-16-22-19-33v-2l-4-19q0-27 2-53l-1-65c0-7-2-25 2-30 5 3 7 12 8 18 2 5 9 14 13 17q8 4 15 2c15-4 15-28 21-40m-13 177q9-18 9-38c0-13-4-34-16-41q-6-2-11 0c-24 9-26 73 1 88q11 0 17-9"/>
  <path fill="#caab69" d="M85 206c-24 2-26-51-21-67 17-57 50-18 50 21 0 12 2 31-12 37q9-18 9-38c0-13-4-34-16-41q-6-2-11 0c-24 9-26 73 1 88M85 1864h4q11 2 18 12 12 16 13 36 3 24 2 47v70c0 15 2 35 0 49l-3 5c-13-1-6-30-28-41l-1-1q-7 0-12 5c-11 8-13 23-15 36l-10-4-1-100c1-21-1-42 2-63q2-16 8-30 8-16 23-21m-13 104 3 3q5 8 15 9c28-4 28-93-4-90-7 1-12 9-16 15-7 25-7 38 2 63"/>
  <path fill="#cfaa59" d="M91 1869q8 3 12 8c24 26 16 115 15 150v44q1 3-2 6v-1l-8-25q-5-11-14-14-8-2-15 2l-1 1c-6 4-13 15-15 22q0 5-2 11h-2q-3-4-2-8l-1 8c-4-5 1-148 1-165 8-10 8-23 17-32q7-8 17-7m-19 99 3 3q5 8 15 9c28-4 28-93-4-90-7 1-12 9-16 15-7 25-7 38 2 63"/>
  <path fill="#caab69" d="M2031 1863q10 0 18 8 13 15 16 38c4 20 2 41 2 62v96l-10 10q-2-15-10-27-6-9-16-10c-24 7-17 29-26 39q-2 3-5 2l-2-2c-2-4-1-150 1-164q2-20 11-37 7-12 21-15m6 114q13-8 16-22c4-17 4-39-5-55q-3-8-13-11l-4-1q-12 5-17 18c-6 17-6 39 1 56q4 10 13 15z"/>
  <path fill="#cfaa59" d="M2032 1868q9 0 15 7c26 26 17 107 17 143l1-8c0 9 1 49-1 54q-1 4-5 4c-7-6-7-23-18-30h-1l-7-4c-20-3-21 32-31 40l-1-1c-3-15-1-35-1-51v-61l1-36q1-24 13-44 5-11 18-13m5 109q13-8 16-22c4-17 4-39-5-55q-3-8-13-11l-4-1q-12 5-17 18c-6 17-6 39 1 56q4 10 13 15z"/>
  <path fill="#caab69" d="m1998 15 7 1c2 0 7 20 8 23 3 6 8 16 15 18q5 1 9-2c14-8 17-22 20-36l10 9v90c0 26 2 53-3 78q-4 16-15 29a22 22 0 0 1-33 1 77 77 0 0 1-17-40q-3-34-1-67zm38 191q13-7 16-21c6-18 5-41-4-58q-5-8-14-10h-3q-13 5-17 19c-7 16-6 40 1 56q4 9 13 13z"/>
  <path fill="#cfaa59" d="M2002 20c9 8 5 26 14 34 7 7 16 6 24 6q11-10 16-25 1-4 3-7h2l2 4-1 159q-5 12-11 23-6 9-16 13-8 2-15-3-12-11-14-26-5-18-5-35 0-20 1-39l-2-18c0-11-1-81 2-86m34 186q13-7 16-21c6-18 5-41-4-58q-5-8-14-10h-3q-13 5-17 19c-7 16-6 40 1 56q4 9 13 13z"/>
  <path fill="#f8fdfd" d="m904 15 48-1v157l-2-1q1-10-1-18c-3-3-2-2-8-2h-23l-15 1v16c-1-5 0-29 1-37V15"/>
  <path fill="#1d4679" d="m904 15 48-1v74h-2c-1-13-4-31-19-34-18-4-24 14-27 27zM950 88h2v83l-2-1q1-10-1-18c-3-3-2-2-8-2h-23l-15 1v16c-1-5 0-29 1-37h46z"/>
  <path fill="#204069" d="M950 88h2v83l-2-1q1-10-1-18c-3-3-2-2-8-2l-10-1q8-2 17-1l1-1c-1-6 0-6-3-11-6-3-35-4-39 3q-1 3 3 6l-2 3c6 0 6-1 10 2l-15 1v16c-1-5 0-29 1-37h46z"/>
  <path fill="#204069" d="M921 73h10q5 1 8 6c5 9 5 23 2 32q-3 2-8 1h-22q-1-14 1-27 2-8 9-12"/>
  <path fill="#1d4679" d="M921 77q8 0 14 4 4 4 5 9v17l-2-1h-2l-14 1q-4 0-8-2-2-7-1-13 1-9 8-15"/>
  <path fill="#535351" d="M5 824q5-1 9 2 2 27 1 56v106q-6 2-10-1c-2-10 0-36 0-47zM5 1109q5-1 9 2 2 29 1 57l-1 105H6c-3-7-1-142-1-164"/>
  <path fill="#c5c4c2" d="M44 773c5 0 5-1 8 2v41H29v-43zM29 1282h23v43H29z"/>
  <path fill="#9f9f9e" d="M86 1014h20v22H86zM86 1160h20v22H86zM86 917h20v22l-20-1zM86 1111h20v22H86zM86 1209h20v21H86zM86 1063h20v21H86z"/>
  <path fill="#bfbfc0" d="M86 965h20v22H86z"/>
  <path fill="#9f9f9e" d="M86 868h20v21l-20 1z"/>
  <path fill="#050e1c" d="M25 798c1-11-1-20 2-29q1-3 7-3c-2 3-3 2-3 6l13 1H29v12c-2 10 0 27-4 32h-6c4-1 3 0 6-3q2-8 0-16"/>
</svg>
