<svg version="1.1" xmlns="http://www.w3.org/2000/svg" style="display: block;" viewBox="0 0 4095 4095" width="1439" height="4095" preserveAspectRatio="none">
<defs>
	<linearGradient id="Gradient1" gradientUnits="userSpaceOnUse" x1="3516.82" y1="2233.36" x2="3545.64" y2="2311.46">
		<stop class="stop0" offset="0" stop-opacity="1" stop-color="rgb(86,85,69)"/>
		<stop class="stop1" offset="1" stop-opacity="1" stop-color="rgb(110,108,78)"/>
	</linearGradient>
	<linearGradient id="Gradient2" gradientUnits="userSpaceOnUse" x1="578.671" y1="2229.04" x2="588.142" y2="2147.65">
		<stop class="stop0" offset="0" stop-opacity="1" stop-color="rgb(80,78,62)"/>
		<stop class="stop1" offset="1" stop-opacity="1" stop-color="rgb(102,100,72)"/>
	</linearGradient>
</defs>
<path transform="translate(0,0)" fill="rgb(129,124,89)" d="M 2662.99 42.9612 C 2685.34 29.0261 2748.11 9.66948 2774.95 5.62054 C 2815.06 -0.431591 3114 -1.80157 3149.64 6.43508 C 3182.23 13.9695 3215.53 28.6592 3247.15 39.748 C 3277.6 50.428 3311.84 59.1546 3340.45 73.576 C 3344.59 75.6649 3347.79 78.5125 3351.12 81.696 C 3340.46 94.9007 3350.08 110.579 3343.05 131.316 L 3343 141.599 C 3344.95 149.641 3345.68 153.287 3348.95 160.777 C 3351.43 158.978 3352.73 107.545 3355.29 97.7276 C 3355.74 123.838 3357.02 161.981 3357.68 187.4 C 3358.26 209.681 3355.36 303.387 3359.75 318.773 C 3357.33 327.077 3357.34 329.86 3348.77 334.292 C 3348.58 406.34 3352.37 469.971 3353.7 541.348 L 3360 831.555 C 3361.33 913.738 3360.42 996.412 3365.43 1078.94 L 3365.59 1109.01 L 3368.04 1107.03 C 3371.86 1116.59 3375.95 1112.83 3381.27 1123.65 C 3381.4 1138.93 3385.24 1216.57 3377.71 1224.11 C 3361.22 1240.6 3218.41 1282.38 3187.48 1287.81 C 3173.25 1290.3 3159.01 1289.54 3144.63 1289.4 C 3144.11 1317.77 3158.25 1468.05 3147.86 1482.62 L 3141.89 1486.69 L 3143.98 1487.22 C 3149.18 1488.59 3152.04 1488.62 3155.2 1492.75 C 3156.15 1508.15 3157.04 1588.74 3155.19 1602.5 C 3151 1606.11 3150.48 1606.16 3145.45 1608.64 L 3145.25 1610.8 C 3166.09 1621.72 3174.74 1644.09 3163 1667.56 C 3153.29 1686.99 3105.99 1672.94 3103.11 1698.2 C 3112.53 1709.22 3103.68 1711.34 3114.98 1711.53 C 3147.49 1712.07 3181.73 1711.78 3214.18 1711.73 L 3509.14 1709.58 C 3570.28 1709.53 3688.26 1700.13 3732.43 1744.88 C 3732.16 1756.23 3732.41 1757.15 3734.63 1768.16 C 3739.83 1793.96 3736.14 1827.06 3737.03 1853.25 C 3738.63 1900.24 3738.88 1945.95 3738.69 1992.84 C 3739.18 2030.74 3736.88 2077.03 3739.19 2113.96 C 3753.99 2114.05 3761.76 2112.52 3774.68 2119.56 C 3791.78 2128.68 3813.14 2124.42 3832.14 2126.61 C 3863 2130.15 3915.28 2152.03 3881.22 2188.82 C 3856.32 2215.71 3799.74 2209.63 3786.12 2218.93 C 3785.21 2224.5 3784.02 2228.11 3785.75 2233.44 C 3797.04 2239.47 3808.07 2224.52 3816.79 2221.1 C 3843.11 2213.94 3886.15 2228.08 3918.83 2212.51 C 3917.55 2201.22 3916.7 2194.95 3923.39 2185.76 C 3932.01 2180.46 3942.76 2177.5 3953 2177.26 C 4005.62 2176.03 4081.67 2166.3 4089.77 2239.38 C 4091.26 2240.73 4093.43 2242.84 4095 2243.91 L 4095 2307.09 C 4083.72 2317.69 4083.53 2345.75 4061.02 2357.27 C 4031.73 2372.24 3953.23 2373.02 3924.32 2360.23 L 3924.01 2327.54 C 3894.51 2327.59 3844.23 2329.18 3816.46 2324.46 C 3807.24 2316.38 3803.54 2311.84 3791.06 2312.23 C 3779.98 2318.91 3782.54 2327.54 3775.81 2333.17 C 3768.73 2339.1 3750.92 2331.05 3743.54 2340.56 C 3729.12 2363.98 3739.05 2381.4 3735.03 2409.59 C 3732.82 2414.73 3732.68 2418.01 3726.25 2419.54 C 3710.12 2423.39 3687.43 2421.13 3670.8 2421.4 L 3670.36 2426.12 C 3679.11 2464.65 3669.94 2531.58 3672.94 2572.42 C 3674.37 2591.81 3673.36 2612.33 3676.36 2632 C 3679.79 2709.35 3679.26 2786.73 3678.88 2864.13 C 3678.83 2875.03 3687.85 2884.66 3687.71 2896.35 C 3679.45 2907.39 3685.28 2943.09 3684.98 2958.66 C 3682.76 3074.74 3694.24 3189.43 3691.09 3305.71 C 3690.43 3330.01 3695.62 3360.78 3696.29 3386.62 L 3702.11 3639.3 C 3702.94 3697.22 3700.9 3750.68 3706.06 3808.5 C 3711.38 3868.21 3705.88 3932.38 3708.27 3992.48 C 3708.63 4017.01 3714.71 4041.82 3712.45 4066.4 C 3711.69 4073.18 3697.31 4081.9 3688.77 4083.57 C 3664.62 4088.3 3625.31 4089.05 3603.27 4077 C 3601.28 4075.92 3591.17 4067.27 3589.16 4065.68 L 1661.38 4072 L 940.666 4073.99 L 699.27 4073.98 C 656.736 4073.96 614.134 4073.61 571.615 4074.27 C 561.481 4074.42 538.289 4074.25 531.827 4082.6 C 524.611 4091.93 523.882 4091.47 513.286 4095 L 448.903 4095 C 441.916 4093.29 419.173 4088.41 418.17 4078.61 C 416.264 4059.98 416.201 4039.86 416.597 4021.08 C 419.034 3905.4 416.909 3789.71 417.552 3674.05 C 417.619 3662.03 418.287 3639.37 422.995 3629.08 C 429.901 3619.57 423.489 3518.42 426.947 3512.37 L 428.512 3512.62 L 432.528 3522.58 C 437.653 3290.96 435.211 3058.15 438.249 2826.43 C 439.012 2768.27 439.656 2708.28 438.272 2650.16 C 435.206 2652.33 433.502 2654.7 430.905 2657.58 L 428.517 2655.94 C 425.261 2591.35 428.003 2502.31 427.957 2436.07 C 337.57 2433.94 355.773 2436.2 356.521 2345.93 C 336.512 2346.47 321.108 2349.79 314.258 2326.78 C 294.167 2321.23 293.392 2336.58 269.608 2337.84 C 238.544 2339.47 207.3 2336.53 176.473 2338.46 C 176.957 2363.34 179.755 2378.03 147.883 2377.78 C 110.903 2376.69 71.7198 2383.65 36.9872 2368.31 C 16.6726 2359.34 8.75717 2318.36 0 2310.88 L 0 2252.24 L 4.34422 2248.77 C 8.7615 2223.93 28.375 2201.02 50.3882 2189.72 C 71.9498 2182.77 135.336 2186.11 159.469 2187.59 C 172.265 2192.9 177.378 2195.19 176.971 2210.19 L 176.538 2229.3 C 209.179 2229.67 242.78 2228.25 275.306 2229.84 C 286.07 2230.36 302.336 2250.02 314.309 2243.14 C 316.19 2236.95 315.513 2234.89 314.779 2228.56 C 294.51 2222.45 249.302 2226.1 224.193 2207.78 C 218.129 2204.37 199.782 2187.53 201.195 2179.42 C 210.044 2128.64 275.461 2138.33 308.795 2131.66 C 337.026 2126.01 322.897 2122.55 352.448 2123.6 L 350.139 1753.18 C 392.394 1711.87 494.433 1717.69 551.171 1717.72 L 678.488 1717.89 C 692.313 1717.91 729.676 1718.74 741.327 1716.44 L 743.291 1711.22 C 747.164 1709.32 750.172 1707.71 753.918 1705.57 L 754.494 1689.49 C 762.75 1682.01 797.843 1682.41 810.014 1681.9 C 810.694 1654.64 810.711 1627.38 810.066 1600.12 C 798.154 1599.69 778.258 1600.47 771.048 1590.52 C 770.686 1556.95 758.461 1571.02 744.386 1556.24 C 741.112 1548.44 742.79 1500.44 743.159 1489.98 C 749.719 1479.93 762.195 1477.93 773.532 1474.74 C 773.671 1464.85 773.422 1457.66 772.723 1447.8 C 760.085 1447.89 747.505 1448.4 735.507 1444.58 C 734.443 1443.48 733.378 1442.39 732.314 1441.29 C 728.999 1368.29 734.646 1211.66 729.951 1146.97 C 724.001 1065 725.778 1010.99 725.626 942.979 L 725.765 793.598 C 725.83 769.298 726.99 730.503 724.83 707.61 C 726.313 704.363 731.579 698.226 731.828 695.809 C 734.544 669.458 733.099 640.474 732.817 613.989 C 729.759 617.085 734.86 626.173 730.798 635.734 C 727.208 633.532 723.606 631.349 719.993 629.187 L 719.691 355.406 C 719.681 300.931 721.742 243.382 716.413 189.702 C 714.921 174.675 709.965 124.288 718.546 114.329 C 741.08 90.3195 807.95 83.651 838.666 81.8428 C 920.169 77.0446 1159.88 61.3606 1223.86 114.185 C 1223.68 132.237 1220.41 195.62 1228.1 206.632 C 1223.14 233.49 1228.33 268.965 1221.42 296.334 L 1219.37 296.896 C 1216.17 289.73 1215.57 285.067 1213.97 277.32 L 1214.79 358.3 C 1225.92 362.846 1225.24 360.522 1227.5 373.538 L 1229.34 375.264 C 1230.03 413.169 1226.9 703.201 1232.52 717.641 C 1230.24 727.444 1223.87 759.637 1219.87 766.084 C 1219.96 768.029 1220.07 773.525 1220.4 775.118 C 1224.55 783.556 1223.09 790.061 1227.22 796.507 C 1229.49 790.561 1229.22 782.789 1229.54 776.091 L 1231.21 776.881 C 1233.09 783.68 1234.12 788.068 1235.37 794.997 C 1238 877.299 1234.97 963.16 1235.77 1045.82 C 1235.89 1058.6 1236.77 1052.88 1238.32 1061.55 C 1243.02 1087.78 1241.24 1128.15 1241.9 1155.35 C 1244.2 1251.44 1240.35 1349.98 1242.57 1445.66 L 1200.91 1445.91 L 1200.89 1474.35 C 1216.05 1477.96 1223.64 1478.68 1234.45 1490.26 C 1236.85 1500.86 1238.05 1548.91 1232.93 1557.34 C 1214.05 1568.98 1207.91 1561.7 1209.07 1589.54 C 1200.95 1600.6 1182.76 1598.57 1169.72 1598.74 L 1170.08 1681.91 C 1187.16 1681.83 1208.82 1680.08 1223.78 1687.22 C 1229.37 1694.3 1228 1695.38 1224.48 1704.33 C 1228.26 1705.9 1231.25 1707.05 1235.12 1708.38 L 1237.82 1714.71 C 1254.36 1717.62 1352.44 1715.63 1375.8 1715.64 L 1700.21 1715.76 L 2380.14 1713.68 L 2711.18 1711.81 C 2771.28 1711.57 2837.56 1713.32 2897.03 1711.35 C 2901.8 1707.47 2900.65 1695.02 2899.08 1689.23 C 2887.38 1676.42 2876.67 1689.58 2862.63 1682.88 C 2853.56 1670.79 2854.19 1675.01 2840.42 1671.21 C 2834.44 1669.57 2835.11 1630.94 2834.92 1624.81 C 2834.78 1620.19 2847.68 1615.57 2854.62 1611.46 C 2852.65 1607.8 2836.31 1601.51 2836.63 1595.57 C 2838.3 1564.72 2833.78 1524.83 2837.92 1495.11 C 2842.06 1489.06 2842.22 1489.69 2850.92 1486.7 C 2839.56 1476.91 2838.22 1491.16 2836.37 1466.29 C 2832.41 1412.71 2836.35 1359.25 2834.78 1305.69 C 2834.64 1300.93 2832.95 1298 2829.63 1294.83 C 2820.17 1290.11 2808.39 1291.51 2796.68 1290.84 L 2800.66 1286.63 C 2776.22 1281.92 2732.93 1267.56 2708.45 1260.03 C 2679.6 1251.15 2630.98 1237.96 2605.18 1224.7 C 2597.63 1186.81 2602.68 1135.37 2600.37 1095.89 C 2593.63 981.093 2598.44 863.744 2589.52 749.272 C 2586.95 744.098 2587.88 739.268 2588.12 733.606 L 2585.81 729.396 L 2582.52 729.03 C 2576.37 738.652 2586.24 756.364 2575.75 763.511 C 2572.03 712.626 2574.34 662.035 2573.14 611.454 C 2571.76 583.422 2567.84 555.563 2567.7 527.446 C 2567.34 456.68 2568.12 385.445 2561.28 314.901 C 2557.8 279.006 2567.91 197.39 2559 166.815 C 2561.02 162.337 2561.23 161.752 2561.79 157.033 L 2562.2 153.326 C 2562.92 158.243 2563.16 157.537 2565.44 162.257 L 2567.65 162.359 C 2568.59 154.616 2569.47 146.144 2570.82 138.513 L 2571.41 135.272 C 2572.75 124.534 2572.74 100.426 2573.23 88.4389 C 2592.89 73.1834 2639.59 58.731 2665.35 49.4405 L 2662.99 42.9612 z M 2665.35 49.4405 C 2639.59 58.731 2592.89 73.1834 2573.23 88.4389 C 2572.74 100.426 2572.75 124.534 2571.41 135.272 L 2570.82 138.513 C 2569.47 146.144 2568.59 154.616 2567.65 162.359 L 2565.44 162.257 C 2563.16 157.537 2562.92 158.243 2562.2 153.326 L 2561.79 157.033 C 2561.23 161.752 2561.02 162.337 2559 166.815 C 2567.91 197.39 2557.8 279.006 2561.28 314.901 C 2568.12 385.445 2567.34 456.68 2567.7 527.446 C 2567.84 555.563 2571.76 583.422 2573.14 611.454 C 2574.34 662.035 2572.03 712.626 2575.75 763.511 C 2586.24 756.364 2576.37 738.652 2582.52 729.03 L 2585.81 729.396 L 2588.12 733.606 C 2587.88 739.268 2586.95 744.098 2589.52 749.272 C 2598.44 863.744 2593.63 981.093 2600.37 1095.89 C 2602.68 1135.37 2597.63 1186.81 2605.18 1224.7 C 2630.98 1237.96 2679.6 1251.15 2708.45 1260.03 C 2732.93 1267.56 2776.22 1281.92 2800.66 1286.63 L 2796.68 1290.84 C 2808.39 1291.51 2820.17 1290.11 2829.63 1294.83 C 2832.95 1298 2834.64 1300.93 2834.78 1305.69 C 2836.35 1359.25 2832.41 1412.71 2836.37 1466.29 C 2838.22 1491.16 2839.56 1476.91 2850.92 1486.7 C 2842.22 1489.69 2842.06 1489.06 2837.92 1495.11 C 2833.78 1524.83 2838.3 1564.72 2836.63 1595.57 C 2836.31 1601.51 2852.65 1607.8 2854.62 1611.46 C 2847.68 1615.57 2834.78 1620.19 2834.92 1624.81 C 2835.11 1630.94 2834.44 1669.57 2840.42 1671.21 C 2854.19 1675.01 2853.56 1670.79 2862.63 1682.88 C 2876.67 1689.58 2887.38 1676.42 2899.08 1689.23 C 2900.65 1695.02 2901.8 1707.47 2897.03 1711.35 C 2837.56 1713.32 2771.28 1711.57 2711.18 1711.81 L 2380.14 1713.68 L 1700.21 1715.76 L 1375.8 1715.64 C 1352.44 1715.63 1254.36 1717.62 1237.82 1714.71 L 1235.12 1708.38 C 1231.25 1707.05 1228.26 1705.9 1224.48 1704.33 C 1228 1695.38 1229.37 1694.3 1223.78 1687.22 C 1208.82 1680.08 1187.16 1681.83 1170.08 1681.91 L 1169.72 1598.74 C 1182.76 1598.57 1200.95 1600.6 1209.07 1589.54 C 1207.91 1561.7 1214.05 1568.98 1232.93 1557.34 C 1238.05 1548.91 1236.85 1500.86 1234.45 1490.26 C 1223.64 1478.68 1216.05 1477.96 1200.89 1474.35 L 1200.91 1445.91 L 1242.57 1445.66 C 1240.35 1349.98 1244.2 1251.44 1241.9 1155.35 C 1241.24 1128.15 1243.02 1087.78 1238.32 1061.55 C 1236.77 1052.88 1235.89 1058.6 1235.77 1045.82 C 1234.97 963.16 1238 877.299 1235.37 794.997 C 1234.12 788.068 1233.09 783.68 1231.21 776.881 L 1229.54 776.091 C 1229.22 782.789 1229.49 790.561 1227.22 796.507 C 1223.09 790.061 1224.55 783.556 1220.4 775.118 C 1220.07 773.525 1219.96 768.029 1219.87 766.084 C 1223.87 759.637 1230.24 727.444 1232.52 717.641 C 1226.9 703.201 1230.03 413.169 1229.34 375.264 L 1227.5 373.538 C 1225.24 360.522 1225.92 362.846 1214.79 358.3 L 1213.97 277.32 C 1215.57 285.067 1216.17 289.73 1219.37 296.896 L 1221.42 296.334 C 1228.33 268.965 1223.14 233.49 1228.1 206.632 C 1220.41 195.62 1223.68 132.237 1223.86 114.185 C 1159.88 61.3606 920.169 77.0446 838.666 81.8428 C 807.95 83.651 741.08 90.3195 718.546 114.329 C 709.965 124.288 714.921 174.675 716.413 189.702 C 721.742 243.382 719.681 300.931 719.691 355.406 L 719.993 629.187 C 723.606 631.349 727.208 633.532 730.798 635.734 C 734.86 626.173 729.759 617.085 732.817 613.989 C 733.099 640.474 734.544 669.458 731.828 695.809 C 731.579 698.226 726.313 704.363 724.83 707.61 C 726.99 730.503 725.83 769.298 725.765 793.598 L 725.626 942.979 C 725.778 1010.99 724.001 1065 729.951 1146.97 C 734.646 1211.66 728.999 1368.29 732.314 1441.29 C 733.378 1442.39 734.443 1443.48 735.507 1444.58 C 747.505 1448.4 760.085 1447.89 772.723 1447.8 C 773.422 1457.66 773.671 1464.85 773.532 1474.74 C 762.195 1477.93 749.719 1479.93 743.159 1489.98 C 742.79 1500.44 741.112 1548.44 744.386 1556.24 C 758.461 1571.02 770.686 1556.95 771.048 1590.52 C 778.258 1600.47 798.154 1599.69 810.066 1600.12 C 810.711 1627.38 810.694 1654.64 810.014 1681.9 C 797.843 1682.41 762.75 1682.01 754.494 1689.49 L 753.918 1705.57 C 750.172 1707.71 747.164 1709.32 743.291 1711.22 L 741.327 1716.44 C 729.676 1718.74 692.313 1717.91 678.488 1717.89 L 551.171 1717.72 C 494.433 1717.69 392.394 1711.87 350.139 1753.18 L 352.448 2123.6 C 322.897 2122.55 337.026 2126.01 308.795 2131.66 C 275.461 2138.33 210.044 2128.64 201.195 2179.42 C 199.782 2187.53 218.129 2204.37 224.193 2207.78 C 249.302 2226.1 294.51 2222.45 314.779 2228.56 C 315.513 2234.89 316.19 2236.95 314.309 2243.14 C 302.336 2250.02 286.07 2230.36 275.306 2229.84 C 242.78 2228.25 209.179 2229.67 176.538 2229.3 L 176.971 2210.19 C 177.378 2195.19 172.265 2192.9 159.469 2187.59 C 135.336 2186.11 71.9498 2182.77 50.3882 2189.72 C 28.375 2201.02 8.7615 2223.93 4.34422 2248.77 L 0 2252.24 L 0 2310.88 C 8.75717 2318.36 16.6726 2359.34 36.9872 2368.31 C 71.7198 2383.65 110.903 2376.69 147.883 2377.78 C 179.755 2378.03 176.957 2363.34 176.473 2338.46 C 207.3 2336.53 238.544 2339.47 269.608 2337.84 C 293.392 2336.58 294.167 2321.23 314.258 2326.78 C 321.108 2349.79 336.512 2346.47 356.521 2345.93 C 355.773 2436.2 337.57 2433.94 427.957 2436.07 C 428.003 2502.31 425.261 2591.35 428.517 2655.94 L 430.905 2657.58 C 433.502 2654.7 435.206 2652.33 438.272 2650.16 C 443.541 2626.94 597.51 2669.56 605.121 2612.85 C 610.27 2574.49 589.295 2458.94 614.178 2440.55 C 662.531 2404.8 772.587 2411.52 832.997 2411.44 L 1021.66 2411.06 L 1606.73 2409.37 L 3238.64 2404.08 C 3275.28 2403.71 3375.24 2399.69 3405.34 2411.46 C 3496.18 2430.72 3457.09 2491.01 3466.01 2564.12 C 3468.85 2587.4 3459.13 2623.06 3494.79 2629.95 C 3548.62 2637.16 3606.37 2633.09 3661.06 2633.38 L 3686.37 3639.38 L 3693.7 3903.29 C 3695.38 3952.76 3699.96 4022.73 3697.02 4070.41 C 3685.29 4082.3 3667.26 4080.85 3651.58 4081.98 C 3627.24 4083.73 3619.42 4072.94 3600.77 4062.82 C 3597.19 4060.88 3574.75 4060.93 3569.23 4060.91 L 1851.39 4066.66 L 1028.73 4068.88 C 870.505 4069.16 712.282 4069.73 554.06 4070.27 C 533.128 4070.34 526.345 4067.13 515.164 4085.36 C 500.13 4095.23 451.66 4092.56 435.804 4083.57 C 427.765 4067.61 431.303 3985.06 431.243 3962.54 L 432.668 3661 C 432.8 3621.52 434.853 3560.62 432.528 3522.58 L 428.512 3512.62 L 426.947 3512.37 C 423.489 3518.42 429.901 3619.57 422.995 3629.08 C 418.287 3639.37 417.619 3662.03 417.552 3674.05 C 416.909 3789.71 419.034 3905.4 416.597 4021.08 C 416.201 4039.86 416.264 4059.98 418.17 4078.61 C 419.173 4088.41 441.916 4093.29 448.903 4095 L 513.286 4095 C 523.882 4091.47 524.611 4091.93 531.827 4082.6 C 538.289 4074.25 561.481 4074.42 571.615 4074.27 C 614.134 4073.61 656.736 4073.96 699.27 4073.98 L 940.666 4073.99 L 1661.38 4072 L 3589.16 4065.68 C 3591.17 4067.27 3601.28 4075.92 3603.27 4077 C 3625.31 4089.05 3664.62 4088.3 3688.77 4083.57 C 3697.31 4081.9 3711.69 4073.18 3712.45 4066.4 C 3714.71 4041.82 3708.63 4017.01 3708.27 3992.48 C 3705.88 3932.38 3711.38 3868.21 3706.06 3808.5 C 3700.9 3750.68 3702.94 3697.22 3702.11 3639.3 L 3696.29 3386.62 C 3695.62 3360.78 3690.43 3330.01 3691.09 3305.71 C 3694.24 3189.43 3682.76 3074.74 3684.98 2958.66 C 3685.28 2943.09 3679.45 2907.39 3687.71 2896.35 C 3687.85 2884.66 3678.83 2875.03 3678.88 2864.13 C 3679.26 2786.73 3679.79 2709.35 3676.36 2632 C 3673.36 2612.33 3674.37 2591.81 3672.94 2572.42 C 3669.94 2531.58 3679.11 2464.65 3670.36 2426.12 L 3670.8 2421.4 C 3687.43 2421.13 3710.12 2423.39 3726.25 2419.54 C 3732.68 2418.01 3732.82 2414.73 3735.03 2409.59 C 3739.05 2381.4 3729.12 2363.98 3743.54 2340.56 C 3750.92 2331.05 3768.73 2339.1 3775.81 2333.17 C 3782.54 2327.54 3779.98 2318.91 3791.06 2312.23 C 3803.54 2311.84 3807.24 2316.38 3816.46 2324.46 C 3844.23 2329.18 3894.51 2327.59 3924.01 2327.54 L 3924.32 2360.23 C 3953.23 2373.02 4031.73 2372.24 4061.02 2357.27 C 4083.53 2345.75 4083.72 2317.69 4095 2307.09 L 4095 2243.91 C 4093.43 2242.84 4091.26 2240.73 4089.77 2239.38 C 4081.67 2166.3 4005.62 2176.03 3953 2177.26 C 3942.76 2177.5 3932.01 2180.46 3923.39 2185.76 C 3916.7 2194.95 3917.55 2201.22 3918.83 2212.51 C 3886.15 2228.08 3843.11 2213.94 3816.79 2221.1 C 3808.07 2224.52 3797.04 2239.47 3785.75 2233.44 C 3784.02 2228.11 3785.21 2224.5 3786.12 2218.93 C 3799.74 2209.63 3856.32 2215.71 3881.22 2188.82 C 3915.28 2152.03 3863 2130.15 3832.14 2126.61 C 3813.14 2124.42 3791.78 2128.68 3774.68 2119.56 C 3761.76 2112.52 3753.99 2114.05 3739.19 2113.96 C 3736.88 2077.03 3739.18 2030.74 3738.69 1992.84 C 3738.88 1945.95 3738.63 1900.24 3737.03 1853.25 C 3736.14 1827.06 3739.83 1793.96 3734.63 1768.16 C 3732.41 1757.15 3732.16 1756.23 3732.43 1744.88 C 3688.26 1700.13 3570.28 1709.53 3509.14 1709.58 L 3214.18 1711.73 C 3181.73 1711.78 3147.49 1712.07 3114.98 1711.53 C 3103.68 1711.34 3112.53 1709.22 3103.11 1698.2 C 3105.99 1672.94 3153.29 1686.99 3163 1667.56 C 3174.74 1644.09 3166.09 1621.72 3145.25 1610.8 L 3145.45 1608.64 C 3150.48 1606.16 3151 1606.11 3155.19 1602.5 C 3157.04 1588.74 3156.15 1508.15 3155.2 1492.75 C 3152.04 1488.62 3149.18 1488.59 3143.98 1487.22 L 3141.89 1486.69 L 3147.86 1482.62 C 3158.25 1468.05 3144.11 1317.77 3144.63 1289.4 C 3159.01 1289.54 3173.25 1290.3 3187.48 1287.81 C 3218.41 1282.38 3361.22 1240.6 3377.71 1224.11 C 3385.24 1216.57 3381.4 1138.93 3381.27 1123.65 C 3375.95 1112.83 3371.86 1116.59 3368.04 1107.03 L 3365.59 1109.01 L 3365.43 1078.94 C 3360.42 996.412 3361.33 913.738 3360 831.555 L 3353.7 541.348 C 3352.37 469.971 3348.58 406.34 3348.77 334.292 C 3357.34 329.86 3357.33 327.077 3359.75 318.773 C 3355.36 303.387 3358.26 209.681 3357.68 187.4 C 3357.02 161.981 3355.74 123.838 3355.29 97.7276 C 3352.73 107.545 3351.43 158.978 3348.95 160.777 C 3345.68 153.287 3344.95 149.641 3343 141.599 L 3343.05 131.316 C 3350.08 110.579 3340.46 94.9007 3351.12 81.696 C 3347.79 78.5125 3344.59 75.6649 3340.45 73.576 C 3311.84 59.1546 3277.6 50.428 3247.15 39.748 C 3215.53 28.6592 3182.23 13.9695 3149.64 6.43508 C 3114 -1.80157 2815.06 -0.431591 2774.95 5.62054 C 2748.11 9.66948 2685.34 29.0261 2662.99 42.9612 L 2665.35 49.4405 z M 1218.62 3962.79 C 1205.74 3965.91 1196.07 3967.45 1186.45 3976.84 C 1181.03 4001.46 1242.84 4000.4 1258.09 3999.34 C 1270.78 3996.58 1279.38 3995.96 1287.87 3985.91 C 1290.94 3961.2 1234.9 3962.21 1218.62 3962.79 z M 1251.88 3884.84 L 1495.34 3884.05 C 1540.39 3884 1585.09 3885.69 1629.83 3881.79 C 1707.36 3875.03 1713.02 3826.7 1631.58 3819.47 C 1563.8 3813.45 1493.06 3818.47 1424.9 3816.95 C 1400.54 3816.41 1367.42 3815.56 1343.72 3818.16 L 1341.49 3818.32 C 1314.86 3820.04 1275.52 3818.83 1248 3818.82 L 1072.19 3818.86 C 1024.6 3818.89 948.859 3812.65 909.735 3842.25 C 884.519 3896.09 1066.85 3885.17 1089.63 3884.94 L 1251.88 3884.84 z M 3248.73 3943.69 C 3119.48 3960.66 3207.74 4015.93 3295.69 4004.08 C 3313 4001.97 3360.96 3996.67 3361.76 3974.11 C 3350.54 3941.51 3276.95 3940.97 3248.73 3943.69 z M 2875.72 3953.65 C 2862.91 3955.8 2840.09 3961.42 2831.73 3971.67 C 2828.06 3999.6 2908.73 3998.97 2927.14 3997.02 C 2940.47 3994.52 2961.45 3991.7 2967.19 3977.79 C 2960.38 3950.71 2898.26 3950.44 2875.72 3953.65 z M 836.914 3951.65 C 708.949 3970.33 805.877 4024.07 888.262 4012.02 C 907.312 4009.81 948.307 4005.4 951.566 3982.77 C 941.085 3948.06 865.575 3949.6 836.914 3951.65 z M 2518.58 3813.9 C 2498.65 3815.37 2487.43 3816.48 2468.83 3821.01 C 2439.68 3828.11 2417.83 3852.14 2455.72 3867.46 C 2499.37 3885.1 2568.72 3879.97 2615.76 3879.95 C 2676.42 3880.14 2737.07 3879.78 2797.72 3878.87 C 2911.13 3877.29 3026.01 3878.43 3139.73 3877.63 C 3161.77 3876.8 3215.59 3871.22 3217.07 3842.49 C 3204.04 3802.87 3072.62 3812.18 3036.71 3812.26 L 2836.45 3813.05 L 2633.6 3813.05 C 2597.75 3813.05 2553.52 3811.91 2518.58 3813.9 z"/>
<path transform="translate(0,0)" fill="rgb(0,0,0)" d="M 2662.99 42.9612 C 2685.34 29.0261 2748.11 9.66948 2774.95 5.62054 C 2815.06 -0.431591 3114 -1.80157 3149.64 6.43508 C 3182.23 13.9695 3215.53 28.6592 3247.15 39.748 C 3277.6 50.428 3311.84 59.1546 3340.45 73.576 C 3344.59 75.6649 3347.79 78.5125 3351.12 81.696 C 3340.46 94.9007 3350.08 110.579 3343.05 131.316 L 3343 141.599 C 3344.95 149.641 3345.68 153.287 3348.95 160.777 C 3351.43 158.978 3352.73 107.545 3355.29 97.7276 C 3355.74 123.838 3357.02 161.981 3357.68 187.4 C 3358.26 209.681 3355.36 303.387 3359.75 318.773 C 3357.33 327.077 3357.34 329.86 3348.77 334.292 C 3348.58 406.34 3352.37 469.971 3353.7 541.348 L 3360 831.555 C 3361.33 913.738 3360.42 996.412 3365.43 1078.94 L 3365.59 1109.01 L 3368.04 1107.03 C 3371.86 1116.59 3375.95 1112.83 3381.27 1123.65 C 3381.4 1138.93 3385.24 1216.57 3377.71 1224.11 C 3361.22 1240.6 3218.41 1282.38 3187.48 1287.81 C 3173.25 1290.3 3159.01 1289.54 3144.63 1289.4 C 3144.11 1317.77 3158.25 1468.05 3147.86 1482.62 L 3141.89 1486.69 L 3143.98 1487.22 C 3149.18 1488.59 3152.04 1488.62 3155.2 1492.75 C 3156.15 1508.15 3157.04 1588.74 3155.19 1602.5 C 3151 1606.11 3150.48 1606.16 3145.45 1608.64 L 3145.25 1610.8 C 3166.09 1621.72 3174.74 1644.09 3163 1667.56 C 3153.29 1686.99 3105.99 1672.94 3103.11 1698.2 C 3112.53 1709.22 3103.68 1711.34 3114.98 1711.53 C 3147.49 1712.07 3181.73 1711.78 3214.18 1711.73 L 3509.14 1709.58 C 3570.28 1709.53 3688.26 1700.13 3732.43 1744.88 C 3732.16 1756.23 3732.41 1757.15 3734.63 1768.16 C 3739.83 1793.96 3736.14 1827.06 3737.03 1853.25 C 3738.63 1900.24 3738.88 1945.95 3738.69 1992.84 C 3739.18 2030.74 3736.88 2077.03 3739.19 2113.96 C 3753.99 2114.05 3761.76 2112.52 3774.68 2119.56 C 3791.78 2128.68 3813.14 2124.42 3832.14 2126.61 C 3863 2130.15 3915.28 2152.03 3881.22 2188.82 C 3856.32 2215.71 3799.74 2209.63 3786.12 2218.93 C 3785.21 2224.5 3784.02 2228.11 3785.75 2233.44 C 3797.04 2239.47 3808.07 2224.52 3816.79 2221.1 C 3843.11 2213.94 3886.15 2228.08 3918.83 2212.51 C 3917.55 2201.22 3916.7 2194.95 3923.39 2185.76 C 3932.01 2180.46 3942.76 2177.5 3953 2177.26 C 4005.62 2176.03 4081.67 2166.3 4089.77 2239.38 C 4091.26 2240.73 4093.43 2242.84 4095 2243.91 L 4095 2307.09 C 4083.72 2317.69 4083.53 2345.75 4061.02 2357.27 C 4031.73 2372.24 3953.23 2373.02 3924.32 2360.23 L 3924.01 2327.54 C 3894.51 2327.59 3844.23 2329.18 3816.46 2324.46 C 3807.24 2316.38 3803.54 2311.84 3791.06 2312.23 C 3779.98 2318.91 3782.54 2327.54 3775.81 2333.17 C 3768.73 2339.1 3750.92 2331.05 3743.54 2340.56 C 3729.12 2363.98 3739.05 2381.4 3735.03 2409.59 C 3732.82 2414.73 3732.68 2418.01 3726.25 2419.54 C 3710.12 2423.39 3687.43 2421.13 3670.8 2421.4 L 3670.36 2426.12 C 3679.11 2464.65 3669.94 2531.58 3672.94 2572.42 C 3674.37 2591.81 3673.36 2612.33 3676.36 2632 C 3679.79 2709.35 3679.26 2786.73 3678.88 2864.13 C 3678.83 2875.03 3687.85 2884.66 3687.71 2896.35 C 3679.45 2907.39 3685.28 2943.09 3684.98 2958.66 C 3682.76 3074.74 3694.24 3189.43 3691.09 3305.71 C 3690.43 3330.01 3695.62 3360.78 3696.29 3386.62 L 3702.11 3639.3 C 3702.94 3697.22 3700.9 3750.68 3706.06 3808.5 C 3711.38 3868.21 3705.88 3932.38 3708.27 3992.48 C 3708.63 4017.01 3714.71 4041.82 3712.45 4066.4 C 3711.69 4073.18 3697.31 4081.9 3688.77 4083.57 C 3664.62 4088.3 3625.31 4089.05 3603.27 4077 C 3601.28 4075.92 3591.17 4067.27 3589.16 4065.68 L 1661.38 4072 L 940.666 4073.99 L 699.27 4073.98 C 656.736 4073.96 614.134 4073.61 571.615 4074.27 C 561.481 4074.42 538.289 4074.25 531.827 4082.6 C 524.611 4091.93 523.882 4091.47 513.286 4095 L 448.903 4095 C 441.916 4093.29 419.173 4088.41 418.17 4078.61 C 416.264 4059.98 416.201 4039.86 416.597 4021.08 C 419.034 3905.4 416.909 3789.71 417.552 3674.05 C 417.619 3662.03 418.287 3639.37 422.995 3629.08 C 429.901 3619.57 423.489 3518.42 426.947 3512.37 L 428.512 3512.62 L 432.528 3522.58 C 434.853 3560.62 432.8 3621.52 432.668 3661 L 431.243 3962.54 C 431.303 3985.06 427.765 4067.61 435.804 4083.57 C 451.66 4092.56 500.13 4095.23 515.164 4085.36 C 526.345 4067.13 533.128 4070.34 554.06 4070.27 C 712.282 4069.73 870.505 4069.16 1028.73 4068.88 L 1851.39 4066.66 L 3569.23 4060.91 C 3574.75 4060.93 3597.19 4060.88 3600.77 4062.82 C 3619.42 4072.94 3627.24 4083.73 3651.58 4081.98 C 3667.26 4080.85 3685.29 4082.3 3697.02 4070.41 C 3699.96 4022.73 3695.38 3952.76 3693.7 3903.29 L 3686.37 3639.38 L 3661.06 2633.38 C 3606.37 2633.09 3548.62 2637.16 3494.79 2629.95 C 3459.13 2623.06 3468.85 2587.4 3466.01 2564.12 C 3457.09 2491.01 3496.18 2430.72 3405.34 2411.46 C 3375.24 2399.69 3275.28 2403.71 3238.64 2404.08 L 1606.73 2409.37 L 1021.66 2411.06 L 832.997 2411.44 C 772.587 2411.52 662.531 2404.8 614.178 2440.55 C 589.295 2458.94 610.27 2574.49 605.121 2612.85 C 597.51 2669.56 443.541 2626.94 438.272 2650.16 C 435.206 2652.33 433.502 2654.7 430.905 2657.58 L 428.517 2655.94 C 425.261 2591.35 428.003 2502.31 427.957 2436.07 C 337.57 2433.94 355.773 2436.2 356.521 2345.93 C 336.512 2346.47 321.108 2349.79 314.258 2326.78 C 294.167 2321.23 293.392 2336.58 269.608 2337.84 C 238.544 2339.47 207.3 2336.53 176.473 2338.46 C 176.957 2363.34 179.755 2378.03 147.883 2377.78 C 110.903 2376.69 71.7198 2383.65 36.9872 2368.31 C 16.6726 2359.34 8.75717 2318.36 0 2310.88 L 0 2252.24 L 4.34422 2248.77 C 8.7615 2223.93 28.375 2201.02 50.3882 2189.72 C 71.9498 2182.77 135.336 2186.11 159.469 2187.59 C 172.265 2192.9 177.378 2195.19 176.971 2210.19 L 176.538 2229.3 C 209.179 2229.67 242.78 2228.25 275.306 2229.84 C 286.07 2230.36 302.336 2250.02 314.309 2243.14 C 316.19 2236.95 315.513 2234.89 314.779 2228.56 C 294.51 2222.45 249.302 2226.1 224.193 2207.78 C 218.129 2204.37 199.782 2187.53 201.195 2179.42 C 210.044 2128.64 275.461 2138.33 308.795 2131.66 C 337.026 2126.01 322.897 2122.55 352.448 2123.6 L 350.139 1753.18 C 392.394 1711.87 494.433 1717.69 551.171 1717.72 L 678.488 1717.89 C 692.313 1717.91 729.676 1718.74 741.327 1716.44 L 743.291 1711.22 C 747.164 1709.32 750.172 1707.71 753.918 1705.57 L 754.494 1689.49 C 762.75 1682.01 797.843 1682.41 810.014 1681.9 C 810.694 1654.64 810.711 1627.38 810.066 1600.12 C 798.154 1599.69 778.258 1600.47 771.048 1590.52 C 770.686 1556.95 758.461 1571.02 744.386 1556.24 C 741.112 1548.44 742.79 1500.44 743.159 1489.98 C 749.719 1479.93 762.195 1477.93 773.532 1474.74 C 773.671 1464.85 773.422 1457.66 772.723 1447.8 C 760.085 1447.89 747.505 1448.4 735.507 1444.58 C 734.443 1443.48 733.378 1442.39 732.314 1441.29 C 728.999 1368.29 734.646 1211.66 729.951 1146.97 C 724.001 1065 725.778 1010.99 725.626 942.979 L 725.765 793.598 C 725.83 769.298 726.99 730.503 724.83 707.61 C 726.313 704.363 731.579 698.226 731.828 695.809 C 734.544 669.458 733.099 640.474 732.817 613.989 C 729.759 617.085 734.86 626.173 730.798 635.734 C 727.208 633.532 723.606 631.349 719.993 629.187 L 719.691 355.406 C 719.681 300.931 721.742 243.382 716.413 189.702 C 714.921 174.675 709.965 124.288 718.546 114.329 C 741.08 90.3195 807.95 83.651 838.666 81.8428 C 920.169 77.0446 1159.88 61.3606 1223.86 114.185 C 1223.68 132.237 1220.41 195.62 1228.1 206.632 C 1223.14 233.49 1228.33 268.965 1221.42 296.334 L 1219.37 296.896 C 1216.17 289.73 1215.57 285.067 1213.97 277.32 L 1214.79 358.3 C 1225.92 362.846 1225.24 360.522 1227.5 373.538 L 1229.34 375.264 C 1230.03 413.169 1226.9 703.201 1232.52 717.641 C 1230.24 727.444 1223.87 759.637 1219.87 766.084 C 1219.96 768.029 1220.07 773.525 1220.4 775.118 C 1224.55 783.556 1223.09 790.061 1227.22 796.507 C 1229.49 790.561 1229.22 782.789 1229.54 776.091 L 1231.21 776.881 C 1233.09 783.68 1234.12 788.068 1235.37 794.997 C 1238 877.299 1234.97 963.16 1235.77 1045.82 C 1235.89 1058.6 1236.77 1052.88 1238.32 1061.55 C 1243.02 1087.78 1241.24 1128.15 1241.9 1155.35 C 1244.2 1251.44 1240.35 1349.98 1242.57 1445.66 L 1200.91 1445.91 L 1200.89 1474.35 C 1216.05 1477.96 1223.64 1478.68 1234.45 1490.26 C 1236.85 1500.86 1238.05 1548.91 1232.93 1557.34 C 1214.05 1568.98 1207.91 1561.7 1209.07 1589.54 C 1200.95 1600.6 1182.76 1598.57 1169.72 1598.74 L 1170.08 1681.91 C 1187.16 1681.83 1208.82 1680.08 1223.78 1687.22 C 1229.37 1694.3 1228 1695.38 1224.48 1704.33 C 1228.26 1705.9 1231.25 1707.05 1235.12 1708.38 L 1237.82 1714.71 C 1254.36 1717.62 1352.44 1715.63 1375.8 1715.64 L 1700.21 1715.76 L 2380.14 1713.68 L 2711.18 1711.81 C 2771.28 1711.57 2837.56 1713.32 2897.03 1711.35 C 2901.8 1707.47 2900.65 1695.02 2899.08 1689.23 C 2887.38 1676.42 2876.67 1689.58 2862.63 1682.88 C 2853.56 1670.79 2854.19 1675.01 2840.42 1671.21 C 2834.44 1669.57 2835.11 1630.94 2834.92 1624.81 C 2834.78 1620.19 2847.68 1615.57 2854.62 1611.46 C 2852.65 1607.8 2836.31 1601.51 2836.63 1595.57 C 2838.3 1564.72 2833.78 1524.83 2837.92 1495.11 C 2842.06 1489.06 2842.22 1489.69 2850.92 1486.7 C 2839.56 1476.91 2838.22 1491.16 2836.37 1466.29 C 2832.41 1412.71 2836.35 1359.25 2834.78 1305.69 C 2834.64 1300.93 2832.95 1298 2829.63 1294.83 C 2820.17 1290.11 2808.39 1291.51 2796.68 1290.84 L 2800.66 1286.63 C 2776.22 1281.92 2732.93 1267.56 2708.45 1260.03 C 2679.6 1251.15 2630.98 1237.96 2605.18 1224.7 C 2597.63 1186.81 2602.68 1135.37 2600.37 1095.89 C 2593.63 981.093 2598.44 863.744 2589.52 749.272 C 2586.95 744.098 2587.88 739.268 2588.12 733.606 L 2585.81 729.396 L 2582.52 729.03 C 2576.37 738.652 2586.24 756.364 2575.75 763.511 C 2572.03 712.626 2574.34 662.035 2573.14 611.454 C 2571.76 583.422 2567.84 555.563 2567.7 527.446 C 2567.34 456.68 2568.12 385.445 2561.28 314.901 C 2557.8 279.006 2567.91 197.39 2559 166.815 C 2561.02 162.337 2561.23 161.752 2561.79 157.033 L 2562.2 153.326 C 2562.92 158.243 2563.16 157.537 2565.44 162.257 L 2567.65 162.359 C 2568.59 154.616 2569.47 146.144 2570.82 138.513 L 2571.41 135.272 C 2572.75 124.534 2572.74 100.426 2573.23 88.4389 C 2592.89 73.1834 2639.59 58.731 2665.35 49.4405 L 2662.99 42.9612 z M 1236.01 1749.28 C 1236.13 1756.7 1237.21 1762.95 1233.62 1769.14 C 1214.47 1777.99 1097.03 1772.96 1067.73 1774.04 C 1068.2 1789.29 1070.91 1807.01 1062.09 1819.1 L 1059.77 1819.92 C 1057.18 1820.86 1055.5 1821.56 1053.02 1822.67 C 1047.51 1842.54 1057.18 1868.72 1043.69 1876.02 C 1042.34 1876.75 1036.78 1878.73 1035.45 1879.21 C 1029.53 1889.95 1022.85 1926.23 1013.75 1947.32 C 981.982 2020.95 920.829 2063.86 860.916 2113.46 C 847.971 2124.18 816.907 2144.58 820.204 2163.22 C 848.39 2194.63 980.628 2200.78 1025.39 2203.21 C 1121.91 2208.38 1218.37 2214.67 1314.75 2222.07 C 1349.55 2224.97 1412.47 2229.29 1445.34 2235.21 C 1563.26 2243.94 1736.52 2271.31 1840.18 2329.2 C 1865.69 2343.45 1885.29 2362.69 1907.74 2379.61 L 2793.12 2377.62 L 2795.4 2375.91 C 2813.73 2362.39 2834.85 2353.45 2856.36 2346.28 C 2894.63 2333.52 2934.44 2324.94 2973.84 2316.52 C 3041.15 2302.13 3338.09 2252.61 3352.59 2174.42 C 3354.93 2161.84 3350.31 2150.76 3343 2140.72 C 3325.79 2117.05 3298.45 2099.04 3274.32 2083.24 C 3182.81 2023.3 3054.17 1978.56 2994.01 1883.64 C 2985.25 1869.82 2981.92 1855.74 2975.12 1841.31 C 2969.56 1829.51 2960.57 1834.7 2953.3 1827.86 C 2942.99 1818.17 2948.13 1773.87 2948.14 1759.56 C 2943.8 1759.69 2923.17 1760.3 2921.25 1759.32 C 2892.48 1744.69 2907.48 1743.07 2874.1 1744.57 L 1675.59 1747.32 C 1529.07 1748.78 1382.54 1749.43 1236.01 1749.28 z M 3560.03 2319.43 C 3541.16 2319.62 3514.3 2322.16 3498.14 2314.16 C 3485.82 2300.57 3484 2248.9 3494.68 2231.64 C 3496.01 2229.49 3502.33 2227.99 3504.94 2227.26 L 3505.67 2225.7 C 3451.98 2224.44 3468.03 2207.2 3465.09 2164.16 C 3465.24 2158.34 3463.93 2144 3469.68 2140.41 C 3490.53 2127.4 3530.58 2131.27 3554.51 2131.52 C 3554.62 2111.58 3555.28 2089.47 3554.36 2069.72 C 3552.91 2038.35 3544.16 1985.27 3551.2 1955.25 C 3564.4 1943.1 3623.63 1947.39 3645.25 1947.47 C 3645.19 1916.99 3643.46 1887.17 3643.11 1856.65 C 3642.77 1826.21 3644.11 1795.04 3642.44 1764.71 C 3642.21 1760.63 3637.07 1756.01 3633.96 1753.5 C 3624 1745.46 3609.81 1743.54 3597.23 1742.99 C 3563.15 1741.5 3528.06 1742.47 3493.88 1742.66 L 3322.03 1742.8 L 3187.21 1742.72 C 3168.29 1742.71 3130.62 1741.66 3113.25 1744.38 C 3112.21 1745.45 3111.15 1746.5 3110.08 1747.53 C 3094.8 1762.15 3085.46 1759.65 3065.11 1759.44 C 3066.36 1770.95 3066.41 1782.62 3066.67 1794.2 C 3060.41 1786.36 3060.42 1774.1 3057.39 1762.28 C 3049.09 1769.35 3059.02 1764.53 3051.74 1774.94 C 3051.07 1793.51 3051.54 1809.04 3052.22 1827.48 L 3058.52 1831.14 L 3055.4 1835.62 C 3063.18 1878.11 3115.77 1928.4 3149.96 1952.12 C 3173.47 1968.44 3198.39 1983.43 3223.38 1997.36 C 3278.33 2027.99 3423.29 2095.12 3434.18 2160.67 C 3436.75 2176.13 3430.68 2190.31 3421.27 2202.33 C 3344.85 2299.94 3017.39 2328.75 2891.4 2375.75 C 3034.32 2378.59 3181.43 2373.53 3324.62 2375.65 C 3387.76 2376.59 3505.07 2369.85 3561.32 2384.46 C 3559.61 2361.81 3559.87 2342.09 3560.03 2319.43 z M 3656.42 1949.56 C 3657.06 1939.74 3658.87 1914.84 3655.18 1906.52 L 3653.68 1905.16 C 3650.4 1916.45 3650.49 1932.68 3652.23 1944.2 L 3656.42 1949.56 z M 915.809 1773.83 C 888.503 1773.87 764.145 1776.97 745.221 1769.34 C 741.85 1764.92 742.706 1755.71 742.627 1749.54 C 679.53 1755.45 611.224 1751.34 547.598 1751.35 C 524.66 1751.36 500.989 1750.17 478.201 1752.68 C 469.074 1753.68 448.884 1756.39 443.052 1764.41 C 435.335 1775.03 439.682 1932.93 439.757 1958 C 457.374 1955.33 525.254 1951.68 538.822 1964.07 C 547.832 1972.3 544.826 2020.45 544.963 2034.35 C 545.281 2066.64 545.792 2102.54 543.655 2135.14 C 543.622 2135.72 544.661 2140.38 544.645 2140.38 C 571.298 2145.52 615.815 2133.9 638.631 2152.04 C 645.511 2163.71 644.79 2219.92 634.275 2230.85 C 621.895 2236.66 610.983 2235.77 597.64 2234.96 L 596.93 2236.67 C 603.667 2238.12 604.855 2238.6 609.263 2243.39 C 615.19 2261.19 612.541 2302.78 609.548 2321.74 C 598.238 2332.69 556.996 2329.86 540.617 2329.7 C 540.42 2348.75 540.465 2367.8 540.751 2386.85 C 563.616 2387.16 596.334 2383.89 623.46 2383.87 C 754.377 2384.4 885.296 2383.99 1016.21 2382.64 L 1818.21 2379.89 C 1786.11 2351.34 1756.43 2334.93 1715.94 2319.72 C 1624.6 2285.44 1528.5 2275.1 1432.33 2263.51 C 1303.27 2247.94 1177.08 2241.75 1047.23 2233.3 C 961.917 2227.74 858.957 2223.78 777.335 2195.93 C 766.112 2191.88 740.527 2178.28 737.468 2166.64 C 729.631 2136.82 780.619 2104.84 799.293 2089.4 C 848.25 2048.93 901.708 2008.63 928.392 1949.37 C 935.546 1933.48 950.831 1895.36 944.822 1878.82 C 943.929 1878.25 938.802 1874.99 938.023 1874.09 C 931.052 1865.96 933.41 1833.42 933.58 1822.22 C 927.626 1820.37 921.642 1818.61 915.632 1816.96 L 915.809 1773.83 z M 3557.91 2006.99 C 3557.1 2017.92 3555.57 2028.79 3557.53 2039.45 C 3560.74 2041.44 3559.16 2041.14 3562.09 2041.06 C 3562.71 2029.8 3565.16 2015.55 3557.91 2006.99 z"/>
<path transform="translate(0,0)" fill="rgb(51,52,51)" d="M 729.984 117.426 C 793.909 65.24 1099.87 76.6319 1185.04 101.169 C 1193.95 103.736 1203.53 110.841 1210.85 116.791 C 1214.49 161.956 1212.86 229.804 1213.97 277.32 L 1214.79 358.3 C 1225.92 362.846 1225.24 360.522 1227.5 373.538 L 1229.34 375.264 C 1230.03 413.169 1226.9 703.201 1232.52 717.641 C 1230.24 727.444 1223.87 759.637 1219.87 766.084 C 1219.96 768.029 1220.07 773.525 1220.4 775.118 C 1219.64 795.978 1219.72 802.953 1222.1 823.893 C 1195.02 776.646 1169.39 726.049 1144.09 677.614 C 1092.7 578.826 1041.85 479.753 991.563 380.401 C 981.401 379.357 968.326 379.735 957.906 379.707 C 937.04 417.225 911.807 475.224 892.171 515.548 L 741.471 824.441 L 732 318.69 C 731.339 263.067 725.939 169.396 729.984 117.426 z"/>
<path transform="translate(0,0)" fill="rgb(0,0,0)" d="M 1214.79 358.3 C 1225.92 362.846 1225.24 360.522 1227.5 373.538 L 1229.34 375.264 C 1230.03 413.169 1226.9 703.201 1232.52 717.641 C 1230.24 727.444 1223.87 759.637 1219.87 766.084 C 1219.05 751.436 1218.65 736.546 1218.53 721.876 C 1217.53 600.763 1214.7 479.391 1214.79 358.3 z"/>
<path transform="translate(0,0)" fill="rgb(129,124,89)" d="M 1059.8 1721.86 L 2748.6 1717.16 L 3333.07 1715.48 C 3390.99 1715.24 3448.92 1714.7 3506.84 1713.87 C 3562.86 1713.24 3678.63 1704.87 3718.85 1746 C 3725.95 1794.29 3722.81 1858.73 3724.32 1908.61 C 3728.11 2033.8 3724.41 2159.07 3731.67 2284.23 C 3734.06 2324.25 3730.69 2370.55 3735.03 2409.59 C 3732.82 2414.73 3732.68 2418.01 3726.25 2419.54 C 3710.12 2423.39 3687.43 2421.13 3670.8 2421.4 C 3670.71 2373.32 3668.08 2329.68 3667.21 2282.45 L 3662.99 2044.55 C 3661 1959.18 3660.03 1873.6 3657.29 1788.22 C 3657.13 1783.03 3654.47 1757.28 3651.61 1754.43 C 3641.69 1744.49 3621.6 1739.58 3607.7 1738.64 C 3562.87 1737.04 3517.02 1737.65 3472.2 1737.66 L 3213.97 1737.98 L 2414.76 1741.36 L 992.203 1745.25 C 825.843 1746.21 659.443 1744.66 493.108 1747.12 C 470.077 1747.46 423.653 1747.58 423.223 1779 C 422.153 1857.07 425.767 1934.96 427.033 2012.98 C 429.05 2152.47 429.804 2291.97 429.295 2431.47 C 413.586 2431.67 383.005 2434.48 370.973 2426.05 C 368.69 2396.42 369.592 2365.11 369.135 2335.28 C 368.169 2272.33 369.754 2208.3 368.811 2145.47 L 366.331 1919.52 C 365.307 1868.7 361.725 1806.14 363.246 1756.49 C 388.335 1728.96 440.178 1723.36 475.854 1723.73 C 583.811 1724.86 692.401 1721.28 800.264 1722.98 C 810.11 1724.59 883.809 1723.66 897.38 1723.3 C 948.138 1721.95 1010.29 1725.6 1059.8 1721.86 z"/>
<path transform="translate(0,0)" fill="rgb(51,52,51)" d="M 2662.99 42.9612 C 2685.34 29.0261 2748.11 9.66948 2774.95 5.62054 C 2815.06 -0.431591 3114 -1.80157 3149.64 6.43508 C 3182.23 13.9695 3215.53 28.6592 3247.15 39.748 C 3277.6 50.428 3311.84 59.1546 3340.45 73.576 C 3344.59 75.6649 3347.79 78.5125 3351.12 81.696 C 3340.46 94.9007 3350.08 110.579 3343.05 131.316 L 3343 141.599 C 3344.95 149.641 3345.68 153.287 3348.95 160.777 C 3351.43 158.978 3352.73 107.545 3355.29 97.7276 C 3355.74 123.838 3357.02 161.981 3357.68 187.4 C 3358.26 209.681 3355.36 303.387 3359.75 318.773 C 3357.33 327.077 3357.34 329.86 3348.77 334.292 C 3348.58 406.34 3352.37 469.971 3353.7 541.348 L 3360 831.555 C 3361.33 913.738 3360.42 996.412 3365.43 1078.94 L 3365.59 1109.01 C 3365.58 1128.73 3372.5 1211.46 3362.35 1222.09 C 3348.06 1237.05 3190.96 1285.28 3166.62 1285.11 C 3160.2 1285.07 3153.62 1285.02 3147.85 1281.93 L 3148.86 1279.26 C 3168.56 1271.68 3194.16 1270.51 3213.47 1262.83 C 3245.93 1249.93 3318.9 1237.2 3342 1213.65 L 3322.41 463.62 L 3315.99 217.937 C 3315.54 196.739 3317.3 98.2851 3311.21 86.3984 C 3294.04 75.2009 3139.74 21.3064 3116.86 17.3229 C 3089.41 12.544 2811.32 14.2982 2787.8 19.3857 C 2760.95 25.1915 2618.17 77.0601 2599.6 91.1424 C 2593.62 104.704 2624.15 943.962 2626.65 1025.2 L 2629.51 1154.2 C 2629.88 1173.35 2629.6 1202.51 2631.25 1220.78 C 2665.28 1240.3 2750.17 1259.31 2790.07 1272.05 C 2806.64 1277.34 2829.15 1278.23 2844.17 1286.54 C 2828.21 1288 2816.77 1288.6 2800.66 1286.63 C 2776.22 1281.92 2732.93 1267.56 2708.45 1260.03 C 2679.6 1251.15 2630.98 1237.96 2605.18 1224.7 C 2597.63 1186.81 2602.68 1135.37 2600.37 1095.89 C 2593.63 981.093 2598.44 863.744 2589.52 749.272 C 2586.95 744.098 2587.88 739.268 2588.12 733.606 L 2585.81 729.396 L 2582.52 729.03 C 2576.37 738.652 2586.24 756.364 2575.75 763.511 C 2572.03 712.626 2574.34 662.035 2573.14 611.454 C 2571.76 583.422 2567.84 555.563 2567.7 527.446 C 2567.34 456.68 2568.12 385.445 2561.28 314.901 C 2557.8 279.006 2567.91 197.39 2559 166.815 C 2561.02 162.337 2561.23 161.752 2561.79 157.033 L 2562.2 153.326 C 2562.92 158.243 2563.16 157.537 2565.44 162.257 L 2567.65 162.359 C 2568.59 154.616 2569.47 146.144 2570.82 138.513 L 2571.41 135.272 C 2572.75 124.534 2572.74 100.426 2573.23 88.4389 C 2592.89 73.1834 2639.59 58.731 2665.35 49.4405 L 2662.99 42.9612 z"/>
<path transform="translate(0,0)" fill="rgb(0,0,0)" d="M 2559 166.815 C 2561.02 162.337 2561.23 161.752 2561.79 157.033 L 2562.2 153.326 C 2562.92 158.243 2563.16 157.537 2565.44 162.257 L 2567.65 162.359 C 2568.59 154.616 2569.47 146.144 2570.82 138.513 L 2571.41 135.272 C 2576.31 210.383 2576.65 295.497 2578.34 371.052 L 2584.76 583.855 C 2585.63 619.304 2592.94 719.823 2589.52 749.272 C 2586.95 744.098 2587.88 739.268 2588.12 733.606 L 2585.81 729.396 L 2582.52 729.03 C 2576.37 738.652 2586.24 756.364 2575.75 763.511 C 2572.03 712.626 2574.34 662.035 2573.14 611.454 C 2571.76 583.422 2567.84 555.563 2567.7 527.446 C 2567.34 456.68 2568.12 385.445 2561.28 314.901 C 2557.8 279.006 2567.91 197.39 2559 166.815 z"/>
<path transform="translate(0,0)" fill="rgb(0,0,0)" d="M 2662.99 42.9612 C 2685.34 29.0261 2748.11 9.66948 2774.95 5.62054 C 2815.06 -0.431591 3114 -1.80157 3149.64 6.43508 C 3182.23 13.9695 3215.53 28.6592 3247.15 39.748 C 3277.6 50.428 3311.84 59.1546 3340.45 73.576 C 3344.59 75.6649 3347.79 78.5125 3351.12 81.696 C 3340.46 94.9007 3350.08 110.579 3343.05 131.316 C 3341.74 117.749 3341.85 103.582 3340.49 89.2584 C 3332.64 74.6704 3293.31 62.2688 3277.56 57.9811 C 3235.71 46.5884 3176.92 16.5228 3135.52 10.5636 C 3066.11 0.571 2986.66 9.73397 2916.28 7.77772 C 2877.31 7.52915 2808.33 6.68062 2771.56 11.5343 C 2756.62 13.5067 2682.88 42.822 2665.35 49.4405 L 2662.99 42.9612 z"/>
<path transform="translate(0,0)" fill="rgb(0,0,0)" d="M 3343 141.599 C 3344.95 149.641 3345.68 153.287 3348.95 160.777 C 3351.43 158.978 3352.73 107.545 3355.29 97.7276 C 3355.74 123.838 3357.02 161.981 3357.68 187.4 C 3358.26 209.681 3355.36 303.387 3359.75 318.773 C 3357.33 327.077 3357.34 329.86 3348.77 334.292 C 3346.98 322.003 3347.18 288.531 3346.61 274.62 C 3344.8 230.335 3343.02 185.916 3343 141.599 z"/>
<path transform="translate(0,0)" fill="rgb(51,52,51)" d="M 50.3882 2189.72 C 71.9498 2182.77 135.336 2186.11 159.469 2187.59 C 151.341 2190.35 151.473 2190.5 143.019 2190.75 C 150.208 2192.4 156.626 2192.79 161.455 2197.91 C 163.233 2205.24 163.611 2241.27 162.104 2248.44 C 157.427 2270.69 167.268 2356.69 160.658 2370.23 C 146.96 2375.92 84.2408 2373.62 66.6622 2372.54 C 66.2665 2338.38 64.6242 2304.35 65.7596 2270.18 C 66.0812 2260.5 66.4209 2250.45 65.8749 2240.78 C 62.0024 2229.55 56.812 2197.35 50.3882 2189.72 z"/>
<path transform="translate(0,0)" fill="rgb(18,17,11)" d="M 50.3882 2189.72 C 71.9498 2182.77 135.336 2186.11 159.469 2187.59 C 151.341 2190.35 151.473 2190.5 143.019 2190.75 C 121.482 2196.15 79.4701 2185.63 59.9655 2194.85 C 56.3749 2203.63 66.8464 2219.25 65.8749 2240.78 C 62.0024 2229.55 56.812 2197.35 50.3882 2189.72 z"/>
<path transform="translate(0,0)" fill="rgb(51,52,51)" d="M 3918.83 2212.51 C 3922.02 2248 3923.44 2287.56 3922.66 2323.35 C 3886.44 2319.95 3852.89 2324.88 3816.52 2321.11 C 3816.37 2195.7 3794.46 2232.18 3907.45 2222.37 C 3885.22 2221.96 3835.26 2223.47 3816.79 2221.1 C 3843.11 2213.94 3886.15 2228.08 3918.83 2212.51 z"/>
<path transform="translate(0,0)" fill="rgb(100,97,71)" d="M 800.264 1722.98 C 806.394 1719.77 1034.15 1721.2 1059.8 1721.86 C 1010.29 1725.6 948.138 1721.95 897.38 1723.3 C 883.809 1723.66 810.11 1724.59 800.264 1722.98 z"/>
<path transform="translate(0,0)" fill="rgb(51,52,51)" d="M 2962.13 22.9352 C 3004.58 23.2437 3063.36 20.2232 3103.89 22.9842 C 3147.43 31.5825 3188.93 48.6723 3231.02 62.7833 C 3251.34 69.5961 3276.83 77.3227 3294.92 88.8051 C 3299.98 92.0164 3300.74 102.416 3300.97 108.189 C 3302.97 159.711 3303.86 211.323 3305.04 262.881 L 3311.53 575.181 L 3317.77 879.468 L 3322.28 1086.98 C 3322.77 1109.66 3328.76 1208.36 3320.35 1216.74 C 3303.82 1233.21 3170.65 1270.29 3144.2 1270.95 C 3133.13 1192.95 3057.53 1114.35 2974.85 1115.69 C 2903.85 1126.41 2833.34 1206.58 2833.2 1275.75 C 2804.92 1272.4 2670.38 1230.44 2644.17 1217.98 C 2638.44 1176.21 2639.9 1120.48 2638.44 1077.25 L 2629.65 775.088 L 2619.55 408.267 C 2616.36 313.073 2613.34 217.795 2611.15 122.567 C 2611.01 116.636 2611.26 93.863 2615.08 91.8124 C 2629.88 83.8684 2656.88 73.6402 2672.1 68.1045 C 2710.86 54.0049 2752.3 37.3478 2791.4 26.0208 C 2801.37 23.1326 2845.83 23.7097 2858.11 23.6582 C 2892.79 23.6368 2927.46 23.3958 2962.13 22.9352 z"/>
<path transform="translate(0,0)" fill="rgb(51,52,51)" d="M 746.596 852.273 C 901.754 852.777 1066.71 854.393 1221.29 851.573 C 1217.34 915.399 1235.73 1350.6 1227.11 1366.81 L 1222.2 1368.02 L 747.376 1368.65 C 743.087 1281.77 746.981 1184.93 745.17 1096.69 L 742.231 933.117 C 741.953 915.595 739.933 869.333 741.349 854.802 L 746.596 852.273 z"/>
<path transform="translate(0,0)" fill="rgb(51,52,51)" d="M 970.829 382.218 C 976.943 384.714 978.638 385.482 982.4 392.499 C 1003.85 432.513 1024.77 474.325 1045.24 514.749 L 1126.22 672.642 C 1156.5 732.069 1185.98 791.304 1221.15 848.049 C 1150.91 845.813 1069.4 847.895 998.256 847.936 C 972.953 847.897 751.55 849.645 746.999 845.891 C 751.904 831.422 762.973 813.366 769.994 799.026 L 816.719 701.887 L 970.829 382.218 z"/>
<path transform="translate(0,0)" fill="rgb(129,124,89)" d="M 445.631 1961.72 C 463.918 1961.29 515.392 1957.82 528.589 1966.58 C 532.528 2023.92 529.952 2104.1 529.181 2163 L 527.393 2405.6 L 526.92 2568.4 C 526.679 2588.1 527.705 2620.16 525.587 2637.98 C 497.011 2638.06 468.434 2637.89 439.86 2637.48 C 439.247 2617.62 439.602 2596.06 440.166 2576.19 C 443.624 2454.41 443.677 2332.39 444.514 2210.65 L 444.274 2036.66 C 444.371 2017.32 443.239 1978.99 445.631 1961.72 z"/>
<path transform="translate(0,0)" fill="rgb(129,124,89)" d="M 3566.95 1951.94 C 3592.22 1950.82 3618.08 1951.35 3643.41 1951.51 C 3649.52 2039.84 3649.53 2137.35 3650.17 2226.72 C 3651.12 2358.78 3664.3 2496.7 3661.86 2627.68 L 3581.38 2628.24 C 3579.89 2604.16 3581.06 2574.3 3580.53 2549.41 L 3575.74 2360.3 L 3569.55 2153.19 C 3567.11 2090.95 3564.19 2029.19 3563.45 1966.7 C 3563.35 1958.13 3563.01 1958.1 3566.95 1951.94 z"/>
<path transform="translate(0,0)" fill="rgb(51,52,51)" d="M 962.208 1877.39 C 981.455 1877.96 1002.55 1877.52 1021.94 1877.52 C 1012.39 1903.27 1007.14 1930.56 996.076 1955.8 C 963.769 2029.52 890.251 2073.21 832.586 2124.56 C 822.7 2133.36 806.093 2145.04 807.067 2159.56 C 807.374 2164.15 809.553 2167.56 812.972 2170.53 C 892.438 2239.54 1633.19 2186.68 1852.78 2347.98 C 1867.85 2359.06 1905.96 2384.83 1908.72 2403.21 L 1852.88 2403.48 C 1782.53 2291.42 1519.63 2267.92 1395.93 2255.45 C 1284.78 2244.76 1173.45 2235.92 1062 2228.91 C 1006.48 2225.46 741.852 2215.96 748.156 2159.53 C 753.587 2110.91 965.246 2013.6 962.208 1877.39 z"/>
<path transform="translate(0,0)" fill="rgb(51,52,51)" d="M 2989.89 1834.32 L 3037.67 1834.5 C 3102.01 1953.46 3154.88 1965.87 3266.71 2029.44 C 3310.68 2054.44 3407.61 2106.16 3419.8 2156.52 C 3423.3 2171.01 3419.28 2186.75 3411.02 2198.9 C 3357.72 2277.3 3086.7 2320.57 2993.13 2340.39 C 2957.51 2347.93 2868.86 2365.55 2850.34 2396.23 C 2849.65 2397.37 2849.01 2398.54 2848.35 2399.7 L 2787 2400.06 C 2798.06 2385.66 2809.46 2375.88 2825.31 2367.3 C 2940.4 2304.99 3285.72 2287.83 3354.68 2196.02 C 3362.09 2186.15 3365.92 2174.26 3364.01 2161.92 C 3354.6 2100.8 3207.45 2035.64 3156.43 2006.69 C 3129.34 1991.32 3102.5 1973.54 3077.21 1955.38 C 3037.56 1926.91 2998.27 1887.25 2990.33 1837.17 L 2989.89 1834.32 z"/>
<path transform="translate(0,0)" fill="rgb(100,97,71)" d="M 1244.77 2386.41 L 1822.03 2384.82 L 1839.56 2403.12 C 1525.83 2400.3 1207.51 2405.24 893.282 2405.51 C 808.682 2405.6 726.376 2401.61 643.069 2418.02 C 540.379 2438.25 611.612 2557.13 584.615 2626.37 C 580.88 2635.95 550.863 2637.47 542.001 2638.25 C 540.285 2557 540.796 2475.73 543.533 2394.51 C 578.269 2384.23 732.431 2387.71 777.081 2387.58 L 1244.77 2386.41 z"/>
<path transform="translate(0,0)" fill="rgb(100,97,71)" d="M 3108.77 2380.4 C 3185.13 2376.97 3264.33 2380.75 3341.08 2379.35 C 3399.43 2380.16 3457.99 2377.67 3516.24 2381.37 C 3567.98 2384.66 3560.46 2403.29 3563.23 2443.39 C 3567.29 2502.33 3560.69 2567.88 3566.69 2625.9 L 3566.98 2628.42 C 3548.03 2628.29 3492.35 2629.85 3487.04 2616.14 C 3480.56 2599.38 3480.51 2487.31 3480.1 2469.87 C 3479.96 2458.91 3480.5 2439.16 3471.05 2431.76 C 3436.53 2404.73 3380.4 2398.31 3338.25 2398.17 C 3296.26 2398.03 3254.98 2398.24 3213.35 2398.14 L 2862.41 2399.62 C 2870.32 2390.91 2873.69 2388.41 2882.87 2381.39 C 2955.97 2379.5 3035.06 2380.86 3108.77 2380.4 z"/>
<path transform="translate(0,0)" fill="rgb(194,195,194)" d="M 746.375 1373.88 L 1227.72 1373.82 C 1228.83 1396.44 1229.34 1419.1 1229.23 1441.75 C 1213.67 1442.15 1197.91 1441.71 1182.31 1441.82 C 1037.19 1442.81 891.658 1440.48 746.571 1442.73 L 746.375 1373.88 z"/>
<path transform="translate(0,0)" fill="rgb(51,52,51)" d="M 3069.76 1492.64 C 3087.85 1491.77 3122.73 1491.33 3140.21 1492.81 C 3139.65 1529.32 3140.08 1565.84 3141.5 1602.33 C 3067.77 1603.44 2994.03 1603.74 2920.29 1603.23 C 2898.05 1603.43 2876.87 1603.63 2854.62 1602.83 C 2850.37 1576.52 2851.66 1521.67 2851.97 1493.27 C 2920.51 1491.04 3000.33 1492.99 3069.76 1492.64 z"/>
<path transform="translate(0,0)" fill="rgb(194,195,194)" d="M 825.731 1599.59 L 1155.04 1599.49 C 1155.14 1626.97 1155.48 1654.46 1156.04 1681.94 C 1047.5 1680.12 934.07 1681.79 825.239 1682.19 C 825.825 1655 825.601 1626.86 825.731 1599.59 z"/>
<path transform="translate(0,0)" fill="rgb(51,52,51)" d="M 2984.51 1120.57 C 3051.59 1117.68 3102.41 1201.34 3130.03 1250.79 C 3084.6 1252.25 3036.41 1251.54 2990.77 1251.59 L 2847.31 1251.88 C 2876.93 1192.75 2911.84 1127.71 2984.51 1120.57 z"/>
<path transform="translate(0,0)" fill="rgb(51,52,51)" d="M 2844.69 1255.85 L 3132.88 1255.41 L 3133.68 1332.22 L 2846.44 1333.29 L 2844.69 1255.85 z"/>
<path transform="translate(0,0)" fill="rgb(51,52,51)" d="M 2845.45 1337.88 L 3134.91 1337.76 C 3134.32 1347 3134.39 1355.65 3135.13 1364.87 C 3138.27 1404.36 3139.34 1443.29 3139.63 1482.91 C 3081.57 1468.09 3086.98 1470.73 3086.41 1411.65 C 3083.92 1364.52 3008.2 1371.95 2975.07 1371.22 C 2953.36 1371.41 2920.3 1375.71 2905.38 1392.56 C 2893.31 1406.21 2901.59 1451.73 2902.69 1469.96 C 2888.83 1473.21 2864.99 1483.78 2852.73 1479.31 C 2850.24 1465.61 2851.36 1446.66 2850.36 1432.14 C 2848.19 1400.76 2846.76 1369.31 2845.45 1337.88 z"/>
<path transform="translate(0,0)" fill="rgb(51,52,51)" d="M 3953.78 2182.12 C 3979.74 2180.67 4011.69 2181.3 4038.14 2181.18 C 4016.64 2226.44 4034.65 2310.56 4031.41 2361.5 L 4027.28 2363.34 C 4014.18 2363.47 3944.47 2367.99 3937.41 2357.55 C 3934.68 2353.52 3935.3 2315.3 3936.37 2307.61 C 3939.88 2282.22 3925.85 2208.74 3934 2188.07 C 3940.01 2182.95 3945.76 2183.2 3953.78 2182.12 z"/>
<path transform="translate(0,0)" fill="rgb(51,52,51)" d="M 2972.82 1376.44 C 3121.46 1366.43 3051.45 1428.04 3080.89 1486.53 C 3069.81 1489.41 3037.19 1487.9 3023.52 1487.72 C 3008.26 1487.82 2921.01 1489.58 2913.46 1485.67 C 2917.3 1451.57 2917.99 1428.79 2917.88 1394.65 C 2934.93 1379.34 2950.75 1378.95 2972.82 1376.44 z"/>
<path transform="translate(0,0)" fill="rgb(194,195,194)" d="M 883.452 1491.74 C 913.304 1471.38 1026.72 1481.71 1065.48 1482.5 C 1105.57 1483.3 1093.44 1551.03 1086.69 1554.07 C 1055 1568.34 909.709 1569.59 883.358 1552.82 C 882.964 1532.46 882.995 1512.09 883.452 1491.74 z"/>
<path transform="translate(0,0)" fill="rgb(100,97,71)" d="M 2487.9 2382.42 C 2583.82 2379.46 2690.39 2381.47 2787.1 2381.44 L 2775.21 2400 L 2209.96 2401.6 L 1925.52 2402.32 C 1920.82 2396.15 1916.2 2389.92 1911.64 2383.64 L 2487.9 2382.42 z"/>
<path transform="translate(0,0)" fill="rgb(51,52,51)" d="M 3063 1620.56 C 3092.87 1620.42 3122.73 1620.1 3152.59 1619.61 C 3151.13 1632.42 3152.19 1654 3152.45 1667.54 C 3088.43 1669.82 3008.27 1667.7 2942.78 1667.87 L 2852.12 1667.64 L 2852.23 1621.88 L 3063 1620.56 z"/>
<path transform="translate(0,0)" fill="rgb(194,195,194)" d="M 1136.23 1446.65 C 1151.53 1445.73 1170.94 1446.21 1186.55 1446.16 L 1187.44 1475.46 L 836.796 1475.79 L 788.183 1475.72 L 787.944 1447.25 L 1136.23 1446.65 z"/>
<path transform="translate(0,0)" fill="rgb(194,195,194)" d="M 891.449 1567.55 C 992.571 1568.99 1096.01 1567.61 1197.32 1567.75 C 1197.57 1575.82 1198.86 1583.79 1195.06 1590.63 C 1188.27 1595.84 1129.89 1594.14 1116.14 1594.17 L 978.162 1594.44 L 859.753 1594.77 C 837.415 1594.83 813.391 1595.53 791.219 1593.61 C 788.187 1593.34 788.666 1592.65 785.603 1589.77 C 782.661 1580.54 783.141 1577.92 783.109 1567.98 C 819.223 1568.28 855.339 1568.14 891.449 1567.55 z"/>
<path transform="translate(0,0)" fill="rgb(194,195,194)" d="M 781.648 1563.54 C 773.054 1561.73 756.861 1558.74 755.394 1548.44 C 752.942 1531.22 751.471 1502.6 759.729 1487.48 C 777.618 1474.89 848.279 1478.59 868.156 1490.76 C 877.268 1494.74 873.226 1494.24 883.452 1491.74 C 882.995 1512.09 882.964 1532.46 883.358 1552.82 C 879.489 1555.07 881.061 1553.45 878.99 1557.99 C 885.101 1560.77 888.129 1561.26 891.449 1567.55 C 855.339 1568.14 819.223 1568.28 783.109 1567.98 L 781.648 1563.54 z"/>
<path transform="translate(0,0)" fill="rgb(18,17,11)" d="M 868.156 1490.76 C 877.268 1494.74 873.226 1494.24 883.452 1491.74 C 882.995 1512.09 882.964 1532.46 883.358 1552.82 C 879.489 1555.07 881.061 1553.45 878.99 1557.99 C 885.101 1560.77 888.129 1561.26 891.449 1567.55 C 855.339 1568.14 819.223 1568.28 783.109 1567.98 L 781.648 1563.54 C 868.651 1564.2 870.037 1577.47 868.156 1490.76 z"/>
<path transform="translate(0,0)" fill="rgb(51,52,51)" d="M 176.191 2233.96 C 196.485 2233.42 266.127 2229.96 279.9 2239.3 C 282.51 2247.86 282.426 2321.3 281.187 2331.06 C 267.901 2334.59 195.064 2333.52 176.731 2333.54 C 176.109 2300.35 175.929 2267.16 176.191 2233.96 z"/>
<path transform="translate(0,0)" fill="rgb(194,195,194)" d="M 1141.22 1480.43 C 1152.23 1478.64 1217.47 1475.08 1220.79 1494.6 C 1222.6 1505.26 1219.94 1522.87 1221.41 1534.35 C 1224.87 1561.45 1211.16 1560.59 1189.43 1563.19 C 1161.69 1564.33 1132.19 1565.52 1106.84 1553.77 C 1105.56 1538.42 1106.85 1504.04 1107.71 1488.73 C 1120.92 1483.14 1127.59 1482.14 1141.22 1480.43 z"/>
<path transform="translate(0,0)" fill="rgb(194,195,194)" d="M 975.147 1749.87 C 1004.21 1749.71 1206.87 1746.04 1218.19 1751.61 C 1222.97 1757.09 1221.64 1754.07 1223 1760.67 C 1221.61 1763.25 1221.33 1765.68 1218.34 1765.93 C 1151.11 1771.44 1082.11 1766.72 1014.49 1768.89 C 1001.38 1769.31 987.862 1769.21 975.019 1768.86 C 914.211 1771.07 852.226 1767.8 791.331 1769.76 C 779.956 1770.13 764.2 1772.79 756.635 1762.72 C 755.606 1756.85 755.219 1757.11 757.763 1751.85 C 768.025 1749.68 809.979 1750.4 822.881 1750.31 C 873.635 1749.86 924.391 1749.72 975.147 1749.87 z"/>
<path transform="translate(0,0)" fill="url(#Gradient2)" d="M 541.618 2147.35 C 554.369 2147.23 574.552 2147.23 586.316 2146.18 C 622.613 2142.95 631.889 2155.88 630.276 2191.13 C 629.635 2205.12 632.219 2213.67 624.071 2227.08 C 609.459 2232.62 560.929 2230.72 542.156 2230.63 C 543.092 2204.2 542.032 2174.1 541.618 2147.35 z"/>
<path transform="translate(0,0)" fill="rgb(100,97,71)" d="M 3490.41 2220.36 C 3481.06 2213.5 3481.05 2211.53 3479.22 2200.09 C 3477.1 2186.89 3474.11 2152.33 3483.45 2142.8 C 3493.12 2132.93 3541.37 2137.09 3555.05 2137.08 C 3555.12 2151.59 3557.4 2210.99 3554.01 2220.15 L 3553.2 2223.96 L 3554.73 2226.77 C 3548.29 2229.39 3513.36 2228.27 3504.94 2227.26 L 3505.67 2225.7 C 3508.58 2225.26 3512.82 2224.11 3515.81 2223.41 C 3513.67 2221.46 3499.9 2221.71 3494.35 2220.94 L 3490.41 2220.36 z"/>
<path transform="translate(0,0)" fill="rgb(18,17,11)" d="M 3490.41 2220.36 C 3508.1 2218.79 3536.19 2218.94 3554.01 2220.15 L 3553.2 2223.96 L 3554.73 2226.77 C 3548.29 2229.39 3513.36 2228.27 3504.94 2227.26 L 3505.67 2225.7 C 3508.58 2225.26 3512.82 2224.11 3515.81 2223.41 C 3513.67 2221.46 3499.9 2221.71 3494.35 2220.94 L 3490.41 2220.36 z"/>
<path transform="translate(0,0)" fill="rgb(51,52,51)" d="M 2963.51 1759.3 C 2981.03 1759.22 3035.43 1757.88 3050.05 1760.42 C 3053.41 1766.78 3052.1 1766.51 3051.74 1774.94 C 3051.07 1793.51 3051.54 1809.04 3052.22 1827.48 C 3029.05 1829.31 2989.34 1828.23 2966.07 1826.85 C 2965.4 1804.54 2965.03 1781.52 2963.51 1759.3 z"/>
<path transform="translate(0,0)" fill="rgb(194,195,194)" d="M 928.945 1773.89 L 1053.04 1773.88 L 1053.17 1815.09 C 1023.79 1817.71 960.685 1815.91 929.095 1815.66 L 928.945 1773.89 z"/>
<path transform="translate(0,0)" fill="rgb(200,181,139)" d="M 2916.04 1684.49 C 2953.41 1685.33 2992.74 1683.5 3030.29 1683.99 C 3045.84 1684.19 3071.68 1682.43 3085.8 1685.34 C 3090.59 1691.54 3092.86 1703.99 3090.49 1711.49 L 2982.23 1711.78 C 2965.38 1711.86 2932.16 1713.25 2916.98 1710.55 C 2914.38 1704.74 2915.62 1696.18 2913.6 1688.67 L 2916.04 1684.49 z"/>
<path transform="translate(0,0)" fill="rgb(194,195,194)" d="M 330.853 2127.57 C 338.572 2127.68 344.79 2127.06 350.175 2131.99 C 352.098 2147.25 351.925 2162.64 352.007 2177.99 C 352.3 2232.34 354.483 2286.74 354.006 2341.09 C 346.916 2341.42 337.885 2342.57 332.447 2338.4 C 330.178 2323.39 327.51 2139.72 330.853 2127.57 z"/>
<path transform="translate(0,0)" fill="rgb(100,97,71)" d="M 542.87 2241.79 C 555.741 2241.87 578.258 2239.98 589.214 2243.02 C 605.567 2247.54 602.2 2312.87 597.29 2322.48 C 578.005 2325.99 561.206 2325.16 541.785 2325.02 L 542.87 2241.79 z"/>
<path transform="translate(0,0)" fill="rgb(194,195,194)" d="M 3742.42 2119.45 C 3751.57 2119.17 3756.54 2118.09 3763.61 2122.3 C 3766.35 2138.29 3765.23 2169.89 3765.78 2187.31 C 3767.29 2234.67 3765.87 2284.15 3769.21 2331.26 C 3760.49 2331.82 3753.3 2333.32 3746.61 2328.31 C 3745.11 2318.27 3745.2 2308.26 3745.23 2298.13 C 3745.4 2238.55 3743.74 2179.02 3742.42 2119.45 z"/>
<path transform="translate(0,0)" fill="rgb(51,52,51)" d="M 4045.96 2193.93 C 4060.09 2197.43 4072.78 2222.48 4076.41 2235.74 C 4086.96 2274.34 4083.83 2303.36 4064.8 2338.62 C 4059.02 2345.19 4053.26 2352.67 4047.75 2359.55 C 4040.9 2297.05 4041.7 2256.19 4045.96 2193.93 z"/>
<path transform="translate(0,0)" fill="url(#Gradient1)" d="M 3508.92 2232.04 C 3524.13 2231.37 3541.31 2231.62 3556.68 2231.49 C 3557.82 2258.95 3558.42 2286.44 3558.46 2313.93 C 3546.92 2314.07 3516.73 2316.09 3509.47 2310.61 C 3500.97 2304.2 3503.32 2239.86 3508.92 2232.04 z"/>
<path transform="translate(0,0)" fill="rgb(194,195,194)" d="M 948.406 1821.53 L 1035.57 1821.45 C 1035.6 1838.3 1035.76 1854.93 1034.93 1871.77 L 948.869 1871.58 L 948.406 1821.53 z"/>
<path transform="translate(0,0)" fill="rgb(194,195,194)" d="M 978.763 1687.67 C 1008.24 1687.53 1194.86 1684.11 1209.73 1689.1 C 1213.59 1694.07 1212.77 1698.93 1212.92 1705.47 C 1169.19 1706.98 1120.02 1704.89 1075.58 1705.69 C 1054.46 1706.07 999.678 1707.02 980.402 1704.7 C 977.95 1699.16 978.801 1694.2 978.763 1687.67 z"/>
<path transform="translate(0,0)" fill="rgb(51,52,51)" d="M 43.0981 2204.83 C 50.2307 2211.84 56.4484 2341.18 45.6071 2358.17 L 42.1742 2358.58 L 36.4886 2352.39 C 2.92507 2307.26 6.25377 2246.71 43.0981 2204.83 z"/>
<path transform="translate(0,0)" fill="rgb(194,195,194)" d="M 773.2 1688.03 C 827.977 1684.84 885.501 1690.56 940.403 1686.91 C 950.652 1686.23 964.694 1685.67 973.344 1691.49 C 976.116 1696.66 975.052 1698.39 974.082 1704.33 L 970.202 1705.65 C 946.763 1705.67 777.932 1708.29 767.591 1703.65 L 766.08 1699.3 C 768.835 1690.25 766.739 1692.29 773.2 1688.03 z"/>
<path transform="translate(0,0)" fill="rgb(194,195,194)" d="M 268.321 2140.02 L 273.617 2140.43 C 279.1 2148.53 278.556 2207.12 278.741 2219.89 C 262.455 2215.89 254.692 2213.75 239.268 2207.51 C 223.59 2196.81 222.42 2194.98 214.752 2177.91 C 217.192 2171.51 220.803 2164.44 223.81 2158.16 C 241.197 2146.41 247.799 2143.86 268.321 2140.02 z"/>
<path transform="translate(0,0)" fill="rgb(194,195,194)" d="M 3821.63 2129.31 C 3855.45 2135.87 3906.53 2157.94 3861.49 2193.27 C 3846.38 2201.33 3837.29 2203.77 3820.78 2208.83 C 3818.05 2189.26 3817.44 2147.9 3821.63 2129.31 z"/>
<path transform="translate(0,0)" fill="rgb(194,195,194)" d="M 1134.23 1710.58 C 1159.42 1710.23 1199.88 1707.03 1222.61 1713.82 L 1222.21 1715.49 C 1207.36 1718.56 1127.1 1717.42 1106.75 1717.45 L 842.794 1717.81 C 830.238 1717.85 762.492 1719.29 755.873 1715.99 L 756.56 1713.38 C 763.181 1710.09 1095.03 1710.77 1134.23 1710.58 z"/>
<path transform="translate(0,0)" fill="rgb(51,52,51)" d="M 2870.55 1672.58 C 2924.55 1671.84 2978.55 1671.59 3032.56 1671.82 C 3048.23 1671.79 3125.94 1669.63 3130.36 1674.68 L 3128.63 1679.41 C 3101.38 1679.4 2882.11 1682.14 2872.53 1678.39 L 2870.55 1672.58 z"/>
<path transform="translate(0,0)" fill="rgb(194,195,194)" d="M 3781.06 2194.99 C 3780.44 2179.07 3778.33 2148.27 3780.61 2133.68 C 3785.99 2127.06 3797.22 2127.31 3804.12 2131.74 L 3803.67 2136.55 C 3803.98 2151.68 3806.04 2195.83 3803.99 2208.26 C 3799.72 2211.49 3786.47 2212.86 3782.89 2208.14 C 3780.86 2205.46 3781.14 2198.59 3781.06 2194.99 z"/>
<path transform="translate(0,0)" fill="rgb(194,195,194)" d="M 3781.06 2194.99 C 3783.61 2194.88 3790.21 2194.71 3792.34 2194.18 C 3814.68 2188.59 3790.15 2156.37 3803.67 2136.55 C 3803.98 2151.68 3806.04 2195.83 3803.99 2208.26 C 3799.72 2211.49 3786.47 2212.86 3782.89 2208.14 C 3780.86 2205.46 3781.14 2198.59 3781.06 2194.99 z"/>
<path transform="translate(0,0)" fill="rgb(51,52,51)" d="M 2973.09 1608.56 C 3001.37 1606.68 3108.98 1604.56 3132.58 1611.37 L 3132.21 1614.12 C 3119.48 1616.68 3049.39 1615.68 3032.26 1615.62 C 2999.9 1615.55 2895.44 1620.14 2870.62 1612.05 C 2876.4 1608.76 2960.87 1608.75 2973.09 1608.56 z"/>
<path transform="translate(0,0)" fill="rgb(194,195,194)" d="M 293.148 2137.85 C 301.284 2137.88 307.568 2136.88 313.402 2141.67 C 315.873 2160.43 315.37 2200.92 315.62 2221.41 C 306.843 2221.37 303.051 2222.26 296.832 2217.73 C 294.135 2203.55 293.702 2155.16 293.148 2137.85 z"/>
<path transform="translate(0,0)" fill="rgb(200,181,139)" d="M 2932.44 1744.3 C 2977.64 1744.34 3039.98 1743.07 3086.4 1744.9 C 3089.52 1745.02 3089.12 1745.51 3091.04 1748.92 C 3087.75 1753.84 3089.99 1752.19 3083.75 1753.52 C 3049.59 1753.71 3015.43 1753.69 2981.28 1753.47 C 2965.64 1753.48 2938.79 1755.67 2924.78 1752.4 L 2922.84 1749.27 C 2926.7 1743.7 2924.02 1745.86 2932.44 1744.3 z"/>
<path transform="translate(0,0)" fill="rgb(113,113,112)" d="M 3792.73 2236.67 C 3797.59 2237.41 3797.32 2237.22 3801.42 2239.87 C 3806.09 2252.02 3807.19 2295.17 3803.6 2307.65 L 3799.15 2310.09 C 3790.67 2309.17 3789.3 2310.4 3783.32 2306.19 C 3781.02 2291.62 3781.2 2257.04 3784.5 2241.82 C 3785.21 2238.56 3788.24 2238.54 3792.73 2236.67 z"/>
<path transform="translate(0,0)" fill="rgb(113,113,112)" d="M 295.892 2247.76 C 304.345 2247.63 308.537 2246.72 314.529 2251.33 C 317.008 2267.58 316.137 2301.95 316.183 2319.62 C 309.5 2319.64 302.477 2320.73 297.371 2317.17 C 295.204 2302.45 295.937 2264.57 295.892 2247.76 z"/>
<path transform="translate(0,0)" fill="rgb(0,0,0)" fill-opacity="0.984314" d="M 3051.74 1774.94 C 3059.02 1764.53 3049.09 1769.35 3057.39 1762.28 C 3060.42 1774.1 3060.41 1786.36 3066.67 1794.2 C 3067.29 1805.52 3068.77 1816.04 3065.81 1826.82 C 3061.71 1830.93 3064.06 1829.55 3058.52 1831.14 L 3052.22 1827.48 C 3051.54 1809.04 3051.07 1793.51 3051.74 1774.94 z"/>
<path transform="translate(0,0)" fill="rgb(0,0,0)" fill-opacity="0.85098" d="M 3653.68 1905.16 L 3655.18 1906.52 C 3658.87 1914.84 3657.06 1939.74 3656.42 1949.56 L 3652.23 1944.2 C 3650.49 1932.68 3650.4 1916.45 3653.68 1905.16 z"/>
<path transform="translate(0,0)" fill="rgb(18,17,11)" d="M 596.93 2236.67 C 588.056 2239.55 557.183 2237.96 545.91 2237.71 L 545.596 2236.73 C 554.803 2235.15 591.174 2231.78 597.64 2234.96 L 596.93 2236.67 z"/>
<path transform="translate(0,0)" fill="rgb(0,0,0)" fill-opacity="0.85098" d="M 3557.91 2006.99 C 3565.16 2015.55 3562.71 2029.8 3562.09 2041.06 C 3559.16 2041.14 3560.74 2041.44 3557.53 2039.45 C 3555.57 2028.79 3557.1 2017.92 3557.91 2006.99 z"/>
<path transform="translate(0,0)" fill="rgb(130,125,98)" d="M 3238.64 2404.08 C 3275.28 2403.71 3375.24 2399.69 3405.34 2411.46 C 3398.05 2415.66 3369.13 2411.59 3360.48 2410.08 C 3330.37 2404.83 3242.13 2412.3 3218.63 2406.28 L 3235.18 2406.16 L 3238.64 2404.08 z"/>
<path transform="translate(0,0)" fill="rgb(0,0,0)" d="M 2502.17 3809.11 C 2503 3808.44 2508.34 3804.88 2508.54 3804.87 C 2567.05 3803.3 2653.35 3804.13 2709.17 3804.07 L 3123.38 3802.83 L 3122.05 3802.99 L 3126.51 3803.65 L 3113.99 3806.63 C 3140.16 3806.76 3233.13 3809.44 3234.37 3846.23 C 3216.51 3893.48 3081.68 3883.18 3038.54 3883.13 L 2838.76 3883.02 C 2772.2 3882.96 2705.63 3883.28 2639.06 3883.97 C 2598.89 3884.34 2554.16 3885.34 2515.91 3884.25 C 2490.44 3883.53 2433.08 3877.06 2420.48 3853.88 C 2403.46 3822.58 2490.4 3810.69 2502.17 3809.11 z M 3139.73 3877.63 C 3161.77 3876.8 3215.59 3871.22 3217.07 3842.49 C 3204.04 3802.87 3072.62 3812.18 3036.71 3812.26 L 2836.45 3813.05 L 2633.6 3813.05 C 2597.75 3813.05 2553.52 3811.91 2518.58 3813.9 C 2498.65 3815.37 2487.43 3816.48 2468.83 3821.01 C 2439.68 3828.11 2417.83 3852.14 2455.72 3867.46 C 2499.37 3885.1 2568.72 3879.97 2615.76 3879.95 C 2676.42 3880.14 2737.07 3879.78 2797.72 3878.87 C 2911.13 3877.29 3026.01 3878.43 3139.73 3877.63 z"/>
<path transform="translate(0,0)" fill="rgb(130,125,98)" d="M 2502.17 3809.11 C 2503 3808.44 2508.34 3804.88 2508.54 3804.87 C 2567.05 3803.3 2653.35 3804.13 2709.17 3804.07 L 3123.38 3802.83 L 3122.05 3802.99 L 3126.51 3803.65 L 3113.99 3806.63 C 3041.58 3808.22 2965.87 3807.1 2893.25 3807.12 C 2762.89 3806.95 2632.52 3807.62 2502.17 3809.11 z"/>
<path transform="translate(0,0)" fill="rgb(18,17,11)" d="M 991.29 3813.93 C 1020.82 3811.66 1068.98 3813.08 1099.96 3813.09 L 1298.1 3812.95 L 1501.37 3812.32 C 1542.52 3812.11 1582.63 3811.13 1624.8 3813.22 C 1642.98 3814.11 1730.38 3826.32 1699.47 3863.52 C 1684.21 3881.88 1634.1 3887.52 1609.45 3889.23 L 1186.94 3889.94 L 1056.13 3890.73 C 1007.6 3891.03 943.998 3895.8 901.444 3867.48 C 892.485 3861.52 888.362 3848.2 897.281 3840.16 C 920.945 3818.82 960.956 3815.64 991.29 3813.93 z M 1251.88 3884.84 L 1495.34 3884.05 C 1540.39 3884 1585.09 3885.69 1629.83 3881.79 C 1707.36 3875.03 1713.02 3826.7 1631.58 3819.47 C 1563.8 3813.45 1493.06 3818.47 1424.9 3816.95 C 1400.54 3816.41 1367.42 3815.56 1343.72 3818.16 L 1341.49 3818.32 C 1314.86 3820.04 1275.52 3818.83 1248 3818.82 L 1072.19 3818.86 C 1024.6 3818.89 948.859 3812.65 909.735 3842.25 C 884.519 3896.09 1066.85 3885.17 1089.63 3884.94 L 1251.88 3884.84 z"/>
<path transform="translate(0,0)" fill="rgb(0,0,0)" d="M 2608.64 2682.32 C 2704.56 2679.31 2812.58 2681.37 2909.42 2681.01 L 3032.86 2680.6 C 3060.08 2680.5 3221.09 2674.02 3189.37 2731.92 C 3172.14 2763.37 3015.83 2757.33 2983.27 2757.33 L 2650.24 2758.43 C 2628.93 2758.52 2358.51 2776.59 2407.67 2707.01 C 2429.67 2675.86 2561.3 2682.54 2608.64 2682.32 z"/>
<path transform="translate(0,0)" fill="rgb(100,97,71)" d="M 2929.79 2686.35 C 2976.76 2685.16 3024.82 2685.87 3071.86 2685.59 C 3101.32 2685.42 3164.36 2685.98 3177.53 2717.56 C 3176.14 2755.23 3072.69 2751.58 3046.98 2751.67 C 3012.88 2751.78 2978.58 2751.66 2944.47 2751.68 L 2656.85 2752.9 C 2608.71 2753.12 2459.1 2762.55 2424.66 2735.38 C 2419.04 2730.95 2416.17 2727.16 2415.22 2719.93 C 2426.7 2675.81 2594.38 2687.52 2633.16 2687.47 L 2929.79 2686.35 z"/>
<path transform="translate(0,0)" fill="rgb(0,0,0)" d="M 834.274 3414 C 876.216 3409.47 940.008 3411.59 968.038 3447.59 C 968.23 3479.42 976.12 3651.25 965.099 3664.58 C 949.058 3683.98 911.762 3687.74 888.263 3690.33 C 877.018 3692.86 835.571 3691.67 823.742 3689.69 C 795.42 3684.94 771.877 3680.81 753.689 3656.89 C 753.996 3592.43 748.227 3508.63 752.1 3446.38 C 778.164 3420.76 799.179 3417.8 834.274 3414 z"/>
<path transform="translate(0,0)" fill="rgb(100,97,71)" d="M 831.452 3419.91 C 834.856 3419.56 838.267 3419.27 841.682 3419.06 C 870.676 3417.26 919.723 3418.02 943.453 3437.82 C 953.01 3445.8 952.434 3480.13 952.528 3493.3 C 952.919 3547.84 956.862 3603.41 955.584 3657.88 C 935.539 3678.42 917.593 3680.6 890.245 3684.38 C 866.742 3687.28 795.459 3686.52 777.045 3665.13 C 764.894 3651.02 767.888 3594.48 767.701 3573.63 L 766.939 3448.72 C 785.129 3426.72 804.563 3423.56 831.452 3419.91 z"/>
<path transform="translate(0,0)" fill="rgb(0,0,0)" d="M 1478.15 2686.38 C 1524.27 2685.85 1593.41 2681.36 1636.61 2692.51 C 1712.84 2712.2 1670.52 2755.53 1613.61 2759.57 C 1554.14 2763.78 1497.02 2762.61 1437.89 2762.85 L 1090.23 2763.65 C 1049.28 2763.87 906.66 2773.94 890.177 2731.16 C 890.889 2701.41 942.005 2691.07 965.583 2689.49 C 1020.37 2685.81 1078.64 2687.51 1133.58 2687.43 L 1478.15 2686.38 z"/>
<path transform="translate(0,0)" fill="rgb(100,97,71)" d="M 1314.19 2692.34 L 1498.96 2691.49 C 1532.84 2691.4 1656 2682.53 1663.41 2725.02 C 1654.13 2765.9 1512.42 2757.07 1477.36 2757.15 L 1253.54 2757.55 L 1071.32 2758.41 C 1034.89 2758.6 998.561 2760.01 961.734 2756.13 C 944.089 2754.4 890.849 2742.05 911.838 2715.42 C 923.356 2703.66 950.55 2696.87 966.418 2695.45 C 1007.51 2691.77 1050.88 2693.11 1091.95 2693.04 L 1314.19 2692.34 z"/>
<path transform="translate(0,0)" fill="rgb(0,0,0)" d="M 3208.31 2876.05 C 3244.66 2873.27 3290.31 2872.34 3323.36 2890.21 C 3331.57 2894.65 3340.98 2900.51 3343.27 2910.04 C 3348.33 2931.14 3353.2 3114.61 3346.57 3123.83 C 3331.69 3144.5 3296.75 3147.8 3273.39 3150.41 C 3243.78 3155.58 3150.71 3151.7 3135.88 3120.65 C 3132.95 3114.53 3131.14 3031.43 3131.19 3018.23 C 3131.33 2986.64 3124.39 2932.43 3133.59 2904.2 C 3151.71 2883.8 3182.33 2879.4 3208.31 2876.05 z"/>
<path transform="translate(0,0)" fill="rgb(100,97,71)" d="M 3224.41 2880.14 C 3248.89 2877.33 3327.2 2883.05 3327.96 2916.86 C 3329.41 2980.92 3334.97 3045.05 3333.98 3109.08 C 3333.48 3141.49 3281.57 3144.2 3257.56 3146.13 C 3251.83 3146.47 3246.08 3146.62 3240.34 3146.57 C 3216.99 3146.49 3174.17 3143.9 3157.24 3125.67 C 3144.39 3111.83 3145.23 2938.16 3145.32 2909.37 L 3147.49 2907.16 C 3169.25 2884.75 3194.69 2882.58 3224.41 2880.14 z"/>
<path transform="translate(0,0)" fill="rgb(0,0,0)" d="M 828.842 2882.05 C 869.459 2878.03 925.537 2881.62 955.191 2912.93 C 959.581 2975.78 959.395 3060.67 961.322 3125.27 C 939.531 3153.08 908.676 3155.07 875.774 3159.16 C 869.045 3159.35 862.315 3159.48 855.585 3159.57 C 816.683 3159.99 775.471 3157.29 746.483 3128.81 C 746.02 3125.93 745.63 3123.04 745.315 3120.15 C 741.427 3085.6 742.347 3045.68 741.768 3010.64 C 740.217 2916.57 721.653 2892.34 828.842 2882.05 z"/>
<path transform="translate(0,0)" fill="rgb(100,97,71)" d="M 824.687 2888.1 C 834.742 2886.39 846.386 2886.87 856.653 2886.87 C 878.493 2886.88 918.613 2890.27 933.595 2908.12 C 943.878 2920.37 944.783 3099.88 944.583 3127.79 C 922.585 3147.08 908.225 3149.11 880.283 3152.71 C 842.877 3156.72 783.175 3156.61 760.865 3121.14 C 760.343 3093.27 751.941 2923.48 762.646 2910.08 C 775.873 2893.52 804.956 2890.35 824.687 2888.1 z"/>
<path transform="translate(0,0)" fill="rgb(0,0,0)" d="M 3248.76 3406.06 C 3286.64 3405.75 3335.8 3409.37 3361.02 3440.93 C 3362.73 3474.27 3362.84 3507.75 3364.24 3541.12 C 3365.75 3577.12 3368.94 3613.57 3367.97 3649.6 C 3344.25 3680.57 3301.07 3682.73 3265.17 3683.79 C 3252.31 3683.83 3239.46 3683.29 3226.65 3682.18 C 3198.76 3679.54 3171.94 3674.01 3153.4 3651.75 C 3149.61 3622.07 3149.3 3576.34 3147.96 3545.04 C 3146.66 3514.56 3143.55 3468.74 3145.28 3440.23 C 3173.69 3409.27 3208.84 3408.39 3248.76 3406.06 z"/>
<path transform="translate(0,0)" fill="rgb(100,97,71)" d="M 3246.85 3411.98 C 3252.94 3412.01 3259.02 3412.13 3265.1 3412.34 C 3291.31 3413.31 3322.23 3416.55 3340.89 3436.56 C 3347.9 3455.27 3353.33 3625.5 3351.98 3650.95 C 3327.39 3674.94 3303.58 3675.32 3270.77 3678.57 C 3243.47 3678.86 3167.56 3677.61 3167.25 3638.33 C 3166.45 3577.63 3159.88 3517.47 3160.79 3456.69 C 3161.4 3415.81 3216.23 3413.79 3246.85 3411.98 z"/>
<path transform="translate(0,0)" fill="rgb(0,0,0)" d="M 2014.09 2475.91 C 2069.4 2472.63 2075.19 2479.42 2110.74 2519.26 C 2118.96 2527.25 2135.71 2532.97 2144.15 2539.57 C 2202.33 2585.09 2083.12 2600.56 2059.98 2602.7 C 2028.11 2605.95 1989.83 2601.87 1958.11 2594.36 C 1941.79 2590.49 1903 2577.34 1916.52 2551.87 C 1923.76 2538.24 1952.22 2529.04 1961.19 2518.7 C 1985.16 2491.06 1976.97 2484.58 2014.09 2475.91 z"/>
<path transform="translate(0,0)" fill="rgb(100,97,71)" d="M 2025.14 2480.02 C 2064.16 2476.43 2069.19 2494.64 2092.31 2519.32 C 2103.52 2530.58 2160.04 2548.1 2139.97 2571.81 C 2124.25 2590.39 2076.72 2596.46 2053.84 2597.65 C 2031.11 2598.36 1943.6 2597.71 1928.75 2567.18 C 1924.1 2544.38 1966.69 2532.57 1977.23 2520.51 C 1999 2495.6 1990.94 2484.93 2025.14 2480.02 z"/>
<path transform="translate(0,0)" fill="rgb(0,0,0)" d="M 3248.73 3943.69 C 3276.95 3940.97 3350.54 3941.51 3361.76 3974.11 C 3360.96 3996.67 3313 4001.97 3295.69 4004.08 C 3207.74 4015.93 3119.48 3960.66 3248.73 3943.69 z M 3298.02 3998.47 C 3313.24 3996.14 3336.37 3992.58 3346.54 3980.3 C 3353.98 3946.47 3265.45 3948.67 3246.68 3949.55 C 3230.75 3952.32 3209.16 3955.69 3199.29 3969.07 C 3195.27 4001.87 3277.32 4002.3 3298.02 3998.47 z"/>
<path transform="translate(0,0)" fill="rgb(0,0,0)" d="M 836.914 3951.65 C 865.575 3949.6 941.085 3948.06 951.566 3982.77 C 948.307 4005.4 907.312 4009.81 888.262 4012.02 C 805.877 4024.07 708.949 3970.33 836.914 3951.65 z M 892.684 4006.75 C 908.487 4002.89 936.272 3999.7 933.516 3978.4 C 917.45 3954.18 862.317 3954.96 836.375 3957.51 C 823.419 3959.95 784.323 3966.05 791.384 3984.58 C 801.824 4011.97 871.331 4008.12 892.684 4006.75 z"/>
<path transform="translate(0,0)" fill="rgb(0,0,0)" d="M 829.773 2470.24 C 851.014 2468.19 917.761 2467.17 928.807 2493.24 C 938.47 2516.05 885.586 2523.03 870.246 2525.1 C 841.356 2526.3 787.745 2526.42 769.536 2500.38 C 765.887 2476.82 812.573 2472.09 829.773 2470.24 z"/>
<path transform="translate(0,0)" fill="rgb(100,97,71)" d="M 828.908 2476 C 851.258 2472.73 899.833 2472.89 912.167 2495.04 C 913.254 2514.54 886.842 2516.52 872.216 2519.24 C 847.18 2521.14 800.864 2521.72 785.012 2498.89 C 784.003 2481.96 815.629 2477.95 828.908 2476 z"/>
<path transform="translate(0,0)" fill="rgb(0,0,0)" d="M 3202.42 2462.15 C 3229.28 2460.3 3287.33 2459.3 3300.38 2488.04 C 3299.93 2512.18 3258.41 2514.91 3239.68 2516.29 C 3217.04 2521.87 3154.74 2516.23 3142.15 2492.09 C 3141.61 2467.09 3183.46 2464.16 3202.42 2462.15 z"/>
<path transform="translate(0,0)" fill="rgb(100,97,71)" d="M 3201.96 2467.97 C 3225.85 2466.89 3270.26 2465.31 3285 2487.95 C 3286.17 2505.36 3256.82 2509.1 3243.58 2511.3 C 3218.47 2512.31 3171.8 2514.24 3155.6 2491.18 C 3155.65 2474.67 3188.72 2470.07 3201.96 2467.97 z"/>
<path transform="translate(0,0)" fill="rgb(0,0,0)" d="M 2875.72 3953.65 C 2898.26 3950.44 2960.38 3950.71 2967.19 3977.79 C 2961.45 3991.7 2940.47 3994.52 2927.14 3997.02 C 2908.73 3998.97 2828.06 3999.6 2831.73 3971.67 C 2840.09 3961.42 2862.91 3955.8 2875.72 3953.65 z M 2920.51 3992.81 C 2932.58 3989.93 2942.2 3989.25 2950 3979.52 C 2951.49 3958.37 2904.01 3956.08 2888.9 3957.68 C 2873.75 3960.17 2862.79 3961.5 2850.11 3970.88 L 2848.29 3974.69 C 2855.7 3994.67 2902.39 3993.16 2920.51 3992.81 z"/>
<path transform="translate(0,0)" fill="rgb(0,0,0)" d="M 1211.82 2476.23 C 1230.22 2475.02 1258.99 2476.21 1271.24 2491.75 C 1275 2512.35 1244.47 2513.35 1230.18 2515.46 C 1213.94 2515.72 1160.39 2515.61 1164.16 2491.26 C 1174.68 2478.69 1196.19 2477.77 1211.82 2476.23 z"/>
<path transform="translate(0,0)" fill="rgb(100,97,71)" d="M 1206.87 2482 C 1223.74 2479.7 1243.65 2481.28 1257.1 2492.46 C 1260.89 2505.92 1243.89 2507.07 1233.89 2509.15 C 1229.54 2509.36 1225.19 2509.5 1220.83 2509.56 C 1210.15 2509.69 1178.69 2507.81 1179.61 2492.32 C 1186.7 2484.11 1196.27 2483.7 1206.87 2482 z"/>
<path transform="translate(0,0)" fill="rgb(0,0,0)" d="M 2854.6 2470.19 C 2872.37 2468.79 2903.74 2470.5 2913.4 2487.64 C 2912.84 2507.27 2884.83 2507.22 2869.8 2508.73 C 2852.19 2509.93 2818.1 2509.66 2809.32 2491.77 C 2810.57 2471.91 2839.27 2471.79 2854.6 2470.19 z"/>
<path transform="translate(0,0)" fill="rgb(100,97,71)" d="M 2849.86 2475.89 C 2868.07 2475.23 2882.68 2474.32 2897.24 2486.44 C 2901.16 2500.37 2883.26 2501.26 2872.98 2503.22 C 2859.38 2503.64 2826.01 2504.87 2823.47 2487 C 2829.99 2477.98 2839.03 2477.79 2849.86 2475.89 z"/>
<path transform="translate(0,0)" fill="rgb(0,0,0)" fill-opacity="0.968627" d="M 428.517 2655.94 L 430.905 2657.58 C 433.502 2654.7 435.206 2652.33 438.272 2650.16 C 439.656 2708.28 439.012 2768.27 438.249 2826.43 C 435.211 3058.15 437.653 3290.96 432.528 3522.58 L 428.512 3512.62 L 426.947 3512.37 C 423.489 3518.42 429.901 3619.57 422.995 3629.08 C 420.813 3605.26 422.14 3559.19 422.115 3534.47 L 421.932 3351.53 L 423.387 2830.93 C 423.645 2808.17 428.018 2786.98 428.282 2766.57 C 428.757 2729.97 428.195 2692.72 428.517 2655.94 z"/>
<path transform="translate(0,0)" fill="rgb(0,0,0)" fill-opacity="0.988235" d="M 2575.75 763.511 C 2586.24 756.364 2576.37 738.652 2582.52 729.03 L 2585.81 729.396 L 2588.12 733.606 C 2587.88 739.268 2586.95 744.098 2589.52 749.272 C 2598.44 863.744 2593.63 981.093 2600.37 1095.89 C 2602.68 1135.37 2597.63 1186.81 2605.18 1224.7 C 2630.98 1237.96 2679.6 1251.15 2708.45 1260.03 C 2732.93 1267.56 2776.22 1281.92 2800.66 1286.63 L 2796.68 1290.84 C 2749.6 1283.88 2654.25 1250.02 2605.35 1234.33 C 2601.33 1233.04 2594.73 1226.92 2591.52 1223.75 C 2591.8 1180.44 2588.17 1154.87 2586.63 1113.74 L 2579.51 894.837 C 2578.57 867.018 2582.71 783.342 2575.75 763.511 z"/>
<path transform="translate(0,0)" fill="rgb(0,0,0)" fill-opacity="0.988235" d="M 3353.7 541.348 L 3355.09 539.569 C 3355.17 532.671 3356.12 521.198 3359.86 515.484 C 3360.06 525.177 3359.91 532.422 3362.2 541.937 C 3365.24 547.88 3367.62 553.047 3367.85 559.857 C 3370.65 645.484 3366.51 728.436 3374.23 813.905 C 3379.66 874.066 3372.61 942.37 3375.01 1003.14 C 3374.95 1016.77 3374.17 1032.5 3378.25 1045.51 C 3373.47 1047.9 3372.9 1047.53 3370.37 1052.03 C 3369.82 1062.72 3371.92 1071.67 3365.43 1078.94 C 3360.42 996.412 3361.33 913.738 3360 831.555 L 3353.7 541.348 z"/>
<path transform="translate(0,0)" fill="rgb(0,0,0)" fill-opacity="0.976471" d="M 3359.75 318.773 C 3364.17 333.224 3365.54 523.494 3362.2 541.937 C 3359.91 532.422 3360.06 525.177 3359.86 515.484 C 3356.12 521.198 3355.17 532.671 3355.09 539.569 L 3353.7 541.348 C 3352.37 469.971 3348.58 406.34 3348.77 334.292 C 3357.34 329.86 3357.33 327.077 3359.75 318.773 z"/>
<path transform="translate(0,0)" fill="rgb(0,0,0)" fill-opacity="0.980392" d="M 2555.67 90.4943 C 2576.36 68.7428 2631.78 54.2107 2662.99 42.9612 L 2665.35 49.4405 C 2639.59 58.731 2592.89 73.1834 2573.23 88.4389 C 2572.74 100.426 2572.75 124.534 2571.41 135.272 L 2570.82 138.513 C 2569.47 146.144 2568.59 154.616 2567.65 162.359 L 2565.44 162.257 C 2563.16 157.537 2562.92 158.243 2562.2 153.326 L 2561.79 157.033 C 2561.23 161.752 2561.02 162.337 2559 166.815 C 2556.05 159.242 2555.72 102.05 2555.67 90.4943 z"/>
<path transform="translate(0,0)" fill="rgb(0,0,0)" fill-opacity="0.964706" d="M 1228.1 206.632 C 1230.92 224.049 1229.45 278.127 1229.42 299.684 C 1229.39 317.732 1230.57 359.204 1229.34 375.264 L 1227.5 373.538 C 1225.24 360.522 1225.92 362.846 1214.79 358.3 L 1213.97 277.32 C 1215.57 285.067 1216.17 289.73 1219.37 296.896 L 1221.42 296.334 C 1228.33 268.965 1223.14 233.49 1228.1 206.632 z"/>
<path transform="translate(0,0)" fill="rgb(0,0,0)" fill-opacity="0.972549" d="M 3735.03 2409.59 C 3739.05 2381.4 3729.12 2363.98 3743.54 2340.56 C 3746.78 2364.67 3764.22 2420.57 3727.69 2424.67 C 3709.42 2426.72 3688.85 2425.29 3670.36 2426.12 L 3670.8 2421.4 C 3687.43 2421.13 3710.12 2423.39 3726.25 2419.54 C 3732.68 2418.01 3732.82 2414.73 3735.03 2409.59 z"/>
<path transform="translate(0,0)" fill="rgb(0,0,0)" fill-opacity="0.968627" d="M 3378.25 1045.51 C 3382.72 1053.28 3381 1110.86 3381.27 1123.65 C 3375.95 1112.83 3371.86 1116.59 3368.04 1107.03 L 3365.59 1109.01 L 3365.43 1078.94 C 3371.92 1071.67 3369.82 1062.72 3370.37 1052.03 C 3372.9 1047.53 3373.47 1047.9 3378.25 1045.51 z"/>
<path transform="translate(0,0)" fill="rgb(0,0,0)" fill-opacity="0.980392" d="M 719.993 629.187 C 723.606 631.349 727.208 633.532 730.798 635.734 C 734.86 626.173 729.759 617.085 732.817 613.989 C 733.099 640.474 734.544 669.458 731.828 695.809 C 731.579 698.226 726.313 704.363 724.83 707.61 C 717.364 692.334 719.984 649.272 719.993 629.187 z"/>
<path transform="translate(0,0)" fill="rgb(0,0,0)" fill-opacity="0.960784" d="M 1232.52 717.641 C 1237.04 728.076 1235.48 780.636 1235.37 794.997 C 1234.12 788.068 1233.09 783.68 1231.21 776.881 L 1229.54 776.091 C 1229.22 782.789 1229.49 790.561 1227.22 796.507 C 1223.09 790.061 1224.55 783.556 1220.4 775.118 C 1220.07 773.525 1219.96 768.029 1219.87 766.084 C 1223.87 759.637 1230.24 727.444 1232.52 717.641 z"/>
<path transform="translate(0,0)" fill="rgb(0,0,0)" fill-opacity="0.952941" d="M 3351.12 81.696 C 3352.57 85.4771 3356.75 94.4013 3355.29 97.7276 C 3352.73 107.545 3351.43 158.978 3348.95 160.777 C 3345.68 153.287 3344.95 149.641 3343 141.599 L 3343.05 131.316 C 3350.08 110.579 3340.46 94.9007 3351.12 81.696 z"/>
</svg>