<svg xmlns="http://www.w3.org/2000/svg" width="2646" height="2850" preserveAspectRatio="none" style="display:block" viewBox="0 0 2850 2850">
  <path fill="#c8c8c8" d="M1832 3h853l102 1q46 3 60 48 0 3 3 6v335l-4 4c-15 22-12 33-1 55l5 8v1912c-9 12-16 19-14 35 1 13 7 18 10 28l4 1v355c-5 6-4 12-7 19-6 18-26 31-44 37q-5 0-8 3H57l-2-2-4-1c-23-8-34-19-45-39-3-7-1-10-6-16v-352c7-9 13-23 16-33-3-14-5-24-16-33V460c19-20 21-46 0-65V61l5-5c-3-10 7-24 14-31Q37 6 63 4c13-2 43-1 57 0h108l385-1z"/>
  <path fill="#5d5d5d" d="m2846 2435 4 1v355c-5 6-4 12-7 19-6 18-26 31-44 37q-5 0-8 3H58l1-3 7-4h2719q21-1 36-16c31-26 19-69 22-107v-1l1 71c3-10 2-75 2-89v-266"/>
  <path fill="#404040" d="m5 56 2-1 2-8 2 3C4 72 8 174 7 204c2 22 0 49 1 71l-1 47v72q27 33 1 65C5 564 7 678 7 784v1479l1 110q25 33-1 66v202c0 34-4 137 5 163l-6 4c-3-7-1-10-6-16v-352c7-9 13-23 16-33-3-14-5-24-16-33V460c19-20 21-46 0-65V61z"/>
  <path fill="#5d5d5d" d="M7 322c-3-26-6-91-2-116l2-2c2 22 0 49 1 71z"/>
  <path fill="#404040" d="m2841 455 4-3 5 8v1912c-9 12-16 19-14 35 1 13 7 18 10 28v266c0 14 1 79-2 89l-1-71v-25q0-128-1-257-25-33 0-64c2-50 1-106 1-156V603c0-24 3-133-2-148"/>
  <path fill="#5d5d5d" d="M5 56c-3-10 7-24 14-31Q37 6 63 4c13-2 43-1 57 0h108l385-1h1219c-8 1-21 1-25 6H125C76 9 37 0 11 50l-2-3-2 8z"/>
  <path fill="#5d5d5d" d="M1832 3h853l102 1q46 3 60 48 0 3 3 6v335l-4 4c-2-14 2-55-3-63-1-12 1-68 1-82l-1-172c0-24-2-38-19-54q-14-13-32-16-52-2-103-1h-882c4-5 17-5 25-6"/>
  <path fill="#404040" d="M2843 334c5 8 1 49 3 63-15 22-12 33-1 55l-4 3h-1c-16-16-12-46 2-62z"/>
  <path fill="#5d5d5d" d="M12 2804q17 34 54 39l-7 4-1 3h-1l-2-2-4-1c-23-8-34-19-45-39z"/>
  <path fill="#404040" d="M126 47c84-2 175 0 259 0h2380c25 0 40 17 41 41v2665c-1 50-36 48-75 47l-1655 2-174 1H88c-22-1-40-17-41-39V138c0-27-6-81 28-89 13-3 37-2 51-2"/>
  <path fill="#f8f7f8" d="M88 50h2577l96 1c26 1 41 19 41 44v2652c0 43-24 50-61 50l-1789 2-577 1H196c-36 0-87 4-122-5-6-2-20-16-20-23q-3-58-2-116V136c0-39-10-73 36-86"/>
  <path fill="#111" d="M337 621c31-2 77 0 109 0h2019c45 0 99-2 143 0q20 1 37 12c34 23 28 58 28 94l1 88c0 25 1 80-1 101q-2 15-11 28c-12 18-30 25-51 29-38 2-91 0-130 0H339q-17-1-32-10c-36-23-32-52-32-89V714c0-24-3-44 12-64 13-19 28-24 50-29"/>
  <path fill="#f8f7f8" d="M948 692h50c-20 66-38 144-56 211q-1 4-3 6c-9 3-44 3-51 1-2-3-12-38-13-43l-34-121c-4 19-12 43-17 62l-30 103-54-1-56-218h50l36 153q5-27 14-53 15-49 28-100h58c14 49 30 103 42 152 11-47 28-106 36-152"/>
  <path fill="#c8c8c8" d="M888 910c10-1 34 1 44-4 1-1 0-6 5-9l5 6q-1 4-3 6c-9 3-44 3-51 1"/>
  <path fill="#f8f7f8" d="M1019 692h74c12 50 31 103 41 151l26-92c5-15 14-44 16-59h74c-1 71-2 148 0 219h-46V742q-11 38-21 76l-9 32-16 61h-48l-45-169-1 169h-45z"/>
  <path fill="#c8c8c8" d="M1074 775c17 14 31 124 48 131 5 2 16 0 21 0q6 1 11-5c9-12 6-44 20-51l-16 61h-48z"/>
  <path fill="#f8f7f8" d="M1847 692c45-3 76 18 84 62 9 56 12 145-59 160-88 10-95-79-87-144 5-40 19-69 62-78"/>
  <path fill="#111" d="M1842 733c18-9 31-8 40 12l3 6 3 1c1 10 4 15 5 24 2 17 9 59-6 70-5 27-22 47-47 24q-4-1-7-4c-12-34-10-90 0-125q4-5 9-8"/>
  <path fill="#c8c8c8" d="M1840 870q-4-1-7-4c-12-34-10-90 0-125q4-5 9-8c-15 30-16 106-2 137M1885 751l3 1c1 10 4 15 5 24 2 17 9 59-6 70 3-34 3-61-2-95"/>
  <path fill="#f8f7f8" d="M2148 692h49l59 137 35 81-52 1c-6-14-15-36-19-50h-95l-19 50h-50q45-110 92-219"/>
  <path fill="#111" d="M2171 745c5 4 28 67 33 79h-64c8-18 26-61 31-79"/>
  <path fill="#f8f7f8" d="m1361 692 31-1q4 1 5 3c-1 36 4 142 0 172l1 44-46 1V755c-21 17-31 22-57 32v-40c31-12 51-25 66-55"/>
  <path fill="#c8c8c8" d="M1392 691q4 1 5 3c-1 36 4 142 0 172l-1-18c-1-8-5-25-4-31 1-15 5-25 5-41q-1-18-4-35c-1-10 1-28 2-39-6-4-5-4-3-11"/>
  <path fill="#f8f7f8" d="M1683 692h37c-2 70 0 148 0 219h-45V754c-17 17-35 24-57 33v-40l10-4c24-11 45-26 55-51M1522 692h37l-1 219h-45V755c-17 16-35 24-56 32v-40c31-12 50-26 65-55M1968 811h87l1 42h-88z"/>
  <path fill="#111" d="m2362 1672 124 1v39h-41v39h-40v39l42-1v39h47v-78h42l2-75h83l-1 39h-42v37h-42v117c32 0 49 5 81 5v38l42 1v37h-42v38h42v116h-43l1-40q-42 0-85-2 0 39-1 76l-41 1v-38q-88 1-175 1l1-78h-44l-1-38 85-1c-1-30 5-47 4-78h-44l-1 38h-87l1 38-96-1v-39h-42v-78l42 1v38h43v-38h51v-33h41v-38h-47v-84h-45v-38c44 0 95 2 138 0v42h-46v78h46v-40l90-1 1-40h-43z"/>
  <path fill="#f8f7f8" d="M2446 1947h43v39q64 0 128 1v38l-126-1v37h-43v-39h-43v-38h41zM2404 1907h42v40l-41-1zM2269 1833h85v34h-41l1 38h-86l-1-36 42-1zM2531 1908q42 2 86 3v38l-86-2zM2405 1830c10-2 31-1 42-1v39h-42z"/>
  <path fill="#c8c8c8" d="M2405 1830c10-2 31-1 42-1v39l-1-10c-2-33-14-25-41-28"/>
  <path fill="#111" d="M298 1382h229c-13 11-36 38-48 51H352v162h97v-2c7-60 42-117 89-154a260 260 0 0 1 368 48l-45 29c-21-26-43-46-74-60-97-46-221-10-268 89a169 169 0 0 0 5 161 203 203 0 0 0 336 19l46 29c-140 178-424 117-458-108h-96v182l-54 33v-479M443 1957c51-6 117 12 157 43 50 39 71 79 80 141-68 18-164 31-236 35v-66c-50 7-121 25-171 37-5 38-3 66 10 103 18 47 53 85 99 105 48 23 103 23 153 5 48-20 78-52 102-97h38a220 220 0 0 1-183 143c-63 8-126-10-175-50a225 225 0 0 1-31-318c38-47 97-75 157-81"/>
  <path fill="#f8f7f8" d="M447 1992c28-4 75 5 100 17 48 25 74 53 92 103-57 14-98 17-156 23v-69c-63 10-135 27-197 41 30-68 88-108 161-115"/>
  <path fill="#111" d="M1752 1351c26 2 72 0 99 0h198v277l-2 2-295 1v-280"/>
  <path fill="#f8f7f8" d="M1794 1390h214v201h-214z"/>
  <path fill="#111" d="M1837 1430h128v121h-128zM2365 1351h296v197c0 13 1 73-1 81l-2 1h-294c2-29 1-69 1-99z"/>
  <path fill="#f8f7f8" d="M2427 1390c59-2 133 0 193 0v201h-214c-2-64-1-137 0-201z"/>
  <path fill="#c8c8c8" d="M2406 1390h21c-3 1-15 3-15 7-1 47-3 103-2 150h-1l-1-21c0 20 2 44 1 62l14 3h-17c-2-64-1-137 0-201"/>
  <path fill="#111" d="M2448 1430h63c11 0 61-2 66 2 8 22 10 96 1 119h-130z"/>
  <path fill="#c8c8c8" d="M2577 1432c8 22 10 96 1 119-2-8-1-32-1-41z"/>
  <path fill="#111" d="M1752 1902c28 2 71 0 100 0l197 1c1 90-2 184 1 275q-56-2-111 0h-187v-276"/>
  <path fill="#f8f7f8" d="M1795 1942c67 2 144-1 213 0v197h-214v-132c0-11-1-57 1-65"/>
  <path fill="#111" d="M1844 1981c14-5 111-8 121 0v118h-128v-116l2-1z"/>
  <path fill="#c8c8c8" d="M1844 1981c14-5 111-8 121 0-37 2-83 0-121 0"/>
  <path fill="#111" d="M86 82c6-3 102-2 120-2l221 1c-28 24-61 56-88 82L157 333c-9 8-63 60-70 64l-1-4c-3-72 2-148 0-220zM1592 1438q24-2 47 1l1 62c-85-10-156 32-180 115h135v62h-135a154 154 0 0 0 179 117l1 64c-63 4-118-6-169-46-45-36-74-87-80-144-6-54 10-108 45-150 40-50 93-74 156-81M1486 295c3 4 2 232 2 256h-51v-19c-52 31-108 28-155-11q-22-21-29-52c-6-26 0-54 14-76 39-57 115-63 170-26v-48z"/>
  <path fill="#f8f7f8" d="M1359 389q24-2 44 10 21 14 26 40 3 22-10 42c-12 17-28 23-47 26q-24 2-44-10-21-14-26-40-3-24 11-44c12-16 28-21 46-24"/>
  <path fill="#111" d="m2349 299 2 1c2 4 1 226 1 251h-50v-19c-49 29-107 30-151-11a98 98 0 0 1-31-58q-4-41 20-72 30-37 77-43 48-7 86 22l-1-49q25-10 47-22"/>
  <path fill="#f8f7f8" d="M2185 489q-10-10-14-24-6-23 6-43 14-23 41-29 28-6 53 10 19 13 24 36 5 22-7 40a61 61 0 0 1-41 28q-28 6-51-9z"/>
  <path fill="#c8c8c8" d="M2185 489q10 1 20 5l-3 2c5 3 9-3 19 6 18 6 46-12 60-20l7-3a61 61 0 0 1-41 28q-28 6-51-9z"/>
  <path fill="#111" d="M1256 1438c11-1 31 0 42 1v62c-56-8-112 10-148 54a144 144 0 0 0 21 207c37 30 80 38 127 33v64l-20 1c-183 7-302-200-180-344q63-72 158-78M757 2163c23-1 171-3 182 2q3 1 2 3c3 7 3 170 2 189q0 5-3 10H755c-1-26-2-191 2-204"/>
  <path fill="#f8f7f8" d="M768 2176h161v175c-6 5-144 2-160 2z"/>
  <path fill="#111" d="M800 2197c24 0 55-2 77 4 21 6 26 35 15 52-8 14-13 15-27 20 22 15 28 38 43 60l1 2c-7-1-24 0-28-2-10-19-22-47-39-58h-22v59h-20z"/>
  <path fill="#f8f7f8" d="M820 2216c22 0 77-5 51 35-12 7-37 5-51 5z"/>
  <path fill="#111" d="M2559 350c53-9 113 32 122 86q7 39-16 72c-20 30-48 42-83 48-24 4-61-5-80-20-84-66-43-172 57-186"/>
  <path fill="#f8f7f8" d="M2509 460a61 61 0 1 1 122-14 61 61 0 0 1-122 14"/>
  <path fill="#c8c8c8" d="m2509 460 5 6 1-1c5 8 3 14 11 22q18 20 46 21c10 0 34-10 42-16l3 1a61 61 0 0 1-108-33"/>
  <path fill="#111" d="m847 339 8-1c62 1 112 44 113 108v21H796c19 48 69 50 108 23l8 7 30 24c-44 37-117 45-161 8-82-69-36-180 66-190"/>
  <path fill="#f8f7f8" d="M850 385q45-3 64 38H798l8-13q17-22 44-25"/>
  <path fill="#111" d="M1103 339c56-5 111 34 119 90q3 20 1 38h-172c22 45 68 53 107 23l10 8 29 23c-45 40-117 44-164 5q-33-27-37-70-4-44 24-77 33-37 83-40"/>
  <path fill="#f8f7f8" d="M1107 385c32-1 49 11 63 38h-117c13-26 26-34 54-38"/>
  <path fill="#111" d="m591 339 8-1c59 1 107 39 113 99l1 30H541c24 45 66 53 107 24l9 6 31 23c-45 39-114 46-161 9q-35-27-42-71c-7-65 44-113 106-119"/>
  <path fill="#f8f7f8" d="M596 385c32-2 49 11 64 38H543c15-24 23-34 53-38"/>
  <path fill="#111" d="M698 1485c54 2 85 19 120 59l-45 31-11-13a92 92 0 0 0-68-25q-39 2-64 29a80 80 0 0 0 6 116 94 94 0 0 0 134-11l2-3c7 1 38 24 45 29l-9 11a150 150 0 0 1-210 10c-27-23-43-57-44-92s12-69 35-94c31-33 65-45 109-47M2174 1353h52v80h44l1 40h43v78h-86c2 20 1 60 0 82l-52-1v-40h-43v82h-42v-163h180v-38q-48 0-97-2zM1674 339q47-2 85 25l-23 34c-22-17-60-30-86-13-3 2-12 13-10 17 9 24 53 22 73 30q19 6 34 17c23 19 25 55 5 76-21 24-52 27-82 28-36-2-58-8-86-30l29-31q31 26 70 23c8-1 20-5 25-12 19-28-23-34-41-37l-25-6q-19-5-34-16c-23-17-26-55-7-76s46-27 73-29M367 339c33-2 59 7 86 26l-24 33a91 91 0 0 0-50-21c-16-1-45 3-44 24 1 16 28 21 40 23 24 6 49 10 68 27 21 19 23 53 3 74-22 24-50 27-82 28-36-2-59-7-86-31l28-31c24 18 65 38 94 13 12-11 3-27-10-31-42-13-114-13-107-77 5-42 47-54 84-57M2041 360l51 1v46c0 21 1 48-1 69-10 83-126 101-177 49q-14-14-20-33c-4-18-3-108-3-132h51v72q-1 20 1 40c7 50 93 47 97-2 3-34 1-75 1-110M1752 1674h85l-1 39h-42v38l126-1v75c-5 3-36 2-43 2l1-38h-42v38h-42l1-38h-43zM1840 313v56h27v44c-7 1-18 0-22 2-3 14 4 43 3 58-1 6-6 16-3 21 5 9 17 7 21 14l-1 44c-79-4-74-46-74-109V337z"/>
  <path fill="#c8c8c8" d="m1840 412 27 1c-7 1-18 0-22 2-3 14 4 43 3 58-1 6-6 16-3 21 5 9 17 7 21 14q-11 1-19-5c-12-11-7-73-7-91"/>
  <path fill="#111" d="M344 2251h236v41h-93v64h-49v-64h-94zM2229 2062h43v40l42-1v38l-2 1c-30 0-53-4-84-3v38l-137 2v-78l42 1v37h94c-1-25 3-48 2-75M397 2514h38v118c-6 0-16 1-22-1q-3 0-3-4c-3-14 2-47-6-55-3 7-3 12-9 18l-13 42h-25l-18-55-4-2q-6 6-4 12c0 5 3 22 2 24-2 9-4 10-5 20l-25 2q2-60 1-119h38c5 20 21 58 27 84z"/>
  <path fill="#c8c8c8" d="m328 2541 11 36-4-2q-6 6-4 12c0 5 3 22 2 24-2 9-4 10-5 20zM410 2542v85c-3-14 2-47-6-55-3 7-3 12-9 18z"/>
  <path fill="#111" d="M767 1070h57c50 6 52 75 28 107-19 20-59 14-85 15z"/>
  <path fill="#f8f7f8" d="M791 1084c35-1 59-2 60 45 0 21-6 41-28 47-8 2-30 1-39 1 0-12-2-88 2-93z"/>
  <path fill="#c8c8c8" d="M784 1177c0-12-2-88 2-93h5c7 2 7 2 14 1l2-1 3 3c-7 2-17-1-20 2l9 6c-6 1-7 0-9 5v75l33 1c-8 2-30 1-39 1"/>
  <path fill="#111" d="M345 2189c76 2 158 0 235 1v40l-85 1-151-1c0-10-1-31 1-41M2133 1752h41q0 58 2 113h-43v-39l-42 1v37h-83v-38h80l3-1v-36h42zM2382 376h48v175l-1 1-47 1zM1983 1069c42-3 48 37 46 69-1 25-6 47-32 56-20 0-34-6-41-27-8-23-7-55 2-77q8-16 25-21"/>
  <path fill="#f8f7f8" d="M1986 1081c30 0 29 33 29 55-1 18-2 35-19 45l-11-1c-26-10-21-61-14-83q4-11 15-16"/>
  <path fill="#111" d="M627 2514h23v118h-18c-4-3-3-2-5-9-13 0-10 14-41 9a50 50 0 0 1-17-74q9-11 24-14 18 0 32 11 0-21 2-41"/>
  <path fill="#f8f7f8" d="M602 2561c30 1 33 45 7 55-31 0-34-46-7-55"/>
  <path fill="#111" d="m1640 1070 4-1 1-2-5-2 1-2q9-4 18-1l1 2-5 4 7 1-1 96v25q-8 3-14 1c-2-3-2-92-2-104l-2 7c-3 9-30 94-35 96q-5 3-11 0c-4-2-32-91-36-103v105h-16v-122h25c8 32 24 71 34 104 4-14 31-96 36-104"/>
  <path fill="#c8c8c8" d="m1640 1070 4-1 1-2-5-2 1-2q9-4 18-1l1 2-5 4 7 1z"/>
  <path fill="#111" d="M1438 1070h20l5 21 22 82c2-13 20-98 27-103q6-1 12 1 0 8-3 15l-29 105h-16q-14-52-29-105l-28 105-17 1c-10-39-20-85-32-122h15c6 5 22 90 25 104zM2008 1674h83v39h41v38c-22 0-62-2-82 0v-38l-42-1zM2001 2230c18-2 45 4 41 27-14 14-24-38-48-9-9 11-12 17-11 32l1 1c23-16 44-17 59 10 12 36-17 66-48 53-39-16-38-101 6-114"/>
  <path fill="#f8f7f8" d="M1991 2326c-8-14-11-32 6-40q10-5 19-2c19 6 17 25 12 40q-18 20-37 2"/>
  <path fill="#c8c8c8" d="M1991 2326c7-3 2-2 4-7l5 6c8 2 20 0 28-1q-18 20-37 2"/>
  <path fill="#111" d="M1795 2230c16-2 31-1 41 13 17 27 16 75-9 96-20 17-60-1-55-20 4-4 3-3 11-4 4 3 4 10 7 13 33 25 40-21 42-40-10 13-24 21-40 15q-14-6-20-19c-10-24 0-45 23-54"/>
  <path fill="#f8f7f8" d="M1803 2242c8-1 9-1 17 2q14 13 9 31c-18 48-77-18-26-33"/>
  <path fill="#c8c8c8" d="M1820 2244q14 13 9 31c-18 48-77-18-26-33l-2 1c-5 7-13 12-13 22 1 17 16 25 30 15l1-8 1 6c11-5 2-25 0-34"/>
  <path fill="#111" d="M1444 2568c7-11 12-20 26-22 82-14 40 52 59 85h-24l-1-2-3-5c-16 6-28 13-46 6-12-5-15-25-9-35 4-7 18-12 26-13 3-5 4-3 6-9-2-5-1-3-6-6-6 4-6 4-15 3z"/>
  <path fill="#c8c8c8" d="M1472 2567c6-10 22-7 28 2 0 11-19 11-28 13 3-5 4-3 6-9-2-5-1-3-6-6"/>
  <path fill="#f8f7f8" d="M1495 2591h3c5 6 1 16-4 21q-8 8-19 5-10-5-7-16c8-7 17-7 27-10"/>
  <path fill="#111" d="M1097 2514c29-2 44 7 56 33l-9 2c-26 5-17-9-29-14-29-8-43 6-45 33-4 40 39 66 59 24l1-3c4-1 18 4 23 6-7 19-14 30-35 35-32 8-68-9-72-44q-9-61 51-72M1964 1713h43v17l1 3 1 7c9 9 30 3 41 1v19l-1 30c-17 7-33 5-52 3h1l-16-1h2c-5 0-15 0-19-2-3-9-3-67-1-77"/>
  <path fill="#c8c8c8" d="M2049 1790c-17 7-33 5-52 3h1l-16-1h2c-5 0-15 0-19-2-3-9-3-67-1-77 2 16 1 59 1 76 14 0 74-2 84 1M2007 1730l1 3 1 7c9 9 30 3 41 1v19l-2-9h-41z"/>
  <path fill="#111" d="M492 2544c72-5 32 50 50 86l1 2c-6 0-20 1-24-1q-1-5-4-7c-23 3-24 21-52 1-26-35 16-42 41-47q12-2 8-13-19-10-32 6l-22-2c10-19 14-21 34-25"/>
  <path fill="#c8c8c8" d="M502 2593c7-1 6-2 11 0q3 13-7 21c-11 5-22 6-25-8 3-12 11-11 21-13"/>
  <path fill="#111" d="M512 1153c-15 32-32 49-71 39q-20-6-30-26c-24-50 7-115 70-95 15 5 21 18 27 31l-16 5c-9-7-27-24-34-24-40 17-48 68-11 90 25 14 36-17 47-25q8 4 18 5"/>
  <path fill="#c8c8c8" d="M494 1148c-8 42-59 43-71 6s7-88 53-69c8 3 13 14 16 22-9-7-27-24-34-24-40 17-48 68-11 90 25 14 36-17 47-25"/>
  <path fill="#111" d="M1176 2514h23v43c15-13 36-19 51-5 14 13 8 60 8 79h-23v-45c0-12-4-27-19-26-24 2-17 56-16 71h-25c2-36 1-81 1-117M708 2544c35-2 46 20 47 51-12 0-55-5-60 5 6 21 23 22 35 7q3-3 8-1l10 1c4 4 3 2 3 7-4 9-15 15-25 17-45 14-69-32-48-69 7-12 18-15 30-18"/>
  <path fill="#c8c8c8" d="M706 2562c13-2 31 8 23 19h-5q-14 3-27-2c-5-7 4-13 9-17"/>
  <path fill="#111" d="M1056 1070c8-3 62-7 42 16-23 26-44 57-67 83 0 4 0 2 2 6 17 2 46-2 62 2q1 8-2 13c-6 2-83 2-92 0l-1-2c0-13 10-24 18-34q28-36 57-70c-12 0-62 2-67-2v-11c7-2 39-1 48-1"/>
  <path fill="#c8c8c8" d="M1056 1070c8-3 62-7 42 16-23 26-44 57-67 83 0 4 0 2 2 6 17 2 46-2 62 2h-77c25-26 49-63 75-92v-15z"/>
  <path fill="#111" d="M1158 1075c4-5 2-4 9-6 5 1 3 0 6 4l1 3v72c8 0 11-2 16 5 0 5 1 3-2 7q-7 3-15 2c1 10 3 26-7 32-10-6-7-23-7-32-12 0-40 1-50-1-12-8 40-74 49-86"/>
  <path fill="#171717" d="M1158 1075c4-5 2-4 9-6 5 1 3 0 6 4l1 3-5-2-6 7c-4-2-3-2-5-6"/>
  <path fill="#f8f7f8" d="M1159 1093v54c-8 2-30 1-38 1q20-27 38-55"/>
  <path fill="#c8c8c8" d="M1159 1093v21c-3-4-5-3-6-6-2 21-25 23-19 35 9 6 15 2 25 4-8 2-30 1-38 1q20-27 38-55"/>
  <path fill="#111" d="M931 2544h3c44 0 32 56 32 88l-24-1v-28c0-23 3-54-30-37-9 15-6 48-6 65h-23c0-26 1-59-1-85 6 0 19-1 22 1l1 8 2 1c10-6 13-9 24-12M1385 2544h4c44-1 32 56 32 87h-24c0-22 11-84-28-66-11 13-7 47-7 66h-24l1-85q11-1 20 1l2 8c2 1 18-9 24-11M1244 2229q6 0 11 2c2 16-1 44 0 61 0 16 11 9 17 14q1 4-1 10-7 2-16 1v8c1 11 1 13-5 21h-4c-7-7-5-18-5-27-7-8-44 5-53-7-1-13 46-69 56-83"/>
  <path fill="#f8f7f8" d="m1240 2254 1 49h-35l-1-2z"/>
  <path fill="#111" d="M580 1068c31-2 44 8 56 35q-9 2-16 5l-1-2c-15-38-58-31-69 3-12 37 11 91 57 65 10-9 11-12 14-24l17 3c-7 21-15 34-38 40-62 15-86-60-58-103 9-15 22-19 38-22M300 1070c13 0 75-2 81 2q1 5-1 11c-9 2-53 1-64 1v37c14 1 42-1 55 1q3 7 2 15c-10 1-40-1-44 3-1 6 0 4-4 8h-4c-5 7-2 32-4 43q-8 2-16-1l-1-41z"/>
  <path fill="#c8c8c8" d="M316 1136c13 0 45-1 57 1-10 1-40-1-44 3-1 6 0 4-4 8h-4c-5 7-2 32-4 43-2-8-1-44-1-55"/>
  <path fill="#111" d="M1207 1069c4 0 2 0 6-2v1l1-1-5-3v-2l4-2c12 2 81 0 88 2v2l-12 4 14 1c0 8 1 8-2 13-11 5-26 2-39 2v79c0 7 2 23-2 28h-11c-4-6-2-93-2-107h-40z"/>
  <path fill="#c8c8c8" d="M1207 1069c4 0 2 0 6-2v1l1-1-5-3v-2l4-2c12 2 81 0 88 2v2l-12 4 14 1c-16 2-69 1-87 1z"/>
  <path fill="#171717" d="m1207 1069 9 1v1q0 5-2 9l1 2q8-1 12 2h-20z"/>
  <path fill="#111" d="M1597 2230h3c21-2 44 4 45 30 0 28-40 49-57 69l-1 1c10 0 53-2 58 3q1 6-1 10c-10 2-40 1-51 1h-27c10-38 44-43 61-74 15-26-31-41-39-16l-5 8q-5 2-12 0l-2-1c5-19 8-25 28-31M1696 2230l7-1c33-1 51 27 23 52 33 14 24 53-5 63q-18 6-35-3c-10-5-19-17-13-28 10-5 12 4 14 11 12 14 36 13 41-3 12-31-13-30-27-35-3-4-2-2-2-8 13-4 41-15 22-31-16-13-27-6-35 9q-2 4-8 4c-5-2-4 0-6-5 0-14 13-21 24-25M2277 1351h43v81h-43zM1021 2230c12-2 29-2 39 7 37 36-26 69-46 92l-1 1c10 1 55-2 58 4 0 6 1 3-2 7-9 5-33 3-45 3h-9q-6 1-11-2-5-6-5-14c10-18 30-29 44-44 6-6 13-16 13-25-1-10-15-23-26-19-11 3-15 13-20 22q-9 5-14-5c1-15 13-22 25-27M2089 1392h41l1 78h-42zM2400 2140h82v38h-83c0-9-1-32 1-38M1779 1115c-1-5-2-14 2-16 7-2 34-29 36-30 4 1 3 0 5 4 2 19 0 49 0 69 1 11 2 37 0 47q-6 5-15 2c-2-4-1-31-1-38l-2 8c-1-13 2-41-2-52-5 0-12 6-23 6"/>
  <path fill="#c8c8c8" d="M1779 1115q15-8 29-19c0 14 1 87-1 95-2-4-1-31-1-38l-2 8c-1-13 2-41-2-52-5 0-12 6-23 6"/>
  <path fill="#111" d="M1869 2231c12 0 70-2 76 1q2 6 0 10c-24 32-40 58-44 100q-7 3-15 2 4-56 42-99l-57-1q-3-6-2-13M1732 1068c6 1 4 0 8 3 1 11 1 115-2 119-5 2-5 2-10 1-4-6-3-26-3-34l1-61c-6 5-20 18-28 15l-2-3c1-12 17-16 24-25z"/>
  <path fill="#171717" d="m1899 1069 7 1 1 3c0 16 3 111-2 118-5 1-5 1-9-1-6-8-3-26-3-38v-56c-5 4-23 19-29 16-1-13 1-13 12-21 10-6 15-14 23-22"/>
  <path fill="#111" d="M1138 2229c6 0 5-1 9 2v43l1 70h-15v-90q-14 11-29 18v-14c16-9 24-13 34-29M1514 2229c5 0 4-1 8 1 1 12 2 110-2 114q-6 1-10-3c-3-6-2-19-1-26l-1-61-1 1c-5 5-19 14-26 15l-1-2c0-15 20-19 33-37zM1287 2546h24c-1 13 1 81-2 85h-23zM831 2546h24c-1 19 0 66 1 85h-25c2-20 1-64 0-85M730 1069l3 3c0 28 2 91 0 117-5 3-6 2-12 3l-3-1c-2-4-1-108-1-120q6-3 13-2M2382 315h49l-1 38c-5 2-39 1-48 1zM2273 1591h44v41h-44zM2591 2103h25l-1 40h-42v-39zM1873 1674h39v39c-8-1-39 1-43-2 0-8-1-29 1-35zM2134 2061l41 1 1 38h-43zM2091 2023h42v38h-42zM2314 2140h42l1 38h-43zM2619 1835l41 1v38h-41zM1310 1139q21 0 43 1 3 6 2 13c-13 0-36 4-45-2q-2-6 0-12M1350 2296c14 0 31-3 43 2 3 4 2 4 1 11-7 0-39 2-43-1zM831 2514h24v20h-24zM1287 2514h23v20h-23zM900 1097h17v17h-17z"/>
  <path fill="#171717" d="M900 1164q8 0 15 2 3 6 2 15-8 1-15-2-3-6-2-15"/>
  <path fill="#c8c8c8" d="M717 1061c8 0 13-2 17 4q-9 3-16-1z"/>
</svg>
