<svg xmlns="http://www.w3.org/2000/svg" width="1564" height="4096" preserveAspectRatio="none" style="display:block" viewBox="0 0 4096 4096">
  <defs>
    <linearGradient id="a" x1="4004.4" x2="4039.2" y1="3971.7" y2="4001.3" gradientUnits="userSpaceOnUse">
      <stop class="stop0" offset="0" stop-color="#131716"/>
      <stop class="stop1" offset="1" stop-color="#343433"/>
    </linearGradient>
  </defs>
  <path fill="#f1f1ef" d="M3081 1568c0-46-12-170 26-196 123-84 306-57 449-61 61-1 143-3 202 1 61-2 127 9 184 33 25 9 58 28 70 53 12 27 2 190 5 234 14 10 17 13 28 25 7 9 16 25 16 37q2 68 1 137v549c0 19 2 74 0 91 3 131 0 270 0 401v592c15 5 21 6 34 16v119c-13 9-18 11-34 15-1 109-2 228 0 336 2 60-49 88-98 106-21 9-75 25-97 26-49 12-124 12-174 12h-84l-158-1-80 1H1702l-1373-1c-85 5-285-25-320-109-3-7-2-169-2-191V1780l1-92q2-24 20-40c46-43 128-64 189-72 85-12 181-8 267-8h394l31 10c168 2 336-2 503 0q38 1 77-1l39-8c40-4 120-1 164-1h1389m218-89c25 33 79 41 118 41 95-3 193 3 288-2 24-1 82-14 93-38 0-29 14-44-16-67-13-7-38-18-53-20-112-10-228-5-340-2-30 0-73 14-90 39z"/>
  <path fill="#2e2e2e" d="M3081 1568c0-46-12-170 26-196 123-84 306-57 449-61 61-1 143-3 202 1 61-2 127 9 184 33 25 9 58 28 70 53 12 27 2 190 5 234 14 10 17 13 28 25 7 9 16 25 16 37q2 68 1 137v549c0 19 2 74 0 91 3 131 0 270 0 401v592c15 5 21 6 34 16v119c-13 9-18 11-34 15-1 109-2 228 0 336 2 60-49 88-98 106-21 9-75 25-97 26-49 12-124 12-174 12h-84l-158-1-80 1c-12-11-128-1-156-8 54-1 215 10 255-19 27-20 9-71 14-100 4-26 25-42 47-53 45-22 98-30 148-33 67-4 137-1 205-1q41 1 84-2c19-3 44-8 60-20 6-4 8-6 9-14q3-32 2-66V2222l-1-266v-130c-2-44-133-38-160-38-65-1-126 2-191-2-59-3-176-16-203-80-11-26 9-84-13-104-33-30-114-25-154-25H1489l39-8c40-4 120-1 164-1h1389m218-89c25 33 79 41 118 41 95-3 193 3 288-2 24-1 82-14 93-38 0-29 14-44-16-67-13-7-38-18-53-20-112-10-228-5-340-2-30 0-73 14-90 39z"/>
  <path fill="#d1d2d0" d="M3758 1312c61-2 127 9 184 33q1 6-1 12c19 11 51 34 53 56 7 66 5 141 3 207-102-54-240-52-352-52h-540c0-22-2-150 3-160 50-109 309-88 401-90 103-2 168 3 251 0l15-3zm-459 167c25 33 79 41 118 41 95-3 193 3 288-2 24-1 82-14 93-38 0-29 14-44-16-67-13-7-38-18-53-20-112-10-228-5-340-2-30 0-73 14-90 39z"/>
  <path fill="#2e2e2e" d="M3758 1312c61-2 127 9 184 33q1 6-1 12c-60-29-116-33-181-39l15-3z"/>
  <path fill="#9c9c9a" d="M3391 1363c51-3 116-1 168-1 63-1 134-2 197 6 33 5 67 14 93 35 23 17 23 85 3 103-39 33-109 37-158 38q-103 2-207 2c-49 0-102 1-150-5-37-5-104-21-110-66-2-16 0-52 12-66 36-37 105-43 152-46m-92 116c25 33 79 41 118 41 95-3 193 3 288-2 24-1 82-14 93-38 0-29 14-44-16-67-13-7-38-18-53-20-112-10-228-5-340-2-30 0-73 14-90 39z"/>
  <path fill="#2e2e2e" d="M3277 1430c27-35 69-45 112-47q104-5 208-3c64 1 142-4 200 26 14 11 21 14 25 33 16 67-61 82-112 87-57 5-128 0-187 2-30 0-110 2-137-1l-19-2c-36-6-70-15-92-45 0-18 0-32 2-50m22 49c25 33 79 41 118 41 95-3 193 3 288-2 24-1 82-14 93-38 0-29 14-44-16-67-13-7-38-18-53-20-112-10-228-5-340-2-30 0-73 14-90 39z"/>
  <path fill="#2e2e2e" d="M3797 1406c14 11 21 14 25 33 16 67-61 82-112 87-57 5-128 0-187 2-30 0-110 2-137-1 15-1 16 0 31-7 95-3 193 3 288-2 24-1 82-14 93-38 0-29 14-44-16-67z"/>
  <path fill="#d1d2d0" d="M3483 4086q-8 1-17-2l19-8c39-21 11-82 24-117 36-102 367-62 462-72q35-4 67-19v105c-11 38-41 55-76 71l3 5c-4 3-3 1-4 5l3 2c-21 9-75 25-97 26-49 12-124 12-174 12h-84l-158-1c12-7 18-2 32-7"/>
  <path fill="#1c1d1b" d="M3483 4086c24-1 111-2 132 0 16 4 73 2 78 8h-84l-158-1c12-7 18-2 32-7"/>
  <path fill="#2e2e2e" d="M3615 4086c74-2 128 1 205-5 14 6 27-2 47 1-49 12-124 12-174 12-5-6-62-4-78-8"/>
  <path fill="#272826" d="m3962 4044 3 5c-4 3-3 1-4 5l3 2c-21 9-75 25-97 26-20-3-33 5-47-1 52-8 94-16 142-37"/>
  <path fill="#7c7d7b" d="M3701 3897c65-4 157 2 211 40 53 37 5 77-36 91-40 13-68 18-109 21-65 5-150-3-207-36-22-12-41-41-21-63 37-40 111-49 162-53"/>
  <path fill="#d1d2d0" d="M3702 3905c43-7 159 6 191 35 80 72-92 98-129 100-50 4-153-3-191-35-81-71 98-98 129-100"/>
  <path fill="#7c7d7b" d="M3705 3935c96-15 209 51 61 75-33 4-89 3-117-15-60-39 31-57 56-60"/>
  <path fill="#9c9c9a" d="M3711 3943c77-12 160 40 51 59-83 13-170-41-51-59"/>
  <path fill="url(#a)" d="M4038 3973c18-22 1-59 12-84l3-1c5 11 0 49 4 65h3l2-3c2 60-49 88-98 106l-3-2c1-4 0-2 4-5l-3-5c35-16 65-33 76-71"/>
  <path fill="#d1d2d0" d="m3445 1577 199-1c111-1 309-4 385 89 21 40 2 92 12 135-58-28-105-18-169-21-111-4-257 19-351-50-25-19-17-88-18-120-16-22-32-26-58-32"/>
  <path fill="#7c7d7b" d="M3728 1613c58-1 135 9 185 40 22 14 33 44 12 64-43 42-124 48-180 51-61 1-139-5-191-41-20-14-32-42-11-61 46-44 125-50 185-53"/>
  <path fill="#d1d2d0" d="M3701 1623c38-7 208 3 215 64 5 54-109 70-150 72-46 5-154-4-189-33-91-73 89-100 124-103"/>
  <path fill="#7c7d7b" d="M3703 1653c37-2 79-4 114 13 11 5 30 20 19 34-15 19-45 24-68 28-41 2-86 3-123-17-13-7-20-19-8-32 17-19 42-24 66-26"/>
  <path fill="#9c9c9a" d="M3720 1659c21-2 67-1 83 13 42 39-37 47-54 49-26 1-89 1-97-31 3-26 47-29 68-31"/>
  <path fill="#272826" d="M4052 2275c2 2 3 74 3 81v966c-1 37 0 96-3 132l-1 1-1 4q-4-32-1-63c-3-11-2-39-3-52-2-57 2-115 1-173v-648c1-68-2-148 0-215l3 16h2z"/>
  <path fill="#1c1d1b" d="m4047 3712 8-6q1 55-1 110c-3-4-9-95-7-104"/>
  <path fill="#272826" d="M4047 3712c0-17-2-63 5-77 4 11 3 57 3 71zM878 1568l31 10H751c-49 0-137-8-169 36-1 33 8 97-20 118-95 71-234 52-346 56-34 1-186-11-187 41l-1 297v1702q-1 16 8 28c26 24 81 24 113 24h130c84 0 212-5 283 54 29 24 18 83 21 123 47 41 125 26 186 29 88-2 184 0 273 0h1160c111 0 226-2 336 0-28 4-79-6-95 8h-741l-1373-1c-85 5-285-25-320-109-3-7-2-169-2-191V1780l1-92q2-24 20-40c46-43 128-64 189-72 85-12 181-8 267-8z"/>
  <path fill="#d1d2d0" d="M307 1577c34-2 81-1 116-1l199 1c-29 6-45 10-63 35-2 35 9 93-14 114-54 48-154 52-220 53H185c-51 0-111-4-157 21 0-44-9-119 20-147 63-58 178-72 259-76"/>
  <path fill="#7c7d7b" d="M317 1613c48-2 169 11 198 47 75 90-139 108-173 108-61 1-142-5-193-41-39-30-22-64 16-82 50-24 98-29 152-32"/>
  <path fill="#d1d2d0" d="M296 1623c60-6 150 1 200 39 11 8 14 16 18 28q-2 12-9 21c-29 36-97 44-141 49-55 2-156-1-198-39-76-70 99-95 130-98"/>
  <path fill="#7c7d7b" d="M297 1653c13-2 31-1 44-2 83-2 146 59 22 77-39 2-81 3-118-14-15-7-26-20-13-35 16-20 42-23 65-26"/>
  <path fill="#9c9c9a" d="M317 1659c27-1 85-1 94 32-2 24-48 29-67 31-13 0-113 2-91-43 6-13 47-19 64-20"/>
  <path fill="#d1d2d0" d="M28 3868c48 25 98 19 149 21 112 3 231-16 335 30 65 28 46 80 48 138 16 18 38 24 41 29H443c-86-1-365 11-413-107-5-13-2-91-2-111"/>
  <path fill="#7c7d7b" d="M296 3897c51-3 214-2 236 73 2 7-4 23-10 28-39 37-107 47-158 51-52 4-212 0-235-73-2-8 3-22 8-28 39-38 108-47 159-51"/>
  <path fill="#d1d2d0" d="M296 3905c49-6 163 4 197 38 73 71-94 95-127 97-50 4-155-2-194-35-82-70 91-97 124-100"/>
  <path fill="#7c7d7b" d="M305 3935c29-4 115-3 128 34 10 28-52 38-71 41-35 5-78 2-110-12-12-6-33-23-21-37 16-17 52-24 74-26"/>
  <path fill="#9c9c9a" d="M307 3943c72-13 167 39 52 58-24 3-64 4-87-8-55-29 5-47 35-50"/>
  <path fill="#1c1d1b" d="M2538 4086c126-2 257 0 383 0 96 0 200-2 294 0 28 7 144-3 156 8h-928c16-14 67-4 95-8"/>
  <path fill="#2e2e2e" d="M896 2659c26-3 98-2 126-2l250 1h879l733-1h193c40 0 128-8 152 26 3 15 2 58 2 76l-1 143v122c1 62 16 86-56 98q-15 2-31 2H999c-48 0-127 9-163-26 1-46-4-405 4-418 9-15 39-19 56-21"/>
  <path fill="#d1d2d0" d="M3505 1887c16-3 42 0 59 0 21 0 103 17 105 44 3 34 2 78 2 114v1555c0 41 2 120-1 157l-6 6c-20 23-65 33-94 35-52 4-138 5-173-42l-1-73v-138l1-422V1964c1-14-3-32 8-43 22-25 69-32 100-34M501 1887c24-4 82 0 106 7 28 8 45 14 61 39v1823c-27 38-92 43-134 44l-30-1c-31-2-81-9-103-35-5-6-6-31-6-39V2147c0-61-3-163 1-221 33-30 62-33 105-39M2323 3215c46-2 124 5 148 50-2 19-1 55-1 76v596c-32 36-79 39-125 43q-24 0-47-2c-39-3-78-11-104-41-3-37-1-97-1-135v-446c0-25-2-77 2-99l2-2c29-33 85-38 126-40M1703 3217q39-4 77 2c35 4 69 13 91 42q1 56 0 111v416c0 47 1 104-1 150-30 30-56 35-98 40-55 3-140 6-178-42v-442l-1-156c1-24 0-57 2-80 25-32 71-38 108-41M2903 3217c54-5 135-1 171 45v582c-24 35-70 41-110 45-12 3-64 1-77-1-38-7-68-12-93-43v-293l1-291c22-34 71-40 108-44M1099 3217c45-8 147 1 172 46-2 56 0 120 0 177l1 233c0 52 2 125-2 175-28 32-64 36-106 41-48 7-140-1-171-45 2-46 0-98 0-145v-272c0-30-4-152 5-174 27-25 66-32 101-36M2902 1797l24-1c38 0 145 5 147 59q2 80 1 159v322l-1 2c-29 33-67 39-109 43-54 6-134 1-171-44-2-33-1-74-1-108v-306c0-24-2-62 3-84 20-30 73-40 107-42M1110 1797c37-4 160 3 162 55 2 51 1 107 1 159v326c-22 31-63 40-99 43-47 7-141 3-176-37-3-3-5-22-5-28q-2-137 0-273v-117c0-25-1-66 4-89 27-30 75-36 113-39M1698 1707c50-8 138 0 172 42 9 122-2 254 2 377q1 31-1 64c-29 28-60 35-99 38-53 10-137 1-177-39-2-25-1-57-1-83v-265c0-20-3-86 7-100 17-24 69-31 97-34M2296 1707c45-6 131-1 166 34 10 10 8 72 8 88-2 119 2 239-1 358-24 31-65 38-101 42-50 6-145 3-176-45 4-141-2-290 1-433 20-34 67-41 103-44"/>
  <path fill="#2e2e2e" d="M2284 2282c50-2 66 14 108 37l111 62 365 199-91 24q-91-48-180-97l-284-155c-15-9-16-8-33 1l-114 64-342 187-91-24c100-58 216-119 319-175l118-65c27-16 87-52 114-58M1791 2284c7-2 81 20 94 23-56 28-122 65-177 96l-367 201c-26-5-64-18-93-24 49-23 121-66 171-93zM1139 3c78-5 260 3 329 38q21 8 36 25l-4 2c4 8 0 25-2 34v29l7 28c4-35 2-57 0-91 11 14 13 74 5 85l-22 6 14 2q8 3 11 10c3 15 3 34-3 48-1 3-7 5-10 7h-6l-2 1 3 1q11 1 17 7c3 8 2 168 2 192v754c0 17 1 69-2 83q4 5 12 8c5 7 2 131 1 150-1 15-27 15-39 16v55c15 2 21 4 35 10 0 15-5 57 7 66l-39 8q-39 2-77 1c-167-2-335 2-503 0l-31-10v-65c14-6 17-7 32-10v-55c-12-1-24 0-32-10-5-32 0-118-1-153 0-8 4-2 7-15 3-240 0-486 1-726V248c0-10 0-9 5-16l5-2 7-3c-11-3-19-7-18-20 3-26-11-41 21-48v-1c-5-1-21-4-20-10 1-13-3-55 1-66q4-11 10-19c38-42 163-53 219-58z"/>
  <path fill="#513b11" d="m884 1260 2-10c3 2 2 9 7 13h11q43-4 85-6c142-2 285-5 427 2l57 2c8 0 30 4 35 2l2-3 2 4q4 5 12 8c5 7 2 131 1 150-1 15-27 15-39 16v55c15 2 21 4 35 10 0 15-5 57 7 66l-39 8q-39 2-77 1c-167-2-335 2-503 0l-31-10v-65c14-6 17-7 32-10v-55c-12-1-24 0-32-10-5-32 0-118-1-153 0-8 4-2 7-15"/>
  <path fill="#caa962" d="M1025 1264c35-4 101-2 139-2q132-1 264 3c22 1 58 7 74 7v11c1 19 5 132-1 142-29 15-135 2-171 5-12 2-60 0-73-2-12 5-34 3-48 2H943c-15 0-34 0-44-11-2-12-1-141 3-146 21-10 96-10 123-9"/>
  <path fill="#deb96b" d="M1209 1430H943c-15 0-34 0-44-11-2-12-1-141 3-146 21-10 96-10 123-9q40 1 81 1c12 1 45 6 53 5 6 2 34 5 34 11 4 37 5 100 2 136l-22 6c7 5 26 5 34 5z"/>
  <path fill="#a4843f" d="M1159 1270q-8-3-12-6h19l2 5c10 3 27 7 38 6-4 10-4 123-2 138 11 10 38 10 53 15-12 5-34 3-48 2l-2-2c-8 0-27 0-34-5l22-6c3-36 2-99-2-136 0-6-28-9-34-11"/>
  <path fill="#deb96b" d="M1166 1264c22 0 56-1 79 1-13 4-30 6-39 10-11 1-28-3-38-6zM935 1438h531q-1 29 0 56l1-3 5-22h1l3 21c10 12 17 3 24 16v64c-96 0-202-2-298 0h-8c-71-2-150 0-222 0h-68c0-18-3-42 1-60q3-6 12-8c3-9 4-10 14-12l4 4z"/>
  <path fill="#caa962" d="M1117 1502c35-1 356-5 371 4h12v64c-96 0-202-2-298 0h-8l2-8c-2-9-2-34-4-47-8 1-57-10-70-9z"/>
  <path fill="#deb96b" d="M1488 1506h12v64c-96 0-202-2-298 0v-6c10-3 38-1 50-1 78 1 158 4 236 0 15-1 9-40 6-50z"/>
  <path fill="#86621c" d="m1192 1515 4-3 5 2c2 16-2 35 1 50v6h-8l2-8c-2-9-2-34-4-47"/>
  <path fill="#deb96b" d="m917 1502 136-1c17 0 47-1 64 1l5 4c13-1 62 10 70 9 2 13 2 38 4 47l-2 8c-71-2-150 0-222 0h-68c0-18-3-42 1-60q3-6 12-8"/>
  <path fill="#6f4c0a" d="m1466 1494 1-3 5-22h1l3 21c10 12 17 3 24 16h-12c-15-9-336-5-371-4-17-2-47-1-64-1l-136 1c3-9 4-10 14-12l4 4c125 2 252-2 377 0zM1502 1272l6-1c12 12 10 36 3 50l-3 1c0-5-4-37-6-39z"/>
  <path fill="#1c1d1b" d="M1139 3c78-5 260 3 329 38q21 8 36 25l-4 2c4 8 0 25-2 34v29l7 28c4-35 2-57 0-91 11 14 13 74 5 85l-22 6 14 2q8 3 11 10c3 15 3 34-3 48-1 3-7 5-10 7h-6l-2 1 3 1q11 1 17 7c3 8 2 168 2 192v754c0 17 1 69-2 83l-2-4-2 3c-5 2-27-2-35-2l-2-2c6-3 6-2 13-2 19-15 11-114 11-142l1-166 1-713c-50-9-177-13-226-12-58 1-332-6-366 14q-1 26-1 53l1 131v331l-1 438q-1 36 0 71v1h-11c-5-4-4-11-7-13l-2 10c3-240 0-486 1-726V248c0-10 0-9 5-16l5-2 7-3c-11-3-19-7-18-20 3-26-11-41 21-48v-1c-5-1-21-4-20-10 1-13-3-55 1-66q4-11 10-19c38-42 163-53 219-58z"/>
  <path fill="#2e2e2e" d="M1139 3c78-5 260 3 329 38q21 8 36 25l-4 2c4 8 0 25-2 34v32l-1 13-3 3c-25 2-98-6-128-7q-190-7-381 2c-7 1-46 2-51 4-8 1-23 5-29-1l2-70c28-51 109-55 161-62 21-4 44-2 65-9q-8-3-18-2z"/>
  <path fill="#272826" d="M1139 3c78-5 260 3 329 38q21 8 36 25l-4 2c4 8 0 25-2 34v28c-8-16 2-42-13-61-31-40-106-46-152-53l1-1c-58-9-122-6-180-4-9 0-10-2-15-8"/>
  <path fill="#1c1d1b" d="M1468 41q21 8 36 25l-4 2c4 8 0 25-2 34V77c-12-19-19-18-33-33z"/>
  <path fill="#2e2e2e" d="M1505 68c11 14 13 74 5 85l-22 6 14 2q8 3 11 10c3 15 3 34-3 48-1 3-7 5-10 7h-6c-6-5-51-6-62-7-174-14-348-9-522 4-18 1-10-44-6-54q7-6 18-6c5-10 2-6 14-12l-2-2c5-2 44-3 51-4q190-9 381-2c30 1 103 9 128 7l3-3 1-13v-3l7 28c4-35 2-57 0-91"/>
  <path fill="#272826" d="M1505 68c11 14 13 74 5 85l-22 6 14 2c-3 10 0 14-3 22 0-3 0-13-3-15-34-25-504-14-574-5 5-10 2-6 14-12l-2-2c5-2 44-3 51-4q190-9 381-2c30 1 103 9 128 7l3-3 1-13v-3l7 28c4-35 2-57 0-91"/>
  <path fill="#1c1d1b" d="M1502 161q8 3 11 10c3 15 3 34-3 48-1 3-7 5-10 7-3-6-2-35-1-43 3-8 0-12 3-22"/>
  <path fill="#2e2e2e" d="M895 230c3 4 3 3 3 6l1 52-1 195-3-5c-4 3-2 1-4 9V303c0-20 1-53-1-71zM1504 66l1 2c2 34 4 56 0 91l-7-28v-29c2-9 6-26 2-34z"/>
</svg>
