<svg xmlns="http://www.w3.org/2000/svg" width="2560" height="4096" preserveAspectRatio="none" style="display:block" viewBox="0 0 4096 4096">
  <defs>
    <linearGradient id="c" x1="3588.5" x2="3579.9" y1="3983.9" y2="4022.6" gradientUnits="userSpaceOnUse">
      <stop class="stop0" offset="0" stop-color="#3d3c3e"/>
      <stop class="stop1" offset="1" stop-color="#4d4f47"/>
    </linearGradient>
    <linearGradient id="b" x1="3878.2" x2="3856.6" y1="743.6" y2="844.5" gradientUnits="userSpaceOnUse">
      <stop class="stop0" offset="0" stop-color="#383839"/>
      <stop class="stop1" offset="1" stop-color="#51514e"/>
    </linearGradient>
    <linearGradient id="a" x1="199" x2="179" y1="1473.8" y2="1408.2" gradientUnits="userSpaceOnUse">
      <stop class="stop0" offset="0" stop-color="#383538"/>
      <stop class="stop1" offset="1" stop-color="#4c4e49"/>
    </linearGradient>
  </defs>
  <path fill="#000100" d="M348 0h2033c46 9 80 8 128 32 40 19 70 47 104 75l172 135c57 46 101 89 172 111v-42c24-2 59-1 83-1v-34q-15-7-29-15l22-14-23-13 26-14c-9-4-18-6-19-15q7-8 19-11l-25-14q9-6 19-10l1-3c-2-7-11-5-17-15q8-7 20-11c-4-5-18-11-24-14l24-15-24-11 33-24V36c29-4 96-2 126-2h236l36 2 1 35q10 5 16 12-1 6-5 10c4 9 14 5 18 14-8 7-15 8-24 13l28 12-30 15 29 13-29 15 29 12c-11 6-18 10-30 14l29 13-21 11-2 4q11 8 24 11-11 9-24 11-8-2-15 3c-3 7-3 7-3 14l-1 3c-1 12 1 35-5 42l2 3c16 2 40 0 51 3l31-1 6 3c3 9 2 34 2 45h10l154 1c61-1 119-3 179 14 63 18 139 61 154 131 6 30 8 69 11 101q13 142 23 286 23 306 33 613 4 111 6 224c0 31-37 30-60 29v40c23 1 42-2 60 13 6 18 7 90 2 108-16 20-38 17-62 17v40c17 0 44-1 55 11 17 19 9 78 9 103-16 26-36 23-64 23v40c37 0 64-2 61 44-4 65 17 96-65 93v41c36 0 65-2 60 46-3 24 1 61-11 82-16 12-36 9-56 9l-1 41c52 0 63 3 58 60-1 19 1 39-2 59-14 14-21 17-41 18h-23v40c25-1 57-3 55 31-2 29 3 71-12 97-8 11-43 9-57 9v40c21 0 62-2 58 31-2 28 1 72-12 97-17 13-39 10-61 10l-1 40c79-1 59 18 56 83-2 58-20 54-70 54l-2 39c20 0 27-1 46 6l13 15c-1 23-6 78-9 101-25 20-36 17-68 16 0 16 0 25-3 41 71-2 61 15 57 75-4 59-16 63-72 62 0 15 0 25-5 40 21 0 59-3 58 27q-2 43-9 85l-19 135c-6 39-13 105-23 141-19 68-122 114-185 122-13 1-39 3-48 6H396l-48-7c-53-9-106-29-146-65-14-14-37-43-40-63q-24-155-44-311-35-268-59-538-10-103-17-207c-2-39 33-35 60-34q-4-20-3-41c-31 0-40 4-65-16 0-29-6-59-6-87-1-37 35-34 60-33l-1-42c-24 0-42 4-61-12-6-13-7-36-7-51-1-60-11-73 58-73l-1-41c-62 1-64-5-65-62-1-60-13-76 58-75v-40c-15 0-60 1-62-20-3-25-8-83 2-106 17-15 35-12 56-12l-1-40c-27 0-49 3-64-24v-92c17-24 37-21 65-21v-40c-27 0-49 4-65-22v-94c18-26 36-22 65-21v-42c-69 3-62-11-61-68l6-207A19162 19162 0 0 1 91 301q6-73 16-143C120 61 230 16 315 4l32-4zm3395 1755h199c28 0 99 4 128-7 3-2 3-31 3-37q-11-483-51-964l-12-146c-5-61-1-109-49-154-92-85-221-71-336-71h-411c-113 0-250 15-346-54q-51-37-99-77l-169-133c-56-44-80-73-153-91-59-14-103-11-162-11H367l-16 1c-88 6-209 42-229 144-7 41-10 88-14 130Q93 422 82 560a18817 18817 0 0 0-61 1067c-1 21-6 114 4 124 36 6 96 4 134 4h3584"/>
  <path fill="#d89c62" d="M3043 36c29-4 96-2 126-2h236l36 2 1 35q10 5 16 12-1 6-5 10c4 9 14 5 18 14-8 7-15 8-24 13l28 12-30 15 29 13-29 15 29 12c-11 6-18 10-30 14l29 13-21 11-2 4q11 8 24 11-11 9-24 11-8-2-15 3c-3 7-3 7-3 14l-1 3c-1 12 1 35-5 42l2 3c16 2 40 0 51 3l31-1 6 3c3 9 2 34 2 45h-420c-51 0-78 0-128-10l-13-3v-42c24-2 59-1 83-1v-34q-15-7-29-15l22-14-23-13 26-14c-9-4-18-6-19-15q7-8 19-11l-25-14q9-6 19-10l1-3c-2-7-11-5-17-15q8-7 20-11c-4-5-18-11-24-14l24-15-24-11 33-24z"/>
  <path fill="#744013" d="M3043 36c29-4 96-2 126-2h236l36 2 1 35q10 5 16 12-1 6-5 10c4 9 14 5 18 14-8 7-15 8-24 13l28 12-30 15 29 13-29 15 29 12c-11 6-18 10-30 14l29 13-21 11c-1-6 0-3-3-8-2-4-1-2-5-5l-2-8c2-6 4-7 8-11v-4c-23 9-96 10-125 11l-172 9c-32 2-69 3-100 6q-10-1-18-7l1-4 7-5-2-2 4-4-10-10-3-4-2-9 1-3c-2-7-11-5-17-15q8-7 20-11c-4-5-18-11-24-14l24-15-24-11 33-24z"/>
  <path fill="#d89c62" d="M3043 36c29-4 96-2 126-2h236l36 2 1 35q3 9 8 14c-8 11-4 7-7 17q-8-4-18-5-50 1-100 4l-188 10c-11 0-61 4-70 2-14 3-22 4-33 13l-1 3c5 3 5 3 9 8-4 4-2 3-8 4-4-5-18-11-24-14l24-15-24-11 33-24z"/>
  <path fill="#744013" d="m3405 34 36 2 1 35q3 9 8 14c-8 11-4 7-7 17q-8-4-18-5-50 1-100 4l-188 10c-11 0-61 4-70 2-11-2-22 4-30-2l2-3 5 1v-2c-6-4-6-2-9-7l3-4c16-8 65-7 87-9 1-6 1-3-2-9-18-8-63 2-72-1 5-8 3-23 4-34v26h374l1-27h-99c5-4 57-2 74-8"/>
  <path fill="#d89c62" d="M3125 87c43-3 278-18 311-7l1 3c-8 7-81 8-96 9l-221 11c-17 1-62 2-76 4-6-4-6-2-9-7l3-4c16-8 65-7 87-9"/>
  <path fill="#774a24" d="M3043 36c29-4 96-2 126-2h236c-17 6-69 4-74 8-32 2-70 1-102 1h-174c-1 11 1 26-4 34 9 3 54-7 72 1 3 6 3 3 2 9-22 2-71 1-87 9l-3 4c3 5 3 3 9 7v2l-5-1-2 3c8 6 19 0 30 2-14 3-22 4-33 13l-1 3c5 3 5 3 9 8-4 4-2 3-8 4-4-5-18-11-24-14l24-15-24-11 33-24z"/>
  <path fill="#d89c62" d="M3032 179q15-8 30-11l41-2 112-6 208-10q7 0 12 3l11 6 1 4-3 3c-6 8-8 7-3 17l9 6c-23 9-96 10-125 11l-172 9c-32 2-69 3-100 6q-10-1-18-7l1-4 7-5-2-2 4-4-10-10z"/>
  <path fill="#d89c62" d="M3043 199c18-6 67-7 87-8l161-7 94-5c19-1 41-6 56 4l9 6c-23 9-96 10-125 11l-172 9c-32 2-69 3-100 6q-10-1-18-7l1-4z"/>
  <path fill="#744013" d="M3035 183q10 4 20 4l345-17 44-4c-6 8-8 7-3 17-15-10-37-5-56-4l-94 5-161 7c-20 1-69 2-87 8l-2-2 4-4z"/>
  <path fill="#d89c62" d="M3029 153q21-12 45-12c44 1 340-25 360-16 7 4 11 4 14 10l-4 3c-15 5-98 7-120 9l-177 9c-31 2-90 8-118-3M3067 113c9 2 59-2 70-2l188-10q50-4 100-4 10 1 18 5l4 4-1 3-9 5-258 13c-33 2-120 10-146 2l1-3c11-9 19-10 33-13"/>
  <path fill="#774a24" d="M3442 71q10 5 16 12-1 6-5 10c4 9 14 5 18 14-8 7-15 8-24 13l28 12-30 15 29 13-29 15 29 12c-11 6-18 10-30 14l29 13-21 11c-1-6 0-3-3-8-2-4-1-2-5-5l-2-8c2-6 4-7 8-11v-4l-9-6c-5-10-3-9 3-17l3-3-1-4-11-6c2-8 3-8 9-15l4-3c-3-6-7-6-14-10l3-11 9-5 1-3-4-4c3-10-1-6 7-17q-5-5-8-14"/>
  <path fill="#d89c62" d="M3450 189v4c-4 4-6 5-8 11l2 8c4 3 3 1 5 5 3 5 2 2 3 8l-2 4q11 8 24 11-11 9-24 11-8-2-15 3c-3 7-3 7-3 14-2-8-1-7-6-10-70 1-148 6-218 10-43 2-114 3-154 7-6-3-4-1-7-7l-12-7 1-3 8-5c-1-8-3-9-10-16l1-5 11-7-3-5 1-3 9-2c31-3 68-4 100-6l172-9c29-1 102-2 125-11"/>
  <path fill="#d89c62" d="M3450 189v4c-4 4-6 5-8 11l2 8c4 3 3 1 5 5-29 12-274 16-324 20-27 1-65 6-91 0l1-5 11-7-3-5 1-3 9-2c31-3 68-4 100-6l172-9c29-1 102-2 125-11"/>
  <path fill="#744013" d="M3450 189v4c-4 4-6 5-8 11l2 8c-19-13-40-7-62-6l-99 5-149 7c-17 1-74 2-88 7l-3-5 1-3 9-2c31-3 68-4 100-6l172-9c29-1 102-2 125-11M3449 217c3 5 2 2 3 8l-2 4q11 8 24 11-11 9-24 11-8-2-15 3c-3 7-3 7-3 14-2-8-1-7-6-10-70 1-148 6-218 10-43 2-114 3-154 7-6-3-4-1-7-7l219-12c29-1 162-4 183-12-3-5-14-11-20-14l-161 9c-43 2-90 5-132 5-27 4-70 0-92 9-1-8-3-9-10-16 26 6 64 1 91 0 50-4 295-8 324-20"/>
  <path fill="#d89c62" d="M3112 319h260v47h-261zM3011 180q9-6 19-10l2 9 3 4 10 10-4 4 2 2-7 5-1 4q7 6 18 7l-9 2-1 3 3 5-11 7-1 5c7 7 9 8 10 16l-8 5-1 3 12 7c3 6 1 4 7 7v29l-3-3c-20 33-57 3-77 16l64 1 1 1h59v47c-51 0-78 0-128-10l-13-3v-42c24-2 59-1 83-1v-34q-15-7-29-15l22-14-23-13 26-14c-9-4-18-6-19-15q7-8 19-11z"/>
  <path fill="#774a24" d="M3011 180q9-6 19-10l2 9 3 4 10 10-4 4 2 2-7 5-1 4q7 6 18 7l-9 2-1 3 3 5-11 7-1 5c7 7 9 8 10 16l-8 5-1 3 12 7c3 6 1 4 7 7v29l-3-3c-20 33-57 3-77 16l64 1 1 1h-69v37l-13-3v-42c24-2 59-1 83-1v-34q-15-7-29-15l22-14-23-13 26-14c-9-4-18-6-19-15q7-8 19-11z"/>
  <path fill="#d89c62" d="M3385 319h94l31-1 6 3c3 9 2 34 2 45h-132l-2-5z"/>
  <path fill="#744013" d="m3039 319-1-1-64-1c20-13 57 17 77-16l3 3 1 6c21 9 263-4 307 1 16 2 46-2 64 2l2 3c16 2 40 0 51 3h-94l-1 42 2 5h-14v-47h-260l-1 47h-13v-47z"/>
  <path fill="#657455" d="m351 11 16-1h1918c59 0 103-3 162 11 73 18 97 47 153 91l169 133q48 40 99 77c96 69 233 54 346 54h411c115 0 244-14 336 71 48 45 44 93 49 154l12 146q41 481 51 964c0 6 0 35-3 37-29 11-100 7-128 7H159c-38 0-98 2-134-4-10-10-5-103-4-124l9-234a18817 18817 0 0 1 78-1108c4-42 7-89 14-130C142 53 263 17 351 11m1923 341c20 0 116 10 113-23-5-49 15-120-30-153-51-38-101-35-159-35l-122 1h-826c-13 0-39-2-51 1-71 9-127 43-117 118 2 20-7 71 8 86 28 8 116 5 151 5h1033m-1794 0c21 1 78 5 96-7 9-7 4-45 4-55-1-52 14-90-37-124-42-26-82-25-129-25q-28 0-55 2c-124 20-108 86-104 188q1 10 7 16c14 9 188 5 218 5"/>
  <path fill="#000100" d="M1201 133c16-3 84-2 105-1h697l240-1c45 0 105 15 137 49q15 16 20 37c5 20 3 100 2 124l-5 5c-24 23-92 16-126 16H1238l-131-1q-17 0-32-11c-4-3-7-14-8-20q-2-30-1-61c1-15-2-37 2-52 15-57 83-78 133-84m1073 219c20 0 116 10 113-23-5-49 15-120-30-153-51-38-101-35-159-35l-122 1h-826c-13 0-39-2-51 1-71 9-127 43-117 118 2 20-7 71 8 86 28 8 116 5 151 5h1033M326 1363c68-5 161 21 204 78 46 63 1 128-59 158-39 19-72 26-116 29-65 2-135-11-187-53-45-37-59-98-16-144 45-48 110-64 174-68"/>
  <path fill="#000100" d="M233 1390c70-24 155-25 223 6 50 23 98 77 69 135-61 121-332 117-379-12l-2-4-1-2c-16-61 43-102 90-123"/>
  <path fill="#545553" d="M233 1390c70-24 155-25 223 6 50 23 98 77 69 135-61 121-332 117-379-12l-2-4-1-2 2-17c27 32 68 74 97 105 51 2 139 2 190 0 28-27 74-75 99-105-22-28-70-78-96-104l-29-2c-31 3-149-7-171 6z"/>
  <path fill="url(#a)" d="M143 1513c-16-61 43-102 90-123l2 6c-12 14-85 91-90 100z"/>
  <path fill="#545553" d="M251 1399h176l88 97c-20 24-68 75-91 96H250l-90-96c15-18 75-85 91-97"/>
  <path fill="#000100" d="M283 1438h108q28 29 54 59l-55 56c-26 3-78 1-105 1-16-14-40-42-55-58z"/>
  <path fill="#545553" d="M292 1446h91l46 51-46 48-91-1-45-48c13-16 31-34 45-50"/>
  <path fill="#000100" d="M3684 611c81-8 228 17 244 122 12 82-104 133-174 139-84 10-231-19-247-118-16-93 108-135 177-143"/>
  <path fill="#000100" d="m3824 845-10 4c-69 22-157 23-222-11-124-66-72-180 44-209 71-18 148-14 213 20q51 28 64 83c3 59-41 92-89 113"/>
  <path fill="#545553" d="m3824 845-10 4c-69 22-157 23-222-11-124-66-72-180 44-209 71-18 148-14 213 20q51 28 64 83l-2 10c-30-32-68-74-99-105-63-2-130-1-193 0l-98 104c23 25 76 85 101 106l120 1q34 1 67-2 9-1 13-9z"/>
  <path fill="url(#b)" d="M3913 732c3 59-41 92-89 113l-2-8c28-29 63-64 89-95z"/>
  <path fill="#545553" d="M3627 646h178l89 96-89 96h-178c-23-29-62-68-89-97z"/>
  <path fill="#000100" d="M3661 684h109l54 57q-26 30-54 58c-28 3-79 1-107 1q-30-29-56-59z"/>
  <path fill="#545553" d="m3668 694 96-1 45 49-46 48c-15 2-76 1-94 1l-46-50q23-23 45-47"/>
  <path fill="#000100" d="M359 133c65-4 153-9 205 35 17 14 33 35 33 59-3 136 27 136-113 135-36 0-215 6-235-8q-8-9-11-22c-4-21-2-93 2-115q2-18 12-32c24-33 69-46 107-52m121 219c21 1 78 5 96-7 9-7 4-45 4-55-1-52 14-90-37-124-42-26-82-25-129-25q-28 0-55 2c-124 20-108 86-104 188q1 10 7 16c14 9 188 5 218 5"/>
  <path fill="#657455" d="M1851 2999c-15 4-43 16-34 36 10 23 36 23 57 23h2064c20 0 74-5 85 10 2 10-2 90-12 101-5 6-26 7-35 7H2106c-15 1-43 11-42 30 3 23 29 29 47 29h1760q49 1 98-1c47-3 36 23 34 58-1 16-2 58-21 59q-51 3-101 2H2481l-110-1c-24 1-85-5-83 34 1 15 26 25 39 25q94 2 188 1h1401c78-1 75-4 66 70-2 10 1 27-5 37-25 19-128 11-155 11H2573c-65 1-64 58-6 60q62 2 125 0h1123c17 0 140-2 145 4l3 8c3 25-37 317-48 359q-7 23-22 42c-40 51-113 74-176 81-51 6-105 2-156 2H466q-38 1-78-1c-79-5-183-41-211-123-5-17-8-49-10-67l-14-96q-37-271-66-541c-4-41-37-360-26-375 36-5 86-3 124-3h3821c10 0 33 3 32 16-3 20 0 77-8 92-17 15-68 10-93 10h-915c-57 0-147 3-202 0-274 4-550-3-825 0q-71 0-144 1"/>
  <path fill="#526148" d="m1851 2999-3-2c8-5 288-2 320-2l433-1c30 0 208-2 219 4-274 4-550-3-825 0q-71 0-144 1"/>
  <path fill="#000100" d="M3567 3761c58-6 141 15 186 52 48 39 62 96 18 145-45 50-106 64-171 69-58 5-137-13-183-50-84-69-43-157 46-193 38-15 63-20 104-23"/>
  <path fill="#000100" d="M3486 4002c-102-32-145-139-36-199 70-40 146-40 222-20q9 2 17 5c37 17 73 37 88 77q5 12 5 24c-3 61-43 91-96 111-60 23-139 26-200 2"/>
  <path fill="#545553" d="M3486 4002c-102-32-145-139-36-199 70-40 146-40 222-20l-1 5c-59 0-128 2-186 0l-96 106c27 33 68 76 98 106z"/>
  <path fill="url(#c)" d="m3685 3999 1 1c-60 23-139 26-200 2l1-2c33 2 73-1 106 1 18 0 77 1 92-2"/>
  <path fill="#545553" d="m3778 3887 2-2 2 4c-3 61-43 91-96 111l-1-1c30-30 60-67 89-99q4-6 4-13"/>
  <path fill="#3f3f3d" d="M3689 3788c37 17 73 37 88 77q5 12 5 24l-2-4-2 2c-12-5-75-79-91-95z"/>
  <path fill="#3f3f3d" d="M3672 3783q9 2 17 5l-2 4c-6-4-8-3-16-4z"/>
  <path fill="#545553" d="M3494 3796h179c26 25 65 71 91 98l-90 98h-178l-91-98z"/>
  <path fill="#000100" d="M3530 3836c23-2 82-1 108-1l55 59-55 59q-53 1-107-1l-56-59z"/>
  <path fill="#545553" d="M3538 3844h92l47 50-47 50h-91l-47-50z"/>
  <path fill="#000100" d="M492 3761q23-2 45 1c61 7 129 27 166 79 44 63 2 125-56 155-41 21-77 27-123 31-61 4-134-11-183-50-46-36-64-99-21-147s110-65 172-69"/>
  <path fill="#000100" d="M409 3787c87-34 250-20 293 80 8 19 5 44-4 61-13 32-63 70-97 76-58 21-129 18-187-1-42-14-86-40-100-85-19-63 40-116 95-131"/>
  <path fill="#3f3f3d" d="M409 3787c87-34 250-20 293 80 8 19 5 44-4 61-13 32-63 70-97 76-58 21-129 18-187-1-42-14-86-40-100-85-19-63 40-116 95-131l-97 108q50 51 98 105h196c24-22 73-79 97-106-32-34-64-72-98-105l-130-1c-17 0-50 1-66-1"/>
  <path fill="#545553" d="M414 4003c24-1 172-3 187 1-58 21-129 18-187-1M419 3796h178c25 30 63 70 89 99q-44 48-88 97H418l-89-98q44-50 90-98"/>
  <path fill="#000100" d="M453 3836c34-2 74 0 108 0l55 58-54 58c-32 2-75 1-108 1l-54-59z"/>
  <path fill="#545553" d="M462 3844h91l46 51c-15 14-32 33-46 49h-90l-47-50z"/>
  <path fill="#657455" d="M38 1815q183-2 368-1l666 1h2035l693-1 175 1c24 0 74-3 93 3 13 10 11 87 6 105q-5 7-14 9l-3076 1H108c-15 0-84 6-87-10-7-27-6-71-2-99 1-4 15-8 19-9M37 2348c52-3 119-1 172-1h3821q19-1 35 8c5 10 3 36 2 48-2 22 8 47-12 61-16 4-55 2-74 2H128c-20 0-83 4-96-7-11-20-6-75-5-99q2-8 10-12M35 2170h4003c10 0 24 1 32 8 6 14 3 42 2 58-1 21 7 39-13 51-65 3-149 1-215 1H120c-18 0-84 4-94-6-8-21-9-79-4-102 1-5 9-7 13-10M591 2110H102c-16 0-65 4-78-6-12-11-6-43-7-57-1-35-9-54 34-54h3901c19 0 111-4 121 8 8 21 3 72 2 96 0 11-26 13-34 13h-360c-130 0-277 3-406 0-24 2-76 0-102 0H1183c-194 0-399 3-592 0"/>
  <path fill="#526148" d="m591 2110 3-3h2000l392-1c88-1 198-3 286 1l3 3c-24 2-76 0-102 0H1183c-194 0-399 3-592 0"/>
  <path fill="#657455" d="M63 2703c263-3 533-1 797-1h2632l422 1c27 0 113-6 132 7 7 11-2 74-2 92 0 8-8 14-14 18-22 2-73 1-98 1H365l-209-1c-22 0-80 4-98-3-13-12-19-96-12-108 6-5 9-5 17-6M46 2526c101-2 206 0 307 0h3682c6 0 19 2 21 8 10 22 2 70 0 95 0 6-7 10-11 12-12 2-39 2-52 2h-395l-1090-1-1672 1H301l-157-1c-15 0-98 5-103-7-10-24-9-67-8-94q3-10 13-15"/>
  <path fill="#526148" d="M82 1764c115 2 234 0 349 0h683l2898 1v40H82zM80 1942l3933 1v40q-196 2-394 0h-737l-2802 1zM81 2120h3933v40H81zM92 2475h3807c19 0 85-1 101 1 3 7 2 9 1 18l-1 22H94zM103 2652h3890l-1 42H104zM85 2298h3923v40H87c0-15 0-25-2-40M114 2830h3867l-2 40H116zM1853 3008c74-3 165 0 240 0h1872l-3 41h-45c-160-3-329 0-491 0H1862c-31-2-44-26-9-41M2109 3185c64-2 134 0 199 0h382l1260-1-4 42H2156c-18 0-84 5-75-28q11-12 28-13M2326 3362q273-1 546 0h1059c-2 13 0 26-5 37-6 5-4 3-13 3H2386c-22 0-82 8-82-23 4-11 11-13 22-17M2564 3541c48-3 119-1 170-1h321c284 0 574-3 857 0l-4 41H2687c-29 0-105 2-131-2-10-6-16-10-15-23 6-11 11-12 23-15"/>
  <path fill="#774a24" d="M3432 268c0-7 0-7 3-14q7-5 15-3c-10 13-6 41-6 59 27 0 58-1 84 1v55h-10c0-11 1-36-2-45l-6-3-31 1c-11-3-35-1-51-3l-2-3c6-7 4-30 5-42z"/>
</svg>
