<svg xmlns="http://www.w3.org/2000/svg" width="1587" height="4096" preserveAspectRatio="none" style="display:block" viewBox="0 0 4096 4096">
  <defs>
    <linearGradient id="j" x1="1031" x2="1031" y1="27.5" y2="11.9" gradientUnits="userSpaceOnUse">
      <stop class="stop0" offset="0" stop-color="#1b1b1b"/>
      <stop class="stop1" offset="1" stop-color="#535352"/>
    </linearGradient>
    <linearGradient id="i" x1="3860.1" x2="3877.9" y1="3610.6" y2="3539" gradientUnits="userSpaceOnUse">
      <stop class="stop0" offset="0" stop-color="#677657"/>
      <stop class="stop1" offset="1" stop-color="#7c8b68"/>
    </linearGradient>
    <linearGradient id="h" x1="231.6" x2="194.1" y1="3871" y2="3778.9" gradientUnits="userSpaceOnUse">
      <stop class="stop0" offset="0" stop-color="#67755a"/>
      <stop class="stop1" offset="1" stop-color="#7b8966"/>
    </linearGradient>
    <linearGradient id="g" x1="276.8" x2="146.3" y1="2197.4" y2="2253.6" gradientUnits="userSpaceOnUse">
      <stop class="stop0" offset="0" stop-color="#677755"/>
      <stop class="stop1" offset="1" stop-color="#7a8c69"/>
    </linearGradient>
    <linearGradient id="f" x1="3861.2" x2="3878.1" y1="3670" y2="3766.1" gradientUnits="userSpaceOnUse">
      <stop class="stop0" offset="0" stop-color="#6b795b"/>
      <stop class="stop1" offset="1" stop-color="#7c8e66"/>
    </linearGradient>
    <linearGradient id="e" x1="1384.9" x2="1382.9" y1="2794.3" y2="2886.2" gradientUnits="userSpaceOnUse">
      <stop class="stop0" offset="0" stop-color="#667557"/>
      <stop class="stop1" offset="1" stop-color="#7b8b66"/>
    </linearGradient>
    <linearGradient id="d" x1="309.8" x2="338.6" y1="3017.7" y2="2925.6" gradientUnits="userSpaceOnUse">
      <stop class="stop0" offset="0" stop-color="#68765b"/>
      <stop class="stop1" offset="1" stop-color="#7b8b63"/>
    </linearGradient>
    <linearGradient id="c" x1="635.7" x2="719.6" y1="3297.8" y2="3164.2" gradientUnits="userSpaceOnUse">
      <stop class="stop0" offset="0" stop-color="#677656"/>
      <stop class="stop1" offset="1" stop-color="#818f6f"/>
    </linearGradient>
    <linearGradient id="b" x1="140.2" x2="487.1" y1="2086.9" y2="2168" gradientUnits="userSpaceOnUse">
      <stop class="stop0" offset="0" stop-color="#414b34"/>
      <stop class="stop1" offset="1" stop-color="#516241"/>
    </linearGradient>
    <linearGradient id="a" x1="1047.1" x2="1030.4" y1="1342.7" y2="1447.1" gradientUnits="userSpaceOnUse">
      <stop class="stop0" offset="0" stop-color="#471b00"/>
      <stop class="stop1" offset="1" stop-color="#6b3b0b"/>
    </linearGradient>
  </defs>
  <path fill="#8c9c78" d="M757 1244c39-2 87 0 127 0h429c-7 1-20 4-25 2l2-1-1 2h-1l7-1h-1l23 4c25 2 44 1 65 3l-24 2c22 13 29 14 28 40 0 44 2 100 0 142-13 10-16 13-32 18q1 19-2 40l116-7h303c37-33 92-26 138-27h891l437 1 131-1c22 0 61-1 83 2 24 5 42 9 63 25 43 0 92-2 136 1 136 10 304 32 407 130 35 33 33 59 34 103v569q-2 108-1 214 1 57-1 114c-1 25-35 126-35 138 17 7 29 10 37 28l5 5v1c-7 8-10 59-12 73l-22 170-19 147-4 28-1 31 1 113c0 11-1 51 1 60 17 19 46 83 47 108 6 124 2 251 3 376 0 35-17 55-41 77-38 37-144 83-196 90-18 5-66 16-83 16-36 8-79 10-115 12-11 1-43 2-52 4H501c-12-3-38-2-52-3-134-9-307-34-410-127-12-11-25-35-30-51-5-13 0-16-9-26V1773l5-5c7-62 65-101 116-125 120-58 250-64 380-76l208-17c-4-9-2-81-2-96-16-6-19-8-32-18-2-34-2-126 0-159 9-10 11-12 23-18l4-4-13-3c24 0 31 1 55-2l48-4c-11-2-24 0-35-2"/>
  <path fill="#030303" d="M757 1244c39-2 87 0 127 0h429c-7 1-20 4-25 2l2-1-1 2h-1l7-1h-1l23 4c25 2 44 1 65 3l-24 2c22 13 29 14 28 40 0 44 2 100 0 142-13 10-16 13-32 18q1 19-2 40l116-7h303c37-33 92-26 138-27h891l437 1 131-1c22 0 61-1 83 2 24 5 42 9 63 25 43 0 92-2 136 1 136 10 304 32 407 130 35 33 33 59 34 103v569q-2 108-1 214 1 57-1 114c-1 25-35 126-35 138 17 7 29 10 37 28l5 5v1c-7 8-10 59-12 73l-22 170-19 147-4 28q-15-5-18-19l3-20 2-39c7-18 5-29 8-48l2-6c3-12 6-47 6-60l1-1 2-21c4-16 4-22 6-39l1-12v-5l7-39 1-14 10-74c2-31-3-42-36-48-3-8-1-12 0-20 11-36 32-111 34-146 2-46 1-106 1-153v-584q1-84-1-168 0-21-11-39c-40-71-129-103-203-124-126-35-243-34-372-34H1868c-146 0-296-2-442 3-65 2-145 11-210 16l-416 36-305 26c-137 12-406 27-465 180-5 13-3 157-3 180v1944c0 89 90 130 163 156 135 48 282 51 424 49h31c66 2 136 0 202 0h2617c48 0 106 2 154-1 35 1 91-6 128-9 7 0 19 0 24 4-36 8-79 10-115 12-11 1-43 2-52 4H501c-12-3-38-2-52-3-134-9-307-34-410-127-12-11-25-35-30-51-5-13 0-16-9-26V1773l5-5c7-62 65-101 116-125 120-58 250-64 380-76l208-17c-4-9-2-81-2-96-16-6-19-8-32-18-2-34-2-126 0-159 9-10 11-12 23-18l4-4-13-3c24 0 31 1 55-2l48-4c-11-2-24 0-35-2"/>
  <path fill="#5d3006" d="M757 1244c39-2 87 0 127 0h429c-7 1-20 4-25 2l2-1-1 2h-1l7-1h-1l23 4c25 2 44 1 65 3l-24 2c22 13 29 14 28 40 0 44 2 100 0 142-13 10-16 13-32 18q1 19-2 40c-11-11 1-27-5-40-6-2-3-1-9 0-5 8 2 26-4 42-93 5-198 16-291 24l-215 19-98 8c-11-19 10-85-11-95-16 6 1 83-9 96l-1 1c-4-9-2-81-2-96-16-6-19-8-32-18-2-34-2-126 0-159 9-10 11-12 23-18l4-4-13-3c24 0 31 1 55-2l48-4c-11-2-24 0-35-2"/>
  <path fill="#d5a56d" d="M1040 1282c25-17 71-25 101-26 40-1 209-6 225 35l-1 37c0 25 1 66-1 90-63 35-215 30-286 17-18-6-37-8-37-31l-1-17c2-29 0-75 0-105m-342 2c55-38 264-41 321-3 2 33-1 65 1 98l-1 42c-18 9-29 12-49 17-79 7-201 17-273-19zm50 168c130 3 269 0 400 1h121c13 0 53 1 63-2 0 10 0 38 2 46-93 5-198 16-291 24l-215 19-98 8c2-27-2-69 1-92 6-5 8-3 17-4"/>
  <path fill="#532e0f" d="m698 1259 4 6c-4 3-5 3-7 8-6 9-6 141-3 157l4 2c10 0 26 5 34 9l1 3c7 4 11 3 17 8-9 1-11-1-17 4-3 23 1 65-1 92-11-19 10-85-11-95-16 6 1 83-9 96l-1 1c-4-9-2-81-2-96-16-6-19-8-32-18-2-34-2-126 0-159 9-10 11-12 23-18"/>
  <path fill="#d5a56d" d="M696 1432c10 0 26 5 34 9l1 3c-17 0-22 3-35-12"/>
  <path fill="#532e0f" d="m1366 1291 4 4 2-1h2q6 2 12 1c0 44 2 100 0 142-13 10-16 13-32 18q1 19-2 40c-11-11 1-27-5-40-6-2-3-1-9 0-5 8 2 26-4 42-2-8-2-36-2-46 8-4 9-5 17-7 10-4 11-5 18-13 10-10 1-87-2-103z"/>
  <path fill="url(#a)" d="M1020 1379c3-12 2-22 5-34l5-3c11 22 5 29 10 45l1 17c0 23 19 25 37 31v3l4 3-1 2c-20 4-77 5-96 2-4-4-3-1-4-7h-11c20-5 31-8 49-17z"/>
  <path fill="#d5a56d" d="M1029 1428c5-1 33 11 40 14h-30l-48-1z"/>
  <path fill="#100f08" d="M757 1244c39-2 87 0 127 0h429c-7 1-20 4-25 2l2-1-1 2h-1l7-1h-1l23 4c-40 1-87-1-128-2H924l-100 1c-19 1-62 3-80 1l48-4c-11-2-24 0-35-2"/>
  <path fill="#d5a56d" d="M1327 1443c11-3 29-11 40-12-7 8-8 9-18 13z"/>
  <path fill="#9f7a5c" d="M702 1265c14-6 17-6 33-8-10 6-28 10-40 16 2-5 3-5 7-8"/>
  <path fill="#d5a56d" d="M981 1255c12-1 85-2 93 2l-9 3c-14 4-21 7-34 14q-23-12-50-19"/>
  <path fill="#9f7a5c" d="M1318 1256c19 0 33 2 47 14-7-1-37-11-47-14"/>
  <path fill="#6f7e5f" d="M1771 1488c37-33 92-26 138-27h891l437 1 131-1c22 0 61-1 83 2 24 5 42 9 63 25z"/>
  <path fill="#313a2a" d="M1771 1488c37-33 92-26 138-27h891l437 1 131-1c22 0 61-1 83 2 24 5 42 9 63 25h-28c-11-7-28-11-40-15-66-6-182-2-251-2H1969c-46 0-135-7-173 17z"/>
  <path fill="#6f7e5f" d="M4034 2764c33 6 38 17 36 48l-10 74-1 14-7 39v5l-1 12c-2 17-2 23-6 39l-2 21-1 1c0 13-3 48-6 60l-2 6c-3 19-1 30-8 48l-2 39-3 20-5 47-3 10c-25 38-109 32-149 32-80-1-164 4-240-26-36-15-51-28-50-69l1-322c1-45 60-66 96-78 92-28 191-16 286-18 16 0 65 2 77-2"/>
  <path fill="#4c5a3f" d="M4016 3237c0-23-1-19-21-19l-108 2c-24 0-64 3-85-10-25-18-2-36 21-38 66-6 134 1 201-2l-3 20z"/>
  <path fill="#8c9c78" d="M3840 3181c48-4 130-1 180-1-2 9 0 21-5 28q-9 5-19 2c-30 0-169 9-180-16l2-5c8-6 13-6 22-8"/>
  <path fill="#4c5a3f" d="M4026 3131c-20 3-61 2-82 1-29 0-128 8-140-24 5-26 57-26 77-26l153 1c-3 19-1 30-8 48"/>
  <path fill="#8c9c78" d="M3858 3092c56-2 116 0 172 0l-3 30h-20c-30 0-158 8-175-11q-2-3-1-6c9-10 15-10 27-13"/>
  <path fill="#4c5a3f" d="m4060 2886-1-17c-14-5-139 3-163-3-13-2-31-7-39-19-1-53 197-9 213-35z"/>
  <path fill="#8c9c78" d="M3915 2829c48-2 103 0 151 0l-5 31-27-1c-27 1-141 7-152-13l1-4c11-11 17-11 32-13m127 188-4 16c-6 4-91 2-104 2-18-1-82 7-84-18l3-4c18-15 155-9 186-8 4 3 3 4 4 11zm11-101-1 23v5l-2 1c-5 4-144 3-159 1q-16-1-26-11-1-6 3-10c17-15 157-9 185-9"/>
  <path fill="#4c5a3f" d="M4037 3043c-43 1-169 8-203-9q-10-5-12-14c3-17 28-24 43-24 57-1 124-5 180-1l-2 21c-1-7 0-8-4-11-31-1-168-7-186 8l-3 4c2 25 66 17 84 18 13 0 98 2 104-2l4-16c0 13-3 48-6 60zm14-87c-36 0-196 12-211-20q-1-8 4-13c25-31 164-10 206-17q6 0 9-6l-7 39 1-23c-28 0-168-6-185 9q-4 4-3 10 10 10 26 11c15 2 154 3 159-1l2-1z"/>
  <path fill="#4c5a3f" d="M4034 2744c-1 8-3 12 0 20-12 4-61 2-77 2-95 2-194-10-286 18-36 12-95 33-96 78l-1 322c-1 41 14 54 50 69 76 30 160 25 240 26 40 0 124 6 149-32l3-10 5-47q3 14 18 19l-1 31 1 113c0 11-1 51 1 60l-15 4-2 4c-16-13-60 6-96-33q-3-35-1-72l-1-28c-99 0-228 8-321-28-13-4-49-31-50-43-9-119-1-242-3-362 0-23 22-42 40-52 112-63 247-41 370-46 16-1 54 4 67-1z"/>
  <path fill="#6f7e5f" d="M4021 3190q3 14 18 19l-1 31 1 113c0 11-1 51 1 60l-15 4-2 4c-16-13-60 6-96-33q-3-35-1-72c1-7 2-23 6-28l4-2c14 7 6 41 12 51 1-9-1-38-2-49 28-5 47-4 71-21l1-4-1-1 3-4c-1-7 0-5-7-11l3-10z"/>
  <path fill="#100f08" d="M4021 3190q3 14 18 19l-1 31 1 113c0 11-1 51 1 60l-15 4v-2c-11-26 1-133-7-152l-1-1 3-4c-1-7 0-5-7-11l3-10z"/>
  <path fill="#313a2a" d="M4018 3263c8 19-4 126 7 152v2l-2 4c-16-13-60 6-96-33q-3-35-1-72c1-7 2-23 6-28l4-2c14 7 6 41 12 51 2 62 3 69 70 72l-1-142z"/>
  <path fill="#929e83" d="m645 4086 3-3 109-1q54-3 108-3c34 1 69 7 103 3 38-5 75 2 113 0q27-2 54-1l75 1q35 2 70-1h-3 78l232-1 68 3h774c45 0 92-4 138-3l395 1c51 0 110 4 160 1l-3-1c30-1 60 3 90 2 74-3 152-4 226 0 31 1 166-6 183 2-48 3-106 1-154 1H847c-66 0-136 2-202 0"/>
  <path fill="#030303" d="M4040 3413c17 19 46 83 47 108 6 124 2 251 3 376 0 35-17 55-41 77-38 37-144 83-196 90l-12-2 8-7c48-12 103-32 146-58 30-18 64-49 73-85 3-11 2-47 2-61v-240c0-76-2-123-47-190l2-4z"/>
  <path fill="#100f08" d="M3746 4076q51-8 103-21l-8 7 12 2c-18 5-66 16-83 16-5-4-17-4-24-4"/>
  <path fill="#8c9c78" d="m124 2003 2-3c11-21 8-42 8-66l-1-106c0-22-2-55 4-75 15-53 90-81 137-96 84-27 170-32 258-40l236-20 406-35c93-9 194-20 286-24 115-4 235 0 350-1l897 1 616-1h185c127 0 258 3 375 62 45 24 84 63 81 117q-2 72-1 146v597c0 36 3 100-2 132a731 731 0 0 1-209 135c-18 8-56 7-77 10-67 6-186 17-220 86-8 16-5 88-4 110v151c0 81-3 161 0 242 2 64 74 88 125 100 96 22 184 4 267 67 137 89 120 67 121 226v111c1 36 6 83-22 110-83 83-223 95-334 104-72 4-151 2-221 2H951l-274 1c-157 0-379 11-510-95a85 85 0 0 1-33-66v-970l-1-225 1-126c0-14-2-21-8-33l7-23q2-80 0-160l1-134c0-20 1-50-1-70-11-13-6-21 1-34-6-36 10-71-10-107"/>
  <path fill="#4c5a3f" d="M739 2811q51-5 101-5l137 2c26 0 62 2 88 0 78-1 127 2 203 21 47 14 75 25 107 65 7 20 8 28 1 48l58-13c55-12 144-25 200-32l51-7c22-1 55-4 76-7l58-5 96-6h31l63-2h106l63 2c25 2 62 5 86 4 21 3 56 6 78 6 9 3 55 7 68 8q20 1 38 5 104 13 207 32l36 8c62 10 113 30 171 44 56 20 156 49 206 82 19 12 46 25 67 37l41 25 19 14c36 27 55 43 83 77l17 22 19 30q7 15 16 28c13 42 24 73 12 118l-2 18-29 60-20 28-15 19c-15 16-66 65-82 75-7 5-18 11-24 17-40 25-70 40-111 61q-57 27-115 49c-8 3-39 13-43 17l2 3c-8 3-30 0-41 7l-10 3c-45 15-127 35-173 44l-35 8q-91 18-182 29l-30 4-36 4c-5 1-26 2-29 4l-74 6-96 5c-14 1-50 1-62 3h-178c-13-3-41-2-55-3l-92-3c-10-3-54-6-67-7l-49-4-40-6c-60-5-145-21-205-32l-36-8c-39-6-131-31-171-44l-32-11c-11-1-42-14-54-18l-87-35q-16-9-33-16c-34-17-84-42-114-63l-22-16c-33-25-53-44-82-75l-16-19-17-24c-4-7-10-21-15-26-7-21-13-33-15-55-6-16-3-45-1-63l3-20 13-39 14-29 30-43c-9-7-15-3-25-12-57 4-94 4-150 0q-22-3-43-8c-46-9-99-24-135-55q-9-9-16-20c-8-21-6-30-7-52l1-54c2-14-1-40 0-57q0-18 6-34c14-35 53-56 87-69l16-7c73-23 115-30 191-38"/>
  <path fill="#6f7e5f" d="m789 3205 38-4-13 16c-9-7-15-3-25-12"/>
  <path fill="#6f7e5f" d="M1076 2817c77 0 176 8 245 47q61 35 22 93c443-100 902-104 1346-11 150 32 278 72 411 147 231 131 324 335 74 513-165 118-337 160-532 205l-83 15q-135 23-272 32c-390 31-975-12-1313-218q-50-29-95-66a292 292 0 0 1-105-196c-5-78 44-138 92-193-45 4-82 14-136 15-72 1-224-10-262-87-7-14-4-95-6-115-2-27-3-76 21-94 103-90 274-85 401-86z"/>
  <path fill="#030303" d="m1679 3542 42 7q42 8 85 9 138 2 278 1 100 2 199-1 38-1 75-6 29-6 57-9 14 1 28 6c71 24 141 54 212 81 63 25 129 46 191 74q11 4 20 12c1 5 1 5-1 10-13 11-38 16-55 22-129 40-263 62-398 80-81 6-162 16-244 19-267 11-585-14-842-87-22-6-77-18-93-33-2-5-2-5-1-11 18-15 211-85 244-98l116-45c27-10 59-23 87-31"/>
  <path fill="#373737" d="m2415 3551 63 25 151 58 141 55 58 21q7 2 14 9l-1 3c-11 12-37 16-52 21q-185 54-377 76c-353 42-731 29-1075-67-16-4-77-19-84-32q6-7 16-9l105-41 308-118q48 9 96 13c83 6 168 2 252 2h163c74 0 150 1 222-16"/>
  <path fill="#030303" d="M1938 2899c37-3 94-2 132-1 231 1 466 26 689 86 29 8 73 19 100 33q7 4 7 11l-3 5c-8 8-368 145-410 160q-16 6-32 8c-30 2-76-12-108-15-55-5-112-3-167-3h-209c-87 0-162-1-248 18-22 5-82-21-107-31l-118-45c-32-12-217-80-234-95-1-15 22-20 35-24 216-69 447-98 673-107"/>
  <path fill="#373737" d="M1978 2907c251-5 502 15 746 78 33 8 81 20 113 35 5 2 4 4 5 8-10 11-379 149-422 166-34-4-66-13-103-16q-101-6-201-4c-146 0-294-7-438 17-10 2-140-50-161-58l-156-60c-18-7-101-36-109-47l3-4c216-80 498-109 723-115"/>
  <path fill="#030303" d="M1127 3063c48-3 83 16 126 33l143 56 124 47c23 9 66 24 85 36-10 8-39 31-40 46-5 61-4 127-1 188 1 14 37 31 31 47-15 10-82 35-104 43l-206 79c-35 13-74 30-110 41-55 17-93-11-138-35-87-48-182-124-209-224-14-52 1-109 29-155 42-72 117-126 190-166q38-24 80-36"/>
  <path fill="#373737" d="M1138 3070c26 1 68 21 94 31l163 63 122 47c15 6 48 18 60 25l-15 14c-6 5-21 30-22 37-2 48 0 101-1 148 0 42 8 50 38 79-34 14-74 28-108 41l-194 75c-31 11-99 40-126 44-43 7-144-66-179-91a285 285 0 0 1-123-183c-8-61 13-114 50-161 47-63 120-110 188-147 15-7 37-19 53-22"/>
  <path fill="#030303" d="M2943 3062q25-1 48 8c106 46 217 120 265 228 78 173-119 312-255 375-56 27-110-5-164-25l-220-84c-30-12-97-36-122-51 12-12 37-32 38-50q3-89 0-178c0-10-31-42-33-51 20-14 59-28 82-37l156-59 119-47c23-9 62-25 86-29"/>
  <path fill="#373737" d="M2953 3071q12 0 22 4c353 159 372 424 13 592-39 19-61 3-98-10l-65-26-184-70c-38-15-84-32-121-48 16-14 36-33 37-55v-168c0-21-24-42-39-54 94-40 195-75 290-113 26-10 123-50 145-52"/>
  <path fill="#4c5a3f" d="m1868 3207 250 1c68 1 140-4 207 6 47 7 145 27 145 89l-1 73c-1 27 6 77-9 101-58 56-155 57-230 57h-282c-94 0-219 12-299-47-35-25-18-82-20-120-1-28-8-82 14-103 56-51 154-55 225-57"/>
  <path fill="#8c9c78" d="M1918 3216c34-2 79 0 114 0h145c16 0 89-1 101 2h12c43 3 134 22 153 67l2 17 1 18c2 22 4 117 0 136-5 9-5 11-12 19-29 36-105 46-147 50h-5l-75 1h-317c-21 0-50 0-71-2h-5c-53-3-113-11-153-50-13-19-6-18-11-39v-2c-3-11-3-102 0-115 3-5 1-22 4-34 17-42 98-59 137-64l52-2c23-3 52-2 75-2"/>
  <path fill="#6f7e5f" d="M2446 3320c2 22 4 117 0 136-5-6-17-9-24-12l24-9-1-26c-17 6-40 15-56 23l-138-54c43-19 92-33 137-54 18 9 37 14 57 23l-1-27zm-796-2c0 7-1 19 2 25 14 0 41-17 47-16 36 7 111 38 143 51l-137 53c-14-5-43-19-53-15q-3 7-2 17c-3-11-3-102 0-115m397 139c41 17 101 38 139 55-8 3-12 3-16 9-4 5-11 3-17 5h-263c-21 0-50 0-71-2 34-1 86 3 116-1l-28-11zm243-239c43 3 134 22 153 67-12-7-41 9-55 14l-141-54q29-11 55-23l-1-2zm-636 66c17-42 98-59 137-64l-1 3 58 22c-45 14-106 43-145 54-12-5-39-18-49-15m732 173c15 4 34 11 48 18-29 36-105 46-147 50h-5l1-1-2-3-11-2q-9-2-16-8c3-4 117-47 132-54m-725 17c12-5 32-12 43-18l139 55-29 13c-53-3-113-11-153-50m516-258c16 0 89-1 101 2-57 0-40 25-101-2m-334 2c23-3 52-2 75-2l-42 17zm578 94 24-10 1 18h-2z"/>
  <path fill="#6f7e5f" d="m2270 3519 11 2 2 3-1 1-75 1c17-4 44 0 62-4zm-227-195c12 2 34 12 46 17 32 11 64 26 96 36-30 14-106 43-139 54l-45-17-96-37q70-24 138-53m170 68c10-1 125 47 145 53-46 16-90 36-135 51-9 3-128-45-145-52zm-341 0c17 1 117 43 144 51l-133 52q-6 2-12 1c-43-14-90-34-132-51 42-17 92-35 133-53m342-134c20 5 119 44 140 54l-133 52c-14 0-121-44-141-52 39-20 91-33 134-54m-345 0c11-1 123 47 144 54-41 13-95 36-136 52-13-1-118-45-143-53 31-8 103-40 135-53"/>
  <path fill="#030303" d="M794 2835c61-2 127-1 187-1 80 1 147-2 227 12 60 10 155 65 63 118-32 18-90 32-127 46q-105 40-201 100c-19 11-40 27-59 38-30 18-81 27-117 31-69 6-180 1-238-44q-21-15-23-41l1-67c2-36-12-88 17-116 66-62 184-73 270-76"/>
  <path fill="#373737" d="M762 2845c39-3 82 0 121-1h41c91 2 184-8 274 10 28 6 70 19 84 45 25 48-50 70-82 79l-61 22q-93 35-180 83c-31 18-63 42-92 59-72 43-288 49-336-32-2-42-7-130 0-168 12-72 178-93 231-97"/>
  <path fill="#030303" d="M917 2912c38 4 123 41 68 85-61 41-144 40-212 34-50-4-180-44-90-102 18-10 50-21 70-11v4c-10 10-82 33-43 66 32 27 98 30 138 28 28-1 82-8 103-30 27-32-23-49-44-60q-5-2-5-7c6-6 5-4 15-7"/>
  <path fill="#030303" d="M817 2890h15q9-1 16 6c4 14 1 44 1 59q0 9-8 13c-12 0-21 2-32-4-5-10-2-52-1-65q1-6 9-9"/>
  <path fill="#4c5a3f" d="m124 2003 2-3c11-21 8-42 8-66l-1-106c0-22-2-55 4-75 15-53 90-81 137-96 84-27 170-32 258-40l236-20 406-35c93-9 194-20 286-24 115-4 235 0 350-1l897 1 616-1h185c127 0 258 3 375 62 45 24 84 63 81 117q-2 72-1 146v597c0 36 3 100-2 132a731 731 0 0 1-209 135c-18 8-56 7-77 10-67 6-186 17-220 86-8 16-5 88-4 110v151c0 81-3 161 0 242 2 64 74 88 125 100 96 22 184 4 267 67 137 89 120 67 121 226v111c1 36 6 83-22 110-83 83-223 95-334 104-72 4-151 2-221 2H951l-274 1c-157 0-379 11-510-95a85 85 0 0 1-33-66v-970l-1-225 1-126c0-14-2-21-8-33l7-23q2-80 0-160l1-134c0-20 1-50-1-70 12 11 20 7 31 14l-5 1c-2 14-3 146-1 164 3 54 0 123 0 179 48-17 89-12 139-12h127c21 3 78 12 75 43 0 7-7 15-12 19-14 6-21 10-35 14-42 7-95 3-139 3-28 0-79 3-104-1q-26-1-51-12c-3 55 2 127 1 182l-2 120c0 26 4 86 1 108v24c4 62-5 132 0 195v71c4 32-4 112 0 133 0 14-2 137 0 140v162c0 17-4 88 0 99 0 24-2 98 2 116q9 17 22 31c19 30 65 45 96 58l21 7a899 899 0 0 0 267 32c61 2 125-1 187 0h40c32 1 84 2 116 0 69 2 157 3 225 0l120 1c69 2 154 1 223-1h113l136 1c27 0 64 1 90-1h116c73 1 156 4 229 1 34 0 82-2 115-1 66 2 158 3 224 1l111-1c43 2 90 1 133 1 27 0 69 1 94-1 31 1 88 2 117 0 67 1 160 4 226 0l118 1c60 5 160-1 225-1 51 0 90-2 141-5 48 0 88-18 130-25l24-9c36-14 77-26 101-60q10-15 18-32c3-36 8-198 0-226a271 271 0 0 0-1-80c-4-28-31-47-53-62l-23-14c-41-25-76-51-123-63-11-2-28-6-40-5-77-10-109-9-188-36q-15-5-29-14c-72-44-52-63-53-135l-1-225q-2-108 1-215 1-10 6-18l5-9a157 157 0 0 1 52-35c35-18 82-27 121-33l44-5c32 2 77-6 106-20l50-29 24-15c35-19 72-42 100-71l2-9c2-6 3-252 0-262v-339c0-11-2-49 0-56 7-55-2-125 0-182 1-25-2-69-16-89-40-50-67-54-123-74a824 824 0 0 0-270-36h-708l-38 2c-19 2-37 10-55 16-41-16-48-19-94-16-8 0-10 0-17-2h-62l-160 1-398-1h-40c-67 1-135-2-202 0-93 0-195-2-287 2l-70 4c-13 1-56 3-66 6l-27 2c-82 5-164 16-243 21-13 1-102 8-110 11-45 2-121 8-167 13l-59 5-137 11c-39 4-98 8-134 13-64 7-124 14-186 38l-31 12c-42 20-65 34-79 81-3 20 1 41-1 61-3 47 3 104-1 150 47-16 70-12 119-12h128c24 0 98 4 99 40 0 7-7 14-11 20-12 7-19 11-33 14l12 7c-3 5-91 35-105 43-27 1-65 3-91 0h-24c-34 1-57 0-89 11l-3 1-5-4 1 2c-7 0-8 2-15 7l-3-6q1 6-3 11c-6-36 10-71-10-107"/>
  <path fill="#6f7e5f" d="M162 2099c-5-7-5-54-4-65l2-1c19 8 31 6 46 11h136c39 0 79 2 117-6l12 7c-3 5-91 35-105 43-27 1-65 3-91 0h-24c-34 1-57 0-89 11"/>
  <path fill="#8c9c78" d="M162 2099c-5-7-5-54-4-65l2-1c19 8 31 6 46 11 24 13 81 32 110 44h-65c-34 1-57 0-89 11"/>
  <path fill="#6f7e5f" d="M162 2099c-5-7-5-54-4-65l2-1c0 7-1 19 1 25h10c20 6 61 22 80 30-34 1-57 0-89 11m2455-553q80-2 160 0h46-2l-38 2c-19 2-37 10-55 16-41-16-48-19-94-16-8 0-10 0-17-2M221 2499c41-2 87 1 129-1 30 0 111-4 126 27 3 27-35 31-54 34-53 1-199 8-242-9q-16-5-22-19c1-26 43-30 63-32m-13-524c17-3 48-3 67-2 59 4 126-8 183 9 10 3 26 21 17 31-12 15-31 18-49 20-17 2-65 1-85 1q-60 1-122-1c-19-1-52-8-62-25-2-23 34-31 51-33m3203 813 28 13-5 9q-5 8-6 18-3 108-1 215l1 225c1 72-19 91 53 135-20 10-49 20-71 28-10-4-58-24-66-21l-2 2c12-45 1-76-12-118q-9-13-16-28l-19-30c22-13 104-45 128-45q3-16 0-30c-16 2-25 0-40-6l-114-46c42-16 96-40 141-52 2-1 11 1 14 2q1-16-1-31c-31-2-36-7-64-17l-87-34a920 920 0 0 1 151-52c1-7 3-24-1-30l-10-1c-24-1-110-39-140-50 45-20 94-36 139-56"/>
  <path fill="#8c9c78" d="M3314 3266c18-7 77 36 108 29 3 6 2 23 2 31-28-2-49 12-77 20l-6-22 36-13-47-17q-9-13-16-28"/>
  <path fill="#6f7e5f" d="m1997 1546 398 1 160-1h62c7 2 9 2 17 2l-1 4c5 5 46 20 58 26l2 1-136 54q-68-29-136-54c18-5 60-22 77-30-49-5-66-2-109 17-53-21-51-20-107-18 22 12 52 22 76 31q-71 26-141 55-69-29-140-55c16-6 56-20 67-27l-8-5c-45 0-49 2-90 19-13-6-37-16-49-19zm1791 431c28-12 101-40 132-51l15 2c2-5 2-19 3-25v24c-2 7 0 45 0 56v328l-3-15c-22 1-40-9-60-17l-88-36q55-20 110-44c16-7 17-9 34-7h4c2-7 2-26 2-35-4 2-14 5-18 4-46-13-94-34-138-50 29-11 128-54 150-52h3c3-5 3-26 0-31l-9 1c-16 1-117-43-137-52"/>
  <path fill="url(#b)" d="m366 2088 2 1c40 4 95-7 126 25 13 14 7 29-8 39-13 6-19 9-34 12-29 5-71 3-103 3H204q-20-2-40-9v-1c-11-7-19-3-31-14-11-13-6-21 1-34q4-5 3-11l3 6c7-5 8-7 15-7l-1-2 5 4 3-1c32-11 55-10 89-11h24c26 3 64 1 91 0"/>
  <path fill="#6f7e5f" d="m226 2099 107-1c22 0 166-10 141 42-6 13-44 18-60 19l-124 1c-27 0-125 5-133-30 6-26 47-29 69-31m-68 1290c42 13 104 39 148 55-42 18-102 41-145 54q-5 11-2 24c50 15 99 40 149 55-23 8-120 44-148 57-2 1-1 14 0 21 7 4 36 13 45 16l101 39c-22 8-124 44-147 58-2 1-1 15 0 20l-1 2c-4-11 0-82 0-99v-162c-2-3 0-126 0-140m0-423c3-22-1-82-1-108l2-120c1-55-4-127-1-182 2 14 2 19 1 33q23 3 44 14 52 22 106 40c-49 17-98 38-147 55-2 7-2 22 0 23l146 56-91 34c-17 6-42 16-57 20q-2 13 1 27l7 1c23 2 111 41 138 52-50 16-98 39-148 55m3780-644c3 10 2 256 0 262q1-9-3-18c-24-4-48-16-71-25l-81-31 27-11c37-13 72-29 109-40 5-2 14 0 19 1q1-17-1-35c-10 1-17 4-26 0q-64-23-128-49c28-10 131-54 152-50zm-16-666c14 20 17 64 16 89-2 57 7 127 0 182v-24c-1-7 1-5-3-9-5 0-15 2-19 0l-131-49 121-48c12-5 15-4 29-3 2-8 1-25 0-33l-10 2c-16 3-119-42-141-51 19-8 131-48 138-56M158 2990c27 1 115 42 149 53q-43 13-85 31c-19 7-44 19-63 24v23c45 16 102 37 147 55-24 10-128 53-148 55v-46c-5-63 4-133 0-195m2677-1444h463c8 2 8-1 17 5l-3 1c24 11 40 18 65 26-43 19-94 38-138 55l-137-54 72-30c-50-4-61-2-106 17q-23-11-47-17c-36-6-157 11-186-3"/>
  <path fill="url(#c)" d="M639 3205c56 4 93 4 150 0 10 9 16 5 25 12l-30 43c-18 1-82 30-103 38l-109-42-30-13c21-9 80-28 97-38"/>
  <path fill="#6f7e5f" d="M680 3456c16 5 96 40 105 36l17 24-38 15q-42 18-83 33c-44-14-95-36-139-53 39-19 96-37 138-55m1014 403 49 4-4 3v3l104 41c-44 17-93 35-136 54l-140-54c22-9 112-42 127-51m673 3c3-2 24-3 29-4 36 18 89 35 128 52q-68 28-137 54c-41-19-93-38-136-54 17-7 111-42 116-48m944-372 2 3c16-5 80-29 95-37 45 17 97 35 140 55-41 15-99 40-138 53-23-8-105-44-119-46zm-926-702c41 16 98 37 137 54-19 11-104 39-112 48-13-1-59-5-68-8-6-7-76-31-92-39 41-18 97-35 135-55m-680 2c33 10 104 39 139 53-25 9-68 24-91 35 3 4 3 3 8 5-21 3-54 6-76 7-12-8-98-39-118-47z"/>
  <path fill="url(#d)" d="M340 2923c13 6 83 34 95 35l2-3 2 4c-1 17 2 43 0 57h-1l-1-27c-30 15-69 30-100 42-43-15-93-37-137-54 43-18 95-37 140-54"/>
  <path fill="#6f7e5f" d="M339 3056c28 12 69 27 98 38l-1-24h2c1 22-1 31 7 52-29 9-77 31-107 43l-137-55zm1416-1510c67-2 135 1 202 0h40v1c-17 2-37 0-57 2 13 7 57 24 73 30-42 15-99 36-139 54-33-16-103-41-138-54 15-5 65-23 78-30-17-2-41-2-59-2zm1774 0c19-2 115 0 132 5l-1 3c3 4 50 21 60 25-45 16-94 36-138 54l-84-33c-15-6-39-15-52-22 25-8 43-16 67-26l-2-1q7-5 18-5m-2940 75 137-11c23 11 65 26 90 35-41 17-96 40-137 54l-137-53 2-1c14-6 33-12 45-19zm3149 1837c47 12 82 38 123 63-14 6-99 42-108 41-22-3-117-42-142-51 24-10 109-41 127-53M680 3324c15 5 62 26 74 24-2 18-5 47 1 63l-1 3-5-8c-22 6-46 18-69 25l-140-54zm1364-534c40 13 100 38 140 54-19 7-53 16-69 26h-106l-63 2c8-2 21-2 30-3l-66-26c43-17 92-34 134-53M158 2323l2 1c23-1 119 42 146 53l-102 39c-13 5-28 16-41 12-5 5-3 18-3 26h3c30 10 59 26 88 33 14 3 48 2 64 1q-57-25-115-45l138-53q9 2 15 7l-2 1q-8-6-18-4c-37 14-73 32-111 43q-6 2-11 6h2l13 6c28 15 61 21 90 36 11 5 28-5 54 5h-73c-50 0-91-5-139 12 0-56 3-125 0-179m1-558c1 7 0 24 2 30q9-6 19-2c42 19 88 33 130 52-46 16-104 40-149 53-2 8-3 21 0 29h3c11-1 10-2 20 2 23 8 71 31 92 35-49 0-72-4-119 12 4-46-2-103 1-150 2-20-2-41 1-61"/>
  <path fill="url(#e)" d="M1363 2790c28 6 107 41 139 53-17 7-123 46-127 51-32-40-60-51-107-65 29-12 68-26 95-39"/>
  <path fill="#6f7e5f" d="m511 1924 137 53c-44 18-93 38-139 52q-9 0-17-5c4-6 11-13 11-20-1-36-75-40-99-40 31-9 76-29 107-40m0 532c38 15 98 37 134 55-39 15-95 36-132 53q-14-4-26-12c5-4 12-12 12-19 3-31-54-40-75-43 28-10 60-22 87-34m-145-368h60c21-3 61-22 84-30l137 53c-43 18-94 33-135 53l-26-11c15-10 21-25 8-39-31-32-86-21-126-25zm696-507c79-5 161-16 243-21l-10 2v3c7 5 26 10 36 14l-140 55-87-35c-8-3-36-14-42-18m2876 2096c8 28 3 190 0 226l-157-58 26-11q54-19 107-41h22c3-8 2-23 3-32-3-16-3-68-1-84M204 2168h145c32 0 74 2 103-3 3 4 21 10 27 12l-139 53c-18-7-131-49-135-57zm248 398q13 7 28 10l-140 55c-12-4-134-51-136-54 1-5 2-5 5-9 25 4 76 1 104 1 44 0 97 4 139-3"/>
  <path fill="url(#f)" d="M3939 3606c3 17 2 53-1 71-2 16-2 68 1 84-18 4-45-10-62-17l-92-34c25-13 105-42 135-54l17 6 1-35c-1-10-2-12 1-21"/>
  <path fill="#6f7e5f" d="M3510 3417c79 27 111 26 188 36l-118 44c-45-16-93-37-138-54 19-6 50-17 68-26m-1078 437 30-4q91-11 182-29c12 8 36 16 50 22l-138 54c-24-11-98-44-120-43zm-983-33c60 11 145 27 205 32-13 1-99 36-119 43-44-18-93-36-138-53 9-3 50-17 52-22"/>
  <path fill="url(#g)" d="M158 2323c-2-18-1-150 1-164l5-1v1c-7 7-4 20-4 31 17 0 123 45 149 53l-147 56q-3 13-2 25z"/>
  <path fill="#6f7e5f" d="M461 3142c36 31 89 46 135 55l-85 33c-46-17-96-35-141-53z"/>
  <path fill="url(#h)" d="M159 3788c12 3 134 49 149 56l-144 55-4 7c-4-18-2-92-2-116z"/>
  <path fill="#6f7e5f" d="M158 3256c21 2 122 45 147 55l-144 54c-4 11-2 14-3 24-4-21 4-101 0-133m660 279c29 31 49 50 82 75l-54 22q-66-29-133-54c23-10 87-31 105-43m578-624c35-14 112-40 140-55 23 10 81 28 98 41-56 7-145 20-200 32-6-5-29-14-38-18m1798 701c16-10 67-59 82-75 29 13 73 30 103 40q-71 24-140 55zm-746-717c17 0 90-31 110-38 46 16 94 38 140 53-12 4-34 11-43 17q-103-19-207-32"/>
  <path fill="url(#i)" d="M3884 3535c22 15 49 34 53 62l2 9c-3 9-2 11-1 21l-14 3c-42-12-102-37-141-53 21-8 85-30 101-42"/>
  <path fill="#6f7e5f" d="m3195 3137 42-15c39 15 104 37 139 53-17 7-89 34-98 39-28-34-47-50-83-77m415-427 142-54 60 23-50 29c-29 14-74 22-106 20-6-4-37-15-46-18M269 1672c62-24 122-31 186-38 9 6 13 7 22 11-42 20-94 36-138 53-11-4-62-21-70-26m1663 2362c36-15 78-32 115-45l114 46c-73 3-156 0-229-1m-228-46c23 9 94 36 112 46-26 2-63 1-90 1l-136-1c35-18 79-30 114-46m1706 0c19 8 103 38 114 46-65 0-165 6-225 1 36-18 75-30 111-47m-1021 1c28 10 87 31 111 46-66 2-158 1-224-1 28-14 82-33 113-45m-1025-1c35 14 80 30 113 46-69 2-154 3-223 1 17-11 86-36 110-47m1704 1c29 11 89 32 113 45-66 4-159 1-226 0 35-16 77-31 113-45m-2045 0c28 11 87 32 111 45-68 3-156 2-225 0 33-15 80-32 114-45m-457 45c28-15 78-30 112-45 18 5 99 36 115 45h-40c-62-1-126 2-187 0m2159-45c25 8 90 34 113 45-25 2-67 1-94 1-43 0-90 1-133-1zM159 1765c14-47 37-61 79-81 23 13 48 18 68 28-28 11-126 53-147 53m3627 879q19-9 37-15 48-20 97-38c3-1 12 1 16 2-28 29-65 52-100 71-8-5-40-17-50-20M375 2909l126-51c9-3 22-7 31-2-34 13-73 34-87 69q-6 16-6 34l-2-4c1-4 2-16 0-18-9-9-46-20-59-27zm867 860c40 13 132 38 171 44l-48 18-84-32c-14-5-38-13-50-20q4-6 11-10m-320-143c30 21 80 46 114 63l-5 2q-8 4-15 4c-45-13-96-34-139-50 13-5 33-12 45-19m1757 187c46-9 128-29 173-44l11 7v3c-10 5-32 12-44 16l-91 35c-14-5-36-11-49-17M548 2849c0-5-1-3 1-8q67-24 132-52c19 6 38 16 58 22-76 8-118 15-191 38m237-1244c46-5 122-11 167-13-15 8-84 34-102 41-14-5-56-21-65-28m2274 2085c41-21 71-36 111-61l37 15c-17 7-135 54-146 50zm-333-768c13 3 128 47 135 53l1 4c-58-14-109-34-171-44q18-5 35-13m1067 1061 127-48c-24 34-65 46-101 60q-12-7-26-12m-3457 5c36 17 67 28 103 42-36 0-108-16-140-28zm102-972h1l-1 54h-2c-15-8-50-21-67-27 13-5 62-21 69-27m2630 45c18 0 114 39 138 48-9 3-22 7-29 13l-1 1-41-25c-21-12-48-25-67-37M182 3937c37 16 79 33 118 45-7 3-17 6-21 12l-1 1c-31-13-77-28-96-58m1628-67 92 3c14 1 42 0 55 3-36-1-48 8-81 21-20-7-48-17-66-27m1952 120 33 14c-42 7-82 25-130 25q49-21 97-39m-1627-114c12-2 48-2 62-3l96-5-76 29c-35-15-43-21-82-21m-667-2328c92-4 194-2 287-2v1c-9 1-40 14-50 18-5-2-41-16-47-16-60-2-125 4-186 3l-2 1zm-399 2157 87 35-10 7c-20-8-73-27-89-35l1-3zm2515-982q13 8 28 10c-39 6-86 15-121 33l-13-1c7-5 94-38 106-42m-220-1177h102c-13 3-40 14-54 20zM755 3411c2 22 8 34 15 55l-57-22c13-6 31-8 40-18q2-4 1-12zm1121-556c12 5 29 10 39 17l-96 6c13-3 45-18 57-23M713 3311c15-5 44-15 57-22l-13 39c-6-6-34-14-44-17m309-521c14 4 31 10 43 18-26 2-62 0-88 0zm1194 67c15 5 35 12 48 19-24 1-61-2-86-4zm1124 573q20 5 36 14l-50 19z"/>
  <path fill="#6f7e5f" d="M1156 3740c12 4 43 17 54 18-26 10-37 0-64-11zm176-2182c10-3 53-5 66-6q-17 9-34 13c-14-5-17-7-32-7m2146 1207 13 1-31 17-9-4v-3c5-5 19-9 27-11"/>
  <path fill="#4c5a3f" d="M2219 1790c31 10 106 40 137 54l-27 10c35 0 85 2 120-1l-26-8c28-12 110-41 134-54 19 6 118 43 132 52-3 5-18 9-24 11h118l-20-9 135-55c17 7 129 49 135 54q-7 6-17 8h1q8 3 18 4 60 1 116 22c17 7 57 25 57 46 9 29 5 95 6 128l-1 131c-1 31 6 78 1 111v73c4 13 3 39 2 54v46l25-10c45 19 95 35 138 54q-70 24-139 53l-24-8-1 45 26-11 135 53-139 55c-7-3-20-11-26-8-21 28-42 37-74 47-12 7-54 21-69 26-7-3-18-7-24-11-57 4-282-4-318 9-38-15-96-3-138-4l-104-1c-33-1-67-6-97 6q-12-5-26-8l-101 1h-416l-113-1c-7 1-18 6-25 8-35-14-75-7-112-6l-44 1c-56 4-134-12-187 4-5-2-17-7-23-7q-116 2-231 0h-32c-30 1-23-4-55 10l-74-31c-26-9-43-17-60-39-15-27-4-205-6-250l-2-110v-50l-31 12c-43-17-93-34-133-53 28-11 109-41 134-54l30 13v-28l2 1c1-24-3-52-2-76l1-39-1-14 1-33c1-38-2-58 8-95 20-45 128-59 171-62l16-3c-6-6-15-3-17-10 40-17 93-37 135-52 37 12 103 37 138 53l-24 10c32 0 84 2 114-1l-23-9c41-15 95-35 135-53l134 53-22 10c12 0 101 1 109-1l-19-8c29-10 109-41 139-55 42 15 96 35 138 54l-26 9c26 3 91 1 119 1l-26-10z"/>
  <path fill="#6f7e5f" d="M2219 1790c31 10 106 40 137 54l-27 10c35 0 85 2 120-1l-26-8c28-12 110-41 134-54 19 6 118 43 132 52-3 5-18 9-24 11h118l-20-9 135-55c17 7 129 49 135 54q-7 6-17 8h1q8 3 18 4l-28-1h-529l-1418 1 16-3c-6-6-15-3-17-10 40-17 93-37 135-52 37 12 103 37 138 53l-24 10c32 0 84 2 114-1l-23-9c41-15 95-35 135-53l134 53-22 10c12 0 101 1 109-1l-19-8c29-10 109-41 139-55 42 15 96 35 138 54l-26 9c26 3 91 1 119 1l-26-10zM880 2174l2 1c1 25 2 116-2 138v-29l-31 12c-43-17-93-34-133-53 28-11 109-41 134-54l30 13zm2334 382h2l-1 45 26-11 135 53-139 55c-7-3-20-11-26-8 7-22 0-101 3-134"/>
  <path fill="#6f7e5f" d="M3214 2367c4 13 3 39 2 54v46l25-10c45 19 95 35 138 54q-70 24-139 53l-24-8h-2c6-40-3-140 0-189M948 2733c26 6 47 11 74 15l55 6c-30 1-23-4-55 10zm2096 19c36-3 57-7 93-15-12 7-54 21-69 26-7-3-18-7-24-11"/>
  <path fill="#8c9c78" d="M1133 1865h1827c56 1 228-3 229 82l-1 220v413c1 30 3 76-1 103-38 55-144 61-204 61H1088c-52-1-130-10-170-47-18-16-12-90-12-116v-146q2-227-1-454c0-24-2-55 18-72 52-46 146-43 210-44"/>
  <path fill="#030303" d="M994 1943c4-5 10-13 14-16 55-40 153-29 218-29h1687c64 0 146-10 189 46l1 159 2-3c1-37-2-79 0-115q7 34 4 69l1 165 2 40c-7 91 1 182-5 273l2 6c-4 8-1 47-4 50 0-13 1-44-3-55-1 45 2 94 0 138-48 55-189 37-259 39-25 10-156 7-191 6l24-2c-53-4-110 1-163 3l-142-4c-18 0-85 3-97-3h-99l-2 2-123 4-98-3c-28 0-77 5-101-3h-33c-66 1-132-2-197 0-21 5-54-1-65 5l6 2c-7 7-25 2-33-1l4-1 1-2c-17-2-47 14-70 7 4-3 4-1 5-5-27 1-26 9-64 4l-2-6h-40l19 5 1 2c-15 4-30-4-44-5l-43 3-42-3c-21 1-104 1-121-5-50-2-102 1-139-39z"/>
  <path fill="#929e83" d="m3103 2103 2-3c1-37-2-79 0-115q7 34 4 69l1 165 2 40c-7 91 1 182-5 273l2 6c-4 8-1 47-4 50 0-13 1-44-3-55v-144q-1-143 1-286m-1970 607h308c56 0 125-2 180 0-21 5-54-1-65 5l6 2c-7 7-25 2-33-1l4-1 1-2c-17-2-47 14-70 7 4-3 4-1 5-5-27 1-26 9-64 4l-2-6h-40l19 5 1 2c-15 4-30-4-44-5l-43 3-42-3c-21 1-104 1-121-5m1141 0c159-4 320 2 479 0h90c-25 10-156 7-191 6l24-2c-53-4-110 1-163 3l-142-4c-18 0-85 3-97-3m-423 0h216c27 0 83-2 108 0l-2 2-123 4-98-3c-28 0-77 5-101-3"/>
  <path fill="#6f7e5f" d="m880 2445 2-1c2 45-9 223 6 250q-3-5-7-8-16 3-31 12c-40-18-98-39-140-54 45-16 94-36 139-54l31 11v-49c-12 6-19 8-31 12l-137-53c40-19 94-35 138-54l30 12zm2870 1411c17 3 35 13 51 19l107 41-139 51c-11 2-132-47-149-56l-1-2c7-5 114-46 131-53m-3411 0c46 15 92 36 137 54q-73 27-145 57c-15-2-120-45-143-54zm3409-132c21 0 119 43 146 53q-69 25-136 53c-22 2-119-43-146-53zM1875 1658c23 5 117 44 140 54q-71 26-140 54c-16-3-116-44-140-53zM675 2390c13-1 126 45 143 53l-137 53c-14-1-122-44-142-52 44-19 93-34 136-54m-340 801 1-1c14-2 123 45 141 54-42 14-93 36-134 52-11 1-126-45-144-53zm-2-401c12-3 128 46 146 53-42 18-87 32-130 50q-5 3-12 1c-44-13-92-35-135-51 39-18 91-37 131-53m3415-400c15-2 119 44 142 53l-136 53c-11 1-121-45-142-53q69-25 136-53M674 2658c16-2 120 42 143 52-41 19-92 36-135 54-13-3-42-15-55-20l-89-34q69-24 136-52m345 1197c24 4 113 44 141 55q-69 26-136 54-72-25-141-54c45-19 92-34 136-55M677 1992c15-2 121 43 141 52-39 18-94 38-135 53-8 1-123-46-138-53 34-16 95-37 132-52m513 1798c17 0 118 44 142 53q-67 28-135 53c-18 0-119-43-143-53q69-25 136-53m2388-1200c10 0 124 46 141 54-38 17-92 36-133 52-10 2-123-46-142-54 41-18 92-36 134-52m-170-200c12 1 125 47 144 54-33 10-107 39-138 53-14 1-121-46-140-53 39-18 93-37 134-54m1-532c13 1 121 44 143 52q-70 25-139 54c-12 2-121-45-140-53 42-15 93-36 136-53m2 398c12 3 30 11 43 16l97 37c-44 18-96 37-141 54-15-2-117-45-137-53 39-18 97-38 138-54m334 1336c14-5 127 43 147 52q-64 26-129 50-6 3-12 2c-26-4-105-40-136-53q65-23 130-51M510 2722c35 12 104 39 139 54-45 19-90 34-136 53-18-1-118-43-140-52 41-19 93-37 137-55m2381 136c13-3 123 44 144 51-33 16-96 38-132 52-12 4-46-12-58-17l-88-34c43-15 92-35 134-52m-505-1266c10 0 122 46 143 53-42 17-98 39-140 53-8 0-125-46-140-52zm852 1130c46 17 93 38 140 54l-140 54c-36-12-101-39-139-54zM338 3590c22 3 110 42 138 53l-135 54-143-53q69-28 140-54m3240-1266c10-3 122 44 142 51-26 14-103 41-135 54-13 2-118-44-141-53zm-2389-664c13-1 122 44 143 52l-135 52c-11 0-126-45-145-52zm2216 998c11-2 122 43 143 52l-135 53c-8 1-125-46-142-53 33-15 97-37 134-52M336 3724c16 1 119 44 142 53l-137 53c-19-1-117-44-142-53zm3413-1600c12 1 122 46 143 53l-139 52c-9 0-124-45-141-52 42-16 96-35 137-53m-344-530c10-2 125 45 147 51-43 15-93 36-136 52l-1 1c-12 4-123-45-143-53zm2 398c13-2 122 45 145 52-39 12-96 37-136 52-14 1-122-44-143-52 42-18 91-36 134-52m-170-200c10-3 120 44 140 52-30 14-102 39-136 51-15 4-41-10-56-16l-85-34zm169 1800c18-3 116 43 143 51-43 20-90 35-135 53-18 2-118-42-143-51q23-11 47-19zM508 3258c9-1 122 45 140 52-37 17-96 38-136 54-13 0-118-44-139-53 43-19 91-34 135-53m340-1466c13 0 122 45 143 52-42 19-93 37-136 54-14-1-122-45-143-53 44-15 93-35 136-53m2389 2130c40 9 102 38 141 55q-68 24-136 53c-11-1-119-46-138-54 44-20 90-35 133-54M337 2258c10-2 122 44 143 51-43 18-91 36-136 53-8 2-123-44-141-51zm683-666c38 12 101 38 139 54-46 16-95 39-140 53l-137-54c43-14 94-37 138-53m1193 2332c14-3 122 43 143 52-42 20-88 34-132 51l-6 2c-19-4-114-43-135-53q65-28 130-52m1538-1932c11 1 121 44 142 51l-139 54c-11 2-119-45-138-53zM680 2124q70 25 138 53c-24 11-112 45-138 53q-69-25-137-52c42-18 94-37 137-54m2385 1732c23 2 114 43 142 53-43 19-91 31-133 53-17 1-118-43-142-52zM335 2658c9-3 124 43 146 51l-135 51q-5 3-11 1c-45-15-89-35-134-51zm3413-134 144 53-137 52c-11 1-121-44-140-52 31-15 99-40 133-53M335 3326c13-1 124 44 143 51-43 18-91 34-134 54-13 0-124-46-144-53 42-15 95-35 135-52m3412-1468c12-2 122 45 141 53l-132 51c-11 2-126-45-143-52zM509 2590l140 53c-43 18-93 36-137 53-15 0-112-43-141-52zm684 1334c17 1 114 43 138 53l-137 53-49-18q-45-19-91-35c45-18 92-40 139-53m2211-1798c16-2 122 42 147 51l-132 51q-6 3-12 1c-43-15-91-35-134-52 42-14 90-34 131-51m-1697-534 46 18 89 35c-41 16-100 41-141 54l-135-54zm2041 666c9 0 125 46 142 53q-69 25-135 53c-9 0-125-47-141-54q68-25 134-52m-853 1532c17-1 119 44 144 53l-131 50q-5 3-12 2c-18-2-107-42-132-51q66-26 131-54m344 0q69 24 137 54-66 28-136 52c-46-14-93-35-138-53 43-21 92-36 137-53m338-132c12-2 123 44 142 51l-135 53c-24-1-113-41-142-52q69-24 135-52m1-1734c17 2 118 44 141 53l-132 53c-10 0-126-46-143-53 31-10 103-40 134-53m-685-264c16-3 117 42 143 51-43 17-93 38-136 52-6 1-127-45-141-50 35-17 96-38 134-53m344 1330c16 3 116 44 137 53-42 18-92 37-136 53-29-8-105-40-137-53zM851 3790c47 16 94 40 143 53q-70 23-138 53c-14 1-120-44-142-52q68-28 137-54m513-2198 138 53-138 54c-17-2-116-45-139-54 42-14 96-36 139-53m2045 932c45 14 93 39 140 53l-137 53c-13-1-124-45-138-53zM677 3723c23 0 108 44 139 53-45 18-90 39-135 54-45-20-93-33-137-54zm2730 136c13-2 120 43 141 51q-67 24-132 53c-19 0-120-44-145-53zm-339-2133c10 0 123 46 140 52l-135 54-48-18q-46-20-91-36c39-18 93-37 134-52m682-134 42 15 98 38q-69 25-137 54c-11-3-35-14-46-18l-94-35c41-18 94-37 137-54M1529 3924c18-2 119 43 144 52q-68 24-134 53c-10 3-123-45-141-53zm1197-2330c12-1 123 43 141 51-40 17-92 36-135 52-9 3-41-12-52-16l-88-36 59-22zm510 66c13 0 126 44 143 53q-66 23-133 50-4 2-10 1c-45-16-88-38-134-52zM1873 3922q26 7 50 19l90 35q-69 25-135 54c-47-16-95-37-141-54zM676 1860c13-2 119 42 140 51l-135 53c-9-1-117-45-145-53q71-24 140-51m170 2064c18-2 119 44 141 53-45 14-89 35-132 52-7 1-126-46-139-53zm2903-2198c10-1 122 45 140 52-38 17-96 38-136 53-9 0-123-47-139-54 38-12 98-36 135-51m-343 1998c20 0 117 43 142 53q-68 24-135 52c-15 1-115-44-139-52q65-29 132-53M846 1660c16-1 119 43 142 52-38 11-97 37-133 52-12 1-126-44-142-53 35-11 99-37 133-51m-169 66c14-1 121 44 144 51l-136 52c-12 2-121-43-140-51zm2390 1064c12 3 35 13 48 18l89 35c-41 16-96 36-134 54-45-15-96-37-141-54 41-14 98-36 138-53m-1-1198c18 4 46 17 64 24l75 29c-42 15-96 41-139 53-34-16-102-40-138-53zM508 3524c9 2 37 14 47 18l92 35c-40 16-95 39-135 52q-71-25-140-53 67-27 136-52m1-1334c19 5 118 45 136 54q-65 28-132 52c-18-4-122-45-140-54 38-11 97-37 136-52m2385 1734c16 0 119 44 141 53q-67 24-135 52c-5 1-123-46-140-52q65-28 134-53M333 3458c9-2 53 18 64 22l82 31-132 51-7 1-135-54zm1710-1864c13 0 119 43 141 51l-135 53c-10 2-121-45-141-53 37-11 97-36 135-51M506 3658c11-1 126 45 140 52l-132 52c-17 1-116-43-140-52zm172 200c18 0 115 43 141 52-44 20-91 35-137 53-21-3-112-43-139-53q68-24 135-52m2900-68c21 2 112 43 142 53-45 18-93 33-137 53-11 1-120-45-137-53 44-18 89-33 132-53m-343-132c15-1 122 44 144 52q-65 26-132 50-4 2-10 1c-13-2-28-10-40-14q-48-20-95-37 67-24 133-52m-509-867 139 53c-41 17-95 37-137 52-14-1-116-44-138-52zm-172-1131c11-2 121 44 141 51l-141 53c-40-14-92-36-131-51 39-18 90-37 131-53m512 1264c13 1 118 44 136 52-38 18-92 38-132 53-12 0-117-44-138-52 37-17 94-37 134-53M508 3790c13 0 116 44 138 53-43 20-90 35-135 53-46-19-93-33-139-53 45-18 92-33 136-53m852-2064c14 0 120 44 139 52-37 18-91 37-130 52-9 0-125-45-142-53q67-24 133-51m-342 0c16 0 116 43 141 52-41 18-91 35-133 52-15 0-120-44-143-52zm-342 532c16 3 119 44 139 52-25 13-104 43-134 54-12-1-119-47-140-55 33-9 102-38 135-51m2905 1266c20 4 112 43 140 53-42 13-95 36-138 53q-70-28-141-53c42-14 97-37 139-53M2043 1726c17 1 119 44 140 52q-66 28-135 52c-16-3-118-44-137-52z"/>
  <path fill="#6f7e5f" d="m678 2524 45 17 95 36c-44 15-93 35-137 53-6 1-123-47-139-53 39-14 99-37 136-53m2046-798c11-2 120 45 139 52l-134 52c-6 0-125-46-141-52 43-15 94-35 136-52m857 332c13 3 39 13 52 18q42 18 86 33c-42 20-92 36-136 55-13-1-118-46-136-53zM2553 3924c15-2 120 44 140 53l-130 50q-3 2-7 1c-11-1-26-9-37-14q-49-18-98-39 67-24 132-51M506 2324c13 0 123 45 141 52-41 18-91 36-133 52-9 3-123-45-138-52zm2 1601c19 0 117 42 139 51l-137 53c-21-5-43-16-64-24l-75-29c47-15 91-35 137-51m1024-2265c12-2 120 43 139 52q-68 25-134 52c-9 0-122-45-140-52 33-11 103-38 135-52m2045 0c14-2 119 43 139 51l-131 52c-8 1-126-45-142-51zM677 3592c20 2 117 43 141 53l-133 51c-16 1-119-44-141-53zm2386 134c17-2 117 41 143 50q-68 25-135 54c-16-1-116-44-141-53q66-27 133-51m-849-2066c12-1 120 45 138 53-43 14-91 35-135 51-45-15-94-34-137-52zM506 3392c11-1 120 44 140 53q-67 25-133 52c-11-2-122-47-140-54 42-17 90-33 133-51m855 466c12-2 122 45 140 52l-131 52c-14 2-121-45-142-53q67-24 133-51M336 1726c14 0 120 44 141 51-24 13-104 42-132 53-10 1-120-45-141-53zm3239 466c14-3 123 44 140 52l-130 51c-10 2-122-44-142-52 43-15 90-34 132-51m-1872-465c13 0 120 43 137 51-41 18-93 36-135 52-11-1-119-44-137-51 42-15 93-36 135-52m1022 2131c18 0 116 42 139 51l-134 53c-11 1-120-45-139-52zM507 1660c11-2 121 44 141 52-40 17-90 34-131 49l-6 2c-32-11-109-41-135-52 37-12 92-36 131-51m1878 67c15 1 117 43 140 51-41 18-92 36-134 53-10-2-124-47-141-54 40-11 92-36 135-50m1192 67c15-2 120 41 142 49-12 7-36 15-49 20l-81 32c-13 5-122-43-141-51 36-16 91-35 129-50M1016 3726c14 0 121 44 143 52l-132 51c-16 2-118-44-140-52q64-28 129-51m2390-2000c11-1 121 45 140 53l-131 52c-12-3-46-18-59-23l-84-31q68-24 134-51m-170 1132c10-1 120 45 138 52l-132 52c-9 0-122-46-139-53zM509 1792c10 1 27 10 37 13 32 11 72 31 103 39-42 13-95 38-138 53-44-15-91-36-137-52l45-18zm3069 666c15 2 117 44 137 52-35 14-101 37-132 52-14-1-121-45-140-52 41-14 96-35 135-52M844 3658c26 2 105 41 136 53l-129 51-33-12q-52-21-105-40 66-25 131-52m45-1740c-10 37-7 57-8 95l-1 33-1-25-27 10-139-54q70-25 139-52l28 12c3-9 4-11 9-19m-177 458c46-16 94-38 139-52l29 10 2 110-2 1v-28l-29 13zm169-316-1 39c-1 24 3 52 2 76l-2-1v-3q2-10-4-16c-7-1-20 5-28 8-43-15-91-35-135-52l137-53c7 3 21 10 28 8zm2333 239v-5c5-33-2-80-1-111l2 16 25-10 140 54c-47 16-94 37-141 55-7-3-15-8-22-7-2 5-2 3-2 8zm-6-375c6 8 3 7 11 9l20-8c45 14 95 36 141 53-39 12-101 37-141 53l-23-9v31l-2-1c-1-33 3-99-6-128"/>
  <path fill="#6f7e5f" d="m3214 2052 2 1c0 8-1 8 3 12 8 0 13-5 21-7 46 16 92 38 138 53-43 16-95 39-136 53l-27-13v48l-2-16zm0 247h1v35l25-10c45 17 94 35 137 53-45 15-94 35-139 53l-22-9a943 943 0 0 1-2-121"/>
  <path fill="#373737" d="M675 79c113-100 610-104 711 0 0 20 2 74 0 92-11 6-19 6-27 14v3c6 8 18 11 27 15v54c-9 1-16 0-23 5-9 14 13 19 23 22v868c0 22 2 79 0 98l-4 3c-21-2-40-1-65-3l-23-4h1l-7 1h1l1-2-2 1c5 2 18-1 25-2H884c-40 0-88-2-127 0 11 2 24 0 35 2l-48 4c-24 3-31 2-55 2-9 0-9 1-14-3-2-37-1-80-1-117V284c9-3 21-5 27-11 1-11-12-14-21-17-9-11-9-44-2-54 11-7 16-4 21-10v-13c-9-5-25 0-25-13-1-27 0-61 1-87"/>
  <path fill="#030303" d="M675 79c113-100 610-104 711 0 0 20 2 74 0 92-11 6-19 6-27 14v3c6 8 18 11 27 15v54c-9 1-16 0-23 5-9 14 13 19 23 22v868c0 22 2 79 0 98l-4 3c-21-2-40-1-65-3l-23-4h1l-7 1h1l1-2-2 1c5 2 18-1 25-2h47q3-57 2-114V287c-60-10-126-12-187-14q-152-5-305 1c-49 2-123 3-171 13v957h58c11 2 24 0 35 2l-48 4c-24 3-31 2-55 2-9 0-9 1-14-3-2-37-1-80-1-117V284c9-3 21-5 27-11 1-11-12-14-21-17-9-11-9-44-2-54 11-7 16-4 21-10v-13c-9-5-25 0-25-13-1-27 0-61 1-87"/>
  <path fill="#373737" d="M849 29c5-1 18-1 20-3l-4-2c78-15 163-16 242-12 17 1 84 10 90 9l2 3-6 1-1 3c53 0 128 12 168 48-1 30 2 60 1 91-92-13-231-15-325-15-100 0-240 1-338 15l3-88c26-28 112-53 148-50"/>
  <path fill="url(#j)" d="M849 29c5-1 18-1 20-3l-4-2c78-15 163-16 242-12 17 1 84 10 90 9l2 3-6 1-1 3c-10 1-44 2-52-2l19-4c-80 0-169-2-249 1q11-4 20 3v1c-10 4-69 4-81 2"/>
  <path fill="#373737" d="M989 187q103-1 205 4 84 1 166 13v45a4349 4349 0 0 0-662 0l2-44c28-7 69-9 98-11q96-5 191-7"/>
  <path fill="#373737" d="M942 161c50-1 381-2 398 15 4 5 4 6 4 11q-5 5-12 4-109-9-218-12-183-4-365 11c-12 1-28 5-34-8 8-13 38-13 52-14zm-9 84q198-5 394 9 9 1 14 9c1 7 2 4-3 9-7 3-40-2-52-3a3745 3745 0 0 0-366-5q-100 3-201 11v-20c75-7 141-7 214-10"/>
</svg>
