<?xml version="1.0" encoding="UTF-8"?>
<svg version="1.1" xmlns="http://www.w3.org/2000/svg" width="769" height="769">
<path d="M0 0 C3.06112938 0.68844677 5.79095509 0.76842986 8.91796875 0.65625 C9.24796875 1.31625 9.57796875 1.97625 9.91796875 2.65625 C11.95633753 3.56650253 14.02535993 4.40840794 16.10546875 5.21875 C31.75958108 11.65555992 44.79889566 22.18660117 56.41796875 34.34375 C66.27111943 44.26707982 77.95462103 49.08313769 90.60253906 54.51513672 C103.75019132 60.21666289 115.21388076 67.01765316 125.91796875 76.65625 C126.77003906 77.41421875 127.62210938 78.1721875 128.5 78.953125 C136.04094406 86.04230743 142.85242724 95.04293831 146.91796875 104.65625 C146.91796875 105.64625 146.91796875 106.63625 146.91796875 107.65625 C148.56796875 107.65625 150.21796875 107.65625 151.91796875 107.65625 C151.91796875 108.31625 151.91796875 108.97625 151.91796875 109.65625 C157.23569025 110.89825752 162.49998203 111.96459212 167.91796875 112.65625 C167.91796875 113.31625 167.91796875 113.97625 167.91796875 114.65625 C168.87316406 115.1409375 169.82835937 115.625625 170.8125 116.125 C178.25769136 119.96447011 185.10799649 123.95034724 191.74609375 129.08984375 C193.92203783 130.82341683 193.92203783 130.82341683 196.91796875 131.65625 C198.11886629 133.0783655 199.31911602 134.50334622 200.44140625 135.98828125 C201.96377908 137.80752974 201.96377908 137.80752974 204.31640625 139.546875 C215.8119275 148.86756791 223.70019252 163.34036892 230.85546875 176.09375 C240.57904005 193.35236159 251.40719346 206.80603338 266.9296875 219.18359375 C281.04342357 230.86201849 292.83931512 243.7322922 303.21875 258.80078125 C304.81542951 261.11828908 306.43296168 263.29055986 308.2109375 265.48046875 C309.91796875 267.65625 309.91796875 267.65625 310.91796875 270.65625 C311.65243258 272.18204281 312.40784816 273.69780642 313.17578125 275.20703125 C322.91819777 294.68671773 329.42275923 314.15638228 332.91796875 335.65625 C333.0351123 336.35459961 333.15225586 337.05294922 333.27294922 337.77246094 C340.99350605 385.51831164 328.62628018 438.34824256 300.921875 477.91796875 C300.26058594 478.82160156 299.59929688 479.72523438 298.91796875 480.65625 C298.18449219 481.67332031 297.45101562 482.69039062 296.6953125 483.73828125 C267.6549207 523.17896216 223.55814546 551.26264857 174.91796875 558.65625 C169.51658101 559.38863035 164.10504956 560.04389724 158.69589233 560.71585083 C135.89085193 563.56114681 115.67021077 568.74554979 94.25 577.19921875 C28.34014681 603.0393863 -44.29238144 602.0118276 -110.67504883 578.78979492 C-111.47837646 578.50982666 -112.2817041 578.2298584 -113.109375 577.94140625 C-114.15726196 577.56834351 -114.15726196 577.56834351 -115.22631836 577.18774414 C-117.24098392 576.51858043 -117.24098392 576.51858043 -120.08203125 576.65625 C-120.08203125 575.99625 -120.08203125 575.33625 -120.08203125 574.65625 C-120.97728516 574.41841797 -120.97728516 574.41841797 -121.890625 574.17578125 C-126.89833913 572.82898146 -131.86577299 571.41340466 -136.8137207 569.85961914 C-153.81464186 564.62350298 -170.84093597 562.4644966 -188.51953125 561.15625 C-210.50585238 559.51978016 -230.83522125 555.92529819 -251.90332031 549.23535156 C-254.18952611 548.52780966 -254.18952611 548.52780966 -257.08203125 548.65625 C-257.08203125 547.99625 -257.08203125 547.33625 -257.08203125 546.65625 C-257.69151611 546.49261963 -258.30100098 546.32898926 -258.92895508 546.16040039 C-265.22880146 544.38243704 -270.94169584 542.05919536 -276.76953125 539.09375 C-277.62949707 538.66046387 -278.48946289 538.22717773 -279.37548828 537.78076172 C-287.37607684 533.66248436 -294.73429389 528.82687999 -302.08203125 523.65625 C-305.97659576 520.9763162 -305.97659576 520.9763162 -310.08203125 518.65625 C-311.76039339 517.00136146 -313.42475403 515.33225351 -315.08203125 513.65625 C-317.14566687 511.71801364 -319.2408519 509.81468386 -321.33203125 507.90625 C-329.5561877 500.33728932 -337.25042347 492.69905975 -344.234375 483.94140625 C-346.03209637 481.63600362 -346.03209637 481.63600362 -348.08203125 479.65625 C-349.15099329 478.07014146 -350.18798233 476.46237887 -351.20703125 474.84375 C-351.820625 473.86921875 -352.43421875 472.8946875 -353.06640625 471.890625 C-362.67026654 456.47977941 -362.67026654 456.47977941 -364.08203125 453.65625 C-364.74203125 453.98625 -365.40203125 454.31625 -366.08203125 454.65625 C-366.20578125 454.016875 -366.32953125 453.3775 -366.45703125 452.71875 C-366.66328125 452.038125 -366.86953125 451.3575 -367.08203125 450.65625 C-367.74203125 450.32625 -368.40203125 449.99625 -369.08203125 449.65625 C-368.88963867 449.06996826 -368.69724609 448.48368652 -368.49902344 447.87963867 C-367.80954752 444.20337566 -369.78261165 441.22567008 -371.33203125 437.96875 C-371.98709934 436.53379264 -372.63946756 435.09759955 -373.2890625 433.66015625 C-373.60182129 432.97066895 -373.91458008 432.28118164 -374.23681641 431.57080078 C-376.41586919 426.63488745 -378.08203125 422.10144408 -378.08203125 416.65625 C-379.40203125 416.32625 -380.72203125 415.99625 -382.08203125 415.65625 C-381.75203125 414.66625 -381.42203125 413.67625 -381.08203125 412.65625 C-380.75203125 412.65625 -380.42203125 412.65625 -380.08203125 412.65625 C-380.25593384 411.70540527 -380.25593384 411.70540527 -380.43334961 410.73535156 C-384.78752092 386.77326536 -384.78752092 386.77326536 -385.08203125 377.65625 C-385.12199219 376.5528125 -385.16195313 375.449375 -385.203125 374.3125 C-385.67971239 348.0721589 -380.54998779 322.30891037 -369.08203125 298.65625 C-368.75976562 297.98416504 -368.4375 297.31208008 -368.10546875 296.61962891 C-360.27317609 280.52124281 -349.33556638 266.39063003 -337.14453125 253.34375 C-325.37436774 240.44568829 -317.58579713 225.85592062 -309.921875 210.2734375 C-306.05566285 202.41324251 -302.05515451 194.89588519 -297.08203125 187.65625 C-296.47875 186.76679688 -295.87546875 185.87734375 -295.25390625 184.9609375 C-276.34864444 157.98635663 -248.70133691 135.72383692 -217.08203125 125.65625 C-216.42203125 125.65625 -215.76203125 125.65625 -215.08203125 125.65625 C-214.77265625 124.46 -214.46328125 123.26375 -214.14453125 122.03125 C-210.289884 110.57538246 -201.88844781 99.81342224 -193.08203125 91.65625 C-192.42203125 91.65625 -191.76203125 91.65625 -191.08203125 91.65625 C-191.08203125 90.99625 -191.08203125 90.33625 -191.08203125 89.65625 C-189.26556862 88.03583055 -187.45640435 86.55918397 -185.51953125 85.09375 C-184.65183105 84.43209839 -184.65183105 84.43209839 -183.76660156 83.75708008 C-177.19302425 78.84620018 -170.19959428 74.71999376 -163.08203125 70.65625 C-162.14359375 70.11613281 -161.20515625 69.57601562 -160.23828125 69.01953125 C-157.18467906 67.28948715 -154.4194139 65.76871088 -151.08203125 64.65625 C-138.55056557 58.57443182 -138.55056557 58.57443182 -129.08203125 48.65625 C-128.42203125 48.65625 -127.76203125 48.65625 -127.08203125 48.65625 C-126.87449219 48.12386719 -126.66695313 47.59148437 -126.453125 47.04296875 C-124.52731924 43.6906402 -121.88003268 41.15827331 -119.14453125 38.46875 C-118.26945923 37.60491699 -118.26945923 37.60491699 -117.37670898 36.72363281 C-86.81131399 6.90251828 -42.77144903 -11.0377933 0 0 Z " fill="#86DFA0" transform="translate(409.08203125,99.34375)"/>
<path d="M0 0 C3.06112938 0.68844677 5.79095509 0.76842986 8.91796875 0.65625 C9.24796875 1.31625 9.57796875 1.97625 9.91796875 2.65625 C11.95633753 3.56650253 14.02535993 4.40840794 16.10546875 5.21875 C31.75958108 11.65555992 44.79889566 22.18660117 56.41796875 34.34375 C66.27111943 44.26707982 77.95462103 49.08313769 90.60253906 54.51513672 C103.75019132 60.21666289 115.21388076 67.01765316 125.91796875 76.65625 C126.77003906 77.41421875 127.62210938 78.1721875 128.5 78.953125 C136.04094406 86.04230743 142.85242724 95.04293831 146.91796875 104.65625 C146.91796875 105.64625 146.91796875 106.63625 146.91796875 107.65625 C148.56796875 107.65625 150.21796875 107.65625 151.91796875 107.65625 C151.91796875 108.31625 151.91796875 108.97625 151.91796875 109.65625 C157.23569025 110.89825752 162.49998203 111.96459212 167.91796875 112.65625 C167.91796875 113.31625 167.91796875 113.97625 167.91796875 114.65625 C168.87316406 115.1409375 169.82835937 115.625625 170.8125 116.125 C178.25769136 119.96447011 185.10799649 123.95034724 191.74609375 129.08984375 C193.92203783 130.82341683 193.92203783 130.82341683 196.91796875 131.65625 C198.11886629 133.0783655 199.31911602 134.50334622 200.44140625 135.98828125 C201.96377908 137.80752974 201.96377908 137.80752974 204.31640625 139.546875 C215.8119275 148.86756791 223.70019252 163.34036892 230.85546875 176.09375 C240.57904005 193.35236159 251.40719346 206.80603338 266.9296875 219.18359375 C281.04342357 230.86201849 292.83931512 243.7322922 303.21875 258.80078125 C304.81542951 261.11828908 306.43296168 263.29055986 308.2109375 265.48046875 C309.91796875 267.65625 309.91796875 267.65625 310.91796875 270.65625 C311.65243258 272.18204281 312.40784816 273.69780642 313.17578125 275.20703125 C322.91819777 294.68671773 329.42275923 314.15638228 332.91796875 335.65625 C333.0351123 336.35459961 333.15225586 337.05294922 333.27294922 337.77246094 C340.99350605 385.51831164 328.62628018 438.34824256 300.921875 477.91796875 C300.26058594 478.82160156 299.59929688 479.72523438 298.91796875 480.65625 C298.18449219 481.67332031 297.45101562 482.69039062 296.6953125 483.73828125 C267.6549207 523.17896216 223.55814546 551.26264857 174.91796875 558.65625 C169.51658101 559.38863035 164.10504956 560.04389724 158.69589233 560.71585083 C135.89085193 563.56114681 115.67021077 568.74554979 94.25 577.19921875 C28.34014681 603.0393863 -44.29238144 602.0118276 -110.67504883 578.78979492 C-111.47837646 578.50982666 -112.2817041 578.2298584 -113.109375 577.94140625 C-114.15726196 577.56834351 -114.15726196 577.56834351 -115.22631836 577.18774414 C-117.24098392 576.51858043 -117.24098392 576.51858043 -120.08203125 576.65625 C-120.08203125 575.99625 -120.08203125 575.33625 -120.08203125 574.65625 C-120.97728516 574.41841797 -120.97728516 574.41841797 -121.890625 574.17578125 C-126.89833913 572.82898146 -131.86577299 571.41340466 -136.8137207 569.85961914 C-153.81464186 564.62350298 -170.84093597 562.4644966 -188.51953125 561.15625 C-210.50585238 559.51978016 -230.83522125 555.92529819 -251.90332031 549.23535156 C-254.18952611 548.52780966 -254.18952611 548.52780966 -257.08203125 548.65625 C-257.08203125 547.99625 -257.08203125 547.33625 -257.08203125 546.65625 C-257.69151611 546.49261963 -258.30100098 546.32898926 -258.92895508 546.16040039 C-265.22880146 544.38243704 -270.94169584 542.05919536 -276.76953125 539.09375 C-277.62949707 538.66046387 -278.48946289 538.22717773 -279.37548828 537.78076172 C-287.37607684 533.66248436 -294.73429389 528.82687999 -302.08203125 523.65625 C-305.97659576 520.9763162 -305.97659576 520.9763162 -310.08203125 518.65625 C-311.76039339 517.00136146 -313.42475403 515.33225351 -315.08203125 513.65625 C-317.14566687 511.71801364 -319.2408519 509.81468386 -321.33203125 507.90625 C-329.5561877 500.33728932 -337.25042347 492.69905975 -344.234375 483.94140625 C-346.03209637 481.63600362 -346.03209637 481.63600362 -348.08203125 479.65625 C-349.15099329 478.07014146 -350.18798233 476.46237887 -351.20703125 474.84375 C-351.820625 473.86921875 -352.43421875 472.8946875 -353.06640625 471.890625 C-362.67026654 456.47977941 -362.67026654 456.47977941 -364.08203125 453.65625 C-364.74203125 453.98625 -365.40203125 454.31625 -366.08203125 454.65625 C-366.20578125 454.016875 -366.32953125 453.3775 -366.45703125 452.71875 C-366.66328125 452.038125 -366.86953125 451.3575 -367.08203125 450.65625 C-367.74203125 450.32625 -368.40203125 449.99625 -369.08203125 449.65625 C-368.88963867 449.06996826 -368.69724609 448.48368652 -368.49902344 447.87963867 C-367.80954752 444.20337566 -369.78261165 441.22567008 -371.33203125 437.96875 C-371.98709934 436.53379264 -372.63946756 435.09759955 -373.2890625 433.66015625 C-373.60182129 432.97066895 -373.91458008 432.28118164 -374.23681641 431.57080078 C-376.41586919 426.63488745 -378.08203125 422.10144408 -378.08203125 416.65625 C-379.40203125 416.32625 -380.72203125 415.99625 -382.08203125 415.65625 C-381.75203125 414.66625 -381.42203125 413.67625 -381.08203125 412.65625 C-380.75203125 412.65625 -380.42203125 412.65625 -380.08203125 412.65625 C-380.25593384 411.70540527 -380.25593384 411.70540527 -380.43334961 410.73535156 C-384.78752092 386.77326536 -384.78752092 386.77326536 -385.08203125 377.65625 C-385.12199219 376.5528125 -385.16195313 375.449375 -385.203125 374.3125 C-385.67971239 348.0721589 -380.54998779 322.30891037 -369.08203125 298.65625 C-368.75976562 297.98416504 -368.4375 297.31208008 -368.10546875 296.61962891 C-360.27317609 280.52124281 -349.33556638 266.39063003 -337.14453125 253.34375 C-325.37436774 240.44568829 -317.58579713 225.85592062 -309.921875 210.2734375 C-306.05566285 202.41324251 -302.05515451 194.89588519 -297.08203125 187.65625 C-296.47875 186.76679688 -295.87546875 185.87734375 -295.25390625 184.9609375 C-276.34864444 157.98635663 -248.70133691 135.72383692 -217.08203125 125.65625 C-216.42203125 125.65625 -215.76203125 125.65625 -215.08203125 125.65625 C-214.77265625 124.46 -214.46328125 123.26375 -214.14453125 122.03125 C-210.289884 110.57538246 -201.88844781 99.81342224 -193.08203125 91.65625 C-192.42203125 91.65625 -191.76203125 91.65625 -191.08203125 91.65625 C-191.08203125 90.99625 -191.08203125 90.33625 -191.08203125 89.65625 C-189.26556862 88.03583055 -187.45640435 86.55918397 -185.51953125 85.09375 C-184.65183105 84.43209839 -184.65183105 84.43209839 -183.76660156 83.75708008 C-177.19302425 78.84620018 -170.19959428 74.71999376 -163.08203125 70.65625 C-162.14359375 70.11613281 -161.20515625 69.57601562 -160.23828125 69.01953125 C-157.18467906 67.28948715 -154.4194139 65.76871088 -151.08203125 64.65625 C-138.55056557 58.57443182 -138.55056557 58.57443182 -129.08203125 48.65625 C-128.42203125 48.65625 -127.76203125 48.65625 -127.08203125 48.65625 C-126.87449219 48.12386719 -126.66695313 47.59148437 -126.453125 47.04296875 C-124.52731924 43.6906402 -121.88003268 41.15827331 -119.14453125 38.46875 C-118.26945923 37.60491699 -118.26945923 37.60491699 -117.37670898 36.72363281 C-86.81131399 6.90251828 -42.77144903 -11.0377933 0 0 Z M151.91796875 138.65625 C151.86640625 139.32527344 151.81484375 139.99429688 151.76171875 140.68359375 C149.90438566 156.4076068 141.61204769 171.81783294 129.29296875 181.84375 C116.58940294 190.53964326 103.70477535 195.09639072 88.67773438 198.14599609 C74.97825637 200.93120125 65.29187963 205.44744676 53.82617188 213.34375 C25.69660025 232.69182792 -5.51201366 242.66518005 -40.07421875 236.78125 C-58.00506685 233.08051861 -74.67332732 224.95665201 -89.64453125 214.53125 C-102.69175505 205.66397012 -116.51129132 202.30641249 -132.08203125 202.09375 C-134.4636622 202.02903266 -136.84517928 201.95998709 -139.2265625 201.88671875 C-140.38881348 201.8511084 -141.55106445 201.81549805 -142.74853516 201.77880859 C-165.76758112 200.93249535 -187.07275236 196.48035789 -204.08203125 179.65625 C-209.79622748 172.40483957 -213.18621547 164.34369734 -216.08203125 155.65625 C-236.09025593 158.19088115 -257.73564262 180.80396001 -269.4140625 195.83203125 C-275.63621921 204.19756784 -280.51108985 212.92958715 -284.96142578 222.32763672 C-294.529238 242.20950881 -305.1882471 260.02484943 -320.33203125 276.21875 C-341.47427109 299.57870731 -355.98729185 328.80928562 -357.08203125 360.65625 C-357.1092627 361.4090625 -357.13649414 362.161875 -357.16455078 362.9375 C-358.52924784 406.33314973 -342.45835562 445.68745928 -313.14453125 477.46875 C-306.89527672 484.0822801 -300.2693542 490.08161887 -293.08203125 495.65625 C-292.54143066 496.07712891 -292.00083008 496.49800781 -291.44384766 496.93164062 C-261.06160533 520.276391 -225.60355742 530.16409929 -187.92578125 533.4765625 C-158.46516417 536.08889859 -131.7506441 541.60564548 -104.00244141 551.94677734 C-78.56032013 561.41228867 -51.76508014 567.79430213 -24.51171875 567.82421875 C-23.43181671 567.82754715 -22.35191467 567.83087555 -21.23928833 567.83430481 C-18.96519391 567.83933985 -16.69109218 567.8417142 -14.41699219 567.84155273 C-10.98750229 567.84373065 -7.55833907 567.86189999 -4.12890625 567.88085938 C7.72771965 567.91212475 19.21113348 567.62472273 30.91796875 565.65625 C31.97677246 565.48456299 33.03557617 565.31287598 34.12646484 565.13598633 C53.91235575 561.74434562 72.37959617 555.74416576 91.14093018 548.76226807 C91.78922791 548.5210321 92.43752563 548.27979614 93.10546875 548.03125 C93.75134949 547.7908197 94.39723022 547.5503894 95.06268311 547.30267334 C115.00892264 539.8985821 134.71614445 535.72287785 155.79296875 533.21875 C189.86817782 529.11365802 221.53472898 518.23295269 247.91796875 495.65625 C249.13033203 494.62757813 249.13033203 494.62757813 250.3671875 493.578125 C274.68343533 472.35389612 291.12801639 445.01258301 300.16796875 414.15625 C300.40225586 413.36307373 300.63654297 412.56989746 300.87792969 411.75268555 C304.85763892 397.4853994 306.41663177 383.67055454 306.30908203 368.90039062 C306.29302153 366.28982993 306.30902368 363.68082639 306.328125 361.0703125 C306.38444315 316.45088328 288.37513035 279.6256486 257.54296875 248.09375 C253.15255858 243.73997747 248.54996168 239.81949823 243.734375 235.94921875 C227.4350089 222.67913845 216.26318556 207.29864217 206.20898438 188.89160156 C195.19166384 168.74873943 179.72495756 147.6755986 156.93505859 139.98730469 C155.27198129 139.50999022 153.59589807 139.0783974 151.91796875 138.65625 Z " fill="#348454" transform="translate(409.08203125,99.34375)"/>
<path d="M0 0 C3.9997951 2.64720739 7.73613984 5.54523676 11.42578125 8.60546875 C11.98007812 9.03730469 12.534375 9.46914062 13.10546875 9.9140625 C15.74707541 12.00134237 17.91774416 14.16497937 19.98828125 16.79296875 C30.68096137 29.53554092 46.50862109 36.47619521 61.36328125 43.04296875 C79.93224314 51.28780652 96.55960556 59.94493033 106.42578125 78.60546875 C106.85761719 79.34667969 107.28945313 80.08789062 107.734375 80.8515625 C112.15840955 89.68432353 111.69810521 101.22794492 109.80078125 110.73828125 C106.32778466 120.63011976 98.6789168 127.23244598 89.6796875 132.109375 C81.38402194 135.92358858 72.68499967 137.62540412 63.73828125 139.10546875 C48.66707149 141.60083551 36.91753253 147.94180337 24.73828125 156.98046875 C2.54706717 173.29509495 -21.38190612 180.1244417 -49.08056641 176.25537109 C-53.39672353 175.4327443 -57.46480396 174.13979333 -61.57421875 172.60546875 C-62.41726563 172.33992187 -63.2603125 172.074375 -64.12890625 171.80078125 C-73.73631431 168.4933129 -82.23097385 162.12254134 -90.66015625 156.57421875 C-106.73661848 146.07154429 -123.19783722 141.79133896 -142.27734375 141.39453125 C-142.96819565 141.38010986 -143.65904755 141.36568848 -144.37083435 141.35083008 C-147.23658183 141.29398215 -150.10215728 141.23934858 -152.96826172 141.20410156 C-168.79241926 140.99403035 -185.25708253 139.44350646 -197.57421875 128.35546875 C-203.6291728 121.57510456 -205.3348814 113.84507703 -205.01953125 104.91015625 C-203.72840339 95.32862847 -198.91115719 87.68949888 -192.57421875 80.60546875 C-192.01347656 79.95191406 -191.45273438 79.29835938 -190.875 78.625 C-180.95578807 67.84511893 -167.93097888 61.64967045 -154.86425781 55.57543945 C-139.98047635 48.60469535 -128.70640818 38.9705711 -117.29589844 27.20996094 C-100.10577054 9.5308211 -82.42346641 -1.87237784 -58.57421875 -8.39453125 C-57.972146 -8.57266357 -57.37007324 -8.7507959 -56.74975586 -8.93432617 C-37.88151682 -12.92564371 -16.54728207 -9.76766726 0 0 Z " fill="#F9ECC6" transform="translate(423.57421875,134.39453125)"/>
<path d="M0 0 C0.87078186 -0.00807175 1.74156372 -0.01614349 2.63873291 -0.02445984 C4.48472094 -0.03830382 6.3307346 -0.04902457 8.17675781 -0.05688477 C10.99073335 -0.07406676 13.80352452 -0.11794543 16.6171875 -0.16210938 C18.4114497 -0.17223915 20.20572189 -0.18075436 22 -0.1875 C23.25656403 -0.21376213 23.25656403 -0.21376213 24.53851318 -0.24055481 C25.72939545 -0.23616646 25.72939545 -0.23616646 26.94433594 -0.23168945 C27.63557556 -0.23755569 28.32681519 -0.24342194 29.03900146 -0.24946594 C33.08725959 0.63731465 36.11648143 2.60154171 38.51406097 6.01644421 C39.7581786 8.21064466 40.88680733 10.43562532 41.99169922 12.703125 C42.4160771 13.54149399 42.84045498 14.37986298 43.27769279 15.24363708 C44.17214932 17.01470509 45.05969962 18.78927605 45.94069672 20.56707764 C47.21320424 23.13259513 48.50506252 25.68718053 49.80523682 28.23876953 C52.43990131 33.41599865 55.04619961 38.60719359 57.6484375 43.80078125 C58.34628168 45.19222855 58.34628168 45.19222855 59.05822372 46.61178589 C61.50479557 51.49013485 63.94919194 56.36956591 66.39160156 61.25 C68.91031523 66.28187021 71.43647828 71.30996359 73.96423531 76.33729553 C75.91725887 80.22478793 77.86496442 84.11492633 79.81118393 88.00582886 C80.74139419 89.86322251 81.67360546 91.71961543 82.60785294 93.57498169 C83.90322831 96.14877146 85.19106447 98.72619672 86.47705078 101.3046875 C86.86342209 102.06821533 87.2497934 102.83174316 87.64787292 103.6184082 C90.265625 108.8958826 90.265625 108.8958826 90.265625 112.23828125 C90.925625 112.23828125 91.585625 112.23828125 92.265625 112.23828125 C92.35972656 111.55894531 92.45382812 110.87960937 92.55078125 110.1796875 C93.43098737 106.55785578 94.9963316 103.46076278 96.703125 100.17578125 C97.43395273 98.74367272 98.16440402 97.31137204 98.89453125 95.87890625 C99.28141113 95.12416016 99.66829102 94.36941406 100.06689453 93.59179688 C101.28246531 91.20521799 102.47828207 88.80973456 103.66796875 86.41015625 C108.16631044 77.3374118 112.74286495 68.31575397 117.51513672 59.38354492 C122.68177971 49.67466366 127.53955412 39.80333688 132.34985352 29.91400146 C133.70396017 27.13270913 135.06665791 24.35567002 136.43041992 21.57910156 C137.12174323 20.1657588 137.80881064 18.75032759 138.49194336 17.33300781 C139.5028487 15.23839482 140.5291076 13.15193678 141.55859375 11.06640625 C142.00721016 10.12272186 142.00721016 10.12272186 142.46488953 9.15997314 C144.48059137 5.12546377 146.29864586 2.44215855 150.265625 0.23828125 C153.59595065 -0.32650112 156.86663304 -0.32251125 160.23828125 -0.29296875 C161.19834579 -0.29679565 162.15841034 -0.30062256 163.14756775 -0.30456543 C165.17236381 -0.30728172 167.19719512 -0.29994041 169.22192383 -0.28320312 C172.32126966 -0.26176617 175.41830363 -0.28302664 178.51757812 -0.30859375 C180.48698428 -0.30595088 182.456389 -0.30082676 184.42578125 -0.29296875 C185.35189713 -0.30106567 186.278013 -0.3091626 187.23219299 -0.31750488 C193.62597465 -0.22424928 193.62597465 -0.22424928 196.81811523 2.08398438 C199.02574885 5.36955682 199.42772547 8.20592367 199.66940308 12.06622314 C199.73375549 13.06260803 199.79810791 14.05899292 199.8644104 15.08557129 C199.9309079 16.1791394 199.9974054 17.27270752 200.06591797 18.39941406 C200.13927368 19.55330627 200.21262939 20.70719849 200.28820801 21.89605713 C200.53189079 25.74427684 200.76983649 29.59282974 201.0078125 33.44140625 C201.17774784 36.14952637 201.34891242 38.85756842 201.52005005 41.56561279 C201.92694274 48.01523559 202.32975282 54.46510663 202.73107922 60.91507792 C203.26334593 69.46633778 203.80143872 78.01723029 204.33934069 86.56813717 C204.82018824 94.21297381 205.29979058 101.8578829 205.77532959 109.50305176 C206.5569865 122.05902059 207.35027036 134.61392378 208.19238281 147.16601562 C208.40328619 150.34140346 208.61386803 153.51681251 208.82443619 156.6922226 C209.01468542 159.52962652 209.21159632 162.36651008 209.40890503 165.20343018 C209.98728542 173.74355075 210.4131807 182.27703349 210.53076172 190.83691406 C210.55123629 191.63900677 210.57171085 192.44109947 210.59280586 193.26749802 C210.61563608 198.6863203 210.61563608 198.6863203 208.99685669 201.23910522 C205.76298497 203.10552617 201.96434121 202.66269542 198.328125 202.63671875 C197.45164307 202.63958893 196.57516113 202.64245911 195.67211914 202.64541626 C193.81949212 202.64745723 191.96684358 202.64192503 190.11425781 202.62939453 C187.27620321 202.61334109 184.43957273 202.6292418 181.6015625 202.6484375 C179.80208019 202.64645507 178.00259876 202.64261141 176.203125 202.63671875 C175.35306885 202.64279144 174.5030127 202.64886414 173.62719727 202.65512085 C167.83758871 202.58589855 167.83758871 202.58589855 165.58032227 201.21401978 C162.36239057 196.37808394 163.06290939 188.80313993 162.81665039 183.14282227 C162.78070267 182.37536179 162.74475494 181.60790131 162.7077179 180.81718445 C162.63050016 179.15973289 162.55471908 177.50221388 162.48024178 175.84463692 C162.36067525 173.18420218 162.23723382 170.52397022 162.11289978 167.86375427 C161.84781955 162.1762549 161.58784 156.48852772 161.328125 150.80078125 C160.98879043 143.38527095 160.646901 135.96988434 160.30078125 128.5546875 C160.25870167 127.65135303 160.21662209 126.74801857 160.17326736 125.81731033 C159.36788918 108.61367747 158.37462337 91.42489576 157.265625 74.23828125 C156.75459229 75.3473584 156.24355957 76.45643555 155.71704102 77.59912109 C151.77738327 86.13250063 147.61004921 94.50181968 143.18994141 102.79614258 C139.94824325 108.89537861 136.83530149 115.05086331 133.765625 121.23828125 C129.94259637 128.93866575 126.0209589 136.57520993 121.97802734 144.16235352 C119.77146587 148.31978994 117.62885622 152.49937542 115.55859375 156.7265625 C115.11201416 157.63647949 114.66543457 158.54639648 114.20532227 159.48388672 C113.3509229 161.23330313 112.50335604 162.98607892 111.66381836 164.74267578 C109.66050855 168.84280267 107.92637713 172.35336754 104.265625 175.23828125 C99.98379738 176.66555712 95.87617064 176.46275894 91.390625 176.48828125 C90.04291016 176.51921875 90.04291016 176.51921875 88.66796875 176.55078125 C79.96066847 176.60222763 79.96066847 176.60222763 76.265625 173.23828125 C72.04442218 167.65915008 69.13662538 161.1847541 66.078125 154.92578125 C62.62597403 147.9377767 59.1190614 140.99154262 55.453125 134.11328125 C49.36474453 122.65905926 43.62284724 111.03054882 37.84863281 99.41601562 C36.46045272 96.62937896 35.06524833 93.84651921 33.6640625 91.06640625 C33.29297363 90.3293042 32.92188477 89.59220215 32.53955078 88.83276367 C31.60026262 86.96874475 30.65957546 85.10543097 29.71875 83.2421875 C28.44300693 80.60496594 27.33679948 77.96252762 26.265625 75.23828125 C26.20742584 76.38102005 26.14922668 77.52375885 26.08926392 78.7011261 C25.5339045 89.59754763 24.97522565 100.49379487 24.4134922 111.38988972 C24.12496803 116.98844282 23.837518 122.5870463 23.55273438 128.18579102 C22.96202032 139.78697744 22.35853587 151.38723378 21.71617508 162.98568916 C21.43710492 168.03290955 21.17288889 173.08026472 20.93268013 178.12947941 C20.77827738 181.26445577 20.5946427 184.39768871 20.4140625 187.53125 C20.34900009 189.11417595 20.34900009 189.11417595 20.28262329 190.7290802 C20.00155006 195.11207907 19.6592536 197.6308765 17.23730469 201.36816406 C13.23079838 203.88951128 10.21777507 203.94459719 5.5703125 203.8671875 C4.32642258 203.87080544 4.32642258 203.87080544 3.05740356 203.87449646 C1.31084391 203.8735199 -0.43574743 203.86017179 -2.18212891 203.83520508 C-4.85816065 203.80079686 -7.5309066 203.81457793 -10.20703125 203.83398438 C-11.90626407 203.82708832 -13.60548838 203.8174181 -15.3046875 203.8046875 C-16.50473923 203.8121273 -16.50473923 203.8121273 -17.72903442 203.81971741 C-23.19177646 203.70350694 -23.19177646 203.70350694 -25.74438477 201.51489258 C-26.89640165 198.86567988 -27.0787858 197.1346053 -27.00390625 194.24609375 C-26.97635254 193.1777832 -26.94879883 192.10947266 -26.92041016 191.00878906 C-26.574068 183.98922443 -26.1223367 176.97975418 -25.6242981 169.96942139 C-25.2682126 164.94514248 -24.92765647 159.91980441 -24.5859375 154.89453125 C-24.51445999 153.84679535 -24.44298248 152.79905945 -24.36933899 151.71957397 C-23.62096821 140.68754093 -22.9523803 129.65116268 -22.296875 118.61328125 C-22.17547481 116.58048389 -22.05405527 114.54768768 -21.93261719 112.51489258 C-21.31846319 102.20743154 -20.71364571 91.89944857 -20.11745167 81.59093475 C-19.7689561 75.56755972 -19.41741328 69.54436622 -19.06424999 63.52126312 C-18.84802346 59.82988758 -18.63348988 56.13843096 -18.42312622 52.44671631 C-17.90553136 43.37411417 -17.35767792 34.30437252 -16.734375 25.23828125 C-16.66357727 24.20757507 -16.59277954 23.1768689 -16.51983643 22.1149292 C-16.32420652 19.43338882 -16.10139901 16.75618379 -15.86328125 14.078125 C-15.80889389 13.33454239 -15.75450653 12.59095978 -15.69847107 11.82484436 C-15.23550458 7.17070715 -14.02477286 4.55761428 -10.734375 1.23828125 C-7.40277673 -0.42751788 -3.66503685 0.03200896 0 0 Z " fill="#2A2D3E" transform="translate(291.734375,368.76171875)"/>
<path d="M0 0 C5.37927397 0.21517096 9.86735666 1.58236146 14.9375 3.375 C28.82370348 8.12440858 42.40757033 9.48402683 57.01123047 9.33618164 C59.49870278 9.31251234 61.98509877 9.31566409 64.47265625 9.32226562 C77.19446585 9.29968225 89.61670306 8.26469763 102.125 5.875 C111.17506425 4.31248891 120.8582192 3.1999949 129 8 C130.54016873 9.54016873 130.28067687 10.98459055 130.375 13.125 C130.27453073 18.41638134 128.76346566 21.33802105 125 25 C109.8517532 37.68162962 92.02259077 39.12474703 73 38 C48.61901977 35.77444478 19.39457835 29.11105082 1.875 10.9375 C-0.40463058 8.18695981 -0.96964648 7.20868042 -1.5 3.5625 C-1 1 -1 1 0 0 Z " fill="#F0D397" transform="translate(325,213)"/>
<path d="M0 0 C3.87068847 2.03720446 6.34730224 4.97669052 8 9 C8.73651586 13.71027588 8.42246633 17.17015542 6.25 21.4375 C3.55382446 24.50814437 1.65255719 25.7689107 -2.40234375 26.3359375 C-6.64465711 26.40130442 -9.26810834 26.4269368 -13 24.25 C-16.85426785 19.91394866 -17.5453167 16.25090905 -17.4609375 10.546875 C-16.6951155 6.31538397 -14.21271539 3.72165267 -11 1 C-7.51096194 -0.74451903 -3.80658999 -0.57578672 0 0 Z " fill="#61B279" transform="translate(200,527)"/>
<path d="M0 0 C3.58559961 2.21239125 5.39116876 4.15707123 7 8 C7.73651586 12.71027588 7.42246633 16.17015542 5.25 20.4375 C2.6641825 23.38245882 0.73125545 24.66718934 -3.11328125 25.40625 C-7.71564602 25.60244317 -10.3941182 25.18372756 -14 22.1875 C-17.31521019 19.07949045 -17.9359821 16.78101841 -18.3125 12.1875 C-18.24803379 7.80379803 -16.88627274 5.35431697 -14 2 C-9.66488031 -1.83967744 -5.33249386 -1.4323214 0 0 Z " fill="#62B37A" transform="translate(182,329)"/>
<path d="M0 0 C3.38341921 1.65732526 5.41158814 4.07900752 7.4375 7.25 C8.54340049 12.6566246 8.06967634 17.34372696 5.0625 22 C1.24804054 25.69886978 -2.1751239 25.33208329 -7.296875 25.28515625 C-10.94474364 24.90033774 -12.62320018 23.76015463 -15 21 C-17.66967285 16.51876343 -17.8091983 12.08753388 -17 7 C-13.13364971 -0.17215165 -7.54806248 -1.03033368 0 0 Z " fill="#61B37A" transform="translate(575,319)"/>
<path d="M0 0 C3.94098221 3.31400776 5.5210347 5.54619628 6.1875 10.6875 C5.62927584 15.31278593 4.43446938 17.50950171 1.75 21.3125 C-2.37676882 23.90252227 -6.51262925 24.14031046 -11.25 23.3125 C-14.32061968 21.59881391 -16.65450726 19.50348548 -18.25 16.3125 C-18.75260166 11.19585036 -19.09102072 6.78428626 -16.5 2.25 C-11.29045309 -2.23599873 -6.38110003 -3.31326348 0 0 Z " fill="#60B279" transform="translate(122.25,442.6875)"/>
<path d="M0 0 C4.31455798 2.28417775 7.13452098 4.43994016 9 9 C9.54333853 13.89004676 9.52109104 15.99503871 7.25 20.375 C4.65079698 23.40740352 2.77084213 24.72756275 -1.18359375 25.3359375 C-5.18287366 25.40524911 -7.42740621 25.34111971 -10.9375 23.25 C-14.65113515 19.19876165 -15.55539912 15.73445153 -15.45703125 10.32421875 C-14.66087987 6.27541474 -12.13756796 3.56501906 -9 1 C-5.64870516 -0.11709828 -3.51689744 -0.34479387 0 0 Z " fill="#61B37A" transform="translate(615,423)"/>
<path d="M0 0 C3.47060168 2.06759249 5.77725393 4.10944433 7 8 C7.43002518 11.31733709 7.71759662 13.80489486 5.94921875 16.75 C3.50010175 19.75540611 1.70011928 21.78936575 -2.20703125 22.2734375 C-6.59027273 22.44429849 -9.26578726 22.42584339 -13.125 20.1875 C-15.87564051 15.51141114 -15.88283795 11.2970277 -15 6 C-11.21867609 -0.30220651 -6.9359714 -0.87599639 0 0 Z " fill="#61B279" transform="translate(662,485)"/>
<path d="M0 0 C4.06219391 0.04520725 6.5258907 0.61209239 9.75 3.25 C12.22591878 6.96387818 12.28907468 9.94582561 11.75 14.25 C9.9911217 18.4157644 7.88010412 20.42507027 3.75 22.25 C-0.30687038 22.85421474 -1.91175484 22.44514144 -5.5 20.375 C-10.16215904 16.77242256 -10.16215904 16.77242256 -10.62109375 14.04296875 C-10.80203755 6.94358564 -10.80203755 6.94358564 -7.8125 3.1875 C-6.966875 2.548125 -6.12125 1.90875 -5.25 1.25 C-3.68966377 -0.31033623 -2.16052864 0.04292441 0 0 Z " fill="#61B379" transform="translate(210.25,396.75)"/>
<path d="M0 0 C4.64086764 0.62714428 8.50175105 2.51955285 12.625 4.625 C13.69004761 5.16785645 13.69004761 5.16785645 14.77661133 5.72167969 C26.39809921 11.72512855 35.74567087 18.827124 45 28 C46.14855469 29.12921875 46.14855469 29.12921875 47.3203125 30.28125 C52.70295217 35.93829875 61 45.87100462 61 54 C62.65 54 64.3 54 66 54 C66 54.66 66 55.32 66 56 C71.3177215 57.24200752 76.58201328 58.30834212 82 59 C82 59.66 82 60.32 82 61 C82.95519531 61.4846875 83.91039062 61.969375 84.89453125 62.46875 C92.33972261 66.30822011 99.19002774 70.29409724 105.828125 75.43359375 C108.00406908 77.16716683 108.00406908 77.16716683 111 78 C112.20089754 79.4221155 113.40114727 80.84709622 114.5234375 82.33203125 C116.04400165 84.15002811 116.04400165 84.15002811 118.390625 85.87890625 C125.58108002 91.723842 132.63181934 100.81347961 137 109 C136.67 109.99 136.34 110.98 136 112 C135.42894531 111.15179688 134.85789062 110.30359375 134.26953125 109.4296875 C119.90281783 88.47395642 100.14645448 68.74602842 75.0546875 61.48828125 C61.04917714 57.38587764 61.04917714 57.38587764 56.68359375 50.10546875 C55.11155632 47.14298237 53.62661036 44.14175622 52.14794922 41.13183594 C41.50344219 21.36411255 19.41809889 10.30512905 0 1 C0 0.67 0 0.34 0 0 Z " fill="#2A6E3D" transform="translate(495,153)"/>
<path d="M0 0 C0.99 0.33 1.98 0.66 3 1 C2.14817139 1.63381592 1.29634277 2.26763184 0.41870117 2.9206543 C-9.41579513 10.36754829 -17.91396155 18.69397268 -26.40356445 27.6159668 C-33.41436562 34.95600723 -39.68415524 40.6687673 -49 45 C-51.01639442 46.06147761 -53.02801346 47.13206818 -55.03515625 48.2109375 C-57.04370737 49.26669766 -59.05282367 50.32138328 -61.0625 51.375 C-62.09310547 51.92027344 -63.12371094 52.46554688 -64.18554688 53.02734375 C-65.16716797 53.54167969 -66.14878906 54.05601562 -67.16015625 54.5859375 C-68.48478882 55.28275635 -68.48478882 55.28275635 -69.83618164 55.99365234 C-72 57 -72 57 -74 57 C-74 56.34 -74 55.68 -74 55 C-71.06482399 53.34999614 -68.12647526 51.70572568 -65.1875 50.0625 C-64.35412109 49.59392578 -63.52074219 49.12535156 -62.66210938 48.64257812 C-61.85966797 48.19462891 -61.05722656 47.74667969 -60.23046875 47.28515625 C-59.49207764 46.87144775 -58.75368652 46.45773926 -57.99291992 46.03149414 C-56 45 -56 45 -53 44 C-40.46853432 37.91818182 -40.46853432 37.91818182 -31 28 C-30.34 28 -29.68 28 -29 28 C-28.79246094 27.46761719 -28.58492188 26.93523437 -28.37109375 26.38671875 C-26.44516042 23.03416814 -23.7973521 20.50288616 -21.0625 17.8125 C-20.48709473 17.24168701 -19.91168945 16.67087402 -19.31884766 16.08276367 C-13.31413624 10.20270326 -7.00401831 4.66934554 0 0 Z " fill="#2C713F" transform="translate(311,120)"/>
<path d="M0 0 C-3.09796571 2.58040581 -6.01796545 3.86537916 -9.8125 5.1875 C-38.71931855 16.05180764 -62.18575526 37.19201473 -80 62 C-80.33 61.34 -80.66 60.68 -81 60 C-66.51408563 37.65312868 -29.9447305 -1.20407133 0 0 Z " fill="#296E3D" transform="translate(194,226)"/>
<path d="M0 0 C2.51038691 3.20557098 4.59620653 6.57135491 6.6875 10.0625 C12.79275667 20.08080548 19.81715602 29.178241 27.46484375 38.0546875 C28.91027535 39.73397167 30.34658695 41.42146208 31.75390625 43.1328125 C34.83477439 46.87686479 38.17806675 50.05070815 41.875 53.1875 C44.0671094 55.05724037 46.18620322 56.99345723 48.3125 58.9375 C53.25709183 63.35478396 58.58012279 67.19089004 64 71 C62.515 71.495 62.515 71.495 61 72 C57.9375 70.125 57.9375 70.125 55 68 C54.01 67.505 54.01 67.505 53 67 C51.32163786 65.34511146 49.65727722 63.67600351 48 62 C45.93636438 60.06176364 43.84117935 58.15843386 41.75 56.25 C33.52584355 48.68103932 25.83160778 41.04280975 18.84765625 32.28515625 C17.04993488 29.97975362 17.04993488 29.97975362 15 28 C12.57074507 24.39551093 10.30077486 20.68748219 8 17 C7.63970703 16.42588379 7.27941406 15.85176758 6.90820312 15.26025391 C5.80998561 13.50918565 4.71671578 11.75512781 3.625 10 C2.95726562 8.9275 2.28953125 7.855 1.6015625 6.75 C0 4 0 4 -1 1 C-0.67 0.67 -0.34 0.34 0 0 Z " fill="#2A6E3D" transform="translate(46,551)"/>
<path d="M0 0 C0.99 0.33 1.98 0.66 3 1 C-1.24525207 6.84098512 -5.47707473 12.56079537 -10.375 17.875 C-25.05403167 33.85599796 -38.4219194 52.03508675 -47 72 C-47.81170434 69.67070483 -48.13125455 68.40165381 -47.35424805 66.02392578 C-46.81344604 64.99501221 -46.81344604 64.99501221 -46.26171875 63.9453125 C-45.85880615 63.17251953 -45.45589355 62.39972656 -45.04077148 61.60351562 C-44.59419189 60.78560547 -44.1476123 59.96769531 -43.6875 59.125 C-43.2325415 58.27873047 -42.77758301 57.43246094 -42.30883789 56.56054688 C-34.66363162 42.63097842 -24.83718453 30.21476679 -14 18.625 C-8.66146548 12.8429822 -4.31513653 6.55608908 0 0 Z " fill="#2A6C3D" transform="translate(86,334)"/>
<path d="M0 0 C3.71083016 3.27817731 5.84041771 7.058247 8.125 11.375 C17.2655548 28.02597117 28.43692961 41.00091131 43.30859375 52.8203125 C47.69454294 56.37235843 51.84260781 60.18529957 56 64 C55.505 65.485 55.505 65.485 55 67 C54.62230469 66.59910156 54.24460937 66.19820313 53.85546875 65.78515625 C50.41901324 62.23603007 46.86179966 59.02001273 43 55.9375 C25.4459072 41.68685598 13.20151746 26.53957457 2.01953125 6.921875 C1.62870361 6.23706055 1.23787598 5.55224609 0.83520508 4.84667969 C0 3 0 3 0 0 Z " fill="#296E3D" transform="translate(633,266)"/>
<path d="M0 0 C4.50381452 0.55457418 7.77675526 2.4255106 11.5 4.875 C12.10948486 5.27283691 12.71896973 5.67067383 13.34692383 6.08056641 C22.24443504 12.02295998 30.11959153 18.96530706 37.5 26.6875 C43.50590892 32.84355665 50.7590663 38.2530221 59 41 C59 41.66 59 42.32 59 43 C47.59442081 41.36185577 38.04533246 31.28995464 30.421875 23.296875 C21.55105788 14.01104889 11.69111554 7.37791315 0 2 C0 1.34 0 0.68 0 0 Z " fill="#2D7141" transform="translate(428,107)"/>
<path d="M0 0 C0.99 0.33 1.98 0.66 3 1 C2.24976563 1.54527344 1.49953125 2.09054688 0.7265625 2.65234375 C-15.70729149 14.76040998 -27.99631872 27.49243291 -37 46 C-37.703125 44.40234375 -37.703125 44.40234375 -38 42 C-34.6961229 34.17878476 -29.6850075 27.22264989 -24.25 20.75 C-23.56115723 19.92737671 -23.56115723 19.92737671 -22.85839844 19.08813477 C-20.47947822 16.35756688 -18.41174037 14.30730239 -15 13 C-15 12.34 -15 11.68 -15 11 C-12.90902882 9.23003707 -10.81730861 7.57248121 -8.625 5.9375 C-8.02171875 5.47794922 -7.4184375 5.01839844 -6.796875 4.54492188 C-2.33005276 1.16502638 -2.33005276 1.16502638 0 0 Z " fill="#2A703C" transform="translate(233,178)"/>
<path d="M0 0 C0 0.66 0 1.32 0 2 C-2.22849705 3.91497057 -4.45856575 5.68691279 -6.8125 7.4375 C-7.52083984 7.96666016 -8.22917969 8.49582031 -8.95898438 9.04101562 C-17.21243663 15.07155719 -26.01266423 20.15071811 -35 25 C-35.73734375 25.40734375 -36.4746875 25.8146875 -37.234375 26.234375 C-39.11552436 27.23673926 -41.0549511 28.12808153 -43 29 C-43.99 28.67 -44.98 28.34 -46 28 C-45.50298584 27.74943848 -45.00597168 27.49887695 -44.49389648 27.24072266 C-29.95649426 19.86752613 -16.32567034 11.96782109 -3.85546875 1.3984375 C-2 0 -2 0 0 0 Z " fill="#2A6C3D" transform="translate(674,615)"/>
<path d="M0 0 C0.66 0.33 1.32 0.66 2 1 C1.41734375 1.93714844 0.8346875 2.87429688 0.234375 3.83984375 C-5.89187456 13.88486782 -11.12680118 24.20211279 -16.06347656 34.88256836 C-16.5478418 35.9216333 -17.03220703 36.96069824 -17.53125 38.03125 C-17.95986328 38.96517578 -18.38847656 39.89910156 -18.83007812 40.86132812 C-20 43 -20 43 -22 44 C-21.07184262 38.08545796 -18.39647616 33.09423018 -15.80981445 27.74633789 C-14.95420055 25.97213038 -14.11462374 24.1902175 -13.27539062 22.40820312 C-9.44079253 14.43241683 -5.09810063 7.22692332 0 0 Z " fill="#286A3B" transform="translate(111,289)"/>
<path d="M0 0 C3.98319922 1.54902192 6.33044697 4.29643944 9 7.5 C9.46768799 8.05518311 9.93537598 8.61036621 10.41723633 9.18237305 C16.57003856 16.67128206 21.7756059 24.85038549 27 33 C26.34 33.66 25.68 34.32 25 35 C24.42894531 34.01902344 23.85789062 33.03804688 23.26953125 32.02734375 C18.26507721 23.63209966 12.87942204 16.10794721 6.29223633 8.87475586 C5.76267334 8.29218018 5.23311035 7.70960449 4.6875 7.109375 C4.21699219 6.60374023 3.74648438 6.09810547 3.26171875 5.57714844 C1.85863434 3.82329293 0.93772624 2.03504203 0 0 Z " fill="#266A3C" transform="translate(691,334)"/>
<path d="M0 0 C3.13544495 1.56772247 3.73666651 4.25277876 5.1875 7.375 C5.73792969 8.53773438 6.28835938 9.70046875 6.85546875 10.8984375 C8 14 8 14 7 17 C5.02 13.535 5.02 13.535 3 10 C2.34 15.28 1.68 20.56 1 26 C0.67 26 0.34 26 0 26 C0 17.42 0 8.84 0 0 Z " fill="#98E3B4" transform="translate(317,443)"/>
<path d="M0 0 C4.02093421 4.61662817 9 10.67055513 9 17 C10.65 17 12.3 17 14 17 C14 17.66 14 18.32 14 19 C14.99 19.33 15.98 19.66 17 20 C14.25 20.25 14.25 20.25 11 20 C7.58660576 17.1555048 5.47978361 13.81159592 3.25 10 C2.63640625 8.96875 2.0228125 7.9375 1.390625 6.875 C0 4 0 4 0 0 Z " fill="#307545" transform="translate(547,190)"/>
<path d="M0 0 C0.33 0.66 0.66 1.32 1 2 C-2.24581532 3.82007082 -5.49732901 5.62971385 -8.75 7.4375 C-9.67039062 7.95376953 -10.59078125 8.47003906 -11.5390625 9.00195312 C-12.42851563 9.49501953 -13.31796875 9.98808594 -14.234375 10.49609375 C-15.05131836 10.95169678 -15.86826172 11.4072998 -16.70996094 11.87670898 C-18.84761986 12.92525575 -20.65052847 13.63866359 -23 14 C-23.66 13.67 -24.32 13.34 -25 13 C-23.94941406 12.48050781 -22.89882813 11.96101562 -21.81640625 11.42578125 C-14.45384158 7.77254678 -7.119972 4.1137616 0 0 Z " fill="#1F693D" transform="translate(638,608)"/>
<path d="M0 0 C0.67482422 0.51046875 0.67482422 0.51046875 1.36328125 1.03125 C7.192212 5.4233902 13.08913804 9.7189713 19 14 C18.01 14.33 17.02 14.66 16 15 C12.9375 13.125 12.9375 13.125 10 11 C9.34 10.67 8.68 10.34 8 10 C6.31183067 8.35511706 4.64646685 6.68662458 3 5 C2.401875 4.443125 1.80375 3.88625 1.1875 3.3125 C0 2 0 2 0 0 Z " fill="#256E37" transform="translate(91,608)"/>
<path d="M0 0 C0.66 0.33 1.32 0.66 2 1 C0.28840909 2.71159091 -1.42341166 4.42293889 -3.13671875 6.1328125 C-4.60071994 7.59988287 -6.05266675 9.07898342 -7.5 10.5625 C-10.54274135 13.52917282 -13.74506545 16.27035748 -17 19 C-15.60652624 15.84795019 -13.97514921 13.73828227 -11.5234375 11.328125 C-10.51796875 10.33232422 -10.51796875 10.33232422 -9.4921875 9.31640625 C-8.79351562 8.63449219 -8.09484375 7.95257813 -7.375 7.25 C-6.66859375 6.55261719 -5.9621875 5.85523438 -5.234375 5.13671875 C-3.49401297 3.41987512 -1.74915019 1.70788168 0 0 Z " fill="#9DF2B5" transform="translate(160,274)"/>
<path d="M0 0 C0.33 0 0.66 0 1 0 C1 8.25 1 16.5 1 25 C0.01 24.34 -0.98 23.68 -2 23 C-2.328125 20.65234375 -2.328125 20.65234375 -2.25 17.9375 C-2.23453125 17.03902344 -2.2190625 16.14054687 -2.203125 15.21484375 C-2 13 -2 13 -1 12 C-0.76572222 9.98405418 -0.58663876 7.961526 -0.4375 5.9375 C-0.35371094 4.83277344 -0.26992188 3.72804688 -0.18359375 2.58984375 C-0.12300781 1.73519531 -0.06242187 0.88054687 0 0 Z " fill="#80D999" transform="translate(54,458)"/>
<path d="M0 0 C0.99 0.33 1.98 0.66 3 1 C0.7331445 2.81767674 -1.53815973 4.62923143 -3.8125 6.4375 C-4.77639648 7.2119043 -4.77639648 7.2119043 -5.75976562 8.00195312 C-6.38173828 8.49501953 -7.00371094 8.98808594 -7.64453125 9.49609375 C-8.21534424 9.95169678 -8.78615723 10.4072998 -9.37426758 10.87670898 C-11 12 -11 12 -14 13 C-14 12.34 -14 11.68 -14 11 C-12.28358022 9.43802886 -10.50061361 7.94860958 -8.6875 6.5 C-7.70136719 5.7059375 -6.71523438 4.911875 -5.69921875 4.09375 C-3 2 -3 2 0 0 Z " fill="#28703C" transform="translate(311,120)"/>
<path d="M0 0 C-3 2 -3 2 -7 2 C-7 2.66 -7 3.32 -7 4 C-11.79300133 5.39151652 -16.15135782 4.68662689 -21 4 C-21 3.67 -21 3.34 -21 3 C-18.43850372 2.49432271 -15.87600535 1.99529868 -13.3125 1.5 C-12.59126953 1.35691406 -11.87003906 1.21382813 -11.12695312 1.06640625 C-7.36158641 0.34428113 -3.85526187 -0.1824976 0 0 Z " fill="#1C6635" transform="translate(418,308)"/>
<path d="M0 0 C3.80700968 1.49410358 5.49761624 3.6186877 7.8125 6.9375 C8.43769531 7.81277344 9.06289063 8.68804687 9.70703125 9.58984375 C10.13371094 10.38519531 10.56039062 11.18054688 11 12 C10.67 12.99 10.34 13.98 10 15 C8.33048421 12.6895094 6.66428386 10.37675417 5 8.0625 C4.52304687 7.40314453 4.04609375 6.74378906 3.5546875 6.06445312 C0 1.11328125 0 1.11328125 0 0 Z " fill="#236C38" transform="translate(621,250)"/>
<path d="M0 0 C3.66786393 1.50349377 5.68910393 3.63728792 8.25 6.625 C8.95640625 7.44226563 9.6628125 8.25953125 10.390625 9.1015625 C10.92171875 9.72804688 11.4528125 10.35453125 12 11 C11.01 11.33 10.02 11.66 9 12 C7.49405319 10.38050958 5.99539332 8.75424026 4.5 7.125 C3.6646875 6.22007812 2.829375 5.31515625 1.96875 4.3828125 C0 2 0 2 0 0 Z " fill="#2C7240" transform="translate(691,334)"/>
<path d="M0 0 C0 3.92709135 -1.27900462 4.8189713 -3.875 7.6875 C-4.59429688 8.49574219 -5.31359375 9.30398438 -6.0546875 10.13671875 C-8 12 -8 12 -10 12 C-10 11.34 -10 10.68 -10 10 C-9.34 10 -8.68 10 -8 10 C-8 9.34 -8 8.68 -8 8 C-7.34 8 -6.68 8 -6 8 C-5.7525 7.4225 -5.505 6.845 -5.25 6.25 C-3.83316683 3.6997003 -2.12372463 1.98214299 0 0 Z " fill="#2A6D3D" transform="translate(695,593)"/>
<path d="M0 0 C0.33 0 0.66 0 1 0 C2.10962199 4.43848796 2.2982655 8.45145106 2 13 C1.01 13.66 0.02 14.32 -1 15 C-1.02703381 13.06257659 -1.04641125 11.12504521 -1.0625 9.1875 C-1.07410156 8.10855469 -1.08570313 7.02960938 -1.09765625 5.91796875 C-1 3 -1 3 0 0 Z " fill="#7FD298" transform="translate(267,498)"/>
<path d="M0 0 C0.33 0 0.66 0 1 0 C2.20568053 4.67201205 2.09382426 9.21496292 2 14 C1.01 14 0.02 14 -1 14 C-1.18451025 4.58997722 -1.18451025 4.58997722 0 0 Z " fill="#7ED197" transform="translate(503,552)"/>
<path d="M0 0 C0.33 0 0.66 0 1 0 C1 4.62 1 9.24 1 14 C0.01 13.34 -0.98 12.68 -2 12 C-2.36792655 7.43771074 -2.61838609 3.92757913 0 0 Z " fill="#7DD395" transform="translate(503,537)"/>
<path d="M0 0 C1.97944936 2.96917403 2.29350581 3.65702279 2.3125 7 C2.32925781 7.680625 2.34601563 8.36125 2.36328125 9.0625 C1.90165342 11.52451507 0.88101041 12.41181179 -1 14 C-1.02694851 12.04174127 -1.04637218 10.08337774 -1.0625 8.125 C-1.07410156 7.03445313 -1.08570313 5.94390625 -1.09765625 4.8203125 C-1 2 -1 2 0 0 Z " fill="#2F3942" transform="translate(314,474)"/>
<path d="M0 0 C0.99 0.33 1.98 0.66 3 1 C3.25 8.625 3.25 8.625 1 12 C0 11 0 11 -0.09765625 8.49609375 C-0.08605469 7.48675781 -0.07445312 6.47742188 -0.0625 5.4375 C-0.05347656 4.42558594 -0.04445313 3.41367187 -0.03515625 2.37109375 C-0.02355469 1.58863281 -0.01195312 0.80617188 0 0 Z " fill="#303C43" transform="translate(498,529)"/>
<path d="M0 0 C0.33 0 0.66 0 1 0 C0.88512252 1.58409994 0.75765492 3.16728963 0.625 4.75 C0.52058594 6.07257813 0.52058594 6.07257813 0.4140625 7.421875 C0 10 0 10 -2 14 C-2 10.37 -2 6.74 -2 3 C-1.34 3 -0.68 3 0 3 C0 2.01 0 1.02 0 0 Z " fill="#1E6A3E" transform="translate(55,433)"/>
<path d="M0 0 C-1 3 -1 3 -3.25 4.25 C-6.28236729 5.07700926 -8.01120724 4.85394079 -11 4 C-10.01 3.67 -9.02 3.34 -8 3 C-6.4840625 2.2265625 -6.4840625 2.2265625 -4.9375 1.4375 C-2 0 -2 0 0 0 Z " fill="#347B43" transform="translate(266,161)"/>
<path d="M0 0 C2.13586678 3.20380017 2.23132175 4.01939967 2.125 7.6875 C2.10695313 8.49574219 2.08890625 9.30398438 2.0703125 10.13671875 C2.04710937 10.75160156 2.02390625 11.36648438 2 12 C0.48046875 10.79296875 0.48046875 10.79296875 -1 9 C-1.07421875 6.73828125 -1.07421875 6.73828125 -0.6875 4.3125 C-0.56761719 3.50425781 -0.44773437 2.69601562 -0.32421875 1.86328125 C-0.21722656 1.24839844 -0.11023438 0.63351562 0 0 Z " fill="#7FD397" transform="translate(499,493)"/>
<path d="M0 0 C2.4375 0.125 2.4375 0.125 5 1 C6.3125 3.5625 6.3125 3.5625 7 6 C4 6 4 6 1.3125 3.5 C0.549375 2.675 -0.21375 1.85 -1 1 C-0.67 0.67 -0.34 0.34 0 0 Z " fill="#307F45" transform="translate(601,229)"/>
<path d="M0 0 C-1.29299694 2.88437779 -2.65941363 4.87219421 -5 7 C-5.99 6.67 -6.98 6.34 -8 6 C-7.0479279 4.99403703 -6.08812654 3.99538437 -5.125 3 C-4.59132812 2.443125 -4.05765625 1.88625 -3.5078125 1.3125 C-2 0 -2 0 0 0 Z " fill="#2F7643" transform="translate(218,191)"/>
<path d="M0 0 C0.99 0.66 1.98 1.32 3 2 C3 2.99 3 3.98 3 5 C2.34 5 1.68 5 1 5 C0.67 5.66 0.34 6.32 0 7 C-0.12375 6.360625 -0.2475 5.72125 -0.375 5.0625 C-0.684375 4.0415625 -0.684375 4.0415625 -1 3 C-1.66 2.67 -2.32 2.34 -3 2 C-2.01 1.34 -1.02 0.68 0 0 Z " fill="#388E43" transform="translate(43,547)"/>
<path d="M0 0 C2.31 0 4.62 0 7 0 C7 0.99 7 1.98 7 3 C4.69 3 2.38 3 0 3 C0 2.01 0 1.02 0 0 Z " fill="#82D899" transform="translate(283,302)"/>
<path d="M0 0 C2.475 0.495 2.475 0.495 5 1 C4.01 1.33 3.02 1.66 2 2 C1.34 1.34 0.68 0.68 0 0 Z " fill="#41A05F" transform="translate(281,673)"/>
<path d="M0 0 C0.99 0 1.98 0 3 0 C3 0.66 3 1.32 3 2 C2.01 1.67 1.02 1.34 0 1 C0 0.67 0 0.34 0 0 Z " fill="#44BB44" transform="translate(459,690)"/>
<path d="M0 0 C1 4 1 4 1 4 Z " fill="#609F60" transform="translate(26,503)"/>
<path d="M0 0 C1 4 1 4 1 4 Z " fill="#609F60" transform="translate(24,444)"/>
<path d="M0 0 C4 1 4 1 4 1 Z " fill="#20DF20" transform="translate(391,95)"/>
<path d="M0 0 C3 1 3 1 3 1 Z " fill="#1CE21C" transform="translate(455,691)"/>
<path d="M0 0 C3 1 3 1 3 1 Z " fill="#718E71" transform="translate(304,681)"/>
<path d="M0 0 C3 1 3 1 3 1 Z " fill="#718E71" transform="translate(248,664)"/>
<path d="M0 0 C3 1 3 1 3 1 Z " fill="#1CB847" transform="translate(180,656)"/>
<path d="M0 0 C3 1 3 1 3 1 Z " fill="#2DC03E" transform="translate(96,617)"/>
<path d="M0 0 C0.66 0 1.32 0 2 0 C1.67 0.66 1.34 1.32 1 2 C0.67 1.34 0.34 0.68 0 0 Z " fill="#00FF00" transform="translate(722,373)"/>
<path d="M0 0 C0.66 0.66 1.32 1.32 2 2 C1.34 2 0.68 2 0 2 C0 1.34 0 0.68 0 0 Z " fill="#47B847" transform="translate(88,326)"/>
<path d="M0 0 C2 1 2 1 2 1 Z " fill="#40BF40" transform="translate(367,695)"/>
<path d="M0 0 C2 1 2 1 2 1 Z " fill="#40BF40" transform="translate(335,690)"/>
<path d="M0 0 C2 1 2 1 2 1 Z " fill="#20BF20" transform="translate(488,682)"/>
<path d="M0 0 C2 1 2 1 2 1 Z " fill="#598C73" transform="translate(307,682)"/>
<path d="M0 0 C2 1 2 1 2 1 Z " fill="#00FF00" transform="translate(543,664)"/>
<path d="M0 0 C2 1 2 1 2 1 Z " fill="#40BF40" transform="translate(241,663)"/>
<path d="M0 0 C2 1 2 1 2 1 Z " fill="#40BF40" transform="translate(582,659)"/>
<path d="M0 0 C2 1 2 1 2 1 Z " fill="#6A956A" transform="translate(197,659)"/>
<path d="M0 0 C2 1 2 1 2 1 Z " fill="#6A956A" transform="translate(587,658)"/>
<path d="" fill="#00FF00" transform="translate(0,0)"/>
<path d="M0 0 C2 1 2 1 2 1 Z " fill="#2A956A" transform="translate(185,657)"/>
<path d="M0 0 C2 1 2 1 2 1 Z " fill="#00FF00" transform="translate(618,650)"/>
<path d="M0 0 C2 1 2 1 2 1 Z " fill="#40BF40" transform="translate(620,649)"/>
<path d="M0 0 C2 1 2 1 2 1 Z " fill="#40BF40" transform="translate(622,648)"/>
<path d="M0 0 C2 1 2 1 2 1 Z " fill="#00FF00" transform="translate(140,643)"/>
<path d="M0 0 C2 1 2 1 2 1 Z " fill="#00FF00" transform="translate(131,639)"/>
<path d="M0 0 C2 1 2 1 2 1 Z " fill="#40BF40" transform="translate(104,622)"/>
<path d="M0 0 C2 1 2 1 2 1 Z " fill="#40BF40" transform="translate(44,555)"/>
<path d="" fill="#2AD42A" transform="translate(0,0)"/>
<path d="" fill="#00FF00" transform="translate(0,0)"/>
<path d="" fill="#40BF40" transform="translate(0,0)"/>
<path d="" fill="#808080" transform="translate(0,0)"/>
<path d="M0 0 C2 1 2 1 2 1 Z " fill="#00BF40" transform="translate(26,508)"/>
<path d="" fill="#808080" transform="translate(0,0)"/>
<path d="" fill="#00FF00" transform="translate(0,0)"/>
<path d="" fill="#00FF00" transform="translate(0,0)"/>
<path d="" fill="#00FF00" transform="translate(0,0)"/>
<path d="" fill="#40BF40" transform="translate(0,0)"/>
<path d="" fill="#2AD42A" transform="translate(0,0)"/>
<path d="" fill="#2AD42A" transform="translate(0,0)"/>
<path d="M0 0 C2 1 2 1 2 1 Z " fill="#40BF40" transform="translate(72,348)"/>
<path d="" fill="#20BF20" transform="translate(0,0)"/>
<path d="M0 0 C2 1 2 1 2 1 Z " fill="#40BF40" transform="translate(139,253)"/>
<path d="M0 0 C2 1 2 1 2 1 Z " fill="#00FF00" transform="translate(145,246)"/>
<path d="M0 0 C2 1 2 1 2 1 Z " fill="#2AD42A" transform="translate(602,228)"/>
<path d="M0 0 C2 1 2 1 2 1 Z " fill="#00FF00" transform="translate(180,228)"/>
<path d="" fill="#44A15D" transform="translate(0,0)"/>
<path d="M0 0 C2 1 2 1 2 1 Z " fill="#40BF40" transform="translate(590,220)"/>
<path d="" fill="#6A956A" transform="translate(0,0)"/>
<path d="M0 0 C2 1 2 1 2 1 Z " fill="#6A956A" transform="translate(558,206)"/>
<path d="M0 0 C2 1 2 1 2 1 Z " fill="#2AD42A" transform="translate(235,174)"/>
<path d="M0 0 C2 1 2 1 2 1 Z " fill="#6A956A" transform="translate(239,172)"/>
<path d="M0 0 C2 1 2 1 2 1 Z " fill="#6A956A" transform="translate(313,116)"/>
<path d="M0 0 C2 1 2 1 2 1 Z " fill="#40BF40" transform="translate(443,113)"/>
<path d="M0 0 C2 1 2 1 2 1 Z " fill="#2AD42A" transform="translate(436,109)"/>
<path d="M0 0 C2 1 2 1 2 1 Z " fill="#40BF40" transform="translate(337,103)"/>
<path d="" fill="#00FF00" transform="translate(0,0)"/>
<path d="" fill="#000000" transform="translate(0,0)"/>
<path d="" fill="#808080" transform="translate(0,0)"/>
<path d="" fill="#00FF00" transform="translate(0,0)"/>
<path d="" fill="#00FF00" transform="translate(0,0)"/>
<path d="" fill="#55AA55" transform="translate(0,0)"/>
<path d="" fill="#808080" transform="translate(0,0)"/>
<path d="" fill="#00FF00" transform="translate(0,0)"/>
<path d="" fill="#808080" transform="translate(0,0)"/>
<path d="" fill="#00FF00" transform="translate(0,0)"/>
<path d="" fill="#55AA55" transform="translate(0,0)"/>
<path d="" fill="#808080" transform="translate(0,0)"/>
<path d="" fill="#00FF00" transform="translate(0,0)"/>
<path d="" fill="#55AA55" transform="translate(0,0)"/>
<path d="" fill="#808080" transform="translate(0,0)"/>
<path d="" fill="#00FF00" transform="translate(0,0)"/>
<path d="" fill="#00FF00" transform="translate(0,0)"/>
<path d="" fill="#00FF00" transform="translate(0,0)"/>
<path d="" fill="#808080" transform="translate(0,0)"/>
<path d="" fill="#00FF00" transform="translate(0,0)"/>
<path d="" fill="#00FF00" transform="translate(0,0)"/>
<path d="" fill="#00FF00" transform="translate(0,0)"/>
<path d="" fill="#00FF00" transform="translate(0,0)"/>
<path d="" fill="#00FF00" transform="translate(0,0)"/>
<path d="" fill="#00FF00" transform="translate(0,0)"/>
<path d="" fill="#00FF00" transform="translate(0,0)"/>
<path d="" fill="#55AA55" transform="translate(0,0)"/>
<path d="" fill="#00FF00" transform="translate(0,0)"/>
<path d="" fill="#00FF00" transform="translate(0,0)"/>
<path d="" fill="#00FF00" transform="translate(0,0)"/>
<path d="" fill="#00FF00" transform="translate(0,0)"/>
<path d="" fill="#55AA55" transform="translate(0,0)"/>
<path d="" fill="#00FF00" transform="translate(0,0)"/>
<path d="" fill="#00FF00" transform="translate(0,0)"/>
<path d="" fill="#808080" transform="translate(0,0)"/>
<path d="" fill="#00FF00" transform="translate(0,0)"/>
<path d="" fill="#00FF00" transform="translate(0,0)"/>
<path d="" fill="#00FF00" transform="translate(0,0)"/>
<path d="" fill="#808080" transform="translate(0,0)"/>
<path d="" fill="#00FF00" transform="translate(0,0)"/>
<path d="" fill="#55AA55" transform="translate(0,0)"/>
<path d="" fill="#808080" transform="translate(0,0)"/>
<path d="" fill="#808080" transform="translate(0,0)"/>
<path d="" fill="#808080" transform="translate(0,0)"/>
<path d="" fill="#00FF00" transform="translate(0,0)"/>
<path d="" fill="#008080" transform="translate(0,0)"/>
<path d="" fill="#55AA55" transform="translate(0,0)"/>
<path d="" fill="#808080" transform="translate(0,0)"/>
<path d="" fill="#00FF00" transform="translate(0,0)"/>
<path d="" fill="#00FF00" transform="translate(0,0)"/>
<path d="" fill="#808080" transform="translate(0,0)"/>
<path d="" fill="#00FF00" transform="translate(0,0)"/>
<path d="" fill="#008080" transform="translate(0,0)"/>
<path d="" fill="#00FF00" transform="translate(0,0)"/>
<path d="" fill="#008080" transform="translate(0,0)"/>
<path d="" fill="#00FF00" transform="translate(0,0)"/>
<path d="" fill="#00FF00" transform="translate(0,0)"/>
<path d="" fill="#808080" transform="translate(0,0)"/>
<path d="" fill="#808080" transform="translate(0,0)"/>
<path d="" fill="#00FF00" transform="translate(0,0)"/>
<path d="" fill="#00FF00" transform="translate(0,0)"/>
<path d="" fill="#00FF00" transform="translate(0,0)"/>
<path d="" fill="#00FF00" transform="translate(0,0)"/>
<path d="" fill="#55AA55" transform="translate(0,0)"/>
<path d="" fill="#00FF00" transform="translate(0,0)"/>
<path d="" fill="#00FF00" transform="translate(0,0)"/>
<path d="" fill="#55AA55" transform="translate(0,0)"/>
<path d="" fill="#00FF00" transform="translate(0,0)"/>
<path d="" fill="#808080" transform="translate(0,0)"/>
<path d="" fill="#00FF00" transform="translate(0,0)"/>
<path d="" fill="#00FF00" transform="translate(0,0)"/>
<path d="" fill="#00FF00" transform="translate(0,0)"/>
<path d="" fill="#00FF00" transform="translate(0,0)"/>
<path d="" fill="#55AA55" transform="translate(0,0)"/>
<path d="" fill="#55AA55" transform="translate(0,0)"/>
<path d="" fill="#00FF00" transform="translate(0,0)"/>
<path d="" fill="#55AA55" transform="translate(0,0)"/>
<path d="" fill="#00FF00" transform="translate(0,0)"/>
<path d="" fill="#00FF00" transform="translate(0,0)"/>
<path d="" fill="#00FF00" transform="translate(0,0)"/>
<path d="" fill="#808080" transform="translate(0,0)"/>
<path d="" fill="#00FF00" transform="translate(0,0)"/>
<path d="" fill="#808080" transform="translate(0,0)"/>
<path d="" fill="#55AA55" transform="translate(0,0)"/>
<path d="" fill="#808080" transform="translate(0,0)"/>
<path d="" fill="#00FF00" transform="translate(0,0)"/>
<path d="" fill="#00FF00" transform="translate(0,0)"/>
<path d="" fill="#00FF00" transform="translate(0,0)"/>
<path d="" fill="#00FF00" transform="translate(0,0)"/>
<path d="" fill="#00FF00" transform="translate(0,0)"/>
<path d="" fill="#00FF00" transform="translate(0,0)"/>
<path d="" fill="#00FF00" transform="translate(0,0)"/>
<path d="" fill="#339966" transform="translate(0,0)"/>
<path d="" fill="#00FF00" transform="translate(0,0)"/>
<path d="" fill="#00FF00" transform="translate(0,0)"/>
<path d="" fill="#808080" transform="translate(0,0)"/>
<path d="" fill="#00FF00" transform="translate(0,0)"/>
<path d="" fill="#00FF00" transform="translate(0,0)"/>
<path d="" fill="#808080" transform="translate(0,0)"/>
<path d="" fill="#808080" transform="translate(0,0)"/>
<path d="" fill="#808080" transform="translate(0,0)"/>
<path d="" fill="#00FF00" transform="translate(0,0)"/>
<path d="" fill="#00FF00" transform="translate(0,0)"/>
<path d="" fill="#808080" transform="translate(0,0)"/>
<path d="" fill="#408040" transform="translate(0,0)"/>
<path d="" fill="#00FF00" transform="translate(0,0)"/>
<path d="" fill="#55AA55" transform="translate(0,0)"/>
<path d="" fill="#00FF00" transform="translate(0,0)"/>
<path d="" fill="#00FF00" transform="translate(0,0)"/>
<path d="" fill="#00FF00" transform="translate(0,0)"/>
<path d="" fill="#00FF00" transform="translate(0,0)"/>
<path d="" fill="#00FF00" transform="translate(0,0)"/>
<path d="" fill="#808080" transform="translate(0,0)"/>
<path d="" fill="#00FF00" transform="translate(0,0)"/>
<path d="" fill="#808080" transform="translate(0,0)"/>
<path d="" fill="#808080" transform="translate(0,0)"/>
<path d="" fill="#808080" transform="translate(0,0)"/>
<path d="" fill="#808080" transform="translate(0,0)"/>
<path d="" fill="#00FF00" transform="translate(0,0)"/>
<path d="" fill="#408080" transform="translate(0,0)"/>
<path d="" fill="#00FF00" transform="translate(0,0)"/>
<path d="" fill="#00FF00" transform="translate(0,0)"/>
<path d="" fill="#55AA55" transform="translate(0,0)"/>
<path d="" fill="#00FF00" transform="translate(0,0)"/>
<path d="" fill="#00FF00" transform="translate(0,0)"/>
<path d="" fill="#00FF00" transform="translate(0,0)"/>
<path d="" fill="#808080" transform="translate(0,0)"/>
<path d="" fill="#008080" transform="translate(0,0)"/>
<path d="" fill="#00FF00" transform="translate(0,0)"/>
<path d="" fill="#00FF00" transform="translate(0,0)"/>
<path d="" fill="#00FF00" transform="translate(0,0)"/>
<path d="" fill="#00FF00" transform="translate(0,0)"/>
<path d="" fill="#808080" transform="translate(0,0)"/>
<path d="" fill="#00FF00" transform="translate(0,0)"/>
<path d="" fill="#808080" transform="translate(0,0)"/>
<path d="" fill="#55AA55" transform="translate(0,0)"/>
<path d="" fill="#808080" transform="translate(0,0)"/>
<path d="" fill="#00FF00" transform="translate(0,0)"/>
<path d="" fill="#808080" transform="translate(0,0)"/>
<path d="" fill="#00FF00" transform="translate(0,0)"/>
<path d="" fill="#808080" transform="translate(0,0)"/>
<path d="" fill="#00FF00" transform="translate(0,0)"/>
<path d="" fill="#00FF00" transform="translate(0,0)"/>
<path d="" fill="#00FF00" transform="translate(0,0)"/>
<path d="" fill="#00FF00" transform="translate(0,0)"/>
<path d="" fill="#408040" transform="translate(0,0)"/>
<path d="" fill="#55AA55" transform="translate(0,0)"/>
<path d="" fill="#00FF00" transform="translate(0,0)"/>
<path d="" fill="#339966" transform="translate(0,0)"/>
<path d="" fill="#55AA55" transform="translate(0,0)"/>
<path d="" fill="#55AA55" transform="translate(0,0)"/>
<path d="" fill="#00FF00" transform="translate(0,0)"/>
<path d="" fill="#00FF00" transform="translate(0,0)"/>
<path d="" fill="#808080" transform="translate(0,0)"/>
<path d="" fill="#00FF00" transform="translate(0,0)"/>
<path d="" fill="#808080" transform="translate(0,0)"/>
<path d="" fill="#55AA55" transform="translate(0,0)"/>
<path d="" fill="#00FF00" transform="translate(0,0)"/>
<path d="" fill="#00FF00" transform="translate(0,0)"/>
<path d="" fill="#808080" transform="translate(0,0)"/>
<path d="" fill="#808080" transform="translate(0,0)"/>
<path d="" fill="#00FF00" transform="translate(0,0)"/>
<path d="" fill="#00FF00" transform="translate(0,0)"/>
<path d="" fill="#00FF00" transform="translate(0,0)"/>
<path d="" fill="#55AA55" transform="translate(0,0)"/>
<path d="" fill="#00FF00" transform="translate(0,0)"/>
<path d="" fill="#808080" transform="translate(0,0)"/>
<path d="" fill="#00FF00" transform="translate(0,0)"/>
<path d="" fill="#55AA55" transform="translate(0,0)"/>
<path d="" fill="#00FF00" transform="translate(0,0)"/>
<path d="" fill="#000000" transform="translate(0,0)"/>
<path d="" fill="#00FF00" transform="translate(0,0)"/>
<path d="" fill="#00FF00" transform="translate(0,0)"/>
<path d="" fill="#408040" transform="translate(0,0)"/>
<path d="" fill="#00FF00" transform="translate(0,0)"/>
<path d="" fill="#808080" transform="translate(0,0)"/>
<path d="" fill="#339966" transform="translate(0,0)"/>
<path d="" fill="#000000" transform="translate(0,0)"/>
<path d="" fill="#00FF00" transform="translate(0,0)"/>
<path d="" fill="#00FF00" transform="translate(0,0)"/>
<path d="" fill="#00FF00" transform="translate(0,0)"/>
<path d="" fill="#55AA55" transform="translate(0,0)"/>
<path d="" fill="#808080" transform="translate(0,0)"/>
<path d="" fill="#00FF00" transform="translate(0,0)"/>
<path d="" fill="#408040" transform="translate(0,0)"/>
<path d="" fill="#00FF00" transform="translate(0,0)"/>
<path d="" fill="#00FF00" transform="translate(0,0)"/>
<path d="" fill="#00FF00" transform="translate(0,0)"/>
<path d="" fill="#00FF00" transform="translate(0,0)"/>
<path d="" fill="#00FF00" transform="translate(0,0)"/>
<path d="" fill="#00FF00" transform="translate(0,0)"/>
<path d="" fill="#00FF00" transform="translate(0,0)"/>
<path d="" fill="#008080" transform="translate(0,0)"/>
<path d="" fill="#808080" transform="translate(0,0)"/>
<path d="" fill="#55AA55" transform="translate(0,0)"/>
<path d="" fill="#55AA55" transform="translate(0,0)"/>
<path d="" fill="#00FF00" transform="translate(0,0)"/>
<path d="" fill="#808080" transform="translate(0,0)"/>
<path d="" fill="#00FF00" transform="translate(0,0)"/>
<path d="" fill="#00FF00" transform="translate(0,0)"/>
<path d="" fill="#808080" transform="translate(0,0)"/>
<path d="" fill="#55AA55" transform="translate(0,0)"/>
<path d="" fill="#00FF00" transform="translate(0,0)"/>
<path d="" fill="#339966" transform="translate(0,0)"/>
<path d="" fill="#00FF00" transform="translate(0,0)"/>
<path d="" fill="#55AA55" transform="translate(0,0)"/>
<path d="" fill="#00FF00" transform="translate(0,0)"/>
<path d="" fill="#808080" transform="translate(0,0)"/>
<path d="" fill="#55AA55" transform="translate(0,0)"/>
<path d="" fill="#00FF00" transform="translate(0,0)"/>
<path d="" fill="#000000" transform="translate(0,0)"/>
<path d="" fill="#808080" transform="translate(0,0)"/>
<path d="" fill="#00FF00" transform="translate(0,0)"/>
<path d="" fill="#00FF00" transform="translate(0,0)"/>
<path d="" fill="#00FF00" transform="translate(0,0)"/>
<path d="" fill="#00FF00" transform="translate(0,0)"/>
<path d="" fill="#808080" transform="translate(0,0)"/>
<path d="" fill="#00FF00" transform="translate(0,0)"/>
<path d="" fill="#00FF00" transform="translate(0,0)"/>
<path d="" fill="#00FF00" transform="translate(0,0)"/>
<path d="" fill="#808080" transform="translate(0,0)"/>
<path d="" fill="#808080" transform="translate(0,0)"/>
<path d="" fill="#00FF00" transform="translate(0,0)"/>
<path d="" fill="#808080" transform="translate(0,0)"/>
<path d="" fill="#00FF00" transform="translate(0,0)"/>
<path d="" fill="#00FF00" transform="translate(0,0)"/>
<path d="" fill="#408040" transform="translate(0,0)"/>
<path d="" fill="#408040" transform="translate(0,0)"/>
<path d="" fill="#808080" transform="translate(0,0)"/>
<path d="" fill="#00FF00" transform="translate(0,0)"/>
<path d="" fill="#00FF00" transform="translate(0,0)"/>
<path d="" fill="#00FF00" transform="translate(0,0)"/>
<path d="" fill="#00FF00" transform="translate(0,0)"/>
<path d="" fill="#808080" transform="translate(0,0)"/>
<path d="" fill="#00FF00" transform="translate(0,0)"/>
<path d="" fill="#00FF00" transform="translate(0,0)"/>
<path d="" fill="#00FF00" transform="translate(0,0)"/>
<path d="" fill="#00FF00" transform="translate(0,0)"/>
<path d="" fill="#00FF00" transform="translate(0,0)"/>
<path d="" fill="#00FF00" transform="translate(0,0)"/>
<path d="" fill="#808080" transform="translate(0,0)"/>
<path d="" fill="#00FF00" transform="translate(0,0)"/>
<path d="" fill="#00FF00" transform="translate(0,0)"/>
<path d="" fill="#000000" transform="translate(0,0)"/>
<path d="" fill="#000000" transform="translate(0,0)"/>
</svg>
