<svg xmlns="http://www.w3.org/2000/svg" style="display:block" viewBox="159 156 2082 1636">
  <path d="m0 0 3-.3h38.5L47-.5h46.7l5.9-.1H133l5.3-.1h22.3l3.3.6 3.3 2.3L170 5l2 4 .2 3.7v45.7l-.1 3.2v30.2L172 95h10v-7.8l-.1-5.2V70.7l-.1-6V49.3l-.1-3.1V28.4l-.2-5.6V13l.5-4 1.8-3.3L186 3l4-3 3-.4h22.2l5.4-.1h57.1l6-.1h33.9l5.4-.1h24l3.7.1 3.3.6 4.4 3 2.6 3 1 2 .1 3.5v80.2L362 95h10v-7.8l-.1-5.2V70.7l-.1-6V49.3l-.1-3.1V28.4l-.2-5.6V13l.5-4 1.8-3.3L376 3l4-3 3-.4h157.8l3.2.4 5 3 2.3 3.2L553 10l.5 4v9.8l-.1 5.5v14.5l-.1 3v15.3l-.1 3v11.6l-.1 5.5v9.6L553 95h9v-7.8l-.1-5.2V70.7l-.1-6V49.3l-.1-3.1V28.4l-.2-5.6V13l.5-4 1.8-3.3L566 3l4-3 3-.4h157.8l3.2.4 5 3 2.3 3.2L743 10l.5 4v9.8l-.1 5.5v14.5l-.1 3v15.3l-.1 3v11.6l-.1 5.5v9.6L743 95h9v-7.8l-.1-5.2V70.7l-.1-6V49.3l-.1-3.1V28.4l-.2-5.6V13l.5-4 1.8-3.3L756 3l4-3 3-.4h96.6l5.8-.1h55.3l3.3.5 3.3 1.9L930 4l1.9 2.7L933 10l.4 4v9.6l-.1 5.6v20.6l-.1 3v23.8l-.1 5.6v9.6L933 95h10v-8l-.1-5.3V67l-.1-3V48l-.1-3.1V26.7l-.2-5.7V10.9L943 7l1.8-3 2.2-2 3-2 3-.3h84.7l6-.1h39.4l5.3-.1h22.3l3.3.5 3.3 1.9L1120 4l1.9 2.7 1.1 3.3.4 4v9.6l-.1 5.6v20.6l-.1 3v23.8l-.1 5.6v9.6l-.1 3.2h9v-7.6l-.1-5V71.3l-.1-5.8v-15l-.1-3V30.2l-.2-5.5v-9.5l.5-4.2 1.7-4.4L1136 3l5-3 3.1-.4H1301l3.1.4 5 3 2.3 2.7L1313 9l.5 4v9.8l-.1 5.6v14.7l-.1 3.1v15.4l-.1 3.1v11.7l-.1 10.8v4.6l-.1 3.2h9v-7.7l-.1-5v-5.6l-.1-5.7V56.1l-.1-3.1v-6l-.1-3.1V29.4l-.2-5.5v-9.7l.6-4.2 2.3-4.4L1327 2l3-2 3-.3h146.4l4.5-.1h7.9l3.2.4 5 3 3 5 .4 3.9v9.9l-.1 5.7v21.2l-.1 3.1v24.3l-.1 5.8v9.8l-.1 3.3h10v-3.3l-.1-4.6V82l-.1-5.7V64.4l-.1-3v-3.2l-.1-9.4v-6.1l-.1-3.2V27.7l-.2-5.6V12l.7-4.1 3-4 3-3 2-1 2.8-.1h22.3l5.3-.1h63.3l5.8-.1h61.3l3.2.3 5 3 3 4 .4 3.8V21l-.1 5.7v21.5l-.1 3.1V76l-.1 5.8v10l-.1 3.3h3.2l4.5-.1h9.9l5.2-.2h9.3l3.9.3 5 3 3 5 .4 5.8V165l-.1 5.5v86.8l-.1 3v102.3l-.1 5.5v61.7l-.1 5.2h-16V104h-28v22.3l.1 5.8v34.1l.1 3.3v36.7l.1 3.3V248l.1 3.1v20.3l.1 5.2v8.8l-.5 3.7-1.8 3.4-2.2 2.6-4 2-3 .3h-38.5l-5.5.1h-46.7l-5.9.1H1552l-5.3.1h-22.3l-3.3-.6-3.3-2.2-2.7-2.8-2-5-.2-4v-4.3l.1-4.4.1-3.3h-10l.1 3.5v4.6l.2 4.6-.3 4.3-1.2 3.4-1.8 2.6-5 3-3.2.4h-97.2l-5.8.1h-55.6l-3.2-.5-2.8-1.9-2.2-2.1-1.8-2.8-1.2-4.2-.2-3.8v-8.1l.2-3.1h-9l.1 3.3v4.3l.2 4.3-.3 4.1-1.3 3.3-1.7 2.7-3 3-3 1-3 .1h-12.3l-4.8.1h-44l-6 .1h-29.5l-5.8.1h-43.1l-4.5.1h-7.8l-3.2-.5-2.8-1.8-2.2-2.2-2-4-.2-4.3v-5l.1-4.9.1-3.8h-10l.1 3.5.2 4.6v4.6l-.3 4.3-1.7 3.4-2.3 2.6-5 3-3.2.4H1067l-5.6.1h-75l-5.4.1h-27.6l-3.3-.6-3.3-2.2-2.7-2.8-2-5-.2-4v-4.3l.1-4.4.1-3.3h-9l.3 12-.3 4-1.3 3.3-1.7 2.7-3 3-3 1-3 .1h-12.3l-4.8.1h-21.3l-5.5.1h-35l-5.8.1h-17.6l-5.7.1h-37.4l-4.5.1h-7.8l-3.3-.6-3.3-2.3-2.7-2.7-2-4-.2-4.1v-4.6l.1-4.7.1-3.6h-9l.1 3.5.1 4.6.2 4.6-.4 4.3-1.7 3.4-2.3 2.6-5 3-3.1.4H635l-5.8.1h-54.9l-3.3-.5-3.3-1.9-2.7-2.1-1.9-2.7-1.1-3.3-.3-4 .1-4.4v-4.3l.2-3.3h-9l.2 3.2.1 4.3v4.4q0 2-.3 4.1l-2.2 4.9-2.8 3.1-4 2-3 .3h-38.5l-5.5.1h-46.7l-5.9.1H411l-5.3.1h-22.3l-3.3-.6-3.3-2.2-2.7-2.8-2-5-.2-4v-4.3l.1-4.4.1-3.3h-10l.1 3.7.1 5 .2 4.8-.4 4.5-1.8 3.5-2.2 2.5-4 2-3 .3h-38.5l-5.5.1h-46.7l-5.9.1h-33.6l-5.2.1h-22.3l-3.3-.6-3.3-2.2-2.7-2.8-2-5-.2-4v-4.3l.1-4.4.1-3.3h-10l.1 3.5v4.7l.2 4.6-.3 4.2-3 5-2.3 2.3-2.7 1.7-3.2.5H3.3L0 297l-3.3-1.8L-6 293l-2-4-.4-4-.2-4.7-.2-5.1-.2-5.2v-4.4l-.1-4.2V110.2l.1-6.2h-26v397h26v-21.9l-.1-5.7v-33.6l-.1-3.2v-36l-.1-3.3v-37.8l-.1-3v-20l-.1-5v-8.8l.5-3.7 1.8-3.8L-5 312l4-3 3-.4h97.2l5.8-.1h55.7l3.3.5 3.3 1.8 2.7 2.2 2 4 .2 4.3v5l-.1 4.9-.1 3.8h10l-.1-3.7-.2-5v-4.8l.3-4.5 1.8-3.5 2.2-2.5 3-2 3-.3h38.9l5.6-.1h47.3l6-.1h33.9l5.4-.1h22.6l3.3.6 3.4 2.4 2.6 2.6 1 2 .1 4.4v10.5l-.1 4.1h10l-.1-3.5-.1-4.6-.2-4.6.4-4.3 1.8-3.4 2.2-2.6 4-3 3-.4h158.8l3.2.4 5 3 1.8 2.6 1.2 3.4.3 4.3-.1 4.6v4.6l-.2 3.5h9l-.1-3.3-.1-4.3V323l.2-4 1.8-4.3 2.2-2.7 4-3 3-.4h44.3l5.7-.1h75.5l5.4-.1h27.8l3.3.6 3.3 2.3 2.7 2.7 2 4 .2 4.1v4.6l-.1 4.7-.1 3.6h9l-.1-3.3-.1-4.3V323l.2-4 1.8-4.3 2.2-2.7 4-3 3-.4h44.3l5.7-.1h75.5l5.4-.1h27.8l3.3.6 3.3 2.2 2.7 2.8 2 5 .2 4v4.3l-.1 4.4-.1 3.3h9l-.1-3.3v-4.3l-.2-4.3.3-4.1 1.2-3.3 1.8-2.7 2.2-2.1 2.8-1.9 3.2-.5h141.3l4.9.1h12.4l3.2.4 5 3 3 5 .3 4.4-.1 5v4.8l-.2 3.8h9l-.1-3.5-.2-4.6v-4.6l.3-4.3 1.8-3.4 2.2-2.6 4-3 3-.4h22.4l5.4-.1h57.5l5.9-.1h34.2l5.4-.1h24.1l3.8.1 3.3.6 4.4 2.9 2.6 3.1 1 3 .1 4v9.4l-.1 3.6h9l-.1-3.5v-4.7l-.2-4.6.3-4.2 3-5 2.3-2.3 2.7-1.7 3.2-.5h158.5l3.3.5 3.3 1.8 2.7 2.2 2 4 .2 4.3v5l-.1 4.9-.1 3.8h10l-.1-3.7-.2-5v-4.8l.3-4.5 1.8-3.5 2.2-2.5 3-2 3-.3h38.9l5.6-.1h47.3l6-.1h33.9l5.4-.1h22.6l3.3.6 3.4 2.4 2.6 2.6 1 2 .3 4.3.3 6v3.3l.2 3.6.1 3.8.1 4v8.4l.1 4.5v141.2l-.1 5.9h3.1l4.4-.1h9.7l5-.2h9q1.9 0 3.8.3l5 3 3 5 .4 3.5v112.8l.1 3.3v62.7l-.5 3.7-1.8 3.4-2.2 2.6-3 2-3.6.2h-14.5l-5.2-.1h-9.4l-3.3-.1v21.9l.1 5.7v33.6l.1 3.2v36l.1 3.3v37.8l.1 3v20l.1 5v8.8l-.5 3.7q-.7 1.9-1.7 3.8l-2.3 3.2-2.8 2-3.2 1-3.3.4h-43.6l-5.6.1H1557l-5.4.1H1528l-3.8-.1-3.1-.5-3.8-2.2-2.2-2.8-2-5-.2-4v-4.3l.1-4.4.1-3.3h-10l.1 3.5v4.7l.2 4.6-.3 4.2-3 5-3 3-3 1-2.9.1h-7.7l-4.6.1h-15.1l-5.4.1h-27.9l-5.9.1h-17.7l-5.8.1h-17.3l-5.6.1h-16.3l-5.2.1H1338l-3.8-.2-3.2-.5-4.4-2.7-2.6-3.3-2-5-.2-3.8v-4l.1-4 .1-3.2h-9l.2 3.2.1 4.3v4.4q0 2-.3 4.1l-2.2 4.9-2.8 3.1-4 2-3 .3h-27.4l-5.4.1h-39.6l-6 .1H1211l-5.8.1h-27.9l-5.4.1H1148l-3.8-.2-3.2-.5-4.4-2.9-2.6-3.1-1-3-.1-4v-9.4l.1-3.6h-10l.1 3.3v4.3l.2 4.3-.3 4.1-1.3 3.3q-.8 1.4-1.7 2.7l-4 3-3 1-2.9.1h-7.6l-4.6.1h-15l-5.4.1h-27.8l-5.8.1h-17.5l-5.8.1h-17.2l-5.5.1h-16.2l-5.3.1H958l-3.8-.2-3.2-.5-4.4-2.7-2.6-3.3-2-5-.2-3.8v-4l.1-4 .1-3.2h-9l.1 3 .1 4v4.1l-.2 3.9-1.6 4.8-2.4 3.2-2.7 1.7-3.3 1.3-3.3.4H824l-5.8.1h-55l-3.1-.5-2.8-1.9-2.2-2.1-1.8-2.8-1.2-4.2-.2-3.8v-8.1l.2-3.1h-9l.1 3 .1 4v4.1l-.2 3.9-1.6 4.8-2.4 3.2-2.7 1.7-3.3 1.3-3.3.4h-43.6l-5.6.1H606l-5.4.1H577l-3.8-.1-3.1-.5-3.8-2.2-2.2-2.8-2-5-.2-4v-4.3l.1-4.4.1-3.3h-9l.1 3v4.1l.2 4-.3 3.9-1.1 3.2-1.9 2.8-2.7 2.6-3.3 2.4-3.3.6H383.3l-3.3-.6-3.3-2.2-2.7-2.8-2-5-.2-4v-4.3l.1-4.4.1-3.3h-10l.1 3.5.1 4.6.2 4.6-.4 4.3-1.8 3.4-2.2 2.6-4 3-3 .4h-96l-5.7.1h-55l-3.3-.5-3.2-1.7-2.8-2.3-3-5-.3-4.2.1-4.6v-4.7l.2-3.5h-10l.1 3.5.2 4.6v4.6l-.3 4.3-1.6 3.4-2.4 2.6-2.7 1.6-3.3 1.4-3.3.4H63.5l-5.7.1H3.3L0 895q-1.5-.7-3.2-1.7L-6 891l-1.9-2.8L-9 885l-.4-3.6v-30.8l.1-3v-47.4l.1-3.3v-54.3l.1-3v-29.7l.1-6.9h-27v395h27v-22l-.1-5.6v-33.6l-.1-3.2v-36.1l-.1-3.3v-37.8l-.1-3v-20l-.1-5.1v-8.7l.5-3.6q.7-1.5 1.7-3.2L-5 910l2.8-2.3L1 906l3.2-.5H142l4.7.1h12.2l3.2.4 3.3 1.4 2.7 1.6 2.4 2.6 1.6 3.4.4 4.5-.2 4.9v4.9l-.2 3.7h10l-.1-3.8v-4.9l-.2-4.9.3-4.4 3-5 5-3 3.2-.4h44.2l5.7-.1h75.4l5.5-.1h27.7l3.3.6 3.3 2.3 2.7 2.7 2 4 .2 4.1v4.6l-.1 4.7-.1 3.6h9l-.1-3.7-.1-5-.2-4.8.4-4.5 1.8-3.5 2.2-2.5 3-2 3-.3h38.9l5.6-.1h47.3l6-.1h33.9l5.4-.1h22.6l3.3.6 3.3 2.3 2.7 2.7 2 4 .2 4.1v4.6l-.1 4.7-.1 3.6h9l-.1-3.5v-4.7l-.2-4.6.3-4.2 3-5 2.3-2.3 2.7-1.7 3.2-.5H623l5.7-.1h102.9l3.3.6 3.3 2.3 2.7 2.7 2 4 .2 4.1v4.6l-.1 4.7-.1 3.6h9l-.1-3.7-.1-5-.2-4.8.4-4.5 1.7-3.4 2.3-2.6 5-3 3.1-.4h95.2l5.7-.1h51l3.8.1 3.2.4 4.4 1.9 2.6 2.1 2 2.7 1 3.3.3 4.3-.1 4.6v4.6l-.2 3.5h10l-.2-4-.1-5.1-.2-5.2.5-4.7 2.4-3.6 2.6-2.4 2-1 2.8-.1h12.6l4.9-.1h44.6l5.9-.1h30l5.9-.1h43.6l4.6-.1h7.9l3.2.5 2.8 1.8 2.2 2.2 2 4 .2 4.3v5l-.1 4.9-.1 3.8h10l-.2-4-.2-5-.2-5.2.6-4.8 2.8-4 3.2-3 3-1 2.9-.1h21.9l5.2-.1h61.9l5.8-.1h60.1l3.2.3 3.3 1.4 2.7 1.6 2.4 2.6 1.6 3.4.4 4.5-.2 4.9v4.9l-.2 3.7h9l-.1-3.5-.2-4.6v-4.6l.3-4.3 1.6-3.3 2.4-2.7 2.7-2.1 3.3-1.9 3.2-.5h48.6l5.6-.1h96.5l3.8.1 3.3.5 4.8 2.3 3.2 2.7 2 4 .2 4.3v5l-.1 4.9-.1 3.8h10l-.1-3.7-.2-5v-4.8l.3-4.5 1.7-3.4 2.3-2.6 5-3 3.1-.4h154.7l3.2.4 3.3 1.4 2.7 1.6 2.3 2.6 1.7 2.4 1 2 .1 4.4v24.2l.1 4v76.8l.1 4.8v53.2l.1 4.7v74.2l.1 3.7v12.9l-.5 5.1-1.7 4.5-2.3 3.5-5 3-3.2.4h-17.3l-5 .1h-27.6l-5.7.1h-35.6l-5.8.1h-28.3l-5.5.1h-15.3l-4.5.1-8-.3-3.2-.6-4-3.4-2-3.6-1-3-.1-3.3V1111l.1-2.9h-10v11.7l.1 5.2v21.7l.1 5.6v16.2l.1 5v8.9l-.3 3.7-1.2 3.3-1.8 2.7-5 3-3.2.4h-97.2l-5.8.1h-55.6l-3.2-.5-2.8-1.7-2.2-2.3-2-5-.2-3.6v-41.3l.1-5.6v-24.6l.1-2.9h-10v11.6l.1 5v21.5l.1 5.5v16l.1 5v8.7l-.3 3.7-1.2 3.2-1.8 2.8-2.2 2.1-2.8 1.9-3.2.5H1252l-5.7.1h-103l-3.2-.6-2.8-2.2-2.2-2.8-2-5-.2-3.5v-40.9l.1-5.5V1111l.1-2.9h-10v11.6l.1 5v21.5l.1 5.5v16l.1 5v8.7l-.3 3.7-1.2 3.2-1.8 2.8-2.2 2.1-2.8 1.9-3.2.5H953.2l-3.2-.5-2.8-1.7-2.2-2.3-2-5-.2-3.6v-41.3l.1-5.6v-24.6l.1-2.9h-10v11.6l.1 5v10.5l.2 22v24.2q0 2-.3 3.7l-1.2 3.2-1.8 2.8-2.2 2.1-2.8 1.9-3.2.5H872l-5.7.1H763.3l-3.3-.6-3.3-2.2-2.7-2.8-2-5-.2-3.5v-40.9l.1-5.5V1111l.1-2.9h-9v6.9l.1 4.6v5l.1 5.2v10.8l.1 5.5v5.5l.1 5.4v10.5l.2 5v4.6l-.2 4.3-.4 3.7-2.3 5-2.7 3-4 2-3 .3h-38.5l-5.5.1h-46.7l-5.9.1H601l-5.3.1h-22.3l-3.3-.6-3.3-2.2-2.7-2.8-2-5-.2-3.5v-40.9l.1-5.5V1111l.1-2.9h-9v11.6l.1 5v10.5l.2 22v24.2q0 2-.3 3.7l-1.2 3.2-1.8 2.8-2.2 2.1-2.8 1.9-3.2.5H492l-5.7.1H383.3l-3.3-.6-3.3-2.2-2.7-2.8-2-5-.2-3.5v-40.9l.1-5.5V1111l.1-2.9h-10v7.2l.1 4.7v10.4l.1 11.1v5.7l.1 5.7v16.3l.2 5.2v9l-.5 3.7-1.8 3.4-2.2 2.6-3 2-3 .3h-38.7l-5.5.1h-47.1l-5.8.1H221l-5.3.1h-22.5l-3.3-.6-3.3-2.2-2.7-2.8-2-5-.2-3.5v-40.9l.1-5.5V1111l.1-2.9h-10v11.6l.1 5v21.5l.1 5.5v16l.1 5v8.7l-.3 3.7-1.2 3.2-1.8 2.8-2.2 2.1-2.8 1.9-3.2.5H20.4l-4.9-.1H3.2L0 1195l-5-3-2.3-3.1-1.7-4.9-.3-3.7-.2-4.2v-4.6l.1-5v-10.2l.1-5.4V1140l.1-5.4v-10.2l.1-5v-8.6l.1-2.8h-3.2l-4.5.1-4.9.1h-5l-5.2.2H-41l-3.9-.4-2.9-1.8-2.1-2.2-2-4-.3-3V886l-.1-3.6V772.1l-.1-3.3v-64.5l.5-3.3 2-3.4 2-2.6 2-1 3.6-.1h30l3.4.1v-6.9l-.1-4.7v-10.1l-.1-5.3v-11.1l-.1-5.5v-15.9l-.2-5v-8.7l.5-3.8 1.7-3.8L-5 610l5-3 3.1-.4H160l3.1.4 5 3 2.3 2.7 1.7 3.3.5 3.7v8.9l-.1 5v10.7l-.1 5.5V661l-.1 5.6V677l-.1 5.2v8.8l-.1 2.9h10v-7l-.1-4.7v-10.4l-.1-5.3v-11.2l-.1-5.6v-16.2l-.2-5v-8.9l.5-3.7 1.7-3.3 2.3-2.7 5-3 3.1-.4H290l5.8-.1h54.9l3.3.5 3.3 1.8 2.7 2.2 2 4 .3 3.4v8.9l.1 5.2v5.2l.1 5.4v5.5l.1 5.6v5.7l.1 5.6.2 15.7v8.9l.1 2.9 9 1v-7l-.1-4.7v-10.4l-.1-5.3v-11.2l-.1-5.6v-16.2l-.2-5v-8.9l.5-3.7 1.7-3.3 2.3-2.7 5-3 3.1-.4H480l5.8-.1h54.9l3.3.5 3.3 1.9 2.7 2.1 1.9 2.8 1.1 3.2.4 3.6v8.7l-.1 5v15.6l-.1 5.5v21.1l-.1 5v8.6l-.1 2.9h9v-3l-.1-4v-4.7l-.1-5.1v-10.6l-.1-5.5v-5.7l-.2-5.5v-16.2l-.2-5V623l.2-4.4.5-3.6 3-4.5c1.4-1.3 1.4-1.3 3-2.5l2-1 2.8-.1h22.1l5.3-.1h62.9l5.8-.1h60.9l3.2.3 5 3 2.3 2.6 1.7 2.4 1 2 .1 3.2V691l-.1 3h9v-3l-.1-4.1V682l-.1-5.1v-10.7l-.1-5.7V655l-.2-5.6V633l-.2-5.2V623l.2-4.3.5-3.7 3-4.6 3-2.4 2-1 2.8-.1h12.4l4.8-.1h44l5.9-.1h29.6l5.8-.1h55.4q1.6 0 3.3.4l3.3 1.9 2.7 2.1 1.9 2.8 1.1 3.2.4 3.6v8.8l-.1 5V645l-.1 11v21.5l-.1 5v8.7l-.1 2.9h10v-7.3l-.1-4.8v-10.6l-.1-5.5v-11.5l-.1-5.7V632l-.2-5.2v-9.2l.5-3.6 1.8-2.9 2.2-2.1 4-2 3-.3h84.3l5.8-.1h39.2l5.3-.1h22.1l3.3.5 3.2 1.7 2.8 2.3 3 5 .4 3.6v8.9l-.1 5v16.2l-.1 5.6v21.8l-.1 5.1v8.9l-.1 2.9h10v-7.3l-.1-4.8v-10.6l-.1-5.5v-11.5l-.1-5.7V632l-.2-5.2v-9.2l.5-3.6 1.8-2.9 2.2-2.1 4-2 3-.3h144.5l4.6-.1h7.8l3.1.4 5 3 2.3 2.7 1.7 3.3.5 3.7v8.9l-.1 5v10.7l-.1 5.5V661l-.1 5.6V677l-.1 5.2v8.8l-.1 2.9h9v-6.9l-.1-4.7v-10.1l-.1-5.3v-11.1l-.1-5.5v-15.9l-.2-5v-8.7l.5-3.8 1.7-3.8 2.3-3.2 5-3 3.1-.4h156.6l3.3.4 3.2 1.2 2.8 1.8 3 5 .4 3.6v9l-.1 5.2V649l-.1 5.7V677l-.1 5.2v8.9l-.1 3h10v-3l-.1-4.1V682l-.1-5.1v-10.7l-.1-5.7V655l-.2-5.6V633l-.2-5.2V623l.2-4.3.5-3.7 3-4.6 3-2.4 2-1 2.8-.1h12.4l4.8-.1h44l5.9-.1h29.6l5.8-.1h43l4.6-.1h7.8l3.3.5 3.2 1.7 2.8 2.3 3 5 .4 3.6v8.9l-.1 5v16.2l-.1 5.6v21.8l-.1 5.1v4.7l-.1 7.1h27V511h-27v11.1l.1 4.9v20.6l.1 5.3v15.3l.1 4.8v8.5l-.3 3.5-1.4 3.3-1.6 2.7-2.6 2.3-2.4 1.7-2 1-2.8.1H1669l-4.8.1h-43.4l-5.8.1h-29.2l-5.8.1h-42.5l-4.5.1h-7.7l-3.3-.5-3.2-1.7-2.8-2.3-3-5-.4-3.5v-8.7l.1-5v-15.6l.1-5.5v-21.2l.1-5v-8.6l.1-2.9h-10v11.3l.1 4.9v20.9l.1 5.4V569l.1 4.9v8.5l-.3 3.6-1.1 3.2-1.9 2.8-2.7 2.1-3.3 1.9-3.3.5h-139.4l-4.9-.1h-12.3l-3.1-.4-5-3-2.3-3.1-1.7-4.9-.3-3.6-.2-4.1v-4.5l.1-4.8v-10l.1-5.2v-10.6l.1-5.3v-10l.1-4.8v-8.4l.1-2.7h-9v11.3l.1 4.9v20.9l.1 5.4V569l.1 4.9v8.5l-.3 3.6-1.3 3.3-1.7 2.7-4 3-3 1-2.9.1h-22l-5.3.1h-62.4l-5.8.1h-60.5l-3.1-.3-5-3-1.8-2.7-1.2-3.3-.4-3.6v-8.7l.1-5v-15.6l.1-5.5v-21.1l.1-5v-8.6l.1-2.9h-10v11.3l.1 4.9v20.9l.1 5.4V569l.1 4.9v8.5l-.3 3.6-1.3 3.3-1.7 2.7-4 3-3 1-2.9.1H1098l-4.8.1h-43.4l-5.8.1h-29.2l-5.7.1h-54.7q-1.7 0-3.3-.4l-3.3-1.8-2.7-2.2-1.9-3.3-1.1-3.7-.4-3.7V573l.1-4.8v-10l.1-10.5v-20.7l.1-4.8v-8.4l.1-2.7h-9v11.3l.1 4.9v20.9l.1 5.4V569l.1 4.9v8.5l-.3 3.6-1.1 3.2-1.9 2.8-2.7 2.1q-1.6 1-3.3 1.9l-3.3.5H764.3l-3.3-.5-3.3-1.8-2.7-2.2-1.9-3.3-1.1-3.7-.4-3.7V573l.1-4.8v-10l.1-10.5v-20.7l.1-4.8v-8.4l.1-2.7h-9v6.7l.1 4.4v9.8l.1 5v10.6l.1 5.3V568l.2 4.8v4.5l-.2 4.1-.3 3.6-1.6 4.9-2.4 3.1-2.7 1.7-3.3 1.3-3.3.4h-95.2l-5.7.1h-54.5l-3.3-.5-3.3-1.9-2.7-2.1-1.9-2.8-1.1-3.2-.4-3.6V574l.1-4.9v-15.5l.1-5.4v-20.9l.1-5v-8.4l.1-2.8h-9v6.7l.1 4.4v9.8l.1 5v10.6l.1 5.3V568l.2 4.8v4.5l-.2 4.1-.3 3.6-1.6 4.9-2.4 3.1-2.7 1.7-3.3 1.3-3.3.4h-95.2l-5.7.1h-54.5l-3.3-.5-3.2-1.7-2.8-2.3-3-5-.4-3.5v-8.8l.1-5v-16l.1-5.5v-21.5l.1-5v-8.8l.1-2.9h-10v11.6l.1 5v5.2l.1 21.8v16l.1 5v8.7q0 2-.3 3.7l-1.1 3.3-1.9 2.7-2.7 1.6-3.3 1.4-3.3.4h-43.6l-5.6.1H226l-5.4.1H197l-3.8-.1-3.1-.5-3.8-2.2-2.2-2.8-2-5-.2-3.4v-39.8l.1-5.4v-23.6l.1-2.8h-10v6.8l.1 4.6v10l.1 5.3v10.9l.1 5.5v15.6l.2 5v8.6l-.5 3.7-1.7 3.3-2.3 2.7-5 3-3.1.4H64.6l-5.7.1H4.3L1 596l-3.3-1.8L-5 592l-2.3-3.3L-9 585l-.5-3.7V573l.1-4.8v-10l.1-5.2v-10.7l.1-5.2v-10.1l.1-4.8v-8.4l.1-2.7h-3.1l-4.3.1-4.7.1h-5l-5 .2h-9l-3.9-.4-3.4-1.8-2.6-2.2-2-4-.3-3V288.5l-.1-3.6V174.3l-.1-3.3v-64.7l.5-3.3 1.8-3.3L-48 97l3-2 3.6-.2h14.5l5.2.1h9.4l3.3.1v-7.7l-.1-5v-5.6l-.1-5.7V56.1l-.1-3.1v-6l-.1-3.1V29.4l-.2-5.5v-9.7L-9 10l2.3-4.4L-4 2z" style="fill:#a7a8ac" transform="translate(327 254)"/>
  <path d="m0 0 6-.1h183.6l3.6-.1H531l4.3-.1h530l4.6-.1h258.6l4.5-.1h515.9l3.6-.1h161.8l3.5.1 3.3.5 3.4 1 3.3 1.4L2033 5l3.1 2 2.3 2 2.4 2.4 2.2 2.6 2 3 1.6 3.3 1.3 2.9 1.1 2.8 1 5 .1 4v218.6l.1 5.4V821l.1 5.9v517.3l-.3 4.7-1.4 5.3-1.6 4.7-2.7 5.2-3.3 4.8-3.6 3.8-4.4 3.2-3 1.5-3.2 1.4-3 1.2-2.8.9-4 1-5.1.1H1316l-4.2-.1H1293l-.4 3.8-.5 4.9-.6 4.9-.5 4.4-1.1 5-1.2 3.9-1.4 4.2-1.3 3.9-1.2 3.3-1.2 3-1.2 2.8-1.4 2.9-1.6 3.2-1.7 3.4-1.8 3.2-1.9 3.2-2.2 3-2.2 2.8-2.4 2.7-2.2 2.5-3.7 4.1-4.3 3.9-3.2 2.3-3.6 2.4-3.7 2.3-3.5 2-2.8 1.6-2.6 1.3-2.7 1.1-2.9 1-3.5 1-3.8.8-4.1.7-4.6.5-5.4.3-5.6.1h-5.7l-5.3-.4-4.4-.6-4-.9-3.8-1.1-3.8-1.4-4-1.6-4.1-1.9-4-2.1-3.9-2.4-3.8-2.7-3.6-3-3.4-3.1-3.2-3.2-2.8-3.1-2.6-3.2-2.4-3.2-2.2-3.5-2.2-3.9-2.1-4-1.8-3.6-1.9-4.5-5-15-1 225H917v-253H790.8l-6.5.1H595.9l-4 .1H401.4l-4.1.1H198.5l-3.8.1H63.5l-3.1.1H8.2l-3.8-.1-3.4-.4-5.7-1.9-4.3-2.1-4.7-2.7-4.3-3.3-3.8-4.3-3.2-4.7-2.4-4.7-1.6-4.3-.6-2.7-.4-3.3-.1-4.2v-218.5l-.1-5.4V557.8l-.1-5.8V34.7l.3-4.7 1.4-5.3L-27 20l2.6-4.1L-21 12l2.1-2.2 2.3-2.1L-12 4l3.8-2L-5 1zm137 97-3.3 1.9-2.7 2.1-1.9 2.7-1.1 3.3-.4 4v9.6l.1 5.6v20.6l.1 3v23.8l.1 5.6v9.6l.1 3.2h-3.2l-4.5-.2h-4.9l-5-.1-5.2-.1h-4.8l-4.5-.2-3.9.6-2.9 2.3L87 197l-2 3-.3 3v211.3l-.1 3.7v110.7l-.1 3.3v64.7l.5 3.3 1.8 3.3L89 606l4 2 3.7.2h14.1l5-.1h9.1l3.1-.1v6.7l-.1 4.4v4.8l-.1 5v10.3l-.1 5.3v5.3l-.1 5.2v10l-.2 4.8v4.5l.2 4.1.4 3.6 2.2 4.9 2.8 3.1 5 3 3.1.4H297l3.1-.4 5-3 2.3-2.7 1.7-3.3.5-3.6v-8.7l-.1-5v-10.2l-.1-5.4v-11l-.1-5.4v-10.2l-.1-5v-8.6l-.1-2.9h10v11.3l-.1 4.9v20.9l-.1 5.4V666l-.1 4.9v8.5l.3 3.6 1.2 3.2 1.8 2.8 2.2 2.1 2.8 1.9 3.1.5h139.5l4.8-.1h12.3l3.3-.4 3.3-1.4 2.7-1.6 1.9-2.7 1.1-3.3.4-3.6v-8.8l-.1-5v-16l-.1-5.5v-21.5l-.1-5v-8.7l-.1-2.9h10v6.9l-.1 4.7v10.2l-.1 5.3v11l-.1 5.5v16l-.2 5v8.7l.5 3.7 1.7 3.3 2.3 2.7 5 3 3.1.4h155.6l3.3-.4 3.3-1.3 2.7-1.7 2.4-3.1 1.6-4.9.3-3.6.2-4.1v-4.5l-.1-4.8v-10l-.1-5.2v-10.6l-.1-5.3v-10l-.1-4.8v-8.4l-.1-2.7h9v6.8l-.1 4.4v5l-.1 5v10.4l-.1 5.4v5.4l-.1 5.2v10.2l-.2 4.9v4.5l.2 4.2.4 3.6 2.3 5 2.7 3 4 2 3 .3h143.5l4.5.1h7.7l3.3-.4 3.3-1.3 2.7-1.7 2.4-3.1 1.6-4.9.3-3.6.2-4.1v-4.5l-.1-4.8v-10l-.1-5.2v-10.6l-.1-5.3v-10l-.1-4.8v-8.4l-.1-2.7h9v11.1l-.1 4.8v20.7l-.1 5.3V665l-.1 4.8v8.5l.3 3.6 1.1 3.7 1.9 3.3 2.7 2.2 3.3 1.8 3.3.5h156.4l3.3-.5 3.3-1.9 2.7-2.1 1.9-2.8 1.1-3.2.4-3.6V671l-.1-4.9v-15.5l-.1-5.4v-20.9l-.1-5v-8.4l-.1-2.8h9v6.7l-.1 4.4v9.8l-.1 5v10.6l-.1 5.3V665l-.2 4.8v4.5l.2 4.1.3 3.6 1.7 4.9 2.3 3.1 5 3 3.1.4h155.6l3.3-.4 3.2-1.3 2.8-1.7 3-4 1-3 .1-3.2v-69l-.1-2.8h10v11.4l-.1 5v21.2l-.1 5.5v15.6l-.1 5v8.6l.3 3.7 1.2 3.3 1.8 2.7 5 3 3.1.4h155.6l3.3-.4 3.2-1.3 2.8-1.7 3-4 1-3 .1-3.2v-69l-.1-2.8h9v6.7l-.1 4.4v9.8l-.1 5v10.6l-.1 5.3V665l-.2 4.8v4.5l.2 4.1.3 3.6 1.7 4.9 2.3 3.1 5 3 3.1.4h95.9l5.8.1h54.9l3.3-.5 3.3-1.9 2.7-2.1 1.9-2.8 1.1-3.2.4-3.6V671l-.1-4.9v-15.5l-.1-5.4v-20.9l-.1-5v-8.4l-.1-2.8h10v6.8l-.1 4.6v10l-.1 5.3v10.9l-.1 5.5v15.6l-.2 5v8.6l.5 3.7 1.7 3.3 2.3 2.7 5 3 3.1.4h95.3l5.7.1h54.6l3.3-.5 3.2-1.7 2.8-2.3 3-5 1-2 .1-3v-64.2l-.1-6.8h27v183h-27v-7l.1-4.7v-10.4l.1-5.3v-11.2l.1-5.6v-16.2l.2-5v-8.9l-.5-3.7-1.7-3.3-2.3-2.7-5-3-3.2-.4h-22.1l-5.4-.1h-57.1l-5.9-.1h-33.9l-5.4-.1h-24l-3.8.1-3.2.6-4.4 3-2.6 3-1 2-.1 3.2V788l.1 3h-10v-7.2l.1-4.7v-10.4l.1-5.5V752l.1-5.7V730l.2-5.2v-9l-.5-3.7-1.7-3.4-2.3-2.6-5-2-3.1-.3h-84.3l-5.8-.1h-39.1l-5.3-.1h-22.1l-3.3.5-3.3 1.9-2.7 2.1-1.9 2.8-1.1 3.2-.4 3.6v8.8l.1 5 .1 21.5v21.5l.1 5v8.7l.1 2.9h-9v-7l.1-4.7v-10.4l.1-5.3v-11.2l.1-5.6v-16.2l.2-5v-8.9l-.5-3.7-1.7-3.3-2.3-2.7-5-3-3.1-.4H1342l-5.8-.1h-54.9l-3.3.5c-1.6 1-1.6 1-3.3 1.8l-2.7 2.2-2 3-.2 3.4V757l.1 5.7V788l.1 3h-10v-7l.1-4.7v-10.4l.1-5.3v-11.2l.1-5.6v-16.2l.2-5v-8.9l-.5-3.7-1.7-3.3-2.3-2.7-5-3-3.1-.4H1152l-5.8-.1h-54.9l-3.3.5c-1.6 1-1.6 1-3.3 1.8l-2.7 2.2-2 3-.2 3.4V757l.1 5.7V788l.1 3h-10v-11.6l.1-5v-21.5l.1-5.5v-16l.1-5v-8.7q0-2-.3-3.7l-1.1-3.2-1.9-2.8-2.7-2.1q-1.6-1-3.3-1.9l-3.3-.5h-17.1l-5.1-.1h-68.2l-5.9-.1H904l-3.8.1-3.2.6-4.4 3-2.6 3-1 2-.1 3.2V788l.1 3h-9v-6.9l.1-4.7v-10.2l.1-5.3v-11l.1-5.5v-16l.2-5v-8.7l-.5-3.7-1.8-3.3-2.2-2.7-3-3-3-1-2.9-.1h-12.3l-4.8-.1h-21.2l-5.4-.1h-34.7l-5.9-.1h-17.5l-5.7-.1h-37l-4.5-.1h-4.2l-3.8.1-3.1.5-3.8 2.3-2.2 2.7-2 3-.2 3.3v41.5l.1 5.6v24.7l.1 2.9h-9v-6.8l.1-4.6v-5l.1-5V758l.1-5.5v-5.4l.1-5.4v-10.2l.2-5v-4.6l-.2-4.2-.4-3.7-2.3-5-2.7-3-4-2-3-.3h-84.3l-5.8-.1h-39.2l-5.3-.1h-22.1l-3.3.5-3.2 1.7-2.8 2.3-3 5-.4 3.6v8.9l.1 5v16.2l.1 5.6v21.8l.1 5.1v8.9l.1 2.9-9-1v-16.9l-.1-5.2v-5.3l-.1-5.6v-16.7l-.1-5.4v-10.3l-.2-4.8v-4.1l-.5-3.7-1.8-3.4-2.2-2.6-4-2-3-.3h-84.3l-5.8-.1h-39.2l-5.3-.1h-22.1l-3.3.5-3.2 1.7-2.8 2.3-3 5-.4 3.6v8.9l.1 5v16.2l.1 5.6v21.8l.1 5.1v8.9l.1 2.9h-10v-7l.1-4.7v-10.4l.1-5.3v-11.2l.1-5.6v-16.2l.2-5v-8.9l-.5-3.7-1.7-3.3-2.3-2.7-5-3-3.1-.4H201l-5.8-.1h-54.9l-3.3.5-3.3 1.9-2.7 2.1-1.9 2.8-1.1 3.2-.4 3.6v8.8l.1 5v16l.1 5.5v21.5l.1 5v8.7l.1 2.9h-3.3l-4.6-.2h-5l-5.3-.1-5.2-.1h-5l-4.6-.2-4 .6-3 2.4-2 2.6-1 2-.1 2.8v39.8l-.1 6v118.1l-.1 3.6v79.4l-.1 3.5v114.2l-.1 5.6v22.7l.5 3.3 1.8 3.3 2.2 2.7 3 2 3.6.2h14.5l5.2-.1h9.4l3.3-.1v6.8l-.1 4.6v10l-.1 5.2v10.9l-.1 5.4v15.6l-.2 5v4.6l.2 4.2.3 3.7 1.7 4.9 2.3 3.1 5 3 3.2.4H184l5.6.1h75l5.4.1h27.6l3.3-.6 3.3-2.2 2.7-2.8 2-5 .2-3.5v-40.9l-.1-5.5V1208l-.1-2.9h10v11.6l-.1 5v21.5l-.1 5.5v16l-.1 5v8.7l.3 3.7 1.2 3.2 1.8 2.8 2.2 2.1 2.8 1.9 3.2.5h158.6l3.2-.5 2.8-1.8 2.2-2.2 2-4 .2-3.5v-42l-.1-5.6V1208l-.1-3h10v11.6l-.1 5v21.5l-.1 5.5v16l-.1 5v8.7q0 2 .3 3.7l1.2 3.2 1.8 2.8 2.2 2.1 2.8 1.9 3.2.5H570l5.7.1h102.9l3.3-.6 3.3-2.2 2.7-2.8 2-5 .2-3.5v-40.9l-.1-5.5V1208l-.1-2.9h9v11.6l-.1 5v21.5l-.1 5.5v16l-.1 5v8.7q0 2 .3 3.7l1.2 3.2 1.8 2.8 2.2 2.1 2.8 1.9 3.2.5h140.4l4.9-.1h12.3l3.2-.4 5-3 2.3-3.2 1.7-3.8.5-3.8v-8.7l-.1-5V1254l-.1-5.4v-11.1l-.1-5.5v-10.4l-.1-5v-8.7l-.1-2.9h9v11.6l-.1 5v21.5l-.1 5.5v16l-.1 5v8.7q0 2 .3 3.7l1.2 3.2 1.8 2.8 2.2 2.1 2.8 1.9 3.2.5H950l5.7.1h102.9l3.3-.6 3.3-2.2 2.7-2.8 2-5 .2-3.5v-40.9l-.1-5.5V1208l-.1-2.9h10v11.7l-.1 5.2v21.7l-.1 5.6v16.2l-.1 5v8.9l.3 3.7 1.3 3.3 1.7 2.7 4 3 3 .4h44.3l5.7.1h75.5l5.4.1h27.8l3.3-.6 3.3-2.2 2.7-2.8 2-5 .2-3.5v-40.9l-.1-5.5V1208l-.1-2.9h10v6.9l-.1 4.6v10.2l-.1 5.3v11l-.1 5.5v15.9l-.2 5v4.6l.2 4.3.3 3.7 1.8 5 2.2 3 3 2 3 .3h38.7l5.5.1h47.1l5.8.1h33.8l5.3.1h22.5l3.3-.6 3.3-2.2 2.7-2.8 2-5 .2-3.5v-40.9l-.1-5.5V1208l-.1-2.9h10v11.7l-.1 5.2v21.7l-.1 5.6v16.2l-.1 5v8.9l.3 3.7 1.3 3.3 1.7 2.7 4 3 3 .4h97.2l5.8.1h55.7l3.3-.5 3.3-1.7 2.7-2.3 2-5 .2-3.6v-41.3l-.1-5.6v-24.6l-.1-2.9h10v11.6l-.1 5v21.5l-.1 5.5v16l-.1 5v8.7l.3 3.7 1.3 3.2 1.7 2.8 4 4 3 .5h158.7l3.3-.5 3.2-1.6 2.8-2.4 1.9-3 1.1-4 .4-5v-162.8l.1-4.7v-90.6l-.5-4.9-1.8-3.5-2.2-2.5-4-3-3-1-2.9-.1H1805l-4.8-.1h-43.1l-5.8-.1h-29l-5.7-.1h-42.2l-4.5-.1h-7.7l-3.2.5-3.2 1.7-2.8 2.3-3 5-.3 4.4.1 5v4.8l.2 3.8h-10l.1-3.7.2-5v-4.8l-.3-4.5-1.6-3.4-2.4-2.6-2.7-1.6-3.3-1.4-3.2-.4h-94.6l-5.7-.1h-54.3l-3.2.5-3.3 1.9-2.7 2.1-2.4 2.7-1.6 3.3-.4 4.3.2 4.6v4.6l.2 3.5h-9l.1-3.7.2-5v-4.8l-.3-4.5-1.6-3.4-2.4-2.6-2.7-1.6-3.3-1.4-3.2-.4H1282l-3.1.4-5 3-2.3 2-1.7 3-.4 4.6.2 5.2v5.2l.2 4h-10l.1-3.7.2-5v-4.8l-.3-4.5-1.8-3.5-2.2-2.5-3-2-3-.3h-38.9l-5.6-.1h-47.3l-6-.1h-33.9l-5.4-.1h-22.6l-3.3.6-3.4 2.4-2.6 2.6-1 2-.1 4.4v10.5l.1 4.1h-10l.1-3.5.2-4.6v-4.5l-.3-4.4-1.6-3.9-2.4-3.1-2.7-1.7-3.3-1.3-3.3-.4h-95.2l-5.7-.1h-54.5l-3.3.5-3.2 1.7-2.8 2.3-3 5-.3 4.4.1 5v4.8l.2 3.8h-9l.1-3.5.1-4.6.2-4.6-.4-4.3-1.8-3.4-2.2-2.6-4-3-3-.4h-22.4l-5.4-.1h-57.5l-5.9-.1h-34.1l-5.5-.1H714l-3.8.1-3.3.6-4.4 2.9-2.6 3.1-1 3-.1 4v9.4l.1 3.6h-9l.1-3.5.1-4.6.2-4.6-.4-4.3-1.8-3.4-2.2-2.6-4-3-3-.4h-44.6l-5.7-.1h-76l-5.6-.1h-27.9l-3.2.6-2.8 2.4-2.2 2.6-2 3-.2 4.2v5l.1 5 .1 3.8h-9l.1-3.5.1-4.6.2-4.6-.4-4.3-1.8-3.4-2.2-2.6-4-3-3-.4H330.1l-3.2.4-5 3-3 5-.3 4.4.1 5v4.8l.2 3.8h-10l.1-3.7.1-5 .2-4.8-.4-4.5-1.6-3.4-2.4-2.6-2.7-1.6-3.3-1.4-3.2-.4h-94.6l-5.7-.1h-54.3l-3.2.5-3.2 1.7-2.8 2.3-2.3 2.8-1.7 3.2-.5 3.6v33.8l.1 3v34.5l.1 3.3v32.9l.1 3.3v34l.1 6v20.7l.1 6.9h-27V800h27v16.5l-.1 5.4v23.6l-.1 3.1V884l-.1 3.3v19.7l-.1 3.3v31.2l-.1 3v20l-.1 5v4.7l.2 4.3.4 3.6 2.3 5 2.7 3 4 2 3 .3h143.5l4.5.1h7.7l3.3-.4 3.3-1.4 2.7-1.6 2.4-2.6 1.6-3.4.4-4.3-.1-4.6-.2-4.6-.1-3.5h10l-.1 3.5-.1 4.6-.2 4.6.4 4.3 1.7 3.4 2.3 2.6 5 3 3.1.4h43.7l5.6.1H455l5.4.1h23.8l3.8-.1 3.1-.5 3.8-2.3 2.2-2.7 2-4 .2-4.1v-4.6l-.1-4.7-.1-3.6h10l-.1 3.3v4.3l-.2 4.3.3 4.1 1.2 3.3 1.8 2.7 2.2 2.1 2.8 1.9 3.2.5h17.1l5 .1h68.4l5.8.1H674l3.8-.2 3.2-.5 4.4-2.7 2.6-3.3 2-5 .2-3.8v-4l-.1-4-.1-3.2h9l-.1 3.3v4.3l-.2 4.3.3 4.1 1.2 3.3 1.8 2.7 2.2 2.1 2.8 1.9 3.1.5h139.5l4.8-.1h12.3l3.3-.4 3.3-1.3 2.7-1.7 2.4-3.2 1.6-4.8.2-3.9V969l-.2-3h9l-.1 3-.1 4v4.1l.2 3.9 1.8 4.8 2.2 3.2 4 3 3 .4h156.7l3.3-.4 3.3-1.3 2.7-1.7 2.4-3.2 1.6-4.8.2-3.9V969l-.2-3h9l-.1 3v4.1l-.2 4 .3 3.9 1.1 3.2 1.9 2.8 2.2 2.6 3.8 2.4 3.1.5 3.7.1h68.4l5.8-.1h60.8l13.4-.1h3.5l3.3-.4 3.2-1.3 2.8-1.7 3-4 1-3 .1-3.8v-8.8l-.1-3.4h10l-.1 3.5v4.7l-.2 4.6.3 4.2 3 5 2.3 2.3 2.7 1.7 3.1.5h156.6l3.3-.5 3.3-1.9 2.7-2.1 1.9-2.7 1.1-3.3.3-4-.1-4.4v-4.3l-.2-3.3h9l-.1 3v4.1l-.2 4 .3 3.9 1.1 3.2 1.9 2.8 2.1 2.6 3.9 2.4 3.1.5 3.8.1h68.8l5.9-.1h70.5l4.2-.1h3.6l3.1-.4 5-3 3-3 1-3 .1-4v-9.4l-.1-3.6h10l-.1 3.3v4.3l-.2 4.3.3 4.1 1.2 3.3 1.8 2.7 2.2 2.1 2.8 1.9 3.1.5H1814l3.8-.1 3.2-.4 4.3-1.7 2.7-2.3 1.6-2.7 1.4-3.3.4-3.6v-30.8l-.1-3v-47.4l-.1-3.3v-54.3l-.1-3v-33.7l-.1-2.9h3.2l4.5.1 4.9.1h5l5.2.2h9.3l3.9-.4 2.9-1.8 2.1-2.2 2-4 .3-3.4v-96.2l.1-3.4v-48l.1-3v-28.4l-.5-3.6-1.8-3.4-2.2-2.6-4-2-3.7-.2h-14.1l-5 .1h-9.1l-3.1.1V480.7l.1-5.3v-33.3l-.1-4.1v-7.7l-.3-12.6-.7-4.7-2.4-3.6-2.6-2.4-2-1-2.8-.1h-12.6l-4.9-.1h-44.6l-5.9-.1h-30l-5.9-.1h-43.6l-4.6-.1h-7.9l-3.2.5-2.8 1.8-2.2 2.2-2 4-.2 4.3v5l.1 4.9.1 3.8h-10l.1-3.7.2-5v-4.8l-.3-4.5-1.8-3.5-2.2-2.5-4-2-3-.3h-27.8l-5.4-.1h-40.2l-6-.1h-11.8l-5.9-.1h-28.3l-5.4-.1H1474q-1.9 0-3.8.2l-3.3.5-4.4 2.9-2.6 3.1-1 3-.1 4v9.4l.1 3.6h-9l.1-3.5v-4.7l.2-4.6-.3-4.2-3-5-2.3-2.3-2.7-1.7-3.2-.5H1389l-5.7-.1h-102.9l-3.3.6-3.3 2.3-2.7 2.7-2 4-.2 4.1v4.6l.1 4.7.1 3.6h-9l.1-3.7.2-5v-4.8l-.3-4.5-1.8-3.5-2.2-2.5-4-2-3-.3h-38.8l-5.5-.1h-47l-5.9-.1h-33.7l-5.4-.1h-22.4l-3.3.6-3.3 2.2-2.7 2.8-2 5-.2 4v4.3l.1 4.4.1 3.3h-9l.1-3.3v-4.3l.2-4.3-.3-4.1-1.2-3.3-1.8-2.7-2.2-2.1-2.8-1.9-3.2-.5H900.2l-3.2.5-2.8 1.9-2.2 2.1-1.8 2.7-1.2 3.3-.3 4 .1 4.4v4.3l.2 3.3h-9l.1-3.5.1-4.6.2-4.6-.4-4.3-1.8-3.4-2.2-2.6-4-3-3-.4h-97.3l-5.8-.1h-55.7l-3.2.5-2.8 1.9-2.2 2.1-1.8 2.7-1.2 3.3-.3 4 .1 4.4v4.3l.2 3.3h-9l.1-3.5.1-4.6.2-4.5-.4-4.4-1.8-4-2.2-3-4-2-3-.3h-38.8l-5.5-.1h-47l-5.9-.1h-33.7l-5.4-.1h-22.4l-3.3.6-3.3 2.3-2.7 2.7-2 4-.2 4.1v4.6l.1 4.7.1 3.6h-10l.2-4 .1-5.1.2-5.2-.5-4.7-2.4-3.6-2.6-2.4-2-1-2.8-.1h-12.6l-4.9-.1h-44.6l-5.9-.1h-30l-5.9-.1h-43.6l-4.6-.1h-7.9l-3.2.5-2.8 1.8-2.2 2.2-2 4-.2 4.3v5l.1 4.9.1 3.8h-10l.1-3.7.1-5 .2-4.8-.4-4.5-1.8-3.5-2.2-2.5-4-2-3-.3h-85.4l-6-.1H167l-5.4-.1h-22.4l-3.2.5q-1.4.7-2.7 1.7L131 410l-1.8 2.8-1.2 3.2-.4 3.6v30.8l.1 3v47.4l.1 3.3v54.3l.1 3v29.7l.1 6.9h-26V201h26v122.3l-.1 5.5v33.8l.1 4.4v5l.3 5.2v4.7l.7 4.1 1.8 3.4 2.2 2.6 4 2 3 .3h27.6l5.4.1H213l6 .1h11.8l5.8.1h28.1l5.4.1h24q1.9 0 3.7-.2l3.3-.5 4.4-2.9 2.6-3.1 1-3 .1-4v-9.4l-.1-3.6h10l-.1 3.3v4.3l-.2 4.3.3 4.1 1.2 3.3 1.8 2.7 2.2 2.1 2.8 1.9 3.2.5h140.4l4.9-.1h12.3l3.2-.4 5-3 3-5 .3-4.4-.1-5v-4.8l-.2-3.8h10l-.1 3.3v4.3l-.2 4.3.3 4.1 1.2 3.3 1.8 2.7 2.2 2.1 2.8 1.9 3.2.5h157.5l3.3-.5 3.3-1.9 2.7-2.1 1.9-2.7 1.1-3.3.3-4-.1-4.4v-4.3l-.2-3.3h9l-.1 3.3v4.3l-.2 4.3.3 4.1 1.1 3.3 1.9 2.7 2.7 2.1 3.3 1.9 3.3.5h139.4l4.9-.1h12.3l3.1-.4 5-3 2.3-2.6 1.7-3.4.4-4.3-.1-4.6-.2-4.6-.1-3.5h9l-.1 3.5-.1 4.6-.2 4.6.4 4.3 1.8 3.4 2.2 2.6 4 3 3 .4h157.8l3.2-.4 5-3 3-4 1-3 .1-3.8v-8.8l-.1-3.4h9l-.1 3.3v4.3l-.2 4.3.3 4.1 1.2 3.3 1.8 2.7 2.2 2.1 2.8 1.9 3.2.5h140.4l4.9-.1h12.3l3.2-.4 5-3 2.3-2.6 1.7-3.4.4-4.3-.2-4.6v-4.6l-.2-3.5h10l-.1 3.7-.2 5v4.8l.3 4.5 1.8 3.5 2.2 2.5 3 2 3 .3h145.5l4.5.1h7.8l3.2-.4 5-3 3-4 1-3 .1-3.8v-8.8l-.1-3.4h9l-.1 3-.2 4v4.1l.3 3.9 1.8 4.8 2.2 3.2 4 3 3 .4h97.2l5.8.1h55.7l3.3-.5 3.3-1.7 2.7-2.3 2-5 .2-4.2v-4.6l-.1-4.7-.1-3.5h10l-.1 3.3v4.3l-.2 4.3.3 4.1 1.2 3.3 1.8 2.7 2.2 2.1 2.8 1.9 3.2.5h157.5l3.3-.5 3.3-1.8 2.7-2.2 2-4 .2-3.4V276.5l-.1-3.3V208l-.1-7h28v331h16v-45.2l.1-5.3v-61.4l.1-5.8v-69l.1-3v-69.1l.1-5.6v-41.2l.1-4.6V206l-.5-5.9-1.8-3.7-2.2-2.3-4-2-3.8-.2h-14.5l-5.1.1h-9.4l-3.2.1v-8l.1-5.3V173l.1-6v-15.4l.1-3.2V142l.1-3.2v-15.1l.2-5.7v-10l-.6-4.1-2.3-3.5-2.7-2.5-3-1-3-.1h-7.7l-4.6-.1h-15.2l-5.4-.1H1758l-6-.1h-17.7l-5.9-.1h-17.3l-11.2-.1H1689l-5.3-.1H1665q-1.8 0-3.7.2l-3.3.5-4.4 3-2.6 3-1 2-.1 3.5v80.2l.1 3.3h-10v-7.9l.1-5.2v-14.5l.1-3v-15.7l.1-3v-18.1l.2-5.7V109l-.5-4-1.8-3.4-2.2-2.6-4-2-3-.3h-85.4l-6-.1H1498l-5.4-.1h-22.4l-3.2.5-2.8 1.9-2.2 2.1-1.8 2.7-1.2 3.3-.4 4v9.6l.1 5.6v20.6l.1 3v23.8l.1 5.6v9.6l.1 3.2h-9v-7.8l.1-5.2v-11.3l.1-6v-15.4l.1-3.1v-17.8l.2-5.6V110l-.5-4-1.7-3.3-2.3-2.7-5-3-3.1-.4H1342l-5.8-.1h-54.9l-3.3.5c-1.6 1-1.6 1-3.3 1.8l-2.7 2.2-1.9 3.2-1.1 3.8-.4 4v9.6l.1 5.5v20.4l.1 3v23.4l.1 5.5v9.5l.1 3.1h-9v-7.7l.1-5V168l.1-5.9V147l.1-3v-17.6l.2-5.5V111l-.5-4.1-1.7-3.8-2.3-3.2-5-3-3.2-.4h-96.5l-5.8-.1h-55.3l-3.2.5-2.8 1.8-2.2 2.2-2 3-.2 3.7v46.9l.1 3.1v31l.1 3.3h-10v-7.7l.1-5V168l.1-5.9V147l.1-3v-17.6l.2-5.5V111l-.5-4.1-1.7-3.8-2.3-3.2-5-3-3.2-.4H1014l-5.6-.1h-75l-5.4-.1h-27.6l-3.3.6-3.3 2.3-2.7 2.7-2 4-.2 3.7v45.8l.1 3v30.3l.1 3.2h-9v-7.7l.1-5V168l.1-5.9V147l.1-3v-17.6l.2-5.5V111l-.5-4.1-1.7-3.8-2.3-3.2-5-3-3.2-.4H824l-5.6-.1h-75l-5.4-.1h-27.6l-3.3.6-3.3 2.3-2.7 2.7-2 4-.2 3.7v45.8l.1 3v30.3l.1 3.2h-9v-7.7l.1-5V168l.1-5.9V147l.1-3v-17.6l.2-5.5V111l-.5-4.1-1.7-3.8-2.3-3.2-5-3-3.2-.4H634l-5.6-.1h-75l-5.4-.1h-27.6l-3.3.6-3.3 2.3-2.7 2.7-2 4-.2 3.7v45.8l.1 3v30.3l.1 3.2h-10v-3.3l.1-4.6V179l.1-5.7v-11.8l.1-3v-9.5l.1-3v-6.2l.1-3.2v-11.8l.2-5.6v-10l-.7-4.1-3-4-3-3-2-1-2.8-.1h-12.4l-4.8-.1h-21.3l-5.5-.1h-35l-5.9-.1h-17.6l-5.7-.1h-37.3l-4.6-.1h-7.8l-3.3.6-3.3 2.3-2.7 2.7-2 4-.2 3.7v45.8l.1 3v30.3l.1 3.2h-10v-7.8l.1-5.2v-11.3l.1-6v-15.4l.1-3.1v-17.8l.2-5.6V110l-.5-4-1.8-3.3c-1-1.4-1-1.4-2.2-2.7l-4-3-3-.4h-96.6l-5.8-.1h-55.3z" style="fill:#f1f1f1" transform="translate(190 157)"/>
  <path d="m0 0 6-.1h183.6l3.6-.1H531l4.3-.1h530l4.6-.1h258.6l4.5-.1h515.9l3.6-.1h161.8l3.5.1 3.3.5 3.4 1 3.3 1.4L2033 5l3.1 2 2.3 2 2.4 2.4 2.2 2.6 2 3 1.6 3.3 1.3 2.9 1.1 2.8 1 5 .1 4v218.6l.1 5.4V821l.1 5.9v517.3l-.3 4.7-1.4 5.3-1.6 4.7-2.7 5.2-3.3 4.8-3.6 3.8-4.4 3.2-3 1.5-3.2 1.4-3 1.2-2.8.9-4 1-5.1.1H1316l-4.2-.1H1293l-.4 3.8-.5 4.9-.6 4.9-.5 4.4-1.1 5-1.2 3.9-1.4 4.2-1.3 3.9-1.2 3.3-1.2 3-1.2 2.8-1.4 2.9-1.6 3.2-1.7 3.4-1.8 3.2-1.9 3.2-2.2 3-2.2 2.8-2.4 2.7-2.2 2.5-3.7 4.1-4.3 3.9-3.2 2.3-3.6 2.4-3.7 2.3-3.5 2-2.8 1.6-2.6 1.3-2.7 1.1-2.9 1-3.5 1-3.8.8-4.1.7-4.6.5-5.4.3-5.6.1h-5.7l-5.3-.4-4.4-.6-4-.9-3.8-1.1-3.8-1.4-4-1.6-4.1-1.9-4-2.1-3.9-2.4-3.8-2.7-3.6-3-3.4-3.1-3.2-3.2-2.8-3.1-2.6-3.2-2.4-3.2-2.2-3.5-2.2-3.9-2.1-4-1.8-3.6-1.9-4.5-5-15-1 225H917v-253H790.8l-6.5.1H595.9l-4 .1H401.4l-4.1.1H198.5l-3.8.1H63.5l-3.1.1H8.2l-3.8-.1-3.4-.4-5.7-1.9-4.3-2.1-4.7-2.7-4.3-3.3-3.8-4.3-3.2-4.7-2.4-4.7-1.6-4.3-.6-2.7-.4-3.3-.1-4.2v-218.5l-.1-5.4V557.8l-.1-5.8V34.7l.3-4.7 1.4-5.3L-27 20l2.6-4.1L-21 12l2.1-2.2 2.3-2.1L-12 4l3.8-2L-5 1zm36 38-3.4 1-3.2 1.3-2.8 1.3L24 43l-4.4 3.3L16 50l-2.8 3.7L11 58l-1.6 5-.8 3.2L8 70q0 2.3-.3 4.4v5L7.5 85v768l-.1 5.5v443.2l.1 5 .4 4.4.8 3.8 1 3.2 2.2 5 2.8 4.9 3.2 4.1 3.4 3.3 3.6 2.7 4.3 2.3 3.7 1.7 3 1 5.5.1h105.4l3.2.1h186.8l3.9.1h264.5l4.2.1H996l4.4.1h168l4.4.1h244.6l4.1.1H1650l4 .1H1920l5.7.1h51.4l3.5-.3 3.4-.6 3.8-1.5 3.8-1.8 3.4-1.8 3-1.9 2.5-2 2-2.2 3.5-4.8 2.7-5 1.3-3.2 1-3.8.5-4.5.1-5V708l-.1-5.7V127l-.1-3.9V76.2l-.1-5-.3-4.2-.6-3.3-.8-2.7-1.6-4-2.7-4.2-3.3-3.8-3.3-3.2-3.7-2.8-4.7-2.3-4.3-1.7-4-1-5.6-.1h-176.8l-3.6-.1H1471l-4.1-.1H956.4l-4.5-.1H703l-4.2-.1H201.9l-3.5-.1H42.6l-3.3.1z" style="fill:#a7a8a9" transform="translate(190 157)"/>
  <path d="m0 0 4.2-.1H131L167 0v162l9-1 1-160h180v161h10V1h180l.1 40.3v19.3l.1 5.9v36.7l.1 3.3V145l.1 3.1v20.3l.1 5.2v8.8l-.5 3.7-1.8 3.4-2.2 2.6-4 2-3 .3h-38.5l-5.5.1h-46.7l-5.9.1h-22.6l-16.2.1h-22.3l-3.3-.6-3.3-2.2-2.7-2.8-2-5-.2-4v-4.3l.1-4.4.1-3.3h-10l.1 3.5v4.6l.2 4.6-.3 4.3-1.2 3.4-1.8 2.6-5 3-3.2.4h-97.2l-5.8.1h-55.6l-3.2-.5-2.8-1.9-2.2-2.1-1.8-2.8-1.2-4.2-.2-3.8v-8.1l.2-3.1h-9l.3 12-.3 4-1.3 3.3-1.7 2.7-3 3-3 1-3 .1h-12.3l-4.8.1h-44l-6 .1H58.5l-5.8.1H9.5l-4.5.1h-7.8L-6 194l-2.8-1.8-2.2-2.2-2-4-.2-4.3v-5l.1-4.9.1-3.8h-10l.1 3.5.1 4.6.2 4.6-.4 4.3-1.7 3.4-2.3 2.6-5 3-3.2.4H-79l-5.6.1h-75l-5.4.1h-27.6l-3.3-.6-3.3-2.2-2.7-2.8-2-5-.2-4v-4.3l.1-4.4.1-3.3h-9l.3 12-.3 4-1.3 3.3-1.7 2.7-3 3-3 1-6.5.2h-34.9l-5.5.1h-35l-5.8.1h-17.6l-5.7.1h-37.4l-4.5.1h-7.8l-3.3-.6-3.3-2.3-2.7-2.7-2-4-.2-4.1v-4.7l.1-4.6.1-3.6h-9l.1 3.5.1 4.6.2 4.6-.4 4.3-1.7 3.4-2.3 2.6-5 3-3.1.4H-511l-5.8.1h-54.9l-3.3-.5-3.3-1.9-2.7-2.1-1.9-2.7-1.1-3.3-.3-4 .1-4.4v-4.3l.2-3.3h-9l.2 3.2.1 4.3v4.4q0 2-.3 4.1l-2.2 4.9-2.8 3.1-4 2-3 .3h-38.5l-5.5.1h-46.7l-5.9.1H-735l-5.3.1h-22.3l-3.3-.6-3.3-2.2-2.7-2.8-2-5-.2-4v-4.3l.1-4.4.1-3.3h-10l.1 3.7.1 5 .2 4.8-.4 4.5-1.8 3.5-2.2 2.5-4 2-3 .3h-38.5l-5.5.1h-46.7l-5.9.1H-925l-5.3.1h-22.3l-3.3-.6-3.3-2.2-2.7-2.8-2-5-.2-4v-4.3l.1-4.4.1-3.3h-10l.1 3.5v4.7l.2 4.6-.3 4.2-3 5-2.3 2.3-2.7 1.7-3.2.5h-157.5l-3.3-.5-3.3-1.8-2.7-2.2-2-4-.2-3.4V76.4l.1-3.3V41.3l.1-40.3h180v161h10V1h180v161h10V1h180v161h10V1h180l1 161h9V1h181v161h10V1h180v161h10V1z" style="fill:#a4a5aa" transform="translate(1473 357)"/>
  <path d="m0 0 2.8-.1h12.5L20-.3h44.3l6-.1H100l5.8-.1h43.3l4.6-.1h7.9l3.3.5 3.3 1.8L171 4l2 4 .2 4.3v5l-.1 4.9-.1 3.8h10l-.1-3.7-.2-5v-4.8L183 8l1.8-3.5L187 2l3-2 3-.3h38.9l5.6-.1h47.3l6-.1h33.9l5.4-.1h22.6l3.3.6 3.4 2.4L362 5l1 2 .1 4.4v10.5L363 26h10l-.1-3.5-.1-4.6-.2-4.6.4-4.3 1.8-3.4L377 3l4-3 3-.4h158.8l3.2.4 5 3 1.8 2.6L554 9l.3 4.3-.1 4.6v4.6L554 26h9l-.1-3.3-.1-4.3V14l.2-4 1.8-4.3L567 3l4-3 3-.4h44.3l5.7-.1h75.5l5.4-.1h27.8l3.3.6 3.3 2.3L742 5l2 4 .2 4.1v4.7l-.1 4.6-.1 3.6h9l-.1-3.3-.1-4.3V14l.2-4 1.8-4.3L757 3l4-3 3-.4h44.3l5.7-.1h75.5l5.4-.1h27.8l3.3.6 3.3 2.2L932 5l2 5 .2 4v4.3l-.1 4.4-.1 3.3h9l-.1-3.3v-4.3l-.2-4.3.3-4.1 1.2-3.3L946 4l2.2-2.1L951 0l3.2-.5h141.3l4.9.1h12.4l3.2.4 5 3 3 5 .3 4.4-.1 5v4.8l-.2 3.8h9l-.1-3.5-.2-4.6v-4.6l.3-4.3 1.8-3.4L1137 3l4-3 3-.4h22.4l5.4-.1h57.5l5.9-.1h34.2l5.4-.1h24.1l3.8.1 3.3.6 4.4 2.9L1313 6l1 3 .1 4v9.4l-.1 3.6h9l-.1-3.5v-4.7l-.2-4.6.3-4.2 3-5 2.3-2.3L1331 0l3.2-.5h158.5l3.3.5 3.3 1.8L1502 4l2 4 .2 4.3v5l-.1 4.9-.1 3.8h10l-.1-3.7-.2-5v-4.8l.3-4.5 1.8-3.5L1518 2l3-2 3-.3h38.9l5.6-.1h47.3l6-.1h33.9l5.4-.1h22.6l3.3.6 3.4 2.4L1693 5l1 2 .1 3.2v142.2l-.1 40.6h-180V32h-10v161h-180V32h-10v119.6l.1 5.3v32.5l-.1 2.6-1 1-3 .1h-136.8l-39.2-.1V32h-10v161H944V32h-10v119.6l.1 5.3v32.5l-.1 2.6-1 1-3 .1H757l-2.9-.1-1-1-.1-2.6V38l.1-3.6V32h-10v160H563V32h-9l-1 160H373V32h-10v160H183V32h-10v160H-7l-.2-40.3v-45.1l-.1-3.4v-20l-.1-3.3V48l-.1-3.1V24.7l-.1-5.2v-8.8L-7 7l2.4-3.4L-2 1z" style="fill:#93959b" transform="translate(326 563)"/>
  <path d="M0 0h134.5l3-.1H177l3 .1 1 1 .1 2.6V155l-.1 3.6v2.5h10V1h179l.5 51.9.2 16v13.2l.1 3.5v7.3l.1 3.7v7.2l.1 7.2v50h9V41.4l-.1-5.3V3.6L380 1l1-1 3-.1h137.7L561 0v161h9V41.4l-.1-5.3V3.6L570 1l1-1 3-.1h137.7L751 0v161h199V1h181v160h10V1h180l.4 39.6v13.2l.1 5.8v5.8l.1 6.4v9.9l.1 3.3v9.9l.1 3.3v6.5l.1 3.3v3.2l.1 9.7v9.3l.1 3.2v9.1l.1 3v3l.1 6v11l.1 5v8.8q0 1.8-.4 3.7-.7 1.9-1.7 3.8l-2.3 3.2-2.8 2-3.2 1-3.3.4h-43.6l-5.6.1H1185l-5.4.1H1156l-3.8-.1-3.1-.5-3.8-2.2-2.2-2.8-2-5-.2-4v-4.3l.1-4.4.1-3.3h-10l.1 3.5v4.7l.2 4.6-.3 4.2-3 5-3 3-3 1-2.9.1h-7.7l-4.6.1h-15.1l-5.4.1h-27.9l-5.9.1h-17.7l-5.8.1h-17.3l-5.6.1h-16.3l-5.2.1H966l-3.8-.2-3.2-.5-4.4-2.7-2.6-3.3-2-5-.2-3.8v-4l.1-4 .1-3.2h-9l.2 3.2.1 4.3v4.4q0 2-.3 4.1l-2.2 4.9-2.8 3.1-4 2-3 .3h-27.4l-5.4.1h-39.6l-6 .1H839l-5.8.1h-27.9l-5.4.1H776q-1.8 0-3.8-.2l-3.2-.5-4.4-2.9-2.6-3.1-1-3-.1-4v-9.4l.1-3.6h-10l.3 12-.3 4-1.3 3.3q-.8 1.4-1.7 2.7l-4 3-3 1-2.9.1h-7.6l-4.6.1h-15l-5.4.1h-27.8l-5.8.1h-17.5l-5.8.1h-17.2l-5.5.1h-16.2l-5.3.1H586l-3.8-.2-3.2-.5-4.4-2.7-2.6-3.3-2-5-.2-3.8v-4l.1-4 .1-3.2h-9l.1 3 .1 4v4.1l-.2 3.9-1.6 4.8-2.4 3.2-2.7 1.7-3.3 1.3-3.3.4H452l-5.8.1h-55l-3.1-.5-2.8-1.9-2.2-2.1-1.8-2.8-1.2-4.2-.2-3.8v-8.1l.2-3.1h-9l.1 3 .1 4v4.1l-.2 3.9-1.6 4.8-2.4 3.2-2.7 1.7-3.3 1.3-3.3.4h-43.6l-5.6.1H234l-5.4.1H205l-3.8-.1-3.1-.5-3.8-2.2-2.2-2.8-2-5-.2-4v-4.3l.1-4.4.1-3.3h-9l.1 3v4.1l.2 4-.3 3.9-1.1 3.2-1.9 2.8-2.7 2.6-3.3 2.4-3.3.6H11.3L8 193l-3.3-2.2L2 188l-2-5-.2-4v-4.3l.1-4.4.1-3.3h-10l.1 3.5.2 4.6v4.6l-.3 4.3-1.8 3.4-2.2 2.6-4 3-3 .4h-96l-5.7.1h-55l-3.3-.5-3.2-1.7-2.8-2.3-3-5-.3-4.2.1-4.6v-4.7l.2-3.5h-10l.1 3.5.2 4.6v4.6l-.3 4.3-1.6 3.4-2.4 2.6-2.7 1.6-3.3 1.4-3.3.4h-95.2l-5.7.1h-54.5l-3.3-.5-3.3-1.8-2.7-2.2-2-4-.2-4.4v-10.1l.2-4.5 1-4 189-1V1h180v160H0z" style="fill:#989aa0" transform="translate(699 956)"/>
  <path d="m0 0 3-.3h142.6l4.5-.1h7.7l3.2.4 3.3 1.4L167 3l2.4 2.6L171 9l.4 4.5-.2 4.9v4.9L171 27h10l-.1-3.8v-4.9l-.2-4.9.3-4.4 3-5 5-3 3.2-.4h44.2l5.7-.1h75.4l5.5-.1h27.7l3.3.6 3.3 2.3L360 6l2 4 .2 4.1v4.7l-.1 4.6-.1 3.6h9l-.1-3.7-.1-5-.2-4.8.4-4.5 1.8-3.5L375 3l3-2 3-.3h38.9l5.6-.1h47.3l6-.1h33.9l5.4-.1h22.6l3.3.6 3.3 2.3L550 6l2 4 .2 4.1v4.7l-.1 4.6-.1 3.6h9l-.1-3.5v-4.7l-.2-4.6.3-4.2 3-5 2.3-2.3L569 1l3.2-.5H622l5.7-.1h102.9l3.3.6 3.3 2.3L740 6l2 4 .2 4.1v4.7l-.1 4.6-.1 3.6h9l-.1-3.7-.1-5-.2-4.8.4-4.5 1.7-3.4L755 3l5-3 3.1-.4h95.2l5.7-.1h51l3.8.1 3.2.4 4.4 1.9L929 4l2 2.7 1 3.3.3 4.3-.1 4.6v4.6L932 27h10l-.2-4-.1-5.1-.2-5.2.5-4.7 2.4-3.6L947 2l2-1 2.8-.1h12.6l4.9-.1h44.6l5.9-.1h30l5.9-.1h43.6l4.6-.1h7.9l3.2.5 2.8 1.8L1120 5l2 4 .2 4.3v5l-.1 4.9-.1 3.8h10l-.2-4-.2-5-.2-5.2.6-4.8 2.8-4 3.2-3 3-1 2.9-.1h21.9l5.2-.1h61.9l5.8-.1h60.1l3.2.3 3.3 1.4L1308 3l2.4 2.6L1312 9l.4 4.5-.2 4.9v4.9l-.2 3.7h9l-.1-3.5-.2-4.6v-4.6l.3-4.3 1.6-3.3L1325 4l2.7-2.1L1331 0l3.2-.5h48.6l5.6-.1h96.5l3.8.1 3.3.5 4.8 2.3L1500 5l2 4 .2 4.3v5l-.1 4.9-.1 3.8h10l-.1-3.7-.2-5v-4.8l.3-4.5 1.7-3.4L1516 3l5-3 3.1-.4h154.7l3.2.4 3.2 1.2L1688 3c1.2 1 1.2 1 2.3 2.2L1692 8l.5 3.5v34.3l-.1 3.2V84l-.1 3.3V121l-.1 3.3v28.4l-.2 40.3h-180V32h-10v160h-180l-1-159-199-1v161H942V32l-10 1-1 159H752l-1-6-.1-3.1V37.8l.1-5.8h-9v110.4l.1 5v29.9l-.1 3.7-1 11H561V33H361v160H181V33h-10v160H-9l-.2-40.3v-45.1l-.1-3.4v-20l-.1-3.3V49l-.1-3.1V25.7l-.1-5.2v-8.8L-9 8l2.3-3.4L-4 2z" style="fill:#a6a8ad" transform="translate(328 1160)"/>
  <path d="m0 0 4.8-.5H294l3 .1h317.4l3.3.1h276.5l3.3.1H1225l5.8.1h208.8l3.1.1h9.3v1l-8 1-.2 5.2-.1 3.3-.1 3.4-.2 3.5v3.3l-.4 5.3-1 1-3.8.1h-355.6l-5.9.1H808.1l-3.2.1H423.3l-5.9.1h-365l-3 .1-5.6.1-4.8.4-3.7.8-3 1L28 32l-4.7 2.7Q21 36.3 19 38l-3.8 4.3L12 47l-2.4 4.8L8 56l-1 5-.1 3.9v206.5l-.1 5.1V808l-.1 5.6v489.3l.3 4.2.6 3.3.8 2.7 1.6 4 2.8 5.2 3.2 4.8 3.4 3.8 3.6 3.2 3.8 2.8 4.2 2.2 5.1 1.6 3 .8 2.9.6 5.2.4h222.6l5.9.1H507l3.2.1h273l3.3.1h195.7l3.2.1h206.4l3.1.1H1471l3.4.1h15.6l1 3.6 1 4.4.6 5.9.4 5.1 1 2v6h-285l-3 .1H729.1l-3.4.1H334l-9.3.1H9l-5-.3-5-1.4-4-1.6-2.9-1.8-2.3-2.1-2.3-2-2.5-3.1-3.1-4.8-1.6-3.3-1.3-3.9-.6-4.7q0-2.6-.2-5.3V30.8l.2-5.2.6-4.6 1.3-3.7 1.5-3L-15 10l3.4-3.4L-8 4l3.6-2.1z" style="fill:#b2b2b4" transform="translate(187 163)"/>
  <path d="m0 0 6-.1h183.6l3.6-.1H531l4.3-.1h530l4.6-.1h258.6l4.5-.1h515.9l3.6-.1h161.8l3.5.1 3.3.5 3.4 1 3.3 1.4L2033 5l3.1 2 2.3 2 2.4 2.4 2.2 2.6 2 3 1.6 3.3 1.3 2.9 1.1 2.8 1 5 .1 4v218.6l.1 5.4V821l.1 5.9v517.3l-.3 4.7-1.4 5.3-1.6 4.7-2.7 5.2-3.3 4.8-3.6 3.8-4.4 3.2-3 1.5-3.2 1.4-3 1.2-2.8.9-4 1-5.1.1H1316l-4.2-.1H1293l-.4 3.8-.5 4.9-.6 4.9-.5 4.4-1.1 5-1.2 3.9-1.4 4.2-1.3 3.9-1.2 3.3-1.2 3-1.2 2.8-1.4 2.9-1.6 3.2-1.7 3.4-1.8 3.2-1.9 3.2-2.2 3-2.2 2.8-2.4 2.7-2.2 2.5-3.7 4.1-4.3 3.9-3.2 2.3-3.6 2.4-3.7 2.3-3.5 2-2.8 1.6-2.6 1.3-2.7 1.1-2.9 1-3.5 1-3.8.8-4.1.7-4.6.5-5.4.3-5.6.1h-5.7l-5.3-.4-4.4-.6-4-.9-3.8-1.1-3.8-1.4-4-1.6-4.1-1.9-4-2.1-3.9-2.4-3.8-2.7-3.6-3-3.4-3.1-3.2-3.2-2.8-3.1-2.6-3.2-2.4-3.2-2.2-3.5-2.2-3.9-2.1-4-1.8-3.6-1.9-4.5-5-15-1 225H917v-253H790.8l-6.5.1H595.9l-4 .1H401.4l-4.1.1H198.5l-3.8.1H63.5l-3.1.1H8.2l-3.8-.1-3.4-.4-5.7-1.9-4.3-2.1-4.7-2.7-4.3-3.3-3.8-4.3-3.2-4.7-2.4-4.7-1.6-4.3-.6-2.7-.4-3.3-.1-4.2v-218.5l-.1-5.4V557.8l-.1-5.8V34.7l.3-4.7 1.4-5.3L-27 20l2.6-4.1L-21 12l2.1-2.2 2.3-2.1L-12 4l3.8-2L-5 1zm2 5-5.6 1.3L-8 8l-4.7 3-4.3 4-1.9 2.6-1.6 2.7L-23 25l-1 2-.1 3.7v85l-.1 4.6v163l-.1 5.5v262l-.1 6V767l-.1 6v159l-.1 5.8v194.7l-.1 5.4v204.1l.1 5.2.6 4.7 1.3 3.9 1.5 3.2 3.2 4.9 3.4 4 3.6 3 4.2 2.4 3.8 1.6 4 1 5.8.1h231.9l3.8.1h616.3l4.6.1h415.9l4.5.1h582.5l7.1.1h140.2l3.3-.1 3.1-.4 5.1-1.8 3.9-2.2 4.3-3.2 3.7-3.8 2.9-4.1 2.1-3.9 2-5q0-2 .3-4.1V990.1l.1-5.6V582.2l.1-6V268.6l.1-5.4V37.7l-.1-5.2-.5-4.5-1-3.4-1.3-2.7-2.7-3.9-3.7-4.4-4.3-3.6-5.2-2.4L2021 6l-4-1-5.8-.1h-338.4l-4.1-.1H808.9l-4.5-.1H16.2l-4-.1H8.5l-3.4.1z" style="fill:#0f0f0f" transform="translate(190 157)"/>
  <path d="m0 0 3.3-.1h4.3l4.7-.1h16L34-.4h11.4L51-.5h25q2 0 4 .4c2.1 1 2.1 1 4.3 1.8L88 4l2.9 3 2.1 3 2 4 .3 5.8V325l.1 4.6V346l-.1 3.2-.3 2.9-1.3 4.1L92 359l-3.6 3.4L85 365l-2 1-3.5.1H75l-5.2.1H49.5l-3 .1H31l-3.1.1H1q-2 0-4-.4l-3.4-1.9L-9 362l-2.2-2.4-1.8-2.6-2-5-.3-5.9V261l-.1-5.7v-99.5l-.1-3V77.3l-.1-5.5V20.2l.1-3.3.5-2.9 2.3-4.7L-10 6l3.6-3L-3 1z" style="fill:#d5d6d5" transform="translate(2039 1083)"/>
  <path d="m0 0 6-.3h1051.9l4.4-.1h552.1l4-.1h323.1l3.3.1 3.2.4 3.1.8 3 1L1959 4l4.8 2.8 4.2 3.2 3.3 3.3 2.7 3.7 2.8 5 2.2 5 1.1 3.8.9 4.2.3 4.3v331.1l.1 15.9v373.1l.1 5.6v289.3l.1 5.1v212l-.1 5-.5 4.6-1 4-1.4 3.6-2.6 5.4-2 3.5-1.7 2.4-2.1 2.7-2.2 2.4-4.4 3.4-4.6 2.6-4.7 2.3-4.3 1.7-5 1-5.7.1H1720l-7.3.1H1120l-4.4.1H715.7l-4.3.1H151.3l-3.4.1H9.7l-3.4-.1-3.3-.4-3.6-.8-3.5-1-3-1-2.9-1.2-4.8-3.2-4.2-3.8-2.2-2-2-2.2-2-2.3-1.8-2.5-3-5.7-2-5.3-1-5-.1-3.9v-206.5l-.1-5.1V538.7l-.1-22.3V38.2l.3-4.2.6-3.4.8-2.7L-30 24l1.5-3.1 1.7-2.6 1.8-2.8 2-2.5 4-4 4-3 4-2.3L-7 2l3-1zm0 5-3.4 1-3.2 1.3-2.8 1.3L-12 10l-4.4 3.3L-20 17l-2.8 3.7L-25 25l-1.6 5-.8 3.2-.6 3.8q0 2.3-.3 4.4v5l-.1 5.5v768l-.1 5.5v443.2l.1 5 .4 4.4.8 3.8 1 3.2 2.2 5 2.8 4.9 3.2 4.1 3.4 3.3 3.6 2.7 4.3 2.3 3.7 1.7 3 1 5.5.1h105.4l3.2.1h186.8l3.9.1h264.5l4.2.1H960l4.4.1h168l4.4.1h244.6l4.1.1H1614l4 .1H1884l5.7.1h51.4l3.5-.3 3.4-.6 3.8-1.5 3.8-1.8 3.4-1.8 3-1.9 2.5-2 2-2.2 3.5-4.8 2.7-5 1.3-3.2 1-3.8.5-4.5.1-5V675l-.1-5.7V94l-.1-3.9V43.2l-.1-5-.3-4.2-.6-3.3-.8-2.7-1.6-4-2.7-4.2-3.3-3.8-3.3-3.2-3.7-2.8-4.7-2.3L1950 6l-4-1-5.6-.1h-176.8l-3.6-.1H1435l-4.1-.1H920.4l-4.5-.1H667l-4.2-.1H165.9l-3.5-.1H6.6l-3.3.1z" style="fill:#0f0f0f" transform="translate(226 190)"/>
  <path d="M0 0h27v42.5l.1 3.1v25.2l.1 3.3v42.6l.1 3.2v33.6l.1 5.6v19.2q.4 1.8.6 3.7l1.8 3.9L32 189l4 2 3 .3h143.5l4.5.1h7.7l3.3-.4 3.2-1.2 2.8-1.8 3-5 .5-4.2.2-4.6.2-4.7.1-3.5h10v3.5l.3 4.6v4.6l.7 4.3 1.8 3.4 2.2 2.6 4 2 3 .3h84.3l5.9.1h39.2l5.3.1h22.2l3.1-.5 2.8-1.8 2.2-2.2 2-4 .4-4.1.2-4.7.3-4.6.1-3.6h10l.1 3.3.2 4.3.2 4.3.5 4.1 1.3 3.3 1.7 2.7 4 3 3 .4h44l5.6.1h75.1l5.4.1h27.6l3.3-.6 3.3-2.2 2.7-2.8 2-5 .4-3.8.2-4 .3-4 .1-3.2h9l.1 3.3.2 4.3.2 4.3.5 4.1 1.3 3.3 1.7 2.7 4 3 3 .4h118.5l5.4-.1h32.8l3.3-.3 3.3-.7 2.7-1.3 2-5 1-3 .3-3.6.3-4 .2-4.2.2-3.2h9v3l.3 4 .2 4.1.5 3.9 1.9 4.8 2.1 3.2 3 2q1.5 0 2.9.3h144.5l4.5.1h7.8l3.3-.4 3.3-1.4 2.7-1.6 1.8-2.7 1.2-4.3.4-3.8q0-2 .3-4.1l.2-4 .1-3.1h9l.1 3 .2 4.1.2 4 .5 3.9 1.2 3.2 1.8 2.8 2.2 2.1 2.8 1.9 3.1.5h138.6l4.8-.1h12.2l3.3-.4 3.3-1.4 2.7-1.6 1.8-2.7 1.2-3.3.5-4 .2-4.4.2-4.3.1-3.3h10l.1 3.5.2 4.7.2 4.6.5 4.2 3 5 4 3 3 .4H1337l3.1-.4 5-3 1.8-2.7 1.2-3.3.5-4 .2-4.4.2-4.3.1-3.3h9l.1 3 .2 4.1.2 4 .5 3.9 1.2 3.2 1.8 2.8 2.2 2.1 2.8 1.9 3.1.5h139.6l4.8-.1h12.4l3.1-.4 5-3 3-5 .5-4.2.2-4.6.2-4.7.1-3.5h10l.1 3.3.2 4.3.2 4.3.5 4.1 1.3 3.3 1.7 2.7 4 3 3 .4h156.7l3.3-.4 3.3-1.4 2.7-1.6 1.8-2.5 1.2-3.5.4-5 .2-5.6v-5.6l.4-4.8 2-4h1v88l-3 1v-7l-.2-4.4v-9.3l-.2-4.5v-4l-.6-3.8-1.7-3.3-2.3-2.7-2.7-1.6-3.3-1.4-3.2-.4h-94.6l-5.7-.1h-54.3l-3.2.5-3.3 1.8-2.7 2.2-2 4-.4 4.3-.2 5-.3 4.9-.1 3.8h-10l-.1-3.8-.2-4.9-.2-4.9-.5-4.4-3-5-2.8-1.8-3.2-1.2-3.2-.4h-94.6l-5.7-.1h-54.3l-3.2.5-3.2 1.7-2.8 2.3-3 5-.5 4.2-.2 4.6-.2 4.7-.1 3.5h-9v-3.7l-.2-5-.2-4.8-.6-4.5-1.7-3.5-2.3-2.5-5-2-3.1-.3h-142.6l-4.5-.1h-7.7l-3.1.4-5 3-3 4-.5 4.5-.2 5.3-.2 5.2-.1 4h-10l-.1-3.8-.2-4.9-.2-4.9-.5-4.4-3-5-3-2-3-.3h-85.9l-6-.1h-39.9l-5.4-.1h-22.6l-3.2.5-2.9 2-2.1 2-1 2-.3 4.4-.3 5.2-.2 5.3-.2 4.1h-10l-.1-3.5-.2-4.6-.2-4.6-.5-4.3-1.2-3.4-1.8-2.6-2.7-1.6-3.3-1.4-3.3-.4h-95.2l-5.7-.1h-54.5l-3.3.5-3.3 1.8-2.7 2.2-2 4-.4 4.3-.2 5-.3 4.9-.1 3.8h-9v-3.5l-.2-4.6-.2-4.6-.6-4.3-1.9-3.4-2.1-2.6-3-2-3-.3h-38.7l-5.5-.1h-47.1l-5.8-.1H637l-5.3-.1h-22.5l-3.3.6-3.4 2.4-2.6 2.6-1 3-.3 4-.3 4.7-.2 4.7-.2 3.6h-9v-3.5l-.2-4.6-.2-4.6-.6-4.3-1.9-3.4-2.1-2.6-3-2-3-.3h-39l-5.5-.1H486l-6-.1h-33.9l-5.4-.1h-22.6l-3.2.6-2.9 2.4-2.1 2.6-1 2-.3 4.1-.3 5-.2 5-.2 3.9h-9v-3.5l-.2-4.6-.2-4.6-.6-4.3-1.9-3.4-2.1-2.6-3-2-3-.3H229.3l-3.2.3-5 2-2 5-.4 4.4-.2 5-.3 4.8-.1 3.8h-10v-3.7l-.2-5-.2-4.8-.6-4.5-1.7-3.5-2.3-2.5-5-2-3.1-.3h-83.1l-5.8-.1H67.3l-5.2-.1H40.2l-3.2.5-3.2 1.7L31 208l-3 5-.4 3.5v24.8l-.1 6v24.5l-.1 3.1v29.4l-.1 3.3v22.9l-.1 3.2v21.6l-.1 3.1v29.7L27 395H0z" style="fill:#edeeef" transform="translate(291 957)"/>
  <path d="M0 0h180v161H0z" style="fill:#0b1023" transform="translate(1840 1192)"/>
  <path d="M0 0h180v161H0z" style="fill:#0b1023" transform="translate(1270 1192)"/>
  <path d="M0 0h180v161H0z" style="fill:#0b1123" transform="translate(509 1192)"/>
  <path d="M0 0h180v161H0z" style="fill:#0b1023" transform="translate(319 1192)"/>
  <path d="M0 0h180v161H0z" style="fill:#0a0f21" transform="translate(1840 358)"/>
  <path d="M0 0h180v161H0z" style="fill:#0a0f21" transform="translate(1650 358)"/>
  <path d="M0 0h180v161H0z" style="fill:#0a1022" transform="translate(699 358)"/>
  <path d="M0 0h180v161H0z" style="fill:#0a1022" transform="translate(509 358)"/>
  <path d="M0 0h180v161H0z" style="fill:#0a1022" transform="translate(319 358)"/>
  <path d="M0 0h179v161H0z" style="fill:#0a0f21" transform="translate(1460 358)"/>
  <path d="M0 0h179v161H0z" style="fill:#0a0f21" transform="translate(1270 358)"/>
  <path d="M0 0h179v161H0z" style="fill:#0a0f21" transform="translate(1080 358)"/>
  <path d="M0 0h179v161H0z" style="fill:#0a0f21" transform="translate(890 358)"/>
  <path d="M0 0h180v160H0z" style="fill:#0a1022" transform="translate(1650 1192)"/>
  <path d="M0 0h180v160H0z" style="fill:#0a1022" transform="translate(1840 957)"/>
  <path d="M0 0h180v160H0z" style="fill:#0a1022" transform="translate(1650 957)"/>
  <path d="M0 0h180v160H0z" style="fill:#0a1022" transform="translate(509 957)"/>
  <path d="M0 0h180v160H0z" style="fill:#0a1022" transform="translate(319 957)"/>
  <path d="M0 0h180v160H0z" style="fill:#0a0f22" transform="translate(319 595)"/>
  <path d="M0 0h179v160H0z" style="fill:#0a0f22" transform="translate(1080 1192)"/>
  <path d="M0 0h179v160H0z" style="fill:#0a0f22" transform="translate(890 1192)"/>
  <path d="M0 0h179v160H0z" style="fill:#0a0f21" transform="translate(1460 957)"/>
  <path d="M0 0h179v160H0z" style="fill:#0a0f21" transform="translate(1270 957)"/>
  <path d="M0 0h179v160H0z" style="fill:#0a0f21" transform="translate(1080 957)"/>
  <path d="M0 0h179v160H0z" style="fill:#0a0f21" transform="translate(890 957)"/>
  <path d="M0 0h179v160H0z" style="fill:#0a0f21" transform="translate(700 957)"/>
  <path d="M0 0h179v160H0z" style="fill:#0a0f22" transform="translate(1841 595)"/>
  <path d="M0 0h179v160H0z" style="fill:#0a0f22" transform="translate(1650 595)"/>
  <path d="M0 0h179v160H0z" style="fill:#0a0f22" transform="translate(1460 595)"/>
  <path d="M0 0h179v160H0z" style="fill:#0a0f22" transform="translate(1080 595)"/>
  <path d="M0 0h179v160H0z" style="fill:#0a0f22" transform="translate(700 595)"/>
  <path d="M0 0h179v160H0z" style="fill:#0a0f22" transform="translate(1270 595)"/>
  <path d="M0 0h179v160H0z" style="fill:#0a0f22" transform="translate(890 595)"/>
  <path d="M0 0h179v160H0z" style="fill:#0a0f22" transform="translate(510 595)"/>
  <path d="M0 0h179v159H0z" style="fill:#0a0f22" transform="translate(700 1193)"/>
  <path d="M0 0h179v159H0z" style="fill:#0a0f22" transform="translate(1460 1193)"/>
  <path d="M0 0h917l2 8 .6 5.9.4 5.1 1 2v6H-5l2-13z" style="fill:#cccdcf" transform="translate(760 1506)"/>
  <path d="m0 0 3.8-.3h7.4L15 0l4.2.4 4.2.7 4.3.8L32 3l4.2 1.4 4 1.7 4 1.9 3.8 2 3.5 2 3.3 2.3 3.2 2.3 3 2.4 3 2.5 2.8 2.7 2.6 2.8 2.6 3 2.5 3.4L77 37l2.2 3.6L81 44l1.5 2.8 1.3 2.7L86 55l1.2 2.8 1.1 3.2 1 3.5.7 4.5.2 3 .2 3.4v13.9l-.1 3.4L90 96l-.6 3.5-.8 3.4-.8 3.2-.8 2.9-1.4 4.2-1.3 3.4-1.6 3.8L81 124l-1.6 3-1.7 2.8-1.8 2.6L74 135l-2.1 2.6-2.3 2.6-2.3 2.5L65 145l-2.2 2.2-2.1 2-2.3 2L56 153l-2.6 1.8-2.9 1.8-3 1.7L44 160l-4 1.7-4.4 1.6-4.4 1.5L27 166l-3.4.8-3.2.6-3.1.3-3.3.3-3.7.3h-8L-2 168l-4.5-.7-4.6-1-4.6-1-4.3-1.3-3.9-1.3-3.5-1.4-3.4-1.6-3.2-1.7-3-1.8-2.7-2-2.7-2-2.6-2.2-2.6-2-2.5-2.1-2.4-2.3-2.5-2.6-2.6-3.3-2.6-3.5-2.5-3.7-2.3-3.5-1.8-3.1-1.6-3-1.4-2.9-1.2-3-1.2-3.2-1-3.3-1-3.3-.8-3.2-1.2-5.7-.5-3-.3-3.3-.3-4v-8.6q0-2.3.3-4.4l.7-4.2 1-4 1-4L-73 57l1.3-3.7 1.4-3.5 1.5-3.4L-67 43l2-3.4 2.2-3.3 2.3-3.2L-58 30l2.5-3 2.7-2.7 2.8-2.7 3-2.6 3.3-2.4 3.4-2.4 3.6-2.1L-33 10l3.9-2 4-1.9 4-1.7L-17 3l4.3-1.1 4.3-.8 4.2-.7z" style="fill:#afafaf" transform="translate(1189 1554)"/>
  <path d="m0 0 3-.3h146.4l4.5-.1h7.9l3.2.4 5 3 3 5v87H-7V8l4-6z" style="fill:#0a1021" transform="translate(1657 254)"/>
  <path d="m0 0 2.8-.1H25l5.3-.1h63.3l5.8-.1h61.3l3.2.3 5 3 3 4v88H-8V8l6-7z" style="fill:#0a0f22" transform="translate(1848 254)"/>
  <path d="m0 0 3-.3h38.5L47-.5h46.7l5.9-.1H133l5.3-.1h22.3l3.3.6 3.3 2.3L170 5l2 4v86H-8V8l4-6z" style="fill:#0a1022" transform="translate(327 254)"/>
  <path d="m0 0 3-.4h157.8l3.2.4 5 3 3 5v87H-8V9l4-6z" style="fill:#0a1021" transform="translate(707 254)"/>
  <path d="m0 0 3-.4h22.2l5.4-.1h57.1l6-.1h33.9l5.4-.1h24l3.7.1 3.3.6 4.4 3 2.6 3 1 2v87H-8V9l4-6z" style="fill:#0a1022" transform="translate(517 254)"/>
  <path d="m0 0 2.8-.1h12.4L20-.3h44l5.9-.1h29.6l5.8-.1h43l4.6-.1h7.8l3.3.5 3.3 1.8L170 4l2 3v88H-7V7l5-6z" style="fill:#0a0f21" transform="translate(1087 254)"/>
  <path d="m0 0 3-.3H160l3.1.3 5 3 3 4v88H-8V8l4-6z" style="fill:#0a0f21" transform="translate(1468 254)"/>
  <path d="m0 0 3-.3h84.7l6-.1H133l5.3-.1h22.3l3.3.5 3.3 1.8L170 4l2 3v88H-7V7l4-5z" style="fill:#0a0f21" transform="translate(1277 254)"/>
  <path d="m0 0 2.8-.1H25l5.3-.1h63.3l5.8-.1h61.3l3.2.3 5 3 3 5v87H-7V7l5-6z" style="fill:#0a0f21" transform="translate(897 254)"/>
  <path d="M0 0h180v79l-3 6-5 3-3.2.4H71.6l-5.8.1H10.2L7 88l-2.8-1.7L2 84l-2-5z" style="fill:#0b1022" transform="translate(1650 1361)"/>
  <path d="M0 0h180v78l-3 6-2.3 2.3L172 88l-3.2.5H119l-5.7.1H10.3L7 88l-3.4-2.4L1 83l-1-3z" style="fill:#0b1022" transform="translate(1080 1361)"/>
  <path d="M0 0h180v80l-3 5-4 3-3 .4h-44.3l-5.7.1H44.5l-5.4.1H11.3L8 88l-3.3-2.2L2 83l-2-5z" style="fill:#0b1022" transform="translate(699 1361)"/>
  <path d="M0 0h180v80l-4 6-3 2-3 .3h-38.7l-5.5.1H78.7l-5.8.1H39l-5.3.1H11.3L8 88l-3.3-2.2L2 83l-2-5z" style="fill:#0b1022" transform="translate(509 1361)"/>
  <path d="M0 0h180v80l-4 6-4 2-3 .3h-17.4l-5 .1h-21.9l-5.7.1H89.6l-6 .1H71.9l-5.8.1H43.5l-5.4.1H14q-1.9 0-3.8-.2L7 88l-4-3.4L1 81l-1-3z" style="fill:#0b1022" transform="translate(1840 1361)"/>
  <path d="M0 0h180v78l-3 6-2.3 2.3L172 88l-3.2.5H10.2L7 88l-2.8-1.7L2 84l-2-5z" style="fill:#0b1022" transform="translate(1270 1361)"/>
  <path d="M0 0h180v78l-3 6-2.3 2.3L172 88l-3.2.5H119l-5.7.1h-103L7 88l-2.8-2.2L2 83l-2-5z" style="fill:#0b1023" transform="translate(1460 1361)"/>
  <path d="M0 0h180v78l-3 6-2.3 2.3L172 88l-3.2.5H28.4l-4.9-.1H11.2L8 88l-5-3-3-6z" style="fill:#0b1022" transform="translate(319 1361)"/>
  <path d="M0 0h179v80l-4 6-4 2-3 .3h-38.5l-5.5.1H77.3l-5.9.1H37.8l-5.2.1H10.3L7 88l-3.4-2.4L1 83l-1-3z" style="fill:#0b1022" transform="translate(890 1361)"/>
  <path d="m0 0 2.8-.1h12.4L20-.3h44l5.9-.1h29.6l5.8-.1h43l4.6-.1h7.8l3.3.5 3.3 1.8L170 4l2 3v80H-8V8l6-7z" style="fill:#0b1021" transform="translate(1848 861)"/>
  <path d="m0 0 3.1-.4h156.6l3.3.4 3.2 1.2L169 3l3 5v79H-8V8l3-5z" style="fill:#0b1021" transform="translate(1658 861)"/>
  <path d="m0 0 3-.3H160l3.1.3 5 3 4 6v78H-8V7l4-5z" style="fill:#0b1021" transform="translate(1468 861)"/>
  <path d="m0 0 3-.3h84.3L93-.5h39.2l5.3-.1h22.1l3.3.5 3.2 1.7L169 4l3 5v78H-8V7l4-5z" style="fill:#0b1021" transform="translate(1278 861)"/>
  <path d="m0 0 3.1-.4H99l5.8-.1h54.9l3.3.5 3.3 1.8L169 4l2 4v79H-9V9l4-6z" style="fill:#0b1021" transform="translate(708 861)"/>
  <path d="m0 0 3.1-.4H99l5.8-.1h54.9l3.3.5 3.3 1.8L169 4l2 4v79H-9V9l4-6z" style="fill:#0b1022" transform="translate(518 861)"/>
  <path d="m0 0 3.1-.4H160l3.1.4 5 3 4 6v78H-8V8l3-5z" style="fill:#0b1022" transform="translate(327 861)"/>
  <path d="m0 0 3.4-.7h118.9l5.5.1h32.9l3.3.6 3.3 1.8L170 4l2 3v80H-7V6z" style="fill:#0a1021" transform="translate(1087 861)"/>
  <path d="m0 0 2.8-.1h22.1l5.3-.1h62.9l5.8-.1h60.9l3.2.3 5 3 4 5v79H-7V7l5-6z" style="fill:#0a1021" transform="translate(897 861)"/>
  <path d="M0 0h180v76l-3 6-2.8 2.3L171 86l-3.3.5H11.3L8 86l-3.3-1.8L2 82l-2-4z" style="fill:#0c1122" transform="translate(1080 764)"/>
  <path d="M0 0h180v77l-3 6-2.8 1.9L171 86l-3.3.4h-43.6l-5.6.1H44l-5.4.1H15l-3.8-.1L8 86l-3.8-2.2L2 81l-2-5z" style="fill:#0b1122" transform="translate(509 764)"/>
  <path d="M0 0h180v78l-4 6-5 2-3.1.3H84.2l-5.8.1H39.5l-5.2.1h-22L9 86l-3.2-1.7L3 82l-3-5z" style="fill:#0b1122" transform="translate(699 764)"/>
  <path d="M0 0h180v76l-3 6-4 3-3 1-2.9.1H155l-4.8.1h-43.4l-5.8.1H71.7l-5.7.1H23.5l-4.5.1h-7.7L8 86l-3.3-1.8L2 82l-2-4z" style="fill:#0b1122" transform="translate(1270 764)"/>
  <path d="M0 0h180v76l-3 6-2.8 2.3L171 86l-3.3.5H33.3l-9.9-.1H11.1L8 86l-5-3-3-5z" style="fill:#0b1122" transform="translate(1650 764)"/>
  <path d="M0 0h180v76l-3 6-4 3-3 1-2.9.1h-22l-5.3.1H77.4l-5.8.1H11.1L8 86l-5-3-3-6z" style="fill:#0c1122" transform="translate(1460 764)"/>
  <path d="M0 0h180v77l-3 5-2.8 2.3L171 86l-3.3.5H12.3L9 86l-3.2-1.7L3 82l-3-5z" style="fill:#0b1122" transform="translate(1840 764)"/>
  <path d="M0 0h180v77l-4 6-5 3-3.1.4H72.6l-5.7.1H12.3L9 86l-3.2-1.7L3 82l-3-5z" style="fill:#0b1122" transform="translate(319 764)"/>
  <path d="M0 0h179v78l-4 6-5 2-3.1.3H83.2l-5.8.1H38.5l-5.2.1h-22L8 86l-3.3-1.8L2 82l-2-4z" style="fill:#0b1022" transform="translate(890 764)"/>
  <path d="M0 0h1v122h-167V2l3 4 2.7 5.1 1.6 3 1.7 2.9 2 2.8 2.1 2.6 2 2.3 1.9 2.3 4 5 2.9 2.6 3.3 2.7 3.8 3 4 2.7 4.2 2.4 8.2 4 8.5 3.5 4.1 1.1 4.5 1 5.5 1 3 .2 3.1.1h13.5l3.3-.1 3.1-.2 4.7-.7 4-.9 3.6-1L-54 52l4.1-1.5 4.2-1.7 4-1.9L-38 45l3.1-2 2.8-1.9 2.6-2L-27 37l2.6-2 2.5-2.2 2.5-2.3L-17 28l2.4-2.8 2.3-3 2.3-3 2-3.2 1.8-3.3 1.6-3.2 1.4-3L-2 4z" style="fill:#aeafaf" transform="translate(1279 1670)"/>
  <path d="m0 0 3 4 2.7 5.1 1.6 3L9 15l2 2.8 2.1 2.6 2 2.3L21 30l2.9 2.6 3.4 2.7 3.7 3 4 2.7 4.2 2.4 4.1 2.1 3.8 1.8L51 49l9 3v68H0z" style="fill:#afafaf" transform="translate(1113 1672)"/>
  <path d="M0 0h180v18l-3 6-5 3-3.2.4H71.6l-5.8.1H10.2L7 27l-2.8-1.7L2 23l-2-5z" style="fill:#0c1122" transform="translate(1650 524)"/>
  <path d="M0 0h180v18l-4 6-5 3-3.2.4H124l-5.6.1h-75l-5.4.1H10.3L7 27l-3.4-2.4L1 22l-1-3z" style="fill:#0c1122" transform="translate(1270 524)"/>
  <path d="M0 0h180v18l-3 5-2.3 2.3L172 27l-3.2.5H11.3L8 27l-3.3-1.8L2 23l-2-4z" style="fill:#0c1122" transform="translate(319 524)"/>
  <path d="M0 0h180v19l-4 6-4 2-3 .3h-38.5l-5.5.1H78.3l-5.9.1H44.3l-20.6.1H11.3L8 27l-3.3-2.2L2 22l-2-5z" style="fill:#0c1122" transform="translate(1840 524)"/>
  <path d="M0 0h180v19l-4 6-4 2-3 .3h-38.5l-5.5.1H78.3l-5.9.1H44.3l-20.6.1H11.3L8 27l-3.3-2.2L2 22l-2-5z" style="fill:#0c1122" transform="translate(699 524)"/>
  <path d="m0 0 3.1-.4h154.7l3.2.4 3.2 1.2L167 3l4 5v19H-9V9l4-6z" style="fill:#0e1425" transform="translate(1849 1160)"/>
  <path d="m0 0 3-.3h142.6l4.5-.1h7.7l3.2.4 3.2 1.1L167 3l4 6v18H-9V8l5-6z" style="fill:#0f1425" transform="translate(328 1160)"/>
  <path d="m0 0 3-.3h37.7L46-.5h45.7l5.8-.1h32.9l5.1-.1H154l3.7.1 3.3.5 4.9 2.3L169 5l2 4v18H-9V8l5-6z" style="fill:#0e1324" transform="translate(1659 1160)"/>
  <path d="M0 0h179v20l-5 6-3 1-3 .1h-12.3l-4.8.1h-21.3l-5.5.1H89l-5.8.1H65.7l-5.7.1H22.6l-4.5.1h-7.8L7 27l-3.4-2.4L1 22l-1-2z" style="fill:#0c1122" transform="translate(1080 524)"/>
  <path d="M0 0h179v19l-4 6-4 2-3 .3h-38.5l-5.5.1H77.3l-5.9.1H43.3l-20.6.1H10.3L7 27l-3.4-2.4L1 22l-1-2z" style="fill:#0c1122" transform="translate(510 524)"/>
  <path d="M0 0h179v20l-5 6-3 1-3 .1h-12.3l-4.8.1h-44l-6 .1H71.5l-5.8.1H10.2L7 27l-2.8-1.8L2 23l-2-4z" style="fill:#0c1122" transform="translate(1460 524)"/>
  <path d="M0 0h179v20l-5 6-3 1-2.9.1h-12.3l-4.8.1h-43.7l-5.8.1H72l-5.8.1H23.6l-4.5.1h-7.8L8 27l-3.3-1.8L2 23l-2-4z" style="fill:#0c1122" transform="translate(890 524)"/>
  <path d="m0 0 3-.3h83.7l5.8-.1h38.9l5.2-.1H155l3.8.1 3.2.4 4.4 1.8L169 4l2 3v20H-8V7l4-5z" style="fill:#0f1425" transform="translate(1088 1160)"/>
  <path d="m0 0 2.9-.1h21.9L30-.3h61.9l5.8-.1h60.1l3.2.3 3.2 1.3L167 3l3 4v20H-9V8l6-7z" style="fill:#0e1324" transform="translate(1469 1160)"/>
  <path d="m0 0 3-.3h38.9l5.6-.1h47.3l6-.1h33.9l5.4-.1h22.6l3.3.6 3.4 2.4L172 5l1 2v19H-7V8l4-6z" style="fill:#0b1021" transform="translate(1847 563)"/>
  <path d="m0 0 2.8-.1h12.6l4.9-.1h44.6l5.9-.1h30l5.9-.1h43.6l4.6-.1h7.9l3.2.5 2.8 1.8L171 4l2 4v18H-7V7l5-6z" style="fill:#0b1022" transform="translate(1277 1161)"/>
  <path d="m0 0 3.4-.7h119.7l5.5.1h33.1q1.6.4 3.3.6l3.3 1.8L171 4l2 4v18H-7V6z" style="fill:#0a0f20" transform="translate(1657 563)"/>
  <path d="m0 0 3-.3h38.9l5.6-.1h47.3l6-.1h33.9l5.4-.1h22.6l3.3.6 3.4 2.4L172 5l1 2v19H-7V8l4-6z" style="fill:#0b1021" transform="translate(516 563)"/>
  <path d="m0 0 2.8-.1h12.5L20-.3h44.3l6-.1H100l5.8-.1h43.3l4.6-.1h7.9l3.3.5 3.3 1.8L171 4l2 4v18H-7V7l5-6z" style="fill:#0b1020" transform="translate(326 563)"/>
  <path d="m0 0 3-.4h158.8l3.2.4 5 3 2 3v20H-8V9l4-6z" style="fill:#0b1021" transform="translate(707 563)"/>
  <path d="M0 0h180v17l-3 5-3 3-3 1-2.9.1h-7.7l-4.6.1h-15.1l-5.4.1h-27.9l-5.9.1H83.8l-5.8.1H60.7l-5.6.1H38.8l-5.2.1H15q-1.8 0-3.8-.2L8 26l-4.4-2.9L1 20l-1-3z" style="fill:#0a0f20" transform="translate(1650 1123)"/>
  <path d="m0 0 2.7-.1h12.6L20-.3h21.6l5.6-.1h38.4l3-.1h17.8l5.8-.1h37.8l4.6-.1h8l3.3.6 3.4 2.4L172 5l1 2v19H-6V6l5-5z" style="fill:#0a1021" transform="translate(706 1161)"/>
  <path d="m0 0 2.8-.1h22.5l5.3-.1h63.7l5.9-.1h61.6l3.2.3 5 3 2 3v20H-7V7l5-6z" style="fill:#0b1020" transform="translate(1277 563)"/>
  <path d="m0 0 2.8-.1h12.5L20-.3h21.5L47-.4h35.2l6-.1h17.6l5.8-.1h37.5l4.6-.1h7.9l3.3.6 3.4 2.4L171 5l1 2v19H-7V6l5-5z" style="fill:#0a1021" transform="translate(517 1161)"/>
  <path d="m0 0 3.4-.8h67.3l6 .1h85l3.3.7 3.4 2.4L171 5l1 2v19H-7V6z" style="fill:#0b1022" transform="translate(897 1161)"/>
  <path d="m0 0 2.8-.1h7.8l4.7-.1h15.3L36-.4h22.5l17.7-.1h12L94-.6h17.5l5.6-.1h16.6l5.3-.1h22.5l3.4.7 7 6v20H-7V7l5-6z" style="fill:#0a0f20" transform="translate(1467 563)"/>
  <path d="m0 0 2.8-.1h12.5L20-.3h21.5L47-.4h35.2l6-.1h17.6l5.8-.1h37.5l4.6-.1h7.9l3.3.6 3.4 2.4L171 5l1 2v19H-7V7l5-6z" style="fill:#0b1021" transform="translate(1087 563)"/>
  <path d="m0 0 2.8-.1h12.5L20-.3h21.5L47-.4h35.2l6-.1h17.6l5.8-.1h37.5l4.6-.1h7.9l3.3.6 3.4 2.4L171 5l1 2v19H-7V7l5-6z" style="fill:#0b1021" transform="translate(897 563)"/>
  <path d="M0 0h179v18l-3 5-2.8 1.8L170 26l-3.3.4h-43.6l-5.6.1H43l-5.4.1H14l-3.8-.1L7 26l-4-2.4L1 21l-1-2z" style="fill:#0a0f20" transform="translate(1841 1123)"/>
  <path d="M0 0h179v19l-4 5-5 2-3.1.3H83.2l-5.8.1H38.5l-5.2.1h-22L8 26l-3.3-1.8L2 22l-2-4z" style="fill:#0a0f20" transform="translate(319 1123)"/>
  <path d="M0 0h179v18l-4 6-5 2-3.1.3H82.6l-5.9.1H37.6l-5.3.1H10L7 26l-2.8-1.8L2 22l-2-4z" style="fill:#0a0f20" transform="translate(1080 1123)"/>
  <path d="M0 0h179v18l-3 5-2.8 1.8L170 26l-3.3.4h-43.6l-5.6.1H43l-5.4.1H14l-3.8-.1L7 26l-4-2.4L1 21l-1-3z" style="fill:#0a0f20" transform="translate(890 1123)"/>
  <path d="M0 0h179v17l-3 5-2.3 2.3L171 26l-3.2.5h-49.5l-5.7.1H10.3L7 26l-3.4-2.4L1 21l-1-2z" style="fill:#0a0f21" transform="translate(700 1123)"/>
  <path d="M0 0h179v19l-4 5-5 2-3.1.3h-27.2l-5.4.1H95l-5.9.1H77.5l-5.8.1H43.9l-5.3.1H15q-1.9 0-3.8-.2L8 26l-4.4-2.9L1 20l-1-3z" style="fill:#0a0f21" transform="translate(1270 1123)"/>
  <path d="M0 0h179v18l-4 6-4 2-3 .3h-27.4l-5.4.1H95.6l-6 .1H78l-5.8.1H44.2l-5.4.1H15l-3.8-.2L8 26l-4.4-2.9L1 20l-1-3z" style="fill:#0a0f21" transform="translate(1460 1123)"/>
  <path d="M0 0h179v17l-4 6-4 3-3 .4H72l-5.7.1h-55L8 26l-3.3-1.8L2 22l-2-3z" style="fill:#0a0f21" transform="translate(510 1123)"/>
  <path d="M0 0h167v67l-2-2-1.4-2.8-1.7-3.6-1.8-3.8L158 51l-2.2-3.3-2.2-3-2.4-3L149 39l-3.7-4.2L141 31l-3-2.3-3.2-2.3-3.4-2.3L128 22l-3.2-1.8-3.2-1.5-3.2-1.4L115 16l-4-1.2-4-1.1-3.6-1-3.4-.7-2.8-.6L94 11l-4.6-.2H78.5L73 11l-4.4.5-4 .6-3.8.9-3.8 1-3.8 1.2-3.8 1.4-3.7 1.6L42 20l-3.7 2-3.6 2.3-3.5 2.3L28 29l-2.8 2.2-2.6 2.2-2.4 2.3L18 38l-2.1 2.3-2 2.4-2 2.5L10 48l-2.2 3.7-2.2 3.8-2 3.6L2 62l-2 2z" style="fill:#aeaeaf" transform="translate(1113 1539)"/>
  <path d="M0 0h1v160h371v22h-1v-16H192v16h-1v-16H1v15H0v-15h-9v16h-1v-16h-206.6l-5.7-.1h-16.4l-5.4-.1h-10.3l-5.1-.1h-10l-4.8-.1-9.5-.1h-9.6l-4.7-.1h-9l-4.3-.1h-8.3l-4-.1h-7.5l-3.4-.1h-6.2l-4.2-.1v-4h11.3l3.7-.1h8.1l4.4-.1h8.9l4.7-.1h9.8l5-.1h5.1l5.2-.1h10.3l5.2-.1h10.6l5.4-.1h11l5.7-.1h11.5l5.8-.1h21.2l3.1-.1H0z" style="fill:#9d9fa4" transform="translate(1649 957)"/>
  <path d="M0 0h1v122h-41l-.4-16.4v-5.5l-.1-4.8-.1-5.4v-5.5l-.2-5.4-.2-5.4V63.4l-.2-5v-4.6l.2-4.2 1-3.6 2.4-2.5 3-1.9 2.9-1.4L-29 39l3.6-2.9 3-2.7 3.3-3.1L-16 27l2.6-3.3 2.4-3.3 2.1-3.3L-7 14l1.6-2.9 1.3-2.7L-2 4z" style="fill:#8e8f8e" transform="translate(1279 1670)"/>
  <path d="M0 0h69v7l-.8 4-2.7 8.6L64 24l-1.6 3.7-1.6 3.3-1.9 3.1L57 37l-2.1 2.6-2.2 2.4-2.3 2.1L48 46l-2.7 1.6-2.6 1.4-4.7 2-4 1q-1.7 0-3.5.3H22l-4-.3-5.4-1.9L8 47l-2.6-2-2.6-2.4L.3 40-2 37l-2.2-3.7-2-3.7-1.6-3.6-1.2-3v-3l2.3-1.7L-4 16l1.8-3.2L-1 9z" style="fill:#fcfcfc" transform="translate(1369 1539)"/>
  <path d="M0 0h9v253H0z" style="fill:#f5f5f4" transform="translate(1285 1539)"/>
  <path d="M0 0h10l-.2 3-.4 4.3-.6 4.6L8 17l-1.2 5-1.4 5-1.6 5.1L2 37l-2 4.5-2 4.1-2 4-2 3.4-1.7 2.9-1.7 2.5L-13 63l-2 2.5-2.2 2.6-2.4 2.5L-22 73l-2.5 2.2-2.6 2-2.8 2L-33 81l-7.7 3.8-4.2 1.7L-49 88l-3.7 1.1-3.7.8-3.7.7-3.9.4-4.4.3-4.5.1h-4.6L-82 91l-4.1-.6-4-.9-4-1.1L-98 87l-4.1-1.7-4.2-1.9-4-2-3.7-2.4-3.4-2.7-3.2-2.8-2.9-2.9-2.5-2.6-3.7-3.8-3.3-4.2-2-3-2-3.5-2-3.6-2-3.9-1.8-4.2-1.6-4.2-1.5-3.8-1.1-3.8-.7-4.5-.3-3.5h9l1.4 4.1 2 5.5 1.1 3 1.1 2.8 1.2 3 1.2 2.6 2.3 4.2 2.3 3.6 2.3 3.3 2.1 2.9 3.3 4.3 3.7 3.7 2.9 2.3 3.2 2.4 3.4 2.2 3.5 2.1 3.6 1.6L-95 77l3.1 1.1 2.8.9 4 1 5.3.3h16.6l3.1-.3 4.9-1 4-1.1 3.8-1.4L-44 75l2.8-1.4 2.6-1.3L-34 69l5-4.1 2.6-2.4L-24 60l2.3-2.6 2.3-2.9 2.2-3L-15 48l2.2-3.9 2-4.2 2-4.3L-7 31l1.5-4.9 1.4-5 1.1-4.7 1-4.4.7-3.9.6-3.3z" style="fill:#bb423b" transform="translate(1468 1539)"/>
  <path d="m0 0 7 6 2 1v233H0z" style="fill:#2d2926" transform="translate(1299 1552)"/>
  <path d="m0 0 6 2 3.4 1.7 3.5 1.8L20 9l7 2v68H0z" style="fill:#cecfd1" transform="translate(1146 1713)"/>
  <path d="M0 0h1v161h9l-1 4H1v16H0v-15h-9v16h-1v-16h-206.6l-5.7-.1h-16.4l-5.4-.1h-10.3l-5.1-.1h-10l-4.8-.1-9.5-.1h-9.6l-4.7-.1h-9l-4.3-.1h-8.3l-4-.1h-7.5l-3.4-.1h-6.2l-4.2-.1v-4h11.3l3.7-.1h8.1l4.4-.1h8.9l4.7-.1h9.8l5-.1h5.1l5.2-.1h10.3l5.2-.1h10.6l5.4-.1h11l5.7-.1h11.5l5.8-.1h21.2l3.1-.1H0z" style="fill:#a8a9af" transform="translate(1649 957)"/>
  <path d="M0 0h10v161H0z" style="fill:#eeeef0" transform="translate(1450 595)"/>
  <path d="M0 0h10v161H0z" style="fill:#efeff1" transform="translate(1830 358)"/>
  <path d="M0 0h10v161H0z" style="fill:#f1f1f3" transform="translate(689 358)"/>
  <path d="M0 0h10v161H0z" style="fill:#f1f1f3" transform="translate(499 358)"/>
  <path d="M0 0h10v160H0z" style="fill:#eff0f1" transform="translate(1830 1192)"/>
  <path d="M0 0h10v160H0z" style="fill:#f0f1f3" transform="translate(1450 1192)"/>
  <path d="M0 0h10v160H0z" style="fill:#f1f2f3" transform="translate(689 957)"/>
  <path d="M0 0h10v160H0z" style="fill:#f1f1f3" transform="translate(1830 957)"/>
  <path d="M0 0h10v160H0z" style="fill:#efeff1" transform="translate(1450 957)"/>
  <path d="M0 0h10v160H0z" style="fill:#f1f2f4" transform="translate(499 957)"/>
  <path d="M0 0h10v160H0z" style="fill:#f1f2f3" transform="translate(1830 595)"/>
  <path d="M0 0h10v160H0z" style="fill:#eff0f2" transform="translate(689 595)"/>
  <path d="M0 0h10v160H0z" style="fill:#f1f1f3" transform="translate(499 595)"/>
  <path d="M0 0h10v159H0z" style="fill:#f1f2f4" transform="translate(689 1193)"/>
  <path d="M0 0h10v159H0z" style="fill:#f1f2f3" transform="translate(499 1193)"/>
  <path d="M0 0h41v67l-2-2-1.4-2.8-1.7-3.6-1.8-3.8L32 51l-2.2-3.3-2.2-3-2.4-3L23 39l-3.7-4.2L15 31l-3.2-2.4-3.6-2.4L5 24l-3-2-4-3h2z" style="fill:#909192" transform="translate(1239 1539)"/>
  <path d="M0 0h9v161H0z" style="fill:#f3f4f5" transform="translate(1640 358)"/>
  <path d="M0 0h9v161H0z" style="fill:#f1f2f3" transform="translate(1450 358)"/>
  <path d="M0 0h9v161H0z" style="fill:#f2f3f4" transform="translate(1070 358)"/>
  <path d="M0 0h9v161H0z" style="fill:#f2f2f3" transform="translate(880 358)"/>
  <path d="M0 0h9v160H0z" style="fill:#f2f2f4" transform="translate(1070 1192)"/>
  <path d="M0 0h9v160H0z" style="fill:#f4f4f5" transform="translate(1640 957)"/>
  <path d="M0 0h9v160H0z" style="fill:#f3f3f4" transform="translate(1260 957)"/>
  <path d="M0 0h9v160H0z" style="fill:#f3f4f5" transform="translate(1070 957)"/>
  <path d="M0 0h9v160H0z" style="fill:#f2f2f4" transform="translate(880 957)"/>
  <path d="M0 0h9v160H0z" style="fill:#f3f4f5" transform="translate(1640 595)"/>
  <path d="M0 0h9v160H0z" style="fill:#f2f2f3" transform="translate(1260 595)"/>
  <path d="M0 0h9v160H0z" style="fill:#f3f3f4" transform="translate(1070 595)"/>
  <path d="M0 0h9v160H0z" style="fill:#f2f2f3" transform="translate(880 595)"/>
  <path d="M0 0h9v160H0z" style="fill:#f1f2f3" transform="translate(1260 358)"/>
  <path d="M0 0h9l-.2 5-.3 3.2L8 12l-1 4.2-1.2 4.3-1.4 4.4L3 29l-1.4 3.4L0 35.5l-1.5 2.9L-3 41l-3.3 4.8L-10 50l-4 4.1-2.3 2L-19 58l-3.4 2-3.7 1.9q-1.7.7-3.5 1.7L-33 65l-3.5 1.2-3.5.8-3.4.3h-7L-54 67l-5.6-1-5.4-2q-1.5-.8-3.3-1.4l-3.3-1.7L-75 59l-3.1-2-2.6-2.1-2.3-2.2-2.2-2.3L-87 48l-3.2-4.9L-93 38l-1.4-2.9-1.4-3L-98 27l-1-5h10l2 5.3 1.3 3.3L-84 34l2 3.3 2.3 3 2.4 3L-75 46l3.8 3.4L-67 52l2.7 1.5 3 1.4 3 1.2 3.3.9 3.2.4 3.3.2 3.3-.2 3.2-.4 3.1-.6 3-.9 3-1.1L-30 53l3-1.8 2.9-2 2.7-2L-19 45l3.3-3.6L-13 37l1.8-3.2 1.8-3.5 1.8-3.6L-6 23l1.3-3.4 1-3.4 1-3.1.7-3.1 1.3-5.8z" style="fill:#2d2926" transform="translate(1444 1539)"/>
  <path d="M0 0h9v159H0z" style="fill:#f2f2f3" transform="translate(1260 1193)"/>
  <path d="M0 0h9v159H0z" style="fill:#f3f4f5" transform="translate(1640 1193)"/>
  <path d="M0 0h9v159H0z" style="fill:#f3f4f5" transform="translate(880 1193)"/>
  <path d="M0 0h93v19l-6-1-3.5-1.1-3.7-1.3-4-1.4L72 13l-5.1-1.3L61 11l-4.8-.2-5.4-.1h-5.5L40 11l-4.4.5-4 .6-3.8.8L24 14l-4 1.4-4 1.5-3.6 1.5L9 20l-3.8 2.2L2 24H0z" style="fill:#b4b5b4" transform="translate(1146 1539)"/>
  <path d="M0 0h10v2H1l1 3.8 1.5 5.3 1.7 5.5L7 22l1.9 4.3 2 3.8 2 3.6L15 37l2 2.9 2 2.5 2 2.4 2 2.2 3.7 4.1L31 55l3 2.1q1.5 1 3.2 2l3.4 2L44 63l3.4 1.5 3.3 1.4L54 67l3 1 4.7 1.3 5.3.7 4 .2 4.7.1h4.7L85 70l4-.4 3.6-.7 3.7-.8L100 67l4.1-1.5 4.2-1.7 4-1.9L116 60l3.1-1.8 2.8-2 2.6-2L127 52l2.6-2.4 2.5-2.7 2.5-2.7L137 41l2.6-4 2.4-4 2.2-4 1.8-3 2-2v5l3-2-.8 2.7L149 33l-3 5.1-1.8 2.9-2.2 3-2.6 3.1-2.7 3-2.9 3.1L131 56l-2.4 2.3-2.3 2L124 62 121 64l-3.8 2.2-4.2 2.1-4.2 2L105 72l-5.5 2-4.5 1-3.6.5-4.4.5-5 .2-5.5.1h-5.9L65 76l-4.4-.6-4-.9-3.8-1.1L49 72l-4-1.6-4.1-1.9-4-2.1L33 64l-3.8-2.7-3.6-3-3.4-3.1L19 52l-2.8-3.1-2.6-3.1-2.4-3.3L9 39l-2.2-3.9-2.1-4-2-4L1 23l-1.6-4.3-1.4-4-1.2-3.8L-4 8V6h2l1-5z" style="fill:#130808" transform="translate(1319 1559)"/>
  <path d="M0 0h60v8l-1.9 4-2.1 3-2 1-4.6.2h-6.1l-3.3.1H29.7l-3.5.1h-3.4l-3.4.1H10L5 16l-3.2-1.8L0 11z" style="fill:#a9a9a9" transform="translate(1304 1539)"/>
  <path d="M0 0h5l.1 3L5 7l-.7 3.6-1 3.8-1 4.3L1 23l-1.3 4.1-1.4 4-1.6 4L-5 39l-1.8 3.5-2 3.3-2 3.2-2.2 3-2.3 3-2.5 2.9-2.6 2.7L-23 63l-2.7 2.1-2.8 1.8-2.8 1.7L-34 70l-5.1 2.3L-44 74l-4.2 1-4.8 1-4.6.3h-9.8L-72 76l-3.3-.5-2.6-.6L-83 73l-3-1.2-3-1.4-3-1.6-3-1.8-2.7-2.1-2.6-2.3-2.5-2.3-2.2-2.3-3.6-3.6-3.4-4.4-2.1-3.7-2.2-4.2-2-4.2-1.7-3.9-2-5.3-1-3.7v-3h5l1 3 1.4 4.1 1.7 4.4 1.9 4.5q1 1.9 2 3.9l2.3 3.5 2.4 3.5 2.3 3.1 2 2.6 2.1 2.3 2.2 2L-94 61l3.7 2.3 4 2.1 3.7 2L-79 69l3.4 1.2 3.6.8 4 .3h4.4l4.5-.1 4.1-.2 4.8-.7L-46 69l2.9-1 3.1-1.2 3-1.3 3-1.5 4.8-3.3L-25 57l4-3.6 4-4.4 2-3 2.1-3.4 2-3.7L-9 35l1.8-4.4 1.6-4.4 1.4-4.3L-3 18l1.3-5 .7-4 .6-5z" style="fill:#ededed" transform="translate(1458 1539)"/>
  <path d="M0 0h1v76.8l.1 4v92.9l.1 3.8v46.2L1 228l-1 3.6-1 2.4h-1V1z" style="fill:#f4f5f6" transform="translate(2023 1202)"/>
  <path d="M0 0h28v12l-5.1 2-3.3 1.4L16 17l-3.8 1.9-3.8 2-3.6 1.7L2 24H0z" style="fill:#d2d3d3" transform="translate(1146 1539)"/>
  <path d="M0 0h10v2H1l1 3.8 1.5 5.3 1.6 5.5L7 22l2 4.4 2.2 4 2 3.3L15 37l1.3 3.4L18 44l3.1 3.7 3.8 3.8 4 4L33 59l3.7 2.5 3.5 1.9L46 66l4 1v2l5 .9L66.1 72l3.8.9-1 3-3.6-.2L60 75l-3.2-.7-3.5-.9-3.6-1L46 71l-3.6-1.7-3.5-1.9-3.5-2L32 63l-6.7-5.2L22 55l-3-3-2.8-3-2.5-3.2-2.4-3.3L9 39l-2.2-3.9-2.1-4-2-4L1 23l-1.6-4.3-1.4-4-1.2-3.8L-4 8V6h2l1-5z" style="fill:#110c0c" transform="translate(1319 1559)"/>
  <path d="M0 0h43v10H0z" style="fill:#070807" transform="translate(2055 1276)"/>
  <path d="M0 0h43v10H0z" style="fill:#0a0a09" transform="translate(2055 1191)"/>
  <path d="M0 0h43v9H0z" style="fill:#0f0f0f" transform="translate(2055 1252)"/>
  <path d="M0 0h43v9H0z" style="fill:#080808" transform="translate(2055 1153)"/>
  <path d="M0 0h43v8H0z" style="fill:#0d0c0c" transform="translate(2055 1401)"/>
  <path d="M0 0h43v8H0z" style="fill:#0f0f0f" transform="translate(2055 1204)"/>
  <path d="M0 0h43v8H0z" style="fill:#161716" transform="translate(2055 1123)"/>
  <path d="M0 0q1.4 0 2.8-.3h6.5L12 0l2 2v6l-3 3 3 3v6l-2 2H3l-4-1-1-1v-6l3-3-3-3V2z" style="fill:#c8c8c7" transform="translate(2107 1195)"/>
  <path d="M0 0h43v7H0z" style="fill:#0d0d0d" transform="translate(2055 1241)"/>
  <path d="M0 0h43v7H0z" style="fill:#090909" transform="translate(2055 1214)"/>
  <path d="m0 0 5 1 2 2 .7 3L8 9l-1 2v11l-4-1-3-2-3-2-4-1v3h2v3l-4-1-.2-3.3.2-3.7 4-3-3-1-1-2V2l1-1 3.8-.6zm-5 8 1 2Z" style="fill:#c4c5c5" transform="translate(2114 1245)"/>
  <path d="M0 0q1.4 0 2.8-.3h6.5L12 0l2 2-.2 3.5L13 9l-3 2 4 3v6l-4 2 1-7-4 1v6h-8l-1-1v-9l3-1-3-3V2zm1 12v6h2l-1-6z" style="fill:#d4d4d4" transform="translate(2107 1220)"/>
  <path d="m0 0 4.4-.4L9 0l4 3v6l-2 2 2 1v11l-5-2-2.6-2.1L3 17H0l1 5-4-1-.2-3.2.2-3.8 4-4-4-1V3zm1 5v5l2-1V5z" style="fill:#cacbca" transform="translate(2108 1307)"/>
  <path d="M0 0h43v6H0z" style="fill:#020202" transform="translate(2055 1365)"/>
  <path d="M0 0h43v6H0z" style="fill:#171717" transform="translate(2055 1326)"/>
  <path d="M0 0h43v6H0z" style="fill:#0a0a0a" transform="translate(2055 1224)"/>
  <path d="M0 0h43v6H0z" style="fill:#0a0b0b" transform="translate(2055 1172)"/>
  <path d="M0 0h43v5H0z" style="fill:#0a0a0a" transform="translate(2055 1418)"/>
  <path d="M0 0h43v5H0z" style="fill:#2b2b2b" transform="translate(2055 1390)"/>
  <path d="M0 0h43v5H0z" style="fill:#030303" transform="translate(2055 1138)"/>
  <path d="M0 0h43v5H0z" style="fill:#0c0b0b" transform="translate(2055 1111)"/>
  <path d="M0 0h6l2.9 1.5L11 4l.6 4-.6 4-4 3-4 .4-4-.4-4-4V5l2.1-2.9z" style="fill:#1e1e1e" transform="translate(2039 1288)"/>
  <path d="M0 0h10v2H1l1 3.8 1.5 5.3 1.6 5.5L7 22l2.2 4.6 2.2 4 2 3.5L15 37v3l-2.3-2.6L10 34l-1.8-3.4L7 28l-3 2-1.5-3.7-2-5L-3 12l-.7-3.6L-4 6h2l1-5z" style="fill:#0a0605" transform="translate(1319 1559)"/>
  <path d="M0 0h43v4H0z" style="fill:#444" transform="translate(2055 1346)"/>
  <path d="M0 0h43v4H0z" style="fill:#282828" transform="translate(2055 1340)"/>
  <path d="M0 0h43v4H0z" style="fill:#20201f" transform="translate(2055 1232)"/>
  <path d="M0 0h5L2 4l-.4 3V28l-.1 5V54l-.1 5.4v22.4l-.1 5.6V104l-.1 5.4v15.7l-.1 5.2v22.8L1 159l2 1H0z" style="fill:#030612" transform="translate(890 595)"/>
  <path d="M0 0h1v16l.1 4v20.2l.1 3.7v7.2L1 57l-1 3.4-1 2.6h-1V26l-.1-3.5v-6.6L-2 10l1-9z" style="fill:#f4f4f5" transform="translate(2023 1373)"/>
  <path d="m0 0 5 5 2.2 2.4 2.3 2.4 2.6 2.6L15 15l3 2.3 6.6 4L28 23l3.4 1.5 3.3 1.4L38 27l3 1 4.7 1.3 5.3.7 4 .2 4.7.1h4.7L69 30l4.3-.6 4-.8 3.6-.8L84 27l5-1-4 4-4.8 1.2-3 .5-3.2.3-3.4.2-3.6.1H48.4L45 32l-3.4-.7-3-.8L34 29v-2l-2.7-.4L28 26l-4.8-2-2.8-1.6L17 20l-2.2-1.9-2.3-2.2-2.3-2.3-2.4-2.3L5.5 9 3.3 6.8 0 3z" style="fill:#210101" transform="translate(1335 1599)"/>
  <path d="M0 0h15v3L8 4l7 2v3l-4 2 4 1v3H0v-5l6-2-4-2-2-1z" style="fill:#0f0f0e" transform="translate(2035 1343)"/>
  <path d="M0 0h3L2 3l-.2 5.9v21.3L1.6 35v9.8l-.1 5V60l-.1 5.2V81l-.1 5.2v10.4l-.1 5v10l-.1 4.8v9.6l-.1 4.5v12L1 148H0z" style="fill:#040813" transform="translate(700 595)"/>
  <path d="M0 0h2L1 4l-4 3-1 3h6v3h-16l-.1-4.9.1-5.1 2-2h6l2 2z" style="fill:#171717" transform="translate(2048 1243)"/>
  <path d="m0 0 4.4-.3L9 0l4 2v6l-2 2-2.7.3H1.8L-1 10l-2-2V3z" style="fill:#181918" transform="translate(2037 1174)"/>
  <path d="m0 0 5 1 2 2v6l-3 2H1.1l-3.2-.3L-8 10l-1-1V3l2-2 3.3-.7z" style="fill:#2d2d2d" transform="translate(2114 1269)"/>
  <path d="M0 0h1v26.3l.1 5.6v5.2L1 41l-1 1-.3 3.6-.3 4.5-.2 4.4L-1 58h-1V1z" style="fill:#f7f8f9" transform="translate(2023 1202)"/>
  <path d="M0 0h6l2 2v6l-2 2h-9l-4-1-1-1V2l1-1h6z" style="fill:#282727" transform="translate(2113 1207)"/>
  <path d="M0 0q1.4 0 2.8-.3h6.5L12 0l2 2v5l-2 2-3 .2H1.9L-1 9l-1-1V2z" style="fill:#0b0a0b" transform="translate(2107 1295)"/>
  <path d="m0 0 6-.2h3.2L12 0l2 2v6l-2 1c-1.4 0-1.4 0-2.7.2H2.8L0 9l-2-2 .3-3 .7-3z" style="fill:#262626" transform="translate(2036 1212)"/>
  <path d="M0 0h43v3H0z" style="fill:#1e201f" transform="translate(2055 1412)"/>
  <path d="M0 0h43v3H0z" style="fill:#161616" transform="translate(2055 1318)"/>
  <path d="M0 0h43v3H0z" style="fill:#141414" transform="translate(2055 1295)"/>
  <path d="M0 0h43v3H0z" style="fill:#161717" transform="translate(2055 1289)"/>
  <path d="M0 0h43v3H0z" style="fill:#030303" transform="translate(2055 1264)"/>
  <path d="M0 0h43v3H0z" style="fill:#171717" transform="translate(2055 1166)"/>
  <path d="M0 0h43v3H0z" style="fill:#121212" transform="translate(2055 1146)"/>
  <path d="M0 0h43v3H0z" style="fill:#232323" transform="translate(2055 1118)"/>
  <path d="M0 0h10l-.4 3.5L9.1 8l-.5 4.5L8 17l-1 4-1 3-2-4 .8-3.6L6 12l.6-5.5L7 2 2 4 1 7.2l-.6 4-.7 4.4L-1 20l-1 4-1 3.6-1 3.3-1 3.1-1.6 3.4L-8 40l-1-4 .9-3 1.3-3.4 1.4-4L-4 21l1.2-5.7 1.1-5.7 1-5.5z" style="fill:#a74843" transform="translate(1468 1539)"/>
  <path d="M0 0h4v3H1v7h3v4l-5-1-5.3-2-4.7-2V4l5.3-2L-2.8.9z" style="fill:#292929" transform="translate(2046 1259)"/>
  <path d="m0 0 5.6-.3L11 0l2 2v6l-3 1V4L8 3 7 8l-3 2-3.2-.4L-2 9l-.7-2.8L-3 3z" style="fill:#121212" transform="translate(2037 1187)"/>
  <path d="M0 0h2v2l2.6.4L8 3l2.7 1L14 5l3.7.4 4 .2q1.8 0 3.8.2L29 6l4 1 4.6-.5 5.3-.9 5.3-.8L53 4l3.6-.6L59 3l-2 2-5.2 1.6L46 8l-3.3.6L39 9l-4 .2-4.4.1h-4.8L21 9l-4.5-.8-4.2-1-3.7-1L5 5 1 3.4-2 2z" style="fill:#a94842" transform="translate(1365 1621)"/>
  <path d="M0 0h2L1 8l2-3 3-5h5l2 2 .3 4-.3 4-2 2H8V9l2-1V4L7 3l-.4 2.8L6 9l-2 3-5-1-2-2V3z" style="fill:#1a1a1a" transform="translate(2037 1328)"/>
  <path d="M0 0h2L1 8l2-3 3-5h6l2 3-.1 3.6L13 10l-4 2-1-3 2-1 1-5-3 1-1.6 3L5 10l-1 1h-5l-2-3V3z" style="fill:#1b1b1a" transform="translate(2037 1306)"/>
  <path d="M0 0h3v6h2l1-5L9.3.4 13 0l3 2v6l-4 2 1-7-4 1v6H1L0 9V0" style="fill:#2b2b2b" transform="translate(2105 1232)"/>
  <path d="M0 0h5v2l12-1-3 2-4.9 1.6-3 .8L3 6l-3.2.3h-16.3L-22 6l-4-2h9.9l5.6.1L-6 4l1-1-9-1V1l2.9-.2 3.8-.3 3.7-.3z" style="fill:#300504" transform="translate(1405 1614)"/>
  <path d="M0 0h5L2.9 2.4 0 5l-2.6.7L-6 6l-4.5.1h-9.8L-24 6V4l-3-2 5.1-.2 3.3-.1 3.4-.1 3.4-.2h3.3L-3 1z" style="fill:#0a0202" transform="translate(1412 1629)"/>
  <path d="m0 0 1.8 2.1L4 5l1.3 2.6L7 11l1.5 2.5 1.8 2.9 1.8 2.8L14 22l3.6 4.5L21 30l3.3 1.7L27 33l3 5 3.6 2.2L37 42l1 2-5-2-4.1-2.4-2.4-1.7L24 36l-5.5-5-2.8-2.9L13 25l-2.6-3.5-2.3-3.7-2.2-3.6L4 11 1.4 6.3 0 3z" style="fill:#a64a44" transform="translate(1325 1578)"/>
  <path d="M0 0h34l-1 3H1z" style="fill:#e6e7e6" transform="translate(2064 1188)"/>
  <path d="M0 0h2l-.3 3.5L1 8l-1.2 3.7-1.5 3.6-1.6 4L-5 23l-1.6 3.2-1.5 3L-11 34l-2.9 3.2L-16 39l1-4 1.7-3 2.2-3.3 2-3.3L-7 22l1.7-3.7L-4 15l1.6-4L-1 7l.7-4zm-17 39v3l-2 2.3-2.5 2.4L-24 49l-2 1.9-2-1z" style="fill:#330504" transform="translate(1463 1556)"/>
  <path d="m0 0 4.4-.4L9 0l4 3v6l-3 1V5L7 3v5L4 9V4L0 5l1 5-4-1V3z" style="fill:#191919" transform="translate(2108 1307)"/>
  <path d="M0 0h9l1.6 4.3 1 2.8 1 2.9 2.2 5.6L17 21l2.8 4.6L22 29l-1 2-2.2-2.3L16 25l-2.6-5.4-1.3-2.8L11 14 9.3 9.5 8 6 6 3H3l.4 3 .6 4 .6 4 .4 3-2-3-1.6-5L0 4z" style="fill:#9a4542" transform="translate(1320 1561)"/>
  <path d="m0 0 2.7.3L6 1l2.7 2L11 5l3 1v5l-3-2-5.7.4L0 10l-2 5h-1v-5l3-4h2V3H0z" style="fill:#cecece" transform="translate(2107 1261)"/>
  <path d="m0 0 3 .1L6 1l3 3 1-4h3v10L8 8 5.4 6 3 4 0 3l2 7-4-1-.7-2.8L-3 3z" style="fill:#1d1c1c" transform="translate(2037 1224)"/>
  <path d="M0 0h6l2.9 2L11 4l1-4h3v10l-5-2-2.6-2.1L5 4H2l1 5-4-1V1z" style="fill:#161515" transform="translate(2106 1320)"/>
  <path d="M0 0v3l-3.4 4.6-2.2 2.7L-8 13l-2.4 2.5-2.5 2.3-2.6 2.2-2.5 2-5 3.1-4 1.9-2-1 4.4-2.9 3-2.1 3.6-3 2.3-2.1 2.4-2.4 2.5-2.5 2.5-2.5L-5.8 6c1-1.2 1-1.2 2.2-2.3z" style="fill:#a64742" transform="translate(1458 1595)"/>
  <path d="M0 0h6l3.4 2L12 4V0h3v9l-4-1-3-2-3-2-4-1v3h2v3l-4-1V1z" style="fill:#141414" transform="translate(2106 1258)"/>
  <path d="M0 0h1v39l-2 1-.3-4.5-.1-2.9-.2-3.1-.1-3.2-.1-3.1L-2 20l-.1-3 .1-5 .3-4.4.2-3.8L-1 1z" style="fill:#eeefef" transform="translate(2023 1243)"/>
  <path d="m0 0 5 1 1 1v7l-4 1 2-6h-5v2l-6-2 1 6-4-2V3l2-2h7z" style="fill:#1b1b1b" transform="translate(2044 1199)"/>
  <path d="M0 0q1.4 0 2.8-.3h6.5L12 0l2 2-.4 3.6L13 9h-3l1-6-4 1-2 2-4-2 1 5-4-1V2z" style="fill:#141414" transform="translate(2107 1220)"/>
  <path d="M0 0q1.4 0 2.8-.3h6.5L12 0l2 2v6l-4 1 1-6-7 2V3L1 4l1 5-4-1V2z" style="fill:#141414" transform="translate(2107 1195)"/>
  <path d="m0 0 4-.2L8 0l2 2-1 5-2 1H1l-2-2V1z" style="fill:#d6d7d6" transform="translate(2038 1292)"/>
  <path d="m0 0 5 1 2 2v5l-4 2 1-6H0l-2 3-1-2-4-1 1 5-3-1V2l1-1 3.8-.6z" style="fill:#0e0e0e" transform="translate(2114 1245)"/>
  <path d="m0 0 3 1v4.2l.1 5.4.1 5.4-.2 5-1 3.6L1 27H0z" style="fill:#f6f7f8" transform="translate(2021 1409)"/>
  <path d="M0 0h2v11h-15V8h12V1z" style="fill:#131312" transform="translate(2048 1274)"/>
  <path d="m0 0 2 1-4 3-4.8 1.2-3 .5-3.2.3-3.6.2h-11.6l-4-.1H-36l-6-.1-1-3 3 .5 4 .5 4 .2h9.3L-18 4l4.4-.6 4-.8 3.7-.8L-3 1z" style="fill:#2f0302" transform="translate(1422 1625)"/>
  <path d="M0 0h5L4 2l8 1v3H-3V1z" style="fill:#0a0a0a" transform="translate(2038 1352)"/>
  <path d="M0 0h1l.1 4L1 9l-.7 4.4-1 4.5-1.2 4.7L-3 27l-1 3.5-1.1 3L-7 38l-2 2 .4-3 .6-4 1-3.6 1.4-3.8 1.3-4.2L-3 17l1-4.8.8-4.7.7-4.3z" style="fill:#96423f" transform="translate(1468 1539)"/>
  <path d="M0 0h4L3 7l2 1-5 3-3.8.2L-7 11l4-4h3l-.6-3-.4-3z" style="fill:#d1d1d0" transform="translate(2114 1235)"/>
  <path d="m0 0 2 1-3 3-4.4 1.6L-10 7l-5 1-5.3.1h-12.1L-37 8V7h3.6l4.9-.2 5.2-.2L-18 6l4.8-1.1L-9 3.5-5 2.2-2 1z" style="fill:#963d37" transform="translate(1426 1613)"/>
  <path d="M0 0h16v3L5 4v3L2 6 0 3z" style="fill:#151616" transform="translate(2105 1334)"/>
  <path d="m0 0 2 3 1 2.8L4.4 9l1.3 3.5L7 16l1.7 3.2 1.6 3L13 27v3l-2.2-2.5L8 24l-2-3.8L4 16l-2.2-4.6L0 7l-.2-4z" style="fill:#2c0404" transform="translate(1321 1569)"/>
  <path d="m0 0 2 2 2.4 4.4L7 11l3 4H8v2l-3-1-3.2-4.7L-1 6l.1-3.6z" style="fill:#100b0a" transform="translate(1325 1585)"/>
  <path d="M0 0h2L1 2zm7 7 4 2 2.4 1.6 2.7 1.8 2.9 1.8 3 1.8 3.2 1.3 3 1.1L33 20l-4 1-5.2-1.6-3-1L18 17l-4.5-3-3.5-3z" style="fill:#9b4441" transform="translate(1346 1598)"/>
  <path d="m0 0 4 1-1 5H1v4l2 1h-9l-1-2 4-1 1.8-4z" style="fill:#d8dad9" transform="translate(2044 1331)"/>
  <path d="M0 0h10v2H1l1 8h-3l-2 2-1-6h2l1-5z" style="fill:#280d0d" transform="translate(1319 1559)"/>
  <path d="m0 0 2 1v2h4V1h2v3l7-1v3H0z" style="fill:#020102" transform="translate(2035 1250)"/>
  <path d="m0 0 4 4 1.4 2.6L7 10l1.5 2.6 1.7 2.8L13 20h-3l-2-2.6-2-3.5q-1.1-1.5-2.2-3.4L2 7 .8 3z" style="fill:#290303" transform="translate(1334 1575)"/>
  <path d="m0 0 2.2 2.2L5 5l2.4 2.5L9.8 10l2.6 2.6L15 15l4.6 3.1L23 20l-3 1-5-3-3.8-3.5-4-4-4-4L0 3z" style="fill:#2e0403" transform="translate(1335 1599)"/>
  <path d="m0 0 1 4-3 5-3.2 4.3L-8 17v-3l1.8-3.4L-4 6.8-1.7 3zm-10 17v3l-3 2 2-4z" style="fill:#320403" transform="translate(1466 1583)"/>
  <path d="M0 0h11l1 3H3l2 4-4-1z" style="fill:#0a0b0b" transform="translate(2105 1284)"/>
  <path d="M0 0h2l-.3 3.5L1 8l-1.3 4-1.6 3.8-1.6 4L-5 23l-2 3-2-1 1.2-2.4 1.7-3.2 1.6-3.2L-3 13l1.2-3.2L-1 7l.6-3.9z" style="fill:#280202" transform="translate(1463 1556)"/>
  <path d="M0 0h6l1 3-3.8.6L-1 5l-2 3.1-1 2.9h-1V5l2.1-2.9z" style="fill:#1f1f1e" transform="translate(2039 1288)"/>
  <path d="M0 0h11l1 3-2 1H1z" style="fill:#c1c1bf" transform="translate(2107 1298)"/>
  <path d="m0 0 4.4.9L9 2l1 2-3 3-5.2-.8L-3 5z" style="fill:#dddede" transform="translate(2111 1278)"/>
  <path d="m0 0 2 1L5.1.6 8 0 7 7 1 6z" style="fill:#282928" transform="translate(2034 1190)"/>
  <path d="m0 0 2 1-2 2-.6 3.1L-1 9l-2.7-1.9L-7 5l-4-2 1-1 4.5-.5L-1 1z" style="fill:#e4e3e4" transform="translate(2048 1220)"/>
  <path d="M0 0h9v4H-1z" style="fill:#c2c2c2" transform="translate(2038 1177)"/>
  <path d="m0 0 4 1 4 1v3L4 7 0 6l-1-5z" style="fill:#171717" transform="translate(2042 1347)"/>
  <path d="M0 0h2v6h4l1-2v2h2v3H1L0 8V0" style="fill:#111" transform="translate(2105 1233)"/>
  <path d="m0 0 3 1-3 4-5.2 1.3-4.8.7 2-4 4-1.8z" style="fill:#120f0f" transform="translate(1422 1627)"/>
  <path d="M0 0h5v3L-5 4V3l-9-1V1l2.9-.2 3.8-.3 3.7-.3z" style="fill:#1b1515" transform="translate(1405 1614)"/>
  <path d="M0 0h1v5l-2 1-2.8.1h-3.3L-13 6l-1-4 2 1q2.5 0 5 .3l5-.3z" style="fill:#090809" transform="translate(2049 1215)"/>
  <path d="M0 0h3v5L0 6l-1 2-4 2-3-2 5-2 1.8-3.1z" style="fill:#cacbca" transform="translate(2045 1309)"/>
  <path d="m0 0 2 1 5.1.6L12 2l-1 3H1z" style="fill:#121312" transform="translate(2035 1179)"/>
  <path d="M0 0h3l3 5 3.6 2.2L13 9l1 2-5-2-4.8-3L0 3z" style="fill:#9a413d" transform="translate(1349 1611)"/>
  <path d="M0 0h2v2l2.6.3L8 3l3.9 1.6L15 6l-4 1-3.2-1-3.5-1.4L.6 3-2 2z" style="fill:#9e423f" transform="translate(1365 1621)"/>
  <path d="m0 0 3 4 3.2.8L9 5 8 8H2l-3-3z" style="fill:#111" transform="translate(2036 1295)"/>
  <path d="m0 0 5 1 1 1-.4 3.6L5 9H2l1-6H0z" style="fill:#232423" transform="translate(2115 1220)"/>
  <path d="M0 0h6l2 2v6L4 9l1-6-3-1z" style="fill:#232323" transform="translate(2113 1195)"/>
  <path d="M0 0h2L1 5l1 2-2 2V6l-10-2V3H0z" style="fill:#c1bfc0" transform="translate(2050 1343)"/>
  <path d="M0 0h10l1 3H0z" style="fill:#e2e1e1" transform="translate(2037 1215)"/>
  <path d="M0 0h22v1L3 2 1 7H0z" style="fill:#030714" transform="translate(320 525)"/>
  <path d="m0 0 10 2-1 3-9-1z" style="fill:#161010" transform="translate(1379 1630)"/>
  <path d="m0 0 2 1-4 3-3.9.5-4.3.2-4.4.2-3.4.1V4l3.2-.6 4.1-.8 4.1-.8L-3 1z" style="fill:#370807" transform="translate(1422 1625)"/>
  <path d="m0 0 2 1-3 3-5 2-4.3.1L-14 6l4-2 5.1-2.2z" style="fill:#a0423e" transform="translate(1426 1613)"/>
  <path d="M0 0h4L3 7 0 6l-1-5zm3 7 2 1Z" style="fill:#cfcfce" transform="translate(2114 1235)"/>
  <path d="M0 0h5L2 4l-.5 3.5-.2 3.8-.2 3.8L1 18H0z" style="fill:#020410" transform="translate(890 595)"/>
  <path d="m0 0 4 1 1 1v6L0 9l2-3-1-4z" style="fill:#0d0d0d" transform="translate(2116 1270)"/>
  <path d="m0 0 5 1-1 4-5-1z" style="fill:#bfc0c0" transform="translate(2114 1272)"/>
  <path d="m0 0 3.2.5L7 1h5l1 2H1z" style="fill:#e0e0e0" transform="translate(2064 1188)"/>
  <path d="m0 0 1 4-.2 4-.8 4-4 4z" style="fill:#320707" transform="translate(1475 1556)"/>
  <path d="M0 0h9l1 4-11-2z" style="fill:#060606" transform="translate(2110 1295)"/>
  <path d="M0 0h6L4 3l-2.8.3-3.3-.1L-8 3V2l3.4-.4L-1 1z" style="fill:#0b0000" transform="translate(1395 1616)"/>
  <path d="m0 0 4 1v5H0z" style="fill:#cbcbcb" transform="translate(2037 1247)"/>
  <path d="M0 0h1v6l-2 2h-5l1-3 3-1z" style="fill:#232423" transform="translate(2120 1209)"/>
  <path d="m0 0 4 1-2 2-.4 3.3-.2 3.8-.3 4L1 17H0z" style="fill:#030612" transform="translate(1841 1123)"/>
  <path d="M0 0h3L2 3l-.3 3.6-.3 4-.2 4.2L1 18H0z" style="fill:#020511" transform="translate(700 595)"/>
  <path d="M0 0h1v15H0l-.4-4.3L-1 6l-1-3z" style="fill:#919192" transform="translate(1278 1673)"/>
  <path d="m0 0 2 1-4.9 3L-8 7l-2-1 3.3-2.4L-3 1z" style="fill:#95403f" transform="translate(1439 1615)"/>
  <path d="m0 0 5 1 5 1v1H0v2h-2l1-4z" style="fill:#272827" transform="translate(2107 1295)"/>
  <path d="m0 0 4 2-1 3-5-1z" style="fill:#cfcecd" transform="translate(2115 1209)"/>
  <path d="m0 0 4 1v6L1 8V3z" style="fill:#070707" transform="translate(2046 1188)"/>
  <path d="M0 0h3v7H0z" style="fill:#262526" transform="translate(2118 1283)"/>
  <path d="M0 0h3v7H0z" style="fill:#252424" transform="translate(2043 1235)"/>
  <path d="m0 0 2 2-2.4 2.5L-3 7h-2l2-5z" style="fill:#191d2a" transform="translate(1466 255)"/>
  <path d="m0 0 2 1-1 6h-3l1-5z" style="fill:#cfcfcf" transform="translate(2039 1329)"/>
  <path d="m0 0 4 1-1 5-3-1z" style="fill:#c8c8c8" transform="translate(2044 1331)"/>
  <path d="M0 0h2L1 4 0 8h-2V2z" style="fill:#141413" transform="translate(2037 1328)"/>
  <path d="M0 0h2L0 4l-3 3h-2l2-5z" style="fill:#1c202c" transform="translate(515 1162)"/>
  <path d="m0 0 2 3 1.1 4.2L4 11 0 7l-.2-3.7z" style="fill:#310908" transform="translate(1321 1569)"/>
  <path d="M0 0h6l2 2-1 4-3-4h-5z" style="fill:#a94340" transform="translate(1322 1562)"/>
  <path d="M0 0h2L0 4l-3 3h-2l2-4z" style="fill:#11131f" transform="translate(1846 862)"/>
  <path d="M0 0h3v6H0z" style="fill:#20211f" transform="translate(2043 1319)"/>
  <path d="m0 0 3 1 1.2 3L5 7 1 6z" style="fill:#242323" transform="translate(2034 1227)"/>
  <path d="M0 0h7L6 2 3 3.1 0 4l-1-2z" style="fill:#e1e1e1" transform="translate(2111 1217)"/>
  <path d="M0 0h8L5.6 2 3 4H1z" style="fill:#040405" transform="translate(2110 1196)"/>
  <path d="M0 0h4v4l-5-1z" style="fill:#d3d3d1" transform="translate(2038 1190)"/>
  <path d="m0 0 1 4Q.2 5.5-.4 7.3L-2 10l-1-4 1.4-3.2z" style="fill:#a14541" transform="translate(1462 1569)"/>
  <path d="m0 0 1 3-2 4-2-1V2z" style="fill:#ccccca" transform="translate(2040 1308)"/>
  <path d="M0 0h1v6l-3 1V1z" style="fill:#eff0f1" transform="translate(2023 1260)"/>
  <path d="m0 0 3 1-1 2-2-1-1 3-3-1V2z" style="fill:#d3d3d3" transform="translate(2111 1215)"/>
  <path d="M0 0h3l1 4h-6z" style="fill:#a9a9ae" transform="translate(2016 590)"/>
  <path d="m0 0 2 2-6 5V4z" style="fill:#161925" transform="translate(1846 255)"/>
</svg>
