<svg xmlns="http://www.w3.org/2000/svg" width="2874" height="3627" preserveAspectRatio="none" style="display:block" viewBox="0 0 3627 3627">
  <defs>
    <linearGradient id="a" x1="268.8" x2="277" y1="1479.5" y2="1513" gradientUnits="userSpaceOnUse">
      <stop class="stop0" offset="0" stop-color="#020303"/>
      <stop class="stop1" offset="1" stop-color="#1e0d04"/>
    </linearGradient>
  </defs>
  <path fill="#020201" d="M927 0h1814q13 4 19 16c6 15 4 230 3 260h314c170 0 330-14 463 117 36 36 84 108 83 161v4h4v130c-9 3-14 5-23 4-60 18-85 74-20 108 15 7 28 6 43 9v293c-38 6-66 10-81 51 1 19 2 28 15 44 30 24 38 15 66 26v286c-27 10-60 4-77 42-12 31 8 61 37 71 13 5 32 7 40 11v287l-1 1c-24 3-65 12-75 38-22 60 36 76 76 83v288c-29 9-57 4-75 37q-9 19-3 39 10 24 35 36c14 8 29 4 43 9v290c-31 3-49 6-71 30l-1 2c-13 23-11 36 2 58 24 23 36 26 70 29v292c-16 1-25 1-41 7-39 16-58 60-21 90 24 20 36 16 62 23v100c-3 5-7 26-9 34-50 157-208 217-358 218H416c-41 0-84 2-124-4a346 346 0 0 1-270-186c-25-55-18-110-19-169 34-6 68-13 78-52v-18c-11-38-42-47-77-50-2-95 0-196-1-291 39-4 63-12 78-50v-20c-15-38-40-47-78-48 1-62 3-146 0-207l-3-2v-49c6-7 4-26 4-36 95 0 112-107 0-118q2-12-4-22v-181c6-8 4-71 4-85 23-5 37-5 57-21 41-33 14-83-29-95q-14-3-28-4c-1-20 3-77-4-90v-14c6-10 4-163 4-187 17-6 30-6 49-14l5-4q43-38 6-81c-11-8-17-12-29-15-6-2-28-6-30-12-7-22 5-120-5-134v-91c5-15 4-44 4-61h5c28-3 46-11 65-33 7-16 7-21 6-38q-13-36-51-43-13-1-24-6l-5-11V820q4-7 4-16c10-11 68 1 77-57v-14c-18-57-64-39-81-57V570c4-5 6-37 10-49q21-72 74-125c134-136 305-122 478-122h343c3-22 1-60 1-82l-1-114c0-18-1-45 4-63 2-8 11-12 18-15M15 1708c1 38 3 84 0 121h232c192-15 288 208 81 280-38 13-99 9-142 9l-171-1v121h182c49 0 87-3 135 11q42 14 74 44c93 94 12 210-99 230-25 4-44 5-69 4q-111-2-220 0c-4 32-2 86-1 120l139 1c109 0 230-14 282 105 10-19 18-30 35-42v-834c1-104-2-209 0-313v-41c2-39 39-50 71-53 11-32 17-32 30-56l5-1q12-11 27-18c11-6 18-6 23-17l5 3 52-5 148-1 1383 1h471l191-1c59 1 109-5 162 27-2-17-4-33 8-47 23-28 70-31 97-7 14 13 16 23 17 41l-1 68v1254c15 10 23 18 33 35q41-66 117-84c42-9 96-4 141-5l158-1c1-38 4-83 1-120h-158c-43 0-108 3-149-8q-48-12-83-47c-87-87-23-199 81-226 40-11 79-8 120-8h191l-2-61q1-31 1-61-95 2-191 0c-39-1-71 3-111-6-106-22-175-138-90-227 42-43 92-55 152-55h242c-1-18-4-63-2-77 3-9 1-17 5-26h2l7 10v-111c-8-4-27-6-40-11-29-10-49-40-37-71 17-38 50-32 77-42v-286c-28-11-36-2-66-26-13-16-14-25-15-44 15-41 43-45 81-51V809c-15-3-28-2-43-9-65-34-40-90 20-108-9-5-10-2-23-4h-1c13-4 18-5 32-7 0-18-2-50 1-67h-169c-39 0-85-2-123 5-61 13-124 63-124 130q1 15 3 29v14l-4 5c-38-85 34-167 115-186 30-7 56-7 87-6 72 2 143-1 215 0 0-33-1-62-12-94-29-80-95-144-171-180q-75-33-155-43c-27-3-511-2-512-2-3 7-2 6 0 14a9755 9755 0 0 1 0 212c-1 13-2 59 0 70l1 6q-1 46-1 93c-3 100 1 200 2 300l-2 3v135q2 37-1 74 0 7-5 11c-11 11-127 4-152 5l-1 3-4-5h-53q1 49 1 97c-1 12-13 21-24 21-33 2-66-1-99 1-47 4-5-103-29-119l-5-1c-17 12 0 94-10 112-19 12-66 6-89 7-14 1-42 1-51-10-5-15-2-92-1-110l-25 1 2 95c0 34-65 29-78 17-19-15 5-103-14-114-5 1-5 1-9 4-4 20 7 84-3 107l-10 9c-14 0-54 2-63-4-12-16-7-89-7-114h-20l-1 55c-1 18 4 46-9 60-12 6-43 4-58 4l-14-12c1-37 1-69-2-106l-17-1c-1 28 7 106-14 118q-5-4-12-5c-50-4-49 10-49-48-3 7-3 24-3 32l-1-1c-4-28 0-60-3-94l-2-2q-9 0-17 2c-8 32 7 82-6 111-2 5-78 11-78-5v-108h-20q1 49 1 98c-1 31-69 23-78 13-16-17 6-97-13-111-5-1-5-1-10 1-7 25 6 86-3 106q-2 5-8 8c-9 5-50 6-61 2q-6-1-10-7c-9-17 6-104-8-109q-5-2-11 0c-9 10 3 98-8 112-6 8-70 7-73-2-6-27-6-84-3-111l-23-1c1 22 5 92-2 109-14 14-47 12-66 12-18 0-57 3-72-7-9-14-6-92-5-113l-21-1c1 19 4 96-2 111-16 16-135 14-139-1-4-18-1-86 0-109l-46 2c-6 6-4 7-11 8l1-6c-26-5-101 5-124-4q-2-4-5-13V978l2-1-1-3c1-11-1-65-1-80l1-172 1-46-1-78c0-7-1-8-6-12l3-1 1-89c-3-26 4-191-2-202l-5-1h-3l6-5-1-2c-26-4-120-3-149-1H491c-132-8-270 9-375 99a272 272 0 0 0-99 212h141c85 0 183-10 249 55 50 49 48 135-4 183-68 63-153 52-238 52q-74-1-148 1c-1 44-3 77-1 122h149c86-1 174-12 241 54 51 50 53 127 1 177-63 61-127 56-208 56H15c1 34-1 92 1 122 66 0 133-3 200 0 32 1 65-2 97 6 65 15 132 64 129 137 1 75-59 125-127 140-40 9-76 7-116 8q-92 1-184-1m159 1073-1 11q3 33 30 52c49 31 101 20 137-21 22-46-5-78-50-94-7-3-14-2-22-5-40 0-74 14-91 51zm54-1281c-74 29-71 103 0 127 26 9 55 7 79-6 52-26 56-83 5-113-28-16-54-15-84-8m61-412c-53-12-110 7-116 68 5 22 9 28 25 44l5 3q48 31 102 8c31-13 55-49 37-82-12-23-30-33-53-41m-80-403c-21 16-31 24-36 52v10c9 28 16 37 41 53 17 6 26 10 44 10q17 1 34-5c25-7 39-20 51-42 4-15 5-18 3-33-11-42-53-57-92-58-19 3-26 5-45 13m-36 2520c6 28 15 43 41 57q31 15 64 10c38-7 79-37 69-80-13-40-47-55-86-58-33 3-66 13-82 46-5 10-4 14-6 25m3179-883c-24 5-48 13-62 35q-14 20-10 44 7 28 31 43c21 13 48 18 72 14 22-4 45-14 58-33q15-19 11-43-6-29-31-45c-21-14-44-16-69-15M180 2001l4 5q19 25 49 34c43 12 108-9 114-55 13-87-134-107-168-36q-5 14-6 27 2 13 7 25m25 435c26 16 70 22 97 7 116-63-8-166-93-116q-56 34-24 92zm3163-386c26-1 52-9 70-29q16-19 15-43-3-29-26-46c-16-14-40-21-61-21l-2 1c-27 3-53 9-72 31a58 58 0 0 0-13 43q4 27 25 44c18 13 42 20 64 20m-17 1092c-24 5-48 14-62 35q-14 20-9 44 7 29 33 44 33 18 69 14c25-6 48-15 62-38q13-22 7-45-9-28-35-42c-19-11-44-16-65-12m-73-330q6 11 14 24c51 73 214 14 146-75-31-40-103-39-140-4-18 21-19 28-20 55"/>
  <path fill="#272625" d="M752 285c29-2 123-3 149 1l1 2-6 5h3l5 1c6 11-1 176 2 202l-1 89-3 1c5 4 6 5 6 12l1 78-1 46-1 172c0 15 2 69 1 80l1 3-2 1v215q2 9 5 13c23 9 98-1 124 4l-1 6c7-1 5-2 11-8l46-2c-1 23-4 91 0 109 4 15 123 17 139 1 6-15 3-92 2-111l21 1c-1 21-4 99 5 113 15 10 54 7 72 7 19 0 52 2 66-12 7-17 3-87 2-109l23 1c-3 27-3 84 3 111 3 9 67 10 73 2 11-14-1-102 8-112q6-2 11 0c14 5-1 92 8 109q3 6 10 7c11 4 52 3 61-2q5-3 8-8c9-20-4-81 3-106 5-2 5-2 10-1 19 14-3 94 13 111 9 10 77 18 78-13q0-49-1-98h20v108c0 16 76 10 78 5 13-29-2-79 6-111q8-3 17-2l2 2c3 34-1 66 3 94l1 1c0-8 0-25 3-32 0 58-1 44 49 48q7 1 12 5c21-12 13-90 14-118l17 1c3 37 3 69 2 106l14 12c15 0 46 2 58-4 13-14 8-42 9-60l1-55h20c0 25-5 98 7 114 9 6 49 4 63 4l10-9c10-23-1-87 3-107 4-3 4-3 9-4 19 11-5 99 14 114 13 12 78 17 78-17l-2-95 25-1c-1 18-4 95 1 110 9 11 37 11 51 10 23-1 70 5 89-7 10-18-7-100 10-112l5 1c24 16-18 123 29 119 33-2 66 1 99-1 11 0 23-9 24-21q0-48-1-97h53l4 5 1-3c25-1 141 6 152-5q6-4 5-11 3-37 1-74V984l2-3c-1-100-5-200-2-300q0-46 1-93l-1-6c-2-11-1-57-1-70V364c-3-10-4-54 1-64-2-8-3-7 0-14 1 0 485-1 512 2q81 9 155 43c76 36 142 100 171 180 11 32 12 61 12 94-72-1-143 2-215 0-31-1-57-1-87 6-81 19-153 101-115 186l4-5v-14q-2-14-3-29c0-67 63-117 124-130 38-7 84-5 123-5h169c-3 17-1 49-1 67-14 2-19 3-32 7h1c13 2 14-1 23 4-60 18-85 74-20 108 15 7 28 6 43 9v293c-38 6-66 10-81 51 1 19 2 28 15 44 30 24 38 15 66 26v286c-27 10-60 4-77 42-12 31 8 61 37 71 13 5 32 7 40 11v111l-7-10h-2c-4 9-2 17-5 26-2 14 1 59 2 77h-242c-60 0-110 12-152 55-85 89-16 205 90 227 40 9 72 5 111 6q95 2 191 0 0 31-1 61l2 61h-191c-41 0-80-3-120 8-104 27-168 139-81 226q36 35 83 47c41 11 106 8 149 8h158c3 37 0 82-1 120l-158 1c-45 1-99-4-141 5q-76 18-117 84c-10-17-18-25-33-35V1457l1-68c-1-18-3-28-17-41a70 70 0 0 0-97 7c-12 14-10 30-8 47-53-32-103-26-162-27l-191 1h-471l-1383-1-148 1-52 5-5-3c-5 11-12 11-23 17q-15 7-27 18l-5 1c-13 24-19 24-30 56-32 3-69 14-71 53v41c-2 104 1 209 0 313v834c-17 12-25 23-35 42-52-119-173-105-282-105l-139-1c-1-34-3-88 1-120q109-1 220 0c25 1 44 0 69-4 111-20 192-136 99-230q-32-30-74-44c-48-14-86-11-135-11H15v-121l35 1h136c43 0 104 4 142-9 207-72 111-295-81-280H15c3-37 1-83 0-121q92 2 184 1c40-1 76 1 116-8 68-15 128-65 127-140 3-73-64-122-129-137-32-8-65-5-97-6-67-3-134 0-200 0-2-30 0-88-1-122h184c81 0 145 5 208-56 52-50 50-127-1-177-67-66-155-55-241-54H16c-2-45 0-78 1-122q74-2 148-1c85 0 170 11 238-52 52-48 54-134 4-183-66-65-164-55-249-55H17l1-26c4-73 44-139 98-186 105-90 243-107 375-99h261m2529 858-2 10c-6 42 35 71 72 76 29 3 50-2 74-17q53-42 10-94c-23-19-36-23-64-26-41 1-71 12-90 51m71 359c-25 6-49 15-64 37q-14 19-8 43c5 19 20 35 37 45 21 12 44 13 68 11 24-6 48-17 61-39q12-22 5-44-11-31-39-43c-20-10-39-10-60-10m72-700c63-53 16-117-55-122-38-2-91 26-90 71 1 34 35 56 66 65 34 3 47 4 79-14"/>
  <path fill="#d5bb85" d="M3550 1716h-121c-74 0-146 4-203-52-53-52-60-132-2-185 54-51 103-52 173-52l2 3q-8 2-16 5l228 1v64c-112 19-100 129-1 141 1 16 3 49 0 63-4 4-2 3-7 4l11 4c-17 0-49-1-64 4m-165-78c24-6 48-17 61-39q12-22 5-44-11-31-39-43c-20-10-39-10-60-10-25 6-49 15-64 37q-14 19-8 43c5 19 20 35 37 45 21 12 44 13 68 11"/>
  <path fill="#020201" d="M3550 1716h-121c-74 0-146 4-203-52-53-52-60-132-2-185 54-51 103-52 173-52l2 3q-8 2-16 5c-30 0-49 1-79 9-99 27-149 138-67 215 56 52 121 48 192 48l113-1c11 0 52 0 61 2l11 4c-17 0-49-1-64 4"/>
  <path fill="#dbba72" d="M3350 1442c36-1 72 2 108 1 39 0 104-8 140 1 7 8 3 41 3 51q-43 10-69 47-11 17-8 36 2 8 3 17l2 1 2-2 1 1c11 19 24 26 40 41-9-2-19-11-29-14 8 13 41 19 56 25 3 5 3 20 4 27q2 10-5 19-7 5-18 6l-27 2c-72 1-147 3-218-4-38-4-73-19-97-49-32-40-48-97-13-141 6-6 28-23 29-30q-10 6-19 16v-2l3-6c21-25 81-39 112-43m35 196c24-6 48-17 61-39q12-22 5-44-11-31-39-43c-20-10-39-10-60-10-25 6-49 15-64 37q-14 19-8 43c5 19 20 35 37 45 21 12 44 13 68 11"/>
  <path fill="#d5bb85" d="M3355 1483q37-1 71 13 32 14 45 46c6 20 5 46-5 65a88 88 0 0 1-59 44q-13 2-26 5l-11 2q-5 2-9 1-6-1-14-4c-33-6-50-10-74-35a58 58 0 0 1-17-44c1-9 2-34 9-40v7l2-1 3-11 12-11c22-21 44-29 73-37m30 155c24-6 48-17 61-39q12-22 5-44-11-31-39-43c-20-10-39-10-60-10-25 6-49 15-64 37q-14 19-8 43c5 19 20 35 37 45 21 12 44 13 68 11"/>
  <path fill="#110904" d="M3357 1490c25-3 55 5 76 19 17 12 31 30 34 51q4 28-13 52c-20 25-48 34-78 38q-40 3-74-18a80 80 0 0 1-36-50q-5-28 12-52c19-26 48-36 79-40m28 148c24-6 48-17 61-39q12-22 5-44-11-31-39-43c-20-10-39-10-60-10-25 6-49 15-64 37q-14 19-8 43c5 19 20 35 37 45 21 12 44 13 68 11"/>
  <path fill="#d5bb85" d="M3613 1296h-159c-44 0-94 4-136-6-164-38-163-220 1-259 39-9 87-5 127-4h166v65c-20 3-27 5-45 14-6 12-16 17-24 27q-1 11 3 20c1 19 2 28 15 44-7-3-6-4-12-2 4 24 69 28 67 44-1 11-1 46-3 57m-332-153-2 10c-6 42 35 71 72 76 29 3 50-2 74-17q53-42 10-94c-23-19-36-23-64-26-41 1-71 12-90 51"/>
  <path fill="#0f0f0e" d="M3567 1106c-6 12-16 17-24 27q-1 11 3 20c1 19 2 28 15 44-7-3-6-4-12-2 4 24 69 28 67 44-1 11-1 46-3 57-3-15-2-49-2-64l-6-1c-70-13-106-82-38-125"/>
  <path fill="#dbba72" d="M3375 1030h232l-1 3h-8l2 2c7 8 5 31 3 42l-2 8c-5 8-46 21-58 29q-17 14-20 34c-3 17 5 42 15 55 11 14 40 27 58 30q7-1 10 4l-13-3-1 1q5 4 11 6c0 12 3 36-5 45-7 9-44 4-57 4l-29-1c-55 1-157 10-207-7-18-7-32-21-49-31l-20-7c-19-23-33-49-33-80 0-21 9-37 18-54q6-14 15-26c19-24 57-42 87-46 10-1 41 0 48-4zm-94 113-2 10c-6 42 35 71 72 76 29 3 50-2 74-17q53-42 10-94c-23-19-36-23-64-26-41 1-71 12-90 51"/>
  <path fill="#d5bb85" d="M3454 1119c19 4 24 35 23 50-2 22-18 43-34 57a95 95 0 0 1-71 22c-20-1-53-11-74-13l-21-22c-13-16-26-41-23-63 4-24 22-39 40-54 27-21 60-25 93-21 5 0 18 5 21 11l1 2c21 8 30 14 45 31m-173 24-2 10c-6 42 35 71 72 76 29 3 50-2 74-17q53-42 10-94c-23-19-36-23-64-26-41 1-71 12-90 51"/>
  <path fill="#0f0f0e" d="m3278 1120 3 23-2 10c-6 42 35 71 72 76 29 3 50-2 74-17l5 4 18-5c-37 36-101 40-145 13-28-17-45-45-36-78 2-11 5-16 11-26"/>
  <path fill="#020201" d="M3435 1118c11-3 16 6 25 12q13 22 7 46-6 20-19 35l-18 5-5-4q53-42 10-94M3278 1120c22-25 42-34 74-39l21 9-2 2c-41 1-71 12-90 51z"/>
  <path fill="#0f0f0e" d="M3352 1081c21-1 37 0 57 7 21 8 30 14 45 31l6 11c-9-6-14-15-25-12-23-19-36-23-64-26l2-2z"/>
  <path fill="#d5bb85" d="M3200 778q-2-14-3-29c0-67 63-117 124-130 38-7 84-5 123-5h169c-3 17-1 49-1 67-14 2-19 3-32 7-85 42-48 124 32 131v66h-167c-101 0-202 8-245-107m224 24c63-53 16-117-55-122-38-2-91 26-90 71 1 34 35 56 66 65 34 3 47 4 79-14"/>
  <path fill="#dbba72" d="m3527 621 78-1c-1 15 2 31 1 46l-5 8h5v3c-21 4-35 8-52 22a71 71 0 0 0-28 51l-1 2q-1-12 3-24l1-2-1 1c-8 12-6 26-5 40q4 3 7 9l7 11c10 13 34 33 51 35l9 2c11 10 3 18 7 30q3 12-5 24l4 1 1 2-4 2c-6 2-35-2-45-2h-127q-40 2-78 0-10-1-21-5c-35-9-60-20-87-43a113 113 0 0 1-8-152q14-16 33-29c56-40 105-31 169-29q46 1 91-2m-103 181c63-53 16-117-55-122-38-2-91 26-90 71 1 34 35 56 66 65 34 3 47 4 79-14"/>
  <path fill="#d5bb85" d="M3362 661c23-1 40 2 61 10l2 2h1l2 1-3-1c-5 2-14-2-19-4 10 5 20 13 31 11 34 34 33 43 35 88l4-17q4 7 1 14c-6 22-33 50-53 61-7 4-10 3-18 1-6 7-10 10-20 11-32 5-70-8-95-27-18-13-34-32-37-55q-2-10 2-18 4-1 7-3c5-7 6-25 17-38 19-25 53-32 82-36m62 141c63-53 16-117-55-122-38-2-91 26-90 71 1 34 35 56 66 65 34 3 47 4 79-14"/>
  <path fill="#110904" d="M3318 820c-10-3-24-14-31-21-30-32-29-73 5-104 55-50 180-27 176 61 0 21-15 39-31 52-36 23-79 30-119 12m106-18c63-53 16-117-55-122-38-2-91 26-90 71 1 34 35 56 66 65 34 3 47 4 79-14"/>
  <path fill="#0f0f0e" d="M3424 802c5 5 5 4 13 6-36 23-79 30-119 12 13 2 15 1 27-4 34 3 47 4 79-14"/>
  <path fill="#110904" d="M3580 688h1c13 2 14-1 23 4-60 18-85 74-20 108 15 7 28 6 43 9v293c-38 6-66 10-81 51q-5-9-3-20c8-10 18-15 24-27 18-9 25-11 45-14v-65h-166c-40-1-88-5-127 4-164 39-165 221-1 259 42 10 92 6 136 6h159c2-11 2-46 3-57 2-16-63-20-67-44 6-2 5-1 12 2 30 24 38 15 66 26v286c-27 10-60 4-77 42-12 31 8 61 37 71 13 5 32 7 40 11v111l-7-10h-2c-4 9-2 17-5 26l2-45c-18-1-46 1-65 1 15-5 47-4 64-4l-11-4c5-1 3 0 7-4 3-14 1-47 0-63-99-12-111-122 1-141v-64l-228-1q8-3 16-5l-2-3q110 0 218-1c0-45 1-75-3-120h-175c-40 0-83 3-123-6-173-42-176-231-4-276 43-12 90-7 135-7l167-1c3-23 6-41 5-64 0-19-4-37-4-55v-2h-139c-37 0-115 3-148-3q-42-8-78-31c-19-13-48-41-52-64l4-5v-14c43 115 144 107 245 107h167v-66c-80-7-117-89-32-131"/>
  <path fill="#dbba72" d="M869 1245c-41-33-37-60-36-109 1-28-3-65 2-92q5-20 17-36 22-26 55-30v215q2 9 5 13c23 9 98-1 124 4l-1 6c-9 10-12 17-24 26q-16 13-37 19c-37 11-72 3-105-16"/>
  <path fill="#d5bb85" d="M869 1245c-41-33-37-60-36-109 1-28-3-65 2-92q5-20 17-36 22-26 55-30v215q2 9 5 13c-9-2-9-7-11-15v4c-6-48-2-100-5-149-1-15 4-38 1-51q-5-3-12-2c-9 6-24 29-36 32-2 24-9 35-8 64-1 27-12 69 1 93 11 21-4 17 10 33 32 35 57 47 104 44 16-1 47-18 55-17q-16 13-37 19c-37 11-72 3-105-16M2763 984a79 79 0 0 1 49 64c3 26 4 138-4 159q-5 13-13 23c-51 47-119 51-172 5q-10-12-18-26c25-1 141 6 152-5q6-4 5-11 3-37 1-74z"/>
  <path fill="#dbba72" d="m2773 994 17 16c16 17 18 31 18 53l-2-5q-2 4-1 9l4 2v9l-4 6q0 12 1 24c0 29 5 73-4 100-5 19-26 31-42 40-19 9-53 17-73 10l-12-2h-2l-4-2q-16-4-30-14c-7-6-15-13-15-21 11-11 47 1 63-2 22-4 54 5 74-8q7-4 9-13c5-19 0-126-1-150-1-16-4-34-1-49z"/>
  <path fill="#d5bb85" d="m899 293 5 1c6 11-1 176 2 202l-1 89c-17-9-39-15-52-32-32-42-15-119-19-170-2-30 18-56 39-74z"/>
  <path fill="#dbba72" d="M896 305zc-3 10 2 46 2 60-1 64-5 133-3 197-5 4-2 3-9 4-8-2-11-5-18-10-36-19-28-96-27-130 0-47-3-88 44-114l9-7zM2762 305c33 20 52 40 53 81v60c1 57 9 106-52 136-2-11-1-57-1-70z"/>
  <path fill="#d5bb85" d="M2762 305c33 20 52 40 53 81l-4-2c-9-45-7-26-34-62l-4-4c-4 7-3 7 0 14-11 52-3 96 1 148 1 21-12 52-4 73 2 5 2 6 2 12h2c44-25 26-61 33-103 1-4-3-15-3-17 3-14 9-29 8-43 3 12 0 30 3 44 1 57 9 106-52 136-2-11-1-57-1-70z"/>
  <path fill="#fcfcfc" d="M579 1413c-18-3-45-14-44-34 1-53 93-63 94-1-5 11-12 11-23 17q-15 7-27 18"/>
  <path fill="#0f0f0e" d="M2763 300q35 14 52 49c17 34 7 71 7 107 1 55 4 107-58 132l-1-6c61-30 53-79 52-136v-60c-1-41-20-61-53-81v59c-3-10-4-54 1-64M906 591c-21-5-50-17-63-36-19-27-13-75-15-107q-3-42 0-83c2-19 22-43 35-56q5-3 10 0c-21 18-41 44-39 74 4 51-13 128 19 170 13 17 35 23 52 32l-3 1c5 4 6 5 6 12l1 78-1 46c-3-8-1-114-2-131"/>
  <path fill="#110904" d="m869 1245-6 1c-49-26-37-102-39-146-1-40 5-97 46-116 14-7 20-16 38-10l1 3-2 1a84 84 0 0 0-72 66c-5 27-1 64-2 92-1 49-5 76 36 109M2765 981c48 18 56 55 56 101 1 34 7 120-16 147l-10 1q8-10 13-23c8-21 7-133 4-159q0-12-5-21-14-31-44-43z"/>
  <path fill="#0f0f0e" d="m1828 1206 2 2c3 34-1 66 3 94l1 1c0-8 0-25 3-32 0 58-1 44 49 48q7 1 12 5c-14 1-50 2-62-3-12-13-8-90-8-115"/>
  <path fill="#110904" d="M2597 1207h3l4 5 1-3q8 14 18 26c-16-2-19-15-26-28"/>
  <path fill="#0f0f0e" d="M504 289h4c16 2 39-1 56-1 43 1 40 0 38 42h51c0-6-2-35 2-37 19-9 74-2 95-3 13 10 8 35 7 50 21 12 41 29 42 54 2 82 0 165 2 246 1 51 1 75-44 105 0 10 1 33-2 43-14 6-64 3-82 4q-11 1-19-5-3-15-1-32l-51-1q1 16-1 32c-10 10-93 9-102 0-3-9-3-30-3-41-21-13-40-30-43-56-5-57-1-115 0-172 0-44-4-90 2-133 2-19 27-37 42-46-1-15-5-38 7-49"/>
  <path fill="#c7c6c6" d="M602 339c42 0 92-3 134 3 11 1 25 10 33 17 16 15 19 31 19 51v240c1 26 4 51-16 72-30 29-74 23-113 22-45 1-93 3-137-2-34-3-60-34-59-68 0-93-3-187 1-280 0-11 8-26 16-33 29-29 84-21 122-22"/>
  <path fill="#020201" d="M483 506c-1-53-15-135 56-143 44-6 224-23 228 46 5 83 3 171 3 254-2 84-163 62-216 61-90-2-71-105-71-169z"/>
  <path fill="#fcfcfc" d="M553 367c44-3 104-1 147 1 75 4 60 85 60 139l1 97c-1 57 8 100-63 113-35 2-73-1-110 1-25 5-91-11-93-44-5-78-2-171-2-250 0-37 31-50 60-57"/>
  <path fill="#020201" d="M614 463c26-4 55 3 77 17q27 18 36 49 4 29-12 53c-17 25-45 34-73 40q-46 5-84-21a76 76 0 0 1-32-50q-4-29 15-52c18-22 45-33 73-36"/>
  <path fill="#7f7f7e" d="M624 470q33-1 62 17 25 18 31 46 4 26-12 48c-18 23-44 30-71 34q-37 2-69-19a70 70 0 0 1-30-47q-3-26 16-47c19-23 45-30 73-32"/>
  <path fill="#b2b2af" d="M483 555c-2 5-2 14-3 19-6-20-4-22-2-42 1-17-5-30 3-47 0 6-1 16 2 21zM742 297h4c6 7 3 28 3 38-29-6-45-5-75-4-7 0-6 1-11-2q-3-15-1-32zM505 297h88c0 7 1 29-2 33-27 1-61-1-86 5z"/>
  <path fill="#c7c6c6" d="M749 748c3 11 1 26 1 37q-45 2-89 1-2-16-1-33c30 1 60 3 89-5M505 748c29 8 59 6 89 5q1 17-1 32l-89 1zM2928 339q55-1 109 1c59 0 135-10 136 72v234c2 59-5 96-76 98h-120c-52 0-128 8-130-67q-1-92-1-184c2-74-20-149 82-154"/>
  <path fill="#020201" d="M3024 359c53-1 130-3 130 71l1 162v52c5 94-93 82-161 82-37 0-78 4-108-24a66 66 0 0 1-22-50l1-143c0-15-1-83 1-95q5-17 17-30c33-33 96-25 141-25"/>
  <path fill="#fcfcfc" d="M2939 367q38-1 75-1 32-1 65 1 21 3 39 13 20 13 26 35c5 32 2 98 2 133 0 37 3 77-1 113q-1 16-10 29c-13 17-34 24-55 27l-70 1q-35 2-71-1-18-3-35-12-20-13-27-36c-5-22-2-71-2-95 0-49-3-104 1-152q0-12 7-23c14-21 33-27 56-32"/>
  <path fill="#020201" d="M2998 463c25-4 55 3 76 17q29 19 36 52 4 28-13 50c-17 25-45 35-73 40q-44 4-81-20a77 77 0 0 1-33-50q-3-30 14-52c18-23 46-34 74-37"/>
  <path fill="#7f7f7e" d="M3006 470q34-1 62 17 26 16 32 46 4 25-12 46c-17 24-42 32-70 36-26 0-51-4-72-20a68 68 0 0 1-27-47q-2-26 15-47 30-30 72-31"/>
  <path fill="#110904" d="M2899 846c22-2 227 0 234 5 3 2 4 9 5 12l-1 73-5 6q-51 2-101 0-60 2-119-1-11 0-20-4c-9-16-4-62-4-81z"/>
  <path fill="#997b5e" d="M2954 853h118c17 0 42-1 58 1 1 16 3 70-3 82-14 2-89 1-110 0-29 0-90 3-116 0-8-9-4-67-4-82z"/>
  <path fill="#c7c6c6" d="M3072 853c17 0 42-1 58 1 1 16 3 70-3 82h-54zM2897 854l57-1v83h-53c-8-9-4-67-4-82"/>
  <path fill="#997b5e" d="M679 934c-9 3-103 1-121 1l-3 4c-6 1-5 1-11-1v-1l3-1q-9-3-17 1c-4 3-11-2-16 2l6 3-2 1c-33 2-22-37-23-58-1-9 1-26 3-35 14-11 178-3 206-4l-2 1c8 3 27 0 31 2 7 10 9 76-1 82-7 5-40 2-53 3"/>
  <path fill="#c7c6c6" d="M680 850c12 0 42 1 53-1 7 10 9 76-1 82-7 5-40 2-53 3-1-18 0-65 1-84M560 933c-12 0-43 2-53-2-6-3-6-72-1-79 13-4 40-2 55-2z"/>
  <path fill="#110904" d="M679 934c-9 3-103 1-121 1l-3 4c-6 1-5 1-11-1v-1l3-1q-9-3-17 1c-4 3-11-2-16 2l6 3-2 1c-33 2-22-37-23-58-1-9 1-26 3-35 14-11 178-3 206-4l-2 1c8 3 27 0 31 2-11 2-41 1-53 1H561c-15 0-42-2-55 2-5 7-5 76 1 79 10 4 41 2 53 2 26 0 97-2 119 1"/>
  <path fill="#fcfcfc" d="M3288 389q44-2 88 0c14 1 30 5 39 16q9 13 7 27-5 16-20 25 15 7 24 22 6 15 0 30l-6 6c-22 23-100 15-132 16z"/>
  <path fill="#272625" d="M3320 469c18 0 52-5 68 5q6 3 8 9 1 11-6 19c-19 10-48 6-70 6zM3320 411c17 0 37-2 53 2q11 1 15 10 3 10-3 19c-15 11-46 6-65 6z"/>
  <path fill="#fcfcfc" d="M180 386c31 1 68-4 97 4q21 5 33 23 8 17 3 35c-5 14-18 22-31 28l40 51q-7 2-13 1h-24l-37-48h-35v48h-32z"/>
  <path fill="#272625" d="M213 409c18 0 41-3 58 6q8 3 11 11c2 9-3 18-7 26-18 9-43 6-62 5z"/>
  <path fill="#020201" d="M2964 1203c17-1 123-1 135 2l5 8c5 14 6 42-1 55-13 8-37 4-52 4-23 1-119 4-134-5q-4-7-4-14c-1-9-3-38 3-44 9-9 36-5 48-6"/>
  <path fill="#c7c6c6" d="M2922 1210h41q2 29-1 56l-42-1c0-15-4-42 2-55M3055 1210l43 1v54h-43z"/>
  <path fill="#020201" d="M2919 1107c28 0 163-2 182 4 6 9 4 44 3 55q-1 6-5 9l-96 1c-25 0-62 4-86-2-4-5-7-49-6-56q2-7 8-11"/>
  <path fill="#c7c6c6" d="M3055 1114h43v54q-21 3-43 1z"/>
  <path fill="#b2b2af" d="M2922 1114h41c0 17 3 40-1 56h-42c0-18-2-39 2-56"/>
  <path fill="#020201" d="M534 1201q82-3 164 0c8 1 13 0 19 6 3 12 4 35 2 48q0 9-8 14h-71c-17 0-102 3-110-5-6-8-4-38-4-49 0-7 3-9 8-14"/>
  <path fill="#c7c6c6" d="M668 1207h44v55q-22 2-44 1zM535 1208l43-1v55q-21 2-43 1z"/>
  <path fill="#020201" d="M533 1010c19-2 47-1 66 0 21 0 105-4 118 6 2 10 4 48 0 57l-5 3q-89 3-177-1-4 0-6-5c-4-15-6-48 4-60"/>
  <path fill="#b2b2af" d="M533 1010c19-2 47-1 66 0-7 0-17 0-22 3v2c2 16 1 40 1 56h-43c-1-12-3-48 2-56q0-3-4-5"/>
  <path fill="#0f0f0e" d="M533 1010c19-2 47-1 66 0-7 0-17 0-22 3v2c-12 2-28 2-40 0q0-3-4-5"/>
  <path fill="#b2b2af" d="m672 1015 40 1c0 14 4 44-3 55l-41 1c0-17-3-39 1-55z"/>
  <path fill="#0f0f0e" d="m2926 1014 124-1c12 0 44-3 52 6 10 10 4 32 4 45-1 8-2 10-8 15l-159 2c-8 0-19 0-25-7-2-9-3-42 1-51q3-7 11-9"/>
  <path fill="#997b5e" d="M2963 1020h135v53h-177v-53z"/>
  <path fill="#c7c6c6" d="M3056 1020h42v53h-43zM2921 1020h42l-1 53h-41z"/>
  <path fill="#110904" d="M533 1105h1c19 0 176-3 182 3 5 7 5 42 4 52-1 7-4 8-9 12l-89-1c-28 0-61 2-89-2-8-8-5-29-5-40-1-10-2-16 5-24"/>
  <path fill="#997b5e" d="M536 1112c14-2 64-1 81-1 23 0 72-2 92 1 5 6 3 42 2 53h-42c-38 0-98 3-134 0 0-11-2-45 1-53"/>
  <path fill="#c7c6c6" d="M709 1112c5 6 3 42 2 53h-42v-53zM536 1112h42l1 52-44 1c0-11-2-45 1-53"/>
  <path fill="#fcfcfc" d="M2884 812c37-2 254-4 274 3q18 6 26 22c6 14 6 99 0 114q-6 15-23 21c-16 7-103 9-118 2l-4-4c19-15 91 5 118-10q10-6 14-16c3-13 3-96-2-106q-10-12-24-14c-32-2-263-4-276 3-8 5-12 17-13 27-3 18-4 88 6 101 18 21 89 4 115 10q5 1 9 7l-1 3-2 1c-15 4-86 2-102 0q-14-2-24-9-13-8-15-22c-4-20-7-98 5-115q15-17 37-18M508 808h152c29 0 78-4 105 4q16 6 25 20c6 13 6 102 0 116q-5 15-21 22c-15 6-99 8-113 2q-5-1-5-6c9-13 95 6 116-11q13-12 13-28c1-16 1-69-2-84q-2-7-6-13c-11-11-28-10-42-10H572q-39-1-79 0-10 1-19 6-9 6-12 16c-3 14-3 99 4 108 20 24 89 5 117 11q6 1 9 6l-2 4-13 3c-24 2-82 2-105-4l-13-8q-12-11-13-27c-1-16-2-80 1-93q3-11 10-19c14-14 33-14 51-15"/>
  <path fill="#c7c6c6" d="m2887 784-3-2-3 2c-4-11 1-28-3-41 6-4 14 4 22 5 23 5 47 2 70 2 13 0 14 21 10 30l-2-26-1 32c-16 0-79 2-90-2"/>
  <path fill="#0f0f0e" d="m2887 784-3-2-3 2c-4-11 1-28-3-41 6-4 14 4 22 5 23 5 47 2 70 2 13 0 14 21 10 30l-2-26c-28 0-64 2-91-6z"/>
  <path fill="#b2b2af" d="M3045 298h88q1 20-1 39c-27-8-58-6-87-6z"/>
  <path fill="#c7c6c6" d="M3130 750h4q2 18 1 36h-85l-4-3q-2-14-1-29 42 2 85-4"/>
  <path fill="#b2b2af" d="M2889 298h87c0 7 1 28-1 33-29-1-59-4-86 5z"/>
  <path fill="#d5bb85" d="M3612 2935h-198c-30 0-65 2-95-4-60-13-124-62-124-128-1-67 58-118 119-132 40-8 81-4 121-5h177v65c-14 2-23 4-36 9-12 13-19 14-23 30l2 3c-13 23-11 36 2 58l-4 2c-1 22 55 29 63 36 7 5 2 57-4 66m-334-123q6 11 14 24c51 73 214 14 146-75-31-40-103-39-140-4-18 21-19 28-20 55"/>
  <path fill="#0f0f0e" d="M3576 2740c-12 13-19 14-23 30l2 3c-13 23-11 36 2 58l-4 2c-1 22 55 29 63 36 7 5 2 57-4 66v-64c-44-8-93-35-78-90 6-18 25-33 42-41"/>
  <path fill="#dbba72" d="M3347 2670c34 0 70-2 104 2l-4 1 35 2c19-1 105-7 116 1 7 11 8 29 4 42-3 12-33 18-45 24-14 8-27 26-31 41-5 15-4 35 4 48 15 26 50 37 77 44v23h-1q1-10-1-19-5-5-12-5 4 5 10 10c0 11 3 33-3 44l-5 1c-63 2-127-3-191-4-26-1-52 3-77 0q-24-3-45-14c-21-11-54-32-63-55q-6-18-10-37-10-30 3-59c15-36 53-68 90-79 11-3 32-5 42-10zm-69 142q6 11 14 24c51 73 214 14 146-75-31-40-103-39-140-4-18 21-19 28-20 55"/>
  <path fill="#d5bb85" d="M3373 2709c9-2 37 5 44 10q2 3 2 7c7 7 23 13 32 18l5 4c12 12 21 40 20 57-2 25-17 47-36 63-27 22-60 21-92 18-17-6-33-9-49-17-19-9-39-35-46-55q-3-6 1-13h2l2 7 2-1c0-8-5-16-6-24q4-16 17-30c26-28 65-42 103-43zm-95 103q6 11 14 24c51 73 214 14 146-75-31-40-103-39-140-4-18 21-19 28-20 55"/>
  <path fill="#020201" d="M3296 2741c50-32 126-32 161 22q15 25 9 54c-18 74-144 86-191 21-23-36-9-71 21-97m-18 71q6 11 14 24c51 73 214 14 146-75-31-40-103-39-140-4-18 21-19 28-20 55"/>
  <path fill="#0f0f0e" d="M3296 2741v14l2 2c-18 21-19 28-20 55-5-6-3-5-4-15-11 7 3 27 1 41-23-36-9-71 21-97"/>
  <path fill="#d5bb85" d="m18 1427 154 1c78-1 161-10 222 50 24 23 37 55 36 88-1 76-83 128-153 132H18v-64l15-3c8-12 30-10 36-23l-1-2c-12 2 1 3-15 5l5-4q43-38 6-81l3-4q-3-6-9-16c-14-8-24-9-40-12zm294 81c-28-16-54-15-84-8-74 29-71 103 0 127 26 9 55 7 79-6 52-26 56-83 5-113"/>
  <path fill="#110904" d="M58 1506q26 13 35 40 8 23-4 45a81 81 0 0 1-56 40c8-12 30-10 36-23l-1-2c-12 2 1 3-15 5l5-4q43-38 6-81l3-4q-3-6-9-16"/>
  <path fill="#dbba72" d="M121 1432c40-1 80 6 120 6 17 0 54-6 68-1a196 196 0 0 1 104 81c12 23 7 65-1 88-12 38-63 71-101 78-15 3-33 1-46 8q20 0 41-3l-24 5-177 3q-40 2-78-3c-4-2-3-1-4-5l4 1 1-1c-4-19-3-33-2-52 22-6 49-9 64-27q15-19 13-43c-3-21-19-56-39-65-13-6-27-7-38-15-3-14-3-35 3-48 25-13 62-1 89-7zm191 76c-28-16-54-15-84-8-74 29-71 103 0 127 26 9 55 7 79-6 52-26 56-83 5-113"/>
  <path fill="#020201" d="M259 1482c15-11 49 8 64 11 11 3 16 18 25 21l3-6c79 112-90 171-132 128l-2-1-3-1q-17-7-30-19c-5-4-6-7-12-10-9-6-15-20-18-30v2q-9-46 30-75c7-5 20-12 29-10 17-6 28-8 46-10m53 26c-28-16-54-15-84-8-74 29-71 103 0 127 26 9 55 7 79-6 52-26 56-83 5-113"/>
  <path fill="#d5bb85" d="M259 1482c15-11 49 8 64 11 11 3 16 18 25 21l3-6c79 112-90 171-132 128 59 17 140 0 144-77 1-15-11-34-21-44a91 91 0 0 0-47-27q-17-5-36-6"/>
  <path fill="url(#a)" d="m228 1500-5-2 2-1c25-21 41-6 68-9h2c16 4 36 14 47 27-9-5-22-15-30-7-28-16-54-15-84-8"/>
  <path fill="#d5bb85" d="M172 1605c-9-6-15-20-18-30v2q-9-46 30-75c7-5 20-12 29-10-51 26-67 60-41 113M16 2658h166c77 0 153-9 212 50 82 82 21 191-80 213-44 10-83 6-127 7l-170-1v-63c23-4 52-11 65-32 2-14 7-15-1-28v-20l4-4c2-8-5-16-9-22-15-24-42-20-60-32-10-6-1-57 0-68m158 123-1 11q3 33 30 52c49 31 101 20 137-21 22-46-5-78-50-94-7-3-14-2-22-5-40 0-74 14-91 51z"/>
  <path fill="#0f0f0e" d="m81 2784 4-4c2-8-5-16-9-22-15-24-42-20-60-32-10-6-1-57 0-68 2 16 1 49 1 67 28 3 49 11 67 34 17 20 18 54-2 73 2-14 7-15-1-28z"/>
  <path fill="#dbba72" d="M27 2664c29-4 82-3 111 0l47 4c40 1 80-4 120 1q21 4 41 13c30 13 56 39 67 70 6 15 14 38 7 53l-6 13 2 14c-21 38-43 60-84 78q-26 7-52 10-25 2-51 1H119c-31 0-63 5-93 2l2-4q-7-18-2-37c4-13 28-20 39-26q26-14 34-44 5-17-1-35c-14-47-56-41-70-66-7-13-4-33-1-47m147 117-1 11q3 33 30 52c49 31 101 20 137-21 22-46-5-78-50-94-7-3-14-2-22-5-40 0-74 14-91 51z"/>
  <path fill="#d5bb85" d="M354 2759h2c20 17 10 72-10 89-34 32-77 33-120 25-70-13-105-87-45-140 22-20 52-31 82-29 25 1 54 9 72 28 3 3 3 4 8 7l-1 4zm-180 22-1 11q3 33 30 52c49 31 101 20 137-21 22-46-5-78-50-94-7-3-14-2-22-5-40 0-74 14-91 51z"/>
  <path fill="#020201" d="M164 2819c3-4 8-21 9-27q3 33 30 52c49 31 101 20 137-21 5 4 3 2 6 7-3 8-7 11-9 17-46 44-146 33-173-28"/>
  <path fill="#0f0f0e" d="M219 2721c45-17 86-6 123 22l12 16c12 32 13 65-17 88 2-6 6-9 9-17-3-5-1-3-6-7 22-46-5-78-50-94-7-3-14-2-22-5v-2c-9-6-35-1-48-1z"/>
  <path fill="#020201" d="M219 2721h1c13 0 39-5 48 1v2c-40 0-74 14-91 51l-3 6-1-1-3 1-2-5c-1-11 12-18 9-29 7-11 28-23 42-26"/>
  <path fill="#110904" d="M177 2747c3 11-10 18-9 29l2 5 3-1 1 1-1 11c-1 6-6 23-9 27-12-24-4-52 13-72"/>
  <path fill="#d5bb85" d="m17 1018 167-1c43 0 84-3 126 6 102 21 166 132 83 215-58 59-138 50-214 50H18c0-12-1-58 1-66 7-7 36-10 45-18 4-3 14-16 18-21 0-4 1-2-1-6l-7 3c7-16 7-21 6-38h3c5-13-3-16-1-26-16-21-38-29-64-32zm181 182 5 3q48 31 102 8c31-13 55-49 37-82-12-23-30-33-53-41-53-12-110 7-116 68 5 22 9 28 25 44"/>
  <path fill="#0f0f0e" d="M82 1116c40 47-11 108-63 106 7-7 36-10 45-18 4-3 14-16 18-21 0-4 1-2-1-6l-7 3c7-16 7-21 6-38h3c5-13-3-16-1-26"/>
  <path fill="#dbba72" d="M116 1021q50 1 100 3c34 2 64 0 97 9 50 13 75 31 101 74 10 15 9 31 9 48-1 39-21 66-48 91-28 28-77 37-116 37H100q-29 1-58 1l-11-4q-6-5-7-13c-1-6-1-32 3-37 12-11 50-8 71-41 7-12 12-30 6-44q-4-7-9-14l-5-20q-12-9-24-19c-16-9-32-3-44-22 0-12-3-33 6-43 9-8 72-3 88-3zm82 179 5 3q48 31 102 8c31-13 55-49 37-82-12-23-30-33-53-41-53-12-110 7-116 68 5 22 9 28 25 44"/>
  <path fill="#d5bb85" d="M253 1064q18-2 34 2c27 7 61 27 75 52 9 17 10 41 4 60-5 15-16 30-30 37-30 16-55 22-88 22-11-4-21-2-32-4-29-6-47-34-63-56-1-15-8-38-2-52l4 2q-2 5-1 10c12-13 14-33 27-47 16-15 50-26 72-26m-55 136 5 3q48 31 102 8c31-13 55-49 37-82-12-23-30-33-53-41-53-12-110 7-116 68 5 22 9 28 25 44"/>
  <path fill="#110904" d="M302 1080c24 10 45 23 55 48q11 26-1 53c-24 52-101 64-149 40q-14-7-25-17c10-1 9 1 16-4l5 3q48 31 102 8c31-13 55-49 37-82-12-23-30-33-53-41 5-7 6-6 13-8"/>
  <path fill="#0f0f0e" d="M167 1185c-23-35-1-79 34-97 34-17 65-19 101-8-7 2-8 1-13 8-53-12-110 7-116 68-13 11-5 16-6 29"/>
  <path fill="#020201" d="M167 1185c1-13-7-18 6-29 5 22 9 28 25 44-7 5-6 3-16 4q-10-8-15-19"/>
  <path fill="#dbba72" d="m17 606 158-1c80 0 166-8 225 58 46 51 39 118-9 165-51 49-121 52-188 48-42 2-103 1-145 0l-40 1v-65c29-4 49-12 68-36q0-10 2-20c-2-6-2-6-7-9v-14c7-5 4-17 4-26a93 93 0 0 0-68-35zm156 141c9 28 16 37 41 53 17 6 26 10 44 10q17 1 34-5c25-7 39-20 51-42 4-15 5-18 3-33-11-42-53-57-92-58-19 3-26 5-45 13-21 16-31 24-36 52z"/>
  <path fill="#d5bb85" d="m17 606 158-1c80 0 166-8 225 58 46 51 39 118-9 165-51 49-121 52-188 48v-2c7-5 66 3 92-6 38-14 61-16 93-47 27-26 37-44 38-82-5 7-2 28-10 42-6-5 6-26 4-39-4-23-3-45-18-65-36-51-109-70-169-66-34 3-71 1-105 4-18 2-87-10-100-1-4 7-6 48-3 49 37 20 82 37 85 89-13 12-19 32-36 43-56 36-51 10-50 77 14 1 64-2 73 2-6 3-28 0-39 2l-40 1v-65c29-4 49-12 68-36q0-10 2-20c-2-6-2-6-7-9v-14c7-5 4-17 4-26a93 93 0 0 0-68-35z"/>
  <path fill="#110904" d="M85 707q15 22 10 48-3 12-9 21 0-10 2-20c-2-6-2-6-7-9v-14c7-5 4-17 4-26"/>
  <path fill="#d5bb85" d="m237 654 2-1c30-4 69 5 94 24 19 13 37 38 39 61q2 29-18 48-8 7-15 15c-10 13-37 20-53 26l-6 2c-28 5-70-6-93-23a93 93 0 0 1-37-59q-2-30 18-53c17-21 41-37 69-40m-64 93c9 28 16 37 41 53 17 6 26 10 44 10q17 1 34-5c25-7 39-20 51-42 4-15 5-18 3-33-11-42-53-57-92-58-19 3-26 5-45 13-21 16-31 24-36 52z"/>
  <path fill="#020201" d="M343 763c8 8 2 15-1 25-5 7-20 19-28 21-35 20-82 14-116-4 9 0 10 0 16-5 17 6 26 10 44 10q17 1 34-5c25-7 39-20 51-42"/>
  <path fill="#0f0f0e" d="M214 800c17 6 26 10 44 10 24 15 29-2 56-1-35 20-82 14-116-4 9 0 10 0 16-5"/>
  <path fill="#020201" d="m254 672-3-1c11-9 41-2 54-1h2c15 6 37 20 43 35 1 9 4 18-4 25-11-42-53-57-92-58"/>
  <path fill="#110904" d="M179 692c31-32 88-40 128-22h-2c-13-1-43-8-54 1l3 1c-19 3-26 5-45 13-18-2-15 2-30 7"/>
  <path fill="#020201" d="m168 775 1-25 4-3c9 28 16 37 41 53-6 5-7 5-16 5-14-9-21-16-30-30"/>
  <path fill="#0f0f0e" d="M350 705c17 25 14 62-8 83 3-10 9-17 1-25 4-15 5-18 3-33 8-7 5-16 4-25"/>
  <path fill="#020201" d="M179 692c15-5 12-9 30-7-21 16-31 24-36 52-9-10-4-22-2-34q3-6 8-11"/>
  <path fill="#110904" d="M171 703c-2 12-7 24 2 34v10l-4 3-1 25q-6-12-9-26-3-25 12-46"/>
  <path fill="#dbba72" d="M27 3075c29-1 63 2 93 3 90 2 198-27 268 45 25 26 33 50 35 86 2 18-9 37-17 53q-5 9-12 15c1 0-54 42-47 39-45 18-104 16-153 15-30-1-148 6-168-3-3-5 4-37 6-45 22-20 67-23 68-69 1-20-6-55-29-60-10-33-57 11-44-79m146 130c6 28 15 43 41 57q31 15 64 10c38-7 79-37 69-80-13-40-47-55-86-58-33 3-66 13-82 46-5 10-4 14-6 25"/>
  <path fill="#d5bb85" d="M246 3115h7c56 1 73 13 110 52q7 19 10 39c1 25-29 49-45 66l6-5q6-4 11-4c-8 11-25 17-36 24l-4-1h-1q-9 4-20 4-29 0-58-6c-24-5-48-17-62-40a77 77 0 0 1-7-57c8-31 33-47 59-62l-4 1q7-5 16-8zm-73 90c6 28 15 43 41 57q31 15 64 10c38-7 79-37 69-80-13-40-47-55-86-58-33 3-66 13-82 46-5 10-4 14-6 25"/>
  <path fill="#110904" d="M354 3171c41 98-100 143-161 92 12 4 11 5 21-1q31 15 64 10c38-7 79-37 69-80 7-10 7-8 7-21M171 3241c-39-49 15-108 65-115 22-4 29-4 51-1-15 5-22-1-37 7q8-1 11 2c-33 3-66 13-82 46-5 10-4 14-6 25l-3 2c-4 12-1 22 1 34"/>
  <path fill="#020201" d="M287 3125c29 9 51 18 67 46 0 13 0 11-7 21-13-40-47-55-86-58q-3-3-11-2c15-8 22-2 37-7M171 3241c-2-12-5-22-1-34l3-2c6 28 15 43 41 57-10 6-9 5-21 1q-14-8-22-22"/>
  <path fill="#d5bb85" d="M18 3068h169c38 0 86-4 123 5 161 39 161 221 0 260-39 9-85 6-125 6l-168-1v-64c31-4 59-16 74-46 1-5-2-14-6-17l-4 2v-18l3-3c2-11 0-16-4-27q-3-6-9-11c23 5 30 40 29 60-1 46-46 49-68 69-2 8-9 40-6 45 20 9 138 2 168 3 49 1 108 3 153-15-7 3 48-39 47-39q7-6 12-15c8-16 19-35 17-53-2-36-10-60-35-86-70-72-178-43-268-45-30-1-64-4-93-3-13 90 34 46 44 79-20-12-30-17-53-20z"/>
  <path fill="#110904" d="M80 3165c18 19 19 40 11 63 1-5-2-14-6-17l-4 2v-18l3-3c2-11 0-16-4-27"/>
  <path fill="#c7c6c6" d="M1838 1209h64v93c-1 12-5 15-16 17-50-4-49 10-49-48q-1-32 1-62"/>
  <path fill="#110904" d="m907 981 1 2q7 26 6 53c0 7-5 41-2 45l1-1 5 3q-3 10-5 25c1 20-4 76 6 92 17 10 107-3 119 7l-2 3c-26-5-101 5-124-4q-2-4-5-13V981"/>
  <path fill="#0f0f0e" d="M3623 558h4v130c-9 3-14 5-23 4-9-5-10-2-23-4h-1c13-4 18-5 32-7 0-18-2-50 1-67 4 26 6 38 6 64 3-45 3-76 4-120"/>
  <path fill="#fcfcfc" d="M673 1387q70-2 140 0h2033q60-2 118 1c28 2 58 12 79 30q32 27 35 68 2 39 1 78v1322q2 43-1 86-3 29-23 51c-25 29-62 41-99 43q-80 2-161 0l-304 1H787q-57 1-115-1-40-2-73-26c-20-15-37-38-41-64q-3-29-1-60V1585q-1-48 1-97 1-30 19-53c23-30 59-43 96-48"/>
  <path fill="#0f0f0e" d="M1130 2158c48-6 102 5 146 26 50 24 89 62 108 116l-248 49v-54l-183 37q-1 20 3 39c10 42 40 77 77 99 56 35 124 40 187 24 50-16 93-43 120-89h37q-8 19-20 34c-40 52-102 82-166 90-69 9-145-6-201-49-38-30-66-71-71-120-5-43 10-85 37-118 43-53 107-78 174-84"/>
  <path fill="#fcfcfc" d="M1128 2186q39-4 77 4 86 18 133 90c-55 7-112 21-166 32v-42l-1-9c-7-4-187 34-210 39q8-21 21-39c36-46 89-67 146-75"/>
  <path fill="#0f0f0e" d="M1291 2594q22-1 43 2c46 7 103 29 132 68l-37 22c-31-33-73-51-118-54-49-4-100 7-137 40-24 21-41 51-43 83q-2 48 31 83c32 35 80 52 127 54q82 2 143-55 17 13 36 24-34 34-79 51c-69 26-142 21-209-9l-21-12q-60-39-75-109h-78v115l-45 26 1-325h184l-47 38h-93v107h77q8-45 38-79c45-50 106-67 170-70M2464 2595l35-1v45c-34-1-66 2-97 17q-50 25-68 78h123l1 47h-124q5 16 15 31c24 36 63 53 104 62q23 2 46 2v46c-62 0-122-12-171-53-31-25-52-60-55-100q-3-57 35-101c39-46 97-68 156-73"/>
  <path fill="#272625" d="m1799 1541 21-4v129c0 12 1 57-1 66h-40c-6-6 0-8-5-16-11 2-24 10-36 13-49 12-124-7-136-63q-6-29 10-54c33-52 114-56 162-25l1-41z"/>
  <path fill="#0f0f0e" d="m1799 1541 21-4v129c0 12 1 57-1 66l-6-2c-2-7 1-30 0-37-1-23 4-137-1-149q-7 0-13-3"/>
  <path fill="#fcfcfc" d="M1703 1600q21-1 38 9 19 10 26 30 5 19-6 34c-10 16-25 22-42 26q-27 3-50-11-17-13-21-33-2-19 9-33 19-21 46-22"/>
  <path fill="#272625" d="M2597 1539c5 0 5-1 9 2q3 32 1 65v126c-10 0-32 3-41-2l-2-15c-7 1-23 11-34 14q-55 12-102-16a86 86 0 0 1-33-41q-9-27 4-52c12-24 35-40 60-47q56-15 105 13v-37z"/>
  <path fill="#fcfcfc" d="M2495 1600q23 0 41 12 17 11 21 31 3 19-9 33-18 21-45 23-24 0-44-11-17-12-22-32-2-19 9-33c12-16 30-21 49-23"/>
  <path fill="#0f0f0e" d="M2180 2595h30v45h-10c-45-1-93 11-126 44q-31 30-33 74 1 43 32 73c36 37 87 46 137 46v45h-23c-55-2-111-18-153-56-30-26-50-61-52-100q-1-60 38-103c41-45 100-65 160-68"/>
  <path fill="#272625" d="M2809 1568c28-1 56 3 79 20q27 19 32 52 4 32-17 56c-21 26-51 34-82 37-29 0-60-6-83-26a72 72 0 0 1-9-105c21-24 50-32 80-34"/>
  <path fill="#fcfcfc" d="M2804 1601q25-2 47 9 19 11 25 31 3 18-6 32-15 21-41 25-25 3-47-7-19-10-26-30-4-19 5-34 16-21 43-26"/>
  <path fill="#272625" d="M1332 1702c-62 63-212 27-183-76 19-68 161-79 191-13q12 24 9 50c-19 4-146-2-153 3l2 7q14 20 37 25 32 5 60-13l1-1z"/>
  <path fill="#0f0f0e" d="M1340 1613q12 24 9 50l-30-1 22-6c8-11-3-31-1-43"/>
  <path fill="#fcfcfc" d="M1235 1602q17-3 34 1 26 7 38 31h-37c-15 0-61 4-74-1l1-5c5-14 25-22 38-26"/>
  <path fill="#272625" d="M925 1620c3-9 17-25 24-30 45-32 125-30 159 16 8 13 10 18 12 33q3 12 2 25H966c20 37 61 45 96 25l8-5 35 18c-41 41-122 42-164 1l-4-5a71 71 0 0 1-12-78"/>
  <path fill="#0f0f0e" d="m925 1620 1 10q-1 15 2 30l-5 4c2 6 14 30 14 34a71 71 0 0 1-12-78M1108 1606c8 13 10 18 12 33l-1 2c-9-13-13-20-11-35"/>
  <path fill="#fcfcfc" d="M1007 1601q15-2 29 1 29 7 44 32h-44c-14 0-56 6-66-3v-4c8-14 23-21 37-26"/>
  <path fill="#272625" d="M1472 1568c28-1 59 6 80 27 21 19 24 42 25 69h-99q-22-2-44 0-5 0-9 3-1 6 3 10c19 25 51 26 79 16 7-2 14-8 21-7l33 16q-26 25-62 29c-33 5-68 0-95-21a78 78 0 0 1-30-52q-3-31 17-56c21-25 50-32 81-34"/>
  <path fill="#fcfcfc" d="M1462 1601q15-2 29 1 29 8 43 32h-37c-15 0-63 4-74-2l1-4q14-21 38-27"/>
  <path fill="#020201" d="M1434 2296h159c1 23 4 105-2 123q-79 2-159 0c-1-19-5-111 2-123"/>
  <path fill="#fcfcfc" d="M1439 2302h147l-1 110h-145z"/>
  <path fill="#0f0f0e" d="M1470 2311c23 0 53-3 76 5q11 3 14 13 2 11-5 19c-6 9-15 10-25 12 12 9 30 25 36 39q-6 4-13 3-18-19-36-39l-33-2v38l-3 2q-7 1-10-3c-5-23-1-62-1-87"/>
  <path fill="#fcfcfc" d="M1484 2321c15 0 40-3 53 3q6 3 8 9 0 8-4 14c-18 7-38 5-57 5z"/>
  <path fill="#0f0f0e" d="m1276 2666 7-1q66-4 113 40l-38 22q-13-10-27-18c-24-9-54-8-77 2q-22 9-32 32-6 20 2 39c9 17 26 28 43 34q40 11 76-11l14-11 38 21q-27 31-67 39c-37 8-80 2-112-19a95 95 0 0 1-43-60q-5-32 14-60c21-30 54-43 89-49"/>
  <path fill="#272625" d="m2190 1576 45-9c0 32-3 74 2 104 1 5 7 13 10 16 14 3 17 7 34 5 35-2 39-19 37-50-1-11-3-62 4-69l44-1c0 22 2 89-2 107q-4 17-16 29c-39 41-137 31-154-27-5-15-6-88-4-105"/>
  <path fill="#fcfcfc" d="M2247 1687c14 3 17 7 34 5 35-2 39-19 37-50-1-11-3-62 4-69 4 21 6 90-7 109-13 20-49 19-68 5"/>
  <path fill="#272625" d="M805 1568q42-2 82 13l-16 28-6-3c-20-9-54-16-75-7q-9 4-12 13c5 24 78 24 103 42q12 9 14 24 1 18-12 32c-18 21-48 22-73 23q-44-1-85-19l17-29q24 13 51 17c13 2 40 3 50-6q6-5 6-13c-10-18-75-20-99-35q-15-9-19-25-2-17 10-32c14-18 42-21 64-23M1991 1568q39 0 74 14l-13 26-6-2c-22-8-56-17-77-6q-8 4-11 13c5 25 80 20 106 45q11 9 11 21 0 20-15 34c-23 21-58 20-87 19q-35-3-67-17l16-29q30 15 64 17c13 1 30 0 39-9q6-4 5-11c-12-20-77-19-102-38q-13-10-15-25-1-18 10-31c16-17 46-20 68-21"/>
  <path fill="#0f0f0e" d="M1027 2403h253v36h-102v51h-51l-1-51h-99zM2068 2007q19-3 38 2 22 8 32 29 8 20-1 39-13 22-38 28-24 4-46-5-20-8-27-28t2-39q15-21 40-26"/>
  <path fill="#fcfcfc" d="M2068 2018q15-3 29 1 17 5 24 21 8 14 2 30-8 18-27 24-15 3-30-1-16-6-24-21-6-15 0-31c5-13 14-18 26-23"/>
  <path fill="#0f0f0e" d="M1605 1843q21-1 38 8 19 10 25 30 5 20-7 38c-11 16-26 20-44 24q-26 2-47-13a47 47 0 0 1-9-67c11-14 27-18 44-20"/>
  <path fill="#fcfcfc" d="M1608 1853q14 0 27 7 14 9 17 25 3 17-7 30c-8 12-19 15-32 17q-15 1-28-6-14-9-17-25-4-16 5-30c9-13 21-16 35-18"/>
  <path fill="#0f0f0e" d="M1206 2007c27 0 65-6 87 12q13 11 14 28 3 26-13 45c-24 18-60 13-88 13z"/>
  <path fill="#fcfcfc" d="M1222 2018c18 0 38-3 55 7q13 8 15 21c3 13-4 29-10 39-17 12-40 9-60 8z"/>
  <path fill="#272625" d="m2137 1546 3 2q3 18 1 37h25l1 32h-27c0 20-6 54 5 71q9 11 22 12 2 15 0 28-1 3-4 4c-19-1-39-3-52-17q-10-11-12-25-2-23-1-46v-85z"/>
  <path fill="#0f0f0e" d="M1029 2354h252v35h-254q-1-18 2-35"/>
  <path fill="#272625" d="M2642 1586c10-1 32-3 40 2 3 2 5 13 5 17l-1 127h-43v-90z"/>
  <path fill="#0f0f0e" d="m2642 1586 28 2c-4 3-13 1-20 2l3 2c-3 31-7 43-8 76q1-13-2-26zM2178 2311q12-1 23 1 15 7 23 21c7 15 7 35 1 49q-7 18-25 24-12 2-24-1-15-7-22-21c-6-15-6-35 0-49 5-13 12-18 24-24"/>
  <path fill="#fcfcfc" d="m2182 2320 12 1q8 2 14 10c7 11 8 27 5 40q-1 17-16 26h-13q-9-3-14-11c-7-13-7-30-4-43q3-15 16-23"/>
  <path fill="#0f0f0e" d="M2273 2312q16-2 33 4 9 5 13 15c2 12-8 15-13 23l4 5q9 6 13 16 3 6 0 13c-5 8-16 14-25 17l-15 2c-11-1-26-5-34-14q-5-7-4-16 0-9 8-16l9-7-11-14q-3-6-1-13 8-11 23-15"/>
  <path fill="#fcfcfc" d="M2275 2359h14q11 3 17 11 5 5 2 12-4 10-14 15h-15q-10-2-17-10-3-6-2-13 5-11 15-15M2277 2320h5q12 0 19 8 3 4 2 11-3 7-11 10l-8 1q-11-1-18-8-3-5-1-11 4-8 12-11"/>
  <path fill="#0f0f0e" d="M2395 2007c24 0 64-5 85 8q9 6 10 16 0 11-8 21c-10 11-20 12-34 13h-37q2 20-1 39-6 1-13-1c-5-6-2-83-2-96"/>
  <path fill="#fcfcfc" d="M2411 2018c15 0 44-4 56 6q6 3 6 10-1 9-6 15c-18 7-37 5-56 5z"/>
  <path fill="#0f0f0e" d="M1981 1844c25 0 64-6 85 9q8 5 9 14 1 11-6 20c-9 12-19 13-33 15h-39c0 11 2 27-2 38h-11c-7-7-3-81-3-96"/>
  <path fill="#fcfcfc" d="M1997 1855c16 0 35-2 50 3q7 2 11 9 1 10-5 19c-17 7-37 5-56 5z"/>
  <path fill="#0f0f0e" d="M1050 1844h4q7-2 10 3c2 19 2 75 0 93l-3 3c-6-1-7-5-11-7-11-3-16 13-46 1q-14-8-17-24t6-29 24-15q18-2 33 9z"/>
  <path fill="#fcfcfc" d="M1016 1879h14q10 1 15 9 8 10 6 22-2 15-14 22h-13q-11-1-17-9-8-9-5-22 2-14 14-22"/>
  <path fill="#0f0f0e" d="M751 1844h25l36 85q17-43 37-85h21c0 15 4 88-3 96q-6 1-12-1c-3-20 0-44 0-64l-1-11c-6 2-29 65-37 76q-2 3-6 2c-14-5-37-69-44-84-1 26 4 55-1 81l-3 1q-6 1-11-2c-5-23-1-69-1-94M925 1869q15-2 28 4 15 8 20 23 3 15-4 28c-7 12-18 15-30 18q-15 2-29-4-15-8-20-23t4-29q12-15 31-17"/>
  <path fill="#fcfcfc" d="M929 1878a28 28 0 1 1 4 55 28 28 0 0 1-4-55"/>
  <path fill="#0f0f0e" d="M2366 2312c12-1 23-2 33 5q15 9 18 26c3 15 2 33-6 46q-10 14-27 17c-11 2-27-2-36-9q-6-5-5-11 4-4 11-3l2 4q6 9 16 11 11 1 18-5c11-9 12-18 13-31l-10 6q-14 8-32 3-13-5-19-17t-1-23q8-15 25-19"/>
  <path fill="#fcfcfc" d="M2371 2320q8 0 16 2t13 11q4 7 1 16-6 10-16 14l-15-1q-9-3-14-12-3-6-1-13 4-12 16-17"/>
  <path fill="#0f0f0e" d="M1473 1844h10q6 0 10 6c3 3 44 80 45 85l-1 4q-2 5-8 3c-12-2-14-20-21-29q-7-3-15-2h-39c-3 9-7 25-15 29h-11c-2-11 38-82 45-96"/>
  <path fill="#fcfcfc" d="M1481 1855c8 10 16 34 23 46h-19l-25 1z"/>
  <path fill="#0f0f0e" d="M1958 2007q4 1 7 3c12 14 38 74 50 95l-19-1-14-30-26 1h-28l-7 18q-3 8-11 11-5 2-10-2c5-15 35-79 45-91q6-5 13-4"/>
  <path fill="#fcfcfc" d="M1954 2020c9 7 18 33 21 43-2 2-10 2-14 2h-28z"/>
  <path fill="#0f0f0e" d="M1750 1844c17 0 76-5 88 4l1 4c-7 5-61 2-73 3v30c15 0 57-4 68 2v5c-9 8-40 4-53 4q-7-1-13 3c-4 9-2 21-2 31h73l3 3q1 5-3 8-45 1-89 0zM2309 2007q26-4 50 9 8 4 9 12 0 5-4 7c-11-2-21-13-32-17q-14-5-27 0-8 5-10 14c5 17 51 17 66 27q9 6 10 14 1 11-5 19c-8 10-23 13-35 14q-20 1-39-6-12-6-16-18-2-7 2-10l3-1q12 7 21 18 12 9 26 8 17-3 29-16v-5c-8-12-35-15-48-19-10-2-25-8-30-18q-2-9 2-16c7-11 17-13 28-16M2733 2007q21-3 40 3 13 4 19 16 3 4 0 7c-14 5-24-13-38-17q-12-3-22 3-8 4-12 13c9 17 50 16 66 27q10 6 12 16 0 8-4 14c-8 12-21 15-35 17q-20 1-39-5-11-5-17-17-2-6 0-12l4-1q11 6 18 15 14 12 30 11 16-2 26-15v-6c-7-15-44-17-58-23q-12-4-18-17-1-6 3-14c5-9 16-12 25-15M1893 1844l7-1c14-1 38 1 48 12q5 5 5 12c0 3 0 2-3 5-7 0-15-8-21-11-9-6-24-12-36-8q-8 2-11 9-3 6 0 12c13 13 44 11 62 19q10 5 13 15 1 10-5 19c-8 11-21 13-33 16q-19 1-36-5-13-4-21-18-2-5 1-11c13-2 24 20 41 23q17 3 30-7 7-3 8-11c-8-18-45-17-62-26-6-3-14-8-16-16q-1-7 3-13 10-12 26-15M2391 1843l17 1c9 2 20 5 25 14q5 5 3 11-2 3-5 3-9-1-13-7-5-8-13-11c-9-4-24-1-33 3q-7 4-8 11c6 18 53 18 71 30q7 4 8 13 0 10-8 18c-12 12-29 13-45 14q-18-2-34-11-8-6-11-17 0-3 3-5c16-3 21 19 37 22 9 2 28-1 35-7q5-5 6-12c-8-18-51-17-69-28q-7-4-9-12 0-10 7-18c9-10 23-11 36-12M2164 2007c17 0 80-4 90 5l-1 4c-9 5-59 2-73 2v30h53q10-1 16 4v4c-9 7-38 3-50 3h-19v34c16 0 56-3 68 0q6 1 9 7l-1 3c-20 5-68 1-92 1zM1117 1869q18-3 34 6c12 8 14 20 16 33-13 0-61-3-68 4v4c3 8 12 14 19 16q14 3 26-5l6-7q5-3 9-1 4 4 1 9-5 8-14 11c-13 5-30 5-43-1q-13-7-19-21-5-16 4-30 10-15 29-18"/>
  <path fill="#fcfcfc" d="M1114 1879c12-1 19-1 29 6q6 4 7 11-3 3-9 3c-11 0-32 3-40-5v-4q6-6 13-11"/>
  <path fill="#0f0f0e" d="m1537 2006 6 3c6 12 1 35 1 49q1 7 5 11 6 1 11 4 2 2 1 6l-2 2-12 1c-5 7 0 15-4 23-5 2-6 1-11 0-3-6-2-17-2-24-15 0-40 3-53-2v-4c6-14 46-62 60-69"/>
  <path fill="#fcfcfc" d="M1528 2029c5 6 2 33 2 41h-35l-1-2c8-14 23-26 34-39"/>
  <path fill="#0f0f0e" d="M1376 2007c24 0 61-4 83 0 4 1 3 0 5 4-3 19-59 67-75 82 16 0 67-4 77 3 1 5 1 5-1 8-17 0-82 4-93-2v-5c8-20 55-61 73-79q-33 2-66 0-3-5-3-11M1792 2044q13-16 28-30 9-7 20-7l1 2c-11 16-27 30-40 44 7 8 43 44 43 51l-8 2c-17-4-34-30-45-43-8 11-27 37-40 41q-7 2-12-1c10-18 30-34 44-49-9-10-37-36-40-47h11c13 2 30 27 38 37M1320 1880q14-16 29-30 8-8 18-6l1 2c-9 16-26 30-39 44l43 48-1 2-8 3h-1c-15-5-32-31-43-43-11 12-24 32-39 40q-6 3-13 1l-1-3q21-25 44-47c-12-14-31-31-40-47h11c13 1 31 27 39 36M900 2007l7-1q24-3 44 13 6 4 7 13c-3 4-3 3-8 5q-7-3-13-10-12-12-30-12-18 2-30 17-10 15-7 34 3 15 16 23 19 10 41 4c10-6 13-14 21-20q6-2 12 0 1 4-2 7-9 18-29 24c-15 5-37 3-51-5q-18-11-23-32-4-20 6-38 14-19 39-22M1026 2007l4-1q26-2 47 13 6 6 7 14l-3 2c-14 1-18-9-28-16q-11-6-23-3-18 2-29 17-9 18-4 35 3 15 16 22 19 9 40 3v-1q8-4 13-11 3-5 8-8c5-1 5-2 10 0q1 7-3 12-9 15-27 20c-15 4-36 2-50-6q-18-11-24-32-4-20 7-38 14-19 39-22M2220 1844h11q19-1 30 12 8 8 6 18c-2 22-44 41-61 54l-1 2c13 0 53-5 62 3l-1 4c-9 8-40 4-53 4h-17q-5 0-9-5c2-18 41-36 54-48q10-8 11-20-3-9-13-13c-28-13-24 14-41 18q-5 1-7-2-2-7 2-12 11-12 27-15M2639 2007q21-1 36 11 7 8 6 18c-2 23-45 43-62 57 20 0 43-3 62 4l1 3c-16 7-38 5-55 4l-14 1q-8 1-11-5c0-22 55-39 64-63q3-6-1-11c-4-6-16-9-22-10-17-3-16 12-27 18q-5 3-10 1l-2-4q0-6 5-11c7-10 19-11 30-13M2121 1844l18 1c8 1 21 6 26 15 8 15-8 19-12 29q12 5 18 17 2 9-1 17-10 15-26 18-21 6-39-4-8-5-10-14-2-5 1-8h5q7 4 10 11l9 5q12 5 24-1 10-4 12-15 2-6-3-12c-7-9-21-9-32-10v-3c5-7 17-6 23-11q6-3 7-10 0-6-5-10c-4-5-15-6-21-6-9 1-13 9-18 16h-12l-2-2 2-6q9-14 26-17M2489 1844q20-2 37 8 8 5 9 14 2 9-6 16l-6 6c8 7 17 15 19 26q0 8-5 14c-7 9-25 13-35 14q-18 3-31-7-8-6-8-15c0-4 0-3 2-6h5c6 4 7 7 11 14q13 7 28 4c5-2 13-7 15-13q3-6 0-12c-6-17-21-8-33-14l-1-4c5-6 14-5 21-8q6-3 8-9t-2-11q-6-6-16-8c-11-2-18 9-26 14q-5 4-11 3l-2-4 1-5c5-9 17-14 26-17M2851 2007c10 0 24 2 32 8q6 4 7 11 0 13-11 24l-1 2c8 5 17 10 19 21q1 9-5 17-10 13-28 16c-12 2-27 0-37-8q-8-5-9-15 0-3 3-5 5-1 9 2 5 9 12 14l1 1q13 4 26-1 9-5 11-14 1-7-2-13c-6-10-21-10-32-11l1-4c5-6 16-5 22-9q6-4 6-11 0-6-5-11-9-6-20-5-10 3-16 13-3 4-9 4c-4 1-3 1-6-2q0-5 4-10c7-10 16-12 28-14M2540 2007q16 0 31 7 6 3 8 11c1 9-5 18-10 26l-1 1q12 6 18 18 2 9-2 16-9 15-26 19-20 6-38-4-8-5-12-14-1-4 2-9h5c6 3 7 6 11 12l10 6q14 2 24-3 8-4 10-13 1-9-4-17-7-5-16-4l-11-1q-3 0-3-4c4-5 16-9 22-12q7-4 9-12-4-8-14-12c-20-10-21 10-37 15q-5 2-8-3l2-8c8-11 18-13 30-15M1651 2312l2-1c14 0 29 0 40 10q6 6 7 17c0 21-42 42-57 55l-2 1c18 0 41-3 58 5v2c-16 7-39 4-56 4q-10 1-19-2l-1-5c9-21 41-31 56-48 3-5 8-11 6-17-1-6-8-10-13-12-24-11-22 13-38 17q-5 2-8-1-1-5 2-10c5-10 13-12 23-15M1989 2312l9-1q19-2 33 10 8 7 8 17c-2 22-43 42-59 55l-1 1q29-2 58 1l2 4-1 3c-9 7-37 3-49 3h-13c-7 1-9 0-14-5 0-20 55-38 63-64q0-4-2-7c-5-6-18-11-25-10-7 0-9 3-14 8l-10 11c-5 1-5 1-9-1q-3-6 0-10c5-9 16-13 24-15M2460 2312l15-1q16 0 29 11 6 8 6 17c-3 22-44 43-60 55 18 1 42-4 59 2l2 3-3 4c-13 5-31 2-45 2q-12 2-24-1-5-1-6-6c7-22 51-33 61-56q4-6 0-12c-3-6-16-11-23-11-14-2-14 12-23 17q-6 4-11 1l-2-3 2-6q8-13 23-16M754 2007h66q11-1 18 4l-1-1-1 4c-10 7-53 4-67 3v32h54q5 2 5 7l-2 3q-29 3-57 1c1 11 4 35-2 44q-7 1-12-2c-4-30-1-64-1-95M2083 2312c14-1 26-1 38 8q7 5 8 12c1 9-5 14-10 19l-2 2c7 7 16 15 18 25q1 8-4 14c-7 9-24 14-35 15q-17 2-29-8-7-6-8-15 1-3 4-5h4q5 4 8 10v1l7 5q10 5 22 1c6-2 14-9 16-15q3-4-1-9c-7-9-21-12-31-14l-2-4c6-6 16-4 23-9q5-4 5-12-2-6-7-10c-22-13-27 9-43 14q-4 0-6-5l1-4q9-12 24-16M1575 2007c24 0 72-4 93 2q4 0 7 4l-1 2c-6 6-34 3-43 3v45c0 10 3 22 1 32q-1 6-6 9-6 2-10-1c-4-27-1-58-1-85-12-1-31 4-40-4zM1810 2313c15-1 66-5 77 3q1 4-1 7-7 11-16 20-20 25-26 58l-1 3q-4 3-9 1-4-3-4-8c0-25 24-56 40-73-14-1-46 4-57-3q-2-3-3-8M1764 2310l7 2 1 5c1 14 3 77 0 85l-3 2q-6 2-10-1-4-12-1-25v-46c-9 4-20 12-30 11 3-12 26-22 35-31zM1866 2007q9-1 16 3c4 27 0 66 0 95q-8 1-15-3c-5-30-1-64-1-95M1160 2007q8-1 15 3c3 26 3 69 0 95q-8 0-15-2c-3-28-1-67 0-96M1393 1844q7-1 14 1c6 13 2 76 2 96q-9 1-16-3c-4-30 0-64 0-94"/>
  <path fill="#020201" d="m1185 1844 13 1c7 9 3 80 3 96q-8 1-15-2c-4-27-1-67-1-95"/>
  <path fill="#0f0f0e" d="M2655 1535h15c6 1 15 6 17 12q3 3 1 8-3 11-13 14l-15 1q-10-2-18-11-3-4-1-10 4-9 14-14M1683 1899q22-1 45 1c5 4 4 5 5 10l-33 1q-10 1-18-4zM2305 1899h16q6 1 9 5l-2 4q-11 5-23 2l-15 1q-5-1-8-6l2-3q10-4 21-3"/>
  <path fill="#020201" d="M1680 2064c12 0 39-5 48 2q2 3 3 9c-12-1-40 4-49-3q-2-3-2-8"/>
  <path fill="#0f0f0e" d="M1902 2366c12-1 35-4 45 2q2 3 3 8c-11 1-36 5-45-1q-3-4-3-9"/>
  <path fill="#020201" d="m1333 2033 15 1q5 5 3 13l-15-1q-3-5-3-13"/>
  <path fill="#0f0f0e" d="m1230 1927 14 1q4 5 3 13l-14-1q-4-5-3-13M1339 2090h6q5 2 7 6-1 6-4 9l-9-1c-4-3-5-3-7-8q2-4 7-6"/>
  <path fill="#020201" d="M1229 1870h14q4 6 4 13l-14-1q-4-5-4-12"/>
  <path fill="#c7c6c6" d="M2547 12h78c18 0 109-3 119 5 3 29 1 99 1 130v1049c-33 0-89 2-120 0l-50 1h-83c1-68 17-132-76-133-138-3-135 9-133 133-93-2-195-1-290-1l-594 1q2-43 0-84c-3-36-41-49-72-49-142-4-138 9-137 132-13 2-65 1-80 1l-187-1-1-820V151c0-16-2-127 3-135 16-6 97-4 118-4h1504"/>
  <path fill="#c7c6c6" d="m923 1196-1-820V151c0-16-2-127 3-135 16-6 97-4 118-4h76l-1 783q0 152 1 303c0 31-2 67 0 97 19 0 53-1 71 1-13 2-65 1-80 1z"/>
  <path fill="#fcfcfc" d="M1043 12h76l-1 783q0 152 1 303c0 31-2 67 0 97h-76V12"/>
  <path fill="#c7c6c6" d="M2625 12c18 0 109-3 119 5 3 29 1 99 1 130v1049c-33 0-89 2-120 0-3-86-1-184 0-270l-1-456V175c0-47-2-117 1-163"/>
  <path fill="#fcfcfc" d="M2547 12h78c-3 46-1 116-1 163v295l1 456c-1 86-3 184 0 270-14-2-60-1-77-1l1-142-1-710c0-107 3-224-1-331"/>
  <path fill="#020201" d="M1956 922q88-2 177-1c14 0 37 0 47 11 11 12 9 30 9 45-54 3-108 0-162 1l1 48 104-1 56 1c1 13 3 29-4 41q-6 11-19 13c-23 6-189 5-215 2q-12-2-24-9-16-11-19-30c-3-18-3-65 0-84q2-10 8-18 16-18 41-19"/>
  <path fill="#666" d="m1952 931 184-1c11 0 28 0 36 8 7 8 5 21 5 31-33 0-134-5-157 2q-4 6-4 13c0 9-3 41 4 47 11 9 51 4 66 4l91-1q2 16-4 31-3 5-10 7c-21 5-184 5-209 2q-11-1-18-7-14-8-17-23c-4-19-5-83 6-98q10-14 27-15"/>
  <path fill="#020201" d="M1533 921h119c26 0 56-3 81 2q18 1 32 13c17 16 12 73 12 97q2 20-12 34-14 12-32 15c-30 5-110 1-146 1h-45c-13 0-27 0-37-10-12-13-9-32-9-48l160 1v-49q-80 3-160-1c0-13-2-29 6-40q12-13 31-15"/>
  <path fill="#666" d="M1531 930h135c23 0 50-3 72 2q10 2 18 10c16 16 10 53 10 74 0 15 2 34-10 46q-12 10-28 12-27 3-55 1h-128c-11 0-22 0-31-8-9-10-7-21-7-33 53 0 107 3 160 0v-65q-80-2-160-1c0-9-1-21 5-29q7-8 19-9"/>
  <path fill="#020201" d="M1413 774q34-2 68 0c24 0 50-3 74 0l21 6q15 7 23 22 3 13-4 24c-7 15-18 19-33 24q-38 3-77 2-32 2-66-1-14-1-27-8-15-6-19-21t5-29q14-15 35-19"/>
  <path fill="#7f7f7e" d="M1415 782c31-1 126-5 149 3 9 3 20 9 23 19q3 12-4 22c-6 11-14 14-26 17-30 0-134 5-157-6q-12-5-16-17-2-12 4-22 10-14 27-16"/>
  <path fill="#020201" d="M2125 774c29-1 141-5 164 6q16 7 22 22 4 15-3 28c-7 12-18 16-31 20-27 3-142 5-165-4q-16-7-24-22c-2-8-2-20 2-27 7-14 21-19 35-23"/>
  <path fill="#7f7f7e" d="M2130 782c30-1 133-6 154 5q13 6 16 18 3 11-2 22-10 13-28 16c-31 0-132 6-156-6q-12-6-16-17-2-13 5-23 10-14 27-15"/>
  <path fill="#272625" d="m16 2939 175-1c30 0 76 1 104-3q30-3 57-15c43-19 69-45 86-89 1 50-15 108 36 136 1 38-3 94 3 131 6 38 82 54 107 21 17-23 15-35 15-63 58 33 141 21 207 20h1838c104 0 208 4 312 0 33-1 55-7 84-22-2 20-1 46 12 62 23 33 103 22 108-18 5-37 2-91 2-130 45-24 38-60 37-104 79 99 152 81 266 82l147 1c-1 38 2 77 1 118l-144 1c-75 1-146-11-214 30-77 47-101 134-34 204q34 34 79 46c43 12 115 9 162 9l149 1c-1 53-28 109-65 147-107 111-221 110-362 110h-205c2-21 1-49 1-71h27q0-48 1-95-3-57-2-113-1-23 1-45v-9l1-36h-27c-2-65 16-86-64-82-20 1-23-3-40 11v72h-82c0-14 5-63-7-75-15-17-63-15-69 9-3 13-1 52-1 69l-16 13-33 24-33-24c-6-8-11-11-18-17l-67 1c1-16 4-58-2-69-12-22-52-22-69-6-11 12-7 61-6 74-16 0-74 0-85 3-13-9 10-64-10-78a49 49 0 0 0-68 7c-2 19-1 51 0 69h-90l2-64q-8-17-27-21c-68-10-50 44-53 84h-169c0-39 11-90-45-85-18 1-23 5-35 18l-1 68-85 1c0-37 14-90-38-87-19 1-25 3-38 17v69l-82-1c1-20 1-52-1-71q-8-7-16-11c-98-3-87-11-89 82h-39v36q1 5-1 9l-4 9v79l-1 88 1 40c1 7 6 10 5 20 0 9-2 9 3 15 11 5 23 2 37 2l1 70-334 1c-21-1-166 1-173-3 2-9 16-7 24-7 30 0 50-13 69-35l4-8 2-12v-60l12-2-9-3-3-2c-3-10-2-10 1-20l1-2-4-1c-1-7-1-44 2-48v-75h54l3-1c-3-7-37 7-55-5-4-8-3-6-2-16l2-1c17 1 46 3 61-3-3-9-2-18-5-24l-2 1c0 9 1 11-3 17-14 7-35 3-53 3v-34c-4-13-2-32-4-47-14-36-53-46-89-46 0-24 2-28-16-43h-20l-1 1 10 2c22 10 19 17 19 40H789c-29 0-96 2-122-1l-2-1-4 4-24-1c-82 15-72 66-70 132-5 4-9 3-16 5 8 0 9-1 15 3 2 16 1 42 1 60l-1 105-58 2c16 1 42-2 53 4 12 13 0 39 9 63 12 33 39 45 72 49 8 2 16 0 22 3v3c-20 7-290 3-328 3-89 1-195-44-256-114-38-43-63-88-62-149l127-2c94 0 177 18 254-48 80-70 49-178-42-219-64-31-121-22-190-22q-75 1-151-1z"/>
  <path fill="#c7c6c6" d="M667 3178c2-11-3-36 18-37 110-5 223 3 333-2 22 10 19 17 19 40H789c-29 0-96 2-122-1M551 3317c8 0 9-1 15 3 2 16 1 42 1 60l-1 105c-22-4-54 4-71-6-1-23-3-140 3-157 10-9 39-3 53-5"/>
  <path fill="#b2b2af" d="M1192 3335q8 3 9 11c1 22 4 91-4 108-7 6-47 3-59 3v-122z"/>
  <path fill="#c7c6c6" d="M1134 3225c14 10 61-10 66 12 4 16 4 56 1 72-3-9-2-18-5-24l-2 1c0 9 1 11-3 17-14 7-35 3-53 3v-34c-4-13-2-32-4-47"/>
  <path fill="#0f0f0e" d="M1134 3225c14 10 61-10 66 12 4 16 4 56 1 72-3-9-2-18-5-24l-2 1 1-52-58-1 1 39c-4-13-2-32-4-47"/>
  <path fill="#fcfcfc" d="M3007 3280c10-1 15-3 23 3 8 9 2 202 3 230q1 6-4 10c-8 3-17 5-21-4l6-12c1-21 2-208-2-213l-5-5zM1505 3525c-6 0-23 1-23-8q-3-115-1-230l4-4q9-5 20-3 1 5-1 9l-4 9v79l-1 88 1 40c1 7 6 10 5 20"/>
  <path fill="#c7c6c6" d="M1138 3488c17 2 48-2 58 2l-1 22c-3 6-2 34-2 44l-53-5-2-3z"/>
  <path fill="#0f0f0e" d="M660 3179c-2-37 8-49 47-49 90 1 180 8 270 2 10-1 46-5 52 4h-20l-1 1 10 2c-110 5-223-3-333 2-21 1-16 26-18 37l-2-1-4 4-24-1zM1192 3335l3-1c-3-7-37 7-55-5-4-8-3-6-2-16l2-1 2 13c11 5 63-3 66 15 3 28 1 87-1 115l-6 7-61 2-2 17c-3-10-2-10 1-20l1-2-4-1c-1-7-1-44 2-48v47c12 0 52 3 59-3 8-17 5-86 4-108q-1-8-9-11M495 3479l-2-2-2-1-4 1v-69c1-21-6-80 7-93 17-6 54-4 73-3-5 4-9 3-16 5-14 2-43-4-53 5-6 17-4 134-3 157"/>
  <path fill="#fcfcfc" d="M2636 3261c7-2 60-2 66 0l-33 24z"/>
  <path fill="#0f0f0e" d="M1141 3483h60q2 21 0 42l-2 1c-4-6-1-26-3-36-10-4-41 0-58-2l12-2z"/>
  <path fill="#b2b2af" d="M1193 3556c0-10-1-38 2-44 0 11 2 40-2 48h-57l2-12 2 3z"/>
  <path fill="#0f0f0e" d="M1136 3560h57c-9 7-47 7-61 8z"/>
  <path fill="#fcfcfc" d="M1419 3527q15-2 29 4 16 7 21 22 4 13-2 24-12 18-33 22-16 1-31-5-16-8-21-24-4-12 3-23c7-12 21-17 34-20"/>
  <path fill="#272625" d="M2729 3257c87-1 175-3 262 2 0 19 2 263-1 269l-5 1q-128 3-255 0-30-22-60-43-30 19-58 43l-215 1q-30-24-61-44-33 21-64 43c-250-3-500 3-751-1 2-90-1-180 1-270h22l728-1q32 23 65 43l61-43q43 0 85 1l128 1 57 42q31-21 61-44"/>
  <path fill="#020201" d="m2141 3362 117-1c1 21 4 68 0 87-1 4 0 2-4 5q-57 0-114-2-2-44 1-89"/>
  <path fill="#d5bb85" d="m2155 3372 88 1v68q-44-1-89 0z"/>
  <path fill="#dbba72" d="M2200 3378q17 1 35 1c1 14 7 39-1 51-11 8-25 5-38 4-13 0-21-2-33-7 1-10 0-38 4-45 6-5 25-3 33-4"/>
  <path fill="#020201" d="m1897 3361 117 1q2 45 0 90-58 1-116 0-1-45-1-91"/>
  <path fill="#d5bb85" d="M1912 3373h89l-1 67q-43 3-88 1z"/>
  <path fill="#dbba72" d="M1925 3379c20 0 44-2 63 4l1 1 1 19q3 10 4 20 1 3-1 8-2 2-5 2c-18 0-41 6-57 0q-7-1-10-9c-6-12-1-34 4-45"/>
  <path fill="#020201" d="M1613 3361h116c3 29 3 62 0 91l-116-1q-1-44 0-90"/>
  <path fill="#d5bb85" d="M1628 3373h87v68h-88q-1-35 1-68"/>
  <path fill="#dbba72" d="M1644 3379c18-1 41-4 58 2 5 8 4 35 2 45q-2 6-8 8l-58-3c-4-8-6-34-4-42q2-8 10-10"/>
  <path fill="#020201" d="M2780 3361q58-1 117 0l-1 91-116-1q-2-45 0-90"/>
  <path fill="#d5bb85" d="M2795 3373h87v68h-88q0-35 1-68"/>
  <path fill="#dbba72" d="m2817 3379 5-1c13-1 35-4 45 5q9 9 9 22 1 14-8 24-8 3-15 2c-14 3-34 1-49 0-2-14-7-35 0-48q7-3 13-4"/>
  <path fill="#020201" d="M2449 3362h116q3 45-1 90h-115q-3-45 0-90"/>
  <path fill="#d5bb85" d="m2463 3372 88 1v68h-88z"/>
  <path fill="#dbba72" d="M2491 3380c10-4 23 1 34 0h11q7 8 7 19c0 9 1 24-6 31q-2 2-8 1c-14 2-46 9-57 0-7-13-3-34-3-49zM636 3591c-29-4-55-20-55-52l-1-118v-118c0-20-1-48 2-67 9-59 101-47 144-47h280c41 1 113-8 117 53v121c-2 62 5 129-2 190-5 47-96 40-127 40l-130-1-148 1c-19 0-63 1-80-2"/>
  <path fill="#d5bb85" d="M636 3591c-29-4-55-20-55-52l-1-118v-118c0-20-1-48 2-67 9-59 101-47 144-47h280c41 1 113-8 117 53v121c-2 62 5 129-2 190-5 47-96 40-127 40l-130-1 34-1q58-3 116-2h50c5 0 34-14 38-18 5-5 9-7 11-16 5-23 1-47 2-71l1-139c1-32-3-76 0-106q2 12 2 25v-33c-5-10-7-13-14-21-5-5-31-16-36-16H653l43 1c-6 3-41 0-50 4-8 4-14-4-18-3q-27 7-40 31c1 26-1 62-1 90v130c-2-13-1-48-1-63-4 17-1 77-2 100 2 25-2 57 8 80 6 14 39 19 44 27"/>
  <path fill="#110904" d="M706 3255c19-8 39-20 60-26 50-15 123-16 173 1 13 5 40 18 46 30l3 1c22 5 27 25 40 28l-5-9c19 13 21 27 31 47 7 13 13 22 15 37 3 25 2 54-3 79 0 4-14 16-15 20-38 62-109 99-180 101-63 2-94-12-151-36l2 2c-64-21-108-125-82-186 20-46 37-53 64-87z"/>
  <path fill="#d5bb85" d="M706 3255c19-8 39-20 60-26 50-15 123-16 173 1 13 5 40 18 46 30-43-25-79-36-129-38-74-2-159 32-197 99-18 32-23 70-13 106 45 161 325 174 400 29 31-60 20-122-29-169l-29-26c22 5 27 25 40 28l-5-9c19 13 21 27 31 47 7 13 13 22 15 37 3 25 2 54-3 79 0 4-14 16-15 20-38 62-109 99-180 101-63 2-94-12-151-36l2 2c-64-21-108-125-82-186 20-46 37-53 64-87z"/>
  <path fill="#dbba72" d="M814 3237c29-4 92-4 116 11 32 5 74 39 93 65 21 29 30 66 23 102q-6 33-28 58c-30 39-83 67-132 71-29 6-73 1-102-8-36-8-86-38-104-72-30-28-29-94-12-129q9-17 20-31c25-30 65-54 103-62q11-4 23-5"/>
  <path fill="#d5bb85" d="M668 3335c1 10-9 37-6 42l1-8c5 6 2 21 2 31 1 20 13 47 15 64-30-28-29-94-12-129M688 3304c25-30 65-54 103-62v3c-10 4-16 10-26 14q-27 13-50 29c-6 3-19 15-25 17zM784 3536c32-2 70 3 102 8-29 6-73 1-102-8M814 3237c29-4 92-4 116 11-7 1-17-3-30-3l6 1q-21 2-42-3c2-3 2-2 2-5-17-2-33 3-52-1"/>
  <path fill="#110904" d="M816 3257c26-33 86 8 102 3l-8-3v-3c10 0 38 11 44 19l-4 6q23 13 42 33 68 90-11 169c-16 12-26 19-44 28-52 19-93 23-148 8-42-15-64-29-90-65l-6-1c-22-20-19-35-17-63 1-8 1-27 9-32 27-60 67-84 131-99"/>
  <path fill="#d5bb85" d="M816 3257c26-33 86 8 102 3l-8-3v-3c10 0 38 11 44 19l-4 6c-47-23-82-29-134-22M699 3452l-6-1c-22-20-19-35-17-63 1-8 1-27 9-32-8 42-6 59 14 96"/>
  <path fill="#d5bb85" d="M828 3266c43-5 90 5 126 29 27 18 49 46 54 78q7 44-18 80c-26 35-67 53-110 60-44 6-92-1-130-27-27-18-49-46-54-79q-7-44 20-80c27-37 69-54 112-61"/>
  <path fill="#dbba72" d="M834 3271q30-3 60 4 7 4 16 7c10 3 19 2 28 8l24 16c18 15 42 47 44 71q1 3-2 4c-10-24-16-48-35-67q-4-4-9-3c0 1 20 19 23 26 10 39 22 24 14 73-3 20-14 44-30 56l-12 10c-14 12-36 22-54 27-51 13-102 2-146-24q-39-22-51-66c-6-29 2-61 18-86q11-17 29-28l20-7c22-8 40-16 63-21"/>
  <path fill="#110904" d="M794 3382c13-18 24-36 47-39 11-1 31-3 40 3l2 3c-5 1-28-4-43-2 19 1 42 1 55 17 17 21 12 51-13 63l-3-2c-26 7-37 7-61-6-22-2-24-18-24-37"/>
  <path fill="#d5bb85" d="M794 3382c13-18 24-36 47-39 11-1 31-3 40 3l2 3c-5 1-28-4-43-2 19 1 42 1 55 17 17 21 12 51-13 63l-3-2c10-7 24-20 23-34 0-67-146-37-84 28-22-2-24-18-24-37"/>
  <path fill="#dbba72" d="M843 3364q11-3 23 1 14 5 21 18 3 9 0 17-8 14-24 19-10 2-21-1-13-3-21-16-5-9-1-20 7-13 23-18"/>
  <path fill="#d5bb85" d="m838 3373 29-1 10 9q5 7 4 14-4 12-16 16h-24c-6-4-14-9-15-17s7-16 12-21"/>
  <path fill="#dbba72" d="M3050 1407c0-19-2-36 11-51 20-22 59-19 78 1 14 13 12 38 12 55l-1 106c3 104 0 217 1 321v178c0 31 1 66-1 96 2 19 1 50 1 69v135l-1 397q20 11 30 30c8 17 10 170 2 191-5 14-19 22-32 28 0 28 7 128-8 147q-16 15-38 16c-15 1-32-3-42-14-16-16-12-45-12-66q9-6 16-15c35-37 28-73 28-120V1601l-1-107c0-40-15-61-43-87"/>
  <path fill="#d5bb85" d="M3050 1407c0-19-2-36 11-51 20-22 59-19 78 1 14 13 12 38 12 55l-1 106c-4-25-1-66-4-93-1-13 3-33 0-45-4-15-25-30-40-31-46-4-53 13-52 57 46 29 51 101 46 149-1 20 8 51 7 73q-6 99-8 200c1 14 6 29 6 44l-5 85 4 93-4-1c-9 15 6 34 4 44-11 80 0 163-2 243q-2 141-2 283l2 164c0 21 5 49 2 71-7 49 5 109-17 154-8 18-13 31-31 40-6 9-2 35 0 47 5 27 74 32 82 6 12-42-4-98 7-141 2-7 19-9 31-28 0-33 17-170-3-190l-2-2-25-22c-7-25-3-88-3-117l1-149-2-126-2-35 2-45c4 5 0 67 3 69 3-26 1-194 5-202 2 19 1 50 1 69v135l-1 397q20 11 30 30c8 17 10 170 2 191-5 14-19 22-32 28 0 28 7 128-8 147q-16 15-38 16c-15 1-32-3-42-14-16-16-12-45-12-66q9-6 16-15c35-37 28-73 28-120V1601l-1-107c0-40-15-61-43-87"/>
  <path fill="#dbba72" d="M485 2714V1567c0-51-6-84 58-85-4 63 1 145-1 212v52c2 21 1 68 1 90l-1 196v675l1 162-1 88c1 41 14 64 44 90v42c-3 43-64 50-89 23q-8-8-10-19c-2-10-1-36-1-47v-84c-32-18-37-32-37-68 0-44-3-90 2-135 2-19 20-34 34-45"/>
  <path fill="#d5bb85" d="M485 2714V1567c0-51-6-84 58-85-4 63 1 145-1 212l-3 9v-3l-1-1c0-14-5-23-5-35q1-36 1-72l2-1c2 7 0 26 1 36 3-32-4-76-7-109-1-15 8-19-2-27q-11 0-22 5c-26 36-4 52-14 79q-2-5-2-13v32l1-9c8 6-2 50-1 62q2 22 2 43c-2 53 3 104 4 156q0 70-5 140c-1 38 5 73 5 110l-3 621c-27 11-34 30-37 58-1 19 5 40 4 59 1 33-11 65 1 98 5 13 23 20 31 28l3 62q0 38 4 74c4 18 32 25 47 21 16-3 22-8 32-19v-51c-16-14-39-36-41-58-6-66-3-130-3-196l1-348-2-390c0-54-3-96 0-152v2c2-26 1-158 6-169l3 10c2 21 1 68 1 90l-1 196v675l1 162-1 88c1 41 14 64 44 90v42c-3 43-64 50-89 23q-8-8-10-19c-2-10-1-36-1-47v-84c-32-18-37-32-37-68 0-44-3-90 2-135 2-19 20-34 34-45M3362 3075h251v65q-26 3-48 16a70 70 0 0 0-32 45q-4 24 10 44c17 23 43 31 70 36v64l-86 1h-106c-67 0-128 2-182-45q-39-34-44-85-2-48 31-84c36-39 84-54 136-57m20 204c25-6 48-15 62-38q13-22 7-45-9-28-35-42c-19-11-44-16-65-12-24 5-48 14-62 35q-14 20-9 44 7 29 33 44 33 18 69 14"/>
  <path fill="#dbba72" d="M3343 3082c40-5 83 1 122 3h60c23-1 62-7 81 1 6 10 3 40 1 51-13 5-28 4-40 10-26 13-41 38-49 64 19 39 24 54 67 72 5 3 14 4 18 8-3 10 1 16 1 26q1 10-6 18c-11 10-42 5-55 3q-33-4-64-1h-54c-53 1-93 8-143-15-30-14-60-34-73-67l7 7 1-2v2l-2-1 2-3c0-7-12-27-13-38-4-25 11-62 26-82 25-31 75-51 113-56m39 197c25-6 48-15 62-38q13-22 7-45-9-28-35-42c-19-11-44-16-65-12-24 5-48 14-62 35q-14 20-9 44 7 29 33 44 33 18 69 14"/>
  <path fill="#020201" d="M3414 3139c19 0 27 11 41 20 7 4 8 13 12 20 23 37-1 78-32 100-59 45-187 9-182-77 0-13 8-24 16-34 25-32 70-47 109-45 9 0 25 5 30 14zm-32 140c25-6 48-15 62-38q13-22 7-45-9-28-35-42c-19-11-44-16-65-12-24 5-48 14-62 35q-14 20-9 44 7 29 33 44 33 18 69 14"/>
  <path fill="#d5bb85" d="M3414 3139c19 0 27 11 41 20 7 4 8 13 12 20 23 37-1 78-32 100-59 45-187 9-182-77 0-13 8-24 16-34 25-32 70-47 109-45 9 0 25 5 30 14-53-15-126-5-142 58q-6 28 9 53c32 48 115 56 159 23 57-45 38-102-20-132"/>
  <path fill="#dbba72" d="M3612 2116h-165c-78 1-152 10-213-49-84-83-19-196 84-215 46-9 89-6 135-5l159-1v65c-16 3-22 4-36 10l-14 7c-36 32-46 66-5 102q25 18 55 21zm-244-66c26-1 52-9 70-29q16-19 15-43-3-29-26-46c-16-14-40-21-61-21l-2 1c-27 3-53 9-72 31a58 58 0 0 0-13 43q4 27 25 44c18 13 42 20 64 20"/>
  <path fill="#d5bb85" d="M3612 2116h-165c-78 1-152 10-213-49-84-83-19-196 84-215 46-9 89-6 135-5l159-1v65c-16 3-22 4-36 10l-1-4c12-7 28-7 31-16 2-11-2-35-3-46-56-4-88-2-143 0-72 3-148-18-210 37l-3 2c-13 12-21 32-34 46h-2c2-8 7-11 9-19-9 6-19 58-17 68 11 64 58 102 119 117 30 7 63-3 93 3 31 6 158 3 184-3 6-4 11-22 9-29l-3 5c5-22-9-30-28-35a67 67 0 0 1-49-87l-1 10 1-2c4-13 17-42 34-40-36 32-46 66-5 102q25 18 55 21z"/>
  <path fill="#110904" d="M3307 1915c41-20 65-18 109-6 14-2 27 19 37 21v-6c10 4 14 27 21 35 14 19 2 41-9 57-7 13-6 19-19 29-51 39-121 25-168-13-21-18-28-37-23-66 4 3 2 13 2 18 3-2 2-1 2-5 3-27 14-43 34-60q5-5 11-5zm61 135c26-1 52-9 70-29q16-19 15-43-3-29-26-46c-16-14-40-21-61-21l-2 1c-27 3-53 9-72 31a58 58 0 0 0-13 43q4 27 25 44c18 13 42 20 64 20"/>
  <path fill="#d5bb85" d="M3416 1909c14-2 27 19 37 21v-6c10 4 14 27 21 35 14 19 2 41-9 57-7 13-6 19-19 29-51 39-121 25-168-13-21-18-28-37-23-66 4 3 2 13 2 18 3-2 2-1 2-5 3-27 14-43 34-60q5-5 11-5l3 1c-9 7-14 10-22 18-30 29-26 75 5 102 46 39 126 35 164-13 24-29 18-69-11-93q-13-10-25-18zM3341 2257q49-3 99-1h173l-1 65q-29 3-53 18a65 65 0 0 0-27 43q-2 25 12 45c17 22 42 30 68 33v65h-177c-66 0-129 5-185-35q-43-32-54-85-5-46 24-84c29-38 74-58 121-64m42 201c22-4 45-14 58-33q15-19 11-43-6-29-31-45c-21-14-44-16-69-15-24 5-48 13-62 35q-14 20-10 44 7 28 31 43c21 13 48 18 72 14"/>
  <path fill="#dbba72" d="M3571 2261c8 3 19-2 28 1l5 4q2 12 1 23c0 6 1 17-3 22-11 13-50 6-70 45-8 16-12 37-6 55 8 22 28 38 50 47q9 4 19 9 4 3 4 8c1 10 3 33-3 40-18 7-208 6-240 3-21-1-45-4-64-13l-19-10q-27-17-47-41c-22-27-24-54-21-86l-1-2q-2-5 1-10c4-12 16-37 28-42 1 3-8 10-9 15 8-4 14-13 20-19q20-20 44-32c42-20 79-13 123-13l61-2c32-1 65 1 97-2zm-188 197c22-4 45-14 58-33q15-19 11-43-6-29-31-45c-21-14-44-16-69-15-24 5-48 13-62 35q-14 20-10 44 7 28 31 43c21 13 48 18 72 14"/>
  <path fill="#d5bb85" d="M3356 2307c32-1 68 2 94 23 15 13 26 35 27 55 2 19-8 43-20 57-24 28-54 31-88 34-32-2-65-4-89-29a84 84 0 0 1-22-61c0-9 2-31 9-37l2 1v4l1 1 3-2q3-10 10-18c18-19 46-28 73-28m27 151c22-4 45-14 58-33q15-19 11-43-6-29-31-45c-21-14-44-16-69-15-24 5-48 13-62 35q-14 20-10 44 7 28 31 43c21 13 48 18 72 14"/>
  <path fill="#020201" d="M3348 2312q40-5 76 12 30 15 41 49 7 28-7 52c-16 26-42 37-70 43q-45 9-83-13a81 81 0 0 1-39-51q-5-29 11-53c17-24 44-35 71-39m35 146c22-4 45-14 58-33q15-19 11-43-6-29-31-45c-21-14-44-16-69-15-24 5-48 13-62 35q-14 20-10 44 7 28 31 43c21 13 48 18 72 14"/>
  <path fill="#dbba72" d="M17 1838h172c84 0 157-9 216 64q12 14 18 31c28 71-21 137-87 162q-27 10-56 13c-39 4-108 0-150 1-20 0-95 1-111-1-3-5-2-5-2-10v-35l1-16c8-6 32-9 47-18q25-16 30-45c9-47-38-74-78-79zm163 163 4 5q19 25 49 34c43 12 108-9 114-55 13-87-134-107-168-36q-5 14-6 27 2 13 7 25"/>
  <path fill="#d5bb85" d="M17 1838h172c84 0 157-9 216 64-21-7-55-42-82-49-43-12-87-5-131-6q-83-4-166 0c0 8-4 42 1 49 9 11 52 7 52 27 0 7 12 17 16 24l-1-6q4 1 5 6c5 18 5 50-5 65-15 24-45 28-68 39l-9 12 1-16c8-6 32-9 47-18q25-16 30-45c9-47-38-74-78-79zM17 2098l4 5c13 3 32 2 45 2q86-1 171-7c15-2 35 6 52 4 49-7 83-27 112-67 23-31 24-43 20-80h2l1 10h2c2-11-8-20-3-32 28 71-21 137-87 162q-27 10-56 13c-39 4-108 0-150 1-20 0-95 1-111-1-3-5-2-5-2-10"/>
  <path fill="#110904" d="M205 1906c12-23 92-23 112-6 7 7 39 25 44 31 3 9-2 12 2 22q10 29-5 56c-14 25-40 40-66 48-18 7-95 7-101-14 11 2 18 11 28 11l1-2c-17-6-58-28-55-49l-4-15c-4-5-4-21-2-28q12-36 46-54m-25 95 4 5q19 25 49 34c43 12 108-9 114-55 13-87-134-107-168-36q-5 14-6 27 2 13 7 25"/>
  <path fill="#d5bb85" d="M205 1906c12-23 92-23 112-6 7 7 39 25 44 31 3 9-2 12 2 22q10 29-5 56c-14 25-40 40-66 48-18 7-95 7-101-14 11 2 18 11 28 11l1-2c-17-6-58-28-55-49q14 25 42 40c47 24 125 12 149-40q12-28 1-55c-26-59-100-64-152-42"/>
  <path fill="#020201" d="M161 1988c2-7-3-23 8-29l3 4q-2 6 1 13 2 13 7 25l-2 3q-6-6-6-17c-2 4-2 3-5 6z"/>
  <path fill="#d5bb85" d="M18 2247h170q48-2 96 1 21 2 40 8c40 14 78 40 97 79 13 26 14 57 4 84-14 41-48 67-86 84q-24 10-49 13c-33 4-67 2-100 2l-173-1 1-64q24-1 45-14 25-14 32-42 6-26-10-47c-16-23-41-31-67-36zm187 189c26 16 70 22 97 7 116-63-8-166-93-116q-56 34-24 92z"/>
  <path fill="#dbba72" d="m100 2254 121 1q37-2 72 1 30 3 56 17c16 8 23 21 36 32q26 19 36 50c8 27 3 62-12 87s-44 48-72 57q-21 6-41 11l-21 4H22c0-16-3-36 1-51 2-10 40-15 50-21l3-2 10-9q19-16 21-41c0-25-16-59-39-71-16-7-32-4-45-18l-1-1c0-12-3-29 5-39 9-12 28-5 41-5q15 0 31-2zm105 182c26 16 70 22 97 7 116-63-8-166-93-116q-56 34-24 92z"/>
  <path fill="#d5bb85" d="M232 2298c39-1 81 0 114 25 17 14 20 34 22 55q4 31-15 56c-19 23-43 29-71 31l-4 1c-15 2-66 2-77-7v-3l6 2 1-1c-6-7-17-12-25-17a68 68 0 0 1-27-45c-4-22 3-47 15-65 13-19 38-28 61-32m-27 138c26 16 70 22 97 7 116-63-8-166-93-116q-56 34-24 92z"/>
  <path fill="#110904" d="M165 2410c-19-42 7-81 47-98q48-18 98 1c79 34 64 121-12 144-17 5-53 9-69 2q-43-10-64-49m40 26c26 16 70 22 97 7 116-63-8-166-93-116q-56 34-24 92z"/>
  <path fill="#0f0f0e" d="M165 2410c15 8 8 11 15 13l5-4 20 17-6 4c3 10 22 7 30 19q-43-10-64-49"/>
  <path fill="#666" d="m1245 1074 7-1c30-1 100-7 121 14 23 23 16 79 15 110h-187c0-27-6-80 8-102q13-19 36-21M2339 1074l6-1c28-1 100-6 120 14 24 22 16 79 16 110h-186c0-27-7-83 9-105q13-16 35-18"/>
  <path fill="#272625" d="m2670 3502 33 23c11 12 14 11 15 29 1 21-3 39 5 59-57 2-117-2-175 0q6-35 4-71h66l19-15z"/>
  <path fill="#fcfcfc" d="m2670 3502 33 23c-11 2-54 2-66 2z"/>
  <path fill="#c7c6c6" d="M1263 1209h127c0 23 5 89-3 107-10 3-107 4-116 0-14-16-8-84-8-107M2248 1209h126c1 22 5 91-2 107l-4 1c-10 2-92 2-104 1q-6 0-11-3c-9-7-5-92-5-106M2413 1209h125c0 24 4 88-3 107l-7 1c-12 2-106 2-110-2-12-12-6-86-5-106M1219 1209h2l2 3c1 16 4 92-3 101-19 10-88 5-113 5l-2-3c-9-9-5-89-5-106z"/>
  <path fill="#272625" d="M1973 3542h170l1 48 2 23c-58-1-117 2-175-1-2-4 2-18 2-24zM2335 3501l34 25-1 2c-14 2-45-1-55 1-7 16-2 62-2 81-11 6-76 3-92 2 4-20 3-50 3-70l58-1 21-15z"/>
  <path fill="#fcfcfc" d="m2335 3501 34 25h-68z"/>
  <path fill="#c7c6c6" d="M2143 1209h64c0 22 4 90-3 106l-9 3c-13 2-39 3-49-4-8-12-3-86-3-105M1532 1209h64c0 22 5 92-4 107l-6 2c-15 2-39 4-51-5-8-13-3-86-3-104M1430 1209h64c0 22 5 91-4 107q-14 5-30 5-13 1-23-6-6-7-7-15c-3-19 0-70 0-91M1634 1209h64c-1 25 5 86-3 106q-6 3-11 3c-15 2-35 4-47-5-7-12-3-87-3-104M2042 1209h64c-1 22 4 90-3 106q-7 4-15 4c-13 1-33 3-43-6-7-14-3-84-3-104M1736 1209h64q2 53 0 106c-13 2-51 4-62-3-7-19-2-79-2-103M1940 1209h63c0 24 5 87-3 106-10 4-24 4-34 4q-11 1-20-7c-13-14-7-83-6-103"/>
  <path fill="#272625" d="M1809 3542h86c-1 9 2 69 1 71-13 0-81 4-89-3z"/>
  <path fill="#d5bb85" d="M1561 3172q25-1 52-1c7 0 17 1 22 7 9 12 3 52 1 67h-79c-1-16-5-61 4-73"/>
  <path fill="#dbba72" d="M1572 3177c13 2 36-3 47 2q7 3 9 9c2 7 1 45-2 50q-21 3-42 2-9 1-15-6c-6-9-5-27-4-38 0-9 0-12 7-19"/>
  <path fill="#272625" d="M2390 3541q41 2 82 1-1 28 1 57l1 13q-42 0-86 1 3-36 2-72M2834 3541h44q-1 36-1 71h-84q2-35 1-71zM1701 3541h31l1 70c-11 5-34 1-46 1h-37l-1-70z"/>
  <path fill="#d5bb85" d="M2891 3172c14-1 62-7 72 4s5 53 4 69h-79c0-18-4-57 3-73"/>
  <path fill="#dbba72" d="M2926 3180q17-2 34-2c0 14 6 47-4 57-6 7-20 5-28 4-9-3-23-1-28-8-3-11-6-37-1-48q12-2 25-3z"/>
  <path fill="#d5bb85" d="M2889 3542h79q1 36-1 71h-1c-14 0-63 6-73-4-9-10-4-53-4-67"/>
  <path fill="#dbba72" d="M2925 3548q18-2 35 0v59h-34c-8 0-19 3-25-1v-2c-2-9-5-42 1-49q9-7 23-7"/>
  <path fill="#d5bb85" d="M1558 3542h79l-1 70-5 1c-10 1-64 3-70-3-7-18-3-48-3-68"/>
  <path fill="#dbba72" d="m1569 3548 60 1c-1 19 6 38-3 56-11 3-42 6-52-1q-7-3-8-11c-1-6 1-41 3-45"/>
  <path fill="#d5bb85" d="M1921 3169c13-1 26-3 36 6 7 19 5 48 3 68q-5 3-11 2h-43c0-19-5-46 1-65q4-9 14-11"/>
  <path fill="#dbba72" d="m1923 3176 6-1q11-2 19 4c10 11 6 38 4 52q0 5-4 6-17 1-32-2l-2-38c1-10 1-14 9-21"/>
  <path fill="#d5bb85" d="m2169 3169 12-1q15-1 26 8c5 6 3 56 3 67q-4 3-10 2h-44c0-20-5-45 1-64q3-9 12-12"/>
  <path fill="#dbba72" d="m2171 3176 13-1c10 0 13 5 19 11q1 21-3 40-1 6-6 8l-29 3q0-19-1-37c0-11-1-17 7-24"/>
  <path fill="#d5bb85" d="M1756 3169c14-1 26-3 37 6 8 16 4 49 3 68q-3 3-9 2h-44c0-20-5-45 1-64q3-9 12-12"/>
  <path fill="#dbba72" d="M1756 3173q12-3 22 1 9 6 11 17c3 11 3 34-3 44l-8 1-23 1q-5-28-5-56l-1 2v-2c1-5 3-5 7-8M2338 3168l14 1c26 1 24 16 24 38l-1 38h-54c0-16-4-60 6-71z"/>
  <path fill="#d5bb85" d="M2352 3169c26 1 24 16 24 38l-1 38h-54c0-16-4-60 6-71l11-6 4 3c-6 2-7 2-12 6-7 9-4 25-3 36l1 26 41-2c0-16 2-45-1-59-6-7-9-1-16-9M2745 3169l15-1q11 0 19 8c7 9 5 54 4 67q-5 3-11 2h-43c1-19-5-47 2-65q4-9 14-11"/>
  <path fill="#dbba72" d="M2744 3172c12 1 21 1 31 10l1 50q-7 5-15 7h-1q-12 3-23-1l-4-11q-6-30 11-55"/>
  <path fill="#d5bb85" d="M2502 3168c10 0 24-1 32 6 8 8 5 57 4 69q-5 3-12 2h-40c-1-18-6-49 1-65q5-9 15-12"/>
  <path fill="#dbba72" d="M2503 3175h8q8-2 14 4c9 11 8 40 4 53-1 5-2 5-7 8-6-1-24 0-28-5-4-6-3-19-2-26 0-15 0-24 11-34"/>
  <path fill="#d5bb85" d="M2321 3541h54c0 22 3 49-4 71l-4 1c-11 2-30 5-39-4-13-11-8-52-7-68"/>
  <path fill="#dbba72" d="M2350 3548h10q4 2 5 6c5 13 5 36-1 49-4 5-6 4-12 5l-11 1q-6-1-10-5c-8-11 0-39 1-52z"/>
  <path fill="#d5bb85" d="M1743 3542h54c0 21 3 48-3 69-7 3-19 4-27 4q-11 1-17-6c-12-13-7-50-7-67"/>
  <path fill="#dbba72" d="M1752 3547h37l2 43q2 9-2 18l-15 1q-13 1-25-6c-7-13 0-41 3-56"/>
  <path fill="#d5bb85" d="m1907 3541 54 1c0 22 2 47-4 68q-3 3-7 3c-10 2-29 3-37-4-12-12-6-51-6-68"/>
  <path fill="#dbba72" d="m1942 3550 8 1c4 9 4 24 4 34 0 8 1 16-5 22q-13 3-28 1-5-2-7-9c-3-10 1-36 6-46q10-4 22-3"/>
  <path fill="#d5bb85" d="M2156 3542h54q2 34-3 68l-9 3c-11 1-28 4-36-5-11-11-6-51-6-66"/>
  <path fill="#dbba72" d="m2168 3548 32 2c1 16 6 41-2 55h-1c-9 3-22 3-31-2l-1-5c-3-10-3-41 3-50"/>
  <path fill="#d5bb85" d="M2485 3542h53c0 22 3 47-3 68l-7 3c-10 2-30 3-38-5-11-12-6-50-5-66"/>
  <path fill="#dbba72" d="M2503 3548q11-1 21 2c5 4 6 13 7 19 1 10 1 26-7 34q-7 5-16 4l-4-1q-6-1-9-7c-6-10-4-34-1-44q2-6 9-7"/>
  <path fill="#d5bb85" d="M2729 3542h54c0 22 3 48-5 70l-5 1c-11 1-28 4-37-4-12-12-6-51-7-67"/>
  <path fill="#dbba72" d="m2734 3549 1 2q19-2 37-1 0 27 3 52-9 7-21 8-6 0-12-5c-11-12-9-41-8-56"/>
  <path fill="#b2b2af" d="M669 3604h362l2 2v7c-38-1-352 2-361-2q-2-2-3-7"/>
  <path fill="#fcfcfc" d="M2299 3259h75l-18 12-20 14q-19-11-37-26"/>
</svg>
