<svg xmlns="http://www.w3.org/2000/svg" width="2172" height="4096" preserveAspectRatio="none" style="display:block" viewBox="0 0 4096 4096">
  <path fill="#010101" d="M1788 0h257c12 3 107 3 127 3l438 11 108 4c69 0 189-3 212 82 3 13 5 49 6 64 8 130 20 261 26 391 3 51 9 102 9 154l176-1c31 0 73-1 93 28 86 129 240 164 379 206 132 41 305 136 322 288 3 21 1 54 1 76v131c35 9 48 19 49 56 16 1 45 1 59 8 43 20 43 92 42 132q1 41-16 78c-16 35-52 27-83 32-8 2-7 21-10 26-7 11-28 18-41 21v613c45 9 59 19 58 66 25 0 55-4 76 14 7 7 8 22 9 32 1 25 4 172-7 184-19 20-52 17-78 17l-1 23c-17 23-30 26-57 32l1 142c0 26 1 73-4 97-32 132-174 213-292 257q-36 13-73 24c-80 24-160 64-229 111-16 11-44 36-53 54-31 61-67 60-129 60h-156c-9 1-10 5-11 16l-6 110-18 275c-2 25-3 74-7 96q-3 13-11 24c-40 49-163 39-222 41l-331 8-419 8q-248 1-497-5-135-2-269-6c-61-2-146 6-195-35-18-15-16-42-18-63l-8-115c-9-116-21-237-29-353l-159 3c-33 1-95-1-114-36-30-53-70-80-125-111q-69-40-145-67l-70-22C207 3241 6 3137 5 2961V1385l-1-102c1-17-1-47 3-64 31-146 192-229 323-271l89-25c52-18 115-45 160-76q39-27 69-63 16-22 33-41 10-12 23-17c39-13 195-9 243-9 0-63 1-122 4-186 4-63-1-128 5-192 4-38-2-83 1-122 4-41 2-88 6-129 5-65 103-75 152-76l118-2q197-6 393-7l97-1c20 0 47 1 65-2"/>
  <path fill="#3e3d3c" d="M3176 903c85-1 178-1 263 10 142 21 297 67 403 169 74 69 80 120 80 214v368l1 527q-2 296 0 593v129c1 20 3 60 0 77-29 189-283 283-446 311-144 25-288 19-428 19h-494l-1781 3c-76 1-160 0-235-10-147-18-321-70-431-174-49-47-85-108-85-177V1401c0-119-18-221 78-310 51-48 86-69 150-100 199-94 416-81 631-81l483-2z"/>
  <path fill="#010101" d="m1239 1131 1552-1h468l138-1c103 0 219 5 301 80 29 26 38 55 38 93v1577c0 49 4 90-36 127-87 80-209 82-319 82h-658l-1580 1H548c-103 0-216-7-299-80q-38-34-37-87v-401l1-713-1-359 1-110c0-51-6-86 34-124 87-81 211-83 321-83h149z"/>
  <path fill="#20211f" d="M494 1540c37 2 86 1 123 1h925l1913-1v887q2 8-3 14c-24 2-69 1-96 1H494z"/>
  <path fill="#fcfdfb" d="M1993 1871c47-4 184 4 181 81-1 37-97 107-127 132q-11 9-23 15c-36-23-106-81-134-113-61-70 55-108 103-115"/>
  <path fill="#20211f" d="M2019 1919c67-3 98 50 15 64-78 2-98-55-15-64"/>
  <path fill="#fcfdfb" d="M2100 1828h233c22 0 89-2 106 0l2 3q2 10-3 16c-19 3-115 0-140 0v265h-38l1-265-98 1c-17 0-47 1-61-1-4-8-2-9-2-19m221 355c112-14 144 79 47 97-28 2-58 2-84-12-19-11-34-37-19-57 14-19 35-25 56-28"/>
  <path fill="#20211f" d="M2330 2194c28-1 79 7 62 53-4 11-24 18-36 21-75 7-93-60-26-74"/>
  <path fill="#fcfdfb" d="M1709 2146h37q50 66 95 134l-34-1-28-40h-102l-26 41h-35z"/>
  <path fill="#20211f" d="M1727 2161c6 5 36 54 43 64h-84c13-21 30-42 41-64"/>
  <path fill="#fcfdfb" d="M1475 2145c18-2 48-1 65 3 29 7 39 14 53 37l-29 3c-14-23-33-28-59-29-32-1-79 2-96 33q-9 16-3 33c19 56 116 44 159 28 1-12 3-18-3-27h-65q-3-1-5-6c0-7-1-4 3-8 20-4 77-2 99-2v52c-56 20-105 27-164 10-40-11-80-51-47-92 21-26 60-32 92-35m280-269h36v109c1 64 6 102-71 120-26 6-48 5-74 6-13 0-31 4-37-8 1-8 0-6 4-11 42-10 96 12 132-29 13-14 11-35 11-53zm-13-196c100-4 271 31 316 138q7 13 1 27c-48 4-23-17-49-51-46-57-121-81-191-92-14-2-70-4-77-9-3-7-2-4 0-13m-357-27c16-2 58 2 52 26-6 7-8 8-17 12 46 21 21 40-14 47-20 1-54 0-64-21-2-16 12-21 25-26-10-4-13-6-18-14-1-19 21-22 36-24"/>
  <path fill="#20211f" d="M1380 1696h15q18 0 29 12c3 8 3 4 0 12-8 6-9 6-18 10-18 1-31 1-44-13-4-14 7-17 18-21m4-36c12 0 37 0 34 17-5 7-8 7-16 10-12 1-38 0-34-18 5-6 9-6 16-9"/>
  <path fill="#fcfdfb" d="M1134 1653c16-2 47 0 56 16 1 13-8 11-17 22 38 26 26 38-14 47-20 1-66-1-68-25 7-19 14-12 26-22-9-5-12-6-17-13-3-20 20-23 34-25"/>
  <path fill="#20211f" d="M1130 1696h14q18-1 31 12c5 14-6 17-17 22-17 1-32 1-45-12-4-14 6-17 17-22m4-36c10 0 38 0 35 17-5 7-6 7-14 10-12 1-38 1-36-17 4-6 8-6 15-10"/>
  <path fill="#fcfdfb" d="M1844 2146h167c11-1 18-2 26 5 1 8 2 5-2 10h-80l1 38v81h-32v-119c-18 0-62 2-77-1-4-5-3-6-3-14m598 0h126c14 0 60-2 68 5-1 17-69 10-83 10v119h-31v-119c-17 1-62 2-77-1-4-5-3-5-3-14m-694-427c69-1 228 30 238 117-3 8 0 5-8 10-22 0-24-2-33-25-23-54-98-75-152-81-13-2-51-1-54-13 4-7 1-4 9-8m-485-66c13-1 49 0 50 18-10 5-21-4-32-8-22-7-48-1-47 27 4 3 19-7 29-8 17 0 27 2 42 8l3 1c39 35-37 65-76 38q-15-11-19-30c-4-31 24-43 50-46"/>
  <path fill="#20211f" d="M1254 1692c18-1 31-2 45 12 4 15-5 19-16 25-33 5-71-18-29-37"/>
  <path fill="#fcfdfb" d="M671 1652c31 0 83-1 112 1l2 3c-13 11-75 5-94 5v27c15 0 78-2 86 2l1 5c-6 5-36 3-46 3h-41v30c13 0 90-2 96 2v4c-7 5-100 3-116 3zm1077 106c47 0 157 18 163 79-3 8-1 4-7 9-34 1-24-13-42-35-24-28-70-31-104-35q-11 0-17-8c1-7 0-4 7-10m437 388h30c0 18 2 127-2 134l-28-1zM816 1652q10-1 19 2c10 24-9 60 15 72 16 4 44 4 58-2 29-12-1-62 19-72 7 0 7-1 12 2l1 6c1 15 4 54-8 64-22 20-87 20-108-1-11-11-8-55-8-71m1969 0c67-3 90 28 18 58l-35 17c18 1 65-2 79 4v3c-5 4-45 3-55 3s-39 1-47-3v-3c20-21 79-35 82-59-5-9-10-8-18-11-26-12-36 20-60 13l-1-3c7-14 24-16 37-19m-1016 155c51-2 72 34 13 45-49 2-73-36-13-45m1166-153c27-2 66 0 95 0 6 0 6 1 8 4-5 12-44 20-61 78q-9 4-18-2c-5-21 40-59 55-71-15 0-67 2-77-2zm249-2c5 0 5 0 9 2 2 10 3 74-1 82-7 1-7 1-13-1-6-7-3-23-3-32v-33c-12 5-25 11-39 10 4-8 36-20 47-28m122-1 10 3c2 11 4 76-3 83-8 0-4 1-11-2-4-6-3-26-2-34v-31l-16 6c-6 2-17 5-23 3 11-12 32-16 45-28m-1259 573c20 0 76-2 93 0 5 5 4 6 5 14-24 0-73 2-94 0q-4-5-4-14M952 1751c31-4 92 0 125-1 7 0 6 2 10 5-12 4-119 4-132 1z"/>
  <path fill="#3e3d3c" d="m1681 13 8 14q27 19 60 20 168 2 335 1c36 0 106 6 122-34 22 1 119 1 134 4 15 41 45 38 82 38h206c18 0 48 0 57-20q4-8 13-9c65 1 175-8 211 61 8 16 9 72 10 92l9 145c7 123 18 247 25 370 4 63 4 138 11 198-71-1-148 1-219 1l-421 1c-211-2-428 1-639 2l-723 2a33711 33711 0 0 1 14-709c1-65-14-137 62-158 54-15 110-12 166-12q11 28 43 29c91 1 185 6 275-3 15-2 25-17 32-29 9-5 60-4 75-4z"/>
  <path fill="#010101" d="M1794 419c13-2 38-1 52-1h222q39-1 79 2c30 3 96 29 68 69-16 23-50 30-77 33-16 2-44 1-61 1l-104 1h-114q-41 2-84-3c-31-5-92-33-60-72 18-22 53-27 79-30m-11-258c10-2 35-1 47-1h221q42-1 83 2c105 14 95 82-7 92q-62 3-125 1c-79-2-167 4-246-4-55-5-94-58-20-82 16-5 29-7 47-8m-490 260c36-6 157-4 193 2 97 15 98 85-10 102-21 3-55 2-80 2-47-1-164 12-182-48-11-38 49-54 79-58m1158-2c11-2 62-2 74-2 55 2 123-9 171 22 8 5 18 14 19 24 3 43-53 54-83 59-14 1-41 3-59 1-52-4-182 18-202-48-11-35 51-52 80-56m-8-258 2-1h156q47-1 84 22c7 5 15 13 15 22 1 40-55 48-85 51-43 3-93-1-137 0-32 2-110-2-119-43-8-37 61-49 84-51m-1122 0c38 0 122-5 155 2 129 26 73 91-29 93-56 1-181 11-223-21q-13-7-15-22-1-15 9-27c19-22 76-25 103-25"/>
  <path fill="#3e3d3c" d="m2425 3331 564-1-26 448-9 142-7 86c-4 37-50 54-83 57q-65 6-131 6l-243 5q-471 15-943 6-191-3-383-9c-41 0-91-3-126-28-19-14-17-76-19-99q-3-56-9-113l-14-184c-6-78-16-155-18-233l-5-81z"/>
  <path fill="#010101" d="M2041 3683c32 0 207-12 208 45 2 62-121 56-166 56h-142c-48 0-167 9-193-21-82-93 158-79 174-79zm14 234c40 1 197-16 200 42-11 39-118 34-150 35h-146c-19 0-210 11-210-34-1-48 111-42 149-42zm418-234c8-2 61-2 71-1 47 1 95-4 142 2 20 3 63 20 65 44 3 35-52 48-79 51-34 6-169 2-208 0-84-4-106-82 9-96m-1158 8 147-1c34-1 62 1 94 15 22 10 38 33 20 55-16 20-51 27-76 28l-120 1c-36 0-104 3-131-20-61-51 30-75 66-78m1172 226c56-2 114 1 171-1 9 0 23 0 32 2 104 20 63 71-21 74l-129 1q-43 2-86-3c-21-3-77-19-48-49 20-20 54-23 81-24m-1153 6c67-3 144-2 212 1 22 1 79 23 49 51-19 19-59 21-83 21-53 0-211 13-249-16q-10-7-12-19 0-7 5-13c19-21 52-23 78-25"/>
  <path fill="#3e3d3c" d="M3476 3313h5c-4 3-60 28-72 35-42 23-87 48-120 84-15 18-23 40-38 55q-11 11-26 15c-26 6-69 4-97 4l-122 1-4-1-2-3c2-50 8-125 8-173 112 0 227 2 339-3 39-1 89-9 129-14m-2993 3 68 9q44 5 88 7c43 2 91 1 134 1h181c2 61 6 115 11 175-48 0-185 8-222-4-30-10-38-32-55-56q-12-15-27-27-57-48-125-80-27-11-53-25M3018 719c46-2 140-5 184 6 14 4 41 44 54 58q15 18 35 34c53 42 107 64 168 89l-45-7c-62-9-142-7-204-7l-228 1c-1-58-8-117-8-174zM786 729l159-1q-3 86-3 171l-310 1c-48 0-111 8-158 14 60-20 144-68 184-117 53-65 39-67 128-68m3207 773c44 0 63 4 75 51 13 52 13 117-14 165-18 17-44 14-67 13l-1-161 1-60c1-5 3-5 6-8m9 976c36 0 66-5 66 41v98c-1 22 5 66-10 82-18 9-38 7-58 7l-1-111zm-60-65c28 5 41 16 40 46-2 92 1 184-1 276 0 4-8 12-10 14-12 7-16 8-29 13zm1-964c36 9 28 37 27 66q-4 121-2 241 0 7-5 12c-8 7-13 9-22 14v-53q-1-141 2-280"/>
</svg>
