<svg xmlns="http://www.w3.org/2000/svg" width="4096" height="2262" preserveAspectRatio="none" style="display:block" viewBox="0 0 2262 2262">
  <defs>
    <linearGradient id="b" x1="281.3" x2="318" y1="593.6" y2="575.2" gradientUnits="userSpaceOnUse">
      <stop class="stop0" offset="0" stop-color="#cffce0"/>
      <stop class="stop1" offset="1" stop-color="#e7fff7"/>
    </linearGradient>
    <linearGradient id="a" x1="1827.8" x2="1778.5" y1="1416.4" y2="1417.1" gradientUnits="userSpaceOnUse">
      <stop class="stop0" offset="0" stop-color="#000d00"/>
      <stop class="stop1" offset="1" stop-color="#001d03"/>
    </linearGradient>
  </defs>
  <path fill="#020401" d="M32 0h2230v2259l-56 1H585q-277-1-554 0c-2-14-1-48-1-64v-610c0-9 1-39-1-46-10-7-23 8-29-20V793c5-23 10-17 28-20 4-4 2-64 2-75V64c0-13-1-54 2-64m3 775c14 0 40 1 54-2l2-4 1 5h61c10 4 25 0 33 4l1 2-7 3H77c-13 0-58-1-68 2-5 9-4 46-3 58v385q-1 111 0 221c-1 18-3 61 3 78 0 2 42 2 49 2h302l22-1c5-9 3-47 3-59l2 6 3 1v29c0 23 2 33-25 33l-30-1-1-1c-12 0-62-5-70 1h-75l-4 14-1-3v-9c-7-2-77-1-90-1 4 13 7 25 20 33q-1 3-6 4c-12-11-15-22-18-38H35v715h701l1521-1V9h-787L35 8z"/>
  <path fill="#287147" d="m35 8 1435 1h787v2242l-1521 1H35v-715h55c3 16 6 27 18 38q4 0 6-4c-13-8-16-20-20-33 13 0 83-1 90 1v9l1 3 4-14h75c8-6 58-1 70-1l1 1 30 1c27 0 25-10 25-33v-29l-3-1-2-6c0 12 2 50-3 59l-22 1H58c-7 0-49 0-49-2-6-17-4-60-3-78q-1-110 0-221V843c-1-12-2-49 3-58 10-3 55-2 68-2h103l7-3-1-2c-8-4-23 0-33-4H92l-1-5-2 4c-14 3-40 2-54 2zm4 6c-3 78-1 162-1 241v513c4 0 44 0 48-2 2-1 6-15 7-17 7-32 50-18 57-25 4 3 3 3 7 3l4-2c10 3 28 22 28 34q-1 4 2 7c9 4 104 3 112 0q6-6 8-14c11-30 23-22 47-24 43-3 52 28 53 64q1 30-18 56-2 304-1 608c1 14 9 19 14 30q6 22 5 44c1 15-5 32-16 43-14 15-44 9-63 10-8-5-11-7-16-16-2-3-9-23-11-23q-54-2-109 0c-8 0-14 38-35 41-16 2-36 2-52-3s-19-40-25-42l2 2c-3 2-39 1-47 2l-1 486v135c0 19-1 61 2 80l63 1 23-1c29 4 101-2 128 0 37 4 337-3 347 2l-28 1h25c10 0 15-4 26-1l-3 1h68c-7-2-61 2-63-1 3-2 117-2 124 0l-7 1h13l-1-1c1-1 195-2 207 0l-24 1h103c-9 0-70 1-74-1 4-2 79-1 89 0h-2l13 1-1-1c10 1 103 2 105 1l-47-1-1-1-2 1h2l1-1q50-2 99 1c5 0 21-3 24 0l-72 1h85l-1-1h-11l1-1h15l-2 2v1c5 1 16 0 21-1l-6-1v-1h203c16 0 38-1 54 1l-14 1h30l-8-1q41-2 81 0h21l-9 1h27l-15-1c15-2 194-2 197 0h-25v1h27c6 0 9-3 17-3q164 2 328 1c9 0 55 1 60-1l2-3c2-94-1-257 1-344l1 21v-138c0-28 1-61-1-88v2V59l1-41c-11-9-74 0-78-5h3l-1-2-13 1 6 2h-87 1q-283 2-566-1l-825 1q-329-3-656 0"/>
  <path fill="#c4c4c4" d="M309 775c6-29 12-47 46-44q12-1 22 1c33 8 35 59 27 85q-5 14-14 26v525c-4 5-1 31-4 41l-1 60c0 12 2 50-3 59l-22 1H58c-7 0-49 0-49-2-6-17-4-60-3-78q-1-110 0-221V843c-1-12-2-49 3-58 10-3 55-2 68-2h223q5-1 8-4v-1c-11-5-24-1-33-3z"/>
  <path fill="#020401" d="M309 775c6-29 12-47 46-44q12-1 22 1c33 8 35 59 27 85q-5 14-14 26v525c-4 5-1 31-4 41l-2-2c-14 0-35 2-49-2-4-1-7-17-7-21q-1-57 1-115c0-5 6-22 14-20 18 6 12 66 12 81h30V982h-30c0 14 6 80-13 80-15 1-14-24-14-35v-71c0-60-2-52 57-50l-4-121c-7-3-68-2-81-2q5-1 8-4v-1c-11-5-24-1-33-3z"/>
  <path fill="#3b3c3b" d="M339 1258q4 0 7 2c8 8 4 66 5 80h34c0 11 2 50-2 58h-49l-1-9q-2-33-1-66c0-18-2-38 2-55q0-6 5-10M337 915h48v57h-35v49q2 14-1 26-1 5-6 7l-5-1q-4-3-5-8c-2-13-2-109 0-122z"/>
  <path fill="#c59c69" d="M333 740c14-1 37-3 49 2q14 7 18 21c6 18 5 45-3 61q-3 6-7 8v-3c0-14 3-41-6-51q-5-4-9-4-14-1-28 0h-34l2-6q3-18 18-28"/>
  <path fill="#cd9e5c" d="M343 745h38q8 8 14 17c5 11 8 30 4 41q-2 6-2 10 0 2-2 3h-1l-1-11v-2q1-11-3-21c-1-3-3-11-6-13-6-5-50 3-62-3l-1-5 5-6 1-3c3-5 11-6 16-7"/>
  <path fill="#969691" d="m384 1407 2 2-1 60c0 12 2 50-3 59l-22 1H58c-7 0-49 0-49-2-6-17-4-60-3-78 1 6 0 45 2 54 5-1 9 4 12 3 22 0 47 2 69-3l18-3c6 4 15 2 23 2l40 1 2 2q20 2 40-1c13-2 17 3 32-1 16-5 43-1 60 1 3 0 7 5 11 4 24 1 43-4 66-7 5-9 3-81 3-94M6 843c-1-12-2-49 3-58 10-3 55-2 68-2h223c13 0 74-1 81 2 5 6 4 27 3 34-5-7 7-9-11-12-18-2-38-6-55-4-9 0-17 9-26 5-9-3-17 6-25 2-9-5-26 0-35-2-33-6-57-5-91 0-20 3-48 1-69 2-16-1-48-4-62-10l-2 1zM274 1273q6-1 11 3c12 12 8 45 7 60q1 16-9 27-7 2-12-3-9-11-7-26c-1-18-4-47 10-61"/>
  <path fill="#f7fdfa" d="M275 1283q4-1 7 2 6 5 5 12c2 12 2 37-1 49l-5 7-6-1q-5-4-5-11c-2-11-2-40 1-51z"/>
  <path fill="#969691" d="M275 949q6-1 10 3c10 11 7 37 7 51 0 13 1 26-9 35l-6 1q-5-2-8-5c-8-12-7-53-4-67q1-11 10-18"/>
  <path fill="#f7fdfa" d="M275 958q4-1 7 2 6 8 6 18c0 14 2 40-7 50l-6-1q-5-5-6-14c-1-11-1-37 2-48z"/>
  <path fill="#c59c69" d="M390 1478c18 20 20 67-1 87-9 9-23 5-34 6-30 2-35-7-42-34h22l30 1c27 0 25-10 25-33z"/>
  <path fill="#cd9e5c" d="M395 1491c5 20 8 38 0 57q-3 11-13 15c-9 4-43 4-52 0l-10-17c9 0 57-3 65-6 12-11 4-34 9-48z"/>
  <path fill="#c59c69" d="M95 774c8-32 13-35 45-35 30 0 38 6 44 35H95"/>
  <path fill="#cd9e5c" d="M119 744h41l5 4q9 5 13 13l-3 6q-6 3-14 2c-11-1-44 2-52-3q-4-1-4-5 3-11 14-17"/>
  <path fill="#c59c69" d="M94 1538c13 0 83-1 90 1-6 18-13 34-34 33l-36-1c-13-8-16-20-20-33"/>
  <path fill="#cd9e5c" d="M122 1544c10-1 45-3 52 1q4 2 4 5-4 9-11 14l-3-1h-2l-5 2c-12 3-34 3-45-4q-6-3-8-10l2-5q8-4 16-2"/>
  <path fill="#041102" d="M91 769c10-42 29-40 69-36 18 1 25 26 29 41l86 1c9 2 22-2 33 3v1q-2 4-8 4H180l7-3-1-2c-8-4-23 0-33-4h31c-6-29-14-35-44-35-32 0-37 3-45 35h-3zM386 1409c3-10 0-36 4-41v100c21 28 28 77 0 105-10 9-38 5-51 5-19 0-28-25-30-41h-45c8-6 58-1 70-1l1 1h-22c7 27 12 36 42 34 11-1 25 3 34-6 21-20 19-67 1-87v-2l-3-1-2-6zM184 1539v9l1 3q-8 29-39 29c-12-1-28 1-38-5q4 0 6-4l36 1c21 1 28-15 34-33"/>
  <path fill="#177a44" d="m2166 12 13-1 1 2h-3c4 5 67-4 78 5l-1 41v1636-2c2 27 1 60 1 88v138l-1-21c-2 87 1 250-1 344l-2 3c-5 2-51 1-60 1q-164 1-328-1c-8 0-11 3-17 3h-27v-1h25c-3-2-182-2-197 0l15 1h-27l9-1h-21q-40-2-81 0l8 1h-30l14-1c-16-2-38-1-54-1h-203v1l6 1c-5 1-16 2-21 1v-1l2-2h-15l-1 1h11l1 1h-85l72-1c-3-3-19 0-24 0q-49-3-99-1l-1 1h-2l2-1 1 1 47 1c-2 1-95 0-105-1l1 1-13-1h2c-10-1-85-2-89 0 4 2 65 1 74 1H938l24-1c-12-2-206-1-207 0l1 1h-13l7-1c-7-2-121-2-124 0 2 3 56-1 63 1h-68l3-1c-11-3-16 1-26 1h-25l28-1c-10-5-310 2-347-2-27-2-99 4-128 0l-23 1-63-1c-3-19-2-61-2-80v-135l1-486c8-1 44 0 47-2l-2-2c6 2 9 37 25 42q26 7 52 3c21-3 27-41 35-41q55-2 109 0c2 0 9 20 11 23 5 9 8 11 16 16 19-1 49 5 63-10 11-11 17-28 16-43q1-22-5-44c-5-11-13-16-14-30q-1-304 1-608 19-26 18-56c-1-36-10-67-53-64-24 2-36-6-47 24q-2 9-8 14c-8 3-103 4-112 0q-3-3-2-7c0-12-18-31-28-34l-4 2c-4 0-3 0-7-3-7 7-50-7-57 25-1 2-5 16-7 17-4 2-44 2-48 2V255c0-79-2-163 1-241q327-3 656 0l825-1q283 3 566 1h-1 87zm-6 61c-68 27-58 200 13 196 60-22 61-135 26-179q-9-11-22-17zM270 247c5 10 59 4 71 4l217 1 1197-1 188 1c10 0 66 1 73-1 5-26 2-59 1-85V85c0-11 2-35-1-45l-2-4-1-2q-37-3-73-1l-17-2a632 632 0 0 0-88 3q-6-1-11-3l-27 1-40-1-95 1q-122 0-245-1l-224 1-88 1v-1h16c-6-4-139 3-157-2-6-2-16 6-26 3h-18c-5-5-5-3-13-3q-71 2-143 2l-40-1c-18 0-47 7-64-1h-1l3 2c-6 2-13-1-19-1q-48 2-96 1l-53-1c-14 0-95 0-103 6H268c0 24-1 206 2 210m1650 1763c-7-1-118-2-122 0l11 1c-19 4-48-8-69-1v1l5 1c-12-1-36-2-45 0h-2l3-1-19-2 5 2v1l-166-4-45 2q-31-1-63 1c-7 1-18-3-20-1l-1 2q-13-1-27-1l13-1v-1c-3-2-161 2-181 1-19-2-71-2-90 1h9-21l9-1h-38c-7 0-18 2-24 1l8-1-91-1c-87-1-174 2-261-1-33-1-68 3-102 3h3c-21 1-45-4-68-3-10 0-15 3-24 4h-18l-2 3c-2 6-1 54-1 64v146l935-1h403l192 1v-211c-3-8-35-5-43-5-6 0-25-1-30 1-5-1-17-2-23 0"/>
  <path fill="#041102" d="m596 373-3-1v-2l78-2 721 1h348c8 0 13-4 17 3v1494c0 10 1 65-2 72-5 5-32 2-39 2h-482l-25 2c-112 1-223-2-334 1l-26-2q-95 4-188 0c-12 0-62 3-70-1-5-9-2-191-2-219l1-688V810l-1-64v-41 5q0-31-1-60l1-177c0-14-1-93 3-100z"/>
  <path fill="#287147" d="m596 373-3-1v-2l78-2 721 1h348c8 0 13-4 17 3v1494c0 10 1 65-2 72-5 5-32 2-39 2h-482l-25 2c-112 1-223-2-334 1l-26-2q-95 4-188 0c-12 0-62 3-70-1-5-9-2-191-2-219l1-688V810l-1-64v-41 5q0-31-1-60l1-177c0-14-1-93 3-100v1564l1162-1q1-297 1-594l-1-968-768-1H596"/>
  <path fill="#287147" d="M1592 381h159v1548H758l-162-1V381h996"/>
  <path fill="#177a44" d="M632 386c8-2 53 1 65 1h221l612-1h155c18 0 43-2 60 0l2 4c2 21-1 42 0 62v1099l-1 252 1 78-1 35q1 3-2 5-4-1-8 1h-2q-54 0-109 1H766l-43-1-82 2q-21 1-42-2v-16l1 1q1-23-1-46V806q1-22 1-45v4q-2-26 0-53l-1-87V397q0-5 3-8c5-6 22-3 30-3"/>
  <path fill="#287147" d="M1037 408q17 0 33 1h65l466 1 74-1c13 0 27-2 40 2q9 4 14 13 7 14 6 30v601l1 139c0 27 3 60-4 86q0 4-3 7c-3 3-11 11-16 13-9 3-44-1-56-1l-48 1h-23c-8 1-10 10-11 17q-2 25-1 49l1 87-1 285v70q2 28 0 56c-1 9-4 22-11 28q-5 6-13 8c-20 3-41 0-60 0l-131 1q-35-1-72 0h-5c-19-2-47 0-66 0l-92-1H856l-173-1h-47c-6 0-15-4-17-10q0-3-2-6l1 2-3-1q-4-14-3-28-2-42-1-84v-99l1-305-1-290v-82l-1-31c1-9 8-26 14-32 5-5 13 0 19 0l-2-1 1-2q24 2 49 0 45 2 92 0 11-1 23 3l3-3h31q35-1 69 1l-3-1h40q12 2 21-6c5-5 6-15 6-21 1-24-1-53-1-77l1-147V446c0-6 4-20 8-26 13-17 37-9 55-12z"/>
  <path fill="#041102" d="m994 415 159-1 308 1 165-1q42-2 83 1 9 1 14 7 8 12 9 26v781q1 20-1 38c-1 7-4 17-10 22-20 14-125-4-141 9q-7 7-8 16-2 23-1 47v451q1 29-2 58-2 15-14 23c-20 3-44 1-64 1H630l-5-5q-10-13-10-30l-1-48 1-72v-233l-1-351q-1-89 1-179c0-16 2-29 14-40q61-2 121-1h212q9-5 12-15c5-18 2-66 2-86V574q-1-61 0-122l4-23q4-10 14-14"/>
  <path fill="#969691" d="M1693 422h2c9 0 18-1 25 7 7 6 7 16 8 25l-1 170 1 347-1 195q1 47 0 93c0 7-2 18-8 23q-4 3-10 3-17 2-34 1l-79-1q-19-1-26 17c-6 18-3 96-3 119v386q1 27-1 55-1 12-8 20-6 6-16 4-50 2-100 1H657c-9 0-24 2-31-5-7-8-7-24-7-34V969q1-14 9-23c12-5 68-2 85-2h239q18 2 24-15c9-21 5-81 5-107V485q-2-21 0-42 3-12 11-20h220z"/>
  <path fill="#f7fdfa" d="M668 1073h364v611l-1 69H661v-678l1-2z"/>
  <path fill="#020401" d="M807 1117h16v28h16c0 7-1 26 1 32h13v-31h16v-29h16v84h-16v28l16-1v114h-16v28h31v28h-31v57h-31v-28h-46v-57h-16v28h-15v29h-15v28h61v28h16v56h31v29h31v56h-16v-28h-16v-28h-30v28h-16v28h16v28c-7 0-44 1-48-1l-2-5-6-2-5 8c-3 2-12 1-16 1v-58l15 1v28h31v-28h-16v-57h-15v29h-62v-29h15v-28h-30v-28h30v-28h-15v-57h15v-28h-30v-29l46 1v56h16v-28h16v-28h46l-1-57h16v-28h15v-28l-15-1v-27h-16z"/>
  <path fill="#f7fdfa" d="M746 1483h61v56h-15v-27h-31v16q1 5-1 9-7 3-14 1zM854 1286h15v56h-15zM823 1285l16 1-1 28h-15zM730 1398v29h-15v-28zM869 1427v28h-15v-28z"/>
  <path fill="#3b3c3b" d="M853 1177q1 10-1 18c-3 2-11 2-11-2-2-5 1-9-1-16z"/>
  <path fill="#f7fdfa" d="M807 1370h32v28h-32zM854 1370h15v28h-15z"/>
  <path fill="#020401" d="M900 1511h108v197c-34 2-73 0-108 0z"/>
  <path fill="#f7fdfa" d="M916 1539h76v141h-76z"/>
  <path fill="#020401" d="M931 1568h46v84h-46zM900 1117h108v195c-9 2-93 0-108 0z"/>
  <path fill="#f7fdfa" d="M916 1145h76c0 16 1 136-2 140h-74z"/>
  <path fill="#020401" d="M931 1173h46v84h-46zM684 1117h108v131q2 33-1 65H684z"/>
  <path fill="#f7fdfa" d="M714 1145h62v140h-77l1-140z"/>
  <path fill="#020401" d="M715 1173h46v84h-46zM931 1342h31v28h46v113h-16v-28h-15v-28h15v-28h-30v57l-15-1v28h-93v-28h15v-57h78v-28h-16z"/>
  <path fill="#f7fdfa" d="M869 1398h31v29h-31zM900 1427h32v28h-32z"/>
  <path fill="#020401" d="M684 1596h16v27h30v85h-31v-28h16l-1-28h-30zM746 1680h31v28h-31zM900 1342l16-1v29h-16zM852 1679l1 1q3 13 0 27-6 2-13 1l-1-1q-2-14-1-28zM854 1624h15v28l-15 1zM808 1229h15v28h-16zM854 1511h15v29l-15-1zM838 1596h15l1 27-16 1zM823 1680v28h-15l-1-28zM823 1652h15v27l-15 1z"/>
  <path fill="#f7fdfa" d="M1533 757h140v167h-16V791h-43v117h-17V791h-64zM1533 559h140v35h-123c-2 8 0 104 0 122h-17zM1225 1118h81v30q-35 19-68 41 35 20 68 42v26h-81v-19c20 0 44 1 64-1l-6-1 3-2-61-38v-17c17-11 54-35 70-43-16 2-52 1-70 1z"/>
  <path fill="#8a8a87" d="m1286 1234 4 2-1 1-6-1z"/>
  <path fill="#f7fdfa" d="m1225 566 81 1v29l-69 41q35 20 69 42v27l-61-1h-20v-19h69c-24-11-46-28-69-41v-18l69-42-69 1zM1249 1392q9-1 16 2 13 7 17 21 8 26-4 50h28v19h-81q-1-9 1-16l4-1c1-3-3-10-5-13-4-13-1-34 5-46q6-12 19-16"/>
  <path fill="#969691" d="M1252 1411q7-1 12 2 9 5 11 16 5 14-4 29-5 7-15 9-7 0-12-3-9-5-12-15-3-15 4-28 6-9 16-10"/>
  <path fill="#f7fdfa" d="M1404 1073h15q17 1 27 13c10 13 12 35 10 51-1 7-7 24-14 27q-2 2-5 1c-2-4-1-13-1-17q7-4 10-12 6-13-1-28-5-13-20-18h-6l-1 1 6 10c5 14 5 35-1 49q-4 12-16 18-8 2-14-2-13-7-17-23c-4-16-3-38 5-53q9-14 23-17"/>
  <path fill="#969691" d="M1396 1094h8q7 1 10 8 8 14 4 29-2 13-13 18h-5q-8 0-13-7-7-12-5-25 3-15 14-23"/>
  <path fill="#f7fdfa" d="M1248 1280q8 0 15 2 13 6 17 19c7 17 7 43-1 59q-6 13-19 17-7 2-15-1-12-5-16-17c-8-17-8-43 0-60q5-13 19-19"/>
  <path fill="#969691" d="M1248 1299h10q8 2 14 9 7 15 4 31-2 13-14 19h-14q-8-3-13-12-7-15-2-30 4-12 15-17"/>
  <path fill="#f7fdfa" d="M1375 708c25 15 56 37 81 54v22l-48 35-33 23v-21l24-17 1-60-25-15z"/>
  <path fill="#969691" d="m1408 750 38 23-13 8-25 17z"/>
  <path fill="#f7fdfa" d="M1411 562h8q14 3 23 13c16 19 17 52 14 75-1 14-6 32-17 41h-5q-4-8-3-15 9-5 13-15c7-16 6-40 0-56q-6-14-20-21-9-5-19 0-15 9-19 26-7 34 5 67h15q-1-20 1-41 0-2 3-3l3 1c6 7 3 51 3 62h-30l-6-17c-8-29-10-70 5-97q9-15 26-20M1103 1412q19-2 36 4 12 6 16 18 3 11-3 21-10 14-27 16c-13 1-29 1-40-6q-11-7-13-19-1-12 5-22 11-11 26-12"/>
  <path fill="#969691" d="M1099 1424q19-3 37 3 9 3 11 12 2 5-1 10-7 8-17 10-21 4-39-4-9-4-11-12-1-4 1-7 7-10 19-12"/>
  <path fill="#f7fdfa" d="M1105 1484q21-3 38 7 11 7 12 19 3 11-5 21-11 11-28 12-20 3-38-6a28 28 0 0 1-7-39q11-14 28-14"/>
  <path fill="#969691" d="M1103 1496q19-3 36 5 8 5 9 12 1 4-2 9-9 9-22 10-17 2-33-4-8-4-12-12 0-6 2-9 9-11 22-11"/>
  <path fill="#f7fdfa" d="M1103 1340q21-3 38 5 11 6 14 18 3 11-4 21-9 13-25 15c-13 1-28 2-41-6q-10-6-13-19-2-11 4-20 11-12 27-14"/>
  <path fill="#969691" d="M1099 1352q19-3 37 3 8 3 12 12 1 5-2 9c-3 7-12 10-19 11q-17 3-35-2-8-4-12-12-2-6 1-10 8-8 18-11"/>
  <path fill="#f7fdfa" d="M1109 630c11-1 25 0 34 7a28 28 0 0 1 6 40c-7 10-18 11-29 13q-21 1-37-8a28 28 0 0 1-5-41c9-9 20-10 31-11"/>
  <path fill="#969691" d="M1100 642q20-3 38 4 7 5 10 12 1 5-2 9-7 9-19 11-16 2-32-2-10-3-15-13v-9q8-10 20-12"/>
  <path fill="#f7fdfa" d="m1096 950 9 2q9 4 12 15l5-8q5-5 12-5 8 0 12 5 9 8 9 21 1 13-7 21-8 7-18 6l-8-4-4-5-3 1q-4 10-13 12-10 2-18-3-9-9-11-20-3-16 6-28 6-9 17-10"/>
  <path fill="#969691" d="m1095 962 7 1q7 3 10 11t-1 16-13 10l-9-2q-6-3-8-11-3-8 2-17 4-6 12-8M1130 966h5q6 1 9 5 4 6 3 12-1 8-9 13h-6q-5-2-8-6-4-5-3-12 2-7 9-12"/>
  <path fill="#f7fdfa" d="M1093 787h9q7 2 10 8l2 3q1 3 4 3l3-3q3-6 11-7 7-1 14 4 8 6 9 17 2 14-7 25-6 7-16 7c-8-3-10-6-14-12q-5 9-14 14-8 3-15 0-11-5-15-16-5-15 2-30 6-10 17-13"/>
  <path fill="#969691" d="M1092 799h8q8 2 11 8 4 8 2 15-3 9-12 14l-8-1q-7-2-10-8a20 20 0 0 1 9-28M1129 803h5q6 0 10 4 3 4 3 10 0 9-7 14l-8 1-8-5q-3-5-3-11 1-8 8-13"/>
  <path fill="#f7fdfa" d="M1246 729h13q12 4 18 14c9 16 10 39 5 56q-3 15-16 23-6 4-13 2c-3-5-1-67-1-77q-9 1-13 7-9 12-8 28 1 15 13 24l-2 20q-6-5-11-12a83 83 0 0 1-5-60q5-17 20-25"/>
  <path fill="#969691" d="m1260 748 3 1q9 5 12 15 5 19-4 36l-3 2q-3 4-7 3c-3-16-1-40-1-57"/>
  <path fill="#f7fdfa" d="m1246 1665 12-1q12 4 18 13c10 14 11 37 7 53q-3 17-16 27-6 4-14 3l-1-2c-2-4 0-66 0-75q-8 1-13 6-9 13-8 27 1 16 13 26l-2 19q-7-6-12-15c-9-17-9-43-2-60q5-15 18-21"/>
  <path fill="#969691" d="m1260 1683 2 1q10 5 12 14 7 20-3 38-4 3-9 5l-1-1q-3-28-1-57"/>
  <path fill="#f7fdfa" d="M1393 960q2-1 3 2 2 8 1 17-10 4-14 15-4 15 2 30 4 8 13 12 6 2 11-1 9-7 10-18 4-20-6-36v-18l42 14v70l-1 2-8-1c-3-16 0-40 0-57l-21-7 4 26c0 13-2 29-12 39q-7 7-16 7-9-1-16-9c-11-13-13-35-11-52q2-21 19-35M1375 1183c28 9 31 62 55 75q3 3 8 1t8-9c4-10 4-24-1-34q-4-8-12-10l-1-1 1-18q9 3 15 10c11 16 9 40 6 59q-2 12-12 21-4 3-10 1c-19-4-35-53-46-68l-1-2v64q0 4-2 7-4 1-7-2-2-16-1-32zM1225 948h81v18h-29q7 14 8 29c0 11-1 26-9 34q-6 5-13 4l-38 1v-19c10 0 37 4 45-2q7-7 6-17 1-13-6-24c-9-10-33-6-45-6zM1074 695l81 35v14l-43 20-38 17v-14l24-10 1-38-25-10z"/>
  <path fill="#969691" d="m1107 723 37 14-9 4-28 12z"/>
  <path fill="#f7fdfa" d="M1241 839c3 4 3 13 3 18l-2 1q-7 4-10 14c-2 8-2 25 3 32q2 4 6 4c13-8 6-50 21-64l6-2q7 1 10 7c9 13 8 38 5 52q-1 13-12 22l-2-1c-2-4-2-12-1-16q4-3 6-7c4-7 3-27 0-34q-1-4-5-5c-13 8-7 51-19 64q-3 3-9 3-6-2-11-8c-8-13-8-42-5-57q4-15 16-23M1241 1511h43l-1 19c-10-1-38-4-46 3q-5 8-5 17c0 8 2 19 8 25 7 6 23 4 32 4q6-2 10 1 3 8 2 17h-59v-16l6-1c1-3-3-8-4-11-5-13-5-32 0-44q4-11 14-14M1141 1260h14c0 10 2 60-2 66h-4q-3-3-3-5c-2-12 0-36 0-49h-26v42q1 5-2 8-4 1-6-1-2-9-1-20v-29h-28c0 12 3 47-2 55q-2 3-5 1c-5-6-2-57-2-68zM1448 832l7 1 1 6c0 11 2 102-1 106l-1 2-6-1c-4-5-1-38-1-47h-72v-19h72c0-8-2-43 1-48M1093 1695c7 0 9 1 15 5 9 7 46 33 47 43l-2 4h-51v9q-2 3-5 4l-2-2q-2-5-2-11h-12q-5 0-9-5l1-2q8-6 20-4z"/>
  <path fill="#969691" d="M1102 1708c13 6 26 19 37 28h-37z"/>
  <path fill="#f7fdfa" d="M1093 1552h2l6 1c9 4 42 31 49 38q5 4 5 10c-5 4-24 2-30 2q-11-1-20 1-2 0-3 2 1 4-1 9l-6 1q-2-5-2-11c-3-3-12-1-16-2q-4 0-5-4l2-6q9-2 19-1z"/>
  <path fill="#969691" d="M1102 1564q19 13 37 29l-37-1z"/>
  <path fill="#f7fdfa" d="M1112 860q12-1 22 4 15 7 20 23 6 19-3 37-6 10-18 14l-1-1-1-8q3-6 8-8 8-8 9-18 0-12-8-21-11-10-26-10-8 0-15 3-12 5-17 16c-3 9-2 22 6 29 4 4 11 6 13 11l-1 6q-1 3-3 2l-10-5q-12-10-15-27-1-18 9-33 13-14 31-14M1074 556c21 4 31 32 47 44q7 6 16 5l7-5c2-5 6-10 4-16-2-7-10-10-15-14q-2-4-2-10l7-1q6 1 10 7 10 15 6 32-2 8-8 14-4 6-11 6c-22 0-37-31-51-45l-1-1c-1 13 4 32-2 44q-2 3-6 1c-4-6-1-51-1-61M1144 1105h11c0 17 3 46-1 61l-3 1q-3 2-5-1v-48h-26v37q1 4-3 7l-3-1c-6-6-3-35-3-43h-29q-5 0-8-4v-7c9-4 57-2 70-2M1138 1028l17-1c0 17 3 47-1 61q-3 3-7 2c-3-5-1-42-1-50h-26v32q1 6-2 11l-6-1q-2-22-1-42h-36l-1-2 1-9c10-4 49-1 63-1M1074 1183h81c0 14 3 54-3 63l-3 1-3-3c-2-4 0-27 0-33v-16h-26c0 13 3 31-1 43l-5-1c-6-9-3-31-3-42q-18 1-36 0-2-6-1-12M1225 1624h81v18h-81zM1145 1628h4q3-1 5 2c1 9 2 50 0 57h-8l-16-13q-19-14-43-19-8 0-13-4v-8l2-1c23-2 52 17 69 31z"/>
  <path fill="#041102" d="M1949 908c7 12-2 67 4 77h4c8-6-5-68 6-83 5-2 14 3 20 1 31-12 9 78 19 81 13-7-2-66 10-80 6-2 30-5 32 3 6 14-2 68 6 77h2c5-5 0-65 5-79 4-4 28-4 33 0 6 14-1 71 6 80h2c5-5 2-60 4-73v1l1-1q-1-5 3-7c4-2 22-4 26-3 16 7 3 78 11 83 6-2 5 0 8-5l-3-2 1 1-1-1c1-12 1-60 4-65v-6l-1-2c5-3 29-4 33 0 5 10 4 67 3 82 10 0 27-2 34 2 4 4 2 36 2 44v400c1 37-1 78 1 114l-1 188v111c-14 2-22 1-36 2 1 13 3 79-3 86l-28 1-4-3c-10-15 3-74-6-83-15 6 8 78-13 85-1 1-24-1-25-1-14-12-2-66-10-84-14 1 4 81-14 84h-24c-10-9-2-65-6-80q-1-4-4-5c-6 8 0 71-7 84l-6 2c-9 0-19 2-26-3-8-15 1-78-9-83-6 9 1 68-6 79l-1 1-1 5c-3 2-22 1-28 1-11-8-6-49-7-61 0-9 6-20-6-25l-1-1h7l1-2-9 1v62c0 4 1 16-1 19-4 9-24 9-31 5-6-3-6-15-3-19v-36q1 10-2 19c-2-11 0-40-2-47-4-1-2-1-7 1-4 7 5 75-6 83-9 0-22 1-30-1-12-10 2-79-9-83l-2 2c-4 7-2 12-2 21v-1c1 13 3 48 0 59-6 7-24 7-32 4-8-4-5-19-6-25 0-17 3-40-1-57-8-7-28 1-36-6-2-12 0-45 0-60v-121l-1-381q2-143 0-287c0-17 25-11 34-12 10-8 0-65 6-78 6-11 26-6 34-1 6 20 2 53 3 74l3 4c12-6-5-74 11-81 3-2 25-1 29 2 8 10 5 36 4 49v-1c-1 7-5 31 3 34l3-1c7-13-2-59 2-75 3-12 23-10 32-8 4 1 3 2 5 5"/>
  <path fill="#177a44" d="m2090 998 14 1c2 7 4 17 12 20 14 8 20-11 21-20h15c6 30 28 30 33 0l32-1v838h-33c-5-29-26-29-32 0h-15c-6-29-25-29-32 0h-15c-7-31-22-31-33-1l-14 1c-6-29-25-28-33 0h-14c-8-29-26-29-33 0h-15c-6-29-25-29-33 0h-15c-5-25-23-30-31-5l-1 5h-15c-7-31-26-28-32 1h-33v-733l-1-105h31q4 0 4 3c12 33 25 22 31-3h15c8 30 28 28 32-1l16 1c7 30 24 29 33 0h14c5 29 25 30 33 0h15c6 30 27 29 32-1l15 1q0 6 3 12v1c15 20 25 4 29-14"/>
  <path fill="#287147" d="m2090 998 14 1c2 7 4 17 12 20 14 8 20-11 21-20h15c6 30 28 30 33 0l32-1v838h-33c-5-29-26-29-32 0h-15c-6-29-25-29-32 0h-15c-7-31-22-31-33-1l-14 1c-6-29-25-28-33 0h-14c-8-29-26-29-33 0h-15c-6-29-25-29-33 0h-15c-5-25-23-30-31-5l-1 5h-15c-7-31-26-28-32 1h-33v-733l-1-105h31q4 0 4 3c12 33 25 22 31-3h15c8 30 28 28 32-1l16 1c7 30 24 29 33 0h14c5 29 25 30 33 0h15c6 30 27 29 32-1l15 1q0 6 3 12h-3c-4-5-3-6-8-6-9 4-10 26-27 21-9-3-10-22-23-21-6 8-7 17-16 22-29-1-14-26-32-22-8 6-10 24-20 22-14-1-13-25-28-23-7 9-5 18-20 24-9-1-13-18-21-25-4 0-2 0-6 2-5 7-11 19-19 19-6 0-4-3-12-2q-4-8-9-17c-13-2-28-6-27 12l1 207-1 464v140c4 6 22 4 30 4 2-9 7-30 21-25 8 4 13 17 17 24l4 1c12-7 11-29 26-23 11 4 11 20 22 21 11-5 4-23 27-22 9 4 13 29 21 22 14-11 4-22 29-21l12 21 3 1c13-4 9-31 31-20 7 4 9 20 19 20 9-4 10-33 29-21 9 5 8 21 17 22 12-6 8-27 27-23 13 3 13 26 21 21 6-4 11-24 26-23 2 3 2 1 1 4l-10 1v1h12v-3c9 1 6 22 21 21q10 2 18-3v-824c-7 1-24-2-27 3-28 49-30-2-43-5-13 5-8 29-26 25-11-7-11-21-20-23-14 6-6 23-27 23-6-5-10-7-10-15 15 20 25 4 29-14"/>
  <path fill="#041102" d="M1818 1039q42-1 84-1l62-2 26-1h154c15 0 48-3 61 4 3 5 2 150 2 165v552c0 11 2 27-1 38q0 3-3 5c-8 5-131 3-148 3l-41-2c-6 0-15 3-21 1q4 1 7-1h-12l-1-1q-48 0-96 2c-10 0-27-4-35-1h20v1c-6 3-71 2-76-2v-2h1l-1-2c-3-3-2-30-2-36q-2-22-1-45v3c1-13-1-43-1-57l1-392-1-144 1-75q-1-6 3-10z"/>
  <path fill="#287147" d="M1818 1039q42-1 84-1l62-2 26-1h154c15 0 48-3 61 4 3 5 2 150 2 165v552c0 11 2 27-1 38q0 3-3 5c-8 5-131 3-148 3l-41-2c-6 0-15 3-21 1q4 1 7-1h-12l-1-1q-48 0-96 2c-10 0-27-4-35-1h20v1c-6 3-71 2-76-2v-2h1q68 1 136-1h266c2-23 1-62 1-86v-669q-63-2-126-1l-161-1zM1800 1795c-3-3-2-30-2-36q-2-22-1-45v3c1-13-1-43-1-57l1-392-1-144 1-75q-1-6 3-10v756"/>
  <path fill="#287147" d="M1804 1046h397v741l-1 2c-4 3-359 1-396 2v-745"/>
  <path fill="#177a44" d="M1866 1051q165-2 330 1 2 18 1 35v89l1 83-1 39v325l1 145-2 14c-11 5-108 0-129 1l-2 1-26 1-160-1q-35 0-71-1l-1-4v-42 6c3-29 0-59 0-88 0-42 3-84 0-126v11-19l1 2q2-40 1-80l-2-168v8-84 9q-1-35 0-71-2-39 1-78c2-14 48-1 58-8"/>
  <path fill="#287147" d="M1916 1877q1 10-2 19c-2-11 0-40-2-47-4-1-2-1-7 1-4 7 5 75-6 83-9 0-22 1-30-1-12-10 2-79-9-83l-2 2c-4 7-2 12-2 21v-1c1 13 3 48 0 59-6 7-24 7-32 4-8-4-5-19-6-25 0-17 3-40-1-57-8-7-28 1-36-6-2-12 0-45 0-60v-121l-1-381q2-143 0-287c0-17 25-11 34-12 10-8 0-65 6-78 6-11 26-6 34-1 6 20 2 53 3 74l3 4c12-6-5-74 11-81 3-2 25-1 29 2 8 10 5 36 4 49v-1c-1 7-5 31 3 34l3-1c7-13-2-59 2-75 3-12 23-10 32-8 4 1 3 2 5 5h-33v84h-16l1-84h-33v84h-15v-84h-32v52l1 32c1 4 1 3-1 6l-3 1h-31l1 105v733h33l1 4c-4 2-6 0-9 3q5-1 8 1c2 24 0 59 0 83h32v-85h15v85h33l-1-86h16z"/>
  <path fill="url(#a)" d="M1822 992c1 4 1 3-1 6l-3 1h-31l1 105v733h33l1 4c-4 2-6 0-9 3h-29V992z"/>
  <path fill="#287147" d="m2152 907-1-2c5-3 29-4 33 0 5 10 4 67 3 82 10 0 27-2 34 2 4 4 2 36 2 44v400c1 37-1 78 1 114l-1 188v111c-14 2-22 1-36 2 1 13 3 79-3 86l-28 1-4-3c-10-15 3-74-6-83-15 6 8 78-13 85-1 1-24-1-25-1-14-12-2-66-10-84-14 1 4 81-14 84h-24c-10-9-2-65-6-80q-1-4-4-5c-6 8 0 71-7 84l-6 2c-9 0-19 2-26-3-8-15 1-78-9-83-6 9 1 68-6 79l-1-85h16v87h32l-1-87 16 1v85h32v-85h15v85h32v-86h15v86l32 1v-86l37-1V992l-37-1v-83z"/>
  <path fill="#287147" d="M1949 908c7 12-2 67 4 77h4c8-6-5-68 6-83 5-2 14 3 20 1 31-12 9 78 19 81 13-7-2-66 10-80 6-2 30-5 32 3 6 14-2 68 6 77h2c5-5 0-65 5-79 4-4 28-4 33 0 6 14-1 71 6 80h2c5-5 2-60 4-73v1l1-1q-1-5 3-7c4-2 22-4 26-3 16 7 3 78 11 83 6-2 5 0 8-5l-3-2 1 1-1-1c1-12 1-60 4-65v78h-15v-83h-32v83l-15 1v-84h-32v84h-15v-84h-32v84h-16v-84h-31v84h-16c1-21-2-68 1-84M1948 1843h16v85h31l-1 5c-3 2-22 1-28 1-11-8-6-49-7-61 0-9 6-20-6-25l-1-1h7l1-2-9 1v62c0 4 1 16-1 19-4 9-24 9-31 5-6-3-6-15-3-19v16l32-1z"/>
  <path fill="#c59c69" d="M1976 1820q4 0 8 2 7 6 8 17v82l-1 1-5 1h-19q-1-41 0-81-1-12 9-22"/>
  <path fill="#cd9e5c" d="M1977 1825q3 1 7 3l5 10c2 6 0 17 0 24l1 51q-3 5-7 5-7 1-13-2v-31c0-15-3-33 0-48q1-7 7-12"/>
  <path fill="#c59c69" d="M1967 913h25c0 23 3 68-1 88q0 4-4 10l-7 4q-4 0-7-3-5-6-6-15l-1-30z"/>
  <path fill="#cd9e5c" d="M1975 917h4l8 1 3 4c4 12-1 71-6 83l-9 2v-2c-4-10-8-76-4-86z"/>
  <path fill="#c59c69" d="M2166 1820h2q5 1 8 5 5 6 5 14 2 23 0 48v34q-4 2-9 1l-16 1v-87q1-10 10-16"/>
  <path fill="#cd9e5c" d="M2162 1828h13c4 15 6 75 1 89l-2 1q-9 0-15-4c-2-14-2-75 3-86"/>
  <path fill="#c59c69" d="M2118 1820h3q6 1 8 5 4 7 5 15v53q0 14-1 28-4 2-10 2h-15v-52q-1-15 1-31 0-12 9-20"/>
  <path fill="#cd9e5c" d="M2117 1827zq5 0 9 3c4 8 6 73 4 83q-1 4-4 4l-14-3c0-21-5-59-1-78q2-6 5-9"/>
  <path fill="#c59c69" d="M2108 913h26c0 22 4 80-4 98q-4 3-9 4-4 0-7-3-5-8-5-15-2-15-1-30z"/>
  <path fill="#cd9e5c" d="m2116 918 15 1c1 20 2 63-1 81q-1 7-7 10h-2q-4-1-7-6c-5-8-4-74-2-85z"/>
  <path fill="#c59c69" d="M1929 1820q6 0 11 5 3 3 3 7c3 15 2 72 1 89q-4 3-8 2h-17v-56q-1-15 1-31 1-10 9-16"/>
  <path fill="#cd9e5c" d="m1934 1828 2 1 3 4c3 7 2 75 0 83h-16v1h2l3 1 2 1h1l-1-1 1 1h-1l-8-1c-2-6 0-16 0-22 0-21-4-46 5-66z"/>
  <path fill="#c59c69" d="M2071 1820h1q6 0 10 5 3 3 3 8c3 16 2 70 1 88q-3 3-7 2h-18c0-25-2-58 0-82q1-13 10-21"/>
  <path fill="#cd9e5c" d="M2072 1828h3l5 4 3 12c0 8 1 63-1 68l-6 5-8-1-2-2c-2-3 0-71 0-80z"/>
  <path fill="#c59c69" d="M2156 913h25c0 23 4 79-4 97q-4 4-9 5l-6-3q-5-7-6-15v-84"/>
  <path fill="#cd9e5c" d="m2163 921 7-1q4 0 7 2c3 11 3 64 1 76l-3 8q-4 2-8 1-5-2-6-5l-2-12c-1-9-2-62 1-68z"/>
  <path fill="#c59c69" d="M1834 1820q4-1 9 3t6 11c1 11 3 84-1 88l-4 1h-19l-1-78q0-15 10-25"/>
  <path fill="#cd9e5c" d="m1834 1827 6 2q5 5 5 12c1 12 5 64-1 73l-3 2q-7 1-11-3c-2-9-4-71 0-77zM2061 913h25c0 16 2 83-2 94-6 13-18 9-22-4-2-8-1-25-1-33z"/>
  <path fill="#c59c69" d="M2061 913h25c0 16 2 83-2 94-1-14 1-81-3-86q-8-2-14 0c-2 4-2 27-2 33l-1-9v21l-2 37c-2-8-1-25-1-33zM2023 1820q5 0 9 2 5 3 6 10c2 10 3 86 0 90l-5 1h-19v-80q0-13 9-23"/>
  <path fill="#cd9e5c" d="m2028 1828 3 2q3 4 4 10v31q2 15 2 30c0 9 0 12-6 18l-13-3v2l-1-1c-1-12-1-73 3-83q2-5 8-6"/>
  <path fill="#c59c69" d="M1882 1820q6 0 10 4l4 8q2 19 1 39v50q-3 2-7 1l-18 1v-86q2-11 10-17"/>
  <path fill="#cd9e5c" d="m1887 1828 4 5c4 9 5 73 2 83l-11 1q-4-1-5-4c-2-10-2-72 0-81q4-4 10-4"/>
  <path fill="#c59c69" d="M1919 913h25c1 21 4 81-3 97l-8 5q-4 0-7-3-6-6-6-14-2-15-1-31z"/>
  <path fill="#cd9e5c" d="M1925 918h2q8-2 13 3c5 15 2 63 1 81l-8 8-6-4c-7-9-7-70-6-82q1-5 4-6"/>
  <path fill="#c59c69" d="M2014 913h25v50q2 19-1 39 0 5-4 10l-7 3q-4 0-7-3-5-6-5-13-2-16-1-30z"/>
  <path fill="#cd9e5c" d="M2023 920h12q2 6 1 12c1 11 2 58 0 66q-2 6-7 11h-2q-5-2-8-6c-2-12-3-72 0-81q1-3 4-2M1825 913h25c0 24 4 80-5 98q-3 4-8 4-4 0-6-3-5-7-6-15v-84"/>
  <path fill="#c59c69" d="m1872 913 25 1c0 24 4 76-4 96l-7 5q-4 0-7-3c-4-3-6-11-7-16v-83"/>
  <path fill="#cd9e5c" d="M1877 919zl17-1c0 13 0 80-6 87l-3 3h-2l-5-5c-6-11-6-71-2-84"/>
  <path fill="#f7fdfa" d="M391 37c8-6 89-6 103-6l53 1q48 1 96-1c6 0 13 3 19 1l-3-2h1c17 8 46 1 64 1l40 1q72 1 143-2c8 0 8-2 13 3h18c10 3 20-5 26-3 18 5 151-2 157 2h-16v1l88-1 224-1q123 1 245 1l95-1 40 1 27-1q6 2 11 3l5-1c8-3 72-2 83-2l17 2q36-2 73 1l1 2 2 4c3 10 1 34 1 45v81c1 26 4 59-1 85-7 2-63 1-73 1l-188-1-1197 1-217-1c-12 0-66 6-71-4-3-4-2-186-2-210h123m754 200h430V46h-430zm435 0h430V47l-19-1c-137-1-274 2-411 0zm-440-42V46H710v191h21c40 2 90 0 130 0h279zM274 47v190h431V46l-114 1H274"/>
  <path fill="#287147" d="M2016 40c3 10 1 34 1 45v81c1 26 4 59-1 85-7 2-63 1-73 1l-188-1-1197 1-217-1c-12 0-66 6-71-4h1746V40M391 37c8-6 89-6 103-6l53 1q48 1 96-1c6 0 13 3 19 1l-3-2h1c17 8 46 1 64 1l40 1q72 1 143-2c8 0 8-2 13 3h18c10 3 20-5 26-3 18 5 151-2 157 2h-16v1l88-1 224-1q123 1 245 1l95-1 40 1 27-1q6 2 11 3l5-1c8-3 72-2 83-2l17 2q36-2 73 1l1 2c-9 2-95 0-109 0l-310 1H391"/>
  <path fill="#177a44" d="M1145 46h430v191h-430zm270 166c51-13 50-135-2-142-51 10-50 137 2 142m-102-1c48-28 37-148-15-140-52 27-34 154 15 140m-115 2c51-14 49-137-3-143-51 11-50 137 3 143m330 4c53-21 45-156-11-153-56 24-44 159 11 153"/>
  <path fill="#287147" d="M1145 46h34c-8 4-25 0-30 4l1 2c-3 8-1 28-1 37l-1 70-1 74c12 1 91-2 93 0l-4 2h42l-1-3 93 1c9 1 24-2 31-1l-4 3q42-2 86-2c11 1 82 4 88 0 5-11-1-46 4-50v54h-430z"/>
  <path fill="#287147" d="M1302 58c9 1 12-1 21 7 30 28 35 92 17 126-7 15-15 31-33 32-17 3-30-13-36-28-16-37-15-86 8-121q9-11 23-16m11 153c48-28 37-148-15-140-52 27-34 154 15 140"/>
  <path fill="#041102" d="M1300 64c56-3 65 130 10 154-53 7-67-129-10-154m13 147c48-28 37-148-15-140-52 27-34 154 15 140"/>
  <path fill="#c59c69" d="M1298 71c52-8 63 112 15 140-49 14-67-113-15-140m-16 86c-2 16 9 36 28 31 6-6 13-6 15-18v-5c6-22 6-39-6-60-1-18-39-12-36 17-2 14-2 20-1 35"/>
  <path fill="#cd9e5c" d="M1301 75c21 3 29 15 34 35 7 29 8 55-8 81q-6 11-17 14c-3 2-10 1-13 1q-13-10-19-25c-13-29-12-91 23-106m-19 82c-2 16 9 36 28 31 6-6 13-6 15-18v-5c6-22 6-39-6-60-1-18-39-12-36 17-2 14-2 20-1 35"/>
  <path fill="#1b0802" d="M1283 122c-3-29 35-35 36-17 12 21 12 38 6 60v5c-2 12-9 12-15 18-19 5-30-15-28-31-1-15-1-21 1-35m26 56q12-7 15-21c3-13 3-30-4-42q-4-8-13-11l-5-1q-12 8-16 22c-3 13-2 31 4 43q4 6 11 10z"/>
  <path fill="#c59c69" d="M1282 157c9 28 27 40 43 8v5c-2 12-9 12-15 18-19 5-30-15-28-31M1283 122c-3-29 35-35 36-17-19-16-29-2-36 17"/>
  <path fill="#287147" d="M1411 59c13-5 30 14 35 25 13 26 17 65 9 94-6 22-15 34-35 44l-16 1c-54-32-40-160 7-164m4 153c51-13 50-135-2-142-51 10-50 137 2 142"/>
  <path fill="#041102" d="M1409 64c57-3 64 135 9 154-54 5-65-132-9-154m6 148c51-13 50-135-2-142-51 10-50 137 2 142"/>
  <path fill="#c59c69" d="M1413 70c52 7 53 129 2 142-52-5-53-132-2-142m6 136c5-1 13-8 16-13 13-20 17-47 12-70s-11-49-39-46c-46 28-34 131 11 129"/>
  <path fill="#cd9e5c" d="M1408 77c28-3 34 23 39 46s1 50-12 70c-3 5-11 12-16 13-45 2-57-101-11-129m11 107q14-9 17-25c4-15 3-37-5-50q-5-8-14-11h-9q-14 11-17 28c-3 15-2 35 7 48q5 8 13 10z"/>
  <path fill="#c59c69" d="m1403 95 5 1q11-2 20 3c9 7 12 27 13 38q2 29-18 51-8 3-16 1l-3-2q-13-13-16-30-4-25 6-48 3-8 9-14m16 89q14-9 17-25c4-15 3-37-5-50q-5-8-14-11h-9q-14 11-17 28c-3 15-2 35 7 48q5 8 13 10z"/>
  <path fill="#1b0802" d="M1408 98h9q9 3 14 11c8 13 9 35 5 50q-3 16-17 25h-8q-8-2-13-10c-9-13-10-33-7-48q3-17 17-28m9 80q13-7 16-22c3-13 2-31-4-42q-5-8-14-10h-4q-11 5-15 18-7 23 2 44c3 4 7 11 12 12z"/>
  <path fill="#287147" d="M1187 59c71-5 66 149 21 161-15 8-31 1-39-12-17-28-20-66-14-98 4-17 10-35 26-46zm11 154c51-14 49-137-3-143-51 11-50 137 3 143"/>
  <path fill="#041102" d="M1190 64c58-3 66 131 12 154-53 7-69-127-12-154m8 149c51-14 49-137-3-143-51 11-50 137 3 143"/>
  <path fill="#c59c69" d="M1195 70c52 6 54 129 3 143-53-6-54-132-3-143m10 135c19-15 23-30 26-54 3-25-3-56-24-73l-19-1c-32 21-36 82-14 112 11 15 12 14 31 16"/>
  <path fill="#cd9e5c" d="m1188 77 19 1c21 17 27 48 24 73-3 24-7 39-26 54-19-2-20-1-31-16-22-30-18-91 14-112m13 101q13-10 16-27c2-12 0-29-7-39q-5-7-13-8h-5q-14 10-16 28-4 21 7 38 4 7 12 8z"/>
  <path fill="#c59c69" d="M1195 93q8 0 16 5l2 3c11 15 13 37 10 55q-3 23-22 34l-12 1q-10-10-15-24c-7-17-8-39 1-56q5-13 20-18m6 85q13-10 16-27c2-12 0-29-7-39q-5-7-13-8h-5q-14 10-16 28-4 21 7 38 4 7 12 8z"/>
  <path fill="#1b0802" d="M1191 98h9q9 3 13 11c9 14 9 35 5 51q-2 15-17 24h-7q-9-2-14-10c-8-13-9-32-6-47q3-18 17-29m10 80q13-10 16-27c2-12 0-29-7-39q-5-7-13-8h-5q-14 10-16 28-4 21 7 38 4 7 12 8z"/>
  <path fill="#287147" d="M1516 59c51-8 78 125 14 163-58 13-75-137-14-163m12 158c53-21 45-156-11-153-56 24-44 159 11 153"/>
  <path fill="#041102" d="M1517 64c56-3 64 132 11 153-55 6-67-129-11-153m-18 133c10 17 30 20 43 4 17-19 19-43 19-68 0-30-27-90-61-50-15 19-18 53-15 77 2 9 7 30 14 37"/>
  <path fill="#cd9e5c" d="M1485 160c-3-24 0-58 15-77 34-40 61 20 61 50 0 25-2 49-19 68-13 16-33 13-43-4-7-7-12-28-14-37m41 18q11-7 15-20c3-13 3-32-4-44q-5-8-13-10h-6q-14 11-16 30c-2 11 0 28 8 37q5 7 11 7z"/>
  <path fill="#c59c69" d="M1485 160c-3-24 0-58 15-77 34-40 61 20 61 50 0 25-2 49-19 68-13 16-33 13-43-4 15 7 12 9 30 9 2-1 16-12 16-14 17-30 19-81-6-108l-10-8q-7-1-14 1c-18 9-26 35-28 53-2 9 2 22-2 30"/>
  <path fill="#1b0802" d="M1515 189a65 65 0 0 1-19-67v1c5-11 7-17 15-26h-1q10-9 21-2c5 4 14 17 15 22 0 8 5 20 1 27l-2 13c2 8-3 20-9 26-7 7-12 6-21 6m11-11q11-7 15-20c3-13 3-32-4-44q-5-8-13-10h-6q-14 11-16 30c-2 11 0 28 8 37q5 7 11 7z"/>
  <path fill="#c59c69" d="M1515 189a65 65 0 0 1-19-67v1c5-11 7-17 15-26h-1q10-9 21-2c5 4 14 17 15 22 0 8 5 20 1 27-1-15-4-47-27-46q-7 1-12 7a68 68 0 0 0-8 50c2 22 21 43 39 18l6-16c2 8-3 20-9 26-7 7-12 6-21 6"/>
  <path fill="#177a44" d="M1580 46c137 2 274-1 411 0l19 1v190h-430zm339 164h76V72h-76zm-66 2c50-19 44-143-9-141-50 18-44 143 9 141m-125-3c5 6 19 2 25-2 32-22 32-93 10-123-10-13-24-19-39-8-31 24-31 114 4 133m-91 2c50-23 40-145-12-140-51 23-40 148 12 140"/>
  <path fill="#287147" d="M1580 46c137 2 274-1 411 0l19 1q-11 2-22 1c-19 2-42 0-61 2h9l-36 1q-13-1-28-1h9-21 7q-123-4-245-1l-20 1h4c-11 0-16-1-22 5-3 31 1 74-1 108l1-1c0 16-2 61 1 71h187v1l-3 1h14l1-1-7-1q10-1 19 0 12 3 24 2l-8-2v-2c55 5 116-1 171 1h22c8-8 0-37 5-43v48h-430z"/>
  <path fill="#041102" d="M1998 216v2c-5 6-11 2-18 3-19 1-39-1-59 2l-2 1c-8-7-3-13-7-20l-1 3c-2-6 1-26 1-34 2-36-5-74 1-110 8-6 51 1 63-2 5-1 20-1 23 4q2 7 2 17l-1 127-2 4zm-79-6h76V72h-76z"/>
  <path fill="#287147" d="M1998 216v2c-5 6-11 2-18 3-19 1-39-1-59 2l-2 1c-8-7-3-13-7-20l-1 3c-2-6 1-26 1-34 2-36-5-74 1-110 8-6 51 1 63-2 5-1 20-1 23 4q2 7 2 17l-1 127-2 4V67h-83v97l1 52c24 1 58 2 82 0"/>
  <path fill="#c59c69" d="M1919 72h76v138h-76zm28 102 9 3q11-2 16-13c6-11 6-29 2-42q-3-10-12-15l-6-2q-11 3-15 14c-6 12-5 30-1 43z"/>
  <path fill="#cd9e5c" d="M1924 77c10 3 26 1 37 1l30 1c0 16 2 114-1 124q-6 2-12 0c-2 2-49 1-54-2l-1-24V91q-2-7 1-14m23 97 9 3q11-2 16-13c6-11 6-29 2-42q-3-10-12-15l-6-2q-11 3-15 14c-6 12-5 30-1 43z"/>
  <path fill="#c59c69" d="m1948 96 1 1h2c18-3 11 2 23 7l3 1c0 8 5 21 6 30v-2l1 7c0 17-8 36-20 48l-13-1-1-1q7 2 15-1h-12q-8 0-13-5c-9-10-10-31-9-44 1-15 5-31 17-40m-1 78 9 3q11-2 16-13c6-11 6-29 2-42q-3-10-12-15l-6-2q-11 3-15 14c-6 12-5 30-1 43z"/>
  <path fill="#1b0802" d="m1953 99 6 1q9 2 14 10c8 12 8 31 6 45q-3 18-17 28l-8-1q-9-3-13-10c-8-13-9-34-5-48q2-16 17-25m-6 75 9 3q11-2 16-13c6-11 6-29 2-42q-3-10-12-15l-6-2q-11 3-15 14c-6 12-5 30-1 43z"/>
  <path fill="#287147" d="M1846 58c61 0 66 162 1 166-6-5-19-2-28-20-15-26-17-48-16-77 1-25 10-36 22-58 2-3 16-9 21-11m7 154c50-19 44-143-9-141-50 18-44 143 9 141"/>
  <path fill="#041102" d="M1844 65c20-2 33 16 39 32 12 33 10 76-10 106q-7 10-19 14c-60 4-63-137-10-152m9 147c50-19 44-143-9-141-50 18-44 143 9 141"/>
  <path fill="#c59c69" d="M1844 71c53-2 59 122 9 141-53 2-59-123-9-141m9 134zl9-5c33-22 28-125-20-124-11 6-19 13-23 29-9 29-10 86 22 102z"/>
  <path fill="#cd9e5c" d="M1843 75c48-1 53 102 20 124l-9 5-1 1-11 1c-32-16-31-73-22-102 4-16 12-23 23-29m-18 77zc-4 15 8 31 20 38 19 0 23-15 29-30 6-21 2-67-25-68-22 0-28 33-26 50l1 1z"/>
  <path fill="#1b0802" d="m1824 144-1-1c-2-17 4-50 26-50 27 1 31 47 25 68-6 15-10 30-29 30-12-7-24-23-20-38v-1zm29 34q11-8 15-23c3-13 2-30-5-41q-5-9-14-10l-3-1q-13 7-16 22c-4 12-3 30 3 42q4 8 13 11z"/>
  <path fill="#c59c69" d="m1824 144-1-1c-2-17 4-50 26-50 27 1 31 47 25 68-6 15-10 30-29 30-12-7-24-23-20-38v-1c2 15 13 41 32 29 9-6 11-12 14-21 6-19-3-75-32-59-4 3-9 14-11 19q-4 12-4 24"/>
  <path fill="#287147" d="M1738 59c41 0 53 73 46 104-2 6-5 20-8 26q-6 11-9 21c-8 4-12 11-17 12-48 7-57-60-54-93 3-31 8-47 31-68zm15 148c32-22 32-93 10-123-10-13-24-19-39-8-31 24-31 114 4 133 5 6 19 2 25-2"/>
  <path fill="#041102" d="M1737 65q7-1 14 3c41 20 42 135-8 150-23-1-33-20-40-40-11-34-7-101 34-113m16 142c32-22 32-93 10-123-10-13-24-19-39-8-31 24-31 114 4 133 5 6 19 2 25-2"/>
  <path fill="#cd9e5c" d="M1728 209c-35-19-35-109-4-133 15-11 29-5 39 8 22 30 22 101-10 123-6 4-20 8-25 2m16-31q12-8 15-22a59 59 0 0 0-10-49q-6-4-12-4-13 9-16 24c-3 13-3 31 4 42q5 6 12 9z"/>
  <path fill="#c59c69" d="M1728 209c-35-19-35-109-4-133 15-11 29-5 39 8 22 30 22 101-10 123 1-7 9-11 12-18q6-13 9-27c0-24 1-50-12-71-3-6-13-14-20-15-20-2-31 26-37 41l1 6c1 10-3 20-1 31l1-2c3 22 5 36 20 53q3 1 2 4"/>
  <path fill="#1b0802" d="M1717 127c18-58 49-21 46 22 8 12-10 48-33 39l-16-19-1-12c-4-11-3-14-1-24l1 5v-9 1q1-3 4-3m27 51q12-8 15-22a59 59 0 0 0-10-49q-6-4-12-4-13 9-16 24c-3 13-3 31 4 42q5 6 12 9z"/>
  <path fill="#c59c69" d="M1763 149c8 12-10 48-33 39l-16-19-1-12c-4-11-3-14-1-24l1 5v-9 1q1-3 4-3c-2 16-2 38 9 50 23 24 35-11 37-28"/>
  <path fill="#287147" d="M1629 59c3-2 10-1 13 1 28 19 35 54 33 86-2 29-8 67-41 76-48-1-52-74-45-108 3-18 18-54 40-55m8 152c50-23 40-145-12-140-51 23-40 148 12 140"/>
  <path fill="#041102" d="M1628 64c54-1 62 136 7 153-56 2-65-131-7-153m9 147c50-23 40-145-12-140-51 23-40 148 12 140"/>
  <path fill="#c59c69" d="M1625 71c52-5 62 117 12 140-52 8-63-117-12-140m11 134 3-2c6-4 6-6 11-10 24-22 22-112-17-116l-8-1c-16 10-22 21-27 41-7 26-2 78 27 89 2 1 10 0 11-1"/>
  <path fill="#cd9e5c" d="m1625 76 8 1c39 4 41 94 17 116-5 4-5 6-11 10l-3 2c-1 1-9 2-11 1-29-11-34-63-27-89 5-20 11-31 27-41m10 102q13-8 15-24a58 58 0 0 0-10-47q-5-2-11-3-11 4-15 16c-6 13-6 32 0 44q4 9 13 14z"/>
  <path fill="#c59c69" d="M1626 93h6q9 1 15 9c9 10 11 29 10 42l-1 13q0 3 2 5l-1 3-1-3q-5 7-8 14l-8 10 5-4 1 1q-2 4-5 6-5 3-11 2-12-4-18-14c-9-16-11-39-6-56q4-19 20-28m9 85q13-8 15-24a58 58 0 0 0-10-47q-5-2-11-3-11 4-15 16c-6 13-6 32 0 44q4 9 13 14z"/>
  <path fill="#1b0802" d="M1626 98h8q8 3 13 11c9 13 10 34 6 48q-3 18-17 27h-8q-9-3-14-12c-8-13-9-34-5-49q3-16 17-25m9 80q13-8 15-24a58 58 0 0 0-10-47q-5-2-11-3-11 4-15 16c-6 13-6 32 0 44q4 9 13 14z"/>
  <path fill="#177a44" d="M274 47h99l332-1v191H274zm385 164c49-26 38-147-13-140-50 26-39 148 13 140m-328 0c50-22 41-143-10-140-52 19-41 149 10 140m98-140c-49 21-42 144 10 141 50-22 43-144-10-141m117 148c56-17 49-154-6-155-57 19-48 155 6 155"/>
  <path fill="#287147" d="M274 47h317c-5 3-146 0-170 3h3q-23 2-45 0l22-1q-45 1-91-1c-9 0-29 1-36-1M646 58h12l5 3 9 7c19 17 23 48 25 72 2 22-8 43-15 64-2 6-17 18-23 20h-2c-5-1-11 2-14 0-50-27-48-143 3-166m13 153c49-26 38-147-13-140-50 26-39 148 13 140"/>
  <path fill="#041102" d="M647 64c56-4 64 132 10 154-54 5-67-129-10-154m12 147c49-26 38-147-13-140-50 26-39 148 13 140"/>
  <path fill="#c59c69" d="M646 71c51-7 62 114 13 140-52 8-63-114-13-140m-7 131c10 3 12 3 22 1h4c30-21 33-119-14-126h-2c-37 15-35 75-24 106 2 5 10 14 14 19"/>
  <path fill="#cd9e5c" d="M649 77h2c47 7 44 105 14 126h-4c-10 2-12 2-22-1-4-5-12-14-14-19-11-31-13-91 24-106m8 101q12-8 14-23c3-12 3-30-4-41q-5-7-12-10h-7q-14 10-16 27c-2 12-1 28 6 39q4 5 11 8z"/>
  <path fill="#1b0802" d="M645 93c8 0 9-1 16 3 4 3 10 8 9 14 6 17 5 17 6 33l3 2c-2 12-2 30-11 39q-15 16-28 1l3 2c-14-19-23-30-19-55 3-18 6-28 21-39m12 85q12-8 14-23c3-12 3-30-4-41q-5-7-12-10h-7q-14 10-16 27c-2 12-1 28 6 39q4 5 11 8z"/>
  <path fill="#c59c69" d="M645 93c8 0 9-1 16 3 4 3 10 8 9 14-7-9-19-18-30-8-8 7-12 29-12 39 2 55 42 62 48 2l3 2c-2 12-2 30-11 39q-15 16-28 1l3 2c-14-19-23-30-19-55 3-18 6-28 21-39"/>
  <path fill="#287147" d="M317 59c64-10 71 144 18 162l-18 1c-51-24-48-138 0-163m14 152c50-22 41-143-10-140-52 19-41 149 10 140"/>
  <path fill="#041102" d="M322 64c21-1 33 19 39 37 11 34 9 79-15 107q-7 7-16 10c-51 1-55-97-35-129 9-14 10-19 27-25m9 147c50-22 41-143-10-140-52 19-41 149 10 140"/>
  <path fill="#c59c69" d="M321 71c51-3 60 118 10 140-51 9-62-121-10-140m9 135q21-12 27-35 12-43-11-82c-8-14-16-13-30-12-24 19-31 68-22 96v-1c7 16 15 37 36 34"/>
  <path fill="#cd9e5c" d="M316 77c14-1 22-2 30 12q24 39 11 82-6 23-27 35c-21 3-29-18-36-34v1c-9-28-2-77 22-96m14 101q13-9 15-24c3-13 2-30-6-41q-4-7-13-9l-4-1q-13 9-16 26c-3 12-2 29 6 40q4 8 12 9z"/>
  <path fill="#c59c69" d="M321 93q7-2 12 2l7 3q7 9 9 20c5 16 7 41-2 56v-4l-11 18q-9 2-19 0l-6-5c-8-7-13-30-13-40-1-14 4-31 14-42l1-1zm9 85q13-9 15-24c3-13 2-30-6-41q-4-7-13-9l-4-1q-13 9-16 26c-3 12-2 29 6 40q4 8 12 9z"/>
  <path fill="#1b0802" d="m323 97 7 1q11 5 15 15c7 16 7 37 1 53q-6 13-17 19l-9-1q-9-5-14-15c-6-16-6-38 0-53q4-13 17-19m7 81q13-9 15-24c3-13 2-30-6-41q-4-7-13-9l-4-1q-13 9-16 26c-3 12-2 29 6 40q4 8 12 9z"/>
  <path fill="#287147" d="M431 58zc62 3 62 154 6 165-58 4-69-144-7-165m8 154c50-22 43-144-10-141-49 21-42 144 10 141"/>
  <path fill="#041102" d="M430 64c57 0 63 136 8 154-54 2-65-132-8-154m9 148c50-22 43-144-10-141-49 21-42 144 10 141"/>
  <path fill="#c59c69" d="M429 71c53-3 60 119 10 141-52 3-59-120-10-141m16 133c14-13 17-29 23-46 7-22-6-89-39-82-38 16-42 109-2 128q9 3 18 0"/>
  <path fill="#cd9e5c" d="M429 76c33-7 46 60 39 82-6 17-9 33-23 46q-9 3-18 0c-40-19-36-112 2-128m11 102q13-11 15-27c2-12 1-29-7-39q-4-7-13-9l-5 1q-14 10-16 28c-1 12-1 28 7 38q5 7 12 8z"/>
  <path fill="#c59c69" d="M433 91c3 3 1-1 7 1q6 4 10 7c12 8 7 22 11 29 7 12-1 27-3 40q-2 13-15 21c-27 10-35-19-37-39-2-17 3-37 13-51 1-2 12-7 14-8m7 87q13-11 15-27c2-12 1-29-7-39q-4-7-13-9l-5 1q-14 10-16 28c-1 12-1 28 7 38q5 7 12 8z"/>
  <path fill="#1b0802" d="m431 97 8 1q10 4 15 16c6 15 7 37 0 53q-4 13-17 18l-7-1c-6-1-11-8-14-13-7-15-8-36-2-52q4-15 17-22m9 81q13-11 15-27c2-12 1-29-7-39q-4-7-13-9l-5 1q-14 10-16 28c-1 12-1 28 7 38q5 7 12 8z"/>
  <path fill="#287147" d="M540 58c55-2 70 141 9 165q-8 1-17-1c-48-31-44-151 8-164m6 161c56-17 49-154-6-155-57 19-48 155 6 155"/>
  <path fill="#041102" d="M540 64c55 1 62 138 6 155-54 0-63-136-6-155m9 148c50-23 41-145-11-141-38 16-39 82-25 115 8 16 17 27 36 26"/>
  <path fill="#c59c69" d="M538 71c52-4 61 118 11 141-19 1-28-10-36-26-14-33-13-99 25-115m-3 136c31 3 38-30 41-55 3-21-1-49-14-65-3-5-13-11-18-10-39 7-42 69-31 99 4 9 12 25 19 30z"/>
  <path fill="#cd9e5c" d="M544 77c5-1 15 5 18 10 13 16 17 44 14 65-3 25-10 58-41 55l-3-1c-7-5-15-21-19-30-11-30-8-92 31-99m4 101q14-11 16-29c1-12 0-28-8-38q-4-7-12-7h-3q-12 6-16 18c-4 13-4 33 3 45q3 8 11 11z"/>
  <path fill="#1b0802" d="M522 119c-3-11 11-17 12-24 29-19 45 44 38 64l-8 14c-10 16-8 17-27 17q-7-3-10-9l2 2c-3-5-8-12-6-18-5-18-5-27-1-46m26 59q14-11 16-29c1-12 0-28-8-38q-4-7-12-7h-3q-12 6-16 18c-4 13-4 33 3 45q3 8 11 11z"/>
  <path fill="#c59c69" d="M522 119c-3-11 11-17 12-24 29-19 45 44 38 64l-8 14c-10 16-8 17-27 17q-7-3-10-9l2 2c-3-5-8-12-6-18 8 20 23 30 37 8 11-17 11-61-8-73-16-9-25 7-30 19"/>
  <path fill="#177a44" d="M710 46h430v191H861c-40 0-90 2-130 0h-21zm375 24c-51 16-46 141 6 142 50-15 46-141-6-142M767 211c49-21 42-146-12-140-50 25-39 146 12 140m105 1c51-15 48-140-5-142-52 17-44 141 5 142m114 5c53-25 43-157-13-153-55 26-44 160 13 153"/>
  <path fill="#287147" d="M1136 232c1-8 1-34 4-37v42H861c-40 0-90 2-130 0l-7-1c4-3 50 1 54-2l-1-2c-2 1 50 3 55 3l169-2c20 0 45-1 65 1h-12l32 1-9-3c5 0 19-2 23 0l-7 2v1l34-1-15-1v-1c4-4 18 0 24 0"/>
  <path fill="#287147" d="M1083 58c20-1 33 17 41 33q18 46 2 94c-6 15-16 31-31 37-4 1-16 1-19-1-14-6-23-25-27-39q-10-29-6-59v-12c6-12 9-26 18-36 7-10 11-12 22-17m8 154c50-15 46-141-6-142-51 16-46 141 6 142"/>
  <path fill="#041102" d="M1082 64c56-5 65 130 11 154-55 4-67-129-11-154m9 148c50-15 46-141-6-142-51 16-46 141 6 142"/>
  <path fill="#c59c69" d="M1085 70c52 1 56 127 6 142-52-1-57-126-6-142m10 136c16-13 18-18 26-37-2 3 2-26 2-24 1-22-8-63-34-69-8 2-10-2-17 6-15 15-18 40-18 60 0 27 7 65 41 64"/>
  <path fill="#cd9e5c" d="M1089 76c26 6 35 47 34 69 0-2-4 27-2 24-8 19-10 24-26 37-34 1-41-37-41-64 0-20 3-45 18-60 7-8 9-4 17-6m12 102c13-2 15-46 12-55q-4-15-15-26l4 2c1-5-6-7-10-7-9-2-11 0-17 6-16 20-15 29-15 53-1 23 30 59 41 27"/>
  <path fill="#1b0802" d="M1075 98c6-6 8-8 17-6 4 0 11 2 10 7l-4-2q11 11 15 26c3 9 1 53-12 55-11 32-42-4-41-27 0-24-1-33 15-53m17 80q12-8 15-23c3-13 2-31-5-41q-5-8-14-10l-4-1q-13 10-16 26c-3 13-2 30 6 40q5 7 12 9z"/>
  <path fill="#c59c69" d="M1075 98c6-6 8-8 17-6 4 0 11 2 10 7l-4-2q11 11 15 26c3 9 1 53-12 55 1-4 8-11 9-21 3-16 3-36-7-50q-12-16-28-4c-22 29-11 101 26 75-11 32-42-4-41-27 0-24-1-33 15-53"/>
  <path fill="#287147" d="M752 57c7 0 21 1 25 6 36 33 38 106 10 144-9 14-13 14-26 16-49 3-66-132-9-166m15 154c49-21 42-146-12-140-50 25-39 146 12 140"/>
  <path fill="#041102" d="M756 64c55-3 66 131 10 155-54 2-66-131-10-155m11 147c49-21 42-146-12-140-50 25-39 146 12 140"/>
  <path fill="#c59c69" d="M755 71c54-6 61 119 12 140-51 6-62-115-12-140m8 134c44-5 43-108 7-127q-1-2-4-1c-12 1-15 0-24 10-24 25-25 116 21 118"/>
  <path fill="#cd9e5c" d="M766 77q3-1 4 1c36 19 37 122-7 127-46-2-45-93-21-118 9-10 12-9 24-10m-1 101q13-8 16-23c3-13 2-31-6-42q-5-8-13-10h-5q-13 9-15 23c-3 13-2 31 5 42q4 7 12 10z"/>
  <path fill="#c59c69" d="m759 93 6 2q12 5 18 17c7 14 8 38 2 53q-7 18-23 27l-4-2-3-1q-8-2-13-10c-10-19-9-45-4-65l1-3c2-6 15-15 20-18m6 85q13-8 16-23c3-13 2-31-6-42q-5-8-13-10h-5q-13 9-15 23c-3 13-2 31 5 42q4 7 12 10z"/>
  <path fill="#1b0802" d="m759 97 7 2q10 5 14 15c7 15 7 37 1 52q-5 13-17 19l-8-2q-11-4-14-16c-7-15-6-38 0-53q5-12 17-17m6 81q13-8 16-23c3-13 2-31-6-42q-5-8-13-10h-5q-13 9-15 23c-3 13-2 31 5 42q4 7 12 10z"/>
  <path fill="#287147" d="M864 59c33-11 51 55 53 77 3 9-3 18-3 26-1 14-19 60-37 60-57 17-75-140-13-163m8 153c51-15 48-140-5-142-52 17-44 141 5 142"/>
  <path fill="#041102" d="M864 64c57-5 65 132 11 154-51 8-69-127-11-154m8 148c51-15 48-140-5-142-52 17-44 141 5 142"/>
  <path fill="#c59c69" d="M867 70c53 2 56 127 5 142-49-1-57-125-5-142m7 108q13-8 15-23c3-13 2-31-5-41q-5-9-13-10h-6q-14 11-16 31c-1 11 1 27 8 36q6 7 13 7z"/>
  <path fill="#cd9e5c" d="M863 76c5 1 15 0 20 4 12 9 15 24 19 38l3 21c0 8-4 17-1 23-3 10-10 27-15 35-7 7-11 9-21 7l-8-1-12-11c-20-26-17-101 15-116m11 102q13-8 15-23c3-13 2-31-5-41q-5-9-13-10h-6q-14 11-16 31c-1 11 1 27 8 36q6 7 13 7z"/>
  <path fill="#c59c69" d="M869 92zq8 1 13 6c12 12 15 32 15 48v-1 2c1 16-9 30-20 40q-9 3-17 1c-7-4-12-16-14-24-6-17-5-41 4-58q5-11 18-15m5 86q13-8 15-23c3-13 2-31-5-41q-5-9-13-10h-6q-14 11-16 31c-1 11 1 27 8 36q6 7 13 7z"/>
  <path fill="#1b0802" d="m867 97 8 2c7 2 12 10 14 16 7 15 7 36 0 51q-4 13-17 18l-7-1q-9-4-14-14c-7-15-7-38-1-53q5-13 17-19m7 81q13-8 15-23c3-13 2-31-5-41q-5-9-13-10h-6q-14 11-16 31c-1 11 1 27 8 36q6 7 13 7z"/>
  <path fill="#287147" d="M972 59c12-3 25 4 32 13 19 26 22 62 19 93-2 16-12 37-24 49l-11 9c-9 0-22-1-29-8-22-22-26-60-25-90 0-17 14-45 25-59zm14 158c53-25 43-157-13-153-55 26-44 160 13 153"/>
  <path fill="#041102" d="M973 64c56-4 66 128 13 153-57 7-68-127-13-153m7 148c11-3 15-5 22-15v-1c14-16 17-49 15-69-3-25-11-50-37-58-40 8-44 67-37 99 5 20 14 39 37 44"/>
  <path fill="#cd9e5c" d="M980 69c26 8 34 33 37 58 2 20-1 53-15 69v1c-7 10-11 12-22 15-23-5-32-24-37-44-7-32-3-91 37-99m-21 46c-5 20-7 39 4 58q14 20 30 3 4 0 7-3c10-15 8-34 5-51q-3-18-18-28c-7-4-8-3-16-1q-10 8-12 22"/>
  <path fill="#c59c69" d="M980 69c26 8 34 33 37 58 2 20-1 53-15 69 2-11 8-21 10-32 6-24 3-53-11-74-8-12-15-13-28-14l-11 5q-6 13-12 23c-10 26-8 88 21 101 7 0 17-1 22-5v1l-7 6c7-2 12-9 16-10-7 10-11 12-22 15-23-5-32-24-37-44-7-32-3-91 37-99"/>
  <path fill="#1b0802" d="M971 93c8-2 9-3 16 1q15 10 18 28c3 17 5 36-5 51q-3 3-7 3-16 17-30-3c-11-19-9-38-4-58q1-14 12-22m12 85q13-9 16-25c2-13 1-30-6-40q-5-7-12-9h-6q-14 10-16 27c-2 12-1 28 6 38q4 7 13 9z"/>
  <path fill="#c59c69" d="M971 93c8-2 9-3 16 1q15 10 18 28c3 17 5 36-5 51q-3 3-7 3 14-22 9-49c-2-11-11-33-26-29q-12 5-17 17 1-14 12-22"/>
  <path fill="#f7fdfa" d="m487 2015 2-3h18c9-1 14-4 24-4 23-1 47 4 68 3h-3c34 0 69-4 102-3 87 3 174 0 261 1l91 1-8 1c6 1 17-1 24-1h38l-9 1h21-9c19-3 71-3 90-1 20 1 178-3 181-1v1l-13 1q14 0 27 1l1-2c2-2 13 2 20 1q32-2 63-1l45-2 166 4v-1l-5-2 19 2-3 1h2c9-2 33-1 45 0l-5-1v-1c21-7 50 5 69 1l-11-1a1504 1504 0 0 1 145 0c5-2 24-1 30-1 8 0 40-3 43 5v211l-192-1h-403l-935 1v-146c0-10-1-58 1-64m223 15v180l1 3c4 2 40 1 48 1h104l277 1v-191H820c-13 0-104-2-111 1zm435 185c142-2 284 1 426 0l4-2 1-5-1-8v-176h-430zm-440-192c-69 3-144-1-213 1v98l-1 91 145 1 69-1v-190m875 1v191h233c34 0 82 1 114-1 24 2 58 1 83 0v-190h-430"/>
  <path fill="#287147" d="m487 2015 2-3h18c9-1 14-4 24-4 23-1 47 4 68 3h-3c34 0 69-4 102-3 87 3 174 0 261 1l91 1-8 1c6 1 17-1 24-1h38l-9 1h21-9c19-3 71-3 90-1 20 1 178-3 181-1v1l-13 1q14 0 27 1l1-2c2-2 13 2 20 1q32-2 63-1l45-2 166 4v-1l-5-2 19 2-3 1h2c9-2 33-1 45 0l-5-1v-1c21-7 50 5 69 1l-11-1c4-2 115-1 122 0l1 5h-457c-81 0-166 1-246-1h-6c-26 2-57 1-83 1H487"/>
  <path fill="#226741" d="M676 2015q18-8 37-4l1 2c-4 0-14-1-17 1l-1 1zM1943 2010c5-2 24-1 30-1 8 0 40-3 43 5l-53 1c-2-3-18-2-22-2v-1h2z"/>
  <path fill="#287147" d="M1920 2010c6-2 18-1 23 0v2h-2v1c4 0 20-1 22 2h-42z"/>
  <path fill="#177a44" d="M709 2025c7-3 98-1 111-1h320v191l-277-1H759c-8 0-44 1-48-1l-1-3v-180zm157 57q-13 8-15 23c-3 13-2 31 5 42q3 7 11 9h6q10-5 14-17c5-13 5-32-1-45q-5-7-13-12zm223 75q14-7 17-22c4-12 3-30-3-41q-4-9-13-13h-4q-13 6-17 21c-4 13-3 30 3 42q5 9 14 12zm-110 0q15-6 19-23c3-12 3-29-4-41q-5-9-15-12-12 4-16 14c-6 13-7 31-1 44q3 12 14 17zm-215 0q13-8 16-23a58 58 0 0 0-9-48l-11-5q-13 5-16 19c-5 12-5 31 1 44q4 8 13 12z"/>
  <path fill="#287147" d="M709 2025c7-3 98-1 111-1h320v191l-277-1H759c-8 0-44 1-48-1l-1-3 2 1 18 1 84-3h213c18 0 97 4 107-1 4-14 3-161 1-178l-79-1-99-1q-35 1-69 1l13-1h-31 11-43l-73 2-47-2c-5 0-3 0-8 2z"/>
  <path fill="#287147" d="M867 2035zq12 1 20 9c16 14 25 42 27 63 2 27-3 63-22 84q-8 9-19 11h-8q-10-1-18-10c-7-8-25-45-24-54v-4c-3-15 4-46 9-61 6-20 16-29 34-38m6 121q10-5 14-17c5-13 5-32-1-45q-5-7-13-12h-7q-13 8-15 23c-3 13-2 31 5 42q3 7 11 9z"/>
  <path fill="#041102" d="m864 2042 13 1q19 9 26 29c12 29 12 65 0 94q-8 20-28 30-7 1-12-1-17-7-24-24c-14-29-14-66-4-95q8-23 29-34m9 114q10-5 14-17c5-13 5-32-1-45q-5-7-13-12h-7q-13 8-15 23c-3 13-2 31 5 42q3 7 11 9z"/>
  <path fill="#c59c69" d="m867 2048 12 3q18 9 23 29c9 26 9 61-4 86q-8 18-26 24-4 0-10-2-18-9-24-29c-10-26-9-60 2-85q8-19 27-26m6 108q10-5 14-17c5-13 5-32-1-45q-5-7-13-12h-7q-13 8-15 23c-3 13-2 31 5 42q3 7 11 9z"/>
  <path fill="#cd9e5c" d="M864 2054h9q10 2 16 11c13 16 18 51 15 71-2 15-7 32-20 41l-9 8q-6-1-13-3-19-12-24-35c-6-23-5-53 8-75 3-6 11-16 18-18m9 102q10-5 14-17c5-13 5-32-1-45q-5-7-13-12h-7q-13 8-15 23c-3 13-2 31 5 42q3 7 11 9z"/>
  <path fill="#c59c69" d="M866 2071h7q12 4 17 15c10 17 8 43 2 61-2 8-12 15-19 18h-1l1 1h1v1c-7 1-8 1-13-3q-7-4-12-13c-8-15-7-41-2-58q5-15 19-22m7 85q10-5 14-17c5-13 5-32-1-45q-5-7-13-12h-7q-13 8-15 23c-3 13-2 31 5 42q3 7 11 9z"/>
  <path fill="#1b0802" d="m869 2075 3 1q11 3 15 13c8 14 9 35 4 51q-4 16-19 22l-8-1q-11-7-15-19c-5-15-5-36 3-51q5-12 17-16m4 81q10-5 14-17c5-13 5-32-1-45q-5-7-13-12h-7q-13 8-15 23c-3 13-2 31 5 42q3 7 11 9z"/>
  <path fill="#287147" d="M1079 2037q9-2 18 1v1l-3 1 3 2 6-1c5 1 10 9 13 13 14 22 22 62 15 88-4 18-11 43-28 53q-10 6-21 6-17-6-25-23c-18-30-19-67-9-100q8-27 31-41m10 120q14-7 17-22c4-12 3-30-3-41q-4-9-13-13h-4q-13 6-17 21c-4 13-3 30 3 42q5 9 14 12z"/>
  <path fill="#041102" d="M1080 2043q8-2 16 1 16 7 23 24c13 28 14 64 3 93q-6 23-28 34-7 2-14-1-15-6-23-22c-13-27-15-63-6-91q6-26 29-38m9 114q14-7 17-22c4-12 3-30-3-41q-4-9-13-13h-4q-13 6-17 21c-4 13-3 30 3 42q5 9 14 12z"/>
  <path fill="#c59c69" d="m1084 2048 10 1q17 9 24 26c11 26 11 59 0 86q-7 20-26 29-6 0-13-2-15-7-21-25c-12-26-12-60-1-86q7-20 27-29m5 109q14-7 17-22c4-12 3-30-3-41q-4-9-13-13h-4q-13 6-17 21c-4 13-3 30 3 42q5 9 14 12z"/>
  <path fill="#cd9e5c" d="m1088 2054 8 1c8 3 14 13 18 20 10 23 11 60 2 83-6 16-12 18-27 24l-1 1q-7 1-14-4c-10-8-17-26-19-38-3-25-4-56 13-76q7-9 20-11m1 103q14-7 17-22c4-12 3-30-3-41q-4-9-13-13h-4q-13 6-17 21c-4 13-3 30 3 42q5 9 14 12z"/>
  <path fill="#c59c69" d="m1089 2071 3-1q9 3 13 11c11 16 12 40 8 58q-4 17-17 26-6 5-13 2h-4c-6-3-11-14-13-20-8-17-8-42 0-59q5-12 17-17h6m0 86q14-7 17-22c4-12 3-30-3-41q-4-9-13-13h-4q-13 6-17 21c-4 13-3 30 3 42q5 9 14 12z"/>
  <path fill="#1b0802" d="m1085 2075 5 1q10 3 15 12c8 14 9 34 4 49q-4 16-17 25l-8-1c-6-1-11-8-14-13-8-14-8-36-3-52q5-14 18-21m4 82q14-7 17-22c4-12 3-30-3-41q-4-9-13-13h-4q-13 6-17 21c-4 13-3 30 3 42q5 9 14 12z"/>
  <path fill="#287147" d="M977 2035c7 1 18 7 23 11 16 15 23 46 24 68v35c-10 16-12 33-27 44l-12 8q-7 1-15-2c-12-4-21-16-26-27-13-28-13-71-2-100q9-26 35-37m2 122q15-6 19-23c3-12 3-29-4-41q-5-9-15-12-12 4-16 14c-6 13-7 31-1 44q3 12 14 17z"/>
  <path fill="#041102" d="M972 2043q8-2 16 1c11 4 18 15 23 25 13 29 13 65 2 94q-8 22-28 33l-13-1q-16-7-23-23c-14-27-16-63-6-92q6-25 29-37m7 114q15-6 19-23c3-12 3-29-4-41q-5-9-15-12-12 4-16 14c-6 13-7 31-1 44q3 12 14 17z"/>
  <path fill="#c59c69" d="M975 2048q7 0 12 2c12 5 19 17 24 28 10 26 9 60-2 85q-8 19-27 27-6 1-10-2c-11-3-19-14-23-25-11-25-12-60-1-86q7-21 27-29m4 109q15-6 19-23c3-12 3-29-4-41q-5-9-15-12-12 4-16 14c-6 13-7 31-1 44q3 12 14 17z"/>
  <path fill="#cd9e5c" d="M977 2054h1c5-1 13 3 16 6 12 10 18 33 20 48 2 21-1 51-16 68q-7 9-19 11l-7-2h2l-3-2q-19-11-24-32c-7-23-6-55 6-77q8-14 24-20m2 103q15-6 19-23c3-12 3-29-4-41q-5-9-15-12-12 4-16 14c-6 13-7 31-1 44q3 12 14 17z"/>
  <path fill="#c59c69" d="M977 2068h2c7 2 15 12 19 18 9 15 10 40 5 58q-3 11-12 17l-2 1q-3 5-6 6l-9-1c-12-6-15-16-20-27v-1q-6-18-2-38 6-22 25-33m2 89q15-6 19-23c3-12 3-29-4-41q-5-9-15-12-12 4-16 14c-6 13-7 31-1 44q3 12 14 17z"/>
  <path fill="#1b0802" d="m976 2075 5 1q11 4 15 13c8 13 9 33 5 48q-4 16-18 25l-9-1q-9-5-14-14c-7-15-7-36-1-51q4-14 17-21m3 82q15-6 19-23c3-12 3-29-4-41q-5-9-15-12-12 4-16 14c-6 13-7 31-1 44q3 12 14 17z"/>
  <path fill="#287147" d="m763 2036 4 1h2c10 2 19 14 24 23 15 28 17 67 8 97-5 16-15 33-31 41q-9 5-17 2-7-3-12-7c-18-16-23-41-25-64l1 5c0-29 0-66 22-87q10-10 24-11m1 121q13-8 16-23a58 58 0 0 0-9-48l-11-5q-13 5-16 19c-5 12-5 31 1 44q4 8 13 12z"/>
  <path fill="#041102" d="M756 2042q7-1 15 3 18 10 25 31c10 28 10 65-3 92q-8 20-27 28-7 0-13-2-18-7-25-27c-12-28-12-66-1-94q8-21 29-31m8 115q13-8 16-23a58 58 0 0 0-9-48l-11-5q-13 5-16 19c-5 12-5 31 1 44q4 8 13 12z"/>
  <path fill="#c59c69" d="M759 2048q6 0 11 3 19 11 24 32c9 27 8 60-5 85q-8 16-26 22l-11-2c-12-6-19-19-23-31-9-26-9-60 3-85q8-18 27-24m5 109q13-8 16-23a58 58 0 0 0-9-48l-11-5q-13 5-16 19c-5 12-5 31 1 44q4 8 13 12z"/>
  <path fill="#cd9e5c" d="M756 2054q3 2 7 2 10 1 18 9c14 18 17 48 14 70q-2 27-23 44l-1 1v2h2q-2 3-7 5l-1-1 3-2c-4-4-12 2-16 0v-2c0-4-10-8-12-11-13-14-14-40-14-57 1-16 4-37 15-49l14-10zm8 103q13-8 16-23a58 58 0 0 0-9-48l-11-5q-13 5-16 19c-5 12-5 31 1 44q4 8 13 12z"/>
  <path fill="#c59c69" d="m763 2068 3 3-2 2 9 1q8 8 12 20c6 20 5 43-5 61q-5 9-14 13-7 1-14-3c-9-6-14-18-17-28q-6-31 10-57c6-9 7-7 16-11zm1 89q13-8 16-23a58 58 0 0 0-9-48l-11-5q-13 5-16 19c-5 12-5 31 1 44q4 8 13 12z"/>
  <path fill="#1b0802" d="m758 2075 6 1q9 3 15 12c8 15 8 36 3 52q-4 15-17 22l-8-1q-9-3-14-12c-7-15-8-37-2-52q4-15 17-22m6 82q13-8 16-23a58 58 0 0 0-9-48l-11-5q-13 5-16 19c-5 12-5 31 1 44q4 8 13 12z"/>
  <path fill="#177a44" d="M1145 2024h430v176l1 8-1 5-4 2c-142 1-284-2-426 0zm305 117c5-24 2-55-11-76-9-13-22-24-37-13-16 12-22 30-26 49-4 27 3 82 36 88 21 5 34-28 38-46zm-143 16q14-8 17-24 7-21-5-41-5-8-14-11-11 4-16 14c-6 13-6 31-1 44 2 6 6 14 13 16zm-146-11c10 52 52 62 69 7 8-27 7-58-6-83-7-14-14-19-28-23-27 8-37 37-38 63q-2 18 3 36m364 10q11-6 15-17c5-13 4-32-2-45q-3-8-12-12h-8q-13 9-15 25c-3 13-2 30 6 41q4 6 11 8z"/>
  <path fill="#287147" d="M1145 2024h430v176c-3-6-1-153-3-173l-2 1h-44l-77 1c-17 1-27 2-44-1-4-1-26 1-33 1q-36-1-71 1l-64-2-41 3q-8 0-9-2c-6-3-28-1-35 0-8 6-5 22-5 32v68c1 14-2 68 1 78 6 6 9 1 17 2 16 4 35-1 51 0q33 2 67 0h231c12-1 50 2 58-1l2-1 2 1-1 5-4 2c-142 1-284-2-426 0z"/>
  <path fill="#287147" d="M1296 2037q10-2 18 1 20 10 27 31c11 27 15 61 5 88-8 19-16 36-35 44l-10 1c-13-1-22-16-30-26-11-16-13-64-10-82q6-37 35-57m11 120q14-8 17-24 7-21-5-41-5-8-14-11-11 4-16 14c-6 13-6 31-1 44 2 6 6 14 13 16z"/>
  <path fill="#041102" d="M1298 2043h14q18 8 25 27c13 27 13 64 2 92q-7 23-27 33h-13q-16-7-24-24c-14-27-15-64-5-93q7-23 28-35m9 114q14-8 17-24 7-21-5-41-5-8-14-11-11 4-16 14c-6 13-6 31-1 44 2 6 6 14 13 16z"/>
  <path fill="#c59c69" d="m1302 2048 10 1c11 4 19 15 23 25 11 26 12 59 2 85q-8 22-28 31l-11-1q-19-10-24-30c-10-26-10-61 2-86q8-19 26-25m5 109q14-8 17-24 7-21-5-41-5-8-14-11-11 4-16 14c-6 13-6 31-1 44 2 6 6 14 13 16z"/>
  <path fill="#cd9e5c" d="M1308 2051q8 2 13 8h-1q10 13 15 28c9 22 6 55-4 77q-6 14-22 20l-9-1q-12-4-18-15c-13-25-13-58-5-85 4-12 10-26 24-27l11-2zm-1 106q14-8 17-24 7-21-5-41-5-8-14-11-11 4-16 14c-6 13-6 31-1 44 2 6 6 14 13 16z"/>
  <path fill="#c59c69" d="M1308 2071h1zq4 1 7 3c11 10 16 30 17 45 1 13-2 29-12 39q-6 9-17 9-8-3-12-7-16-17-15-40-3-24 13-43 7-8 18-7m-1 86q14-8 17-24 7-21-5-41-5-8-14-11-11 4-16 14c-6 13-6 31-1 44 2 6 6 14 13 16z"/>
  <path fill="#1b0802" d="m1303 2075 4 1q10 2 15 12c8 14 9 34 5 49q-4 17-18 25l-8-1q-11-4-14-14c-8-15-8-36-2-51q4-14 18-21m4 82q14-8 17-24 7-21-5-41-5-8-14-11-11 4-16 14c-6 13-6 31-1 44 2 6 6 14 13 16z"/>
  <path fill="#287147" d="m1409 2035 17 3c15 12 21 24 28 42q5 17 5 36c1 25-6 58-24 76-3 3-10 9-15 9h-9q-20-7-29-25c-8-14-18-50-13-65l1-11v-6c3-12 12-39 20-47 4-4 13-7 18-11zm41 106c5-24 2-55-11-76-9-13-22-24-37-13-16 12-22 30-26 49-4 27 3 82 36 88 21 5 34-28 38-46z"/>
  <path fill="#041102" d="M1408 2042q7 0 15 2c13 6 21 20 26 33 10 28 9 65-4 92q-7 19-26 26-6 1-12-1-16-6-24-23c-13-28-14-65-4-94q7-23 29-35m42 99c5-24 2-55-11-76-9-13-22-24-37-13-16 12-22 30-26 49-4 27 3 82 36 88 21 5 34-28 38-46z"/>
  <path fill="#cd9e5c" d="M1450 2143c-4 18-17 51-38 46-33-6-40-61-36-88 4-19 10-37 26-49 15-11 28 0 37 13 13 21 16 52 11 76zm-51 11v2q10 16 26 4c11-6 14-22 16-34 5-21-10-73-41-51q-5 6-5 15a75 75 0 0 0 4 64"/>
  <path fill="#c59c69" d="M1450 2143c-4 18-17 51-38 46-33-6-40-61-36-88 4-19 10-37 26-49 15-11 28 0 37 13 13 21 16 52 11 76l-2-23c0-22-3-46-22-61-14-11-28-1-36 12-18 30-17 106 26 115 30-12 27-37 34-41"/>
  <path fill="#1b0802" d="M1395 2090q0-9 5-15c31-22 46 30 41 51-2 12-5 28-16 34q-16 12-26-4v-2l-3-5q-12-29-1-59m22 66q13-6 15-20c4-13 4-31-2-43q-5-7-13-11h-7q-13 8-15 23c-3 13-3 30 4 41q5 8 13 10z"/>
  <path fill="#c59c69" d="M1395 2090q0-9 5-15c31-22 46 30 41 51-2 12-5 28-16 34q-16 12-26-4v-2l1 1 2 1c26 23 39-23 36-45-4-26-20-53-43-21"/>
  <path fill="#287147" d="M1197 2036q6 0 10 2c17 9 26 29 31 46 8 27 5 66-8 91q-10 21-33 26h-1q-19-3-29-19c-17-28-18-71-10-102q6-27 29-43zm-36 110c10 52 52 62 69 7 8-27 7-58-6-83-7-14-14-19-28-23-27 8-37 37-38 63q-2 18 3 36"/>
  <path fill="#041102" d="m1190 2042 13 1q18 7 25 26c13 27 14 63 3 91q-7 24-29 36l-13-1q-16-7-24-24c-13-28-14-65-4-94q8-23 29-35m-29 104c10 52 52 62 69 7 8-27 7-58-6-83-7-14-14-19-28-23-27 8-37 37-38 63q-2 18 3 36"/>
  <path fill="#cd9e5c" d="M1158 2110c1-26 11-55 38-63 14 4 21 9 28 23 13 25 14 56 6 83-17 55-59 45-69-7q-4-18-3-36m40 47q14-9 18-25c3-12 2-30-5-40q-6-9-16-11-12 4-16 18c-5 12-5 30 1 43q3 10 13 14z"/>
  <path fill="#c59c69" d="M1158 2110c1-26 11-55 38-63 14 4 21 9 28 23 13 25 14 56 6 83-17 55-59 45-69-7 5 4 7 16 11 22l14 13h-3v1c22 18 37-10 43-28 8-25 5-55-6-79-4-8-3-19-16-22-30-5-40 34-44 57z"/>
  <path fill="#c59c69" d="M1200 2071q8 5 14 12c9 14 12 38 8 55q-4 16-19 25l-1 1 2 2-2 1h2l-4 1q-9 1-16-5c-9-7-12-22-13-34-2-16 0-39 10-51q4-6 11-5l6-1zm-2 86q14-9 18-25c3-12 2-30-5-40q-6-9-16-11-12 4-16 18c-5 12-5 30 1 43q3 10 13 14z"/>
  <path fill="#1b0802" d="m1193 2075 6 1q10 3 15 12c8 14 8 34 4 49q-4 17-18 25l-8-1q-8-3-13-12c-8-14-9-34-4-49q4-16 18-25m5 82q14-9 18-25c3-12 2-30-5-40q-6-9-16-11-12 4-16 18c-5 12-5 30 1 43q3 10 13 14z"/>
  <path fill="#287147" d="m1518 2036 10 2q19 7 28 27c13 26 16 68 6 96q-9 29-37 41-6 0-13-3c-14-6-23-22-28-36-11-34-9-72 8-104q8-16 26-23m7 120q11-6 15-17c5-13 4-32-2-45q-3-8-12-12h-8q-13 9-15 25c-3 13-2 30 6 41q4 6 11 8z"/>
  <path fill="#041102" d="M1517 2042q7-1 13 2 18 9 25 28c12 28 12 65 0 93q-7 21-27 30-7 2-14-1-17-9-24-28c-12-28-13-64-1-93q8-22 28-31m8 114q11-6 15-17c5-13 4-32-2-45q-3-8-12-12h-8q-13 9-15 25c-3 13-2 30 6 41q4 6 11 8z"/>
  <path fill="#c59c69" d="M1519 2048q6 0 12 2 17 10 23 29c10 26 9 59-2 85q-8 19-27 26l-11-2q-16-9-22-27c-11-26-11-60 0-86q7-19 27-27m6 108q11-6 15-17c5-13 4-32-2-45q-3-8-12-12h-8q-13 9-15 25c-3 13-2 30 6 41q4 6 11 8z"/>
  <path fill="#cd9e5c" d="M1516 2054h11c8 2 15 11 19 17 13 22 15 54 7 78-2 10-9 26-19 31l-6 3h-13q-8-4-13-12a95 95 0 0 1-13-71c2-15 6-31 19-40zm9 102q11-6 15-17c5-13 4-32-2-45q-3-8-12-12h-8q-13 9-15 25c-3 13-2 30 6 41q4 6 11 8z"/>
  <path fill="#c59c69" d="m1516 2070 11 1c5 1 10 8 13 13 10 15 11 38 7 56-2 9-11 21-19 26h-7q-10-1-16-9c-9-12-12-34-9-49q2-23 20-38m9 86q11-6 15-17c5-13 4-32-2-45q-3-8-12-12h-8q-13 9-15 25c-3 13-2 30 6 41q4 6 11 8z"/>
  <path fill="#1b0802" d="m1520 2075 5 1q9 3 15 12c7 14 8 34 4 49q-4 17-18 25l-8-1q-10-4-14-14c-7-15-8-37-2-52q5-13 18-20m5 81q11-6 15-17c5-13 4-32-2-45q-3-8-12-12h-8q-13 9-15 25c-3 13-2 30 6 41q4 6 11 8z"/>
  <path fill="#177a44" d="M1752 2024h258v190c-25 1-59 2-83 0-32 2-80 1-114 1h-233v-191zm100 132q11-7 15-21c4-12 3-30-3-42q-5-7-12-11h-6q-14 8-17 24c-3 12-2 29 5 40q4 7 12 10zm-123 9 12 3 10-4c14-21 18-34 14-61 0-4-4-12-8-15-7-8-17-18-28-8-13 13-14 34-13 51-4 9 7 27 13 34m231-9q11-7 15-20c4-13 3-30-3-42q-4-8-13-12h-6q-13 8-15 23c-3 12-3 30 4 41q5 8 14 10zm-326 0q11-6 15-20c4-13 4-31-3-43q-5-9-13-11h-5q-14 7-16 24c-3 12-2 30 5 41q4 7 12 9z"/>
  <path fill="#287147" d="M1580 2024h172c-19 7-55 1-76 4h-24 7c-12-1-68-2-75 5l2 23q0 29-3 56v-3l1 26-1 75h28l2-2c13-1 34 3 48 3h128q14 2 28 2h71l39 1c-32 2-80 1-114 1h-233z"/>
  <path fill="#287147" d="M1843 2036q6-2 11 1 25 13 34 41c9 30 9 70-7 98q-11 20-32 25l-14-3c-8-3-18-20-22-27-13-25-13-66-5-92 6-17 8-22 22-33l10-8 3-1zm9 120q11-7 15-21c4-12 3-30-3-42q-5-7-12-11h-6q-14 8-17 24c-3 12-2 29 5 40q4 7 12 10z"/>
  <path fill="#041102" d="M1845 2042q9 0 16 4c13 8 21 23 25 37 8 29 6 64-8 90q-9 17-26 22-8 1-14-2c-14-7-21-22-25-35-10-29-9-65 5-92q8-17 27-24m7 114q11-7 15-21c4-12 3-30-3-42q-5-7-12-11h-6q-14 8-17 24c-3 12-2 29 5 40q4 7 12 10z"/>
  <path fill="#c59c69" d="M1847 2048q6 0 11 3c12 5 19 18 23 30 9 26 9 60-4 85q-8 18-26 24-7 0-13-3-17-12-23-33c-8-26-7-59 6-84q8-16 26-22m5 108q11-7 15-21c4-12 3-30-3-42q-5-7-12-11h-6q-14 8-17 24c-3 12-2 29 5 40q4 7 12 10z"/>
  <path fill="#cd9e5c" d="M1840 2058q13-2 23 4c15 13 19 33 21 52 1 21-1 36-14 53l-8 11q-4 5-9 5-5 2-12 0-14-8-20-23c-9-22-11-54-2-76 4-10 12-22 21-26m12 98q11-7 15-21c4-12 3-30-3-42q-5-7-12-11h-6q-14 8-17 24c-3 12-2 29 5 40q4 7 12 10z"/>
  <path fill="#c59c69" d="M1846 2071h1q9 0 15 6c11 9 14 28 14 41q1 21-11 38l-8 7q-2 3-6 3h-7l-2-1-4-3q-11-6-14-20 0-6-1-12-4-22 5-43 5-12 18-16m6 85q11-7 15-21c4-12 3-30-3-42q-5-7-12-11h-6q-14 8-17 24c-3 12-2 29 5 40q4 7 12 10z"/>
  <path fill="#1b0802" d="m1844 2077 7-1q9 4 14 10c8 12 9 33 6 47q-2 19-18 28l-8 1q-8-3-13-11c-8-13-9-34-6-49q4-16 18-25m8 79q11-7 15-21c4-12 3-30-3-42q-5-7-12-11h-6q-14 8-17 24c-3 12-2 29 5 40q4 7 12 10z"/>
  <path fill="#287147" d="M1742 2036h3l2 3q8 2 14 8c19 18 24 53 23 77 0 22-6 50-22 66q-13 12-29 11-8-4-15-10c-19-20-26-53-24-80 1-21 9-51 26-66q9-8 21-8h1zm-13 129 12 3 10-4c14-21 18-34 14-61 0-4-4-12-8-15-7-8-17-18-28-8-13 13-14 34-13 51-4 9 7 27 13 34"/>
  <path fill="#041102" d="M1736 2043q8-1 16 3c13 8 20 23 25 37 8 28 6 64-8 90q-8 17-26 23-7 0-14-3c-13-7-21-22-26-36-9-28-7-64 7-91q8-17 26-23m-7 122 12 3 10-4c14-21 18-34 14-61 0-4-4-12-8-15-7-8-17-18-28-8-13 13-14 34-13 51-4 9 7 27 13 34"/>
  <path fill="#c59c69" d="M1739 2048q5 0 11 3 19 12 24 35c7 26 6 60-8 84q-9 16-26 20-6 0-12-4c-13-8-20-25-24-39-6-26-4-59 10-81q9-15 25-18m-10 117 12 3 10-4c14-21 18-34 14-61 0-4-4-12-8-15-7-8-17-18-28-8-13 13-14 34-13 51-4 9 7 27 13 34"/>
  <path fill="#cd9e5c" d="M1744 2054q18 9 25 29c9 23 9 53-1 75s-13 19-32 27h-1l-15-12c-13-13-15-38-16-55 0-19 4-41 18-54q9-9 22-10m-15 111 12 3 10-4c14-21 18-34 14-61 0-4-4-12-8-15-7-8-17-18-28-8-13 13-14 34-13 51-4 9 7 27 13 34"/>
  <path fill="#1b0802" d="M1716 2131c-1-17 0-38 13-51 11-10 21 0 28 8 4 3 8 11 8 15 4 27 0 40-14 61l-10 4-12-3c-6-7-17-25-13-34m26 25q10-5 14-15c6-13 6-31 0-45q-4-9-13-14h-6q-12 7-16 22c-3 13-2 32 5 44q4 7 12 8z"/>
  <path fill="#c59c69" d="M1757 2088c4 3 8 11 8 15 4 27 0 40-14 61l-10 4-12-3c-6-7-17-25-13-34l2 6c2 9 7 20 15 24q6 3 11 1 10-6 15-17c8-21 5-37-2-57"/>
  <path fill="#287147" d="M1962 2036c4 1 19 14 22 18 18 24 19 63 15 92-2 17-11 39-26 50q-9 6-19 4-8 0-16-4-4-9-12-18c-11-16-15-39-15-58l1 9q-2-23 3-44c4-13 16-40 30-45h10q3 2 6-1zm-2 120q11-7 15-20c4-13 3-30-3-42q-4-8-13-12h-6q-13 8-15 23c-3 12-3 30 4 41q5 8 14 10z"/>
  <path fill="#041102" d="M1952 2043q9-1 16 3c13 6 21 21 25 35 9 29 8 64-7 91q-8 18-25 23-8 0-15-2-17-10-23-30c-12-29-11-65 2-93q7-19 27-27m8 113q11-7 15-20c4-13 3-30-3-42q-4-8-13-12h-6q-13 8-15 23c-3 12-3 30 4 41q5 8 14 10z"/>
  <path fill="#c59c69" d="m1955 2048 12 3q16 11 22 30c9 26 9 60-4 85q-8 17-26 24-8-1-14-4c-13-8-20-23-23-37-7-26-5-60 9-83q8-14 24-18m5 108q11-7 15-20c4-13 3-30-3-42q-4-8-13-12h-6q-13 8-15 23c-3 12-3 30 4 41q5 8 14 10z"/>
  <path fill="#cd9e5c" d="M1946 2054q11 0 20 3 12 6 16 19l4 3c8 21 9 49 1 70-4 13-10 27-23 33q-4 3-10 2-9-1-15-9a102 102 0 0 1-2-113zm14 102q11-7 15-20c4-13 3-30-3-42q-4-8-13-12h-6q-13 8-15 23c-3 12-3 30 4 41q5 8 14 10z"/>
  <path fill="#1b0802" d="M1935 2137c-10-9-5-21-4-31 2-25 19-50 42-26 11 10 13 39 10 53v-2l-3 15c-5 21-25 28-39 10l-1-4zm25 19q11-7 15-20c4-13 3-30-3-42q-4-8-13-12h-6q-13 8-15 23c-3 12-3 30 4 41q5 8 14 10z"/>
  <path fill="#c59c69" d="M1935 2137c-10-9-5-21-4-31 2-25 19-50 42-26 11 10 13 39 10 53v-2l-3 15c-5 21-25 28-39 10l-1-4c6 6 9 9 17 10 10 2 16-10 19-17 8-20 6-48-9-65-8-10-20-2-25 6-11 15-10 34-7 51"/>
  <path fill="#287147" d="M1625 2037q15 0 26 10c16 13 23 40 24 60 2 25-2 62-20 81q-11 12-27 14l-1-1q-11-2-18-11c-23-25-24-56-22-88 0-14 5-36 16-46q3-2 2-6 9-7 20-13m9 119q11-6 15-20c4-13 4-31-3-43q-5-9-13-11h-5q-14 7-16 24c-3 12-2 30 5 41q4 7 12 9z"/>
  <path fill="#041102" d="m1626 2042 14 2q19 10 25 31c11 28 10 66-2 93q-8 20-27 27-7 0-15-2-17-9-24-29c-11-29-11-65 1-93q8-20 28-29m8 114q11-6 15-20c4-13 4-31-3-43q-5-9-13-11h-5q-14 7-16 24c-3 12-2 30 5 41q4 7 12 9z"/>
  <path fill="#c59c69" d="M1629 2048q7 1 13 3c12 7 19 22 23 35 8 26 6 60-7 83q-9 17-26 21-6 0-11-3c-14-7-21-22-25-36-7-26-6-59 8-83q9-16 25-20m5 108q11-6 15-20c4-13 4-31-3-43q-5-9-13-11h-5q-14 7-16 24c-3 12-2 30 5 41q4 7 12 9z"/>
  <path fill="#cd9e5c" d="M1624 2054h8q11 1 18 10c13 14 17 39 16 57-1 21-7 45-23 59l-1 1 1 1h-21q-6-4-11-12c-16-19-17-43-15-67 3-22 11-34 28-49m10 102q11-6 15-20c4-13 4-31-3-43q-5-9-13-11h-5q-14 7-16 24c-3 12-2 30 5 41q4 7 12 9z"/>
  <path fill="#c59c69" d="m1627 2070 7 1c11 2 17 15 22 24l1 15q2 19-4 36l2-3q-3 14-14 23-7 4-15 3-8-3-13-11a90 90 0 0 1-7-66c3-9 14-17 21-22m7 86q11-6 15-20c4-13 4-31-3-43q-5-9-13-11h-5q-14 7-16 24c-3 12-2 30 5 41q4 7 12 9z"/>
  <path fill="#1b0802" d="m1625 2077 8-1q9 3 14 10c8 13 9 33 6 48q-2 18-17 27l-8 1q-9-3-14-11c-8-13-9-34-5-49q3-16 16-25m9 79q11-6 15-20c4-13 4-31-3-43q-5-9-13-11h-5q-14 7-16 24c-3 12-2 30 5 41q4 7 12 9z"/>
  <path fill="#177a44" d="M705 2023v190l-69 1-145-1 1-91v-98c69-2 144 2 213-1m-49 133q11-8 15-21c4-13 3-31-4-43q-5-8-14-11h-4q-12 7-16 22c-3 13-2 32 5 43q4 7 11 10zm-91-57q3-10-4-18l-3-6c-47-24-48 69-30 79l8 6c34 9 33-44 29-61"/>
  <path fill="#287147" d="M705 2023v99c-4-9-2-80-6-92-63-4-129-2-192-2l-8-1c-11 7-2 79-7 95v-98c69-2 144 2 213-1"/>
  <path fill="#287147" d="M645 2037c9 2 16 1 24 7 16 10 24 36 27 54 3 17 2 47-4 63q-5 14-15 26-5 10-17 13l-10 2q-14-3-22-13c-20-25-23-58-19-89 2-16 8-40 20-52q7-5 16-11m11 119q11-8 15-21c4-13 3-31-4-43q-5-8-14-11h-4q-12 7-16 22c-3 13-2 32 5 43q4 7 11 10z"/>
  <path fill="#041102" d="M647 2042q7 0 13 2 18 9 25 28c12 29 12 65 0 94q-8 20-27 29-6 2-12-1c-12-3-20-14-25-25-13-27-14-64-4-93q7-22 30-34m9 114q11-8 15-21c4-13 3-31-4-43q-5-8-14-11h-4q-12 7-16 22c-3 13-2 32 5 43q4 7 11 10z"/>
  <path fill="#c59c69" d="M647 2049q6-2 12 1 17 8 24 26c10 26 10 60-1 86q-7 18-24 27l-13-1c-11-4-18-15-23-25-11-26-11-61-1-86q8-20 26-28m9 107q11-8 15-21c4-13 3-31-4-43q-5-8-14-11h-4q-12 7-16 22c-3 13-2 32 5 43q4 7 11 10z"/>
  <path fill="#cd9e5c" d="m646 2054 11 1q13 4 18 16c12 23 16 53 8 78-4 13-11 27-24 34l-6 1q-10 0-18-7c-11-11-16-39-17-55v-12l4-14c3-8 2-20 7-27q7-7 16-13zm10 102q11-8 15-21c4-13 3-31-4-43q-5-8-14-11h-4q-12 7-16 22c-3 13-2 32 5 43q4 7 11 10z"/>
  <path fill="#c59c69" d="m653 2067 5 2q9 12 18 25c8 17 3 43-3 61q-9 9-19 14-8-1-14-5c-9-5-11-15-14-25v2l-1-18-3-3c0-9 2-25 7-32l10-12v-1zm3 89q11-8 15-21c4-13 3-31-4-43q-5-8-14-11h-4q-12 7-16 22c-3 13-2 32 5 43q4 7 11 10z"/>
  <path fill="#1b0802" d="m649 2075 5 1q10 3 15 12c8 13 9 34 5 49q-4 16-18 25l-8-1q-9-2-13-11c-8-15-9-37-4-53q4-15 18-22m7 81q11-8 15-21c4-13 3-31-4-43q-5-8-14-11h-4q-12 7-16 22c-3 13-2 32 5 43q4 7 11 10z"/>
  <path fill="#287147" d="M541 2037q10 0 18 6c16 10 23 33 26 50 7 30 4 64-14 90q-9 14-26 17l-1 1q-13-1-22-10a88 88 0 0 1-23-63c0-28 2-61 23-81q8-9 19-10m24 62q3-10-4-18l-3-6c-47-24-48 69-30 79l8 6c34 9 33-44 29-61"/>
  <path fill="#041102" d="M538 2042q8 0 14 2c13 6 20 19 25 31 11 28 11 64-2 92q-7 20-27 28-6 2-12-1-19-9-26-29c-11-28-12-65 0-93q8-21 28-30m27 57q3-10-4-18l-3-6c-47-24-48 69-30 79l8 6c34 9 33-44 29-61"/>
  <path fill="#cd9e5c" d="M580 2136c-2 39-37 80-65 30-16-28-14-99 18-115q8-4 18-1 13 7 20 20c7 12 15 53 9 66m-15-37q3-10-4-18l-3-6c-47-24-48 69-30 79l8 6c34 9 33-44 29-61"/>
  <path fill="#c59c69" d="M580 2136c-2 39-37 80-65 30-16-28-14-99 18-115q8-4 18-1 13 7 20 20c-7-4-15-15-25-16-32 0-39 44-38 69 2 24 11 58 40 62 31-20 23-42 32-49"/>
  <path fill="#1b0802" d="M528 2154c-18-10-17-103 30-79l3 6q6 8 4 18c4 17 5 70-29 61zm18 3q13-9 17-25c3-13 2-29-6-40q-5-8-15-11-11 4-15 16c-6 12-6 31-1 44q4 11 14 15z"/>
  <path fill="#c59c69" d="M528 2154c-18-10-17-103 30-79l3 6q6 8 4 18c-21-58-63 0-37 55"/>
  <path fill="#f7fdfa" d="m705 2023 3 3 1-1 1 5v88c-2-7 0-17-2-21q-1 15 0 30l-2 61c0 6 1 19-1 25v-190"/>
  <path fill="#020401" d="M75 1632c12-13 15-17 34-19l-13 4q11-2 21-2l-6-1 32-1q6 1 12 1c19-2 54-5 71 3l20 15c13 3 13 0 25 5l-28 2c7 0 21-1 25 2 5 22 4 38 4 60v15h-1l-1-9v6c-1 20-8 9-16 12-5 5-3 26-3 33l-1-8c-1 29 2 56 1 83l18 1q5 11 3 23c-2 15 4 54-6 65q-12 3-22 3c-4 1-11 15-17 16-24 3-120 4-137 0-6-5-11-15-16-17-6-2-24 5-24-8-2-24-3-52-3-75 8-10 10-8 22-7 0-23-2-80 0-106l-1-2c-6-2-15-1-17-7-4-7-3-67 0-75l1-2v-4l-1-1 5-5z"/>
  <path fill="#287147" d="M268 1641c5 22 4 38 4 60v15h-1l-1-9v6c-1 20-8 9-16 12-5 5-3 26-3 33l-1-8c-1 29 2 56 1 83l18 1q5 11 3 23c-2 15 4 54-6 65q-12 3-22 3c-4 1-11 15-17 16-24 3-120 4-137 0-6-5-11-15-16-17-6-2-24 5-24-8-2-24-3-52-3-75 8-10 10-8 22-7 0-23-2-80 0-106l-1-2c-6-2-15-1-17-7-4-7-3-67 0-75l1-2v76h19v121H52v79h26c16 26 30 19 59 20l81-1c12 0 18-10 23-19l26-1v-79h-19v-119l19-1v-57zM75 1632c12-13 15-17 34-19l-13 4q11-2 21-2l-6-1 32-1q6 1 12 1c19-2 54-5 71 3l20 15c13 3 13 0 25 5l-28 2-4-3c-4-18-29-19-44-18-32 2-68-2-100 2-7 1-14 12-17 18H52l-1-1 5-5z"/>
  <path fill="#c4c4c4" d="M245 1646q9 0 17 1l2 3c-2 13-1 46-1 60h-15c0-27 0-37-3-64"/>
  <path fill="#041102" d="m239 1636 4 3c7 0 21-1 25 2l-1 20-2-12-1 1-2-3q-8-1-17-1z"/>
  <path fill="#c4c4c4" d="M102 1627h70q21-1 42 1 8 0 15 4c7 5 11 18 13 26q3 21 2 43l-1 59 1 83q1 26-2 50 0 14-8 26-7 9-17 10c-20 0-116 3-126-4-9-6-13-19-14-30q-3-22-1-45v-139q-1-25 1-51 2-13 9-23 6-9 16-10"/>
  <path fill="#020401" d="M153 1690q9-1 17 2 20 10 27 31c14 32 15 74 2 106q-9 26-33 37-10 2-19-2c-15-7-23-22-28-37-13-32-12-74 3-106q10-22 31-31"/>
  <path fill="#3b3c3b" d="M152 1700q8-1 15 1 18 7 26 25c13 29 14 67 3 97q-8 23-29 34-9 2-17-1-18-9-26-28c-12-28-12-67-1-95q8-23 29-33"/>
  <path fill="#c4c4c4" d="M248 1846h16c0 13 2 55-1 64l-2 1h-17q6-33 4-65M56 1646h19q-6 29-4 61l-1 2q-7 2-14 1zM56 1847h15q-2 32 4 63l-19 1z"/>
  <path fill="#020401" d="M52 392c4-10 16-3 24-6 7-4 11-15 19-17 32-1 106-4 134 1 6 8 10 16 21 17q8 0 17 3l-1 2 2 3c8 13 7 68-1 82-6 2-10 0-15 2-3 6 1 8 0 13q-2 33 0 65l1 25c5 4 15 1 16 8 5 23 6 63-1 84q-2 4-7 4c-6 1-16-2-20 4-8 12-12 13-27 15q-36 2-71-1-23 1-47 1c-6 0-19-19-21-19-24-2-24 3-27-25v-19c2-14-2-34 4-46 2-4 12 1 17-7-1-32-5-64 0-97l-2-6-15-6z"/>
  <path fill="#287147" d="M268 395c8 13 7 68-1 82-6 2-10 0-15 2-3 6 1 8 0 13q-2 33 0 65l1 25c5 4 15 1 16 8 5 23 6 63-1 84q-2 4-7 4c-6 1-16-2-20 4-8 12-12 13-27 15q-36 2-71-1-23 1-47 1c-6 0-19-19-21-19-24-2-24 3-27-25v-19c2-14-2-34 4-46 2-4 12 1 17-7-1-32-5-64 0-97l-2-6-15-6 19-1v121H52v79h25c4 8 12 19 23 20l103 1c22 0 26-2 39-21h25v-79l-19-1V471h19q0-38 1-76M52 392c4-10 16-3 24-6 7-4 11-15 19-17 32-1 106-4 134 1 6 8 10 16 21 17q8 0 17 3l-1 2h-25c-5-8-12-19-23-19q-61-2-123 1c-7 0-14 13-17 18z"/>
  <path fill="#c4c4c4" d="M140 381q42-2 83 0l7 6c13 13 14 34 14 52l-1 131c1 24 3 56-1 79q-1 16-12 28c-10 9-38 6-51 6-19 0-60 2-77-1q-8-1-14-6-10-12-11-28-4-38-1-77V446c0-18-2-46 13-60 11-9 37-6 51-5"/>
  <path fill="#020401" d="M155 443q9 0 17 3c15 8 24 26 30 42 10 33 9 74-8 105q-10 19-31 27-9 1-17-3c-16-8-24-25-29-41-11-33-9-74 7-105q10-20 31-28"/>
  <path fill="#3b3c3b" d="M157 452q9 1 15 4c14 8 22 25 26 39 9 29 7 66-8 93q-8 18-27 23-10 1-18-4c-14-9-22-27-26-43-7-28-6-65 10-90q10-18 28-22"/>
  <path fill="#c4c4c4" d="M244 400h20l-1 64h-15q2-33-4-64M248 600h16v56q1 5-2 8h-18q6-31 4-64M56 600h15q-2 32 4 64H56zM56 400h19q-6 30-4 62l-1 1q-7 2-14 1z"/>
  <path fill="#020401" d="m2112 335 1 7h9c8-7-1-19 4-24 7-5 39-3 46-3 11 0 20 0 19 12q-3 12 9 10l2-1c5-7 4 0 6-5q4-2 10-1c19 10 3 40 6 47l2 1q5 1 8 6c2 4 3 127 0 132s-8 5-10 9c-3 5 1 28-1 37q-3 4-10 3h-14c-5 0-3-1-7 2-7 27-10 19-37 20l-17-1q-10 1-14-7c-1-4 2-10-2-13-5-3-7 1-11 1h-22v-35l1-2 1-2c0-3 1-2-1-5-7-5-13 3-22-7l1-63c1-16-4-52 0-66l-1 6c3-18 9-14 24-14l2-4-2-1-2-4c-2-5-1-29-1-36 6 0 17-1 23 1"/>
  <path fill="#287147" d="m2112 335 1 7h9c8-7-1-19 4-24 7-5 39-3 46-3 11 0 20 0 19 12q-3 12 9 10v5l-12 1v-23h-61v23h-17c-15 12-14 24-13 42h-25c-2 38-1 92 0 131h25c0 17-2 29 12 42h18v22h60v-22h15l-3 7c-5 0-3-1-7 2-7 27-10 19-37 20l-17-1q-10 1-14-7c-1-4 2-10-2-13-5-3-7 1-11 1h-22v-35l1-2 1-2c0-3 1-2-1-5-7-5-13 3-22-7l1-63c1-16-4-52 0-66l-1 6c3-18 9-14 24-14l2-4-2-1-2-4c-2-5-1-29-1-36 6 0 17-1 23 1"/>
  <path fill="#f7fdfa" d="M2089 334c6 0 17-1 23 1-3 10-9 6-19 6 0 7 1 22-1 27l-2 2c-2-5-1-29-1-36"/>
  <path fill="#d9fcec" d="m2089 532 3 1c2 5 1 20 1 26q9-1 17 1 2 4 1 7h-22z"/>
  <path fill="#287147" d="M2202 336c5-7 4 0 6-5q4-2 10-1c19 10 3 40 6 47l2 1q5 1 8 6c2 4 3 127 0 132s-8 5-10 9c-3 5 1 28-1 37q0-16-1-31-1-2-4-2l-1-12h15V384h-15l1-12v-7c-6-10-3-13-13-22l-5-1v-5z"/>
  <path fill="#f7fdfa" d="M2202 336h20c1 7 2 29-1 34l-3 2v-7c-6-10-3-13-13-22l-5-1v-5z"/>
  <path fill="#226741" d="M2205 343h13v22c-6-10-3-13-13-22"/>
  <path fill="#f7fdfa" d="M2218 529q3 0 4 2 1 15 1 31-3 4-10 3h-14l3-7 16-1z"/>
  <path fill="#dbbf78" d="M2111 350h75c6 0 16-1 20 3q7 8 7 17 3 28 1 56v98q0 16-11 27l-21 1c-11 0-68 2-74-4q-9-12-8-28V420c0-17-2-38 1-55q2-9 10-15"/>
  <path fill="#cd9e5c" d="M2156 353c13 2 35-2 46 3q5 3 6 8 3 8 3 16v55q1 45-2 90-1 9-5 17c-7 7-19 3-29 3l-20 1-2-1q-22 3-42 1l-6-11-3-6v-35q-1-47 1-94c0-9 0-32 5-39 6-8 36-3 46-7z"/>
  <path fill="#1b0802" d="M2112 424c-3-14 13-51 26-59 6-4 20-6 27-7l15 12c21 18 25 41 27 67 2 32-1 65-22 91-12 15-33 20-48 6-23-23-30-53-30-84q-1-11 5-21z"/>
  <path fill="#dbbf78" d="M2112 424c-3-14 13-51 26-59 6-4 20-6 27-7l15 12c21 18 25 41 27 67 2 32-1 65-22 91-12 15-33 20-48 6-23-23-30-53-30-84q-1-11 5-21c-4 25-1 57 11 79 26 51 67 25 77-20q15-52-10-100c-5-9-15-21-26-23-34-5-46 36-52 59"/>
  <path fill="#dbc693" d="M2153 371q9-1 15 3c13 6 21 19 26 31 11 29 11 67-2 96q-9 20-29 28-8 2-17-3-20-12-26-35c-10-29-9-67 5-94q10-19 28-26"/>
  <path fill="#1b0802" d="M2154 380q8-1 14 3c13 6 20 20 24 33 8 26 7 58-6 83q-8 16-25 21-7 1-13-2-17-10-23-30c-9-26-9-60 4-85q8-17 25-23"/>
  <path fill="#dbbf78" d="m2154 387 11 1c11 4 17 15 21 25 10 23 9 54-1 77q-6 16-22 23-7 1-12-1-15-7-21-22c-10-23-10-54-1-77q6-18 25-26"/>
  <path fill="#cd9e5c" d="m2155 392 7 1q16 8 22 26c7 21 8 47-2 67q-6 14-18 20-3 3-7 2-13-2-20-14c-12-18-13-45-8-66q5-24 26-36"/>
  <path fill="#dbbf78" d="M2153 428q6-1 11 3 7 7 7 18c1 6-1 16-6 20q-4 4-10 4l2-1 4 3-1 1-2 1q-4-1-7-4-8-9-7-22-1-14 9-23"/>
  <path fill="#1b0802" d="M2155 430q5 0 8 3 7 7 6 16 1 13-8 21-6 1-9-3-7-7-6-16 0-13 9-21"/>
  <path fill="#dbbf78" d="m2152 439 7-3c7 4 8 15 5 22q-2 7-8 6c-8-6-7-17-4-25M2075 391h22l-1 18h-13c-2 15 0 41-1 58l1 24 13 1v18h-21z"/>
  <path fill="#dbc693" d="M2075 391h22l-1 18h-13c5-9 10-1 10-11q-5-7-14-2c-5 2-2 14-3 18q1 45 1 90h17q0-5-3-6c-15-4-10-17-10-30l1-1 1 24 13 1v18h-21z"/>
  <path fill="#dbbf78" d="M2217 391q6-1 11 1v119h-11z"/>
  <path fill="#dbc693" d="M2130 326h54q1 9-1 17h-53z"/>
  <path fill="#cd9e5c" d="M2148 331c8-1 26-2 33 3v1q-7 5-15 4h-2c-7 0-25 2-30-3v-2q6-4 14-3"/>
  <path fill="#dbc693" d="M2130 558h54v16h-54z"/>
  <path fill="#dbbf78" d="m2133 562 45 1q3 3 2 7c-12-1-37 2-46 0q-2-4-1-8"/>
  <path fill="#dbc693" d="m2087 429-1-2q-1-5 2-10c4-2 2-2 6-2l2 2c0 10 3 63-1 68h-8v-56"/>
  <path fill="#287147" d="M2167 60c30-4 50 35 55 59 8 34 11 61 2 96-7 28-27 76-64 67-27-10-33-23-42-47s-12-39-12-65v5c1-7 1-29 3-35 4-21 14-50 28-66q12-14 30-14m6 209c60-22 61-135 26-179q-9-11-22-17h-17c-68 27-58 200 13 196"/>
  <path fill="#041102" d="M2166 64c28 0 47 32 53 56 11 40 11 88-10 125q-11 23-36 32c-33 0-50-30-57-59-11-39-8-88 12-124 9-16 19-25 38-30m7 205c60-22 61-135 26-179q-9-11-22-17h-17c-68 27-58 200 13 196"/>
  <path fill="#287147" d="m310 1726 5-4q4 2 5 7 9 22-2 44l6 15c0 9 0 29-3 37l-1 2-3-1c-3-11 2-21-2-33-3-3-3-2-8-2h-1l-4 1h-11l1 36-1 2-5-1c-3-7-6-46 1-50l1 1c0-11-16-54 10-55 0 14-15 23-4 38h2c9-11 4-26 14-37"/>
  <path fill="#f7fdfa" d="M310 1726c15 8 14 39 2 44-5-7 12-23 1-34-9 5-4 34-17 36-14-5-13-40 2-47 0 14-15 23-4 38h2c9-11 4-26 14-37"/>
  <path fill="#d9fcec" d="M287 1783h33c0 8 1 36-1 42l-2 1c-3-11 2-21-2-33-3-3-3-2-8-2h-1l-4 1h-11l1 36-4-1c-2-7-1-35-1-44"/>
  <path fill="#f7fdfa" d="m291 1792-2-2v-3c4-3 22-3 28-1l1 4h-1q-6-1-10 1h-1l-4 1z"/>
  <path fill="#d9fcec" d="M300 434c0 8-6 9-6 15 6 6 20 4 26 8 0 8 1 39-2 43h-3c-2-9 2-21-3-28l-2-1c-1 2-2 21-4 26l-5 2c-4-11-1-15-5-26-3 6 0 25-5 31-4-1-3 0-5-2v-62q0 5 2 7 6-4 12-13"/>
  <path fill="#287147" d="M300 434c0 8-6 9-6 15 6 6 20 4 26 8h-33c0 7-1 40 1 44h2c2-3 1-32 0-36l12 1h4v31l-5 2c-4-11-1-15-5-26-3 6 0 25-5 31-4-1-3 0-5-2v-62q0 5 2 7 6-4 12-13"/>
  <path fill="#d9fcec" d="M302 466h4v31l-5 2z"/>
  <path fill="#287147" d="m307 465 8 1v34c-2-9 2-21-3-28l-2-1c-1 2-2 21-4 26z"/>
  <path fill="#f7fdfa" d="m290 465-1-2c2-6 14-6 18-2v4l-1 1h-4z"/>
  <path fill="#226741" d="M318 1716v1q-14 7-26-2h-1v4l-1 1c-6-8-7-21-7-31l1 5c0-8 1-24 7-29v4l5-3 25 1c8 17-18 10-24 18-2 3 0 12-1 17 5 3 17 0 22 4l-2 1 3 1c2 4 2 2 1 6z"/>
  <path fill="#d9fcec" d="M291 1712c-5-10-8-27-1-36 6-8 22-12 30-6 0 4 1 2-1 6-10 5-36-11-26 29q12 3 23 2l3 1c2 4 2 2 1 6l-2 2c-11-1-19 2-27-4M286 397c5-6 26-5 33-3 2 3 1 2 1 5v1c-1 10 4 47-11 44q-5-3-6-8l-1-4-2 2q-6 9-12 13-2-2-2-7 8-9 15-19l1-14q-5-2-13-2c-3-3-2-3-3-8"/>
  <path fill="#f7fdfa" d="M286 397c5-6 26-5 33-3 2 3 1 2 1 5l-3-2c1 5 2 5 0 8l-1 1h-11l-3 1q-5-2-13-2c-3-3-2-3-3-8"/>
  <path fill="#287147" d="M286 397c5-6 26-5 33-3 2 3 1 2 1 5l-3-2zM316 406c0 8 3 27-5 31-8-4-6-23-6-31z"/>
  <path fill="#d9fcec" d="M302 1847c-5-2-8 1-14-2v-5c5-4 23-2 31-2 2 11 3 43-7 49-7-2-9-10-10-16q-5 10-14 16c-3-8 9-18 13-25z"/>
  <path fill="#287147" d="M306 1846h11c-3 9 2 25-5 31l-3-1c-6-8-4-19-3-30"/>
  <path fill="#f7fdfa" d="M302 1847c-5-2-8 1-14-2v-5c5-4 23-2 31-2l-1 8h-12z"/>
  <path fill="#d9fcec" d="M313 648c-7 0-27 2-29-4-5-19 18-8 25-12 2-2 4-13 5-15 3-2 1-2 5-2l1 1-3 1 2 2c2 9 1 35-1 44h-1q-2-5-1-12l-2 12z"/>
  <path fill="#226741" d="M313 648c-7 0-27 2-29-4-5-19 18-8 25-12 2-2 4-13 5-15 3-2 1-2 5-2l1 1-3 1q-2 9-1 20h-28l-2 5c8 6 25-1 30 6v3l-2 12z"/>
  <path fill="#d9fcec" d="M294 510q4 0 4 2v3l-5 6c-3 6-4 18-1 24q1 4 4 3c9-8 3-28 13-36h4q5 4 6 10 4 17-5 32h-3c-3-5 3-9 4-13q2-7 1-15l-4-6c-8 4-5 29-13 37q-4 0-6-2c-6-4-6-13-7-19q-1-15 8-26"/>
  <path fill="url(#b)" d="M287 568c4-2 27-1 33-1 0 8 1 39-2 43h-1c-2-5-2-30 0-35h-11l-4 1-7-1c-10 6-1 29-5 37-5-6-3-34-3-44"/>
  <path fill="#d9fcec" d="M287 568c4-2 27-1 33-1 0 8 1 39-2 43h-1c-2-5-2-30 0-35l1-1v-3c-6-4-22-1-31-3"/>
  <path fill="#d9fcec" d="m302 576 4-1c0 8 1 25-1 32l-1 1c-4-4-2-25-2-32"/>
  <path fill="#f7fdfa" d="m302 1792 4-1c0 7 1 29-1 33l-2-1c-2-5-1-25-1-31"/>
</svg>
