<svg version="1.2" xmlns="http://www.w3.org/2000/svg" viewBox="0 0 832 1286" width="832" height="1286"><style>.a{fill:#20201e}.b{fill:#b8bab9}.c{fill:#3a3a3a}.d{fill:#a0a09e}</style><path class="a" d="m230.1 8.1c4.8-3.5 11-4.8 16.9-4.8 59.3 0.2 118.7 0.2 178 0.3 40.6 0.2 81.3-0.8 122 0.8 7.6 0.4 15.4 0.4 22.9 2.1 7.1 1.7 13.5 6.1 17.4 12.2 2.5 4 3.4 8.7 3.7 13.3 1.1 41.8 6.8 84.3 24.1 122.7 8.4 17.2 19.1 34.4 35.8 44.7 8.3 5.5 18.7 4.7 27.9 7.8 17.5 5.6 34.6 13.4 48.5 25.6 8.7 7.8 16.5 16.8 21.1 27.6-1.8 1-3.5 2-5.2 3-8.2-7-16.1-14.6-25.4-20.1-20.6-12.4-43.8-21.1-67.9-22.6-157.3-0.7-314.6-1.6-471.9-2.3-9.6-0.1-19.3-0.3-28.9 1.2-12.7 1.7-24.9 5.8-36.7 10.8-13.3 5.9-26 13.4-36.4 23.5-2.6 2.6-5.1 5.3-7.9 7.7-1.8-0.9-3.5-1.9-5.3-2.8 1.9-3.7 4.3-7 6.9-10.1 20-23.9 48.8-40.1 79.4-45.8 14.4-3.2 26.3-13.2 35.1-24.8 16.4-22.3 25.6-49.1 30.8-76.1 5.5-26.7 7.8-53.9 8.5-81 0-5 2.4-10.1 6.6-12.9z"/><path class="a" d="m154.5 244.7c4.8-0.8 9.7-1.2 14.6-1.1 72.3 0.4 144.5 1 216.8 1.2 88.3 0.8 176.6 0.8 264.8 1.5 30.2 1.3 58.8 19.3 73.5 45.5 5.4 9.4 9.3 19.7 11.1 30.4 2.3 11.1 1.7 22.5 1.8 33.8q-0.1 300-0.1 600c0.2 13.2-2.2 26.5-7.4 38.6-8.9 21.4-26.3 39.3-47.7 48.2-11.9 5.4-24.9 7.3-37.9 7.2-147.3 0.3-294.7 0.5-442 1.1-14.4-0.2-28.7 0.5-43.1-0.2-30.4-1.7-58.9-20.5-73.7-46.9-9-15.7-13.2-34-12.9-52q0.1-43 0.8-86c0-51.7 0.4-103.3 0.6-155 0.4-42.6 0.6-85.3 0.7-128 0.3-74 1-148 1.1-222 0.2-15-0.7-30.3 2.6-45.1 4.2-18.8 14.1-36.4 28.7-49.1 13.3-11.9 30.2-19.5 47.7-22.1zm-8.6 145c-0.3 68.4 0 136.9-0.1 205.3 0.1 105.3-0.2 210.6 0.1 315.9 63 0.5 126.1 0.1 189.1 0.2 80.7 0 161.4 0 242 0 29.6-0.1 59.2 0.3 88.8-0.2q0.1-260.5 0.1-521.1c-2 0-4-0.2-5.9-0.2-171.4 0.1-342.8-0.1-514.1 0.1z"/><path class="a" d="m60.6 1049c-0.3-2.1 2-2.9 3.3-4 2.2 2.5 4.7 4.7 7.2 6.8 20.6 16.2 43.6 31 69.8 35.3 15.5 3 31.4 1.8 47.1 2.2q73.5 0.4 147 1c53.3 0.2 106.6 0.6 160 1.1 48.7 0 97.4 0.7 146 0.8 17.2-0.5 34.2-4.2 49.9-11.4 18-7.7 35-17.7 50.2-30.1 2 1.4 4.2 2.7 6.3 3.9-6.7 8.4-13.7 16.7-22.4 23.2-13.9 10.2-29.4 18.8-46.5 22-17.3 3.5-34.6 12-44.6 27.2-9 14.1-17 29-23.4 44.4-11.2 25.6-19.6 52.4-26.1 79.5-1.7 6.6-1.9 13.8-6 19.5-4.2 5.6-9.8 10.6-16.6 12.5-10 3-20.6 1.3-30.8 1.3-27.7-1.4-55.3-1.8-83-2.4-52.6-1.2-105.3-1.9-157.9-0.4-15.4 0.4-30.7 1.2-46.1 1.5-9.3 0.3-19.2-2.3-26-8.9-4.3-4.1-5.8-10.2-5.6-16 0.3-25.9-4.4-51.7-13-76.1-4.8-15.1-11-29.8-18.4-43.9-5.2-10-11.2-19.8-19.1-28-4.2-4.5-10.2-6.2-15.7-8.4-11.4-4.4-23.1-7.8-34.4-12.5-15.9-6.5-31.2-15.2-43.4-27.4-3.2-3.7-7.1-7.6-7.8-12.7z"/><path class="b" d="m149.1 219.6c9.6-1.5 19.3-1.3 28.9-1.2 157.3 0.7 314.6 1.6 471.9 2.3 24.1 1.5 47.3 10.2 67.9 22.6 9.3 5.5 17.2 13.1 25.4 20.1 3.6 2.3 5.3 6.3 7.7 9.7 13.6 20.8 19.6 45.6 21.8 70.1 1.7 12.9 0.9 25.9 1 38.8-0.1 5.9 0.2 11.7-0.2 17.6-3.7 3.3-5.8 7.8-7.6 12.3-8.6 20.2-7.4 43.7 0.1 64.1 1.9 4.7 3.2 9.7 6.6 13.6l0.9 1.2c0.2 18.7-0.3 37.5-0.3 56.2-0.1 2.9 0.3 5.9-0.7 8.7-2.1 6.3-4 12.7-5.8 19.1-1.7 6.3-1 12.8-1 19.2 0.2 43.6 0.7 87.3 1.2 131 0.9 14.7-0.2 29.6 3.3 44 0.1 1.3 1.4 1.8 2.2 2.5 0.2 68.5-0.1 137-0.2 205.5-1 19.8-6.2 39.6-16.5 56.6-4.2 6.2-8.8 12.4-14.6 17.1-15.2 12.4-32.2 22.4-50.2 30.1-15.7 7.2-32.7 10.9-49.9 11.4-48.6-0.1-97.3-0.8-146-0.8-53.4-0.5-106.7-0.9-160-1.1q-73.5-0.6-147-1c-15.7-0.4-31.6 0.8-47.1-2.2-26.2-4.3-49.2-19.1-69.8-35.3-2.5-2.1-5-4.3-7.2-6.8-17.1-19.7-27.9-45-30-71-0.9-9.3-0.3-18.7-0.3-28 1.3-106.4 2.1-212.7 2.8-319.1 0.6-86.3 1.3-172.6 1.7-258.9 0.1-14.4-0.3-28.8 2.1-43 3.3-19.9 10.3-39.4 21.9-56 1.8-2.7 3.6-5.3 6-7.4 2.8-2.4 5.3-5.1 7.9-7.7 10.4-10.1 23.1-17.6 36.4-23.5 11.8-5 24-9.1 36.7-10.8zm5.4 25.1c-17.6 2.6-34.4 10.2-47.7 22.1-14.6 12.7-24.5 30.3-28.8 49.1-3.2 14.8-2.3 30.1-2.5 45.1-0.1 74-0.8 148-1.1 222-0.1 42.7-0.3 85.4-0.7 128-0.2 51.7-0.6 103.3-0.6 155q-0.7 43-0.8 86c-0.3 18 3.9 36.3 12.9 52 14.8 26.4 43.3 45.2 73.7 46.9 14.4 0.7 28.7 0 43.1 0.2 147.3-0.6 294.7-0.8 442-1.1 13 0.1 26-1.8 37.9-7.2 21.4-8.9 38.8-26.8 47.7-48.2 5.2-12.1 7.6-25.4 7.4-38.6q0-300 0.1-600c-0.1-11.3 0.5-22.7-1.8-33.8-1.8-10.7-5.7-21-11.1-30.4-14.7-26.2-43.3-44.2-73.5-45.5-88.2-0.7-176.5-0.7-264.8-1.5-72.3-0.2-144.6-0.8-216.9-1.2-4.8-0.1-9.7 0.3-14.5 1.1z"/><path class="c" d="m145.9 389.7c171.3-0.2 342.7 0 514.1-0.1 1.9 0 3.9 0.2 5.9 0.2q0 260.6-0.1 521.1c-29.6 0.5-59.2 0.1-88.8 0.2-80.7 0-161.3 0-242 0-63-0.1-126.1 0.3-189.1-0.2-0.3-105.3 0-210.6-0.1-315.9 0.1-68.4-0.2-136.9 0.1-205.3z"/><path class="d" d="m773.5 399.6c8.8 0.3 17.6-0.5 26.5-0.8 3.5 5.8 8.6 10.7 11.1 17.1 3.4 8.2 4 17.3 4.2 26.1 0.2 11.4-0.3 23.4-5.8 33.6-2.6 4.6-5.4 9.2-8.7 13.3-9.4 1-18.9-0.7-28.2 0.7-3.4-3.9-4.7-8.9-6.6-13.6-7.5-20.4-8.7-43.9-0.1-64.1 1.8-4.5 3.9-9 7.6-12.3z"/><path class="d" d="m766.7 574.8c1.8-6.4 3.7-12.8 5.8-19.1 3.3 0.4 6.6 0.3 9.8 1.1 3 0.9 3.1 4.5 3.2 7.1 1.9 63.7 2.9 127.4 4.6 191.1 0.8 9.4-8.4 18-17.7 16.5-0.8-0.7-2.1-1.2-2.2-2.4-3.5-14.5-2.4-29.4-3.3-44.1-0.5-43.7-1-87.3-1.2-131 0-6.4-0.7-12.9 1-19.2z"/></svg>