<svg xmlns="http://www.w3.org/2000/svg" width="2455" height="4096" preserveAspectRatio="none" style="display:block" viewBox="0 0 4096 4096">
  <defs>
    <linearGradient id="g" x1="3204.3" x2="3199.6" y1="3132.8" y2="3100.9" gradientUnits="userSpaceOnUse">
      <stop class="stop0" offset="0" stop-color="#7e7e7e"/>
      <stop class="stop1" offset="1" stop-color="#979796"/>
    </linearGradient>
    <linearGradient id="f" x1="3200.7" x2="3197.1" y1="2942" y2="2996.1" gradientUnits="userSpaceOnUse">
      <stop class="stop0" offset="0" stop-color="#89898a"/>
      <stop class="stop1" offset="1" stop-color="#bcbbbc"/>
    </linearGradient>
    <linearGradient id="e" x1="3232.4" x2="3181.3" y1="3046.7" y2="3024.4" gradientUnits="userSpaceOnUse">
      <stop class="stop0" offset="0" stop-color="#9e9f9c"/>
      <stop class="stop1" offset="1" stop-color="#d3d3d4"/>
    </linearGradient>
    <linearGradient id="d" x1="3688.3" x2="3705.2" y1="3092.4" y2="3006.2" gradientUnits="userSpaceOnUse">
      <stop class="stop0" offset="0" stop-color="#a1a1a1"/>
      <stop class="stop1" offset="1" stop-color="#e4e5e4"/>
    </linearGradient>
    <linearGradient id="c" x1="3440" x2="3440" y1="3146.3" y2="3101.7" gradientUnits="userSpaceOnUse">
      <stop class="stop0" offset="0" stop-color="#787878"/>
      <stop class="stop1" offset="1" stop-color="#9a9a9a"/>
    </linearGradient>
    <linearGradient id="b" x1="3440" x2="3440" y1="2925.8" y2="2994.2" gradientUnits="userSpaceOnUse">
      <stop class="stop0" offset="0" stop-color="#7b7c7c"/>
      <stop class="stop1" offset="1" stop-color="#bcbcbc"/>
    </linearGradient>
    <linearGradient id="a" x1="3439.9" x2="3440.1" y1="3106.4" y2="2993.6" gradientUnits="userSpaceOnUse">
      <stop class="stop0" offset="0" stop-color="#a2a2a2"/>
      <stop class="stop1" offset="1" stop-color="#d9d9d9"/>
    </linearGradient>
  </defs>
  <path fill="#f5f5f5" d="M302 2290c27-19 56-21 88-23 28-2 99-2 122 18 7 4 9 5 18 5h2060c24 0 110-2 128 2q-10-1-19 2l-2 4c71 6 174 30 181 118v221c0 180-2 364 1 544l2-37 2 96c1 25-5 49 9 70 3 136-1 277-1 413v151c0 36 3 93-5 126-14 57-112 91-161 93-11 0-14-1-24 3H187c-11-5-25-3-39-5-36-6-60-15-92-32-21-15-38-30-49-55l-7-13V2403l5-9c2-12 17-34 26-43 76-70 178-61 271-61"/>
  <path fill="#020202" d="m0 2403 5-9c7 23 2 42 6 61 0-7-1-24 2-28q2 190 1 379v722l-1 310v96c0 39-6 72 26 99l19 18c47 26 84 36 138 36l155 1h326l1014-1 699 1h214c36 0 91 1 126-3 55-8 140-34 147-101q3-42 2-84v-157q-2-282 0-562l2-37 2 96c1 25-5 49 9 70 3 136-1 277-1 413v151c0 36 3 93-5 126-14 57-112 91-161 93-11 0-14-1-24 3H187c-11-5-25-3-39-5-36-6-60-15-92-32-21-15-38-30-49-55l-7-13zM512 2285c7 4 9 5 18 5h2060c24 0 110-2 128 2q-10-1-19 2l-2 4H1248q-209 1-419-1c-11-3-46-2-59-2H594c-13 0-81 4-87-5l1-1 1 2v-4h-1z"/>
  <path fill="#242424" d="M302 2290c27-19 56-21 88-23 28-2 99-2 122 18l-4 2h1v4l-1-2-1 1c6 9 74 5 87 5h176c13 0 48-1 59 2l-443 1c-103 0-371-28-373 129-3 4-2 21-2 28-4-19 1-38-6-61 2-12 17-34 26-43 76-70 178-61 271-61"/>
  <path fill="#3db254" d="M410 2273c45-1 60-1 101 17H314c34-18 58-17 96-17"/>
  <path fill="#020202" d="M178 2394c44-2 103 0 148 0h2247l139 1c21 0 56 13 57 38v1499c-1 9-1 29-8 35-29 28-93 20-131 20l-560-1c-4 14-5 22-14 34-34 44-97 54-148 54H991c-60 1-158-13-168-87H432c-49 0-249 5-280-6q-18-6-27-23c-6-15-2-415-2-466V2462c0-7 1-39 4-43 13-16 33-21 51-25"/>
  <path fill="#f5f5f5" d="m829 3986 1234 1c-8 26-13 33-34 50q-31 22-69 28c-35 7-137 5-178 5h-709c-70 0-226 13-244-84"/>
  <path fill="#242424" d="M3879 0h39c28 6 83 23 83 58-1 28 5 100-2 125l-7 3c-7 19 9 19 9 38q1 24-1 47c-5 97-3 194-4 291q-2 113 0 225c2 60 18 137 26 197 22 148 53 296 67 445q3 51 2 104v158l2 585v30l3 1v838c-14 20-20 22-44 26q-43 5-86 3c-79 0-168 4-228-54-26-1-46-2-72 0 0 17 4 31-14 37-10-5-361-4-403-2q96 2 192 2c-68 4-144-3-212 1-13-5-27-31-46-2l-9-2c-17-3-144-3-161-1q-6 0-10 3l-4-1 4 1 1 4c-24 0-21-13-50-12l4-9-2-1c-6-6-3-179-3-201l-9-9c12-4 21-3 33-5q4-6 10-9c32 3 70 0 102 1h37c-39 1-78-1-116 3 34 1 141 2 172-2l6 12c4 3 18 4 22 0 23-18 46-13 76-13h102l244 1q13 0 25 3c11 9 9 22 9 35 14 0 60 6 61-10-5-9-9-9-17-15l5-7q-15-11-25-27 0-28-1-61l-1 23q-1 1-4-1l-1 1c-5-7-4-151-2-172q1-13-1-26l2-2c4 12-1 140 3 167 6-16 0-58 5-67V1608c0-51-1-109 2-160 4-57 13-119 23-175-8-8-6-8-7-22-2-6 42-265 47-289 37-186 32-357 32-547 5-7-1-9 3-14l4 7 2-1 2-15c3-37 2-103 3-143l-9 13c0-15-2-40 1-54q14-8 8-23c-6-1-4 0-9-3-3-30 0-85 1-116 1-43 49-58 86-66m-87 262 9-13v-36l188 1c0 133-5 267-6 400 0 68-3 139 4 206q11 91 26 181l39 237c10 67 22 139 26 208q3 102 2 206v820q2 177-1 354c-127 0-262-2-389 0v-69c-5 9 1 51-5 67-4-27 1-155-3-167l-2 2q2 13 1 26c-2 21-3 165 2 172l1-1q3 2 4 1l1-23q1 33 1 61 10 16 25 27l-5 7c8 6 12 6 17 15-1 16-47 10-61 10 0-13 2-26-9-35q-13-3-25-3l-244-1h-102c-30 0-53-5-76 13-4 4-18 3-22 0l-6-12c-31 4-138 3-172 2 38-4 77-2 116-3h-37c-32-1-70 2-102-1q-6 3-10 9c-12 2-21 1-33 5l9 9c0 22-3 195 3 201l2 1-4 9c29-1 26 12 50 12l-1-4-4-1 4 1q4-3 10-3c17-2 144-2 161 1l9 2c19-29 33-3 46 2 68-4 144 3 212-1q-96 0-192-2c42-2 393-3 403 2 18-6 14-20 14-37 26-2 46-1 72 0 60 58 149 54 228 54q43 2 86-3c24-4 30-6 44-26v-838l-3-1v-30l-2-585v-158q1-53-2-104c-14-149-45-297-67-445-8-60-24-137-26-197q-2-112 0-225c1-97-1-194 4-291q2-23 1-47c0-19-16-19-9-38l7-3c7-25 1-97 2-125 0-35-55-52-83-58h-39c-37 8-85 23-86 66-1 31-4 86-1 116 5 3 3 2 9 3q6 14-8 23c-3 14-1 39-1 54"/>
  <path fill="#020202" d="M3879 0h39c28 6 83 23 83 58-1 28 5 100-2 125l-7 3c-7 19 9 19 9 38q1 24-1 47c-5 97-3 194-4 291q-2 113 0 225c2 60 18 137 26 197 22 148 53 296 67 445q3 51 2 104v158l2 585v30l3 1v838c-14 20-20 22-44 26q-43 5-86 3c-79 0-168 4-228-54-26-1-46-2-72 0 0 17 4 31-14 37-10-5-361-4-403-2q96 2 192 2c-68 4-144-3-212 1-13-5-27-31-46-2l-9-2c-17-3-144-3-161-1q-6 0-10 3l-4-1 4 1 1 4c-24 0-21-13-50-12l4-9-2-1c-6-6-3-179-3-201l-9-9c12-4 21-3 33-5q4-6 10-9c32 3 70 0 102 1h37c-39 1-78-1-116 3 34 1 141 2 172-2l6 12c4 3 18 4 22 0 23-18 46-13 76-13h102l244 1q13 0 25 3c11 9 9 22 9 35 14 0 60 6 61-10-5-9-9-9-17-15l5-7q-15-11-25-27 0-28-1-61l-1 23q-1 1-4-1l-1 1c-5-7-4-151-2-172q1-13-1-26l2-2c4 12-1 140 3 167 6-16 0-58 5-67v69c127-2 262 0 389 0q3-177 1-354v-820q1-104-2-206c-4-69-16-141-26-208l-39-237q-15-90-26-181c-7-67-4-138-4-206 1-133 6-267 6-400l-188-1v36l-9 13c0-15-2-40 1-54q14-8 8-23c-6-1-4 0-9-3-3-30 0-85 1-116 1-43 49-58 86-66m-79 123c1-12 5-47-2-56-1 15-4 42 2 56m-141 3024q2-11 0-23l-2-2q-5 11-1 23z"/>
  <path fill="#242424" d="M3689 2834h391v187c0 26 3 111-4 133-12 11-47 13-64 12-84-3-219 16-274-64-2-54-1-113 0-167l-23-13q-15-11-25-27 0-28-1-61"/>
  <path fill="#4c4c4c" d="M2993 3015h113c17 0 51-1 66 1l1 3q1 7-1 14v3c1 6 2 8 1 14v4l1 12v7l-1 13v4l1 11-1 5v13l1 35c-17-3-144-3-161-1-8 0-13 1-19-5-2-12-3-69-1-81v-13c-3-11 1-35 0-39"/>
  <path fill="#4c4c4c" d="M2993 3015h113c17 0 51-1 66 1l1 3q1 7-1 14v3c1 6 2 8 1 14v4c-44 4-136 2-180 0-3-11 1-35 0-39"/>
  <path fill="#c7c7c6" d="M3172 3033q-84-1-169 0-7-1-12-8l1-2c7-6 46-3 58-3l123-1q1 7-1 14M3172 3036c1 6 2 8 1 14h-120c-18 0-41 1-58-1-3-4-2-1-2-8q4-4 11-4c53-1 116 3 168-1M3173 3086q-58-2-118-1h-56c-6-5-5-2-7-9l3-2c10-3 38-2 50-2q64 0 129 1z"/>
  <path fill="#939493" d="M3173 3106v13c-39 3-84-1-124 0-12 1-50 3-56-4v-3q4-5 10-5c53-3 117 5 170-1"/>
  <path fill="#c7c7c6" d="M2993 3054c44 2 136 4 180 0l1 12c-7 2-166 2-181 1z"/>
  <path fill="#a9a9a9" d="M3174 3101c-16 3-163 3-178 0-3-5-2-2-2-9 6-5 156-2 179-2z"/>
  <path fill="#939493" d="M2993 3124c22 0 170-2 179 2l3 10c-22 0-174 2-180-2z"/>
  <path fill="#c7c7c6" d="m3173 2966 1 14 1 4-1 14-1 3q2 8-1 15c-15-2-49-1-66-1h-113l-1-13v-4l-1-14v-4l1-13c58 0 124 2 181-1"/>
  <path fill="#c7c7c6" d="M2992 3002q91 0 181-1 2 8-1 15c-15-2-49-1-66-1h-113zM3173 2966l1 14c-50 2-131 1-183 0l1-13c58 0 124 2 181-1"/>
  <path fill="#242424" d="M2991 2980c52 1 133 2 183 0l1 4c-56-2-127 0-184 0zM2992 2998c57-1 125-2 182 0l-1 3q-90 1-181 1z"/>
  <path fill="#4c4c4c" d="M2993 2950c-1-9-3-21 2-28 18-3 167-4 177 0 1 9 3 32 2 40l-1 4c-57 3-123 1-181 1v-6z"/>
  <path fill="#a9a9a9" d="M2993 2950c19 1 174-1 178 2l3 10-1 4c-57 3-123 1-181 1v-6z"/>
  <path fill="#4c4c4c" d="M2992 2961c27 2 65 1 93 1h89l-1 4c-57 3-123 1-181 1z"/>
  <path fill="#939493" d="m3170 2934 3 3-1 5c-6 4-152 2-174 3l-4-2v-5l2-3c10-3 40-1 53-1z"/>
  <path fill="#c7c7c6" d="M2955 2936c6-2 22-6 22 4q3 71 1 141c0 17 4 44-3 57q-8 3-17 1l-2-1c-6-6-3-179-3-201z"/>
  <path fill="#939493" d="M2955 2936v113c0 10 4 41 1 46 5 1 3 1 9-1l6 4q5-7 7-17c0 17 4 44-3 57q-8 3-17 1l-2-1c-6-6-3-179-3-201z"/>
  <path fill="url(#a)" d="M3230 2924c67-3 144 0 210-1 26-1 199-3 211 5 3 14 1 71 1 89v56c0 15 3 65-3 76-18 4-56 3-76 3h-266c-21 0-56 1-76-1-1-15-2-47-1-62v-165"/>
  <path fill="url(#b)" d="M3230 2924c67-3 144 0 210-1 26-1 199-3 211 5 3 14 1 71 1 89l-5-19c-27-6-56-1-84-2-103-4-207 5-310-1l-6 2-6 7-2-1 1-7h-2c-5 10 1 12-4 17l-2-1-2 2z"/>
  <path fill="url(#c)" d="M3230 3089c4 3 3 16 3 22l4-7c3-3 362-2 402-1l8 4c3-10 2-22 5-34 0 15 3 65-3 76-18 4-56 3-76 3h-266c-21 0-56 1-76-1-1-15-2-47-1-62"/>
  <path fill="#242424" d="M3877 8c31-3 73 0 96 24q12 13 16 28c4 18 1 95 1 118h-187c2-81-24-149 74-170"/>
  <path fill="url(#d)" d="M3666 2977v-10c10-9 43-4 59-5 1 23 0 138 3 150h-62v-135"/>
  <path fill="#939493" d="M3666 2977v-10c10-9 43-4 59-5 1 23 0 138 3 150h-62v-43c3 10 0 15 9 22 5 0 44 0 48 3l1-82-1-24c-13-3-43-8-54 1l-3 12z"/>
  <path fill="#a9a9a9" d="m3666 2977 3-4h54v15c-13-3-43-8-54 1l-3 12z"/>
  <path fill="#c7c7c6" d="m3666 3001 3-12c11-9 41-4 54-1l1 24c-9-2-41-8-48-5-13 15-4 42-10 48z"/>
  <path fill="url(#e)" d="M3187 2938h29c1 18 2 42 0 59 2 27 1 65 1 93v47l-29 1v-117z"/>
  <path fill="url(#f)" d="M3187 2938h29c1 18 2 42 0 59-5-6-2-16-5-28-1 9 1 33-4 39q-7 0-13-7c-4 7 1 9-6 20z"/>
  <path fill="url(#g)" d="m3188 3047 1 2c7 22-1 41 9 53q8 1 15-5l4-7v47l-29 1z"/>
  <path fill="#242424" d="M3814 186c26 1 144-2 160 2q3 8 2 17l-100 1c-16 0-45 1-59-1q-5-9-3-19"/>
  <path fill="#020202" fill-opacity=".9" d="M3798 67c7 9 3 44 2 56-6-14-3-41-2-56M3657 3122l2 2q2 12 0 23l-3-2q-4-12 1-23"/>
  <path fill="#020202" d="M3798 392c5 106-6 221-3 328l-2 50c-19 168-51 335-78 503-8-8-6-8-7-22-2-6 42-265 47-289 37-186 32-357 32-547 5-7-1-9 3-14l4 7 2-1zM2718 2292c70 8 156 35 173 114 1 8 2 21 1 29v160c-3 14-2 43-2 58l-2 1c-5-32 3-235-3-245-4 19-1 40-1 59l-1 118v190c0 23-1 67 1 89l2 2c5-8-4-154 3-173l3 15v251h48c0-12-2-24 4-32l9 9c0 22-3 195 3 201l2 1-4 9c-17-7-15-12-15-30h-47c0 61 2 132 0 192-14-21-8-45-9-70l-2-96-2 37c-3-180-1-364-1-544v-221c-7-88-110-112-181-118l2-4q9-3 19-2"/>
  <path fill="#c7c7c6" d="M2892 2968h48v52c1 28 0 62-1 90h-47v-142"/>
  <path fill="#a9a9a9" d="M2892 3063c1 12 2 19 5 30q3-4 2-9l4 3q14 7 31 4l1-9 2 4c0-12 0-57 3-66 1 28 0 62-1 90h-47z"/>
  <path fill="#020202" d="M3708 1251c1 14-1 14 7 22-10 56-19 118-23 175-3 51-2 109-2 160v1149c-5 9 1 51-5 67-4-27 1-155-3-167l-2 2q2 13 1 26c-2 21-3 165 2 172l1-1q3 2 4 1l1-23q1 33 1 61 10 16 25 27l-5 7c-14-7-25-22-32-34V1717c0-127-5-254 15-380 4-26 7-60 15-86"/>
  <path fill="#020202" fill-opacity=".9" d="m2892 2709-3-15c-7 19 2 165-3 173l-2-2c-2-22-1-66-1-89v-190l1-118c0-19-3-40 1-59 6 10-2 213 3 245l2-1c0-15-1-44 2-58zM3229 3158c68-4 144 3 212-1q-96 0-192-2c42-2 393-3 403 2-10 4-401 5-423 1"/>
  <path fill="#020202" d="m3792 262 9-13c-1 40 0 106-3 143l-2 15-2 1-4-7c-4 5 2 7-3 14-1-41 1-113 5-153M3174 3154l9 2c-17 7-150 4-179 4l-1-4-4-1 4 1q4-3 10-3c17-2 144-2 161 1"/>
  <path fill="#020202" fill-opacity=".9" d="M2987 2914c21-3 180-4 195 2-31 4-138 3-172 2 38-4 77-2 116-3h-37c-32-1-70 2-102-1"/>
</svg>
