<?xml version="1.0" encoding="UTF-8"?>
<svg id="Layer_1" data-name="Layer 1" xmlns="http://www.w3.org/2000/svg" xmlns:xlink="http://www.w3.org/1999/xlink" viewBox="0 0 663.55 588.38">
  <defs>
    <style>
      .cls-1 {
        fill: #0c207b;
      }

      .cls-2 {
        fill: #0f141b;
      }

      .cls-3 {
        fill: #15531f;
      }

      .cls-4 {
        fill: #121e1a;
      }

      .cls-5 {
        fill: url(#linear-gradient-8);
      }

      .cls-6 {
        fill: url(#linear-gradient-7);
      }

      .cls-7 {
        fill: url(#linear-gradient-5);
      }

      .cls-8 {
        fill: url(#linear-gradient-6);
      }

      .cls-9 {
        fill: url(#linear-gradient-9);
      }

      .cls-10 {
        fill: url(#linear-gradient-4);
      }

      .cls-11 {
        fill: url(#linear-gradient-3);
      }

      .cls-12 {
        fill: url(#linear-gradient-2);
      }

      .cls-13 {
        fill: #54bcf6;
      }

      .cls-14 {
        fill: url(#linear-gradient);
      }

      .cls-15 {
        fill: #68bb64;
      }

      .cls-16 {
        fill: #0d132b;
      }

      .cls-17 {
        fill: #194cb3;
      }

      .cls-18 {
        fill: #235825;
      }

      .cls-19 {
        fill: #327528;
      }

      .cls-20 {
        fill: #d3ee4c;
      }

      .cls-21 {
        fill: #73c254;
      }

      .cls-22 {
        fill: #cde371;
      }

      .cls-23 {
        fill: #10221a;
      }

      .cls-24 {
        fill: url(#linear-gradient-10);
      }

      .cls-25 {
        fill: url(#linear-gradient-11);
      }

      .cls-26 {
        fill: url(#linear-gradient-12);
      }

      .cls-27 {
        fill: url(#linear-gradient-13);
      }

      .cls-28 {
        fill: url(#linear-gradient-19);
      }

      .cls-29 {
        fill: url(#linear-gradient-14);
      }

      .cls-30 {
        fill: url(#linear-gradient-21);
      }

      .cls-31 {
        fill: url(#linear-gradient-20);
      }

      .cls-32 {
        fill: url(#linear-gradient-22);
      }

      .cls-33 {
        fill: url(#linear-gradient-23);
      }

      .cls-34 {
        fill: url(#linear-gradient-25);
      }

      .cls-35 {
        fill: url(#linear-gradient-15);
      }

      .cls-36 {
        fill: url(#linear-gradient-16);
      }

      .cls-37 {
        fill: url(#linear-gradient-17);
      }

      .cls-38 {
        fill: url(#linear-gradient-18);
      }

      .cls-39 {
        fill: url(#linear-gradient-24);
      }

      .cls-40 {
        fill: url(#linear-gradient-26);
      }

      .cls-41 {
        fill: #8ccc2a;
      }

      .cls-42 {
        fill: #88d6f3;
      }

      .cls-43 {
        fill: #2e8ae2;
      }

      .cls-44 {
        fill: #dbf45b;
      }

      .cls-45 {
        fill: #baeaf8;
      }

      .cls-46 {
        fill: #4ea230;
      }

      .cls-47 {
        fill: #102a91;
      }
    </style>
    <linearGradient id="linear-gradient" x1="499.79" y1="277.37" x2="189.84" y2="594.73" gradientTransform="translate(64.22 433.82) scale(.5 -.5)" gradientUnits="userSpaceOnUse">
      <stop offset="0" stop-color="#031190"/>
      <stop offset="1" stop-color="#2f9cf2"/>
    </linearGradient>
    <linearGradient id="linear-gradient-2" x1="742.77" y1="237.44" x2="738.1" y2="243.3" gradientTransform="translate(64.22 433.82) scale(.5 -.5)" gradientUnits="userSpaceOnUse">
      <stop offset="0" stop-color="#0e0c00"/>
      <stop offset="1" stop-color="#122255"/>
    </linearGradient>
    <linearGradient id="linear-gradient-3" x1="810.97" y1="355.45" x2="717.98" y2="472.12" xlink:href="#linear-gradient-2"/>
    <linearGradient id="linear-gradient-4" x1="650.19" y1="-46.46" x2="228.19" y2="483.01" xlink:href="#linear-gradient-2"/>
    <linearGradient id="linear-gradient-5" x1="211.65" y1="252.31" x2="195.31" y2="393.51" gradientTransform="translate(64.22 433.82) scale(.5 -.5)" gradientUnits="userSpaceOnUse">
      <stop offset="0" stop-color="#3ea5e9"/>
      <stop offset="1" stop-color="#ccf6fb"/>
    </linearGradient>
    <linearGradient id="linear-gradient-6" x1="716.51" y1="293.45" x2="689.03" y2="383.43" gradientTransform="translate(64.22 433.82) scale(.5 -.5)" gradientUnits="userSpaceOnUse">
      <stop offset="0" stop-color="#5eb827"/>
      <stop offset="1" stop-color="#b0dd45"/>
    </linearGradient>
    <linearGradient id="linear-gradient-7" x1="711.53" y1="238.09" x2="703.41" y2="312.73" gradientTransform="translate(64.22 433.82) scale(.5 -.5)" gradientUnits="userSpaceOnUse">
      <stop offset="0" stop-color="#28a817"/>
      <stop offset="1" stop-color="#6ac129"/>
    </linearGradient>
    <linearGradient id="linear-gradient-8" x1="533.67" y1="354.68" x2="507.51" y2="458.67" gradientTransform="translate(64.22 433.82) scale(.5 -.5)" gradientUnits="userSpaceOnUse">
      <stop offset="0" stop-color="#aade44"/>
      <stop offset="1" stop-color="#fefe55"/>
    </linearGradient>
    <linearGradient id="linear-gradient-9" x1="678.32" y1="370.61" x2="656.13" y2="446.5" gradientTransform="translate(64.22 433.82) scale(.5 -.5)" gradientUnits="userSpaceOnUse">
      <stop offset="0" stop-color="#a9dd41"/>
      <stop offset="1" stop-color="#eaf751"/>
    </linearGradient>
    <linearGradient id="linear-gradient-10" x1="606.98" y1="279.39" x2="606.88" y2="370.41" gradientTransform="translate(64.22 433.82) scale(.5 -.5)" gradientUnits="userSpaceOnUse">
      <stop offset="0" stop-color="#44b21a"/>
      <stop offset="1" stop-color="#afdf47"/>
    </linearGradient>
    <linearGradient id="linear-gradient-11" x1="518.44" y1="239.39" x2="489.94" y2="353.87" gradientTransform="translate(64.22 433.82) scale(.5 -.5)" gradientUnits="userSpaceOnUse">
      <stop offset="0" stop-color="#1fa112"/>
      <stop offset="1" stop-color="#b0de3d"/>
    </linearGradient>
    <linearGradient id="linear-gradient-12" x1="150.93" y1="189.66" x2="146.54" y2="262.96" gradientTransform="translate(64.22 433.82) scale(.5 -.5)" gradientUnits="userSpaceOnUse">
      <stop offset="0" stop-color="#115fd6"/>
      <stop offset="1" stop-color="#50b2eb"/>
    </linearGradient>
    <linearGradient id="linear-gradient-13" x1="394.73" y1="274.77" x2="377.23" y2="379.51" gradientTransform="translate(64.22 433.82) scale(.5 -.5)" gradientUnits="userSpaceOnUse">
      <stop offset="0" stop-color="#48aded"/>
      <stop offset="1" stop-color="#b3edfa"/>
    </linearGradient>
    <linearGradient id="linear-gradient-14" x1="352.55" y1="180.86" x2="354.93" y2="282.01" gradientTransform="translate(64.22 433.82) scale(.5 -.5)" gradientUnits="userSpaceOnUse">
      <stop offset="0" stop-color="#0e62de"/>
      <stop offset="1" stop-color="#4bb1f0"/>
    </linearGradient>
    <linearGradient id="linear-gradient-15" x1="469.32" y1="368.66" x2="330.68" y2="604.34" gradientTransform="translate(64.22 433.82) scale(.5 -.5)" gradientUnits="userSpaceOnUse">
      <stop offset="0" stop-color="#070e52"/>
      <stop offset="1" stop-color="#143ba9"/>
    </linearGradient>
    <linearGradient id="linear-gradient-16" x1="419.92" y1="710.47" x2="363.18" y2="794.69" gradientTransform="translate(64.22 433.82) scale(.5 -.5)" gradientUnits="userSpaceOnUse">
      <stop offset="0" stop-color="#2b88df"/>
      <stop offset="1" stop-color="#62d7ff"/>
    </linearGradient>
    <linearGradient id="linear-gradient-17" x1="223.98" y1="412.91" x2="92.29" y2="572.65" gradientTransform="translate(64.22 433.82) scale(.5 -.5)" gradientUnits="userSpaceOnUse">
      <stop offset="0" stop-color="#1f8be7"/>
      <stop offset="1" stop-color="#69dfff"/>
    </linearGradient>
    <linearGradient id="linear-gradient-18" x1="887.4" y1="-66.88" x2="681.64" y2="179.63" gradientTransform="translate(64.22 433.82) scale(.5 -.5)" gradientUnits="userSpaceOnUse">
      <stop offset="0" stop-color="#0c8919"/>
      <stop offset="1" stop-color="#82cf23"/>
    </linearGradient>
    <linearGradient id="linear-gradient-19" x1="825.41" y1="34.28" x2="569.92" y2="292.83" gradientTransform="translate(64.22 433.82) scale(.5 -.5)" gradientUnits="userSpaceOnUse">
      <stop offset="0" stop-color="#83d121"/>
      <stop offset="1" stop-color="#ddf53c"/>
    </linearGradient>
    <linearGradient id="linear-gradient-20" x1="535.49" y1="8.4" x2="429.32" y2="183.73" gradientTransform="translate(64.22 433.82) scale(.5 -.5)" gradientUnits="userSpaceOnUse">
      <stop offset="0" stop-color="#c9ef5b"/>
      <stop offset="1" stop-color="#fbfc67"/>
    </linearGradient>
    <linearGradient id="linear-gradient-21" x1="997.35" y1="443.7" x2="891.22" y2="628.83" gradientTransform="translate(64.22 433.82) scale(.5 -.5)" gradientUnits="userSpaceOnUse">
      <stop offset="0" stop-color="#7cc71f"/>
      <stop offset="1" stop-color="#d3f135"/>
    </linearGradient>
    <linearGradient id="linear-gradient-22" x1="672.76" y1="-252.17" x2="553.86" y2="-67.85" gradientTransform="translate(64.22 433.82) scale(.5 -.5)" gradientUnits="userSpaceOnUse">
      <stop offset="0" stop-color="#17981a"/>
      <stop offset="1" stop-color="#83cb23"/>
    </linearGradient>
    <linearGradient id="linear-gradient-23" x1="740.79" y1="-184.74" x2="766.03" y2="-229.05" gradientTransform="translate(64.22 433.82) scale(.5 -.5)" gradientUnits="userSpaceOnUse">
      <stop offset="0" stop-color="#1e661c"/>
      <stop offset="1" stop-color="#114a23"/>
    </linearGradient>
    <linearGradient id="linear-gradient-24" x1="862.1" y1="368.71" x2="827.82" y2="441.23" gradientTransform="translate(64.22 433.82) scale(.5 -.5)" gradientUnits="userSpaceOnUse">
      <stop offset="0" stop-color="#a8dc38"/>
      <stop offset="1" stop-color="#ebf945"/>
    </linearGradient>
    <linearGradient id="linear-gradient-25" x1="881.71" y1="232.27" x2="858.22" y2="329.49" gradientTransform="translate(64.22 433.82) scale(.5 -.5)" gradientUnits="userSpaceOnUse">
      <stop offset="0" stop-color="#2ba916"/>
      <stop offset="1" stop-color="#75c52c"/>
    </linearGradient>
    <linearGradient id="linear-gradient-26" x1="799.98" y1="312.35" x2="783.55" y2="373.74" gradientTransform="translate(64.22 433.82) scale(.5 -.5)" gradientUnits="userSpaceOnUse">
      <stop offset="0" stop-color="#7dc82d"/>
      <stop offset="1" stop-color="#c2e742"/>
    </linearGradient>
  </defs>
  <path d="M479.58,465.53c-151.39,11.32-324.32-5.16-319.61-199.53,0-101.32,82.15-183.47,183.48-183.47,141.65-10.16,314.64,1.15,319.61,183.5,7.67,106.63-75.64,200-183.48,199.5Z"/>
  <path d="M325.46,482.04C176.91,490.4-5.3,488.71.12,290.08c0-96.65,78.36-175.01,175.02-175.01,138.3-7.1,320.16-9.99,325.34,175.03,7.93,102.23-71.4,192.46-175.02,191.94Z"/>
  <path d="M370.86,205.07c-80.27,3.74-195.14,8.34-196.91-101.83C175.77-6.89,290.57-2.32,370.86,1.44c133.13.58,133.17,203.05,0,203.63Z"/>
  <path d="M381,586.91c-82.2,3.83-199.82,8.54-201.64-104.27,1.86-112.79,119.42-108.11,201.64-104.25,136.33.6,136.37,207.93,0,208.52Z"/>
  <path class="cls-14" d="M278.77,22.24c23.3-6.79,49.32-2.86,73.46-4.24,2.43,1.6,15.06,2.57,18.24,2.59,1.52,1.41,1.84,1.2,3.48.38,11.56,2.92,26.5,6.09,35.36,13.98,2.67.55,2.68-.66,3.34,2.3.61.66,1.66.07,2.29-.25.98.45,1.49.94.72,2.12,2.86,2.14,2.79.37,3.63,1.13,1.08.96,2.86,4.44,4.41,5.57l1.04-1.01c2.6,1.75,4.03,3.5,3.98,6.72,1.04.46,1.46-1.64,2.74-.69-.2,1.28-.99,1.2-.88,1.43,1.24,2.6,4.27,7.92,5.53,10.15.62-.4,1.24-.79,1.86-1.2l.33.61c-2.97,2.33.68,4.7,2.73,6.32-2.78,4.21,3.09,4.19.84,9.72,0,0,.43,1.07.43,1.07,2.52-2.01,3.24,1.44.41,1.98-1.11,5.76,5.98,8.2,1.09,11.39-.2,2.53.77,10.06,1.07,12.95l1.23-.37.36.62c-1.44,2.92-1.29-1.02-1.93,3.3,1.01-.33.52-.21,1.48-.36.66,2.17-4.22,12.72,1.25,15.4-.59.73-1.6,1.03-1.53.88-.73,4.63-1.99,15.5.33,17.98l-1.28-.36c-1.65,20.05-14.63,38.16-33.85,45.25-4.6,2.81-5.69,15.21-11.81,17.94,2.67-.68,13.23-.5,16.54-.51,1.53-2.76,11.03-2.02,13.13-1.01.61,1.88,1.03,9.72.64,11.46l-.85-.66c-.4,1.94-.35,2.52,1.38,2.71-.46,1.18-.61,1.18-1.54,2.1,5.57,1.34-1.3,12.53,2.86,17.19.32.77-.79,1.66-1.26,2.1,3.12,5.76,1.46,3.22.71,8.15l1.42-.48c.54,1.68-2.05,3.32-1.59,5.14,3.49,3.31-.14,9.76.59,14.07-.03,6.06,3.7,6.97.67,13.06.35,3.88,1.18,1.88,2.05,4.87.47,1.77-1.31,4.76-.14,6.74-1.8,6.29,1.07,13.76,1.63,20.07-3.62,6.04-.68,2.78-.12,6.6-1.22-.36-1.06-.47-2.3-.24-1.66,3.8-9.52,1.22-12.63,1.91-3.75-.57-12.88,3.51-15.11.87-7.03,1.11-15.57,1.34-22.56,2.05,0,0-.82-.97-.82-.97-.41.02-1.81-.25-1.97.37l1.28.8c-12.01-1.69-22.64,7.77-24.26,4.05-3.85.54-4.27,4.15-9.06.91-6.86,3.76-16.43-.9-24.02,2.16-3.78,1.53-4.47,1.14-8.01-.19-.27.76-.25.34.13,1.25-3.36,1.88-3.63,2.08-7.22.64-2.69-.17-8.33,4-9.47,1.3-14.7,3.18-8.89,19.35-16.55,21.07-92.49,10.34-93.34,77.04-80.25,152.18-5.35-3.51-8.27-10.24-10.49-16.1.01.03-3.39-5.1-3.23-4.94-8.5-9.26-20.07-14.09-31.77-17.72-3.67.2-16.91-7.16-20.16-6.48-1.62-.82-6.6-4.15-8.95-5.78l.88-1.39-.47.87.44-.93c-1.67-1.49-2.26.17-2.64,1.58-1.6-.52-1.88-2.24-3.87-3.92-3.85,1.45-3.44-1.47-4.94-3.98-25.59-5.92-63.85-54.1-69.56-79.93-4.56-.44-2.4-9.69-6-12.19-2.06-1.81,1.43-2.26.68-3.85-1.12.41-.55.29-1.72.39-1.76-2.45-1.73-14.01-5.04-15.6,0,0-.21-.9-.21-.9,2.62-2.89-1.41-6.67-1.29-10.02-18.43-116.08,37.92-195.57,161.57-192.34l.06-2.12c1.45.76-.41,1.5.74,3.3,1.31-.54.89-1.74,1.86-3.98,1.34.63-1.76,3.56,1.5,4.26,11.85-1.05,42.92-.12,55.41-.51-15.9-1.41-38.11.55-54.02-.84,2.43-5.67-3.71-11.08-.94-14.35,1.7-22.28-4.11-47.93,11.58-66.79,13.14-17.3,46.75-28.53,66.93-28.8Z"/>
  <path class="cls-12" d="M435.34,310.54c.03.35-2.23,3.41-1.74,4.02.79.64,1.32,1.96,0,2.23"/>
  <path class="cls-11" d="M471.27,178.77c3.75-1.78-67.1,30.65-54.23,24.88,13.08-1.72,12.96,0,12.39,11.82l-.85-.66c-.44,2.06-.24,2.47,1.38,2.71-.46,1.18-.61,1.18-1.54,2.1,4.95.26-.63,12.71,2.86,18.06-3.11,2.97,3.16,4.22-.82,8.74,0,0,.27.66.27.66l1.42-.48c.66,1.74-2.57,3.59-1.34,5.42.31.48,1.46,1.26,1.34,1.91-.32,3.84-.98,8.18-1,11.88-.02,5.97,3.59,6.94.8,12.81-.33,3.39,1.19,2.41,1.92,5.13.47,1.77-1.31,4.76-.14,6.74"/>
  <path class="cls-10" d="M548.02,356.36c-.14.89-264.54-3.46-265.35-3.24-54.7,4.47-92.84,41.48-85.65,97.98.34,14.08,1.07,27.76,3.23,41.49.15,2.94,5.33,17.64-.87,10.1-5.1-5.83-6.29-12.39-10.76-18.53-8.02-8.24-18.59-14.18-29.76-16.69-.85-.34-.8-1.59.08-1.82,3.34-.89,5.66,1.65,9.81,1.05,4.85-3.03-3.21-18.46-1.2-25.1-8.09-59.71,23.07-56.43-9.13-61.18-39.17-6.54-65.16-27.78-72.3-68.22.92-4.14-2.93-19.09-2.39-24.41,2.47-20.39,21.26-40.54,41.07-44.87,2.52.64-.17,2.84.88,5.94.89-1.22,1.05-3.85,1.02-5.3,2.58,7.63,17.11-.05,22.24-1.85,4.25-12.83-4.69-6.95-12.69-8.19-3.33-4.24,22.46-20.87,24.91-23.13,17.06-12.47,36.63-17.68,57.53-14.82,14.39,1.94,29.88-2.34,44.38,1.09,6.23,1.47,11.14-.51,16.56-3.17,23.15-11.33,55.96-6.83,81.35-6.55,13.85.17,27.71-.4,41.52-1.23,4.17,1.46,11.39-3.46,8.24,2.01"/>
  <path class="cls-7" d="M151.93,240.44c2.4-.04,5.56-3,6.07-2.52,5.69,5.37,29.28,4.89,34.38.45,21.39,13.96,20.83,47.55,5.77,65.92-9.62.98-18.2,2.02-28,2-7.42,1.68-14.57,6.32-20.25-3.44l.93-.48c-4.77,1.17-24.51-1.56-24.21,4.8l-.08-60.28.13-3.34c2.59,7.68,17.61-.2,22.63-2.05l.36.38,2.28-1.46Z"/>
  <path class="cls-2" d="M161.64,252.71c24.83-6.43,31.66,33.43,11,41.6-25.65,8.47-31.91-34.82-11-41.6Z"/>
  <path class="cls-8" d="M428.41,219.62c5.57,1.34-1.3,12.53,2.86,17.19.32.77-.79,1.66-1.26,2.1,3.12,5.76,1.46,3.22.71,8.15l1.42-.48c.54,1.68-2.05,3.32-1.59,5.14,3.49,3.31-.14,9.76.59,14.07-.03,6.06,3.7,6.97.67,13.06.35,3.88,1.18,1.88,2.05,4.87.47,1.77-1.31,4.76-.14,6.74-1.8,6.29,1.07,13.76,1.63,20.07-3.62,6.04-.68,2.78-.12,6.6-1.22-.36-1.06-.47-2.3-.24-1.66,3.8-9.52,1.22-12.63,1.91-3.42.3-10.75,1.15-13.82,2.16-.95-.69-1.65-1.79-2.47-2.64l1.2-.78c.18-9.88-.35-19.26-.16-29.18-1.09-13.33.44-31.44-.32-44.99,4.64,1.15,21.12-8.77,22.89-2.55,2.15-6.35.41-14.69.8-21.22Z"/>
  <path class="cls-6" d="M405.04,288.37c.29,2.94.29,5,1.5,7.7,1.86-2.78.75-17.1,1.82-19.53.48,7.54,14.78-4.07,20.12,2.19,2.09,3.92,1.04,8.79,2.08,12.9.74-1.4-1.2-7.6,2.42-6.51.05,1.57-1.8,3.31-.93,4.72l1.34-.23.33.86c-1.8,6.31,1.07,13.75,1.63,20.07-3.63,6.08-.68,2.76-.12,6.6-1.22-.36-1.06-.47-2.3-.24-1.66,3.8-9.52,1.22-12.63,1.91-3.42.3-10.75,1.15-13.82,2.16-.95-.69-1.65-1.79-2.47-2.64l1.2-.78c.18-9.88-.35-19.26-.17-29.18Z"/>
  <path class="cls-3" d="M430.56,291.63c.74-1.4-1.2-7.6,2.42-6.51.05,1.57-1.8,3.31-.93,4.72l1.34-.23.33.86c-1.8,6.31,1.07,13.75,1.63,20.07-3.63,6.08-.68,2.76-.12,6.6-1.22-.36-1.06-.47-2.3-.24-1.66,3.8-9.52,1.22-12.63,1.91-3.42.3-10.75,1.15-13.82,2.16-.95-.69-1.65-1.79-2.47-2.64,1.46-.5,1.29-1.8,1.28-3.11,3.68.95,20.28,0,25.42.03.3-8.14-.51-16.2-.16-23.62Z"/>
  <path class="cls-19" d="M428.41,219.62c5.57,1.34-1.3,12.53,2.86,17.19.32.77-.79,1.66-1.26,2.1,3.12,5.76,1.46,3.22.71,8.15l1.42-.48c.54,1.69-2.05,3.31-1.59,5.14,3.49,3.31-.14,9.75.59,14.07-.03,6.06,3.7,6.97.67,13.06.35,3.88,1.18,1.88,2.05,4.87.43,1.49-.91,4.06-.47,5.89l-1.34.23c-.87-1.41.98-3.15.93-4.72-3.62-1.09-1.67,5.11-2.42,6.51-1.48-23.53-1.32-48.53-2.14-72.01Z"/>
  <path class="cls-5" d="M313.69,205.07c6.82.02,14.81.23,21.53-.04,3.42,6.83,24.27,42.24,24.96,46.06-4.4-6.4-18.04,4.83-23.79,3.44,0,0-6.37-11.3-6.37-11.3.07,4.7.23,9.45-.07,14.14-1.27-1.28-.28-3.11-.65-4.77-9.55,2-25.82,5.17-25.38,17.19-.22-15.75-.15-40.46,3.02-55.56l.49,1.02c.86-1.01,3.67-6.86,6.25-10.17Z"/>
  <path class="cls-9" d="M415.66,205.03c1.53-2.76,11.04-2.02,13.13-1.01.61,1.88,1.03,9.72.64,11.46l-.85-.66c-.4,1.94-.35,2.52,1.38,2.71-3.98,6.24.74,16.25-2.34,23.31-1.78-6.23-18.33,3.73-22.9,2.55-2.3,3.16-4.05,7.36-6.1,10.77-.53-2.41.5-2.55.33-4.52-7.74,2.35-26.16,3.97-29.02,13.53l-.72-.19c8.22-18.39,18.58-36.72,28.26-54.42,0,0,1.66-3.02,1.66-3.02,2.67-.68,13.23-.5,16.54-.51Z"/>
  <path class="cls-22" d="M399.12,205.54c3.38.01,32.67-3.27,28.03,3.8-9.01-4.38-20.33.26-29.68-.78l1.65-3.02Z"/>
  <path class="cls-24" d="M336.39,254.53c4.17,1.09,11.37-4.1,16.35-4.93,8-1.33,3.56-.4,7.44,1.49,1.57,2.57,6.58,12.37,7.67,13.68.48-.68.82-1.14,1.35-1.8l.72.19c2.84-9.54,21.3-11.19,29.02-13.53-2.17,14.53-16.25,31.64-22.7,45.49-5.57.09-11.13.13-16.7.11-6.29-9.89-18.03-30.05-23.15-40.71Z"/>
  <path class="cls-25" d="M303.92,269.79c-.44-12.02,15.83-15.18,25.38-17.19,1.66,18.15.65,43.86.17,62.48-9.29.04-17.76.12-27.05-.35.2-14.52.74-30.5,1.5-44.94Z"/>
  <path class="cls-41" d="M303.87,270.06c.18,1.78.31,3.57.39,5.36,1.35.21.82.21,2.19-.23.73,1.88.7,8.8-1.86,9.17-2.5-2.96-.59-10.73-.72-14.31Z"/>
  <path class="cls-26" d="M126.62,307.18c-.35-6.34,19.48-3.65,24.21-4.8l-.93.48c.55,11.27-.42,25.15.25,36.74-7.16.5-16.38.37-23.72.17-.65-6.15.19-25.23.18-32.59Z"/>
  <path class="cls-16" d="M167.57,441.8c1.36,1.47,1.89,9.32,4.34,13.34.08.45-.76,3.12.24,3.08.92-.92.85-1.45,1.09-2.76.48,3.97,1.9,11.8-2.37,13.95,5.56,3.24,12.71,8.81,18.13,12.94,3.47,2.13,4.57,7.99,8.28,8.35,2.64-5.09-2.06-19.63.15-24.92.48,13.19,3.2,26.82,5,39.53-5.35-3.51-8.27-10.24-10.49-16.1.01.03-3.39-5.1-3.23-4.94-8.5-9.26-20.08-14.1-31.77-17.72,4.62-2.9,6.97,1.02,12.1.11,4.15-3.07-3.37-18.39-1.46-24.86Z"/>
  <path class="cls-19" d="M191.93,489.22c2.25,1.38,6.24,8.4,8.31,3.38.28,3.99,2.72,9,2.18,12.72-5.35-3.51-8.27-10.24-10.49-16.1Z"/>
  <path class="cls-45" d="M151.93,240.44c10.85-9.91,28.28-9.14,40.45-2.06-5.09,4.44-28.69,4.92-34.38-.45-.51-.48-3.67,2.47-6.07,2.52Z"/>
  <path class="cls-43" d="M156.44,308.92c6.04,1.31,9.22-2.64,13.71-2.63,9.79.02,18.37-1.02,28-2-10.43,9.65-29.97,14.16-41.71,4.63Z"/>
  <path class="cls-44" d="M305.92,205.13l7.77-.06c-2.58,3.31-5.39,9.16-6.25,10.17l-.49-1.02c-2.51,1.83.19,9.42-1.93,13.05-.14-6.86.31-15.3.91-22.15Z"/>
  <path class="cls-27" d="M207.38,234.65c7.68-.78,18.24-.52,26.19-.51,6.97,17.08,13.3,34.85,19.31,52.37,3.14-14.53,11.46-36.73,16.26-52.04,8.74-.14,17.3-.34,26.03.28-7.81,17.18-16.2,44.22-24.34,61.05-13.32-5.02-20.38-1.2-32.87,2.61-.59,2.83,1.77,3.44.68,5.35-10.2-22.28-20.88-46.66-31.25-69.11Z"/>
  <path class="cls-45" d="M207.38,234.65c7.68-.78,18.24-.52,26.19-.51.84,3.22,3.92,6.78,2.98,9.79.31,1.57.47,1.69,1.25,3.05-1.13,1.85-17.81,7.39-20.16,7.22-.58-2.32-.93-2.37-3.01-4.22-1.75-2.48-5.55-11.9-7.25-15.34Z"/>
  <path class="cls-45" d="M269.14,234.47c8.74-.14,17.3-.34,26.03.28-4.32,10.04-3.54,7.89-13.69,5.62-5.69-.17-9.35,2.5-14.73,1.01.81-2.3,1.61-4.61,2.4-6.92Z"/>
  <path class="cls-29" d="M238.63,303.75c1.1-1.91-1.26-2.52-.68-5.35,12.5-3.81,19.55-7.62,32.87-2.6-9.97,27.98-23.42,61.19-59.44,43.57,2.68-6.21,5.22-12.48,7.61-18.8,12.21,4.04,17.51,2.46,21.81-10.28l-2.19-6.53Z"/>
  <path class="cls-35" d="M408.25,43.83c.03-6.99-4.05-6.37-7.12-12.07,2.03-1.87,2.78,1.12,6.22,1.21.53.54,1.18,1.2,1.96,1.99,4.77.22,1.58.84,4.13,2.72,0,0,1.5-.67,1.5-.67,1.05.47,1.44.97.72,2.12,2.86,2.14,2.79.37,3.63,1.13,1.08.96,2.86,4.44,4.41,5.57l1.04-1.01c2.6,1.75,4.03,3.5,3.98,6.72,1.04.46,1.46-1.64,2.74-.69-.2,1.28-.99,1.2-.88,1.43,1.24,2.6,4.27,7.92,5.53,10.15.62-.4,1.24-.79,1.86-1.2l.33.61c-2.97,2.33.68,4.7,2.73,6.32-2.78,4.21,3.09,4.19.84,9.72,0,0,.43,1.07.43,1.07,2.52-2.01,3.24,1.44.41,1.98-1.11,5.76,5.98,8.2,1.09,11.39-.2,2.53.77,10.06,1.07,12.95l1.23-.37.36.62c-1.44,2.92-1.29-1.02-1.93,3.3,1.01-.33.52-.21,1.48-.36.66,2.17-4.22,12.72,1.25,15.4-.59.73-1.6,1.03-1.53.88-.73,4.63-1.99,15.5.33,17.98l-1.28-.36c-1.65,20.05-14.63,38.16-33.85,45.25.28-.61.92-1.6,1.28-2.22-42.01,5.88-92.26-7.6-132.61,8.12-5.42,2.66-10.33,4.64-16.56,3.17-14.54-3.44-30.07.88-44.5-1.1-3.93-1.76-7.96.2-11.72-.16-27.24-2.24-55.38,18.93-72.06,37.94,2.1.57,11.95,0,14.95.04,0,2.34.18,6-.41,8.14-5.02,1.85-20.04,9.72-22.63,2.05.05,1.37-.15,4.16-1.02,5.3-.93-3.15,1.25-4.78-.48-5.96-6.85.2-10.23,3.87-16.06,7.19-12.55,7.14-23.95,23.26-25.41,37.7-.55,5.41,3.44,20.75,2.35,24.6-31.04-149.93,141.71-137.24,236.69-153.15,57.75-.14,116.36-57.87,85.52-115.42Z"/>
  <path class="cls-45" d="M126.68,234.29c7.43-.03,14.85,0,22.28.07-.02,2.79,0,4.33.34,7.16-4.98,2.51-15.58,6.33-21.15,4.83-2.44-1.49-1.19-9.8-1.47-12.06Z"/>
  <path class="cls-16" d="M419.12,180.01c2.19-.75.91-1.04,3.15-1.93.52,1.2.19.84,1.18,1.59,3.76-2.6,3-5.66,8.44-6.91-3.21,5.86-14.8,12.34-20.97,14.84.28-.61.92-1.6,1.28-2.22-2.64-1.46-5.04,1.66-9.88.3,6.57-.97,10.98-2.54,16.79-5.67Z"/>
  <path class="cls-1" d="M412.13,180.1c3.1-.28,3.91-.31,6.99-.08-5.16,2.4-7.33,4.07-13.02,4.91,1.83-1.8,3.97-3.28,6.03-4.82Z"/>
  <path class="cls-36" d="M278.77,22.24c16.56-4.77,36.27-4.49,53.68-3.87-3.26,1.58-4.88.17-7.27,1.15.82,1.03,2.78,1.9,4.07,2.01-1.49-.28-2.44-.22-3.89.36,3.45.05,6.46.1,9.89.4-12.12-1.19-10.85,10.99-17.18,18.37-11.8,11.24-23.68,22.55-35.6,33.73-.6.28.91,4.91-1.02,5.29-1.09,18.08-24.63,26.58-37.48,15.57-1.49-.96-17.98,8.78-20.46,9.75-6.43,2.84-15.52,3.24-15.13,11.71-1.65.59-2.59-.65-3.21-1.99-1.28,2.4-.65,2.52-1.32,5.05-4.52-3.22-3.33-5.03-3.05-10.42-.77-21.84-2.5-50.23,17.43-64.31,12.18-13.37,44.09-22.8,60.51-22.81Z"/>
  <path class="cls-2" d="M254.93,99.67c-27.9-5.35-21.21-47.78,6.98-44.28,30.03,4.01,22.74,49.71-6.98,44.28Z"/>
  <path class="cls-42" d="M247.18,33.43c-.74-.38,24.47-5.9,25.42-6.37-12.6,8.22-29.62,10.01-40.47,21.85-15.14,5.27-16.61,10.3-24.45,23.38l-1.2-.64c.97-3.51,7.4-15.23,10.05-17.28.37-1.72-.91-1.12-1.33-2.74,2.01-10.31,22.54-23.57,31.98-18.21Z"/>
  <path class="cls-45" d="M218.26,45.06c6.01-6.73,20.23-16.41,28.92-11.63-10.8,5.64-22.19,10.84-30.57,19.84-3.54-2.1.89-5.36,1.65-8.22Z"/>
  <path class="cls-13" d="M278.77,22.24c16.56-4.77,36.27-4.49,53.68-3.87-3.26,1.58-4.88.17-7.27,1.15.82,1.03,2.78,1.9,4.07,2.01-5.79.55-14.8-.69-19.59,3.31-2.74,2.91-9.4,1.79-12.51,2.27,2.17-1.84,5.37-1.6,6.17-3.21-4.78-.4-17.61,2.41-22.82,3.32-1.91.33-5.31,3.65-8.23,3.2-.75-.11-3.18.06-4.16.85l.39.42-1.03.62.24-.63-.04.93c-.38-.25-.4-.53-.2-.92l.22.92.62-.86c-.35-.49-.7-1.12-1.14-1.43,1.79-.86,4.23-1.78,5.41-3.26-.95.47-26.15,5.99-25.42,6.37-2.61-2.29-5.38-.02-8.36-1.44,5.74-2.77,35.01-11.88,39.95-9.74Z"/>
  <path class="cls-42" d="M278.48,22.1c1.78,3.35,7-.49,9.06,1.26-1.35,1.66-7.78,3.85-9.61,2.47l.73-1.54c-.77-.69-.58-.44-1.13-1.31l.95-.89Z"/>
  <path class="cls-13" d="M200.45,116.88c1.06-23.93-4.7-55.85,17.81-71.82-.75,2.85-5.19,6.12-1.65,8.22,0,0-.07,1.1-.07,1.1-2.65,2.05-9.09,13.77-10.05,17.28l1.2.64c-2.15,10.25-5.25,32.74-2.48,42.44-1.28,2.4-.65,2.52-1.32,5.05-1.21-1.09-2.02-2.33-3.43-2.91Z"/>
  <path class="cls-37" d="M141.43,136.76c10.41-1.66,46.08-7.34,54.21-4.68l.06-2.12c1.45.76-.41,1.5.74,3.3,1.31-.54.89-1.74,1.86-3.98,1.35.66-1.78,3.52,1.5,4.26,26.31.09,63.38-2.78,89.09,1.12-3.47,1.93-19.13.94-24.23,1.47,4.15.96,7.56,1.92,11.9,1.96,3.13.03,6.07-2.45,8.32-.83-2.99,2.25-4.37.2-5.39,1.86,1.19.75,1.2.56,2.74.74l-.09.57c-73.65,18.41-176.76,10.11-213.84,92.37,5.02-18.58,22.06-33.86,36.39-46.28-11.16,5.18-21.39,16.05-32.01,22.91-8.98,1.56-14.01,9.05-21.96,13.11-11.74,3.51-9.32,28.72-14.5,35.78-1.12,7.69-2.86,15.7-4.37,23.31-7.62-67.98,42.79-133.68,109.57-144.88Z"/>
  <path class="cls-45" d="M46.36,207.77c16.86-37.15,55.5-63.43,95.07-71.01.38,1.26.48,2.17,1.46,3.01l-.77-.15c1.11.78,2.01.71,3.37.83-40.58,6.99-79.87,35.37-97.62,72.82-2.21-1.2-1.12-3.46-1.51-5.5Z"/>
  <path class="cls-42" d="M141.43,136.76c10.41-1.66,46.08-7.34,54.21-4.68l.06-2.12c1.45.76-.41,1.5.74,3.3,1.31-.54.89-1.74,1.86-3.98,1.35.66-1.78,3.52,1.5,4.26,26.31.09,63.38-2.78,89.09,1.12-42.42,4.46-88.27-1.45-131.29,4.13-4.62.33-11.48,3-15.48.82l.77.15c-.98-.83-1.08-1.74-1.46-3.01Z"/>
  <path class="cls-13" d="M255.21,133.03c10.53.05,23.75-1.26,33.68,1.63-14.41,2.3-35.17,1.76-50.45,1.46,1.93-.91,5.67-.12,7.52-.98-14.33-2.09-31.86-.14-46.15-1.6,11.81-1.06,42.94-.12,55.41-.51Z"/>
  <path class="cls-42" d="M46.36,207.77c.39,2.04-.7,4.3,1.51,5.5-9.68,19.61-11.5,47.86-16.02,68.37-3.05-18.42,3.94-59.76,14.51-73.87Z"/>
  <path class="cls-13" d="M36.22,258.33c3.12-4.21,5.33-25.55,8.3-31.39,6.99-5.47,14.87-9.36,21.37-15.42,1.61-1.33,4.95-.8,6.8-2.08,10.61-6.86,20.86-17.73,32.01-22.91-39.59,29-52.84,79.88-50.68,127.22,0,.81-2.3,2.76-3.09,3.06-12.99,4.98-7.63,2.78-9.52,13.31-1.89-1.93-1.28-4.26-.74-6.48-3.67-4.49-3.99-18.63-4.38-24.03-.57,5.32,2.72,26.72,2.28,28.03-3.7-.79-3.12-19.5-6.23-23.92-3.36-13.01,1.81-31.83,3.89-45.37Z"/>
  <path class="cls-1" d="M158.4,380.43c30.31,4.04,4.92,4.49,8.17,43.36.48,5.83-.08,12.44,1,18-1.91,6.47,5.62,21.79,1.46,24.86-5.13.91-7.48-3.01-12.1-.11-3.67.21-16.91-7.15-20.16-6.47,0,0-1.11-.76-1.11-.76-.07-2.66-1.77-1.54-3.86-4.88,1.35-.05,4.36,1.42,6.52,1.72-6-7.98-9.95-4.98-15.95-12.12.88-.59.78-1.04.56-1.97,7.94,10.21,4.6,3.66,14.02,9.97-.54-1.81-7.62-9.51-9.33-10.14-.88.58-1.46,1.41-2.47.46,9.21-4.5,7.72,12.13,27.45,11.86-6.04-9.04-18.73-13.22-20.57-24.72-1.05-11.47,11.57-12.65,17.81-19.34,7.76-2.99,8.58-8.55,9.36-16.11,1.55-4.67,6-11.08-.8-13.62Z"/>
  <path class="cls-47" d="M166.57,423.79c.48,5.83-.08,12.45,1.01,18.01-1.91,6.47,5.62,21.79,1.46,24.86-5.13.91-7.48-3.01-12.1-.11-3.67.21-16.91-7.15-20.16-6.47l-1.11-.76c-.07-2.66-1.77-1.54-3.86-4.88,1.35-.05,4.36,1.42,6.52,1.72-6-7.98-9.95-4.98-15.95-12.12.88-.59.78-1.04.56-1.97,7.94,10.21,4.6,3.66,14.02,9.97-.54-1.81-7.62-9.51-9.33-10.14-.88.58-1.46,1.41-2.47.46,9.24-4.29,8.43,12.01,25.8,11.65.58.04,1.97.16,2.26.8-1.06.3-1.9.56-2.94.93,1.46.91,10.04,1.8,12.56,2.58-.06.62.02,1.05.07,1.76-9.49,2.42-7.3.43-14.33.71,5.52,4.37,28.04,4.21,16.85-6.87.64-9.69.86-20.54,1.14-30.14Z"/>
  <path class="cls-17" d="M122.37,444.04c.88-.59.78-1.04.56-1.97,7.95,10.22,4.59,3.65,14.02,9.97,2.62,2.55,7.7.67,9.74,5.36-.52,3.08-6.55-1.07-8.37-1.23-5.99-7.97-9.95-4.98-15.95-12.12Z"/>
  <path class="cls-43" d="M122.37,444.04c5.98,7.13,9.96,4.16,15.95,12.12-2.16-.3-5.17-1.77-6.52-1.72,2.09,3.34,3.79,2.21,3.86,4.88-.77.05-6.34-4.14-7.84-5.02l.88-1.39-.47.87.44-.93c-1.67-1.49-2.26.17-2.64,1.58-1.6-.52-1.88-2.24-3.87-3.92-3.85,1.45-3.44-1.47-4.94-3.98-25.59-5.92-63.85-54.1-69.56-79.93-4.56-.44-2.4-9.69-6-12.19-2.06-1.81,1.43-2.26.68-3.85-1.12.41-.55.29-1.72.39-1.76-2.45-1.73-14.01-5.04-15.6,0,0-.21-.9-.21-.9,2.62-2.89-1.41-6.67-1.29-10.02,2.47.42-.33-3.65-.29-5.04-.81-2.98-2.73-13.41-1.44-15.68,3.11,4.43,2.53,23.14,6.23,23.92.44-1.31-2.85-22.71-2.28-28.03.41,5.45.7,19.5,4.38,24.03-.54,2.21-1.15,4.54.74,6.48.92,1.07,1.61,8.73,1.93,11.11,2.89,12.69,8.41,24.02,13.84,35.59,1.25,4.67,14.72,23.08,15.07,26.18-3.22,1.12-7.43-12.64-10.49-12.99,2.8,7.7,24.01,33.76,31.2,36.64-.92-2.49-2.8-2.22-2.95-4.34,1.73,1.53,6.72,6.4,7.51,8.32-2.39-.96-2.53-3.18-3.86-2.78,3.17,4.89,15.18,12.03,20.42,14.79,3.32,1.74,5.11,4.74,8.98,4.57"/>
  <path class="cls-2" d="M201.15,123.66c35.09,4.78,74-3.12,108.05,3.25-2.53,11.25-42.86,3.91-53.99,6.13-15.91-1.41-38.1.55-54.02-.85.97-2.69-.1-5.34-.04-8.53Z"/>
  <path class="cls-43" d="M68.3,232.8c14.14-31.89,43.18-54.26,75.81-64.93-2.29,2.86-14.28,5.44-16.81,7.93-7.81,7.69-14.1,17.35-22.13,24.77.75-.69-9.44,4.1-10.17,4.45l-.24-1.18c-4.78,1.15-15.44,11.64-18.61,15.78-4.99,5.61-7.96,21.77-12.73,25.06.96-3.28,3.45-8.5,4.88-11.89Z"/>
  <path class="cls-47" d="M200.26,117.83c.65,1.89-.02,4.37,3,3.75,0,0,61.76.03,61.76.03,8.41,1.52,43.8-4.78,44.19,5.3-7.62-8.07-121.49,6.84-108.94-9.07Z"/>
  <path class="cls-43" d="M308.9,128.15c10.08,7.68-39.96,18.29-45.15,17.36,5.63-3.66,12.02-4.14,18.39-5.08l.09-.57c-1.55-.19-1.55,0-2.74-.74,1.02-1.66,2.39.39,5.39-1.86-2.25-1.62-5.19.86-8.32.83-4.34-.04-7.74-1-11.9-1.96,5.1-.53,20.75.46,24.23-1.47-2.31-.96-5.51-.72-8.45-1.69,9.05-1.52,22.16,3.54,28.46-4.83Z"/>
  <path class="cls-43" d="M332.45,18.37c7.31.95,16.04-2.11,22.77.98-8.27,5.25-20.27,2.14-29.86,2.54,1.45-.57,2.4-.64,3.89-.36-1.29-.12-3.25-.98-4.07-2.01,2.39-.98,4.01.43,7.27-1.15Z"/>
  <path class="cls-17" d="M372.06,21.8c9.84-1.33,26.62,6.58,35.3,11.17-3.44-.09-4.19-3.08-6.22-1.21,3.07,5.71,7.15,5.08,7.12,12.07.89.63-7.95-10.89-8.96-11.97-7.76-3.44-19.81-6.41-27.23-10.06Z"/>
  <path class="cls-43" d="M205.2,114.73l1.27,2.06c2.2.07,10.61-.19,8.52,3.37l.96.21c-3.24.23-10.65-.04-12.68,1.2-3.06.72-2.88-2.71-2.8-4.7,1.41.58,2.22,1.82,3.43,2.91.67-2.54.03-2.65,1.32-5.05Z"/>
  <path class="cls-38" d="M473.02,171.6l-.11-.5c11.27-12.51,7.42-30.5,4.98-45.14l.9.31c.55-.8-1.74-2.4-2.09-2.88,4.06-3.9-2.8-4.05-1.74-7.5l1.22.68c.49-2.49-.96-.92-.8-4.21,1.69-2.04,1.72-4.19.27-6.36-2.91-.52-4.11,3.42-3.79-2.32l1.32.7c1.18-1.52,2.26-3.08.33-4.39,56.03-7.73,122.99,39.41,142.26,91.48,4.98,4.55.62,2.9,2.29,6.43h.56c-.09-.47-.02-.96,0-1.44,1.4.75,3.99,8.62,4.78,10.74.13,1.7-1.38,2.52-.44,3.83l.66-.83c2.68,1.3,5.34,13.55,4.8,16.2,2.35,4.14,3.83,8.41,3.01,13.3.78,4.7,3.42,14.12,2.34,19.67l1.43-.33c-1.86,9.83,1.66,33.92-2.25,42.97l1.61.39c-.74.99-.36.54-2.08.93.12.36,1.33,2.26,1.44,1.73-.33,1.67-.08,3.36-1.09,4.83l.96,1.53s-2.14,5.89-2.18,6.1c5.71,5.72-2.76,3.45.32,11.62-.83,3.2-3.2.6-2.51,4.56.37,1.23-3.43,6.85.05,7.08.07,2.71-3.04,2.14-3.88,4.35,1.08.64.51.39,2.13.18l.18.85c-1.81.07-1.12,1.58-2.04,2.74l1.08.18c-.09,1.61-2.22,1.36-2.01,3.75l1.36.21c.22,1.88-1.49,2.24-2.88,3.3.83.37,1.48.75,1.49,1.77-1.9,2.94-4.1,1.43-2.5,4.49-2.71,3.62-3.82,7.23-3.77,11.65-1.15.15-1.16.04-2.16.62-.02.73.72,1,1.29,1.18-3.08,5.55-6.94,4.79-5.38,10.36-.53-.46-.8-.7-1.31-1.21.11-.26-1.04,3.34-.46,2.05-3.65,8.1-23.14,32.8-30.49,34.74-.67.7-.56,1.27-.21,2.1-2.12,1.37-3.59-1.04-4.58,3.35-4.51.04-8.77,3.84-13.01,5.67.37,1.37.15,2.59-1.54,2.61-3.6-2.16-13.56,7.44-17.77,4.85-.71.42-.32,1.32-.15,1.92-1.33.67-4.83.19-5.05.36-6.27,4.89-16.35,4.15-24,5.21-2.1,1.01-3.12,3.22-5.12.82-5.81,2.56-11.5.13-16.48,3.33-9.35.9-20.1-1.9-28.44,2.4.98.48,1.49.38,2.32-.31,3.56,2.61,3.25,13.32,2.51,17.32-.85,4.9.73,20.99-.97,24.68,2.74,3.54-.47,4.93-.81,7.64-.51,4.99,2.78,6.24-1.21,10.76.31,5.08,1.82,5.77-2.05,8.89-.65,1.43,1.82,1.72,1.26,3.17-.56.01-2.17-.47-2.33.42l1.13.76c-1.03,1.83-1.19,5.87-3.96,4.49-1.3,2.91.19.92.15,2.82,0,.28-4.68,4.48-4.91,4.65-8.27,12.57-21.33,18.38-34.43,24.03-1.77.77-7.55.39-9.51,1.27-.36,1.59-1.64,1.27-3.01.95-3.33-.68,2.52-3.73.31-7.17-.23-.09-2.25-.85-2.47-.81-9.41,3.04-19.21,3.63-28.8,6.02l.54.79c-4.27.63-8.61,1.48-12.27,3.63-7.15.17-8.37-1.04-13.9,4.02-5.52,1.29-51.45-.01-54.05-1.96-13.09.99-33.66-4.76-45.59-10.59l.3-1.18c-6.64.89-7.87-5.01-14.49-6.11-4.28-.23-4.42-4.79-7.95-6.39-1.81-.82-4.6-2.51-5.78-4.14l.63-.55c2.72,2.36,5.85,3.34,9.28,1.88-4.73-1.28-11.51-11.07-15.52-8.22l-.53-.55c.9-.97.76-.59,1.21-1.75-6.84.85-16.52-24.36-19.46-30.21,1.14,1.18,1.78,2.35,2.98,2.41-15.1-84.29-8.08-147.4,92.72-153.27-.75-2.85-5.62-.77-7.65-2.8,17.52-.19,46.93,2.61,63.02.76,22.35-1.1,51.81,1.12,74.07,1.79,8.32,1.87,36.38.67,46.01.78,6.49.58,23.79-.7,29.74-2.8,1.37-3.57,11.69-.09,13.65-5.16,4.05-2.64,15.55-3.87,19.76-7.96,4.02-4.18,15.7-8.85,19.48-14.27,3.39-4.86,2.62-5.02,7.52-7.69,1.03-7.49,3.95-6.26,5.38-8.37-.72-.83-1.37-1.59-.69-2.66,4.7-2.76,1.07-4.95,3.68-6.88.86,1.03.45.94,1.4,1.18.45-.72-.59-1.84-.96-2.37,3.95-8.51,4.73-15.58,6.43-24.32,1.76-20.31-3.11-40.5-12.77-58.18-.98.29-.51.19-1.42.33l-1.08-2.35c.43-.32.86-.64,1.3-.97-1.66-1.53-5.69-2.34-6.33-4.22,6.14.48,2.11-1.85.16-5.44,0,0-2.74-1.77-2.74-1.77,4.11,7.7-9.87-.28-10.8-2.45-14.19-7.31-33.6-11.33-49.5-12.9-5.48.46-17.6-.43-21.52-4.53-.47-1.66,1.31-4.83,1.76-7.17Z"/>
  <path class="cls-28" d="M473.02,171.6l-.11-.5c11.27-12.51,7.42-30.5,4.98-45.14l.9.31c.55-.8-1.74-2.4-2.09-2.88,4.06-3.9-2.8-4.05-1.74-7.5l1.22.68c.49-2.49-.96-.92-.8-4.21,1.69-2.04,1.72-4.19.27-6.36-2.91-.52-4.11,3.42-3.79-2.32l1.32.7c1.18-1.52,2.26-3.08.33-4.39,53.26-7.18,109.77,32.45,136.23,77.28-5.3.76-3.42,3.89-6.53-1.15l.94,3.77c-8.18,4.36-18.96,13.1-23.04,21.89,0,0-.96.37-.96.37,50.92,103.41-37.12,173.1-135.27,177.88-3.67.52-23.9,2.96-26.81,3.95-4.94,3.51-18.28,1.34-24.44,5.56-10.51,7.35-22.19,15.53-32.71,22.61-10.89,4.77-18.58,8.85-27.82,16.45-4.82,3.97-16.78,5.56-21.99,10.01-11.19,9.38-23.79,15.69-36.18,23.22-7.08,4.96-13.07,12.44-20.91,16.22-.66-1.33.56-1.81-.38-2.71-8.1,20.44-3.79,54.37,4.75,74.43-1.07.19-.56.2-1.53.01l1.12.5c.67,2.58,5.77,2.18,7.94,5.67-13.19,1.23-20.82-6.39-32.19-12.31-4.72-1.28-11.51-11.07-15.52-8.22l-.53-.55c.9-.97.76-.59,1.21-1.75-6.84.85-16.52-24.36-19.46-30.21,1.14,1.18,1.78,2.35,2.98,2.41-15.1-84.29-8.08-147.4,92.72-153.27-.75-2.85-5.62-.77-7.65-2.8,17.52-.19,46.93,2.61,63.02.76,22.35-1.1,51.81,1.12,74.07,1.79,8.32,1.87,36.38.67,46.01.78,6.49.58,23.79-.7,29.74-2.8,1.37-3.57,11.69-.09,13.65-5.16,4.05-2.64,15.55-3.87,19.76-7.96,4.02-4.18,15.7-8.85,19.48-14.27,3.39-4.86,2.62-5.02,7.52-7.69,1.03-7.49,3.95-6.26,5.38-8.37-.72-.83-1.37-1.59-.69-2.66,4.7-2.76,1.07-4.95,3.68-6.88.86,1.03.45.94,1.4,1.18.45-.72-.59-1.84-.96-2.37,3.95-8.51,4.73-15.58,6.43-24.32,1.76-20.31-3.11-40.5-12.77-58.18-.98.29-.51.19-1.42.33l-1.08-2.35c.43-.32.86-.64,1.3-.97-1.66-1.53-5.69-2.34-6.33-4.22,6.14.48,2.11-1.85.16-5.44,0,0-2.74-1.77-2.74-1.77,4.11,7.7-9.87-.28-10.8-2.45-14.19-7.31-33.6-11.33-49.5-12.9-5.48.46-17.6-.43-21.52-4.53-.47-1.66,1.31-4.83,1.76-7.17Z"/>
  <path class="cls-31" d="M295.14,352.04c-.75-2.85-5.62-.77-7.65-2.8,5.17.85,28.81-.74,33.04,1.36,18.91.61,43.68-1.82,61.18-.51,23.35.29,53.43,3.28,77.94,2.92-6.75,6.23-26.28,5.04-35.01,5.13-17.83,2.82-42.96.89-59.81,4.89-1.15-.3-1.87-.66-1.44-1.87-4.17,1.04-21.12,2.76-27.05,3.58-5.89,1.53-25.48,6.98-32.78,8.17-27.14,14.67-54.86,27.42-74.83,51.48-8.36,15.96-13.34,33.84-12.8,52.03-.24,3.36,1.85,11.81-1.42,12.83,2.75-4.31.41-9.48.93-14.67-2.36,3.55-9.75,18.49-8.85,22.86.82,3.03,3.96,8.23,3.8,13.04,0,0-.56-.22-.56-.22-1.05-4.2-3.73-4.94-7.1-6.58-4.68-17.07-5.09-34.79-5.73-52.59-7.77-63.74,38.79-97.38,98.13-99.06Z"/>
  <path class="cls-20" d="M226.91,427.35c10.34-22.54,30.4-40.32,52.96-50.38,17.55-5.63,37.61-13.53,56.47-12.23-5.82,1.43-25.53,7.05-32.78,8.17-6.26,1.3-15.3,9.71-19.85,11.26-20.48,9.35-43.8,24.55-56.8,43.19Z"/>
  <path class="cls-20" d="M350.5,349.99c4.47-.29,27.32-.47,31.21.09-1.62,1-3.1.1-4.11,1.49,7.64.43,15.26.59,22.9,1.13l-.06.41-2.03.42,1.83.11.09.28c-15.43,4.68-30.58.89-46.39,2.52.64-.54,4.59.28,5.89-.93,3.66-3.43,10.61-1.36,15.32-2.36-6.07-2.41-19.85,2.65-24.65-3.17Z"/>
  <path class="cls-20" d="M363.39,361.15c15.95-2.57,34.31-.65,50.35-4.02,3.7-.94,7.62-.68,10.9.99-17.81,2.82-42.97.9-59.81,4.89-1.12-.3-1.88-.66-1.44-1.87Z"/>
  <path class="cls-41" d="M295.14,352.04c-.75-2.85-5.62-.77-7.65-2.8,5.21.85,28.78-.74,33.04,1.36-3.72.76-21.83,1.97-25.39,1.45Z"/>
  <path class="cls-30" d="M473.02,171.6l-.11-.5c11.27-12.51,7.42-30.5,4.98-45.14l.9.31c.55-.8-1.74-2.4-2.09-2.88,4.06-3.9-2.8-4.05-1.74-7.5l1.22.68c.49-2.49-.96-.92-.8-4.21,1.69-2.04,1.72-4.19.27-6.36-2.91-.52-4.11,3.42-3.79-2.32l1.32.7c1.18-1.52,2.26-3.08.33-4.39,53.26-7.18,109.77,32.45,136.23,77.28-5.3.76-3.42,3.89-6.53-1.15l.94,3.77c-8.18,4.36-18.96,13.1-23.04,21.89,0,0-.96.37-.96.37-11.73-31.62-57.15-39.03-59.69-74.8-.46,2.3,0,5.59-.92,6.96-3.51,1.6-7.76,3.95-11.59,3.28.65-.86,1-1.29,1.74-2.07-3.98,1.39-17.09,8.5-19.28,11.66,1.13.37.57.2,1.69.49-.95,1.45-2.39,3.51-4.18,3.77.14-1.69.24-2.13.64-3.8-2.03,3.37-2.87,12.35-5.46,17.33-1.3,4.33-3.4,3.2-1.18,7.41-1.93,1.66-4.55,1.27-7.05,1.1.26-1.21.29-.64,0-1.73l-1.85-.17Z"/>
  <path class="cls-22" d="M473.02,171.6l-.11-.5c11.27-12.51,7.42-30.5,4.98-45.14l.9.31c.55-.8-1.74-2.4-2.09-2.88,4.06-3.9-2.8-4.05-1.74-7.5l1.22.68c.49-2.49-.96-.92-.8-4.21,1.69-2.04,1.72-4.19.27-6.36-2.91-.52-4.11,3.42-3.79-2.32l1.32.7c1.18-1.52,2.26-3.08.33-4.39,40.78-6.78,83.91,18.94,113.21,46.52-3.23,2.58,3.78,6.52,2.96,8.79-.59-.27-1.72-.46-2.04-.96-7.07-11.09-20.44-16.1-28.92-25.88-6.82-4.61-31.58-17.7-38.48-15.36-2.64,11.41,6.79,24.75-12.29,24.48.65-.86,1-1.29,1.74-2.07-3.98,1.39-17.09,8.5-19.28,11.66,1.13.37.57.2,1.69.49-.95,1.45-2.39,3.51-4.18,3.77.14-1.69.24-2.13.64-3.8-2.03,3.37-2.87,12.35-5.46,17.33-1.3,4.33-3.4,3.2-1.18,7.41-1.93,1.66-4.55,1.27-7.05,1.1.26-1.21.29-.64,0-1.73l-1.85-.17Z"/>
  <path class="cls-20" d="M483.89,163.31c3.84-17.85,6.09-34.17,1.32-52.58,4.72-8.3,28.03,3.79,34.6-.14,1.71.72,3.36.23,4.72,1.53-8.09-.96-3.84,10.85-4.13,15.63-.35,2.28.03,5.26-.85,6.56-3.51,1.6-7.76,3.95-11.59,3.28.65-.86,1-1.29,1.74-2.07-3.98,1.39-17.09,8.5-19.28,11.66,1.13.37.57.2,1.69.49-.95,1.45-2.39,3.51-4.18,3.77.14-1.69.24-2.13.64-3.8-1.9,3.06-2.59,10.5-4.67,15.66Z"/>
  <path class="cls-44" d="M476.6,102.12c13.83-.76,35.66-.99,47.24,7.57-8.69,5.88-31.76-7.37-38.63,1.04,4.77,18.4,2.51,34.73-1.32,52.58l-1.29-.71c-1.48,1.67-2.69,4.94-3.9,7.27,6.81-23.01,4.68-45.33-2.1-67.75Z"/>
  <path class="cls-20" d="M586.72,146.52c9.7,8.73,16.07,21.23,23.03,30.76-4.24.23-2.6,2.47-4.96,1.34-3.42-7.92-13.63-15.36-16.82-23.91l1.71.61c.82-2.27-6.2-6.21-2.96-8.79Z"/>
  <path class="cls-41" d="M586.72,146.52c7,6.63,7.82,9.1,13.35,15.87l-1.61,2.14c-4.54-4.97-3.37-6.27-10.17-8.67l-.31-1.16,1.71.61c.82-2.27-6.2-6.21-2.96-8.79Z"/>
  <path class="cls-41" d="M253.66,475.34c21.79-67.33,102.76-83.3,164.42-91.36-4.94,3.51-18.28,1.34-24.44,5.56-10.5,7.35-22.19,15.53-32.71,22.61-10.89,4.77-18.58,8.85-27.82,16.45-4.82,3.97-16.78,5.56-21.99,10.01-11.19,9.38-23.79,15.69-36.18,23.22-7.08,4.96-13.07,12.44-20.91,16.22-.66-1.33.56-1.81-.38-2.71Z"/>
  <path class="cls-19" d="M473.02,171.6l1.85.17c.42.99-.09,1.39-.02,2.52,22.65.49,48.38,1.74,67.56,15.59l-2.99-.19c1.74,1.5,9.04,5.46,5.17,7.03-.6-1.07-1.29-1.2-2.32-.53-3.57-1.25-20.06-8.83-24.27-9.09-8.51-.86-18.65-3.63-27.2-3.72-4.65.28-16.47-1-19.55-4.62-.47-1.66,1.31-4.83,1.76-7.17Z"/>
  <path class="cls-3" d="M492.82,180.49c20.14.33,38.98-1.03,53.04,15.32-.75.89-.29.68-1.26.91-.76-1.59-1.61-.71-2.89-.42-13.8-8.21-33.37-11.11-48.92-13.01l.03-2.81Z"/>
  <path class="cls-18" d="M495.62,181.38c2.86-.35,5.43-.96,5.7,2.33-3.06.42-3.55-.35-5.7-2.33Z"/>
  <path class="cls-19" d="M490.82,183.39c-2.59-1.57-.84-4.31,2.01-2.9l-.03,2.81-1.97.1Z"/>
  <path class="cls-20" d="M202.74,503.69c3.37,1.68,6.04,2.33,7.1,6.58,0,0,.56.22.56.22,2.18,5.3,7.23,13.01,9.47,17.6,7.65,5.04,30.26,23.8,39.59,23.95,2.69.54,4.66,1.84,6.48,3.91-13.19,1.23-20.82-6.39-32.19-12.31-4.72-1.28-11.51-11.07-15.52-8.22l-.53-.55c.9-.97.76-.59,1.21-1.75-6.84.85-16.52-24.36-19.46-30.21,1.14,1.18,1.78,2.35,2.98,2.41.15-.62.3-1,.32-1.62Z"/>
  <path class="cls-44" d="M500.31,349.76c2.55.02,4.67,0,7.23-.14-12.1,6.54-37.47,7.49-53.1,8.91-28.97.38-61.08,2.84-89.61,4.49,26.95-5.03,61.39-2.54,88.93-6.75,5.76-2.87,10.26-5.13,16.81-3.71,6.49.58,23.79-.7,29.74-2.8Z"/>
  <path class="cls-44" d="M555.83,200.42c5.94,4.3,4.48.09,6.29,2.07,3.57,3.95,3.78,12.03,9.44,13.37-.7,6.4,3.4,8.19,4.34,12.18,1.41,6.53,4.44,20.92,3.64,27.2-1.96-1.12-1.3-7.14-1.89-7.15-.42,1.9-.83,3.66-1.16,5.59-2.62-13.55-6.33-28.56-13.3-40.6-.98.29-.51.19-1.42.33l-1.08-2.35c.43-.32.86-.64,1.3-.97-1.66-1.53-5.69-2.34-6.33-4.22,6.14.48,2.11-1.85.17-5.44Z"/>
  <path class="cls-20" d="M533.72,336.64c-.49,1.29-.53,1.57-1.33,2.73.96.73.44.43,1.75.63-1.74,1.7-4.81,2.46-7.28,3.73.09.69.12,1.31.11,2.01-5.27,1.95-18.94,6.58-24.06,5.92,1.45-.87,4.07-.77,4.64-2.04-2.56.14-4.68.16-7.23.14,1.92-2.97,8.6-1.19,13.29-3.75,2.13-5.1,15.92-4.43,20.11-9.38Z"/>
  <path class="cls-20" d="M481.93,172.4c9.08-4.1,23.1.09,32.2,3.84-12.83-.23-26.38-1.65-39.27-1.94l.02-.8c2.5.17,5.12.56,7.05-1.1Z"/>
  <path class="cls-19" d="M542.41,189.88c15.53,9.74,14.7,18.35-.13,6.31.98-.69,1.79-.52,2.32.53,3.87-1.57-3.42-5.52-5.17-7.03l2.99.19Z"/>
  <path class="cls-32" d="M348.91,447.12c12.94-1.4,97.41,1.12,108.59,1.76l-.96,1.7c12.76,2.07,26.37-.99,38.67-.43-5.45,5.79-24.31-1.13-31.43,4.49.98.48,1.49.38,2.32-.31,3.56,2.61,3.25,13.32,2.51,17.32-.85,4.9.73,20.99-.97,24.68,2.74,3.54-.47,4.93-.81,7.64-.51,4.99,2.78,6.24-1.21,10.76.31,5.08,1.82,5.77-2.05,8.89-.65,1.43,1.82,1.72,1.26,3.17-.56.01-2.17-.47-2.33.42l1.13.76c-1.03,1.83-1.19,5.87-3.96,4.49-1.3,2.91.19.92.15,2.82,0,.28-4.68,4.48-4.91,4.65-8.27,12.57-21.33,18.38-34.43,24.03-1.77.77-7.55.39-9.51,1.27-.36,1.59-1.64,1.27-3.01.95-3.33-.68,2.52-3.73.31-7.17-.23-.09-2.25-.85-2.47-.81-9.41,3.04-19.21,3.63-28.8,6.02l.54.79c-4.27.63-8.61,1.48-12.27,3.63-7.15.17-8.37-1.04-13.9,4.02-5.52,1.29-51.45-.01-54.05-1.96-13.09.99-33.66-4.76-45.59-10.59l.3-1.18c-6.64.89-7.87-5.01-14.49-6.11-4.28-.23-4.42-4.79-7.95-6.39-1.81-.82-4.6-2.51-5.78-4.14l.63-.55c.54.79,4.74,2.74,5.76,2.91,5.48-3.89,25.07,15.52,35.71,11.28-.88-1.09-1.56-1.53-2.65-2.36,12.16,2.49,36.76,8.42,48.36,7.7-31.77-30.16-9.13-84.02,22.32-105.88.9.63.68.39,1.37,1.23.78-7.56,7.56-8.05,13.58-9.51Z"/>
  <path class="cls-18" d="M297.34,570.71c-13.09.99-33.66-4.76-45.59-10.59l.3-1.18c-6.64.89-7.87-5.01-14.49-6.11-4.28-.23-4.42-4.79-7.95-6.39-1.81-.82-4.6-2.51-5.78-4.14l.63-.55c.54.79,4.74,2.74,5.76,2.91,5.48-3.89,25.07,15.52,35.71,11.28-.88-1.09-1.56-1.53-2.65-2.36,49.37,14.18,100.46,6.93,149.38-.34l-.13.58-.57-.08-1.29,2.85c-10.75,3.94-22.37,5.07-33.66,7.62l.54.79c-4.27.63-8.61,1.48-12.27,3.63-7.15.17-8.37-1.04-13.9,4.02-5.52,1.29-51.45-.01-54.05-1.96Z"/>
  <path class="cls-21" d="M311.65,561.28c23.85,1.01,48.62.23,72.3-3.6,9.55-.71,19.15-6.48,28.72-4.43l-.13.58-.57-.08-1.29,2.85-1.77.21c-.22.15-2.88,1.68-3.1,1.39-43.16,11.2-101.64,11.53-144.55-1.6,1.6-.07,3.43.09,4.67-.65-.88-1.09-1.56-1.53-2.65-2.36,12.16,2.49,36.76,8.42,48.36,7.7Z"/>
  <path class="cls-15" d="M381.14,563.04c-1.56-.36-3.44-.47-5.06-.64-.26-.46.02-.73.38-1.01,3.09-.25,12.83-3.82,14.1-1.22-2.01,3.13-5.84,2.2-9.42,2.87Z"/>
  <path class="cls-15" d="M404.73,555.59c1.93.12,2.63.02,4.19,1.22l-2.71,1.45c-2.72-.59-5.44-.1-6.93-.4.43-.9,4.17-1.58,5.46-2.27Z"/>
  <path class="cls-15" d="M369.82,564.49c-2.77-.62-2.97-.2-5.17-2.15,2.85.54,4.05.08,6.76-.61.11.99-.74,1.49-1.22,2.82l-.37-.06Z"/>
  <path class="cls-3" d="M297.34,570.71c-13.09.99-33.66-4.76-45.59-10.59l.3-1.18c-6.64.89-7.87-5.01-14.49-6.11-4.28-.23-4.42-4.79-7.95-6.39-1.81-.82-4.6-2.51-5.78-4.14l.63-.55c2.68,2.36,5.92,3.33,9.28,1.88,13.72,8.95,24.34,12.59,40.35,16.55-2.36.52-3.96-.52-5.98.3,1.99,3.39-5.68.71-7.34.18l-.47.6c7.58,4.74,21.68,3.68,30.66,6.21-1.2.61-1.28.57-2.57.97,0,0,.02.57.02.57,1.85,1.69,3.08-.52,5.08-.96,2.06,1.42-.48,1,.89,1.88.68.43,2.63-.38,2.95.78Z"/>
  <path class="cls-2" d="M348.91,447.12c4.53-.93,92.49.31,96.77,1.42-6.68,8.26-26.81-1.99-33.82,5.06-2.01,1.7-3.74-1.46-9.28,2.72-.21.2-.61.48-.93.34-19.61,1.27-47.09,1.08-66.32-.04.78-7.56,7.56-8.05,13.58-9.51Z"/>
  <path class="cls-23" d="M348.91,447.12c4.53-.93,92.49.31,96.77,1.42-6.68,8.26-26.81-1.99-33.82,5.06-1.66,1.48-4.92-1.21-9.78,3.11-9.76.3-27.63,1.72-37.32.38,2.46-2.08,32.31.35,27.98-5.74,13.66-.06,27.48-1.94,40.82-1.4-19.45-3.1-62.97-.06-84.65-2.83Z"/>
  <path class="cls-18" d="M364.77,457.1c17.89,1.16,33.34-4.48,50.82-5.88-2.57,1.04-2.32.49-3.73,2.39-2.01,1.7-3.74-1.46-9.28,2.72-9.67,1.32-27.98,1.78-37.82.77Z"/>
  <path class="cls-33" d="M468.51,497.64c.76,4.4-1.35,3.16-1.67,6.33-.51,4.99,2.78,6.24-1.21,10.76.31,5.08,1.82,5.77-2.05,8.89-.65,1.43,1.82,1.72,1.26,3.17-.56.01-2.17-.47-2.33.42l1.13.76c-1.03,1.83-1.19,5.87-3.96,4.49-1.3,2.91.19.92.15,2.82,0,.28-4.68,4.48-4.91,4.65-8.26,12.57-21.34,18.38-34.43,24.03-1.77.77-7.55.39-9.51,1.27-.35,1.59-1.65,1.27-3.01.95-3.94-.32,5.02-6.07-1.76-7.92,17.57-4.69,38.94-15.4,49.67-31.26,6.66-7.72,8.17-21,12.63-29.36Z"/>
  <path class="cls-41" d="M305.72,489.13c2.38-6.58,19.32-29.41,26.39-32.02,1.02,7.02,12.12,2.98,16.29,5.19,0,2.93-44.96,45.73-42.67,26.83Z"/>
  <path class="cls-46" d="M445.68,448.55c4.05.22,7.76.43,11.82.34l-.96,1.7c12.76,2.07,26.37-.99,38.67-.43-5.45,5.79-24.31-1.13-31.43,4.49.98.48,1.49.38,2.32-.31,3.56,2.61,3.25,13.32,2.51,17.32-1.02-1.64-.41-3.31-1.57-6.37v.95c-.97-1.41-.44-2.49-1.07-4.08-1.97-.72-26.66-.52-30.34-.64,4.75-1.33,12.11-1.43,17.22-1.64v-.29c-19.91-2.31-39.33-1.55-59.15-2.07,1.72-1.38,6.22-.98,8.4-.81,4.87-4.32,8.11-1.62,9.78-3.1,7.01-7.05,27.13,3.2,33.81-5.06Z"/>
  <path class="cls-18" d="M445.68,448.55c4.05.22,7.76.43,11.82.34l-.96,1.7c12.76,2.07,26.37-.99,38.67-.43-5.45,5.79-24.31-1.13-31.43,4.49-.17-.28-.65-.72-.91-.97-.32,4.07-5.5,1.01-8.15.39-.53,1.07-.22.54-.91,1.56-.72-2.67-9.06-2.14-10.61-.24-.31-.82-.21-.34-.25-1.47-2.77-.11.02.23-2.24,1.47.35-2.3-11.62-1.05-13.48-1.5-.8.85-.7.77-1.28,1.49-4.96-5.31-8.58,1.04-14.09-1.76,7-7.05,27.14,3.2,33.82-5.06Z"/>
  <path class="cls-4" d="M445.68,448.55c4.05.22,7.76.43,11.82.34-2.92,4.14-9.94,1.89-14.71,2.45,1.18-1,1.84-1.68,2.89-2.79Z"/>
  <path class="cls-41" d="M437.62,458.19c9.79-.14,19.61-.02,29.36-.24.23,1.46-.29,2.82-1.01,4.2-1.97-.72-26.67-.52-30.35-.64,4.75-1.33,12.11-1.43,17.22-1.64v-.29c-3.61-.45-12.58-.39-15.23-1.4Z"/>
  <path class="cls-15" d="M446.94,530.36c1.81.89,2.57-.44,4.17.1-5.88,13.12-27.43,22.85-40.43,26.14l1.29-2.85.57.08.13-.58c-2.11-.52-3.85-.54-6.01-.69,12.25-4.38,31.52-11.76,40.29-22.2Z"/>
  <path class="cls-46" d="M453.71,524.27c1.64-3.1,6.12-9.19,7.74-11.23,1.11,4.29-3.21,10.44-5.58,13.95-.95-2.27-.21-1.43-2.16-2.72Z"/>
  <path class="cls-46" d="M453.71,524.27c4.96,2.26-1.21,7.23-3.58,9.32.34-1.04.66-2.09.98-3.14-1.6-.53-2.36.79-4.17-.1,1.79-1.96,3.85-2.71,6.77-6.09Z"/>
  <path class="cls-2" d="M388.61,488.04c10.45-12.02,31.24-9.22,39.18,4.24-.17-.96-.46-2.13.51-2.86,5.4-.57,7.58,17.12,5.94,21.06-.1,14.97-18.48,30.02-32.43,22.78,2.13-.08,4.28.02,6.41.09l-.86-.27c6.03-.02,10.41-.63,16.23-3.32-1-6.94-14.35,6.95-20.18.21-20.32-2.93-28.24-26.61-14.8-41.94Z"/>
  <path class="cls-21" d="M427.78,492.28c-.17-.96-.46-2.13.51-2.86,5.4-.57,7.58,17.12,5.94,21.06-.1,14.97-18.48,30.02-32.43,22.78,2.13-.08,4.28.02,6.41.09l-.86-.27c6.03-.02,10.41-.63,16.23-3.32-1-6.94-14.34,6.95-20.18.21,21.92,2.7,33.92-19.09,24.38-37.7Z"/>
  <path class="cls-41" d="M433.34,516.14c-1.08-.74-1.01-.55-2.33-.73-.64-1.64.9-4.74,2.61-5.61,1.21.22-.34,5.69-.28,6.34Z"/>
  <path class="cls-23" d="M388.61,488.04c6.27-7.22,17.06-9.37,25.95-6.3-14.41-.72-12.31,1.38-25.95,6.3Z"/>
  <path class="cls-3" d="M618.13,359.67c2.35-2.72,3.44-6.27,5.25-7.97,1.04,1.76-1.73,4.32,1.29,5.35,0,0,.24,1.08.24,1.08-1.9,2.95-4.1,1.43-2.51,4.49-2.71,3.62-3.82,7.23-3.77,11.65-1.15.15-1.16.04-2.16.62-.02.73.72,1,1.29,1.18-3.08,5.55-6.94,4.79-5.38,10.36-.53-.46-.8-.7-1.31-1.21.11-.26-1.04,3.34-.46,2.05-3.65,8.1-23.14,32.8-30.49,34.74-.67.7-.56,1.27-.21,2.1-2.12,1.37-3.59-1.04-4.58,3.35-4.51.04-8.77,3.84-13.01,5.67.37,1.37.15,2.59-1.54,2.61-3.6-2.16-13.56,7.44-17.77,4.85-.71.42-.32,1.32-.15,1.92-1.33.67-4.83.19-5.05.36-6.27,4.89-16.35,4.15-24,5.21-2.1,1.01-3.12,3.22-5.12.82-5.99,2.45-12.39,1.19-18.75,1.16-10.19.25-22.68,2.3-33.41.51l.96-1.7c-19.34-.07-99.29-5.54-118.51.64,4.74-6.45,11.97-7.62,19.43-7.54,97.67-3.76,211.33,29.06,259.71-82.32Z"/>
  <path class="cls-23" d="M457.5,448.88c2.97-.49,32.7-.47,34.74.29.04.68-1.9.75-2.29.9-10.19.25-22.68,2.3-33.41.5l.96-1.7Z"/>
  <path class="cls-46" d="M386.91,442.05c2.63-.13,25.51-.83,25.88-1.16-1.97-1.08-11.86-.94-15.01-1.04,58.39-.79,122.2,10.01,173.21-23.91,8.78-7.5,20.5-16.32,26.41-26.32.73.01,1.34.01,2.07,0,3.86-3.67,15.09-31.84,18.96-32.96-39.55,104.26-140.58,85.6-231.51,85.39Z"/>
  <path class="cls-21" d="M615.77,191.48c4.98,4.55.62,2.9,2.29,6.43h.56c-.09-.47-.02-.96,0-1.44,1.4.75,3.99,8.62,4.78,10.74.13,1.7-1.38,2.52-.44,3.83l.66-.83c2.68,1.3,5.34,13.55,4.8,16.2,2.35,4.14,3.83,8.41,3.01,13.3.78,4.7,3.42,14.12,2.34,19.67l1.43-.33c0,.8-.71,4.2-.96,5.1-4.13-4.66-3.43-8.85-3.92-15.2-5.51-15-8.32-41.26-16.87-54.83,1.96-.95,1.29-.37,2.33-2.65Z"/>
  <path class="cls-46" d="M630.3,246.94c-1.14-3.92-3.26-16.65-1.88-20.53,2.35,4.14,3.83,8.41,3.01,13.3.79,4.72,3.42,14.11,2.34,19.67l1.43-.33c0,.8-.71,4.2-.96,5.1-4.39-4.88-3.57-10.55-3.93-17.22Z"/>
  <path class="cls-19" d="M618.42,356.66c6.61-7.08,6.92-30.18,11.43-40.9l-.07.52c.78-1.93,1.77-4.88,3.05-6.38l.96,1.53s-2.14,5.89-2.18,6.1c5.71,5.72-2.76,3.45.32,11.62-.83,3.2-3.2.6-2.51,4.56.37,1.23-3.43,6.85.05,7.08.07,2.71-3.04,2.14-3.88,4.35,1.08.64.51.39,2.13.18l.18.85c-1.81.07-1.12,1.58-2.04,2.74l1.08.18c-.09,1.61-2.22,1.36-2.01,3.75l1.36.21c.22,1.88-1.49,2.24-2.88,3.3-.77-1.89.81-2.99-.03-4.66-1.81,1.7-2.9,5.25-5.25,7.97l.29-3.02Z"/>
  <path class="cls-41" d="M604.79,178.62c2.36,1.13.72-1.11,4.96-1.34,1.39,4.61,9.99,14.77,3.69,16.84-2.74-3.46-7.23-11.28-8.65-15.51Z"/>
  <path class="cls-3" d="M632.94,302.03c-.87-2.47.22-15.07.31-18.24.09-3.2-.42-17.24.95-19.02,1.12,7.21,1.4,31.24-1.26,37.27Z"/>
  <path class="cls-39" d="M486.46,314.52c1.38,1.69-.34,2.76-2.06,2.36-.54-1.24-.47-1.21-1.41-2.15-3.27.62-4.72-1.72-7.88-.66.24-1.08.21-.73.16-1.81-16.97-5.78-32.88-25.57-34.32-43.42,1.18.45.59.27,1.75.56-18.69-57.55,64.14-89.62,102.53-54.45-.95,3.61-7.03,3.66-4.12,7.01-4.7,2.23-5.37,5.24-8.65,9.01,1.17.54,4.05,1.1,3.04,2.57-4.81.21,0,7.63-4.55,7.62-1.42,4.41,2.53,3.83-2.28,9.93l.17.56c.43,1.49.75,2.12.46,3.65-5.3,5.67-2.74,14.46-7.85,19.26.22,1.93-3.57,5.68-4.91,7.13.88.18.5.02,1.15.45l-.58.89c-1.38-.33-1.98-.62-3.41-.38.71,1.76-.1,4.52,2.65,3.95.05,1.74.34,1.93,1.16,3.32l1.31-.92c-.3,1.2-.6,1.45-1.28,2.52,3.43-1.85,6.19-5.12,10.45-6.74l.9.69c1.52-2.55,1.37-2.18,4.14-3.24,1.82.78.88.67,2.95.13l-.15-.07c-.78,2.56-1.03,6.48,2.7,4.71l2.22,4.31-.46.29-1.58-1.2c-.02,2.44,2.32,4.42,3.9,7.67.89-.18.78-1.26.82-1.94,14.4,6.15-7.88,17.06-14.89,18.44-.75-1.23-2.35-.85-3.14-.19,0,0,.21,1.42.21,1.42-.41.51-.74.81-1.41.47.11-1.18-.11-.72.51-1.45-3.71.76-2.9,4.06-5.05.63-.08,1.06-.23,1.84-.41,2.89-.95-.67-1.76-.98-2.96-.54-6.21,2.25-14.98.91-21.58.62-3.13-3.64-.87-.76-4.99-.83-1.51-1.39-1.05-.73-1.49-3.03h-1.75Z"/>
  <path d="M473.15,245.92c10.61-22.73,37.97-23.42,56.79-10.48l2.52-4.48c1.17.54,4.05,1.1,3.04,2.57-4.81.21,0,7.63-4.55,7.62-1.42,4.41,2.53,3.83-2.28,9.93l.17.56c.43,1.49.75,2.12.46,3.65-5.3,5.67-2.74,14.46-7.85,19.26.22,1.93-3.57,5.68-4.91,7.13.88.18.5.02,1.15.45l-.58.89c-1.38-.33-1.98-.62-3.41-.38.71,1.76-.1,4.52,2.65,3.95.05,1.74.34,1.93,1.16,3.32-9.03,3.97-19.79-1.97-24.77,2.04-18.56-5.73-26.47-28.65-19.59-46.02Z"/>
  <path class="cls-34" d="M473.31,273.67c3.93,7.36,13.68,21.48,22.51,16.54,8.69,1.1,14.78,2.65,23.01-1.23-.3,1.2-.6,1.45-1.28,2.52,3.43-1.85,6.19-5.12,10.45-6.74l.9.69c1.52-2.55,1.37-2.18,4.14-3.24,1.82.78.88.67,2.95.13l-.15-.07c-.78,2.56-1.03,6.48,2.7,4.71l2.22,4.31-.46.29-1.58-1.2c-.02,2.44,2.32,4.42,3.9,7.67.89-.18.78-1.26.82-1.94,14.4,6.15-7.88,17.06-14.89,18.44-.75-1.23-2.35-.85-3.14-.19,0,0,.21,1.42.21,1.42-.41.51-.74.81-1.41.47.11-1.18-.11-.72.51-1.45-3.71.76-2.9,4.06-5.05.63-.08,1.06-.23,1.84-.41,2.89-.95-.67-1.76-.98-2.96-.54-6.21,2.25-14.98.91-21.58.62-3.13-3.64-.87-.76-4.99-.83-1.51-1.39-1.05-.73-1.49-3.03-13.14-2.82-27.04-9.86-33.18-22.07-4.3-4.18-2.64-6.25-5.8-10.48,4.78-1.34,21.21-5.51,24.08-8.3Z"/>
  <path class="cls-46" d="M520.36,289.68l.75.71c3.6-1.58,10.94-7.2,14-3.99-11.86,7.36-25.97,13.65-40.11,8.37-.1-1.85-.76-2.07-2.26-2.83,5.08-4.28,18.02,2.78,26.08-2.96-.3,1.2-.6,1.45-1.28,2.52.98-.05,1.85-1.06,2.82-1.82Z"/>
  <path class="cls-46" d="M488.21,314.52c9.28,1.47,21.71-.1,31.1.37.71,1.02-.02,2.25-.08,3.41-.95-.67-1.76-.98-2.96-.54-6.21,2.25-14.98.91-21.58.62-3.13-3.64-.87-.76-4.99-.83-1.51-1.39-1.05-.73-1.49-3.03Z"/>
  <path class="cls-3" d="M543.42,303.69c.99.44,1.65.76,2.6,1.28-4.79,5.18-10.83,7.66-17.48,9.55l-.45-.67c2.08-2.12,10.68-4.44,15.33-10.16Z"/>
  <path class="cls-46" d="M542.61,298.03c.89-.18.78-1.26.82-1.94,6.07.03,6.26,11.99,0,7.6.16-3.45.6-2.85-.81-5.67Z"/>
  <path class="cls-22" d="M486.46,314.52c1.38,1.69-.34,2.76-2.06,2.36-.54-1.24-.47-1.21-1.41-2.15-3.27.62-4.72-1.72-7.88-.66.24-1.08.21-.73.16-1.81-16.97-5.78-32.88-25.57-34.32-43.42,1.18.45.59.27,1.75.56-18.7-57.55,64.14-89.62,102.53-54.45-1.07,3.59-5.5,3.03-4.79,6.28h-1.89c3.17-25.71-64.68-14.45-75.45-1.42-9.56,6.8-13.89,19.06-17.69,29.56,1.56-.49,1.88-1.81,2.46-3.17l.61.03c.03,1.4.03,2.06.23,3.46,7.94-3.59,16.72-5.66,24.43-3.77-3.29,8.97-3.23,18.82.16,27.75-2.86,2.79-19.29,6.97-24.08,8.3,6.87,17.25,18.98,27.29,37.23,32.54Z"/>
  <path class="cls-40" d="M445.42,249.37c1.56-.49,1.88-1.81,2.46-3.17l.61.03c.03,1.4.03,2.06.23,3.46,7.94-3.59,16.72-5.66,24.43-3.77-3.29,8.97-3.23,18.82.16,27.75-2.86,2.79-19.29,6.97-24.08,8.3,1.66,2.3,2.14,2.56,2.13,5.23-7.88-11.24-6.65-25.26-5.95-37.84Z"/>
  <path class="cls-20" d="M445.8,259.37c.81-.48,1.09-.7,1.65-1.45.91,2.96-.63,6.43-1.93,9.36-1.33-2.53-1.24-5.5.29-7.9Z"/>
  <path class="cls-41" d="M515.01,201.65c4.03.42,9.79.74,13.18,2.73l-.42,2.48c-3.86-1.76-11.59-.42-12.76-5.21Z"/>
  <path class="cls-20" d="M458.53,224.25c-2.02,5.21-4.77,15.11-9.99,18.26,1.1-5.65,5.07-14.76,9.99-18.26Z"/>
  <path class="cls-3" d="M406.21,558.25c6.78,1.88-2.18,7.6,1.76,7.92-17.29,6.54-38.31,4.69-56.33,7.36l-.26-.87c5.54-5.07,6.77-3.85,13.9-4.02,3.66-2.15,8.01-3,12.27-3.63l-.54-.79c9.73-2.26,19.62-3.34,29.19-5.97Z"/>
  <path class="cls-18" d="M381.32,566.24c1.83,1.24,1.49,2.35,1.6,4.48-2.25-.9-2.05-1.79-1.6-4.48Z"/>
  <path class="cls-41" d="M424.57,351.78c29.92-1.31,60.16.43,89.39-7.18-1.95,5.07-12.27,1.59-13.64,5.16-5.95,2.1-23.25,3.38-29.74,2.8-9.61-.12-37.73,1.11-46.01-.78Z"/>
  <path class="cls-18" d="M516.36,286.58l.8-.12c2.05,2.75,6.08-6.12,10.84-1.7-4.26,1.61-7.02,4.89-10.45,6.74.68-1.07.98-1.32,1.28-2.52l-1.31.92c-.81-1.39-1.1-1.58-1.16-3.32Z"/>
</svg>