<svg xmlns="http://www.w3.org/2000/svg" width="2871" height="3675" preserveAspectRatio="none" style="display:block" viewBox="0 0 3675 3675">
  <defs>
    <linearGradient id="b" x1="1672" x2="1700.9" y1="1311.9" y2="1206.1" gradientUnits="userSpaceOnUse">
      <stop class="stop0" offset="0" stop-color="#7a7a79"/>
      <stop class="stop1" offset="1" stop-color="#8e908e"/>
    </linearGradient>
    <linearGradient id="a" x1="2004.4" x2="1983.9" y1="1313.2" y2="1206.1" gradientUnits="userSpaceOnUse">
      <stop class="stop0" offset="0" stop-color="#7a7979"/>
      <stop class="stop1" offset="1" stop-color="#909190"/>
    </linearGradient>
  </defs>
  <path fill="#2b2a2a" d="M921 256c3-39-1-90 0-131 0-16-2-38 1-53q5-19 17-34c22-25 54-33 86-35h1408c47 0 116 3 162 0h70c29 0 60 8 81 28q15 16 21 36c6 26 0 119 2 151 0 11-2 30 1 40h305c183 0 360-16 503 125 53 53 91 125 93 202l1 77c-47 8-70 19-82 67 14 48 35 59 82 65v278c-46 7-69 22-81 68 12 46 35 61 81 67 0 23 1 55-1 78l1 198c-27 4-51 11-68 34q-14 20-9 43c8 36 44 51 77 57v198l-1 77c-101 16-107 114 1 133l-1 80 1 196c-27 4-51 10-68 34q-14 21-9 44c7 37 44 52 77 55l-1 80v123l1 75c-17 2-27 3-42 11-45 24-50 78-6 106q21 13 48 16c0 23 1 56-1 78v197c-108 20-104 117 1 135-1 22 1 58-1 79 0 199-191 322-372 337q-46 2-92 1h-184c-20 0-100-2-115 3H681c-16-5-85-2-105-3-63-2-139 3-201-1-98-8-209-53-278-123S4 3410 4 3314c-1-14-1-62 1-75 27-5 48-10 68-32 32-34 10-72-24-92-10-5-37-9-43-14-3-18-3-261-1-267s37-15 45-19c23-12 32-30 39-54-11-39-26-52-66-63q-10-2-19-9v-191c0-21-2-56 2-75 11-7 36-9 48-17 28-18 46-50 25-81-18-28-42-34-72-40 0-18 1-61-1-77-3-5-3-111 0-120l-1-6q-4-36 3-71c45-6 68-23 81-67-10-36-25-51-61-63q-12-4-23-9c-5-15-1-58 1-74-4-10-3-110 0-120 0-8-7-69 0-74 10-6 38-9 51-18 29-20 44-52 21-83-20-26-43-32-73-37q-3-35-1-71v-132c0-8-3-67 3-70 12-8 37-9 50-19 28-21 42-51 20-82-19-25-42-31-71-36-2-21-2-58 1-78l1-10-1-110v-78c22-4 36-6 55-20 28-19 37-56 13-83-18-21-41-27-68-30v-79c8-72 42-135 93-187 142-141 326-123 509-123h310zM5 3239c-2 13-2 61-1 75l2 7 2-2c6-4 185-2 207-2 93 1 149 0 214-76 45-76 16-145-56-189-23-15-46-19-73-25-68-5-149 0-219-2q-38 2-74 0c-2-35 0-83-1-119h192c65 0 132 4 189-35 63-43 86-121 38-185-36-48-83-62-138-70H8c-4-13-1-98-2-118 101-2 211 5 311-6 21-2 46-19 65-26l2-1q17-13 33-30c81-91 6-202-99-222-50-10-97-6-147-6q-83-1-165 1c2 16 1 59 1 77 30 6 54 12 72 40 21 31 3 63-25 81-12 8-37 10-48 17-4 19-2 54-2 75v191q9 7 19 9c40 11 55 24 66 63-7 24-16 42-39 54-8 4-43 13-45 19s-2 249 1 267c6 5 33 9 43 14 34 20 56 58 24 92-20 22-41 27-68 32m3387-533c-120 26-92 152 33 146 27-6 52-14 68-39q14-22 8-47c-12-50-65-62-109-60m4-820c-137 24-82 168 33 145 25-5 47-14 62-36q16-23 10-49c-7-36-45-57-79-59zm-82-336c16 60 52 74 110 72 71-8 110-78 46-128-16-12-51-21-72-17-51 8-69 25-84 73m101-335c30-5 58-13 77-39 24-32 9-70-21-92-15-10-48-21-66-17-51 5-77 22-91 73 7 28 13 42 39 59 16 10 44 17 62 16m10 2047c72-14 111-83 40-132-17-11-50-18-70-14-35 5-74 27-80 66-8 53 64 90 110 80M279 1606c43-6 86-27 85-77 0-43-62-78-100-69-137 16-94 156 15 146m-29-963c-26 6-49 14-64 39-21 35-1 73 33 91 26 14 46 14 74 12 25-7 50-18 63-42q13-22 6-48c-15-47-68-56-112-52m3153 1653q-24 1-46 12c-87 48-23 143 58 136 28-4 57-12 74-36 44-62-27-117-86-112m-14-1639c-15 4-25 7-38 15-52 31-45 90 6 118q36 19 75 11c39-7 79-41 69-83-13-55-67-63-112-61M258 1870c-17 3-27 6-42 14-48 26-52 85-5 115 26 17 48 18 78 16 126-29 80-157-31-145m-2-820c-127 32-86 153 28 147 28-6 52-14 70-38q14-22 10-48c-10-48-65-64-108-61"/>
  <path fill="#c4c3c3" d="M921 256c3-39-1-90 0-131 0-16-2-38 1-53q5-19 17-34c22-25 54-33 86-35h1408c47 0 116 3 162 0h70c29 0 60 8 81 28q15 16 21 36c6 26 0 119 2 151 0 11-2 30 1 40v335l1 256a13271 13271 0 0 0 0 268c-1 114 7 85-106 87h-116c-21 0-80 3-96-3-17-8-30-17-35-35-16-55 32-179-65-178-76 0-184-7-261 4-29 4-48 62-6 72 57 18 118 22 174 40 43 14 20 58-10 61-34 3-72 2-106 2h-541l-153-1c-18-1-40-12-41-33-1-6 3-15 8-19 28-21 71-21 105-30q23-6 47-10t46-13c21-13 22-41 5-58q-10-9-24-13c-32-5-70-3-102-3h-147c-20 0-43 5-57 20-31 34-1 125-18 167-6 14-21 24-35 28-15 5-81 2-101 2l-39 1-2-1h-68c-24-1-88 4-104-5-6-10-2-264-2-301z"/>
  <path fill="#c4c3c3" d="M921 256c3-39-1-90 0-131 0-16-2-38 1-53q5-19 17-34c22-25 54-33 86-35q-2 302 1 602-3 299 1 599c-24-1-88 4-104-5-6-10-2-264-2-301zM2665 3c29 0 60 8 81 28q15 16 21 36c6 26 0 119 2 151 0 11-2 30 1 40v335l1 256a13271 13271 0 0 0 0 268c-1 114 7 85-106 87 3-87 1-182 0-269V195c0-59 2-134 0-192"/>
  <path fill="#e5e5e5" d="M2595 3h70c2 58 0 133 0 192v740c1 87 3 182 0 269h-70q-3-363 0-727V170c0-54-2-113 0-167M1025 3h65l5 3c3 20 1 103 0 129v912c0 22 4 141 0 157h-68q-4-299-1-599-3-300-1-602"/>
  <path fill="#a8a8a7" d="M2178 783c34-1 128-6 155 8q15 7 20 22 3 15-4 28c-8 12-23 18-36 21-42 0-96 2-136-1-55-4-64-64 1-78M1430 783c37 0 130-14 130 40q0 14-11 25c-20 18-59 14-85 13-35 1-119 14-124-36q-1-15 8-26c18-20 56-15 82-16"/>
  <path fill="#c7a54c" d="M6 2208q82-2 165-1c50 0 97-4 147 6 105 20 180 131 99 222q-16 17-33 30l-2 1c-19 7-44 24-65 26-100 11-210 4-311 6 1 20-2 105 2 118h279c55 8 102 22 138 70 48 64 25 142-38 185-57 39-124 35-189 35H6c1 36-1 84 1 119q36 2 74 0c70 2 151-3 219 2 27 6 50 10 73 25 72 44 101 113 56 189-65 76-121 77-214 76-22 0-201-2-207 2l-2 2-2-7c-1-14-1-62 1-75 27-5 48-10 68-32 32-34 10-72-24-92-10-5-37-9-43-14-3-18-3-261-1-267s37-15 45-19c23-12 32-30 39-54-11-39-26-52-66-63q-10-2-19-9v-191c0-21-2-56 2-75 11-7 36-9 48-17 28-18 46-50 25-81-18-28-42-34-72-40 0-18 1-61-1-77m271 218c30-5 55-11 75-37 24-33 11-73-22-94-14-9-45-20-62-17-135 16-109 147 9 148m11 407c26-5 49-14 65-37 24-34 8-74-26-94-27-16-45-15-75-14-26 6-49 15-64 39q-15 23-8 48c12 46 65 65 108 58m24 271q-31-14-64-5c-39 13-85 42-67 90 28 75 151 72 180 1q8-23-2-46-17-28-47-40"/>
  <path fill="#e73e3e" d="M248 3099c-7-9-6-13-6-23 1-6 0-36 4-37 14-6 53-7 65 2 5 10 6 53 1 63q-31-14-64-5"/>
  <path fill="#5c5c5c" d="M1237 1202c14-4 29-14 35-28 17-42-13-133 18-167 14-15 37-20 57-20h147c32 0 70-2 102 3q14 4 24 13c17 17 16 45-5 58q-22 9-46 13t-47 10c-34 9-77 9-105 30-5 4-9 13-8 19 1 21 23 32 41 33l153 1h541c34 0 72 1 106-2 30-3 53-47 10-61-56-18-117-22-174-40-42-10-23-68 6-72 77-11 185-4 261-4 97-1 49 123 65 178 5 18 18 27 35 35l-2 2-4 2c-4 24 2 63-1 81-4-20-1-59-2-81l-61-1v113c-22 0-83 2-102-1v-30c-2-24-1-56-1-81-10 0-49-2-57 1h-48c-12-3-40-1-53-1 0 21 2 86-1 103-2-26 0-75 0-103-10 0-43-3-48 4l-1-2c-5-4-44-2-53-1-10-1-40-3-47 2l-1 5-2-6c-10-4-39-2-51-2 0 13 2 93-1 103-12 14-45 17-49-5v-99h-52c0 16 2 94-1 105a34 34 0 0 1-49 0c-2-10 0-89 0-105-13 1-42 0-54 2l-47-1c0 31 1 74-1 104-2-11-1-87-1-104h-51c-1 28 1 76-1 103a33 33 0 0 1-49 1c-2-12-1-89-1-104h-52c0 19 2 89-1 104-14 14-33 13-48 1-3-11-1-90-1-106l-55 1-101 1c-8-3-52-1-63-1 0 22 1 94-1 112-5-28 3-82-2-115"/>
  <path fill="#898a89" d="m2281 1205 100 1v109c-25 0-78-1-100 1v-30c2-16 2-65 0-81M1563 1204l47 1c0 28-2 76 1 103a33 33 0 0 1-49 1c2-28 1-75 1-105M1768 1206h46c0 23-1 83 1 103a34 34 0 0 1-49 0c2-32 2-70 2-103M1870 1207l46-1c0 29-1 74 1 102-12 14-45 17-49-5 3-26 1-69 2-96M1461 1206h46l1 103c-14 14-33 13-48 1 2-32 1-72 1-104"/>
  <path fill="#c7a54c" d="M187 977c92 0 137-9 215 46l1 1c5 7 16 17 22 24 50 62 26 140-34 183-62 45-132 39-203 39H10q-3 0-3 6l-3-13c0-8-3-67 3-70 12-8 37-9 50-19 28-21 42-51 20-82-19-25-42-31-71-36-2-21-2-58 1-78 60-2 122 2 180-1m97 220c28-6 52-14 70-38q14-22 10-48c-10-48-65-64-108-61-127 32-86 153 28 147M4 1395c5-36 0-79 2-116l1 108h181c44 0 86-3 129 6 111 22 186 140 93 232q-38 35-86 47-48 10-97 7c-70-1-141 2-211 0l-10-1c0-8-7-69 0-74 10-6 38-9 51-18 29-20 44-52 21-83-20-26-43-32-73-37q-3-35-1-71m275 211c43-6 86-27 85-77 0-43-62-78-100-69-137 16-94 156 15 146M10 1796h197c16 0 49-1 64 1 55 3 108 21 146 63 52 57 44 131-14 181-52 44-110 48-176 48H11l-5-1-1-6q-4-36 3-71c45-6 68-23 81-67-10-36-25-51-61-63q-12-4-23-9c-5-15-1-58 1-74zm279 219c126-29 80-157-31-145-17 3-27 6-42 14-48 26-52 85-5 115 26 17 48 18 78 16M7 568c14-3 272-1 290 2q39 5 73 23c35 19 65 49 76 88q13 48-11 92c-23 41-68 66-112 78q-21 6-42 7c-45 3-109 0-157 1-23 0-98 1-117-1v-78c22-4 36-6 55-20 28-19 37-56 13-83-18-21-41-27-68-30zm286 217c25-7 50-18 63-42q13-22 6-48c-15-47-68-56-112-52-26 6-49 14-64 39-21 35-1 73 33 91 26 14 46 14 74 12M3232 1166c-10-92 48-143 134-165 32-8 69-7 101-7 68 1 137-2 204 1l1 77c-46 7-69 22-81 68 12 46 35 61 81 67 0 23 1 55-1 78l-2 3c-9-2-54-2-66-1h-113c-62 0-122 5-179-25q-59-32-79-96m82-26c7 28 13 42 39 59 16 10 44 17 62 16 30-5 58-13 77-39 24-32 9-70-21-92-15-10-48-21-66-17-51 5-77 22-91 73M3304 2077c-85-53-102-148-23-216 78-63 184-44 276-47 34-1 83-3 115 1l-1 77c-101 16-107 114 1 133l-1 80-3 1c-19 2-53 1-72 0-93-5-209 17-292-29m125-46c25-5 47-14 62-36q16-23 10-49c-7-36-45-57-79-59l-26-1c-137 24-82 168 33 145M3305 3071q33-17 70-24c23-4 287-8 296-1v74c-108 20-104 117 1 135-1 22 1 58-1 79-39 3-98 0-139 1-51-4-113 6-164-5-140-32-194-171-63-259m120 191c72-14 111-83 40-132-17-11-50-18-70-14-35 5-74 27-80 66-8 53 64 90 110 80M3395 2634h180c28 0 68-1 95 1l1 2 1 75c-17 2-27 3-42 11-45 24-50 78-6 106q21 13 48 16c0 23 1 56-1 78-8 3-228 3-254 2l-44-4c-62-11-126-52-140-117q-10-50 17-92c21-33 57-57 95-68 18-5 31-5 47-9zm30 218c27-6 52-14 68-39q14-22 8-47c-12-50-65-62-109-60-120 26-92 152 33 146M3672 1696c-86 2-174-1-260 0-53-1-108-20-144-59-86-92-11-205 95-225 55-11 109-7 165-8q72-1 143 1l1 78c-27 4-51 11-68 34q-14 20-9 43c8 36 44 51 77 57zm-358-146c16 60 52 74 110 72 71-8 110-78 46-128-16-12-51-21-72-17-51 8-69 25-84 73M3627 2224l44 1 1 76c-27 4-51 10-68 34q-14 21-9 44c7 37 44 52 77 55l-1 80c-47 2-104 0-152 1-44-2-93 4-137-3-87-13-165-73-151-167v-1c23-72 92-115 165-118 76-4 155 0 231-2m-212 220c28-4 57-12 74-36 44-62-27-117-86-112q-24 1-46 12c-87 48-23 143 58 136M3672 874c-80 5-168-2-249 2-55 2-116-19-156-59-50-51-49-129 4-178 44-42 101-55 160-55q120 0 240 1l1 77c-47 8-70 19-82 67 14 48 35 59 82 65zm-240-73c39-7 79-41 69-83-13-55-67-63-112-61-15 4-25 7-38 15-52 31-45 90 6 118q36 19 75 11"/>
  <path fill="#898a89" d="M921 256v642c0 37-4 291 2 301 16 9 80 4 104 5h68l2 1h-52c-7 117-219 105-203-17v-37c5-74-25-153 77-168V595c-101-22-73-94-77-172-4-66 3-107 77-122v-43zM2771 983c98 19 63 104 69 178 4 43 1 86-39 109-61 36-157 15-167-65q-20 1-39-1h70c113-2 105 27 105-87zM2770 300q79 23 69 103c-6 62 24 152-47 182l-22 8zM2453 1201c16 6 75 3 96 3v112h-103v-30c3-18-3-57 1-81l4-2zM1136 1204c20 0 86 3 101-2 5 33-3 87 2 115h-103zM1303 1206l101-1v112h-101zM2175 1206h48c1 27 17 151-45 106-6-9-3-90-3-106"/>
  <path fill="url(#a)" d="m1971 1213 1-5c7-5 37-3 47-2 0 18 5 96-6 107-5 5-15 6-22 6q-9-1-15-8c-11-12-6-80-5-98"/>
  <path fill="#898a89" d="M2073 1209c5-7 38-4 48-4 0 28-2 77 0 103-11 14-31 14-44 4-7-11-4-86-4-103"/>
  <path fill="url(#b)" d="m1665 1205 47 1c0 18 3 92-2 104-13 13-33 11-46-1 2-30 1-73 1-104"/>
  <path fill="#2f231c" d="M402 1023q11 2 18 11c67 73 41 157-34 210-15 10-33 8-44 23-45 13-96 10-143 10q-90 0-180 2-6 0-12-3 0-6 3-6h178c71 0 141 6 203-39 60-43 84-121 34-183-6-7-17-17-22-24zM3671 2522c-11 3-53 1-66 0l39-1c-24-6-97 1-124 2q-51 3-102-1v-1c-9 0-43-2-51-4-34-8-83-33-107-59q-11-15-21-31c-13-17-23-68-8-82-14 94 64 154 151 167 44 7 93 1 137 3 48-1 105 1 152-1zM3232 1166q20 64 79 96c57 30 117 25 179 25h113c12-1 57-1 66 1l-2 4c-21 4-45 0-66 2-42 3-82 0-123 0-90 0-173 0-230-82-10-14-19-28-16-46M3231 2344c-5-13 4-25 7-39q3-7 11-10c25-40 69-59 113-71h-4c40-11 109-6 152-6h100c14 0 45-2 56 4l-1 1-38 1c-76 2-155-2-231 2-73 3-142 46-165 118M429 3241c-4 27-53 51-75 65l2-2c-18 11-29 16-51 18q-49 3-98 1c-65-1-131 4-196 2q-3 0-5-4l2-2c6-4 185-2 207-2 93 1 149 0 214-76M3305 3071c24-46 159-35 204-34h89c24 2 44-9 67 1l6 6v2c-9-7-273-3-296 1q-37 7-70 24M8 2616l2-15 2 5q52-3 104-2-6 0-8 3c33 6 76-5 110 0q34 6 67 5l2 4H8M6 2498c101-2 211 5 311-6 21-2 46-19 65-26l2-1c0 19-84 37-101 38-91 4-182-2-273 3zM3304 2077c83 46 199 24 292 29 19 1 53 2 72 0l-5 4c-43 3-92 3-135 5-17 0-35-4-51-3-30 1-163-3-173-35M7 3025l3-7c37 1 277-3 289 8l1 1c-68-5-149 0-219-2q-38 2-74 0M10 1796c6-6 30-6 38-7a1872 1872 0 0 1 233 5l1 1-11 2c-15-2-48-1-64-1H10M8 968l2 3c17 0 35 3 51 1l-17-2c39-2 62 1 100 2 45 1 100-5 145 2-27 5-79-2-102 3-58 3-120-1-180 1zM3395 2634q5-3 12-4c77 2 154-2 231-4l29-1c4 5 3 3 3 10-27-2-67-1-95-1z"/>
  <path fill="#a8a8a7" d="M682 1436c43-2 100 0 145 0h2158c39 0 70 1 102 25 42 32 38 70 39 116l-1 106v1374c-1 59-54 88-106 93-16 2-69 1-87 1H849q-81 1-163-1c-45-1-104-33-109-82-3-18-2-41-2-60l1-102-1-357 1-673v-338c1-67 46-94 106-102"/>
  <path fill="#fefefd" d="M754 1485h2203c57 2 109 35 106 98v1422c0 58-39 86-92 97l-12 1c-36 3-96 1-134 1H857q-61 1-120-1c-31-1-75-24-89-51-16-33-11-96-11-133V1641l1-68c2-63 61-87 116-88"/>
  <path fill="#2b2a2a" d="M1431 2319c116-10 225 32 307 113l-59 36a311 311 0 0 0-234-88c-122 0-268 87-260 223 8 139 171 217 295 204 84-8 146-31 202-95l67 30q-67 76-165 107a429 429 0 0 1-325-30c-70-38-137-110-150-190H958v201l-78 39v-439c0-39-8-92 46-99 31-4 64-2 95-2h182l-64 61c-26 0-164-4-177 4-6 15-4 148-4 176h150c29-158 172-241 323-251M2850 2308l23-1v79c-88-4-170 20-231 87-25 27-34 49-45 82h196l1 77h-196c25 104 131 159 231 167h44v79l-70-2c-225-15-417-251-239-448 77-85 176-113 286-120M2314 2312l37-1 1 78h-15c-93-1-184 34-236 113-49 73-33 167 30 226 63 61 135 76 220 75l1 78q-28 1-54-1c-85-4-165-36-230-90-53-46-88-104-91-175-9-190 170-293 337-303"/>
  <path fill="#2b2a2a" d="M1449 2434c65-4 127 20 172 67-18 11-41 22-59 32-54-46-133-56-190-15-91 65-27 167 66 176 47 4 77-3 113-31l9-8c9-2 51 22 63 28l-3 4c-77 89-234 86-318 10-60-53-67-135-12-195 43-47 98-65 159-68M1830 1720zc3 5 1 180 1 202-11-1-35 1-46-2-2-1-2-9-3-13-7 1-30 14-47 16-37 4-62-2-92-23a84 84 0 0 1-27-40q-7-30 7-56c33-55 109-59 159-28l1-46c13-4 32-7 46-10"/>
  <path fill="#fefefd" d="M1710 1793c26-1 56 5 68 32q7 16 1 30c-8 18-24 25-40 31-29 5-62-2-72-34q-6-17 4-34c9-15 23-20 39-25"/>
  <path fill="#2b2a2a" d="M2653 1720h4l2 3 1 199h-36c-13-1-11-12-14-17-18 10-24 14-44 17-32 5-66-2-92-22-88-78 30-191 137-124v-48c16-4 26-6 42-8"/>
  <path fill="#fefefd" d="M2539 1793c27-2 59 7 68 36q6 16-2 31c-9 16-24 22-40 27-28 3-60-6-69-35q-6-18 3-34c9-16 24-21 40-25"/>
  <path fill="#2b2a2a" d="M2857 1755c31-2 60 1 88 18 37 23 52 70 25 108-19 26-45 35-75 41-51 3-116-11-127-71q-5-29 12-54 30-36 77-42"/>
  <path fill="#fefefd" d="M2863 1791c27-2 60 5 70 33q6 17-2 32c-9 17-24 24-41 30-29 4-65-7-73-39q-4-16 5-31 15-20 41-25"/>
  <path fill="#2b2a2a" d="m1011 1756 10-1c66-3 107 32 107 100H969l3 6c23 38 71 35 105 14 7 1 27 17 34 22-42 30-116 40-159 6-72-58-26-137 59-147"/>
  <path fill="#fefefd" d="M1014 1791c33-3 52 5 68 34h-41l-73-1 4-7c11-17 23-21 42-26"/>
  <path fill="#2b2a2a" d="m1245 1756 10-1c66-2 105 32 107 99-39 3-120 1-160 0 21 45 71 44 109 21 10 5 24 16 34 22-18 13-34 20-56 25-53 11-129-12-138-74q-3-30 15-55c19-25 49-34 79-37"/>
  <path fill="#fefefd" d="M1245 1791c34-3 53 4 70 34h-37l-72-1-2-3c6-17 25-25 41-30"/>
  <path fill="#2b2a2a" d="M1476 1756c31-5 74 5 96 29 19 21 23 42 23 70-44 2-114 0-161 0 25 43 68 43 109 21 6 0 27 17 33 21q-23 18-51 24c-54 11-130-8-140-73q-4-32 16-57c19-24 46-32 75-35"/>
  <path fill="#fefefd" d="M1478 1791c33-3 54 4 70 34h-113c10-21 21-29 43-34"/>
  <path fill="#2b2a2a" d="m2261 1758 21-2c0 28-6 109 11 119 99 62 77-95 76-118q24 2 48 2l1 61c0 26 2 54-17 75-33 37-111 37-146 3-17-16-21-35-21-57v-83zM801 1756c32-4 59 5 87 19l-22 25c-15-7-85-31-87 6 0 10 25 15 34 16 45 1 111 19 75 78-13 19-54 23-79 25-35-2-59-6-88-25l26-25c25 14 90 35 103 0-6-24-84-16-105-37-7-5-16-14-16-24-3-45 40-55 72-58M2001 1756c41-4 59 1 96 18l-22 24q-30-15-64-12c-12 1-25 7-23 21 17 21 79 11 102 33q13 8 15 23c5 48-45 59-81 61-37 1-62-6-93-25l26-24c23 13 73 30 97 6q3-6 1-11c-16-24-108-7-116-53-7-42 28-55 62-61M1890 2042c27-1 59 2 66 34 7 34 3 68-36 77q-26 6-51-6c-27-14-29-62-14-85 8-13 20-17 35-20"/>
  <path fill="#fefefd" d="M1889 2057q15-2 29 1 13 6 19 20c9 24 2 52-24 62-18 2-36 0-43-18-11-27-6-52 19-65"/>
  <path fill="#2b2a2a" d="M2160 1735c8-2 11-3 17 1 3 8 1 24 1 34l28 1 1 33h-28c1 21-4 55 5 72 5 10 15 12 25 15l1 30c-86 1-79-39-78-107v-76q13-2 28-3M2740 2037q18 0 34 7c27 15 28 63 14 86-10 14-23 17-39 19q-20 2-38-9c-24-17-26-63-10-85 10-14 23-16 39-18"/>
  <path fill="#fefefd" d="M2733 2051c18-1 34 1 40 19 9 25 7 54-19 65-17 1-33-1-39-18-9-24-7-54 18-66"/>
  <path fill="#2b2a2a" d="M2489 2039c26-1 52 4 58 33 7 39 1 69-41 78-15 0-27 0-41-8-25-16-27-62-11-85 8-13 20-16 35-18"/>
  <path fill="#fefefd" d="M2492 2051c15 0 30 4 35 20 7 25 6 55-21 65-7 0-19 1-25-4-26-19-25-72 11-81"/>
  <path fill="#2b2a2a" d="M2079 2042c25 0 57-3 81 4 17 4 24 24 18 39q-9 15-25 19c7 12 28 32 26 44q-6 4-15 1l-31-43h-34c0 11 2 36-4 43-7 1-7 1-14-1-5-8-2-90-2-106"/>
  <path fill="#fefefd" d="M2098 2055c19-1 84-5 56 33-18 8-35 6-55 6z"/>
  <path fill="#2b2a2a" d="M1240 2047q7 0 13 4c3 19 2 84 0 106q-1 3-5 4c-15-1-5-11-24-4-18 7-28 6-47-2-44-34 0-106 59-68 0-11-2-32 4-40"/>
  <path fill="#fefefd" d="M1197 2091c49-6 53 43 20 57-15 2-27 0-35-15q-6-12-2-24c3-11 7-13 17-18"/>
  <path fill="#2b2a2a" d="M2212 2041c27 0 67-5 90 11 14 10 13 28 3 41-11 13-22 14-38 15h-38v32c-1 11-12 12-19 6-2-12-3-98 2-105"/>
  <path fill="#fefefd" d="M2228 2054c20-1 88-4 58 35-18 8-37 6-58 6z"/>
  <path fill="#2b2a2a" d="M2694 1773h46l1 148h-48zM1079 2078c38-3 76 10 60 62-4 11-19 18-30 21-71 10-86-65-30-83"/>
  <path fill="#fefefd" d="M1082 2091c48-7 55 42 24 57-15 3-28 2-37-12q-7-11-4-24 3-15 17-21"/>
  <path fill="#2b2a2a" d="M958 2117c11-15 40-66 56-68 13 11 5 74 7 93 1 8 1 16-8 20q-12-4-11-18v-63c-10 15-28 53-46 52-12-6-31-38-41-51 0 17 6 68-7 78-5 1-5 1-10-1-4-11-2-92-2-108h12c15 6 41 51 50 66M1760 2045h24c7 15 51 101 49 109q-6 2-12 1-11-10-16-25h-66c-4 8-8 19-14 25-7 0-7 1-14-2l-1-3c4-13 42-88 50-105"/>
  <path fill="#fefefd" d="M1771 2064c6 4 23 43 27 53h-54z"/>
  <path fill="#2b2a2a" d="M2629 2039h23v69c10 1 17-3 23 7l-2 4q-10 4-21 3c0 13 3 19-8 28-14-1-12-16-11-25-11-9-57 6-69-8 0-10 55-68 65-78"/>
  <path fill="#fefefd" d="M2631 2058c3 6 2 41 2 51h-44v-2c3-6 35-42 42-49"/>
  <path fill="#2b2a2a" d="M1323 2077c23 1 60 15 47 44-15 9-62-5-72 6q-2 6 2 10c17 18 36 13 52 2h14l2 4c-6 10-23 17-35 19-41 6-71-32-47-69 9-13 23-15 37-16"/>
  <path fill="#fefefd" d="M1315 2089c14-1 36 3 37 20-5 4-4 3-13 3-11 0-41 4-42-9q7-9 18-14"/>
  <path fill="#2b2a2a" d="M1628 2046q8 0 16 2v3c-10 14-30 35-42 49 9 10 46 47 46 55-21 8-46-28-59-43l-36 42q-9 5-18 0c1-11 33-43 43-53-10-12-38-41-43-52 19-12 44 27 55 39 8-11 28-33 38-42M2369 2039c57-3 71 37 25 69l-33 27c14 0 57-5 64 7l-1 4c-8 6-60 3-74 3h-2c-9 1-12 2-19-4 0-22 72-49 74-76 0-12-19-18-28-18-19-1-19 25-40 24-19-18 20-33 34-36M1669 2045l16 1c5 7 3 95 3 110-7 0-9 0-16-2-5-8-2-92-3-109M1396 2048c7 0 11-2 16 4 1 15 1 93-1 107-8 0-10 1-16-3-2-13-3-100 1-108M2708 1717c37-1 47 31 14 43-35 1-47-30-14-43M1981 2098c17 1 52-3 67 2 3 6 2 4 2 12-14 0-59 3-69-3-3-6-2-3 0-11M1444 2140c10 0 16-3 21 7 0 6 0 7-3 12-10 0-15 2-21-7 0-7 1-6 3-12M1442 2083q11-1 20 2c4 5 2 10 2 16q-11 2-20-1c-4-7-2-8-2-17"/>
  <path fill="#c4c3c3" d="M681 3300c8-91 103-79 169-79h303c27 0 62-2 89 2 38 6 70 36 74 75l1 1c20 9 80-13 94 19 8 17 5 181 3 214-9 11-16 18-31 19q-33 1-67 0c-2 29-15 46-38 62-37 23-92 17-134 17H854c-63 0-163 10-173-78-35-1-75 10-98-21-4-40 0-88-1-129-3-107-2-104 99-102"/>
  <path fill="#898a89" d="M583 3531c-4-40 0-88-1-129-3-107-2-104 99-102v166c0 23-2 65 0 86-35-1-75 10-98-21M1316 3298l1 1c20 9 80-13 94 19 8 17 5 181 3 214-9 11-16 18-31 19q-33 1-67 0 0-58 1-114z"/>
  <path fill="#2b2a2a" d="M980 3292q18-2 35-1c201 20 214 242 3 269q-77 8-141-37c-55-41-70-114-25-169 32-39 78-57 128-62"/>
  <path fill="#c4c3c3" d="M2358 3300c12-91 96-79 164-79h305c29 0 63-2 92 2 40 7 70 37 74 77h45c18-1 49 2 52 26 3 23 0 50 1 74v117q1 15-10 26c-15 13-66 9-88 8-13 91-103 79-171 79h-290c-70 0-159 13-173-79-102 0-100 13-100-91v-138c22-31 65-22 99-22"/>
  <path fill="#898a89" d="M2259 3322c22-31 65-22 99-22v175c0 20-1 58 1 76-102 0-100 13-100-91zM2993 3300h45c18-1 49 2 52 26 3 23 0 50 1 74v117q1 15-10 26c-15 13-66 9-88 8-2-11 0-74 0-87z"/>
  <path fill="#2b2a2a" d="M2659 3292c48-5 98 9 136 37 78 58 66 159-16 205-31 17-51 21-87 26-239 9-254-248-33-268"/>
  <path fill="#8db75e" d="M1698 3301h65v7c12-6 126 1 151-4q4 5 3 12l1-16 66 1 1 17q4 1 5 4c8 34 3 73 3 108 0 21 7 87-2 103l-1-2-1-6q0 8-3 12l-2-4-1 1q1 10-2 16c-17 3-45 1-63 1v-6c-47-3-94-1-142-2-7 0-8-2-11-6l-1-1c0 6 1 8-1 14-14 2-47 2-62 1q-2-7-2-15l-1-1-1 3-3 2c-11-7-13-35-10-46 8-30-4-160 11-177l2 1z"/>
  <path fill="#1e2b10" d="m1698 3535-1 3-3 2c-11-7-13-35-10-46 8-30-4-160 11-177l2 1v140c0 21-1 56 1 77M1985 3318q4 1 5 4c8 34 3 73 3 108 0 21 7 87-2 103l-1-2-1-6q0 8-3 12l-2-4c3-69 0-144 1-215M1763 3308c12-6 126 1 151-4q4 5 3 12c-19 0-147 2-153-2zM1765 3537c12-3 136-3 150-1 3 4 3 4 3 9-47-3-94-1-142-2-7 0-8-2-11-6"/>
  <path fill="#e5e5e5" d="m1918 3551 1-14c5-5 54-3 64-3q1 10-2 16c-17 3-45 1-63 1M1699 3536c7-3 59-2 65 0 0 6 1 8-1 14-14 2-47 2-62 1q-2-7-2-15M1918 3300l66 1-1 14c-6 2-52 1-61 0-3-2-3-10-4-15M1698 3301h65q0 9-4 14c-9 1-54 3-60 0v-1z"/>
  <path fill="#fefefd" d="M1698 3301h6q9 0 14 5c-6 5-12 3-19 8z"/>
  <path fill="#83bd46" d="m1724 3324 91-1c49 4 109-6 155 3 14 14 1 95 1 116 1 20 16 70 1 86-34 6-91 0-128 0-22 0-123 6-136-2-6-19 0-84-1-108 0-23-3-68 1-89 6-5 7-4 16-5"/>
  <path fill="#fefefd" d="M321 3386c38 0 83-3 120 5 12 3 28 14 32 25 13 35-7 54-37 66 15 21 34 48 47 70h-29c-8-4-40-56-46-66h-57l1 66h-31z"/>
  <path fill="#2b2a2a" d="M352 3405q29-1 58 1c30 4 53 22 27 50-24 15-58 12-85 8z"/>
</svg>
