<svg xmlns="http://www.w3.org/2000/svg" width="1032" height="4096" preserveAspectRatio="none" style="display:block" viewBox="0 0 4096 4096">
  <defs>
    <linearGradient id="k" x1="4060.2" x2="4080.2" y1="3329" y2="3329" gradientUnits="userSpaceOnUse">
      <stop class="stop0" offset="0" stop-color="#030302"/>
      <stop class="stop1" offset="1" stop-color="#000100"/>
    </linearGradient>
    <linearGradient id="j" x1="387.9" x2="414.1" y1="1475.9" y2="1476.1" gradientUnits="userSpaceOnUse">
      <stop class="stop0" offset="0"/>
      <stop class="stop1" offset="1" stop-color="#010201"/>
    </linearGradient>
    <linearGradient id="i" x1="1648" x2="1648" y1="3822.3" y2="3805.8" gradientUnits="userSpaceOnUse">
      <stop class="stop0" offset="0" stop-color="#333622"/>
      <stop class="stop1" offset="1" stop-color="#4e512f"/>
    </linearGradient>
    <linearGradient id="h" x1="3523.2" x2="3490.4" y1="3962.9" y2="4047" gradientUnits="userSpaceOnUse">
      <stop class="stop0" offset="0" stop-color="#3f412a"/>
      <stop class="stop1" offset="1" stop-color="#545a33"/>
    </linearGradient>
    <linearGradient id="g" x1="2553.6" x2="2475.8" y1="2939.4" y2="3056.9" gradientUnits="userSpaceOnUse">
      <stop class="stop0" offset="0" stop-color="#2e3122"/>
      <stop class="stop1" offset="1" stop-color="#484c34"/>
    </linearGradient>
    <linearGradient id="f" x1="656" x2="666.8" y1="3733.8" y2="3762.4" gradientUnits="userSpaceOnUse">
      <stop class="stop0" offset="0" stop-color="#37362e"/>
      <stop class="stop1" offset="1" stop-color="#515736"/>
    </linearGradient>
    <linearGradient id="e" x1="237.4" x2="338.3" y1="3635.5" y2="3620.4" gradientUnits="userSpaceOnUse">
      <stop class="stop0" offset="0" stop-color="#000100"/>
      <stop class="stop1" offset="1" stop-color="#1e2014"/>
    </linearGradient>
    <linearGradient id="d" x1="642" x2="644.2" y1="3271.8" y2="3284.8" gradientUnits="userSpaceOnUse">
      <stop class="stop0" offset="0" stop-color="#393b2a"/>
      <stop class="stop1" offset="1" stop-color="#515638"/>
    </linearGradient>
    <linearGradient id="c" x1="563.3" x2="561.5" y1="3185.7" y2="3300.6" gradientUnits="userSpaceOnUse">
      <stop class="stop0" offset="0" stop-color="#050600"/>
      <stop class="stop1" offset="1" stop-color="#1d1f12"/>
    </linearGradient>
    <linearGradient id="b" x1="412.1" x2="409.7" y1="3395.2" y2="3381.6" gradientUnits="userSpaceOnUse">
      <stop class="stop0" offset="0" stop-color="#414335"/>
      <stop class="stop1" offset="1" stop-color="#515537"/>
    </linearGradient>
    <linearGradient id="a" x1="2731.9" x2="2615.6" y1="3503.6" y2="3506.6" gradientUnits="userSpaceOnUse">
      <stop class="stop0" offset="0" stop-color="#010400"/>
      <stop class="stop1" offset="1" stop-color="#222318"/>
    </linearGradient>
  </defs>
  <path fill="none" d="m759 2118 2 1c2 10 1 27 1 38-6-8-4-29-3-39m0-110 2 1q2 15 0 29l-1-1q-4-15-1-29"/>
  <path fill="#010202" d="M523 0h92c51 6 156 12 195 58 10 11 6 70 6 91v132c-26 7-36 6-63 7 3 59 1 139 1 200v383l-1 1111 1 33c-3 77-1 172-1 250v401c16 0 60-2 70 4 2 4 7 16 13 16 55-1 134-3 186-10-5 1 25-29 40-27 71-18 145-15 217-15h1563c76 0 242-7 302 38 47-12 83-10 131-9 204 4 411-10 611 41 55 14 143 37 167 96 7 19-19 63 16 64-6 3-5 1-8 5v2c5 4 6 3 6 7q2 65 1 128l1 267v350c0 42 3 132-1 169l-3 5 1 3c-9 2-8 1-13 6v4l6 2c4 36-1 82 1 119 0 7-26 38-34 42-92 57-204 81-310 102-51 9-89 10-137 16-14 1-65 2-76 5h-792c-56-11-104-11-160-11h-134l-536-2-327 1c-56 1-119-3-173 7-20 4-58 3-80 3h-125c-176 0-354 3-529-20-110-14-224-43-331-70-78-20-159-38-228-82-74-47-47-162-52-237q-8-82-8-164c1-36 2-97-10-129 8-61-4-136-2-199q-1-6-8-9c7-61-1-129-1-190q0-6-7-9v-144l6-2q5-16 15-28c46-61 199-90 274-100h2l7-2 10-38c10-7 58-5 72-5l-4 6h21c7-5 13-4 21-5-6 0-6 1-12-2-3-10 0-102 0-118V976l1-412c0-78 1-162-1-239-2-14 4-34-7-41-9 0-8 1-16 4h-7q-32 2-60-9c-1-68-2-147 0-214C373 9 455 10 523 0m2737 2795c-6 7-4 3-6 12 3 7 7 9 13 14 14 1 38 8 52 7 56-3 383 13 403-36-7-15-30-13-45-13q-181 4-364 6c-16 0-37 5-53 10M38 3567c4-14 11-48 4-61l-4-1c-3 14-1 47-1 63zm8 194c7-7 11-27 1-32-2 9-4 24-1 33z"/>
  <path fill="#2c2c2c" d="M415 286c102 0 210-2 311 0 7 214 4 442 3 658l1 696v726c0 93 4 208 0 300-99 6-207-6-306 1-6 0-6 1-12-2-3-10 0-102 0-118V976l1-412c0-78 1-162-1-239q3-19 3-39m3649 3507q-5 3-11 4c-15-6-8-40-8-55l-1-157 1-495c0-30-4-202 3-220 6-3 5-2 13-1v2c5 4 6 3 6 7q2 65 1 128l1 267v350c0 42 3 132-1 169zM382 2672h21c35 2 85 1 120 1h190c15 0 81-3 89 3 0 9 1 5-3 11-6 3-142 3-163 2-103 0-200 6-302 16l1-33z"/>
  <path fill="#5e643e" d="M3467 4090h-190l-414-1c-55 0-116 2-171-2-26-1-81-23-110-32-67-21-136-52-206-66-44-8-89-7-133-8h-321c-69 0-148-2-217 5-81 12-166 46-244 74-78 27-95 28-176 28h-121c-165 0-331 3-495-18-101-13-201-37-300-62-67-17-139-32-203-59-37-16-78-37-93-76-8-21-8-139-9-172l-24-530q-9-157-13-314c0-12 12-39 19-47 21-24 60-42 89-53q83-28 170-40c180-29 361-18 541-24 130-4 260-19 390-19h146c43-2 87-17 131-17l1153 1c8 0 22 0 30 2 26 6 51 18 79 18h372c18 0 33-8 49-8h177c96 0 195-1 291 7 93 8 214 25 300 64 23 10 34 21 50 41q8 6 12 14c4 13 2 137 2 163v668l4 207c1 39 13 95-16 124q-18 19-42 30c-126 59-273 88-410 97-23 2-79 2-97 5m-200-1269c14 1 38 8 52 7 56-3 383 13 403-36-7-15-30-13-45-13q-181 4-364 6c-16 0-37 5-53 10-6 7-4 3-6 12 3 7 7 9 13 14"/>
  <path fill="#474a30" d="m3992 2780 5 6h4l2-3 1 3c-1 19-7 42-9 62s-2 45-3 65q0 341-2 681l-5 123-2 139c0 29 2 60-2 89q-3 12-12 22h-3c-1-10 9-24 9-42l1-180q7-448 9-896c0-23 7-43 7-67z"/>
  <path fill="#4b4e2e" d="M4026 2796c4 13 2 137 2 163v668q-5 14-5 31c-5-13-4-81-4-100v-205l1-335 1-205q-1-9 5-17"/>
  <path fill="#474a30" d="M3992 2780c-46-50-191-58-257-62-11-1-58-2-65-5 18-9 188 12 219 18 22 5 55 19 75 10 23 10 34 21 50 41l-3 4h-7l-1-3-2 3h-4z"/>
  <path fill="#4b4e2e" d="M2581 3222c7 0 7-1 12 2 31 0 108 6 130 30 12 14 8 55 8 74v104c0 94 1 193-1 287-21 29-73 36-107 38l-9 1c-55 2-119 0-175 0H1438l-9-1c-36-3-92-7-120-29-11-8-7-85-7-101v-269c0-20-4-96 9-105 62-40 198-31 267-31z"/>
  <path fill="#191b11" d="M1429 3757c-36-3-92-7-120-29-11-8-7-85-7-101v-269c0-20-4-96 9-105 62-40 198-31 267-31h1003l-1 3c-18 2-62 1-82 1h-955c-41 0-220-8-226 42-7 15 1 399-3 447 19 34 82 34 117 39v2z"/>
  <path fill="url(#a)" d="M2717 3262c2-6 0-3 6-8 12 14 8 55 8 74v104c0 94 1 193-1 287-21 29-73 36-107 38 7-11 92-8 94-40q3-28 2-57v-278c0-39 1-82-2-120"/>
  <path fill="#191b11" d="M1438 3758c7-5 11-4 21-4h189l379 1h431c50 0 105-2 154-1l2 4c-55 2-119 0-175 0z"/>
  <path fill="#474a30" d="M1317 3268c7 15 7 44 6 60l-2-10c-1 54-2 130 1 183l1-13q4 65-1 131c-1 22 8 78-1 97l-3 1-4-2c4-48-4-432 3-447"/>
  <path fill="#191b11" d="M2593 3224c31 0 108 6 130 30-6 5-4 2-6 8-26-33-93-27-124-38"/>
  <path fill="#010202" d="M1451 3245c51-3 116-1 167-1h732l224 1c16 0 53 2 64 14 8 19 5 78 5 102v275c0 22 2 68-3 88-11 11-36 12-52 13-16 3-47 0-65 1h-829l-232-1c-19 0-52-1-68-13-5-12-5-441-1-465 20-12 36-12 58-14"/>
  <path fill="#191b11" d="M115 3389c-2 65 4 137 5 203l3 170c1 36-2 115 25 138 70 59 196 82 282 103q157 41 314 59c141 15 282 12 423 12h105c80 0 86-4 162-31 83-25 174-66 262-70 200-11 403-3 602-5 111-1 204 34 306 71 32 12 70 27 104 33 56 6 121 4 178 4h266c44 0 101-1 144 1-5 4-338 3-367 3l-125-1c-35 0-80 1-115-6-31-7-67-23-97-32-49-14-99-40-149-51-140-33-291-13-435-19h-72c-91 2-184-5-275 10-71 12-138 40-205 62-47 15-92 36-143 35-212-2-427 9-637-20-103-14-204-40-305-64-77-17-170-39-232-91a83 83 0 0 1-24-53c-4-40-2-83-4-123-6-113-6-225-8-338l-9-336-3-104c-2-45-15-106 22-137 74-61 209-82 302-91 147-15 299-12 446-12l651 1 1370 1 569 2c-9 2-54 2-66 2 24 9 91 17 74 58 12 8 232-11 265 2 13-9 56 0 58 21-8 20-57 32-77 31-57 13-133 12-192 16-14 0-52-1-64 2v3c23 14 29 14 45 42 0 5 0 2-3 8 33-4 67-21 104-24 71-5 135 23 205 5 27-7 128-35 145-4-1 30-50 28-72 37l-33 10c-68 22-130 15-198 4-41-7-87 7-127 17v26c39-14 97-25 138-18 43 7 71 11 115 11 41-1 146-48 177-11q4 16-11 21-66 21-134 37c-73 16-136-11-210-7l-1 1c-23 4-53 12-76 18v28q43-19 90-22c52-4 101 13 153 12 53-1 124-39 174-22q9 3 14 11 3 7-1 12c-12 19-153 48-180 50-50 3-96-12-145-12-36 0-71 11-105 20l3 23c30-6 69-18 101-19 53-1 94 17 151 14 48-2 124-42 173-18 4 2 5 11 5 14q-1 8-8 12c-39 13-130 42-168 43h-6c-8-4-33-3-43-4-45-6-90-14-135-16q2 3 7 4c-6 5-105 21-125 33-8 3-29 5-35 0-14 1-50-1-51-18 11-21 102-21 120-42q12-11 1-21c-8-2-23 2-34 4h-39l-3-1h-3c-14-1-31-2-41-13-2-28 114-23 125-53l-2-12c-8-7-90 15-125-9l-2-3c13-33 118-15 128-61l-1-5c-12-5-105 17-124-9 0-30 85-19 99-45 0-34-41-49-70-51-39-3-198 7-210-36 5-48 183-33 217-36 12-1 22 3 31-7 11-62-202-52-239-52h-930l-1163-2H784c-106 0-214-1-320 8-96 7-200 22-289 60-26 11-61 33-70 61q-4 8-4 18l2 84 8 306c1 22 0 111 3 125zm3152-568c14 1 38 8 52 7 56-3 383 13 403-36-7-15-30-13-45-13q-181 4-364 6c-16 0-37 5-53 10-6 7-4 3-6 12 3 7 7 9 13 14"/>
  <path fill="#4b4e2e" d="M3433 3184c-12-5-30-5-36-18 7-10 90-28 108-32 6 7 8 9 18 8l-6-9 2-4c112-46 148-5 259-10 50-2 104-35 148-20 22 26-22 29-34 34-17 8-115 27-122 34h-6c-8-4-33-3-43-4-45-6-90-14-135-16q2 3 7 4c-6 5-105 21-125 33-8 3-29 5-35 0m-6-78q-18-5-32-14c4-17 92-28 110-34 2-1 11 11 23 7-7-4-10-4-13-10 12-12 86-26 108-25 32 0 62 9 94 12 53 6 105-8 156-21 11-3 63-8 58 13q-1 9-10 13-28 9-57 16c-41 13-87 27-131 24-39-2-104-20-141-14l5 1c-19 4-119 24-128 33h-39z"/>
  <path fill="#191b11" d="m3430 3107 1-3h32l3 3z"/>
  <path fill="#4b4e2e" d="M3589 3003v-3c-51 3-133 44-188 20q-5-2-6-7c11-13 60-18 77-24l38-13 1 1-7 6 2 3 14 2-5-5c8-14 28-17 43-21 23-6 52-11 76-9 46 5 90 17 137 13 52-1 101-33 153-22 8 2 11 17 5 21-12 9-36 14-51 18-53 14-104 33-159 26-27-2-107-18-129-14l8 2-8 5z"/>
  <path fill="#474a30" d="M3724 2775c13-9 56 0 58 21-8 20-57 32-77 31l1-1c-7-3-11 1-20-1 8-7 48-10 64-30 2-14-14-16-26-20"/>
  <path fill="#4b4e2e" d="M3877 2867c16-2 49-5 54 15-3 10-17 14-27 17-60 14-123 40-186 33-43-5-87-16-130-15q6 0 11 5c-57 6-101 26-152 29-13-1-50-1-52-15 5-7 114-36 116-35-4 3-4 2-7 6 4 4 13 6 18 4l-5-4c8-20 97-34 116-30 100 21 147 11 244-10"/>
  <path fill="#010202" d="m3267 2821-4 4c-10 3-31-4-35-16 2-17 21-30 32-14-6 7-4 3-6 12 3 7 7 9 13 14"/>
  <path fill="#4b4e2e" d="M708 3554h-4q-40 2-79-3c-56-5-114-17-169-25q-85-12-168-32c-70-17-47-51-51-108 0-48 156-43 183-40 45 4 89 13 134 19 17 2 69 10 84 14 54 12 141 13 175 58q3 42 1 83c-19 26-66 31-96 32-5 2-5 3-10 2"/>
  <path fill="#191b11" d="M708 3554h-4q-40 2-79-3c-56-5-114-17-169-25q-85-12-168-32c-70-17-47-51-51-108 0-48 156-43 183-40 45 4 89 13 134 19q-3 3-7 2c-83-11-165-29-249-13-11 3-33 8-41 17 1 3 0 42 2 49 1 7-1 37-3 45l-2 1c12 23 70 34 94 37 90 14 184 35 273 44q26 3 53 3c10 1 24-1 33 1z"/>
  <path fill="#474a30" d="M257 3371c1 3 0 42 2 49 1 7-1 37-3 45l-2 1q-4-4-3-10c1-21-7-70 6-85"/>
  <path fill="#191b11" d="M638 3379c54 12 141 13 175 58q3 42 1 83c-19 26-66 31-96 32 16-10 77-7 81-32 2-16 7-78-4-90-28-30-119-42-157-47z"/>
  <path fill="#191b11" d="M339 3482c-34-11-21-36-22-64 1-11-5-38 7-44 48-23 146 0 195 8 45 5 116 15 160 25 55 13 57 18 57 74 0 15 0 25-3 40l-9 7c-78 24-223-23-307-30-18-1-60-10-78-16"/>
  <path fill="#191b11" d="M339 3482c-34-11-21-36-22-64 1-11-5-38 7-44 48-23 146 0 195 8 45 5 116 15 160 25l-6 4v2q10-1 19 2c-39 6-355 44-364 50l11 7 4 2z"/>
  <path fill="#010202" d="M339 3482c-34-11-21-36-22-64 1-11-5-38 7-44 48-23 146 0 195 8-12 1-16-1-27-1-7 3-148 22-160 21l-1 9-1 1c-4 11 2 7 0 18 7-5 246-36 258-34l17 3 1 3 20 4c-31 5-288 36-295 40l-1 8-2 11 11 7 4 2z"/>
  <path fill="#474a30" d="M330 3430c7-5 246-36 258-34l17 3 1 3-272 35-3-3z"/>
  <path fill="url(#b)" d="m332 3402-1-6c9-8 108-15 126-19 4-1 27 4 35 4-7 3-148 22-160 21"/>
  <path fill="#474a30" d="M381 3371c16-2 27-1 43 2l-46 7c-9 1-35 7-41 1 9-9 31-9 44-10m245 35c19-2 26 0 44 5l-240 31c-17 2-91 13-100 12l1-8c7-4 264-35 295-40m-295 5c59-12 125-14 185-25l23 4 1 2c-3 1-198 28-207 27-3-4-2-2-3-7zm-3 54c9-6 325-44 364-50l17 8-243 31c-36 5-93 11-127 18zm390-35c-1 6 0 4-3 7-67 11-141 20-209 29l-101 12c-19 3-40 10-57 1 8-6 63-10 76-12l149-20c24-3 133-19 144-18zm-329 58 5-1c70-12 243-29 323-42l4 3-2 6-59 8c-69 2-209 41-271 26m332-19c-6 3-47 9-55 9-62 3-159 31-217 21l2-2c56-10 120-15 176-24 15-2 85-12 94-11zm-216 38c42-8 90-11 133-18 12-2 72-11 81-10 3 4 2 2 3 7-24 9-153 21-186 25-5 1-22-1-28-3z"/>
  <path fill="#010202" d="M679 3407c55 13 57 18 57 74 0 15 0 25-3 40l-9 7c-4-11 3-11-2-27l2-4-2-11 2-6q-3-5-3-11v-7l-3-4 1-4 2-6c2-8 4-12-3-18l-1-1c-5-9-1 1-8-6l-17-8q-9-2-19-2v-2z"/>
  <path fill="#474a30" d="M562 3516c20-3 150-22 159-18l1 3c-12 8-129 22-148 18zm151-3h6l-1 4c-15 12-64 12-83 12l-9-2-1-2c22-5 64-9 88-12"/>
  <path fill="#4b4e2e" d="M322 3115c5-3 28-3 34-3h34l26 2 212 34c44 7 87 12 130 26 51 15 55 27 56 77 2 74-32 57-90 71l-22 2h-42c-13 0-58-3-66-8-25-1-87-14-115-18-69-12-144-21-211-42-12-3-24-15-32-24-10-91-5-106 86-117"/>
  <path fill="#191b11" d="m416 3114 212 34c44 7 87 12 130 26 51 15 55 27 56 77 2 74-32 57-90 71 13-10 60-10 70-24 9-14 5-77 3-94-31-34-124-45-171-53q-103-18-208-33zm-94 1 3 2c-16 4-64 11-72 24-8 12-10 77-4 91 12 26 93 38 115 43l154 25c15 2 65 9 76 16-25-1-87-14-115-18-69-12-144-21-211-42-12-3-24-15-32-24-10-91-5-106 86-117m338 209-6-3c10-3 34-1 45-1q3 1 3 4zm-304-212h34l-1 2c-6 4-24 2-32 1z"/>
  <path fill="#191b11" d="M419 3267c-25-4-79-11-100-27-12-15-4-60-5-80-3-46 119-21 141-17a2446 2446 0 0 1 253 43c8 4 22 12 24 21 3 18 7 68 1 84-15 15-84 17-102 10-16-1-54-8-71-11l-125-21z"/>
  <path fill="url(#c)" d="M708 3186c8 4 22 12 24 21 3 18 7 68 1 84-15 15-84 17-102 10-16-1-54-8-71-11l-125-21-16-2 3-2v-3l-26-3-6-1q-1-4-5-7c39-9 323-38 331-46v-6c-4-5-2-3-9-5l-2-5z"/>
  <path fill="#191b11" d="M452 3268q27-7 55-9l199-26c8-1 8-2 13 3 7 8 11 41 5 51l-5-11c-17 3-81 8-92 13l3 3-2 5 3 4c-16-1-54-8-71-11l-125-21q7-4 15-3h-2z"/>
  <path fill="#474a30" d="M452 3268q27-7 55-9l199-26c8-1 8-2 13 3l-2 4c-10 3-51 10-62 10-48 1-160 31-203 18"/>
  <path fill="url(#d)" d="M563 3286c43-3 88-11 131-16q12-3 25-3l2 3-2 6c-17 3-81 8-92 13-28 4-36 2-64-3"/>
  <path fill="#474a30" d="M700 3251c11-1 10-3 19 1l1 3c-9 7-166 28-187 27l-19-5c3-3 166-23 186-26m-304 8c7-4 116-19 132-20 32-2 169-27 190-20-6 11-203 30-230 35-14 3-52 7-66 8zm260-85c15 2 39 6 52 12l-3 3 2 5c7 2 5 0 9 5v6c-8 8-292 37-331 46q-20 4-36-5l-2 1-15-6-5-6c16-13 290-34 338-48-6-4 5-3-9-13"/>
  <path fill="#474a30" d="m349 3246 328-43q20-4 39-4v6c-8 8-292 37-331 46q-20 4-36-5"/>
  <path fill="#191b11" d="m705 3189 2 5c7 2 5 0 9 5q-20 1-39 4l-328 43-2 1-15-6c43-7 353-42 371-51z"/>
  <path fill="#010202" d="M656 3174c15 2 39 6 52 12l-3 3-2 1c-16-6-22-5-38-3-6-4 5-3-9-13m-237 93c-25-4-79-11-100-27-12-15-4-60-5-80-3-46 119-21 141-17l-6 4c-9 3-11 3-19 4-2-4-1-2-1-7l-3-1c-23-3-79-9-98 6-4 5-2 1-2 7-1 23-5 52 0 75l1 4 5 6 15 6 2-1q17 9 36 5 4 3 5 7l6 1 26 3v3z"/>
  <path fill="#474a30" d="m449 3147 26 4c3 0 2 0 5 2-6 3-134 20-148 21l-5-2v-4c9-9 82-11 103-17 8-1 10-1 19-4m-121 2c19-15 75-9 98-6-10 4-89 15-96 11zm295 28c11-3 29 1 41 3-97 15-212 30-308 41-9 1-21 5-28-1 11-11 255-38 295-43m-56-10q20-2 41 4c-69 13-168 21-240 32-11 2-33 6-42 0 12-9 211-32 241-36m-52-10c5 0 18 1 22 4-12 7-162 24-187 27q-14 5-23-1v-4c7-4 166-23 188-26"/>
  <path fill="#4b4e2e" d="M334 3577c76-11 168 12 244 23q88 13 176 33c81 19 61 51 61 119-22 20-57 27-87 28l-4 1c-35 3-60 3-95 0l-2-1c-24 0-90-12-116-16-69-12-139-21-206-38-22-6-61-14-63-41-1-33-14-83 23-95 20-7 48-11 69-13"/>
  <path fill="#191b11" d="M334 3577c76-11 168 12 244 23q88 13 176 33c81 19 61 51 61 119-22 20-57 27-87 28 10-12 49-7 66-21 11-10 10-34 11-49 1-18 1-41-13-55-29-28-311-69-368-74q-43-3-88-1zm-84 77c5 8 4 28 4 38q10 14 25 20c84 29 182 38 270 53 23 5 59 8 78 15-24 0-90-12-116-16-69-12-139-21-206-38-22-6-61-14-63-41h2l4-2c2-4 2-23 2-29"/>
  <path fill="url(#e)" d="M242 3685c-1-33-14-83 23-95 20-7 48-11 69-13l2 3-33 5c-52 7-53 21-53 69 0 6 0 25-2 29l-4 2z"/>
  <path fill="#191b11" d="M629 3781c9-6 73 0 88-3l7 3c-35 3-60 3-95 0m-294-180q24-6 48-7c49 2 312 40 342 59q10 7 12 19c2 12 2 71-5 79-12 15-53 14-71 13-61-2-123-17-183-27-40-7-93-11-131-25-5-1-22-7-24-14-6-24-4-63-1-88 0-5 8-7 13-9"/>
  <path fill="#474a30" d="M333 3699q1-6 3-8l343-46c7-1 18 2 22 3l2 2c-2 1-353 51-370 49m-1-17c1-2 1-8 4-8 54-2 280-48 316-34v2l-207 27c-17 3-100 14-113 13"/>
  <path fill="#010202" d="M347 3712c-5-1-22-7-24-14-6-24-4-63-1-88 0-5 8-7 13-9-6 12-9 71-3 81q-3 9 1 17c5 3 13 8 14 13"/>
  <path fill="#474a30" d="M695 3659c12-2 17-5 26 4-5 6-104 16-119 18l-228 31c-6 0-16 0-22-5l2-2c31-6 81-11 114-15zm22 14 4 1v5l-4 3c-49 9-280 42-314 38-5-1-4 0-7-3 19-5 82-12 106-15zm-154-46c12-2 31 2 44 3-72 13-155 20-229 31-12 1-32 6-43 4-2-5-2-2 0-8 8-4 205-27 228-30m147 64c5-2 5-1 11 1l1 3q-2 4-6 4c-82 10-165 25-246 33l-17-5v-2c81-13 174-23 257-34m3 16 6-1 3 4-1 3c-9 7-190 29-209 26h-5l-2-2v2l-3-1 1-2c23-7 61-9 85-12zm-206-90c9-2 27 2 36 4-52 10-123 17-177 24-9 3-24 5-32-1l1-3c14-4 46-7 61-9zm212 106 3 3-1 4c-9 6-136 21-151 19l-8-3 1-2zm-265-116 33 4c-28 7-94 14-126 18-8 2-21 5-27 0v-2c13-8 100-17 120-20"/>
  <path fill="url(#f)" d="M711 3741q6-3 10 2c-2 13-84 16-97 14-10 0-7 2-14-4 27-5 73-9 101-12"/>
  <path fill="#474a30" d="M385 3601c10-2 29 0 40 1-17 5-41 8-59 10l-23 3 2-1-7-2h-1v2-3c19-9 26-8 48-10"/>
  <path fill="#4b4e2e" d="m1162 3840 120-3c78 2 158-1 236 1 15 0 112 5 121 12 38 6 177 38 78 92a535 535 0 0 1-183 32l-106 1-224-1c-20-1-34-1-54-4-53-10-141-9-167-66l2-2c32-51 122-54 177-62"/>
  <path fill="#191b11" d="m1162 3840-2 4c-42 5-139 15-160 52-30 52 137 65 150 74-53-10-141-9-167-66l2-2c32-51 122-54 177-62m477 10c38 6 177 38 78 92-13 7-40 14-55 17 13-13 54-15 70-36 39-49-77-60-93-73m-435 124q7-4 13-4 157 2 313 1l4 2c-32 2-73 2-106 2zm-14-135q45-2 92-1c78 1 158-2 236 0l-1 3c-6 2-30 1-38 1l-78-1-199 1q-7 1-12-3"/>
  <path fill="#010202" d="M1223 3857q86-3 174-1c85 1 190-7 270 27 14 5 22 26 10 36-41 31-111 35-161 37-92 0-388 16-452-35q-9-7-11-17c16-42 130-46 170-47"/>
  <path fill="#2c2c2c" d="M1228 3861c51-2 110-1 162-1 46 0 270-9 280 45-8 38-124 46-153 47l-163 1c-53 0-263 7-284-44-1-44 127-47 158-48"/>
  <path fill="#010202" d="M1236 3885c77-5 159 1 237-1 17 0 107 1 102 28-13 13-45 16-63 18h-184c-30 0-145 5-162-20-1-21 55-24 70-25"/>
  <path fill="#2c2c2c" d="M1241 3889c13-2 80-1 97-1l163 1c13 0 56 4 61 19-10 14-37 16-54 18q-97 2-194 0c-25 1-120 4-132-17l2-5c12-13 39-14 57-15"/>
  <path fill="#191b11" d="M3468 3184c20-12 119-28 125-33q-5-1-7-4c45 2 90 10 135 16 10 1 35 0 43 4-58 3-92-11-147-12-31-1-71 13-102 19l-2 27c102-40 155-9 256-9 53 0 112-39 167-20q15 6 10 20c-17 17-58 21-81 30-76 29-145 26-224 10-12-3-45 1-59 2l-1 1-43 10c-17 4-32 9-22 29 10 3 41-11 53-13l35-5c58-3 95 14 155 13 65-1 117-39 179-20q6 3 7 7 2 9-2 15c-16 13-42 17-61 23-56 18-125 35-185 24-86-18-101-10-185 12l4 24a306 306 0 0 1 120-21q32 2 65 9c41 6 72 6 113-4 37-10 91-29 128-10 7 3 6 19-3 24-14 8-30 9-45 15-57 19-123 38-184 29-44-6-67-12-111-10-4 2-3 2-5 1-53 6-109 38-170 27-15-3-31 0-42-13l1-5c14-16 93-28 125-40v-25c-22 7-123 18-125-11 13-25 114-20 124-46l-3-16c-27-3-104 16-122-13l1-5c11-11 98-27 121-35 0-12 2-19 4-30l-7 3c-13 4-20 4-33 6"/>
  <path fill="#4b4e2e" d="M3636 3333q32 2 65 9c41 6 72 6 113-4 37-10 91-29 128-10 7 3 6 19-3 24-14 8-30 9-45 15-57 19-123 38-184 29-44-6-67-12-111-10-4 2-3 2-5 1-8-11-143 42-190 20q-6-2-8-9l1-3c18-11 84-25 111-32l7 9c8 0 5 1 11-1-7-5-6-2-7-9 9-11 72-24 87-25v-4c7-1 24-3 30 0"/>
  <path fill="#191b11" d="M3636 3333q32 2 65 9c41 6 72 6 113-4 37-10 91-29 128-10 7 3 6 19-3 24-14 8-30 9-45 15-57 19-123 38-184 29-44-6-67-12-111-10 14-15 130 12 158 9 28-4 166-32 177-55-6-33-89-5-111 1-67 17-128 4-194-5l-1-2-2 1-1-1z"/>
  <path fill="#4b4e2e" d="M3581 3235q-2-2-6-2c-55 10-108 34-164 23q-15-4-11-18c32-11 57-14 87-23 47-13 97-37 147-31 70 8 137 23 207 0 21-7 73-25 91-3 4 23-28 23-43 28-52 18-102 33-158 31-36-1-111-21-142-14h10l-1 2c-8 2-9 2-16 6zm308 13c14 0 42-2 46 16-9 18-44 22-63 28-46 13-96 30-145 25-43-4-89-17-133-16l9 3-3 4c-26-2-105 23-142 28-16 0-56-1-63-17 6-9 56-18 69-21 65-16 125-49 194-36q58 13 117 10c40-1 75-17 114-24m-1228 594c16-1 49 2 65 5 47 5 133 12 167 48 3 2 9 13 11 17-30 49-131 59-185 62-7 3-43 4-52 4h-59c-7 0-45-1-49-4-39 1-150-19-174-42-65-63 148-85 174-86l5-1c25-3 71-3 97-3"/>
  <path fill="#191b11" d="M2726 3847c47 5 133 12 167 48 3 2 9 13 11 17-30 49-131 59-185 62 12-6 21-5 38-8 29-3 128-17 133-54 6-41-138-59-162-62zm-167 127c-39 1-150-19-174-42-65-63 148-85 174-86-15 6-33 5-50 9-34 7-103 13-122 47-14 26 31 39 45 47 33 16 98 13 127 25m5-129c25-3 71-3 97-3-8 6-90 9-97 3m44 133-1-3c8-2 54-3 61 1l-1 2z"/>
  <path fill="#010202" d="M2598 3865c30-2 213-2 217 44 3 33-111 45-143 45-42 5-203 2-214-46 6-33 112-41 140-43"/>
  <path fill="#2c2c2c" d="M2604 3869c34-5 186 0 197 42-4 31-103 38-128 39-41 5-181 2-200-38 1-35 103-41 131-43"/>
  <path fill="#010202" d="M2619 3883c18-2 134-1 121 34-16 17-62 19-85 20-27 4-105 0-123-23-6-28 70-30 87-31"/>
  <path fill="#4b4e2e" d="M3473 3568c10-6 78-21 94-25q13-4 22 0-38 8-74 18-1 12 3 22c44-9 80-24 128-19 46 5 74 13 120 11 45-1 85-21 122-24 6-2 17-3 24 1q18-2 35 7c4 8 3 4 2 14q-4 8-13 11c-37 13-85 26-122 36-59 16-111 5-169-4-15-2-39 2-52 2l-3 1c-22 4-52 12-74 19v23c32-9 60-18 95-20 59-4 103 15 164 11 56-4 110-37 166-19q7 2 8 9c7 17-28 26-37 28-45 10-85 28-132 33-8 3-40 4-49 3l-2-2c-14 0-36-4-51-6-33-5-59-6-92-2l-1 1c-32 6-83 25-112 25l-3 1h-30q-3 1-6-1c-13 0-41-3-48-15 10-30 155-26 120-64-9-4-88 15-118-9q-2-2-1-6c8-16 100-33 121-40l2-26c-15 3-21 5-37 6"/>
  <path fill="#4b4e2e" d="M3888 3551c6-2 17-3 24 1q18-2 35 7c4 8 3 4 2 14q-4 8-13 11c-37 13-85 26-122 36-59 16-111 5-169-4-15-2-39 2-52 2l-3 1c-15-8-80 17-100 20-21 4-79 10-92-9l3-5c13-8 96-31 108-29l1 5c5 3 2 2 11 1l-3-10c9-7 25-9 34-13 79-28 140 3 218 0 28-1 89-16 118-25z"/>
  <path fill="#191b11" d="M3912 3552q18-2 35 7c4 8 3 4 2 14q-4 8-13 11c-37 13-85 26-122 36-59 16-111 5-169-4-15-2-39 2-52 2l2-2 12-5v-1c16-4 107 15 141 14q26 0 51-5c21-4 116-29 135-43q5-5 2-12c-5-6-16-9-24-12"/>
  <path fill="#191b11" d="M3473 3568c10-6 78-21 94-25q13-4 22 0-38 8-74 18-1 12 3 22c44-9 80-24 128-19 46 5 74 13 120 11 45-1 85-21 122-24v3c-29 9-90 24-118 25-78 3-139-28-218 0-9 4-25 6-34 13l3 10c-9 1-6 2-11-1l-1-5c-12-2-95 21-108 29l-3 5c13 19 71 13 92 9 20-3 85-28 100-20-22 4-52 12-74 19v23c32-9 60-18 95-20 59-4 103 15 164 11 56-4 110-37 166-19q7 2 8 9c7 17-28 26-37 28-45 10-85 28-132 33v-3c26-5 143-31 156-49l2-8c-19-30-120 9-152 11-58 5-105-8-162-10-48 0-100 24-147 35-10 2-74 19-79 23 1 12 23 16 33 18l3 2c-13 0-41-3-48-15 10-30 155-26 120-64-9-4-88 15-118-9q-2-2-1-6c8-16 100-33 121-40l2-26c-15 3-21 5-37 6"/>
  <path fill="#191b11" d="M3586 3696c7-4 9-4 17-5l2-2-4-2c13-4 114 10 128 17-14 0-36-4-51-6-33-5-59-6-92-2m-113 26c21-9 66-17 90-24q12-6 22-1c-32 6-83 25-112 25m-33 1c7-4 23-5 30 0zm-1215-791c11-4 310-3 317 0 19 0 68 3 75 25-3 6-1 4-7 8l2 1q10 6 13 16l-3 2v2c6 5 8 7 4 16-5 1-6 0-11-1l-5 2c14 10 16-9 18 18-4 0-14 1-18 3 2 17-39 23-51 22-25 12-230-1-271 4-21 3-132 1-137-22l5-5c-4-5-11 1-19-5l-1-6q4-6 12-7l2-1c-2-7-3-3-6-12 5-5 5-3 14-5v-2l-3 1-19-3-3-5c6-7 13-9 21-14q-2-3-7-5c-2-23 62-27 78-27"/>
  <path fill="#474a30" d="M2430 2969c14-1 34-2 48 0-4 4-2 3-9 4-2 5-2 3 0 8 13 7 137-3 153 3v2c6 5 8 7 4 16-5 1-6 0-11-1l-5 2c14 10 16-9 18 18-4 0-14 1-18 3 2 17-39 23-51 22-12-4-42 0-57 0h-177c-37 0-96 2-131-5l4-7c10 4 229 3 233 1l-4-9c2-17 1-38 3-55z"/>
  <path fill="url(#g)" d="M2430 2969c14-1 34-2 48 0-4 4-2 3-9 4-2 5-2 3 0 8 13 7 137-3 153 3v2l-6 3-2 6c-5 3-116 3-128 1-3-4-2-3-3-8-6-1-6-1-12 2q-2 6 0 13l1 2c-8 2-7 1-12 6l-2 9c-4 5-2 2-3 9-5 4-16 2-25 2 1-18 2-44 0-62"/>
  <path fill="#191b11" d="M2622 2986c6 5 8 7 4 16-5 1-6 0-11-1l-5 2c14 10 16-9 18 18q-11 2-17-3l3 1 1-7c-5-4-127-2-142-2l-1 3c7 6 44 3 56 3l1 2c-8 1-63 3-71 2l2-9c5-5 4-4 12-6l-1-2q-2-7 0-13c6-3 6-3 12-2 1 5 0 4 3 8 12 2 123 2 128-1l2-6z"/>
  <path fill="#474a30" d="M2471 3003c26-1 90-3 113 1v1h-112z"/>
  <path fill="#010202" d="M2610 3024c2 17-39 23-51 22q15-7 31-9c6-6 5-3 5-11q5-3 15-2"/>
  <path fill="#474a30" d="M2225 2932c11-4 310-3 317 0 13 10 52 5 58 24l-2 2c-13 1-34 2-47-1q-2-8-9-12c-5-2-275-2-305-1q-12 0-23 4-2 6-7 8c-10 3-35 4-44-1 7-14 47-16 62-23m-31 109c-6-1-20-5-25-9 7-6 22-7 29-2v4z"/>
  <path fill="#5e643e" d="M2331 2964c-20 0-85 3-100-5l-1-3c1-6 0-4 5-7 51-3 112-1 164-1 35 0 98-2 131 1l5 5c-6 7-9 9-19 9l-99 1c-2 24-4 44-4 68-15 0-55-1-69 2l4 1h-16l1-2c2-19 1-47-4-65z"/>
  <path fill="#010202" d="M2331 2964q7-1 9 3c7 15 5 50 4 67l4 1h-16l1-2c2-19 1-47-4-65z"/>
  <path fill="#474a30" d="M2333 3033c-12-1-24 3-33-8-1-7 1-8 5-15l-2-3-19-3v-1c7-1 10 0 17-3l1-4-2-4c-7-5-9-5-17-6l-3-1q11 2 18-6l-1-4c-9-7-22-6-34-6 15 1 50-1 66-1 5 18 6 46 4 65"/>
  <path fill="#4b4e2e" d="M3509 3433c-1-6-2-17 0-22l2 1 1 2q1 8 7 13 16 3 31-5c68-28 136 1 206 0q24 0 47-5c42-8 75-25 118-18q14 0 24 6c3 7 3 6 3 13-8 18-75 31-95 37-67 24-129 23-198 9-44-8-97 8-140 20v23c45-12 90-26 137-19 42 5 81 13 124 10 27-2 163-48 174-8-1 4-4 13-8 15-36 12-126 41-160 43l-2 1c-67 9-114-16-190-6h-1q-10-5-22 0c-16 4-84 19-94 25l-2 2c-11 1-31 2-42-1-10-1-43-4-43-17 13-19 89-29 120-42l3-1v-24l-28 6c-6 4-35 4-42 1-15 0-44-3-56-13 0-4-1-3 1-6 13-15 100-32 125-40"/>
  <path fill="#4b4e2e" d="M3429 3569c-5-8-31-6-31-20 9-8 62-20 76-22 5-1 28-10 31-9 13 5 25 14 40 9-3-5-18 0-28-7v-4c8-9 38-14 50-18 53-16 101-4 154 3 24 4 57-1 81-2 27-2 118-42 133-8-7 28-142 46-153 57l-2 1c-67 9-114-16-190-6h-1q-10-5-22 0c-16 4-84 19-94 25l-2 2c-11 1-31 2-42-1"/>
  <path fill="#191b11" d="m3590 3543 2-4 11-2 1-2-2-4c31 0 87 12 121 15 12 1 51-1 57 3-67 9-114-16-190-6"/>
  <path fill="#191b11" d="M3509 3433c-1-6-2-17 0-22l2 1 1 2q1 8 7 13 16 3 31-5c68-28 136 1 206 0q24 0 47-5c42-8 75-25 118-18q14 0 24 6c3 7 3 6 3 13-8 18-75 31-95 37-67 24-129 23-198 9-44-8-97 8-140 20v23c45-12 90-26 137-19 42 5 81 13 124 10 27-2 163-48 174-8-1 4-4 13-8 15-36 12-126 41-160 43 11-11 146-29 153-57-15-34-106 6-133 8-24 1-57 6-81 2-53-7-101-19-154-3-12 4-42 9-50 18v4c10 7 25 2 28 7-15 5-27-4-40-9-3-1-26 8-31 9-14 2-67 14-76 22 0 14 26 12 31 20-10-1-43-4-43-17 13-19 89-29 120-42l3-1v-24l-28 6c13-11 107-29 126-32l-12-4c42 0 85 10 127 15 56 6 103-12 156-27 14-4 43-10 54-20q5-6 3-12-8-10-18-9c-49-3-95 21-146 24-53 3-84-7-134-12-53-5-112 21-162 35-16 4-66 14-78 22l-1 4c8 12 31 11 43 17-15 0-44-3-56-13 0-4-1-3 1-6 13-15 100-32 125-40"/>
  <path fill="#010202" d="M634 3887c49-6 182 4 221 21 142 64-106 87-140 88-48 3-256 0-263-57 7-39 148-50 182-52"/>
  <path fill="#2c2c2c" d="M626 3893c49-4 233-3 249 48-2 38-125 48-155 49-70 5-161 0-225-26-13-6-28-23-14-34 34-29 103-34 145-37"/>
  <path fill="#010202" d="M653 3911c31-3 125-2 143 27 3 29-74 33-94 34-35 1-129 3-149-28 2-28 80-32 100-33"/>
  <path fill="#4b4e2e" d="M3887 3705c8-2 27-3 33 0 12 2 22 1 30 10q3 6-1 12c-9 18-123 46-148 50q-12 3-26 3c-4 3-4 2-10 1-59 3-97-12-151-10q-9 3-20 2c-23 3-52 12-74 19-30 8-108 17-131-5q-2-12 9-14c56-11 113-36 167-48q28-6 56-7c48-2 74 10 114 10h3l28 1c50-1 80-20 121-24"/>
  <path fill="#191b11" d="M3594 3773c-23 3-52 12-74 19-30 8-108 17-131-5q-2-12 9-14c56-11 113-36 167-48q28-6 56-7c48-2 74 10 114 10h3c-14 11-72-7-92-7-38-1-98 7-131 26l6 8c-4 2-2 2-7 0q-3-5-6-6c-20 5-91 20-104 31-3 46 166-10 188-9zm326-68c12 2 22 1 30 10q3 6-1 12c-9 18-123 46-148 50q-12 3-26 3c10-5 23-5 32-9 27-8 109-26 127-40 4-6 4-6 4-13-4-6-6-6-14-9l-4-1z"/>
  <path fill="#191b11" d="m3614 3771-1-4c29-7 86 10 117 11 7 0 32 0 35 2v1c-59 3-97-12-151-10m273-66c-7 10-107 33-121 24 50-1 80-20 121-24"/>
  <path fill="#474a30" d="M3472 3877c-19 1-76 3-83-18l2-4c18-11 63-19 85-26 50-14 95-33 148-34 30-1 63 5 93 10 56 8 91-4 146-18 23-5 62-10 83 3 11 9 3 23-8 26-52 15-114 39-168 42h-3c-7 3-32 3-41 1l-58-8c-30-4-48-3-78-1l-1 1-73 19-14 3-21 3z"/>
  <path fill="#191b11" d="M3472 3877c-19 1-76 3-83-18l2-4c18-11 63-19 85-26 50-14 95-33 148-34 30-1 63 5 93 10 56 8 91-4 146-18 23-5 62-10 83 3 11 9 3 23-8 26-52 15-114 39-168 42h-3c12-6 24-4 36-8 31-10 115-24 136-46 1-6 2-3-1-9-13-10-49-12-62-8a349 349 0 0 1-168 20c-30-4-57-10-87-9-46 2-86 21-131 33-23 6-67 14-87 26l-1 4c12 20 57 8 70 16"/>
  <path fill="#191b11" d="m3590 3850 19-7h-6c28-5 92 7 122 12l2 2-1 2-58-8c-30-4-48-3-78-1m-109 26c8-7 98-31 108-25l-73 19-14 3z"/>
  <path fill="#4b4e2e" d="M3779 3882q32-2 57-11c30-8 97-28 117 5 1 2-6 14-8 15-69 22-151 53-224 44-48-6-72-12-119-8-7 2-9 2-16 2-26 3-57 16-83 21-20 4-106 10-111-12 9-16 96-33 121-41l9-4c48-16 89-25 141-19q32 5 66 8l2 1z"/>
  <path fill="#191b11" d="M3779 3882q32-2 57-11c30-8 97-28 117 5 1 2-6 14-8 15-69 22-151 53-224 44-48-6-72-12-119-8l3-6-6-4c54 3 108 15 164 16 23 1 151-30 174-50q4-5 2-11c-26-33-119 20-160 13z"/>
  <path fill="#191b11" d="M3522 3893c48-16 89-25 141-19q32 5 66 8l2 1-1 2c-20 3-68-10-91-10a320 320 0 0 0-98 18c-37 15-76 22-115 32q-10 2-18 10c-1 21 60 15 73 15 17-1 93-26 104-23l1 2c-26 3-57 16-83 21-20 4-106 10-111-12 9-16 96-33 121-41z"/>
  <path fill="#010202" d="M691 2847c17-2 49-2 61 10l-1 4c-15 12-317 58-362 66q152 27 305 52c14 3 45 6 53 17l-2 4c-19 9-41 8-61 6l-51-9-103-17-178-30c-19-4-80-8-89-22l2-4c16-11 176-35 207-40 68-11 151-29 219-37"/>
  <path fill="#191b11" d="M703 2851c7-1 25 1 32 4v4c-10 9-338 61-381 67 29 7 63 12 93 17l172 29c16 3 104 15 109 23-10 10-30 7-43 6l-253-43c-23-4-140-20-150-30l1-3c17-9 65-14 86-18l160-28c48-8 128-25 174-28m686 82c22 0 57-1 77 1 5 8 3 33 2 44 8 4 151 2 171 2 0-13-1-35 2-47l9 1 57-1 12 1c5 7 2 96 3 112h-84l1-48h-170c0 9 1 35-1 42l1 5c-9 2-68 1-80 1z"/>
  <path fill="#010202" d="m1707 2933 12 1c-6 22 7 102-9 110h3l-2 1c-8-13 3-92-4-112m-241 1c5 8 3 33 2 44-5 3-3 2-8 3-7-9-2-28-3-43l-4-3zm3 111-10-2c-6-13-5-36 4-47l3 1 2 43zm172-112 9 1c0 9 1 41-2 48-6-7-4-38-7-49"/>
  <path fill="#474a30" d="M1654 2938h52l-1 103c-12 2-37 1-50 1v-48h-126c-23 0-54-1-76 1 0 19 2 28-1 47h-47v-104h48v46h202z"/>
  <path fill="#4b4e2e" d="M3612 3951c53-4 97 11 150 11 43 0 81-18 123-25 19-4 63-4 72 16-6 18-25 19-40 25-46 16-95 32-143 34-5 3-5 2-11 1-66 2-97-18-163-9l9-7-2-2h-5v-1c-12-7-72-2-91-13 16-5 94-26 99-29z"/>
  <path fill="#191b11" d="M3612 3951c53-4 97 11 150 11 43 0 81-18 123-25 19-4 63-4 72 16-6 18-25 19-40 25-46 16-95 32-143 34 12-6 29-6 40-10 24-9 121-24 128-47-15-35-95-2-122 4-57 13-109 3-166-5-11-2-32 3-42-3m-10 43 30 2c45 3 86 13 131 15v2c-66 2-97-18-163-9l9-7-2-2h-5zM1881 2933c33-6 152-2 173 24 8 36-142 56-151 71 16-2 150-2 157 3 1 6 1 4-1 10-14 9-112 5-134 5-23 0-123 4-133-5l3-10c9-12 176-47 183-69-10-14-75-13-92-8-27 9-71 17-99 10l-1-3c15-22 71-26 95-28"/>
  <path fill="#474a30" d="M1888 2937c31-4 128-3 152 22v7c-9 17-151 57-177 66 28 0 164-3 181 2v3c-17 9-80 5-103 5-21 0-123 3-133-3 1-18 163-49 186-73-1-18-21-17-35-18q-40-4-79 2c-18 3-56 19-71 6 11-14 62-18 79-19"/>
  <path fill="#010202" d="M291 2991c26-2 136 19 166 24l257 44c11 2 31 5 36 13l-1 3c-10 7-25 7-37 8-21 2-58-6-79-10l-102-17-172-30c-17-3-94-14-104-22l1-4c10-8 23-8 35-9"/>
  <path fill="#191b11" d="M277 2997c43-6 194 25 247 35l138 23c13 3 66 9 71 17l-3 5c-31 4-71-5-102-10l-125-22-144-24c-17-3-75-10-84-20z"/>
  <path fill="url(#h)" d="M3610 3952c-5 3-83 24-99 29 19 11 79 6 91 13v1h5l2 2-9 7-6 1c-12 1-51 13-66 17-13 3-38 8-50 12v5c-5 6-8 7-15 11q-18 9-38 14c-20 5-110 18-127 12 49-2 141-8 177-44-17 0-75 1-81-16 4-8 15-14 23-16 59-11 135-46 193-48"/>
  <path fill="#191b11" d="M3610 3952c-5 3-83 24-99 29-15 4-97 23-104 31 4 25 73 15 90 13 19-3 83-28 97-20-12 1-51 13-66 17-13 3-38 8-50 12v5c-5 6-8 7-15 11q-18 9-38 14c-20 5-110 18-127 12 49-2 141-8 177-44-17 0-75 1-81-16 4-8 15-14 23-16 59-11 135-46 193-48"/>
  <path fill="url(#i)" d="M1574 3804c26-2 150-4 167 5q5 1 5 7l-2 4q-10 5-20 5-50 2-99 1c-18 0-67 3-77-12 5-7 17-8 26-10"/>
  <path fill="#191b11" d="M2307 3806c22-1 177-7 181 12q-6 6-17 7c-44 4-101 0-147 1-9 1-28-1-34-8v-4c6-6 8-6 17-8"/>
  <path fill="#474a30" d="M2304 3811c21-2 163-6 169 6l-1 4c-11 1-42 3-52 2-18-2-109 6-117-7zm1186-1100c25-1 160-3 178 1l-1 2h-130c-15 0-47 1-61-1q6-3 14-2"/>
  <path fill="#4b4e2e" d="M2737 3267c5 9 5 142 2 150l-3-2c-2-35-2-112 1-148M114 3374c2-21-1-81 3-95l2-1c2 13 1 146-2 156 0-14 1-32-2-45zm3388 499 14-3 6 23-9 4c-9-12 0-14-11-24m-1741 116c13-2 54-1 68-1h372c49 0 112-2 160 6 34 5 84 24 116 35l135 47c-23 4-83 2-108 2H1435c48-15 101-33 148-50 65-24 108-36 178-39"/>
  <path fill="#2c2c2c" d="M349 80h441c0 24 4 168-2 178-145-2-295 0-440 0 2-53 2-125 1-178m818 2559c52 2 108 0 160 0h1491c84 0 231-9 305 32-46 2-96 1-142 1h-135c-19 0-55 1-73-1-31-3-53-18-88-19l-1102-1q-53-1-107 2c-32 3-67 14-99 15-92 2-185-4-277 5-14 1-35 3-49 2l-3-3v1l4-7-1 1c30-22 79-24 116-28M541 7c23-3 89 0 113 4 57 10 105 16 141 63-58 3-136 1-195 1l-254-1 13-18c42-39 130-46 182-49M353 263h313c36 0 85-2 121 2q7 1 7 7c-2 5-3 5-8 8l-20 1-361 1c-13 0-48 2-57-7-3-6-3-3-1-10z"/>
  <path fill="#010202" d="m38 3505 4 1c7 13 0 47-4 61l-1 1c0-16-2-49 1-63"/>
  <path fill="#010202" fill-opacity=".9" d="M47 3729c10 5 6 25-1 32v1c-3-9-1-24 1-33"/>
  <path fill="none" d="m16 3457 3 2c5 12 5 55 1 67h-1c-6-7-3-57-3-69"/>
  <path fill="url(#j)" d="M389 288c8-3 7-4 16-4 11 7 5 27 7 41 2 77 1 161 1 239l-1 412v1571c0 16-3 108 0 118 6 3 6 2 12 2-8 1-14 0-21 5h-21l4-6 2-1c6-11 2-362 2-406V416c0-18 1-116-2-126z"/>
  <path fill="url(#k)" d="m4069 2864 19 8v911c0 12-12 15-22 17l-1-3 3-5c4-37 1-127 1-169v-350l-1-267q1-63-1-128c0-4-1-3-6-7v-2c3-4 2-2 8-5"/>
  <path fill="none" d="M382 288h7l-1 2c-6 5-3 40-3 50v1494c0 24 1 69-1 91l-2 1c-2-11-1-65-1-81V657c1-121-2-248 1-369M8 3184q7 3 8 9c-2 63 10 138 2 199l-1 1c-3 12 1 38-2 50l-7-50zm745-1202 4 2c5-15-1-50 2-62l2 1c1 12 2 71-2 78v-3c-2 7-3 9-3 16l-2 1zm-458 729c-1-9-2-11 0-20l2-1c2 8 1 12 0 21z"/>
</svg>
