<svg xmlns="http://www.w3.org/2000/svg" width="4096" height="2567" preserveAspectRatio="none" style="display:block" viewBox="0 0 2567 2567">
  <defs>
    <linearGradient id="A" x1="1087.7" x2="1055.4" y1="763.9" y2="774.6" gradientUnits="userSpaceOnUse">
      <stop class="stop0" offset="0" stop-color="#47464b"/>
      <stop class="stop1" offset="1" stop-color="#6a6b67"/>
    </linearGradient>
    <linearGradient id="z" x1="1512.6" x2="1511.8" y1="1816.7" y2="1828.7" gradientUnits="userSpaceOnUse">
      <stop class="stop0" offset="0" stop-color="#474744"/>
      <stop class="stop1" offset="1" stop-color="#696767"/>
    </linearGradient>
    <linearGradient id="y" x1="552.8" x2="553.8" y1="2146" y2="2118.2" gradientUnits="userSpaceOnUse">
      <stop class="stop0" offset="0" stop-color="#545455"/>
      <stop class="stop1" offset="1" stop-color="#686a68"/>
    </linearGradient>
    <linearGradient id="x" x1="1444.3" x2="1455.2" y1="2044.1" y2="2046.1" gradientUnits="userSpaceOnUse">
      <stop class="stop0" offset="0" stop-color="#433e40"/>
      <stop class="stop1" offset="1" stop-color="#5f6362"/>
    </linearGradient>
    <linearGradient id="w" x1="983.5" x2="947.6" y1="817.6" y2="818.4" gradientUnits="userSpaceOnUse">
      <stop class="stop0" offset="0" stop-color="#444544"/>
      <stop class="stop1" offset="1" stop-color="#5e615f"/>
    </linearGradient>
    <linearGradient id="v" x1="1093.3" x2="1119.8" y1="1822.8" y2="1826.9" gradientUnits="userSpaceOnUse">
      <stop class="stop0" offset="0" stop-color="#4b4d4c"/>
      <stop class="stop1" offset="1" stop-color="#626364"/>
    </linearGradient>
    <linearGradient id="u" x1="1485.3" x2="1411.9" y1="1795.7" y2="1844.4" gradientUnits="userSpaceOnUse">
      <stop class="stop0" offset="0" stop-color="#4d514f"/>
      <stop class="stop1" offset="1" stop-color="#686567"/>
    </linearGradient>
    <linearGradient id="t" x1="854.2" x2="790.1" y1="2036.3" y2="2019.5" gradientUnits="userSpaceOnUse">
      <stop class="stop0" offset="0" stop-color="#494b4b"/>
      <stop class="stop1" offset="1" stop-color="#626364"/>
    </linearGradient>
    <linearGradient id="s" x1="2059.3" x2="2098.6" y1="568.4" y2="563.4" gradientUnits="userSpaceOnUse">
      <stop class="stop0" offset="0" stop-color="#4e4f52"/>
      <stop class="stop1" offset="1" stop-color="#666764"/>
    </linearGradient>
    <linearGradient id="r" x1="1303.3" x2="1354.5" y1="1821.5" y2="1801" gradientUnits="userSpaceOnUse">
      <stop class="stop0" offset="0" stop-color="#4e4b4d"/>
      <stop class="stop1" offset="1" stop-color="#616663"/>
    </linearGradient>
    <linearGradient id="q" x1="1064.7" x2="1085.3" y1="2018.4" y2="2021.5" gradientUnits="userSpaceOnUse">
      <stop class="stop0" offset="0" stop-color="#3b3b39"/>
      <stop class="stop1" offset="1" stop-color="#5c5b5e"/>
    </linearGradient>
    <linearGradient id="p" x1="1084.4" x2="1097.9" y1="2071.6" y2="2070.9" gradientUnits="userSpaceOnUse">
      <stop class="stop0" offset="0" stop-color="#414544"/>
      <stop class="stop1" offset="1" stop-color="#666"/>
    </linearGradient>
    <linearGradient id="o" x1="978.1" x2="1014.6" y1="759.5" y2="749.3" gradientUnits="userSpaceOnUse">
      <stop class="stop0" offset="0" stop-color="#4e504e"/>
      <stop class="stop1" offset="1" stop-color="#646466"/>
    </linearGradient>
    <linearGradient id="n" x1="1299.9" x2="1286.3" y1="1866" y2="1861.8" gradientUnits="userSpaceOnUse">
      <stop class="stop0" offset="0" stop-color="#404241"/>
      <stop class="stop1" offset="1" stop-color="#5e6061"/>
    </linearGradient>
    <linearGradient id="m" x1="962.1" x2="884.3" y1="816.7" y2="758.1" gradientUnits="userSpaceOnUse">
      <stop class="stop0" offset="0" stop-color="#484948"/>
      <stop class="stop1" offset="1" stop-color="#5f605b"/>
    </linearGradient>
    <linearGradient id="l" x1="1349.7" x2="1445.7" y1="2045.5" y2="2107.8" gradientUnits="userSpaceOnUse">
      <stop class="stop0" offset="0" stop-color="#484645"/>
      <stop class="stop1" offset="1" stop-color="#626463"/>
    </linearGradient>
    <linearGradient id="k" x1="1515.4" x2="1516.7" y1="1768.3" y2="1828" gradientUnits="userSpaceOnUse">
      <stop class="stop0" offset="0" stop-color="#41413f"/>
      <stop class="stop1" offset="1" stop-color="#656666"/>
    </linearGradient>
    <linearGradient id="j" x1="1740.5" x2="1662.9" y1="1786.9" y2="1853.2" gradientUnits="userSpaceOnUse">
      <stop class="stop0" offset="0" stop-color="#525252"/>
      <stop class="stop1" offset="1" stop-color="#686a6a"/>
    </linearGradient>
    <linearGradient id="i" x1="1177.5" x2="1185.6" y1="1829.3" y2="1835.8" gradientUnits="userSpaceOnUse">
      <stop class="stop0" offset="0" stop-color="#4c4b47"/>
      <stop class="stop1" offset="1" stop-color="#656665"/>
    </linearGradient>
    <linearGradient id="h" x1="1207.3" x2="1168.4" y1="1866.5" y2="1858.6" gradientUnits="userSpaceOnUse">
      <stop class="stop0" offset="0" stop-color="#3d4040"/>
      <stop class="stop1" offset="1" stop-color="#606260"/>
    </linearGradient>
    <linearGradient id="g" x1="1181.9" x2="1228.9" y1="1826.7" y2="1828.5" gradientUnits="userSpaceOnUse">
      <stop class="stop0" offset="0" stop-color="#3e3f3c"/>
      <stop class="stop1" offset="1" stop-color="#626360"/>
    </linearGradient>
    <linearGradient id="f" x1="1170.7" x2="1165.6" y1="2069" y2="2051.4" gradientUnits="userSpaceOnUse">
      <stop class="stop0" offset="0" stop-color="#4c4c4a"/>
      <stop class="stop1" offset="1" stop-color="#636563"/>
    </linearGradient>
    <linearGradient id="e" x1="1528.6" x2="1585.2" y1="2078.8" y2="2064.3" gradientUnits="userSpaceOnUse">
      <stop class="stop0" offset="0" stop-color="#3e4043"/>
      <stop class="stop1" offset="1" stop-color="#646564"/>
    </linearGradient>
    <linearGradient id="d" x1="1250.1" x2="1204.5" y1="2039.2" y2="2043.5" gradientUnits="userSpaceOnUse">
      <stop class="stop0" offset="0" stop-color="#393838"/>
      <stop class="stop1" offset="1" stop-color="#636460"/>
    </linearGradient>
    <linearGradient id="c" x1="1285.9" x2="1203.9" y1="2024.7" y2="2124.3" gradientUnits="userSpaceOnUse">
      <stop class="stop0" offset="0" stop-color="#494c48"/>
      <stop class="stop1" offset="1" stop-color="#626262"/>
    </linearGradient>
    <linearGradient id="b" x1="842.3" x2="894.5" y1="779.7" y2="782.8" gradientUnits="userSpaceOnUse">
      <stop class="stop0" offset="0" stop-color="#434345"/>
      <stop class="stop1" offset="1" stop-color="#606161"/>
    </linearGradient>
    <linearGradient id="a" x1="2402" x2="2389.6" y1="2188.2" y2="2135.3" gradientUnits="userSpaceOnUse">
      <stop class="stop0" offset="0" stop-color="#9b9e9e"/>
      <stop class="stop1" offset="1" stop-color="#acbeb5"/>
    </linearGradient>
  </defs>
  <path fill="#bcc1c1" d="m2060 5 23 1h70q12-1 22 1c5 12 11 29 24 34 16 6 26-18 29-29l1-6h329q4 0 8 3h1v2548l-2 4-4 1h-205c-13 0-120 2-127 0-3-3-2-2-4-7-8-25-18-35-40-16-3 8-4 19-11 23-29 4-72-3-102 1l-12-2c-12-12-3-32-29-32-24 0-11 33-30 33q-50 0-102 1l-8-2c-10-10-8-35-28-35-15 0-20 27-24 36l-11 1-312-1h-85c-8 0-32 2-38 1-9-7-10-17-15-28-7-4-9-6-17-9-21 10-18 16-25 37-35 1-72-3-108 0l-8-2c-4-11-15-42-33-33-10 6-16 23-19 35-11 0-114 0-117-2-12-7-1-32-28-32q-7 0-11 5c-9 10-5 28-21 29l-108-1c-6-4-10-23-14-30q-7-5-15-5c-14 3-21 23-23 36l-32-1c-18-2-72 4-86-2-16-20 1-21-28-36-15 11-19 21-23 38-14 2-45 0-60 0-13 0-49 2-60 0-7-24-7-35-34-32-6 7-17 34-22 33l-43-1h-13c-15 0-38 2-53 0-6-1-9-16-13-25l-1-2c-36-24-32 25-42 26-31 5-66-2-97 2-34 5-18-28-40-35-17-5-27 22-30 34-11 2-34 0-47 0H13q-4 1-9-1c-3-7-1-227-1-252-2-58 0-121 0-180V12q1-5 5-7c11 2 26 1 37 1h107c7 28 27 56 48 17 10-20 2-18 29-17h69c5 0 20-2 23 2 9 11 8 33 28 31 4 0 13-1 15-5 9-23 4-30 33-28h93c9 22 13 40 41 31l1-2c15-23 3-31 35-29h70l22-1 5 14c8 16 12 25 32 20 23-20 1-36 40-33a1051 1051 0 0 1 92-1c7 21 14 39 39 32 21-17-5-33 39-31h68l24-1c4 18 5 28 23 36l12-2c26-15-3-36 41-33h69c8 0 17-2 23 4 12 14 2 32 29 31 4-1 11-2 13-6 15-24 0-31 35-29h81c7 0 6-1 10 2 6 9 6 16 13 27l16 6 13-6c14-21 3-31 34-29h427c4 10 10 29 20 33 21 9 29-23 34-34l20 1a1055 1055 0 0 1 96 0q4 14 10 26c8 9 14 12 26 7 10-15 11-17 17-34"/>
  <path fill="#448d67" d="m2060 5 23 1h70q12-1 22 1c5 12 11 29 24 34 16 6 26-18 29-29l1-6h329q4 0 8 3h1v2548l-2 4-4 1-1-2-104-1c-36 2-84-1-122 1l-80-1q-2-5-2-12v-38c-8 3-91 2-99-1l-1 14c-4 4-2 26-3 33-4 2-4 0-9-1-12-2-40 4-52-2-5-5-3-21-4-29v-2q2-8-4-12c-7-2-21-1-29 0l1-48c20-2 45 6 60-11 29-30 27-65 28-102v-47c-2-17-1-50-1-66v-98q0-23 17-38c15-2 61-1 78-1h174q38 1 74-2c6 0 16-7 19-11 19-18 25-46 25-71V263q1-42-1-85-2-32-23-57c-17-19-49-14-74-13H1136l10-2c-4-9-3-37-2-47-2-18 1-37-1-53 8 0 17-2 23 4 12 14 2 32 29 31 4-1 11-2 13-6 15-24 0-31 35-29h81c7 0 6-1 10 2 6 9 6 16 13 27l16 6 13-6c14-21 3-31 34-29h427c4 10 10 29 20 33 21 9 29-23 34-34l20 1a1055 1055 0 0 1 96 0q4 14 10 26c8 9 14 12 26 7 10-15 11-17 17-34"/>
  <path fill="#2a6251" d="M2252 6h306q4 0 8 3h1v2548l-2 4-4 1-1-2-104-1c-36 2-84-1-122 1l-80-1q-2-5-2-12l2-41c58-2 126-3 183-3 23 0 80 6 93 0v-253l-2-588 2-1599c-67-2-138 1-206 0-10-1-64 1-71-1l-2-3c2-8 1-41 1-53"/>
  <path fill="#285647" d="M2566 9h1v2548l-2 4-4 1-1-2-104-1-3-1c-58-2-116 2-173-2 18-8 127 1 157-2 36-4 85 1 123 1v-196l-1-158v-341l1-1059V215c0-9-1-43 1-49 2-12 0-28 0-40-1-17-7-106 0-115q1-3 5-2"/>
  <path fill="#dfdfdc" d="M2315 2174q80 4 161 1l18 1c0 32-1 69 1 101l-1 63v27c-1 35 2 73 0 108l-18-1c-11 4-138-1-157 2l-4-1q-5 1-11-2l-1-63v-44q-9 4-18 1c-4-4-2-4-3-11l1-58-1-21h21v-45c0-10-2-50 1-56q5-2 11-2"/>
  <path fill="#a7b1ad" d="M2282 2277h21c0 16 2 75 0 89q-9 4-18 1c-4-4-2-4-3-11l1-58z"/>
  <path fill="#c89d69" d="M2324 2283c9-63 76-125 126-55 38 53 38 138 3 192-27 44-79 44-108 2a201 201 0 0 1-21-139"/>
  <path fill="#c19e6b" d="m2324 2283 2 1 1 7v-3l-2 33c0 9 3 33 0 40l-2-1c-5-20-4-57 1-77"/>
  <path fill="#b1772c" d="M2393 2219q16-1 30 7c58 35 60 189-19 207-43 2-60-39-69-74-12-46 3-129 58-140"/>
  <path fill="#c89d69" d="M2399 2298q8 2 12 8c6 18 9 39-11 49-26-8-24-48-1-57"/>
  <path fill="#2a6251" d="M2140 2301q1-5 6-5 66-3 131-1l6 3-1 58c1 7-1 7 3 11q9 3 18-1v44c-6-4-42-2-51-2h-86q-13 13-13 31c0 18-2 53 0 69l-1 14c-4 4-2 26-3 33-4 2-4 0-9-1-12-2-40 4-52-2-5-5-3-21-4-29v-2q2-8-4-12c-7-2-21-1-29 0l1-48c20-2 45 6 60-11 29-30 27-65 28-102z"/>
  <path fill="#448d67" d="M2140 2301q1-5 6-5 66-3 131-1l6 3-1 58-2-7h-33c-34-1-74 1-107-1z"/>
  <path fill="#2a6251" d="M1410 6h403c3 7 1 29 1 38-1 9-1 10 1 18-133 3-267-1-400 1l-4-1-1-3c2-8 2-44 0-53M2303 2232v45h-21l1 21-6-3q-65-2-131 1-5 0-6 5c-2-17-1-50-1-66 16 5 102 1 125 2h34q3-1 5-5"/>
  <path fill="url(#a)" d="M2316 2148c52 1 108-1 159 1l1 26q-81 3-161-1c2-4 1-20 1-26"/>
  <path fill="#2a6251" d="M2083 6h70c1 10 0 47 2 54l-2 2c-9 2-52 1-64 1q-6 1-7-3c2-8 1-43 1-54M1911 6h73c-1 5 0 47 1 53l-3 4h-69l-2-2 1-1c3-8 2-42 1-52zM1243 6h70c-2 5-1 46 0 53l-1 3c-6 2-63 2-69 0l-1-2z"/>
  <path fill="#c89d69" d="m1891 5 20 1 2 2c1 10 2 44-1 52-13-4-78 2-95-2q-4-5-3-14c0-9 2-31-1-38h24c4 10 10 29 20 33 21 9 29-23 34-34M2060 5l23 1c0 11 1 46-1 54-5-2-89-2-97-1-1-6-2-48-1-53h23q4 14 10 26c8 9 14 12 26 7 10-15 11-17 17-34M1143 6c8 0 17-2 23 4 12 14 2 32 29 31 4-1 11-2 13-6 15-24 0-31 35-29l-1 54c-10-2-82-1-98-1-2-18 1-37-1-53"/>
  <path fill="#a7b1ad" d="m2315 2475 4 1c19-3 146 2 157-2l-1 23c-14 7-136 0-161 2z"/>
  <path fill="#c89d69" d="M2229 6h23c0 12 1 45-1 53-8-1-91-1-96 1-2-7-1-44-2-54q12-1 22 1c5 12 11 29 24 34 16 6 26-18 29-29zM1376 35c14-21 3-31 34-29 2 9 2 45 0 53h-97c-1-7-2-48 0-53h11c7 0 6-1 10 2 6 9 6 16 13 27l16 6z"/>
  <path fill="#c19e6b" d="M1313 6h11l-6 5c-1 8-3 36-2 43l10 3 1 2h-14c-1-7-2-48 0-53"/>
  <path fill="#bcc1c1" d="M2495 2277q6-1 11 1c2 10 3 82 0 89l-2 2-10-2v-27z"/>
  <path fill="#a7b1ad" d="M2494 2340c3-10 1-55 3-57h4c5 6-4 77 3 86l-10-2z"/>
  <path fill="#285647" d="M2213 2160c21 2 21 25 8 38-11 1-12-4-16-12 1-11 1-17 8-26"/>
  <path fill="#2a6251" d="M129 6h23c7 28 27 56 48 17 10-20 2-18 29-17h69v53c0 9-1 41 3 47l-29 1h-2l-52 1h-84c-16 0-38-1-53 1-18 4-34 33-39 50-4 20-3 45-3 66v2104c0 17-1 55 1 71-2 20-2 86-1 106 15 0 83-4 90 3v50H84c-12 1-65-2-71 3q-4 1-9-1c-3-7-1-227-1-252-2-58 0-121 0-180V12q1-5 5-7c11 2 26 1 37 1z"/>
  <path fill="#285647" d="M3 2309c-2-58 0-121 0-180V12q1-5 5-7c3 8 1 31 1 40v2442l1 37v3c0 8-3 18 3 25 15 6 66 2 85 4h21c-11 2-27 1-35 3-12 1-65-2-71 3q-4 1-9-1c-3-7-1-227-1-252"/>
  <path fill="#2b524a" d="M3 2309q5 46 3 93l1 134 3-12v3c0 8-3 18 3 25 15 6 66 2 85 4h21c-11 2-27 1-35 3-12 1-65-2-71 3q-4 1-9-1c-3-7-1-227-1-252"/>
  <path fill="#448d67" d="M40 64c15-2 50 0 66 0l141 1c7 11 23 29 25 42h-2l-52 1h-84c-16 0-38-1-53 1-18 4-34 33-39 50v-1c-4-17-3-76-2-94"/>
  <path fill="#c89d69" d="M129 6h23c7 28 27 56 48 17 10-20 2-18 29-17-2 13-1 40-1 53-29 0-70 1-98-1zM406 2462l70-1c21 0 67-2 87 1h26l63-1h266c62 0 133-2 194 1 2 18 27 43 31 58v-11c20 3 53 0 75 1 7 0 18-1 24 1l1 37 2 1q4 0 5 2c11 4 51 3 61 1l1 1v-44c17 1 87 1 100-2v52h120l34 1h179l70-1-1-20v-9l1-20h99c0-13 2-39-1-48 9-2 31-1 41-1h98l-1 48c8-1 22-2 29 0q6 4 4 12v2c1 8-1 24 4 29 12 6 40 0 52 2 5 1 5 3 9 1 1-7-1-29 3-33l1-14c8 3 91 4 99 1v38q0 7 2 12l80 1c38-2 86 1 122-1l104 1 1 2h-205c-13 0-120 2-127 0-3-3-2-2-4-7-8-25-18-35-40-16-3 8-4 19-11 23-29 4-72-3-102 1l-12-2c-12-12-3-32-29-32-24 0-11 33-30 33q-50 0-102 1l-8-2c-10-10-8-35-28-35-15 0-20 27-24 36l-11 1-312-1h-85c-8 0-32 2-38 1-9-7-10-17-15-28-7-4-9-6-17-9-21 10-18 16-25 37-35 1-72-3-108 0l-8-2c-4-11-15-42-33-33-10 6-16 23-19 35-11 0-114 0-117-2-12-7-1-32-28-32q-7 0-11 5c-9 10-5 28-21 29l-108-1c-6-4-10-23-14-30q-7-5-15-5c-14 3-21 23-23 36l-32-1c-18-2-72 4-86-2-16-20 1-21-28-36-15 11-19 21-23 38-14 2-45 0-60 0-13 0-49 2-60 0-7-24-7-35-34-32-6 7-17 34-22 33l-43-1h-13l-12-2c10-2 39-2 51-2-16-10-33-51-46-66-5-5-16-24-17-30"/>
  <path fill="#2a6251" d="m589 2462 63-1h266c62 0 133-2 194 1 2 18 27 43 31 58v21l-6 9c-13 5-50 6-61-1h-2v-39c-31-2-67 0-99-1l-1 48-1-3c-6-2-49 1-61-1-4-3-3-1-5-7l-2-1v-36H805c0 8 2 46-1 50l-2-4c-14-5-52 2-67-4 2-8 0-33-1-42-14 0-88 0-95 3-4 6-3 23-2 31-2-9-42-62-45-75z"/>
  <path fill="#448d67" d="m589 2462 63-1q-12 2-26 1c7 10 14 25 25 27 19 4 63-5 77 7l6 13c-14 0-88 0-95 3-4 6-3 23-2 31-2-9-42-62-45-75z"/>
  <path fill="#2a6251" d="M1913 2462c9-2 31-1 41-1h98l-1 48a950 950 0 0 1-50 1l-16-1-1 22c2 26 4 30-24 28-9 1-37 2-45-2l-1-47c0-13 2-39-1-48"/>
  <path fill="#448d67" d="M1913 2462c9-2 31-1 41-1h98l-1 48a950 950 0 0 1-50 1l17-1v-47h-26c-24-1-56 2-79 0"/>
  <path fill="#285647" d="m1915 2557 1-3c9-3 47 1 57 2l-13 3c-9 1-37 2-45-2"/>
  <path fill="#448d67" d="m406 2462 70-1c21 0 67-2 87 1-5 0-17-1-20 2l24 45-61 1h-38q-2 24-1 47l-2 2c-8 2-21 0-23 2l1 1h-13l-12-2c10-2 39-2 51-2-16-10-33-51-46-66-5-5-16-24-17-30"/>
  <path fill="#2a6251" d="M563 2462h26l3 6c3 13 43 66 45 75v10c-20 0-46 3-66-2l-2-5-2-1v-36l-24-45c3-3 15-2 20-2"/>
  <path fill="#285647" d="M2084 2521v2c1 8-1 24 4 29 12 6 40 0 52 2 5 1 5 3 9 1 1-7-1-29 3-33l1 37h-70zM1074 2549h2c11 7 48 6 61 1l6-9 1 19c-12 0-62 1-69-2q-2-4-1-9M1243 2548l2 1q4 0 5 2c11 4 51 3 61 1l1 1v5c-6 3-60 2-68 1-2-5-1-5-1-11M567 2545l2 1 2 5c20 5 46 2 66 2l-1 5c-6 3-59 2-69 0zM905 2545l2 1c2 6 1 4 5 7 12 2 55-1 61 1l1 3-2 2c-10 1-57 2-66-1q-2-6-1-13M735 2551c15 6 53-1 67 4l2 4c-11 1-57 1-67-1-2-3-2-2-2-7"/>
  <path fill="#2a6251" d="m974 6 24-1c4 18 5 28 23 36l12-2c26-15-3-36 41-33h69c2 16-1 35 1 53-1 10-2 38 2 47l-10 2H565l-1-2 2-46 1-54h70l22-1 5 14c8 16 12 25 32 20 23-20 1-36 40-33a1051 1051 0 0 1 92-1c7 21 14 39 39 32 21-17-5-33 39-31z"/>
  <path fill="#c19e6b" d="m805 6 23-1c7 21 14 39 39 32 21-17-5-33 39-31 0 10 1 48-2 52l-9 1h-89c0-11 1-43-1-53"/>
  <path fill="#c89d69" d="M867 37c21-17-5-33 39-31 0 10 1 48-2 52l-9 1c-4-2-34-4-41-5l-2-1-1 1c5-2 15-4 19-8l-3-1zM637 6l22-1 5 14c8 16 12 25 32 20 23-20 1-36 40-33v53h-98z"/>
  <path fill="#c19e6b" d="M664 19c8 16 12 25 32 20 3 4 2 2 2 6-5 1-3 0-7 3l7 1c-18 15-36-12-34-30"/>
  <path fill="#c89d69" d="m974 6 24-1c4 18 5 28 23 36l12-2c26-15-3-36 41-33v52c-27 2-71 1-99 1 0-14 2-41-1-53"/>
  <path fill="#c19e6b" d="m1021 41 12-2c3 5 4 5 3 11-5 5-11 1-16-2l-3-5 1-2z"/>
  <path fill="#c89d69" d="M259 2462q52-2 103-1c9 0 34-1 40 1h4c1 6 12 25 17 30 13 15 30 56 46 66-12 0-41 0-51 2l12 2c-15 0-38 2-53 0-6-1-9-16-13-25l-1-2c-36-24-32 25-42 26-31 5-66-2-97 2-34 5-18-28-40-35-17-5-27 22-30 34-11 2-34 0-47 0H13c6-5 59-2 71-3h45v-50c13 2 82 0 96-1-6-11-19-38-27-46q29 0 59-1z"/>
  <path fill="#2a6251" d="M259 2462q52-2 103-1c9 0 34-1 40 1h4c1 6 12 25 17 30 13 15 30 56 46 66-12 0-41 0-51 2l-21-2 1-49c-22-2-47 2-70-1q-15 2-30 2l-1 20c-4-5-10-19-14-25l-20-31z"/>
  <path fill="#448d67" d="M259 2462q52-2 103-1c9 0 34-1 40 1-15 1-90-2-98 1 0 3 21 31 24 45q-15 2-30 2l-1 20c-4-5-10-19-14-25l-20-31z"/>
  <path fill="#2a6251" d="m257 2461 2 1 4 12 20 31c4 6 10 20 14 25l1 25c-16-5-50 2-68-6l-3 3c2-9 2-35-2-44-6-11-19-38-27-46q29 0 59-1"/>
  <path fill="#285647" d="m227 2552 3-3c18 8 52 1 68 6q0 2-2 3c-8 2-56 3-67 0z"/>
  <path fill="#448d67" d="M298 6c5 0 20-2 23 2 9 11 8 33 28 31 4 0 13-1 15-5 9-23 4-30 33-28h93c9 22 13 40 41 31l1-2c15-23 3-31 35-29l-1 54-2 46 1 2H361c-17 0-77 1-89-1l29-1c-4-6-3-38-3-47z"/>
  <path fill="#c89d69" d="M298 6c5 0 20-2 23 2 9 11 8 33 28 31 4 0 13-1 15-5 9-23 4-30 33-28v53h-99zM531 37l1-2c15-23 3-31 35-29l-1 54c-7-2-27-1-35-1h-63l-1-26q2-13-1-27h24c9 22 13 40 41 31"/>
  <path fill="#2a6251" d="M399 6h67q3 14 1 27c-7-2-59-1-69 0zM1430 2462h15c-3 12 9 31 15 43 43 2 98 1 142 1l212 1v32l1 20-70 1h-179l-34-1h-120v-52c-2-12-15-34-22-45z"/>
  <path fill="#285647" d="m1814 2539 1 20-70 1h-179l-34-1c-5-3-68-1-80-3 11-4 72-3 88-3h223c9 0 44 2 48-1q4-6 3-13"/>
  <path fill="#448d67" d="M1445 2462c43-2 90-1 133-1h318l17 1c3 9 1 35 1 48h-99l-1 20v-23l-212-1c-44 0-99 1-142-1-6-12-18-31-15-43M40 2400c19 71 45 62 108 61h109q-29 1-59 1c8 8 21 35 27 46-14 1-83 3-96 1-7-7-75-3-90-3-1-20-1-86 1-106"/>
  <path fill="#2a6251" d="M1284 2462h1l2 4c6 12 18 33 25 43v44l-1-1c-10 2-50 3-61-1q-1-2-5-2l-2-1-1-37c-5-7-1-11-11-13l-14-4c-5-4-21-26-21-31 8-3 73 0 86-1z"/>
  <path fill="#448d67" d="M1285 2462q64-2 127-1l18 1h-40c7 11 20 33 22 45-13 3-83 3-100 2-7-10-19-31-25-43zM1112 2462q61-2 122-1l50 1h-2c-13 1-78-2-86 1 0 5 16 27 21 31l14 4c10 2 6 6 11 13-6-2-17-1-24-1-22-1-55 2-75-1v11c-4-15-29-40-31-58"/>
  <path fill="#619f6a" d="M1235 2506c-5-1-13-3-15-7q6-2 11-1c10 2 6 6 11 13-6-2-17-1-24-1-22-1-55 2-75-1l27-1q33 0 65-2"/>
  <path fill="#f1f1f1" d="M94 141h2369c6 1 16-1 22 4 25 21 20 66 20 95l-1 108 1 441v1085l-1 142q0 19-11 36c-4 4-13 11-19 12q-34 2-69 1h-162c-21 0-70-2-88 1h-1l-9 6c-32 27-26 76-26 114v144c0 23 5 82-21 94-14 7-52 4-69 4H371c-27 0-279 2-285-1l-2-1-4-2c-11-8-17-24-19-37-4-20-2-44-2-65V749l1-414-1-137c1-19 2-29 13-45q9-11 22-12"/>
  <path fill="#616161" d="m479 1319 1-4c7-3 36-1 44 0l-1 32h22c0 57 2 119 0 176q-10-1-22 1v31c5 3 35 1 44 1v72h22v-71h21l1 70h43v35h-44v35l22-1v36l-22-1 1 29q10 2 22 1-2-14-1-28h22v105l22-1v70h44v34h-66v35l62 1 3 1v2q1 85 1 171c-42-2-90-1-131-1 0-8 1-28-1-34h-20v-2l-1 1c-4 1-18 2-22-1v-33h-44v-34h-21c0-13-1-60 1-70l3-1-2-1q-2-6-2-15l-1-53c-12-2-31-1-43-1v-33c-7-1-16 1-21-2q-4-6-1-13v-35l-1-22h-21l-1 35h-21v-105h-21v65q0 4-2 4c-6 2-36 2-41 0-2-5-2-27-2-33l23-1v-34h-23v-35h-43v35h-13l-53-1 1 141h-23c2-19 1-45 1-64l-1-111c11 0 55 2 64-1 4-8 2-58 1-69h23v-35h-67l1 36h-21l-1-71c33 0 78 1 109-1 1 20 2 54 0 72h-21v34l39 1h3q2 5 1 12v22h23c0-7 1-31-2-35h-19c-3-4-2-28-1-35h21v-35h-22v-35h66v-34h16l4-1c4-5 2-26 2-34h22c0-10-1-28 1-36 6 2 34 1 42 0l1-33-22-1v-70h22v36h21z"/>
  <path fill="#f1f1f1" d="m501 1487 22 1v67l-1-1q-5 4-15 3l17 1v69h-23v33l2 2 21-1v-34h22v70h21v35h22v105h-43v-36h21c0-7 1-28-2-34l-20-1v-34h-21v34h-45l1-34 44-1v-34h-23v-34l-1 6c-9 2-13-6-21 6l-1 22-21-1v-33q-11-1-20 1l-1 4v64h22v29l-60 1q-4 0-6 3v-33h22v-35h-66v-34l22-1v-70h22l-1-35c6 0 17-1 22 2 0 7 0 29 2 33q11-2 21 1v-71l21 1v-35h22v35l22-1z"/>
  <path fill="#616161" d="M436 1593h21v34h22v30l-1 4c-5 2-16 1-21 1l1-34h-22z"/>
  <path fill="#4f504f" d="M457 1662q2-5 6-7c7 4 9 6 16 2l-1 4c-5 2-16 1-21 1"/>
  <path fill="#616161" d="M501 1531c11-7 15 1 22-3v27l-1-1q-5 4-15 3h-3c-4-2-2-1-4-7q2-10 1-19"/>
  <path fill="#4f504f" d="M500 1550c11 6 14 0 22 2v2q-5 4-15 3h-3c-4-2-2-1-4-7"/>
  <path fill="#353535" d="M479 1675q-1-7 1-11l7-2 14 1-1 6c-9 2-13-6-21 6"/>
  <path fill="#585958" d="M523 1523zv4c-7 4-11-4-22 3q-1-3 1-7l8-1z"/>
  <path fill="#616161" d="M457 1557h44l-1 20v14c-7 2-37 2-42-1v-2z"/>
  <path fill="#4f504f" d="M500 1577v14c-7 2-37 2-42-1v-2l1-2c8-1 32 4 38-1z"/>
  <path fill="#616161" d="M392 1593h22l-1 69h-21z"/>
  <path fill="#f1f1f1" d="M480 2047c0-13-1-60 1-70l3-1 16 1c3 17 1 50 1 69h22v-34h22v35l44-1v35h-22v34c-4 1-18 2-22-1v-33h-44v-34z"/>
  <path fill="#f1f1f1" d="m502 1906 22 1v68q-12 3-23 1l-1 1-16-1-2-1q-2-6-2-15l-1-53z"/>
  <path fill="#585958" d="M479 1907h22v69l-1 1-16-1-2-1q-2-6-2-15z"/>
  <path fill="#f1f1f1" d="M435 1801h44v36h-22l1 34-22 2v-9c-1-19-2-45-1-63"/>
  <path fill="#dfdfdc" d="M479 1872h23v34l-1 1h-22z"/>
  <path fill="#f1f1f1" d="M567 1677v-11q10-10 21-1l1 6c-2 7-1 17-4 22q-4 2-10 1l-1-2-3-6-3 1q1-6-1-10"/>
  <path fill="#dfdfdc" d="M392 1765q2-3 6-3l60-1-1 3c-7 4-57 3-65 1"/>
  <path fill="#4f504f" d="m716 1977 3 1v2l-2 13v-3 2c1-3 0-2-1-5-8-9-44-2-57-7 6-4 46-1 57-3M479 1319l1-4c7-3 36-1 44 0-7 9-30 2-42 5l-1 7zM306 1800v-3c15-7 34 8 40-7q3 2 3 6t-2 4c-6 2-36 2-41 0M300 1663h3q2 5 1 12l-2-4c-7-6-26-1-38-5 2-2 29-2 36-3"/>
  <path fill="#dfdfdc" d="M567 1677q2 4 1 10l3-1 3 6 1 2q6 1 10-1c3-5 2-15 4-22v26h-22z"/>
  <path fill="#4f504f" d="m413 1559 2-3c5 6-1 27 5 33l-5 3c-2-4-2-26-2-33"/>
  <path fill="#585958" d="M565 1767c3 6 2 27 2 34q-4 1-6-2v1h-1l4-2q-2-14-1-29z"/>
  <path fill="#353535" d="m415 1452 5 2-2 6c-3 5 1 20 1 25l-5 3c0-10-1-28 1-36"/>
  <path fill="#585958" d="M414 1858q0 6 4 9 10 5 18-3v9c-7-1-16 1-21-2q-4-6-1-13"/>
  <path fill="#4f504f" d="M501 1660q9-6 20-5c3 3 2 1 3 6l-21 1zM414 1823q-1-6 2-10c1 7 2 36 0 42l-2-17z"/>
  <path fill="#dfdfdc" d="M611 1760q10 2 22 1l-1 3c-4 4-16 4-21 1z"/>
  <path fill="#4f504f" d="M370 1523h16l3 1 1 2c-8 4-10 2-19 7l-1-7z"/>
  <path fill="#353535" d="m436 1668 1-4q9-2 20-1l-1 5z"/>
  <path fill="#585958" d="m568 2114 1-4c7-1 10 0 18 2l1 4h-20z"/>
  <path fill="#4f504f" d="m306 1662 1-3q8-3 17 0l1 1v2z"/>
  <path fill="#f1f1f1" d="M546 1872h64c2 29 1 74 1 104-9 2-53 1-65 1-2-27-1-77 0-105"/>
  <path fill="#616161" d="M567 1907h21c0 8 1 27-1 34h-20z"/>
  <path fill="#f1f1f1" d="M678 2046h20v70h-44v-35h23c0-9-1-27 1-35M480 1382l21 1v35h23v35h-44zM632 2012l22 1v67l-21 1h-23l1-34 21-1zM611 1801h21v37l-22-1zM414 1487l21 1v35l-21-1zM326 1627l22-1v37l-21-1zM633 1837h21v34h-21z"/>
  <path fill="#585958" d="M550 1979c10-1 57-2 61 1l-3 3h-18c-7-1-38 2-41-3z"/>
  <path fill="#616161" d="m174 1278 152 1 1 59v154c0 6 2 26-2 30-48 0-104-2-151 0l-1-31q0-106 1-213"/>
  <path fill="#f1f1f1" d="M196 1313h109c-1 55 2 121-1 176q-53-1-108-1c-1-52-2-123 0-175"/>
  <path fill="#616161" d="M217 1347h66v107h-66c0-27-2-82 0-107M567 1278c48 2 105 1 153 1l-1 80v163H567c-2-63 1-126 0-189z"/>
  <path fill="#f1f1f1" d="M592 1313h106v119c0 10 1 48-1 56l-3 1c-29-2-75-1-106-1 0-15-1-170 1-174z"/>
  <path fill="#616161" d="M611 1347h65v107h-66zM174 1907l153 1v165c0 22 1 56-1 77H173z"/>
  <path fill="#f1f1f1" d="M198 1941h106c1 17 2 171-1 175-31 1-76 2-108 0l1-173z"/>
  <path fill="#616161" d="M217 1976c16 2 52-1 65 1l1 3v102h-64l-2-2z"/>
  <path fill="#585958" d="M217 1976c16 2 52-1 65 1l1 3-1 5-1 1-3-4c-16-1-43-1-58 1 0 30-2 67 0 95l9 1q-2 2-8 3h-2l-2-2z"/>
  <path fill="#616161" d="M392 1941h22v106l43-1 1-36h-23l1-69h22l-1 34h22l1-15q-1 9 2 15l2 1-3 1c-2 10-1 57-1 70h21v34h44v34l-65 1-1-35h-43v35h21v35c-14-2-40-1-55-1-14 0-41-1-54 1v-175l44 1z"/>
  <path fill="#f1f1f1" d="M370 2046c10 0 35-1 44 1v65l-1 3c-7 3-34 1-43 1z"/>
  <path fill="#4f504f" d="m414 2048 4 1c2 5-1 59-4 63z"/>
  <path fill="#616161" d="M1801 799q35 2 72 2c35 1 62 16 53 56-3 15-13 22-25 29q9 3 16 7c19 15 21 40 14 62-18 36-94 27-131 27-1-57 0-125 1-183"/>
  <path fill="#f1f1f1" d="M1836 903c14-1 40-3 52 6 11 8 10 25 2 35-15 10-37 8-55 7zM1836 830c17 1 52-5 53 19q0 12-7 20c-11 7-33 5-46 5-1-9-2-37 0-44"/>
  <path fill="#616161" d="M177 552h59l79-1v38H202c2 24 1 69 1 94h105l-1 36H203v105l61 1 55-1-1 37c-43-2-96 2-141 0 0-102-2-208 0-309M367 558q19-10 39-6c43 3 52 68 49 101-5 49-36 85-64 123q-17 23-28 48l92 1v36H331c2-27 5-42 17-68 27-56 87-98 83-166-2-27-25-61-55-37-14 11-17 36-17 53l-25-4c2-26 7-66 33-81"/>
  <path fill="#4f504f" d="M367 558q19-10 39-6c-6 4-20-1-25 5q-6 8-14 1"/>
  <path fill="#616161" d="M470 639c3-28 6-59 30-78q19-14 40-10c51 8 56 75 49 115-13 62-67 102-90 159h93v36H466c2-22 4-38 14-61 29-63 121-131 75-207l-4-4-1-1-1-1c-11-6-16-6-28-4-24 14-25 35-27 61z"/>
  <path fill="#585958" d="M521 583v-2h1c-3-2-2-2-5-1l-2 1q6-6 13-5c7 2 18 2 22 7q2 3-1 4c-11-6-16-6-28-4"/>
  <path fill="#616161" d="M2261 800h123v34c-26 0-62-1-87 1v39h77c5 4 4 25 2 31l-3 1c-19-2-55-1-75-1l-1 43q38 1 78 1 5-1 10 1l1 1-1 31h-124c-2-58 0-123 0-182"/>
  <path fill="#4f504f" d="M2375 949q5-1 10 1l1 1-2 6c-7-3-53-4-63-3h-21l-1-2c3-3 62 0 76-3"/>
  <path fill="#585958" d="M2374 874c5 4 4 25 2 31l-3 1c1-9-1-27 1-32"/>
  <path fill="#616161" d="M1671 800h113v34l-85 1v39c23-2 54-1 78 0v31c-9 0-72-1-77 1l-1 6v37h87v32c-36-1-87 1-124 1V802c4-2 4-1 9-2"/>
  <path fill="#585958" d="M1775 1733v-7c6-4 45-1 53 2 20 15 20 50 5 68l-2 2q12 9 14 21c15 70-23 66-71 66z"/>
  <path fill="#353535" d="M1775 1733v-7c6-4 45-1 53 2l-6 1-1 1 2 2c-13 0-40-4-48 1"/>
  <path fill="#f1f1f1" d="M1786 1810c10 0 32-1 40 3 15 10 12 34 3 48-9 8-30 5-43 4zM1787 1742c10 0 25-1 35 4 17 8 10 29 3 42-7 7-28 4-38 4z"/>
  <path fill="#616161" d="M1937 799c8 0 39-1 41 3 12 19 30 56 40 76l38-79 39 2q-11 23-24 44c-40 72-36 55-35 137h-38v-59c-2-29-39-75-50-104z"/>
  <path fill="#4f504f" d="M1998 923c3 5 3 30 1 37q0 9 6 19l-7 3z"/>
  <path fill="#616161" d="M2110 800h137v35h-51q-1 73 1 146l-38 1V835l-48-1v-5c-2-8-1-21-1-29"/>
  <path fill="#4f504f" d="M2111 829c8-1 38-1 45 2-15 4-35 1-45 3z"/>
  <path fill="#f1f1f1" d="M843 718c10-12 24-19 36-5 20 23 18 61 18 90-1 12-5 46-14 55-22 29-43 5-48-21-7-33-10-90 8-119"/>
  <path fill="url(#b)" d="M843 718c10-12 24-19 36-5 20 23 18 61 18 90-1 12-5 46-14 55l-8-4c-6 2-5 4-11 3q19-14 19-39c1-27 6-69-10-92-7-10-15-5-21 2l-2-8q-3-2-7-2"/>
  <path fill="#585958" d="M843 718q4 0 7 2l2 8c-13 25-19 115 12 129 6 1 5-1 11-3l8 4c-22 29-43 5-48-21-7-33-10-90 8-119"/>
  <path fill="#616161" d="M678 1558q10-2 20-1l1 71 21-1v105l-21-1v35l20 1v69h-21v-34l-21-1-1-70-22 1v-35l44-1v-33l-15-1q-3 1-5-1c-2-3-2-98 0-103"/>
  <path fill="#585958" d="M678 1558h3c2 32-4 62-2 93 0 6 7 5 4 11q-3 1-5-1c-2-3-2-98 0-103M781 706c34-1 36 48 36 72 0 27 2 83-29 92-33-1-36-47-36-71-1-28-3-81 29-93"/>
  <path fill="#f1f1f1" d="M779 720c17 1 23 16 25 30 2 26 7 89-15 105-28 1-25-50-25-69-1-19 1-51 15-66"/>
  <path fill="#585958" d="M1766 1995c10-7 15-7 26-3 26 17 22 79 21 104-4 74-60 75-64 1-1-25-5-85 17-102"/>
  <path fill="#4f504f" d="M1766 1995c10-7 15-7 26-3-5 13-19 2-26 3"/>
  <path fill="#f1f1f1" d="M1777 2003c27 2 25 50 25 70-1 19-1 52-18 63h-3c-17-1-20-32-20-45-1-24-5-71 16-88"/>
  <path fill="#585958" d="M1610 1994c13-6 24-9 34 5 21 22 19 125-4 147l-3 3-11 3q-11-2-17-8c-19-23-17-73-15-102q0-26 16-48"/>
  <path fill="#f1f1f1" d="M1614 2009c7-6 8-6 16-7 23 28 16 63 16 96 0 20-15 60-35 24-10-22-5-69-3-93 0-5 6-17 6-20"/>
  <path fill="#353535" d="M1610 1994c13-6 24-9 34 5l-3 1-4-3c-6 2 0 2-6 4v1h-1c-8 1-9 1-16 7l-1-2c2-4 2-3 6-6l1-1c-6-3-4 1-10-6"/>
  <path fill="#616161" d="m1609 2144 4-5 24 10-11 3q-11-2-17-8"/>
  <path fill="#585958" d="M1693 1991q10-5 21 1c18 11 19 36 22 60 2 20 1 130-50 91-17-13-16-78-15-99 2-18 7-40 22-53"/>
  <path fill="#353535" d="M1693 1991q10-5 21 1c-5 4-10 11-16 7z"/>
  <path fill="#f1f1f1" d="M1699 2003c31 1 25 60 25 82 0 17-3 41-18 51-31-1-23-70-23-91q0-25 16-42"/>
  <path fill="#dfdfdc" d="M1211 2119c-8-26-14-144 38-128 31 21 27 121 9 150-15 25-43 4-47-22"/>
  <path fill="url(#c)" d="M1249 1991c31 21 27 121 9 150-15 25-43 4-47-22v-17c1-8 3-10 3-18 3 3 2 3 3 8l2 1c4 12 1 40 20 44 16-4 19-31 21-44v-30c-1-17 1-64-27-59l3-4-5-2c8-2 7 3 13 1z"/>
  <path fill="#585958" d="m1260 2063 3-1 1-5c2 3-1 4 2 8 4 9-4 20-6 28z"/>
  <path fill="url(#d)" d="M1211 2119c-8-26-14-144 38-128l-5 8c-6 2-5-3-13-1l5 2-3 4c-12 13-12 28-14 46l-2-3q0 9-3 19c-2 2 0 14 0 18 0 8-2 10-3 18z"/>
  <path fill="#4f504f" d="M1214 2084c0-4-2-16 0-18q3-10 3-19l2 3v43l-2-1c-1-5 0-5-3-8"/>
  <path fill="#f1f1f1" d="M1562 2148c-58 25-50-112-38-138 8-16 19-27 37-18 19 12 20 59 20 79-1 24-1 59-19 77"/>
  <path fill="#4f504f" d="M1562 2148c-58 25-50-112-38-138 8-16 19-27 37-18l-7 7-1 4c-34 0-24 73-25 95 0 17 7 24 14 36l-1 4c5 8 11-2 16 8z"/>
  <path fill="url(#e)" d="M1561 1992c19 12 20 59 20 79-1 24-1 59-19 77l-5-2c-5-10-11 0-16-8l1-4c26 8 27-36 27-53 0-25 3-58-16-78l1-4z"/>
  <path fill="#585958" d="M1147 1994q15-10 30 0c15 15 20 50 3 64l-3 4c37 29 12 117-34 80-17-13-18-61 1-77l2-3c-14-19-18-52 1-68"/>
  <path fill="#585958" d="M1147 1994q15-10 30 0c15 15 20 50 3 64l-2-8-2 1-2-1c-9 5-10 6-20 2l5 7q1 5-5 7l-6 4-4-5 2-3c-14-19-18-52 1-68"/>
  <path fill="#f1f1f1" d="m1154 2052-2-3c-18-28 5-64 25-35 5 8 1 27-3 36-9 5-10 6-20 2"/>
  <path fill="#353535" d="M1147 1994q15-10 30 0c-16 12-13 5-24 0l-3 2z"/>
  <path fill="#f1f1f1" d="m1175 2077 6 14c2 8 2 27-4 35-25 33-47-26-29-45 6-8 6-8 17-11z"/>
  <path fill="url(#f)" d="m1174 2050 2 1 2-1 2 8-3 4-5 1v4l4 5-1 5-10-7c-8 0-5 1-11-4q6-2 5-7l-5-7c10 4 11 3 20-2"/>
  <path fill="#585958" d="M681 723q7-12 19-16 9-3 18 2c26 17 22 79 20 104-2 27-15 72-50 51-7-4-15-26-12-33h7c5 3 12 45 35 15 6-8 11-44 7-51l-4 5c-2 6-14 16-20 14-28-9-30-46-28-68q3-12 8-23"/>
  <path fill="#dfdfdc" d="M707 797c-23-4-24-29-22-47s20-42 35-20c9 15 6 38 2 55q-4 9-15 12"/>
  <path fill="#353535" d="M707 797q11-3 15-12l3 10-4 5c-6 1-8 1-14-2z"/>
  <path fill="#4f504f" d="m681 723 2 4-6 20-1 2-2 1-1-4q3-12 8-23"/>
  <path fill="#616161" d="M349 1383h65v35h-22l-1 37 1 33c0 8 2 29-2 34l-4 1h-29l-8-1c-2-8-1-59-1-69h22v-35l-22 1q-1-19 1-36"/>
  <path fill="#dfdfdc" d="m388 1487 4 1c0 8 2 29-2 34l-4 1h-29q6 0 10-2c5-8 3-22 3-33z"/>
  <path fill="#4f504f" d="m391 1455 1 33-4-1q-8 0-14-3c2-5 9-2 15-8 3-9-4-11 2-21"/>
  <path fill="#585958" d="M945 1994c2-5 0-3 3-6 5-1 5-1 9 1 3 4 1 146 1 160h-14q-4-15-10-28-20-50-41-98c2 32-1 68 0 101 0 7 2 19-3 24q-3 3-7 1l-2-2-1-158c7-1 9-2 14 1l3 6 18 46q12 28 23 55l8 14c1-11 1-109-1-117"/>
  <path fill="#616161" d="m945 1994 6 4c1 3-1 98 1 109q1 3-1 7c-2 3-1 1-4 3-7-3-9-13-9-20l8 14c1-11 1-109-1-117"/>
  <path fill="#4f504f" d="M880 1989c7-1 9-2 14 1l3 6-1 1c-9-1-2-7-14 0z"/>
  <path fill="#353535" d="M2300 400c43 15 42 77 12 106l-12 3q-23-5-30-28c-6-18-6-42 3-59 6-14 13-17 27-22"/>
  <path fill="#f1f1f1" d="M2294 407c43-4 48 85 10 96-40 4-49-79-10-96"/>
  <path fill="#353535" d="M2285 424h13c29 3 13 22 8 34-1 3 9 20 9 27h-2q-5-4-7-13c-2-7-4-16-13-16-7 5-2 15-6 27h-1c-2-13-1-46-1-59"/>
  <path fill="#f1f1f1" d="M2289 428c18 2 24 2 19 22l-19 2z"/>
  <path fill="#585958" d="m1285 2043 3 4 2-1q2-3 1-6 1 5 4 11-1 5 2 8c3-1 12-10 20-14h2q11 2 18 9c19 21 17 72-4 91-11 10-26 9-34-4-17-25-18-68-14-98"/>
  <path fill="#f1f1f1" d="M1314 2136c-15-13-23-38-16-54 18-40 44-13 39 20-2 13-1 15-7 27l2 4c-2 5-2 5-6 9l-2 1-5-3h1c-3-3-1-2-6-2z"/>
  <path fill="#353535" d="m1330 2129 2 4c-2 5-2 5-6 9l-2 1-5-3h1c-3-3-1-2-6-2v-2c9 0 10-1 16-7"/>
  <path fill="url(#g)" d="M1212 1783c-32-11-21 19-38 18-13-13 24-56 49-26l5 9c7 7 5 16 5 27v4l1-14 1 48v35l-1 1h-7c-5 0-3 1-6-2q1-7-5-11-11 18-32 14c-17-11-18-33-12-51l6-8c16-16 44-3 39-31v-2c-1-6-1-6-5-11"/>
  <path fill="#f1f1f1" d="M1217 1826c5 8-1 30-6 39l5 1v6q-11 18-32 14c-17-11-18-33-12-51l8 4 3-2 1 1 9-3q13-3 24-9"/>
  <path fill="url(#h)" d="m1172 1835 8 4 3-2 1 1c-6 20-5 41 23 31l4-4 5 1v6q-11 18-32 14c-17-11-18-33-12-51"/>
  <path fill="#585958" d="m1211 1865 5 1v6q-11 18-32 14c9-9 22-5 23-17z"/>
  <path fill="#4f504f" d="M1212 1783c-32-11-21 19-38 18-13-13 24-56 49-26l-3 2q-11-6-24-5l-1 1q3 2 9-1h3c7 3 3 5 5 11"/>
  <path fill="#dfdfdc" d="M1228 1784c7 7 5 16 5 27v4l1-14 1 48v35l-1 1h-7l-2-4 1-2 1-2c3-7 1-49 3-61q1-16-2-32"/>
  <path fill="#616161" d="M1230 1816c2 26-2 43 4 69h-7l-2-4 1-2 1-2c3-7 1-49 3-61M1193 1823c10-1 14 0 24 3q-11 6-24 9l-9 3-1-1-3 2-8-4 6-8q8 2 15-4"/>
  <path fill="url(#i)" d="M1178 1827q8 2 15-4c-4 4-4 3-5 8l5 4-9 3-1-1-3 2-8-4z"/>
  <path fill="#585958" d="M914 1792c-1 6 0 6-4 10-4 1-2 1-6-1-5-12 4-27 15-33q15-5 30 1c20 17 8 71 12 95 1 5 3 18 1 21-4 2-2 2-6 1q-6-5-7-12h-4c-3 6-6 7-11 11-34 9-42-26-31-51 16-21 25-13 41-23 14-8-4-50-30-19"/>
  <path fill="#616161" d="M903 1834c17-1 17-12 36-11q4 4 9 3c1 16 2 24-7 38 5 5 2 3 4 10-3 6-6 7-11 11-34 9-42-26-31-51"/>
  <path fill="#f1f1f1" d="M916 1869c-2-6-9-13-5-23 6-14 25-13 37-20 1 16 2 24-7 38-9 8-13 10-25 5"/>
  <path fill="#4f504f" d="M941 1864c5 5 2 3 4 10-3 6-6 7-11 11-7-5-18-6-20-13l2-3c12 5 16 3 25-5M914 1792c-1 6 0 6-4 10-4 1-2 1-6-1-5-12 4-27 15-33q15-5 30 1c-9 4-23 1-28 6 0 7-1 6-7 11z"/>
  <path fill="#585958" d="M1190 741c1-23 15-38 39-36q14 0 21 11c6 9 19 29 7 36-9 0-10-14-15-21-13-19-37-9-41 12-4 18 21 30 36 34 45 13 33 99-14 93q-17-2-28-16c-5-8-13-29-9-38 5-2 3-2 8 0 5 7 6 17 11 24 17 24 48 11 47-17 0-18-11-22-25-29l-17-6q-10-6-16-17-6-14-4-30"/>
  <path fill="#4f504f" d="M1210 788q10-4 19 3v2l-2 1zM1190 741c3 4 4 25 4 30q-6-14-4-30"/>
  <path fill="#585958" d="m2043 1730 1-4c7-2 61-2 69-1v16c-5 3-48 1-57 1v50h53l1 19-47-1q-4-1-7 3c-2 11-1 40-1 53h61v19h-74z"/>
  <path fill="#353535" d="m2043 1730 1-4c7-2 61-2 69-1v12l-1 1-6-8c-15 2-49 2-63 0M2109 1792l1 19-47-1c9-5 26 0 36-4 4-2 3-6 5-12z"/>
  <path fill="url(#j)" d="M1684 1734q-1-6 2-9c13-2 54 0 69 0l-2 17h-55c-2 14-2 36-1 50h54v18l-54 1v55h60l-1 19h-72z"/>
  <path fill="#616161" d="m1698 1742-2-5-6-1-1-1c5-2 39-2 47-2q9-1 14 3c1 4 0 3 3 6z"/>
  <path fill="#353535" d="M1684 1734q-1-6 2-9c13-2 54 0 69 0l-2 17c-3-3-2-2-3-6l-1-6c-4-2-49 1-57 1q-4 0-8 3"/>
  <path fill="#4f504f" d="M1715 1866h42l-1 19-5-3c-6-17-13-7-28-10-3-4-3-4-8-6"/>
  <path fill="#585958" d="M865 1724h19l-1 2c-2 36 1 80 0 116-1 12 1 30-1 41q-3 3-9 2l-1-2-1-100c-1-6-2-6-5-11-5 18-20 101-25 111-4 2-4 2-9 2-5-4-7-20-8-27l-19-90h-4q-1-4 2-8l1-3 8-9 15 67c2 13 6 32 10 44l12-58 6-24c2-16 8-34 10-53"/>
  <path fill="#616161" d="m849 1801 6-24v23l-2 2-2-1z"/>
  <path fill="#dfdfdc" d="M866 1772q2-9 5-18v29c-1-6-2-6-5-11M803 1760l2 8h-4q-1-4 2-8"/>
  <path fill="#585958" d="M1889 424c4-3 2-3 7-3q7 5 4 13l-20 32a227 227 0 0 0 3 211c7 13 15 13 10 31l-2 1q-8-2-12-11c-26-43-33-79-36-128-4-10-4-45 0-56 3-10 0-7 9-12 8-30 21-52 37-78"/>
  <path fill="#dfdfdc" d="M1843 570c-4-10-4-45 0-56 3-10 0-7 9-12q-9 33-9 68"/>
  <path fill="#4f504f" d="M1889 424c4-3 2-3 7-3q7 5 4 13c-3-8-3-5-11-10"/>
  <path fill="#585958" d="M1491 1777c27-33 52 9 52 38v6l-2 6-3 1q-5-4-11-11c-7-2-25-1-33-1q-5 7-4 15c-2 21 14 62 36 29 3-3 6-10 10-12 5 0 3-1 6 2 4 34-49 61-61 4-4-17-5-42 1-58q2-11 9-19"/>
  <path fill="#dfdfdc" d="M1505 1782c8-1 10 0 17 3q9 14 8 29l-3 3c-7-2-25-1-33-1q-3 0-4-3c-1-11 6-25 15-31"/>
  <path fill="url(#k)" d="M1491 1777c27-33 52 9 52 38v6l-2 6-3 1q-5-4-11-11l3-3q1-15-8-29v-4l2-1-5-4-1-3c-12-5-18 5-26 7z"/>
  <path fill="#4f504f" d="M1482 1796c2 9 1 50-1 58-4-17-5-42 1-58"/>
  <path fill="#616161" d="M1505 1782q1-5 4-8l10 2 5 4-2 1v4c-7-3-9-4-17-3M2150 420l7 3c63 80 62 207 5 287q-6 0-7-4c-2-15 15-36 21-50q35-95-6-185c-6-13-16-23-22-36q-1-7 2-15"/>
  <path fill="#353535" d="M1797 762h391l60 1c2 3 1 1 0 6l-2 2c-30-3-83-1-115-1h-241c-27 0-67 2-92 1-2-4-1-4-1-9"/>
  <path fill="#585958" d="M1928 1732q2-11 14-7l2 2-2 6c-12 22-27 64-36 89-3 11 5 55-3 62h-8c-5-9 2-51-4-68-9-27-24-67-36-92q8-1 15 2c4 6 27 65 31 75 9-21 17-47 27-69"/>
  <path fill="#353535" d="M1928 1732q2-11 14-7l2 2-2 6-5-3-6 3z"/>
  <path fill="url(#l)" d="M1381 1993c15-7 32-3 39 12 7 16 6 37 0 53-5 21-43 58-41 72 8 0 40 0 45 2q3 8 2 17l-67-1q4-22 15-41c18-31 59-66 28-102v-2z"/>
  <path fill="#585958" d="M1379 2130c8 0 40 0 45 2l-1 3c-2 1-40 4-46 3l-1-1z"/>
  <path fill="#616161" d="m2010 654 28 1c2 12 6 76 8 83q0 4-2 5c-8 3-33 2-40-1l-1-4c1-19 4-66 7-84"/>
  <path fill="#4f504f" d="M2003 738q5 0 8 1c10 0 26 1 35-1q0 4-2 5c-8 3-33 2-40-1z"/>
  <path fill="#585958" d="M1146 723v-7c5-4 3 3 11-1 18 18 8 48 0 64-1 3 12 16 12 20 7 20 2 50-13 65-21 19-37 0-46-19-12-11-13-25 7-24l1 2c2 11 10 44 28 31 16-11 22-60-6-63q-6 0-9-3c2-18 1-10 15-19 16-10 9-33 0-46"/>
  <path fill="#dfdfdc" d="M1110 845c-12-11-13-25 7-24l1 2c-6 1-7 0-11 4q-1 8 3 18"/>
  <path fill="#616161" d="M1950 1735q-1-6 2-10h76l1 17h-34l1 96c0 8 2 42-3 47h-8l-2-2v-141c-8 0-24 2-32-1-2-3-2-2-1-6"/>
  <path fill="#353535" d="M1950 1735q-1-6 2-10h76l-1 10-2-4c-11 0-68-3-74 4z"/>
  <path fill="url(#m)" d="M915 708q9-3 17 0l2 5 11 50q8 32 13 63v2h-2c-3-3-5-19-7-24l-1 8c-2-9 3-13-1-19-3 6 1 11-3 18q-6-33-15-65c-3 6-1 11-3 19v102h-12c0-18-2-151 1-159"/>
  <path fill="#4f504f" d="M915 708q9-3 17 0l2 5-1 3q-8-4-17-5z"/>
  <path fill="#dfdfdc" d="M926 765q-1-14 1-28 3 4 2 9c-3 6-1 11-3 19"/>
  <path fill="#585958" d="M810 2048c17 11 45 12 50 37 6 24 1 61-29 66q-16 3-29-7a50 50 0 0 1-17-46c4-2 2-1 7-1 11 7 6 41 39 36q10-3 16-12 6-11 3-22-4-13-16-18l-30-15 5-3q-4-2-4-5z"/>
  <path fill="#353535" d="m809 2063 1 1 18 9-2 4-22-11z"/>
  <path fill="#616161" d="M2020 523c34 0 39 65 8 78-35 2-40-63-8-78"/>
  <path fill="#585958" d="M2123 635c19-41 17-100-4-140-6-11-24-30-16-41 19-3 41 69 42 85q6 32 0 63c-2 15-18 77-37 77-6-7 3-22 8-28z"/>
  <path fill="#4f504f" d="M2145 602c-2-11-2-53 0-63q6 32 0 63M2123 635q3 10-6 16h-1z"/>
  <path fill="#585958" d="M1945 468c-39 61-45 120-10 185 4 7 11 17 5 24h-5c-46-60-45-152-4-215q5-9 14-10c2 7 3 9 0 16"/>
  <path fill="#353535" d="M1945 452c2 7 3 9 0 16q-4-7-3-14z"/>
  <path fill="#585958" d="M1262 1772c14-9 29-9 37 7 3 6 4 7 5 13 2 6 2 5 0 11l-4 2c-4-2-3-1-5-4-2-7-6-17-13-21-11-5-22 18-23 26-2 19-4 42 6 59l5 6c10 2 13 1 21-7 2-7 4-17 9-22h3c10 15-5 51-34 43-27-14-25-59-21-84q2-17 14-29"/>
  <path fill="url(#n)" d="M1291 1864c2-7 4-17 9-22h3c10 15-5 51-34 43 9-1 11 1 13-8q10-3 9-13"/>
  <path fill="#353535" d="M1262 1772c14-9 29-9 37 7-8-2-13-8-23-7zM1291 1864q2 10-9 13l-5 2c-6-2-4-1-8-5l1-3c10 2 13 1 21-7"/>
  <path fill="#4f504f" d="M1304 1792c2 6 2 5 0 11l-4 2c-4-2-3-1-5-4l1-4h6z"/>
  <path fill="url(#o)" d="m990 715 2-7q8-3 17-1c2 11 2 155 0 159l-5 2c-5-1-3 0-6-3v-81l-1-52q-4 19-9 40c-4 1-2 3-6 6h-5z"/>
  <path fill="#585958" d="M998 784c5 6-3 12 4 15q-2 8-1 15l2 2q4-9 3-19c1 14 4 53 1 65l-2 1-5-3-2 1z"/>
  <path fill="#4f504f" d="m990 715 2-7q8-3 17-1l-1 12q-5-5-11-7c-4 2-3 1-5 4z"/>
  <path fill="#585958" d="M1143 1727c17-17 30 1 22 11l-3 1c-6 0-5-1-10 1-6 10-5 15-3 27l1 1c7 0 7-1 12 2l1 7c-3 7-4 6-12 5-3 2-2 1-3 5 1 11 2 92-2 97h-6c-8-11 1-81-4-99l-4-3h-5q-2-6-1-13l3-1h4c9-6-1-26 10-41"/>
  <path fill="#4f504f" d="M1132 1782v-4c4-1 4 0 8 1 3 7 2 61 2 72h1c0-7-1-46 2-50l-1 7h2l2-21c1 11 2 92-2 97h-6c-8-11 1-81-4-99zM1143 1727c17-17 30 1 22 11l-3 1-1-3 3-7-1-3q-9 0-18 3z"/>
  <path fill="#353535" d="M1150 1768c7 0 7-1 12 2l1 7c-8-4-9 1-13-9M1127 1782q-2-6-1-13l3-1q4 8-2 14"/>
  <path fill="url(#p)" d="M1086 1997q1-7 7-10c8 4 5 45 5 54v108q-7 1-12-2c-1-6 0-80 1-91-1-7 1-28-4-31l-4 4c-2 5-9 9-13 13l-3 1q-2-7-1-16c12-11 15-15 24-30"/>
  <path fill="#616161" d="m1098 2149-2-6-3-2a626 626 0 0 1 0-104l2 1 1-2 2 5v108"/>
  <path fill="url(#q)" d="m1086 1997 2 4c-3 12 1 40-1 55-1-7 1-28-4-31l-4 4c-2 5-9 9-13 13l-3 1q-2-7-1-16c12-11 15-15 24-30"/>
  <path fill="#616161" d="M1066 2042c0-7 0-17 8-20l3 1v4l2 2c-2 5-9 9-13 13"/>
  <path fill="#585958" d="m1978 478 5 3q3 3 2 8-6 13-13 26c-17 32-15 75 0 107 6 11 17 16 5 31-15-11-26-46-28-64q-9-62 29-111M1848 2016c6-8 15-26 20-28l2 1c4 11 1 136 1 160h-12l1-87-1-40-19 22h-2l-2-1c-1-10-1-17 8-22z"/>
  <path fill="#4f504f" d="M1848 2016c3 4 2 2 2 6 5 0 2-4 8-4l1 4-19 22h-2l-2-1c-1-10-1-17 8-22z"/>
  <path fill="#353535" d="M1844 2021c1 6-4 10-4 23h-2l-2-1c-1-10-1-17 8-22"/>
  <path fill="url(#r)" d="m1321 1739 12-13c0 10-2 31 0 39 7 6 10 0 13 7q1 5-2 9l-8 1c-5 6-5 76-1 83 13 7 11 6 11 21-5 0-15 1-19-4-13-15-1-85-8-99l-7-1c-1-6-3-9 3-13l4-1c3-6 2-21 2-29"/>
  <path fill="#353535" d="M1312 1782c-1-6-3-9 3-13l3 2q-1 6-6 11"/>
  <path fill="#585958" d="m217 1766 43 1 1 35c-6 0-16-1-21 1-3 5-2 5-2 11l1 22-22 1z"/>
  <path fill="url(#s)" d="m2068 480 2 1c43 48 39 125 3 173-15-8-3-20 3-31 20-38 16-92-10-126q-6-9 2-17"/>
  <path fill="#616161" d="M789 1728c2-6 14-5 18-1l5 21-8 9-1 3q-3 4-2 8c1 36-2 74 0 110q0 4-4 7c-5 2-2 2-7 0-4-6-2-36-2-46z"/>
  <path fill="#4f504f" d="M789 1728c2-6 14-5 18-1l-2 3h-15z"/>
  <path fill="#8c8c8c" d="M801 1768c-2-3-2-13-1-17l2 1 2 5-1 3q-3 4-2 8"/>
  <path fill="#616161" d="M1484 2047c35 19 24 126-29 99-10-5-16-26-15-37q4-3 10-1c4 9 13 38 26 28 21-16 24-68-6-78h4c4-6 7-7 10-11"/>
  <path fill="url(#t)" d="M804 2066c-34-25-12-94 33-77 13 5 28 33 20 44-4 3-2 2-6 2-6-4-9-33-25-33-25 1-34 30-16 46l-5 10q0 3 4 5z"/>
  <path fill="url(#u)" d="m1452 1789-5 24c-2 13 3 66-3 72-4 1-4 0-8-2q-3-2-2-6c2-14-3-102 2-109h7q4 5 3 13c5-3 5-18 20-15q10 8 4 19l-1 3q-4 0-11-3z"/>
  <path fill="#616161" d="m1452 1789 1-6 2-1h-2l1-3 3 3 2-2c2-7-2 0-2-8 15-5 11 8 13 13l-1 3q-4 0-11-3z"/>
  <path fill="#585958" d="M1075 781c28 14 23 76-7 88-26 9-46-29-39-43 4-2 4-2 8-1 8 7 11 52 37 22 10-12 8-41-1-53q2 0 2-3c-2-4-1-2-5-4q3-2 5-6M1569 1782c4-10 7-18 20-15 8 2 8 14 3 19-3 3-8 0-14 2-9 10-7 18-9 30 1 9 2 63-2 67-4 0-4 1-8-1l-1-4v-42q-1-35 1-68c2-3 1-2 5-3 5 4 3 7 2 13z"/>
  <path fill="#353535" d="m1558 1880 5 1c5-9 2-56 5-72l1 9c1 9 2 63-2 67-4 0-4 1-8-1z"/>
  <path fill="#616161" d="M1569 1782q1 7-3 11-2-6 0-13z"/>
  <path fill="#585958" d="M992 1782q10-23 33-13 13 11 12 28c1 13 3 78-1 87-4 2-2 2-6 1-5-5-4-7-3-14-1-20 10-111-29-83l-5 12z"/>
  <path fill="#4f504f" d="M1037 1797c1 13 3 78-1 87-4 2-2 2-6 1-5-5-4-7-3-14 3-15-2-51 2-61 3 1 2 2 5 5h1zM992 1782q10-23 33-13c-13 5-25-1-27 19l-5 12z"/>
  <path fill="#585958" d="M1395 1882c-54 38-36-114-36-114 4 0 4-1 8 1 5 8-3 72 6 95 10 12 20 6 27-5l2 1v10c-2 6-3 7-7 12"/>
  <path fill="#353535" d="m1400 1859 2 1v10c-2 6-3 7-7 12l-4-3c-9 0-23-3-18-15 10 12 20 6 27-5"/>
  <path fill="#616161" d="M1056 1797c0-7-2-24 4-29 4 0 4-1 8 1v5c0 25-10 92 19 98h-7l-2 2c5 5 15 2 21 1q-6 13-20 12c-25-4-23-37-23-55z"/>
  <path fill="#4f504f" d="M1056 1797c0-7-2-24 4-29 4 0 4-1 8 1v5l-2 2-6-1c-4 9 1 14-3 21z"/>
  <path fill="url(#v)" d="m1087 1872 1-1c30-21 6-84 18-102 4-2 2-2 6-1 3 8 4 112 0 116-5 0-4 1-7-2l-2-10-2-1-2 4c-6 1-16 4-21-1l2-2z"/>
  <path fill="#616161" d="M393 1278h21c0 19 1 53-1 71h-22c2-16-1-60 2-71M348 1873l2-1q9-2 19-1l1 70-21 1z"/>
  <path fill="#353535" d="m348 1873 2-1q9-2 19-1v9l-2 1q-9-11-17 0z"/>
  <path fill="#616161" d="m261 1802 43 1v34l-43-1z"/>
  <path fill="#585958" d="M987 1887q-6-1-7-4v-104q-1-9 7-12l4 4q-1 6 1 11l1 18-1 18c0 11 1 59-2 67z"/>
  <path fill="#4f504f" d="M987 1887c-1-3 3-77 4-79l1 10c0 11 1 59-2 67z"/>
  <path fill="#616161" d="m1404 1787-1-7q-1-9 6-14l4 1 3 7q-1 38-1 75v34q-4 2-9 2l-1-2q0-7-3-13v-10l-2-1q5-36 4-72"/>
  <path fill="#4f504f" d="m1404 1787-1-7q-1-9 6-14l4 1 3 7c-6 0-5-1-9 2-2 5-2 6-2 11z"/>
  <path fill="url(#w)" d="M977 778h5c4-3 2-5 6-6l-16 75-4 17-2 2q-9 5-12-6c-1-10-7-36-10-49 4-7 0-12 3-18 4 6-1 10 1 19l1-8c2 5 4 21 7 24h2v-2l4 20c5-18 11-49 15-68"/>
  <path fill="#4f504f" d="M954 860c6 1 12-1 14 4l-2 2q-9 5-12-6M1076 747v-2c-1-15-13-38-27-19-5 6-7 19-12 23-5 0-3 1-7-2-4-12 10-38 22-40 30-6 37 27 36 49l-3-4q0 4-4 6-4-5-5-11"/>
  <path fill="#585958" d="M1450 1990h41l3 3 1 6q-2 5-1 9h-28c-8 3-7 3-8 13 0 4-1 14-3 17h-1c-2-3-5-21-6-25l2-19z"/>
  <path fill="#4f504f" d="M1450 1994q0 6 2 10c5 10 5 5 6 17 0 4-1 14-3 17h-1c-2-3-5-21-6-25zM1495 1999q-2 5-1 9h-28l-4-3c6-9 25 0 33-6"/>
  <path fill="#353535" d="M1450 1990c7 4 4 7 2 14q-2-4-2-10z"/>
  <path fill="url(#x)" d="M1448 2013c1 4 4 22 6 25h1q-1 7 2 12h3q11-10 24-3c-3 4-6 5-10 11h-4c-14 6-10 8-18 16-17 2-10-16-8-27 0-9 3-26 4-34"/>
  <path fill="#4f504f" d="M1460 2050q11-10 24-3c-3 4-6 5-10 11h-4c-14 6-10 8-18 16q-2-3-7-5c8-2 11-11 15-19"/>
  <path fill="#353535" d="M1444 2047q4 10 1 22 5 2 7 5c-17 2-10-16-8-27"/>
  <path fill="#585958" d="M261 1732h21v35l-21-1-1-3-5-4q0-12 2-25-3-2-9-2z"/>
  <path fill="#dfdfdc" d="M261 1732v34l-1-3-5-4q0-12 2-25-3-2-9-2z"/>
  <path fill="#4f504f" d="M1285 2043q1-15 7-30 10-32 41-21l-1 3c-6 4-8 6-15 7-19 14-19 26-22 49q-3-6-4-11 1 3-1 6l-2 1z"/>
  <path fill="#616161" d="m304 1837 23 1-1 32-2 2c-7 1-16 3-20-5z"/>
  <path fill="#4f504f" d="M304 1867c8 1 14-2 21 0l1 3-2 2c-7 1-16 3-20-5"/>
  <path fill="#616161" d="M632 1557h22c0 8 1 27-1 34q-9 2-20 1z"/>
  <path fill="#585958" d="M633 1592v-13c5 4 1 8 5 8 5 1 10-2 15 1v3q-9 2-20 1"/>
  <path fill="#616161" d="M524 1278h21v35l-21 1zM195 1628q10-2 20 0c2 3 1 1 1 5l1 29q-11 1-20-1c-3-5-2-25-2-33"/>
  <path fill="#585958" d="M195 1628q10-2 20 0c2 3 1 1 1 5l-2-2h-8c-8 4-9 20-8 28l-1 2c-3-5-2-25-2-33"/>
  <path fill="url(#y)" d="M545 2114c4 3 18 2 22 1l1-1v2l-1 2c0 8 2 30-4 33l-17-1-1-35z"/>
  <path fill="#353535" d="m563 2151-5-4 4-3c2-7 1-24 1-26h4c0 8 2 30-4 33"/>
  <path fill="#616161" d="M437 1277q10 2 20 1v36h-21zM348 1313h21c0 7 1 31-1 35q-10 2-18-1c-3-4-2-3-2-10z"/>
  <path fill="#4f504f" d="M348 1313h21c0 7 1 31-1 35l-3-2c-4-8 5-19-2-26l-10 2c-5 5 0 9-5 15z"/>
  <path fill="#616161" d="M239 1848c0-14 10-14 21-10v4l1 30h-22z"/>
  <path fill="#616161" d="M239 1848c0-14 10-14 21-10v4c-10 3-12-5-21 6"/>
  <path fill="url(#z)" d="M1494 1816c8 0 26-1 33 1q6 7 11 11l3-1 2-6q1 6-2 9c-11 2-38 1-51 1q-1-8 4-15"/>
  <path fill="#585958" d="m1381 1993 21 10v2c-33-5-20 27-33 32l-5-3c-4-12 7-37 17-41"/>
  <path fill="url(#A)" d="M1076 747q1 6 5 11 4-2 4-6l3 4c-4 16-9 15-13 25q-2 4-5 6c4 2 3 0 5 4q0 3-2 3c-8-6-10-3-19-6-3-3-2-3-1-8v-2q6-4 14-6c9-9 9-13 9-25"/>
  <path fill="#4f504f" d="m1053 780 17 7c4 2 3 0 5 4q0 3-2 3c-8-6-10-3-19-6-3-3-2-3-1-8"/>
  <path fill="#353535" d="M1124 710q19-11 33 5c-8 4-6-3-11 1v7l-7-3c-9 2-11 4-15 11l-1-6q-3-3-8-4 3-6 9-11"/>
  <path fill="#4f504f" d="m1124 710 10 9 5 1c-9 2-11 4-15 11l-1-6q-3-3-8-4 3-6 9-11"/>
  <path fill="#616161" d="M1333 1992c11 10 11 15 15 28q-2 9-11 6c-9-14-2-19-20-24 7-1 9-3 15-7z"/>
  <path fill="#4f504f" d="M983 2030c6 0 7-1 12 2q3 11 1 23-7 1-12-2-3-10-1-23"/>
  <path fill="#585958" d="M1115 721q5 1 8 4l1 6-6 20-11-4c2-10 2-17 8-26"/>
  <path fill="#616161" d="M982 2127c7-1 9-2 14 3q2 9-1 19h-12z"/>
  <path fill="#353535" d="M1608 1768q7-1 11 3 3 9 2 20c-7 0-6 1-11-2q-2-3-2-7z"/>
  <path fill="#4f504f" d="M1608 1862c17 0 15 8 12 22h-10c-4-7-2-14-2-22"/>
  <path fill="#353535" d="m1491 1990 6 1q5 8 2 16l-5 1q-1-4 1-9l-1-6z"/>
</svg>
