<svg xmlns="http://www.w3.org/2000/svg" width="1476" height="3549" preserveAspectRatio="none" style="display:block" viewBox="0 0 3549 3549">
  <defs>
    <linearGradient id="b" x1="1861.4" x2="1960.6" y1="3185.5" y2="3188.3" gradientUnits="userSpaceOnUse">
      <stop class="stop0" offset="0" stop-color="#556d42"/>
      <stop class="stop1" offset="1" stop-color="#6b8255"/>
    </linearGradient>
    <linearGradient id="a" x1="141.7" x2="399.6" y1="2477.2" y2="2482.1" gradientUnits="userSpaceOnUse">
      <stop class="stop0" offset="0" stop-color="#526740"/>
      <stop class="stop1" offset="1" stop-color="#6e8757"/>
    </linearGradient>
  </defs>
  <path fill="#b4d199" d="M647 0h101c8 5 38 4 50 6 49 6 147 14 176 57 0 12 2 79-2 84l-12 2-2 4c4 6 13 5 14 7 4 5 2 53 1 58l-12 3c-4 4-3 2-3 8 8 6 11 0 16 6v943c0 22 39 8 40 29 3 37 4 86 0 122-1 10-48 19-57 20l-13 1c0 13 3 63-3 70-17 10-54-11-46 28q4 3 10 3c36-1 75-4 110 7v33c55 2 121 1 177 1h1226c2-28 0-61 0-89 5-6 13-17 19-20 58-41 140-38 207-38h250c69 0 176-4 222 57v90c125-1 302-15 406 69 27 22 20 59 20 91v1341q-1 231 0 460c-30 48-81 65-133 79-33 8-102 17-136 13-80 3-170 1-250 1H323c-19 0-67 1-83-3-64-2-162-21-211-65-18-17-22-25-22-49V1657c0-34-7-73 21-96 91-76 238-69 347-70q3-17 10-32c21-19 96 0 106-13 1-9 1-11-1-20-2-2-37-3-43-3l1-73c-28-1-39-6-65-14-6-33 3-67-2-100q-2-19 2-37l30-10V311c0-13-1-64 1-75 9-8 16 2 21-10l-1-3q-10-3-21-4l1-58q10-2 19-6v-3c-7-6-8-4-16-7l-3-1 13-1c2-24 1-53 1-78 17-18 30-25 54-32C538 15 600 9 659 7c-15-4-31 0-48-3q19 1 36-4m-36 4c17 3 33-1 48 3-59 2-121 8-177 26-24 7-37 14-54 32 0 25 1 54-1 78l-13 1 3 1c8 3 9 1 16 7v3q-10 4-19 6l-1 58q11 0 21 4l1 3c-5 12-12 2-21 10-2 11-1 62-1 75v878l-30 10q-4 18-2 37c5 33-4 67 2 100 26 8 37 13 65 14l-1 73c6 0 41 1 43 3 2 9 2 11 1 20-10 13-85-6-106 13q-7 15-10 32c-109 1-256-6-347 70-28 23-21 62-21 96v1772c0 24 4 32 22 49 49 44 147 63 211 65 8-2 12 0 20-4-59-5-119-10-173-37-34-16-66-35-67-77V1665c0-47-9-84 37-114 73-47 166-53 250-53l147 1h2722c66 0 133-3 198 9 45 8 157 38 154 100q0 27 1 54v216l-1 1141v428c-5 21-34 43-52 52-83 41-149 40-236 40l-1 2c10 5 22 0 34 4 34 4 103-5 136-13 52-14 103-31 133-79q-1-229 0-460V1652c0-32 7-69-20-91-104-84-281-70-406-69v-90c-46-61-153-57-222-57h-250c-67 0-149-3-207 38-6 3-14 14-19 20 0 28 2 61 0 89H1192c-56 0-122 1-177-1v-33c-35-11-74-8-110-7q-6 0-10-3c-8-39 29-18 46-28 6-7 3-57 3-70l13-1c9-1 56-10 57-20 4-36 3-85 0-122-1-21-40-7-40-29V235c-5-6-8 0-16-6 0-6-1-4 3-8l12-3c1-5 3-53-1-58-1-2-10-1-14-7l2-4 12-2c4-5 2-72 2-84-29-43-127-51-176-57-12-2-42-1-50-6H647q-17 5-36 4"/>
  <path fill="#121312" d="M647 0h101c8 5 38 4 50 6 49 6 147 14 176 57 0 12 2 79-2 84l-12 2-2 4c4 6 13 5 14 7 4 5 2 53 1 58l-12 3c-4 4-3 2-3 8 8 6 11 0 16 6v943c0 22 39 8 40 29 3 37 4 86 0 122-1 10-48 19-57 20l-13 1c0 13 3 63-3 70-17 10-54-11-46 28q4 3 10 3c36-1 75-4 110 7v33c55 2 121 1 177 1h1226c2-28 0-61 0-89 5-6 13-17 19-20 58-41 140-38 207-38h250c69 0 176-4 222 57v90c125-1 302-15 406 69 27 22 20 59 20 91v1341q-1 231 0 460c-30 48-81 65-133 79-33 8-102 17-136 13-12-4-24 1-34-4l1-2c87 0 153 1 236-40 18-9 47-31 52-52v-428l1-1141v-216q-1-27-1-54c3-62-109-92-154-100-65-12-132-9-198-9H454l-147-1c-84 0-177 6-250 53-46 30-37 67-37 114v1760c1 42 33 61 67 77 54 27 114 32 173 37-8 4-12 2-20 4-64-2-162-21-211-65-18-17-22-25-22-49V1657c0-34-7-73 21-96 91-76 238-69 347-70q3-17 10-32c21-19 96 0 106-13 1-9 1-11-1-20-2-2-37-3-43-3l1-73c-28-1-39-6-65-14-6-33 3-67-2-100q-2-19 2-37l30-10V311c0-13-1-64 1-75 9-8 16 2 21-10l-1-3q-10-3-21-4l1-58q10-2 19-6v-3c-7-6-8-4-16-7l-3-1 13-1c2-24 1-53 1-78 17-18 30-25 54-32C538 15 600 9 659 7c-15-4-31 0-48-3q19 1 36-4m2268 1492c1-15 0-45 2-57q-9-8-19-13-25-8-51-7-93-1-184 1h-4c-19 4-27 5-42 18l-1 57c85 3 178 1 264 1zM420 752l1 239 1 72h2c2-10 2-24 4-31 2-32 0-85 0-119V701c3-113-2-228 0-342 1-38 2-82 0-120l-2-4h-2c-5 9-3 24-3 34l1 119q-2 182-2 364m582 704c0 7-1 26 2 30l1-1q2-14-1-26zM422 177q-1 11 1 21l2 1q4-8 1-17c-1-3-1-2-4-5m2003 1234c0 12-2 70 1 79l3 1 1-3v-1c-3-17 8-65-5-76m181 25c-3 9-3 46 1 54h2c-2-14 3-49-3-54m-1604-235c0 19-1 93 1 107h2l1-3c0-26 3-79-1-101zm1927 291c-1-16 1-48-2-61h-6c1-2 2 62 2 62z"/>
  <path fill="#3a3a3a" d="M659 7c73 2 246-1 297 52l6 8c4 14 1 58 1 76-19-3-58-2-79-2a11688 11688 0 0 1-338 0c-26 0-96-2-119 2 2-24 1-53 1-78 17-18 30-25 54-32C538 15 600 9 659 7M428 239c11-3 89 0 107 0l427-1c3 25 1 73 1 99v846H497c-18 0-52 1-69-1 1-40 2-112 0-150 2-32 0-85 0-119V701c3-113-2-228 0-342 1-38 2-82 0-120M2453 1403c40-50 127-44 185-44h281c50 1 109-2 151 30 23 17 14 75 15 103h-156c-1-16 1-48-2-61-6-5-16-14-24-16-67-11-139-3-207-5-35-1-64-3-92 18-3 24-3 40-1 65l-150-1z"/>
  <path fill="#d7ca78" d="m572 1203 81-11c63-5 112 2 173 11l17 1v17l1 111h-18c-50 7-91 13-141 12-42-1-73-7-113-12q-2-64 0-129"/>
  <path fill="#171817" d="m826 1203 17 1v17l1 111h-18z"/>
  <path fill="#e5d886" d="m821 1216 1 2c3 15 3 92 1 106-9-10-3-91-2-108"/>
  <path fill="#d7ca78" d="M461 1352c40-2 88 0 129-1 113-1 227 2 340 0l-1 58c0 7 0 5-4 8l-68-1-45-3-351 5z"/>
  <path fill="#3a3a3a" d="M429 165c50-2 108 0 158 0q188 0 376-1v49c-48 2-100 1-148 1-128 2-259-2-387 1z"/>
  <path fill="#d7ca78" d="M464 1191c28-2 65 4 91 13l1 128q-32 7-65 11c-41 2-55-2-95-11v-128q33-9 68-13M843 1204c53-16 103-19 155-1v35c3 22 1 70 1 94l-20 3q-43 14-88 6c-10-2-29-6-38-6l-2-1-7-2-1-111z"/>
  <path fill="#e5d886" d="m843 1221 5-5c3 18 3 47 4 66 0 17-9 34 3 50l-4 2-7-2zM979 1335q-1-1 1-3c27-8 6-86 15-111l1 1c0 7 0 8 2 15v1c3 22 1 70 1 94z"/>
  <path fill="#d7ca78" d="M630 1458c43-3 91 0 134 0q38 2 75 5v25l-54 3c-16 2-48 1-64 1q-74 2-149-5v-24zM509 1424c72-1 148 4 220 2 22 0 139-4 149 3q5 8 2 17c-7 4-193 3-218 3h-92l-59-1-3-3c-1-9 0-12 1-21"/>
  <path fill="#3a3a3a" d="M452 221h7l322-1h100c11 0 55-2 61 5 1 5 1 2-2 7H514c-11 0-56 2-63-3-2-5-2-2 1-8"/>
  <path fill="#d7ca78" d="M416 1459c26-5 113-1 141 2v27c-28 3-134 9-158 1-5-7-4-21-5-29z"/>
  <path fill="#e5d886" d="m394 1460 22-1c3 0 12 0 14 2-25 5-25-7-27 27l-4 1c-5-7-4-21-5-29"/>
  <path fill="#5f5e5e" d="M452 148h297c61 0 127-2 187 0 5 4 3 2 4 9-125 3-353-2-484 0l-3-1z"/>
  <path fill="#d7ca78" d="M890 1458c34-2 76-1 109 2l1 29c-14 3-19 3-33 3-43 1-71 0-114-4l1-24z"/>
  <path fill-opacity=".9" d="M420 752a20957 20957 0 0 1 1-483c0-10-2-25 3-34h2l2 4c2 38 1 82 0 120-2 114 3 229 0 342-5-6-1-33-4-46-1 14-2 94-4 97"/>
  <path fill-opacity=".9" d="M420 752c2-3 3-83 4-97 3 13-1 40 4 46v212c0 34 2 87 0 119-2 7-2 21-4 31h-2l-1-72zM2425 1411c13 11 2 59 5 76v1l-1 3-3-1c-3-9-1-67-1-79"/>
  <path d="m1002 1201 3 3c4 22 1 75 1 101l-1 3h-2c-2-14-1-88-1-107"/>
  <path fill-opacity=".9" d="m2929 1492-6 1s-1-64-2-62h6c3 13 1 45 2 61"/>
  <path fill="#948954" d="M814 1340c15-4 17-5 33 0 9 1 13 2 21 5-9 0-65 1-70-2l-1 1q7-4 17-4"/>
  <path fill="#e5d886" d="M814 1340c15-4 17-5 33 0-7 4-24 3-33 2z"/>
  <path fill="#948954" d="M551 1341c14-5 15-5 29-1l19 2c-5 4-49 3-58 1l1-1z"/>
  <path fill="#e5d886" d="M551 1341c14-5 15-5 29-1l-1 2c-8 2-21 2-28-1M536 1191h60c-27 8-33 8-60 0M805 1190l53 1c-32 11-24 3-49 3z"/>
  <path fill-opacity=".8" d="M2606 1436c6 5 1 40 3 54h-2c-4-8-4-45-1-54"/>
  <path fill-opacity=".9" d="M422 177c3 3 3 2 4 5q3 9-1 17l-2-1q-2-10-1-21"/>
  <path fill-opacity=".8" d="m1002 1456 2 3q4 12 1 26l-1 1c-3-4-2-23-2-30"/>
  <path fill="#948954" d="M809 1194q-10 1-21-4l1-1q7-1 16 1z"/>
  <path fill="#171817" d="M260 3539h2865c36 0 80-2 115 0l-1 2c10 5 22 0 34 4-80 3-170 1-250 1H323c-19 0-67 1-83-3 8-2 12 0 20-4"/>
  <path fill="#829e6a" d="M593 2186q22-14 50-15h2085c36 0 57-3 90 13 1 41 4 119 1 156v276q1 71-2 142l-45 7c-8 3-329 1-361 1H808c-42 0-142 3-179-4q-19 1-37-2c0-10-3-59-2-64 2-48-4-495 3-510"/>
  <path d="M651 2389v-35q0-68-1-134c0-12 16-12 24-12l3 3c24-2 61-1 86-1h1963c13-1 29-4 42 2 7 9 3 60 3 75l-1 120 1 225c0 13-1 100 1 108q-5 4-9 6c-32 2-73 1-105 1H855c-33 0-185 4-205-5-8-24 0-147-1-177-2-56 0-120 2-176"/>
  <path fill="#121312" d="M651 2389v-35q0-68-1-134c0-12 16-12 24-12l3 3c-8 2-7 4-12 13q2 34 0 68l1 266c0 27-4 151 5 171 25 10 266 5 309 5h1726c5 0 30 0 33-3 12-9 9-68 9-79l-1-123q2-149-1-299 0-9-4-15c-5-5-10-4-16-5 13-1 29-4 42 2 7 9 3 60 3 75l-1 120 1 225c0 13-1 100 1 108q-5 4-9 6c-32 2-73 1-105 1H855c-33 0-185 4-205-5-8-24 0-147-1-177-2-56 0-120 2-176"/>
  <path fill="#b4d199" d="M614 2189q21-10 44-9h1955c32 0 148-4 173 3q8 2 12 8c2 4 1 487 0 536q1 10-2 19-2 5-8 7t-13 1c5-3 20-5 20-13 5-153 0-307 2-460 0-9-1-60-4-65-6 12-3 126-3 149v280c0 14 2 86-1 95-3-12-2-97-2-115v-253c0-34 2-74 0-107-3-14-3-38-8-49h-2c-5 28-3 119-3 150l-1 258c0 18 2 104-1 116-2-8-1-95-1-108l-1-225 1-120c0-15 4-66-3-75-13-6-29-3-42-2H763c-25 0-62-1-86 1l-3-3c-8 0-24 0-24 12q1 66 1 134v35c-8-8-2-149-6-168l-1-5c-3 5-1 3-7 6-2 9-2 26-2 36l-2 3c-1-12-3-42 2-52q-8 1-15 6c-1 16 0 54-4 68-3-9-2-37-1-49 1-18-5-26-1-45"/>
  <path fill="#171817" d="M635 2209c9-1 18-7 25-8l60-1 111 1h1556c47 0 365-4 380 2q10 4 20 9v53c-3-14-3-38-8-49h-2c-5 28-3 119-3 150l-1 258c0 18 2 104-1 116-2-8-1-95-1-108l-1-225 1-120c0-15 4-66-3-75-13-6-29-3-42-2H763c-25 0-62-1-86 1l-3-3c-8 0-24 0-24 12q1 66 1 134v35c-8-8-2-149-6-168l-1-5c-3 5-1 3-7 6-2 9-2 26-2 36l-2 3c-1-12-3-42 2-52"/>
  <path d="m633 2261 2-3c0-10 0-27 2-36 6-3 4-1 7-6l1 5c4 19-2 160 6 168-2 56-4 120-2 176 1 30-7 153 1 177 20 9 172 5 205 5h1803c32 0 73 1 105-1q5-1 9-6c3-12 1-98 1-116l1-258c0-31-2-122 3-150h2c5 11 5 35 8 49 2 33 0 73 0 107v253c0 18-1 103 2 115l-9 6c-11 6-31 7-43 7H724c-37 0-55 3-91-9v-344q1-33-1-66z"/>
  <path fill="#77945f" d="M592 2760c0-10-3-59-2-64 2-48-4-495 3-510 5 6 15 7 21 3-4 19 2 27 1 45-7 26-2 53-1 79 1 98-3 196 0 295 2 44-1 90 0 135 6 9 11 3 16 12q-7 5-18 4c4 4 9 0 17 3q-19 1-37-2M2772 2765c15-7 25-6 40-16q1-11-2-23c-5-19-2-41-3-60-3-58 2-115-1-174 0-9 4-24 3-32q-3-31-2-63c1-12 11-16 11-29 0-7-2-23 1-28v276q1 71-2 142z"/>
  <path fill="#bddaa0" d="M620 2215q8-5 15-6a3457 3457 0 0 0-3 125l-3-2c-1-23 2-55-1-77l-2 1c-9 11-5 51-6 68-2-6-3-32-4-41 4-14 3-52 4-68"/>
  <path fill="#77945f" d="m2813 2193 2 4c-7 42 1 63 2 104 0 27-6 52-5 81q-3-2-3-6 1-78-3-154l3 2q1-15 4-31"/>
  <path fill="#b4d199" d="M150 2765v-62l-1-116v-360l1-269-1-87c0-18-3-51 9-63 50-52 206-51 256-7 8 7 10 10 16 17v1373c-9 12-16 19-29 26-9 6-23 11-33 13-57 17-183 18-219-41 2-141-1-283 1-424"/>
  <path fill="url(#a)" d="M150 2765v-62l-1-116v-360l1-269-1-87c0-18-3-51 9-63 50-52 206-51 256-7l1 7-7 4 2 7c-17-23-40-32-68-37-48-9-112-8-154 18-8 5-20 17-20 26q-2 43-2 85v1123c0 47-1 106 2 153 32 49 109 48 160 43 19 3 26-5 40 0-57 17-183 18-219-41 2-141-1-283 1-424"/>
  <path fill="#5e764a" d="M150 2765c8 23-3 136 3 167 6 37-7 237 2 257 9-7 7-54 7-67v-96l2-158c0-18-2-159 2-164v330c0 47-1 106 2 153 32 49 109 48 160 43 19 3 26-5 40 0-57 17-183 18-219-41 2-141-1-283 1-424"/>
  <path fill="#51673e" d="M414 1801c8 7 10 10 16 17v1373c-9 12-16 19-29 26l-1-2c6-8 10-5 12-12-11-6 1 3-12 1l12-18c3-41 0-96 0-137V2033c0-31 4-195-2-214l-2-7 7-4z"/>
  <path fill="#77945f" d="M400 3204c13 2 1-7 12-1-2 7-6 4-12 12l1 2c-9 6-23 11-33 13-14-5-21 3-40 0q33-4 61-20z"/>
  <path fill="#b4d199" d="M2978 1819c46-68 231-68 279 0v551l1 437q1 192-1 382c-7 11-9 16-20 24q-22 13-47 18c-52 17-150 12-197-22q-15-13-14-34v-112l-1-262v-601c1-123 3-258 0-381"/>
  <path fill="#51673e" d="M2978 1819c46-68 231-68 279 0v551c-2-4-1-78-1-91l-2-319-3-65c-1-26 20-87-23-89q-17-12-35-19c-56-16-158-21-197 33-3 67 0 156 0 225v1145c41 54 145 49 203 30l-10 7 1 4c-52 17-150 12-197-22q-15-13-14-34v-112l-1-262v-601c1-123 3-258 0-381"/>
  <path fill="#566e41" d="M3228 1806c43 2 22 63 23 89l3 65 2 319c0 13-1 87 1 91l1 437q1 192-1 382c-7 11-9 16-20 24-8-2-5-4-16-4 6-5 17-15 17-22q3-32 2-64V1923l-1-96q-2-11-11-21"/>
  <path fill="#77945f" d="m3199 3220 22-11c11 0 8 2 16 4q-22 13-47 18l-1-4z"/>
  <path fill="#b4d199" d="m679 2926 8-5c49-39 216-42 253 11 2 2 6 9 6 12 4 62-2 125 2 186l3 3c95-19 222-17 307 34q10 9 21 17c22 23 19 48 0 72l-20 14c-23 14-44 24-71 30-66 21-167 23-235 7l-4 2c-4 18 0 55-2 71-38 73-243 71-280 1 2-91-1-183 0-275v-163z"/>
  <path fill="#eae8dd" d="M951 3133c95-19 222-17 307 34q10 9 21 17c22 23 19 48 0 72l-20 14c-23 14-44 24-71 30-66 21-167 23-235 7q-9-2-18-3l-8-3c-29-5-61-22-85-39l-1-1q-13-12-18-28l-3-10 3-17c10-37 75-59 107-69h2z"/>
  <path fill="#121312" d="M951 3133c95-19 222-17 307 34q10 9 21 17c22 23 19 48 0 72l-20 14c-23 14-44 24-71 30l-2-3 7-7 24-10c31-14 46-28 57-60-16-43-39-51-78-67-83-34-318-37-354 62q-6-5-14-7l-5-2c10-37 75-59 107-69h2z"/>
  <path fill="#171817" d="m823 3206 5 2q8 2 14 7-2 18 10 32c28 37 97 53 140 59q84 11 167-7l34-9-7 7 2 3c-66 21-167 23-235 7q-9-2-18-3l-8-3c-29-5-61-22-85-39l-1-1q-13-12-18-28l-3-10z"/>
  <path fill="#5e764a" d="m679 2926 8-5c49-39 216-42 253 11 2 2 6 9 6 12 4 62-2 125 2 186l3 3-19 4h-2c-9-25 8-182-4-198-40-54-201-55-240 5q-2 110 0 220c0 10 1 67-1 73 2 29-4 134 6 152l11 10c47 36 205 44 226-26 2-6 3-66-1-72l8 3q9 1 18 3l-4 2c-4 18 0 55-2 71-38 73-243 71-280 1 2-91-1-183 0-275v-163z"/>
  <path fill="#51673e" d="m691 3389-3 1-10-9c-5-37 1-74-2-111-2-28-4-60-2-88 3-32-6-212 7-228l2 2v57l1 144c0 19-2 63 1 80 2 29-4 134 6 152"/>
  <path fill="#566e41" d="M932 3137v-3c12-43 0-93 3-138 1-28 4-40-5-66l1-1 9 3c2 2 6 9 6 12 4 62-2 125 2 186l3 3z"/>
  <path fill="#51673e" d="M935 3304q9 1 18 3l-4 2c-4 18 0 55-2 71-6 3-7 4-11 9l-2 1h-1q1-6 5-10c-1-15-1-70-3-76"/>
  <path fill="#bddaa0" d="m818 3243 1-7 4-3q5 16 18 28l-6 1q-9-7-17-19"/>
  <path fill="#b4d199" d="M2456 2940c47-63 198-59 259-20 26 16 19 68 19 95v268c0 21 5 96-8 112-20 24-75 36-105 36-50 9-131-3-165-44v-447"/>
  <path fill="#566e41" d="M2456 2940c47-63 198-59 259-20 26 16 19 68 19 95v268c0 21 5 96-8 112-20 24-75 36-105 36l-36-1c10-3 20 0 29-5 38-3 81-11 103-45v-436c-25-40-90-45-134-45-29 1-85 11-105 36-10 12-7 89-7 105l1 155v116c0 22-1 49 1 71 1 9 2 10 7 16l-2 1c-30-11-15-45-22-56v-403"/>
  <path fill="#5e764a" d="M2456 3343c7 11-8 45 22 56l2-1c-5-6-6-7-7-16 29 41 95 45 141 43-9 5-19 2-29 5l36 1c-50 9-131-3-165-44z"/>
  <path fill="#b4d199" d="M1954 2959c47-9 143-4 178 34q6 7 9 15c2 38 1 80 1 118l-1 255c-26 48-95 51-144 52-30-2-48-3-77-11-17-2-56-23-57-42l-1-120v-252c18-36 56-43 92-49"/>
  <path fill="url(#b)" d="M1862 3008c18-36 56-43 92-49l25 5c-39 5-77 9-99 45v371c15 24 20 23 45 34-5 5-4 2-5 8-17-2-56-23-57-42l-1-120z"/>
  <path fill="#566e41" d="M2124 3044c5-7-3-37 4-45l4-6q6 7 9 15c2 38 1 80 1 118l-1 255c-26 48-95 51-144 52l-3-3c6-4 16-1 29-5 40-4 76-10 100-45 2-110 0-225 1-336"/>
  <path fill="#5e764a" d="M1954 2959c47-9 143-4 178 34l-4 6c-7 8 1 38-4 45l-1-36c-32-45-94-46-144-44zM1925 3414c35 10 61 12 98 11-13 4-23 1-29 5l3 3c-30-2-48-3-77-11 1-6 0-3 5-8"/>
  <path fill="#b4d199" d="m1258 3167 3-2v-2c-2-24 2-53 2-78-1-20-2-53 0-72 6-44 88-56 123-57 46-2 106 2 144 33 12 9 14 23 14 38v354c-1 4-7 12-11 15-32 31-93 37-135 37-39-1-94-7-123-35q-8-7-11-16c-5-31-1-63-2-94q1-9 1-17l-4-1 20-14c19-24 22-49 0-72q-11-8-21-17"/>
  <path fill="#5e764a" d="m1258 3167 3-2v-2c-2-24 2-53 2-78-1-20-2-53 0-72 6-44 88-56 123-57 46-2 106 2 144 33 12 9 14 23 14 38v354c-1 4-7 12-11 15-32 31-93 37-135 37-39-1-94-7-123-35q-8-7-11-16c-5-31-1-63-2-94q1-9 1-17l-4-1 20-14c6 24-1 92 3 120 2 10 13 22 21 27 54 32 185 34 222-23-3-120 6-256-3-374-3-44-195-70-241 3-2 58 1 118-2 175q-11-8-21-17"/>
  <path fill="#b4d199" d="M1263 1649c21-76 244-74 279-10l2 5 1 217a81 81 0 0 1-55 39c-50 22-168 18-212-20-6-5-16-19-16-27 3-66-4-139 1-204"/>
  <path fill="#5e764a" d="M1263 1649c21-76 244-74 279-10l2 5 1 217a81 81 0 0 1-55 39q3-4 8-6l-1-3-5-2c13-7 16-9 26-20 11-17 8-63 8-85v-139l-5-7c-12-20-34-26-56-31-47-12-117-11-161 14-11 7-15 13-22 23q-1 37-1 73c-6-16 4-73-9-79l-7 9z"/>
  <path fill="#51673e" d="M1526 1645c8-1 7-1 13 2 3 10 0 172 2 196l-2 12q-7 8-14 17h-3l-4-3c11-17 8-63 8-85z"/>
  <path fill="#566e41" d="m1263 1649 2-2 7-9c13 6 3 63 9 79 2 43-1 96 0 141 4 5 9 14 14 18 50 38 141 35 197 13l5 2 1 3q-5 2-8 6c-50 22-168 18-212-20-6-5-16-19-16-27 3-66-4-139 1-204"/>
  <path fill="#b4d199" d="M1867 1636c13-22 48-35 72-39 62-10 133-11 187 25 12 11 17 17 16 34v203q-1 7-6 13l-3 5c-36 32-101 38-147 36q-38-3-72-13c-7-3-20-7-25-12-14-7-19-13-27-26v-149c0-17-3-64 5-77"/>
  <path fill="#5e764a" d="M1867 1636c13-22 48-35 72-39 62-10 133-11 187 25 12 11 17 17 16 34v203q-1 7-6 13l-3 5c-36 32-101 38-147 36q-38-3-72-13c7-5 7-5 14-6 42 17 156 17 187-22 10-14 7-22 8-38 4-59-4-127 1-185-21-59-154-57-201-37-21 8-31 15-43 34v141c0 12 1 58-1 67l5 9q3 6 8 12l4 4-3 2-6-2-2 1q4 3 4 7v1c-14-7-19-13-27-26v-149c0-17-3-64 5-77"/>
  <path fill="#566e41" d="M1867 1636c5 10 8 12 9 24v3c2 18-1 46 1 61 4 28-5 106 2 130l5 9q3 6 8 12l4 4-3 2-6-2-2 1q4 3 4 7v1c-14-7-19-13-27-26v-149c0-17-3-64 5-77"/>
  <path fill="#51673e" d="M2126 1622c12 11 17 17 16 34v203q-1 7-6 13c-8-10-1-92-5-114-2-15 3-41 2-59-1-20-12-60-7-77"/>
  <path fill="#566e41" d="M2131 1758c4 22-3 104 5 114l-3 5c-13-25-5-91-2-119"/>
  <path fill="#bddaa0" d="M2115 1872v-71c1-20-3-147 3-156l6 4c-5 58 3 126-1 185-1 16 2 24-8 38"/>
  <path fill="#77945f" d="M1896 1879c13 7 17 11 32 15-7 1-7 1-14 6-7-3-20-7-25-12v-1q0-4-4-7l2-1 6 2z"/>
  <path fill="#bddaa0" d="M1884 1863v-11q7 8 10 18c0 4 0 2-2 5q-5-6-8-12"/>
  <path fill="#5e764a" d="M670 1711c38-63 240-66 277 4v203c-40 72-238 68-279 2l-1-62c-2-14-1-140 3-147"/>
  <path fill="#b4d199" d="M705 1695c49-28 117-30 171-15 17 5 39 13 49 30 8 13 4 188 3 209-42 56-172 54-226 16l-13-12c-7 2-3 2-11-2 1-51-14-180 10-220l8-9z"/>
  <path fill="#51673e" d="m688 1701 8-9 9 3c-9 7-11 10-17 18-3 23-4 194 1 210-7 2-3 2-11-2 1-51-14-180 10-220M938 1716l5 1c2 5 2 180 2 199q-1 3-6 4c-4-12-4-189-1-204"/>
  <path fill="#b4d199" d="M2555 1666c14-2 70-4 82 0 34 4 96 18 97 60q1 47 1 95l-1 88c0 40-68 57-100 58-16 8-86 1-106-5-29-5-54-15-72-39v-32c1-60-2-119 1-178 1-15 32-31 45-35q26-9 53-12"/>
  <path fill="#566e41" d="M2637 1666c34 4 96 18 97 60q1 47 1 95l-1 88c0 40-68 57-100 58-7-2-19 2-25-2l3-3c42-5 76-9 105-43v-200c-8-15-13-15-21-26-9-15-56-19-61-25zM2456 1923v-32c1-60-2-119 1-178 1-15 32-31 45-35q26-9 53-12l3 3c-6 6-16-1-17 7-32 9-68 16-68 55q-3 93 1 186c0 3 8 14 10 17 3 14 36 16 45 24l-1 4c-29-5-54-15-72-39"/>
  <path fill="#77945f" d="M2555 1666c14-2 70-4 82 0l-2 2c5 6 52 10 61 25l-6-2c-61-25-89-22-149-15 1-8 11-1 17-7zM2484 1934l29 15q48 16 99 13l-3 3c6 4 18 0 25 2-16 8-86 1-106-5l1-4c-9-8-42-10-45-24"/>
  <path fill="#121312" d="M2276 3224c16-1 105-4 86 41-4 9-35 16-47 17-23 3-55 2-75-9-28-15-18-34 7-42 11-4 18-5 29-7"/>
  <path fill="#5f5e5e" d="M2276 3231c24-1 60-2 74 21 2 14-24 21-35 23-22 3-64 3-75-21 1-17 23-20 36-23"/>
  <path fill="#bddaa0" d="m434 1858 1 2c-1 52 5 108 3 160l-2 41 2 502 1 523q-1 49-4 96c0 3 1 1-1 3-2-10-1-44-1-55l1-88-1-289v-662q0-116 1-233M663 2934c6-6 8-11 16-8l-12 17v92c-6 7 0 293-2 326-1 7 1 18-2 26l-2-2c-5-11-3-80-3-97v-154c1-50-5-155 5-200"/>
  <path fill-opacity=".9" d="M414 144c-3-16-3-79 9-90C462 20 560 6 611 4c17 3 33-1 48 3-59 2-121 8-177 26-24 7-37 14-54 32 0 25 1 54-1 78z"/>
</svg>
