<svg xmlns="http://www.w3.org/2000/svg" width="3402" height="3900" preserveAspectRatio="none" style="display:block" viewBox="0 0 3900 3900">
  <defs>
    <linearGradient id="a" x1="3283.6" x2="3286.6" y1="2587.9" y2="2656.6" gradientUnits="userSpaceOnUse">
      <stop class="stop0" offset="0" stop-color="#1a1817"/>
      <stop class="stop1" offset="1" stop-color="#313029"/>
    </linearGradient>
  </defs>
  <path fill="#272623" d="M4 425V263C4 188-7 116 51 58 120-10 199 3 288 3h3422c79 0 159 44 180 126 11 40 6 100 6 143v192c-25 3-47 6-65 27a54 54 0 0 0 10 79c17 14 33 15 55 16v184c-107 3-98 113-10 118l8 1q-1 13 1 26l1 28v124c-39 2-79 17-79 65-1 35 47 56 75 58l3 24 1 11v139c-19 2-28 3-46 10-65 42-25 111 46 112v149q3 13-1 25l-8 2c-26 5-44 9-60 32-28 37 4 81 45 86 24 4 25 5 24 29v149q-17 1-34 7c-43 15-62 55-29 91 10 11 18 14 32 20 14 3 18 3 31 4v151q2 12-1 22l-6 2c-39 8-63 16-74 57 1 47 41 62 81 66v27c0 19 2 112-1 125-1 9-2 13-1 22-40 7-67 15-79 58l-1 4c11 45 37 60 82 63v129l-1 22c-2 10-2 14-2 23-44 8-67 14-79 62q3 17 13 33l21 18c29 13 50 0 48 36v108q-1 21-3 40-8 5-20 6c-42 6-69 42-50 83 12 26 42 33 71 33l1 28c3 14 1 91 1 111v104c0 51 3 88-29 132-27 38-70 63-116 72-26 5-69 3-97 4l-212 1h-733q-146 1-291-2l-42 1 1 175-861 1c2-59-1-118 1-176-87-4-174 4-261 1q-67-1-134 0H554q-143 1-286-2c-86-1-149 12-217-55q-31-32-43-74c-7-28-4-95-4-127v-194c6-18 36-10 53-24 39-31 35-73-9-97-14-8-25-9-42-12v-23c-4-9-2-107-2-124v-20c2-13 34-9 51-22 12-7 25-19 27-33q6-42-31-63-21-11-45-14l-1-22-1-1v-150c20-1 26-3 44-9l9-7c44-32 30-82-18-100-13-5-22-5-35-6v-175c19-4 34-5 51-16 26-17 39-50 19-77-19-24-42-27-70-32v-27l-1-5c3-19 1-94 1-116 0-9-2-20 2-26l6-1c33-4 67-19 71-56q1-23-14-40c-17-20-40-24-65-26v-175c36-2 75-14 79-56q1-23-14-40c-17-20-40-25-65-26v-28l-1-3c3-27 1-90 1-119v-26c20-1 36-3 53-15 45-30 29-84-18-101q-17-5-35-7v-177c31 0 40-3 64-21 18-25 17-35 10-64-27-28-35-33-74-35V875c46-5 79-13 79-67l-1-10c-31-56-61-31-76-48-4-8-2-15-2-23V583c27-1 39-3 63-22 31-26 13-78-19-91-40-15-46 13-44-45m3593 163c12-2 19-3 31-9 42-22 46-76 6-102-10-6-32-13-43-12-23 4-43 8-57 30q-14 21-8 46c8 30 41 49 71 47M241 2872c-44 99 131 123 130 24 0-20-17-35-32-46-37-14-73-13-98 22M3616 110c-27 20-45 35-51 70q-5 38 19 68c36 45 101 59 151 30l17-8c63-58 53-132-27-167-37-16-73-9-109 7m-26 2147q-32 3-51 27-13 19-10 41 5 25 25 39 22 13 47 12c20-4 38-10 51-27q13-18 10-41-5-25-27-40c-10-7-31-13-43-11zm69-1456a73 73 0 0 0-104-19c-48 35-19 105 38 106 15 0 22-4 35-5 36-21 45-43 31-82m-47 1871q29-7 45-33 11-20 3-42-10-23-33-34-22-9-45-7-30 7-46 31-12 20-6 42 7 24 31 37 24 11 51 6M322 240c20-40 20-62 0-101-28-32-47-45-92-49-86-8-166 86-96 161 44 48 131 52 176 1zm-36 2304q-30 7-46 32-11 21-4 43 9 23 32 36 26 12 54 5c20-8 34-16 43-36l7-22c-5-20-13-37-32-49-17-10-35-10-54-9m2943 654c20-6 39-14 51-34q12-20 6-43-7-27-33-40-24-12-50-9c-21 5-40 13-52 32q-12 22-6 47 9 26 34 39 23 11 50 8M292 1053c-19 4-34 10-46 27q-14 20-9 43c7 37 45 55 80 48 86-21 63-126-25-118m-3 2088q-32 6-48 33-5 12-8 25c6 21 12 39 33 51 16 9 33 9 52 8q31-7 46-34 5-13 8-25c-5-20-11-37-30-49-16-10-35-9-53-9m3525 315q-23-27-53-42-12-6-25-11c-216-65-331 211-108 280 82 26 192-23 213-108 8-26 3-87-18-106q-4-7-9-13m-548-664c-41-26-95-23-117 27-7 16-3 17-3 31 32 105 204 31 120-58M250 3626c36-12 49-16 74-48 42-72-8-137-82-148-25-4-42 3-65 7l-10 7c-24 14-44 30-51 59-19 88 59 132 134 123m3360-1844c20-6 38-14 49-34q9-20 4-41c-5-17-19-30-34-38q-21-9-43-6c-21 6-39 14-50 34q-12 20-4 42 8 25 32 36 22 10 46 7M358 1971a78 78 0 0 0-58-24c-34 0-68 25-65 62 1 24 13 31 28 46q11 7 24 9 31 7 59-11c31-20 33-52 12-82m3228 882c-20 5-39 12-50 31q-12 20-6 43 8 25 31 37c13 7 31 10 46 8 21-6 39-13 50-33q10-21 4-43-9-25-33-36-19-9-42-7m-14-1485-23 14c-32 28-24 71 10 93l2 2c49 22 115-8 103-64q-7-25-28-38-30-16-64-7m-3272-17c-40 7-57 18-67 59 12 45 32 61 80 60 16-1 34-9 45-23q15-17 13-42c-3-34-34-55-69-55zm3273 1802c-16 7-39 21-42 39-25 114 174 97 123-11-9-19-37-27-56-31zM292 1650c-20 5-36 11-48 29q-11 20-6 42 7 25 29 39c12 6 32 12 45 9 20-4 39-10 51-28q12-20 8-43-7-25-29-38a86 86 0 0 0-50-10m4 594c-21 4-40 10-53 30q-12 19-7 42 8 25 30 38c11 7 30 11 43 9 21-4 39-10 51-28q10-15 12-31c-5-22-13-39-34-50q-19-10-42-10m29-1659c21-7 38-15 48-36q10-21 2-43c-12-32-46-43-78-41-21 6-39 13-50 33q-12 21-4 43c12 39 47 45 82 44m3230 493c-30 28-38 67-2 94q27 18 58 14c45-8 74-58 41-95-8-8-13-12-23-18q-35-13-71 4zm32 882q-29 3-48 26-13 19-10 42 5 25 27 39a74 74 0 0 0 98-17q13-20 8-42-6-26-28-39-23-12-47-9M285 756c-19 8-34 15-44 36q-9 21 0 43c15 33 46 40 79 37 20-7 37-15 47-35q9-19 3-39c-14-39-49-43-85-42"/>
  <path fill="#373837" d="m1898 3233 9-1 4 1c7 12 4 110 1 124 17 0 47-1 63 1q0 5 4 5c15 4 62 7 73-5 16-1 42-2 57 0 6-10 2-104 4-125 3 30 1 91 1 125 16-1 48-2 63 0-12 1-26-1-36 3l5 5c2 10 2 68 2 81-13 0-37 0-50-2-46-6-51 59-9 63 32 2 69-1 102 0 77 3 29-105 45-146 4-11 97-1 110 0 14 10 27 17 28 35 8 84-2 169 3 253 1 15-5 62-1 71l1 175-861 1c2-59-1-118 1-176 1-7 0-41-1-51q0-60 2-120c-1-50-4-101 0-150q0-15 10-25c16-17 41-17 63-17l69 1c3 39-1 77-1 116 0 18 16 31 33 32q34 3 68 1c27-1 53 9 71-17v-30l-13-14h-72c-1-21-1-69 3-88l-37-1c15-2 53 2 62-3l2-5 3 9c16-2 47-1 63 1v-1c4-38-2-90 2-127z"/>
  <path fill="#bba267" d="m1898 3233 9-1 4 1c7 12 4 110 1 124 1 4 0 3-3 7-10 4-57 3-64-5 1-25 1-105-1-127z"/>
  <path fill="#2c2414" d="m1907 3232 4 1c7 12 4 110 1 124 1 4 0 3-3 7-10 4-57 3-64-5 9-2 50-1 62-1z"/>
  <path fill="#c0a057" d="m1855 3240 4-1c12-1 30-3 39 4 5 14 4 89-1 102q-2 4-6 3c-10 1-26 1-35-3-8-18-7-88-1-105M3483 426l-4-3c8-9 40-2 49-3 42-2 82 4 123 0l-2-1c13-1 51-6 59 5 15 20 11 17 39 17q10 1 20-3l5-11 4-1 120 1v37c-25 3-47 6-65 27a54 54 0 0 0 10 79c17 14 33 15 55 16v37c-24 0-96 2-117-1l-2-3-2 3c-6-6-6-10-15-18l-3 1c-9 5-37-5-41 7l-1 2q-2 8-10 12c-12 7-209 7-223 1l-4-2V441l-1-13zm114 162c12-2 19-3 31-9 42-22 46-76 6-102-10-6-32-13-43-12-23 4-43 8-57 30q-14 21-8 46c8 30 41 49 71 47"/>
  <path fill="#bba267" d="m3483 426-4-3c8-9 40-2 49-3 42-2 82 4 123 0l-2-1c13-1 51-6 59 5 15 20 11 17 39 17q10 1 20-3l5-11 4-1 120 1v37c-25 3-47 6-65 27a54 54 0 0 0 10 79c17 14 33 15 55 16v37c-24 0-96 2-117-1l-2-3v-21c1 9 0 13 8 19 3 0 95-1 99-3 5-6 3-4 4-12 1-12-22-8-31-12-43-20-64-72-26-109 22-22 24-26 57-27 0-6-5-18-10-19l-45 3c-10 2-41-3-45-2-1 6 0 4-3 9l-2-13h-2v19c-13 7-53 7-69 4l15 1c-10-2-15-1-24-6v-15h-2l-2 8c-3-3-12-12-15-12q-68-1-136 5c-19 2-40-1-60-1q-1 10-3 20l-1-20-3 12h-1l-2-6-1-13z"/>
  <path fill="#2c2414" d="m3483 426-4-3c8-9 40-2 49-3 42-2 82 4 123 0l-2-1c13-1 51-6 59 5 15 20 11 17 39 17q10 1 20-3l5-11 4-1c1 10 2 13-1 21-8 4-56 2-68 2v-23c-69 1-156 2-224 0M3762 597l15 1v21l-2 3c-6-6-6-10-15-18l-3 1c-9 5-37-5-41 7l-1 2q-2 8-10 12c-12 7-209 7-223 1l-4-2c11-3 68-2 82-2h147v-25z"/>
  <path fill="#bba267" d="M3478 486c6 10-3 113 5 128 42 7 87 1 130 2 15 1 72 5 82-1 3-7 2-14 7-18 16-3 41-2 57-2l3 2-55 1v25h-147c-14 0-71-1-82 2z"/>
  <path fill="#c0a057" d="M4 425h123v25c13 0 59 2 67-3l2-7-1-16c36 4 93 0 132 1 15 0 69 1 81-1h19l-1 126 1 72c-5 4-209 2-232 2l1-26h-69v28q-10-2-20-2c-30 0-73-2-101 1l-2-1v-41c27-1 39-3 63-22 31-26 13-78-19-91-40-15-46 13-44-45m321 160c21-7 38-15 48-36q10-21 2-43c-12-32-46-43-78-41-21 6-39 13-50 33q-12 21-4 43c12 39 47 45 82 44"/>
  <path fill="#bba267" d="M408 424h19l-1 126 1 72c-5 4-209 2-232 2l1-26h-69v28q-10-2-20-2l2-4c28-1 6-13 17-25 17-7 55-6 72 1 8 8-3 13 2 24l2-1v-5c6-1 33 5 43 5 13-1 24-6 36-5l2 2-12 2c18 2 29-1 45 0 30 1 66 3 95-2 10-10-3-49 6-69l4-1c0-16 2-104 0-115-4 2 0 18-5 24q-3-7-2-18l-3-3-31-3c-27-2-158-5-177 3h-2l1-2h-3l-3 8-1-16c36 4 93 0 132 1 15 0 69 1 81-1"/>
  <path fill="#c0a057" d="m7 726 3 1c74 7 153 3 228 3 10 0 34-10 45-11 46-7 97 12 120 53 11 21 14 47 6 70-16 46-57 64-102 66-32 2-43-8-70-12-23-3-57 2-81-1l-92 1q-30 3-60 4v-25c46-5 79-13 79-67l-1-10c-31-56-61-31-76-48-4-8-2-15-2-23zm313 146c20-7 37-15 47-35q9-19 3-39c-14-39-49-43-85-42-19 8-34 15-44 36q-9 21 0 43c15 33 46 40 79 37"/>
  <path fill="#bba267" d="m7 726 3 1c74 7 153 3 228 3 10 0 34-10 45-11 46-7 97 12 120 53 11 21 14 47 6 70-16 46-57 64-102 66-32 2-43-8-70-12-23-3-57 2-81-1l-92 1q-30 3-60 4v-25c46-5 79-13 79-67l5 4c3 15-3 26-9 40-15 12-24 23-45 30-9 3-10-4-16 1l-1 7q47-1 96 0c47 2 114-7 158 7 46 15 77 3 110-29 29-27 39-75 8-102-65-62-90-35-163-30l1 5c-46-4-79-5-126-1-26 2-52-7-80-2-6 4-4 2-6 8l4 2c23-1 37 6 53 24q12 11 10 26c-31-56-61-31-76-48-4-8-2-15-2-23z"/>
  <path fill="#c0a057" d="M249 1027c34-12 93-17 121 11 33 17 54 70 37 104-18 52-82 73-132 63-13-3-27-9-41-9-49 1-188-6-228 5H4v-28c31 0 40-3 64-21 18-25 17-35 10-64-27-28-35-33-74-35v-28c21 6 82 5 107 5 30 0 112 2 138-3m68 144c86-21 63-126-25-118-19 4-34 10-46 27q-14 20-9 43c7 37 45 55 80 48"/>
  <path fill="#bba267" d="M244 1185c56 39 127 14 159-43h4c-18 52-82 73-132 63-13-3-27-9-41-9-49 1-188-6-228 5H4v-28c31 0 40-3 64-21l-1 7c-14 17-31 21-52 26-3 3-2 1-1 7 11 9 30 2 38-10 73 20 122 3 192 3M4 1025c21 6 82 5 107 5l4 3c-16 9-91 2-98 7v4q3 4 8 3c17 0 35 15 47 26q6 7 6 15c-27-28-35-33-74-35zM249 1027c34-12 93-17 121 11-5 0-20-5-27-6l12 5c-18-1-54-16-76-14-12 1-15 6-30 4"/>
  <path fill="#bba267" d="M294 1046c14-6 53 9 65 20 39 36 10 112-42 110-44 4-87-8-86-62 1-30 16-44 36-63zm23 125c86-21 63-126-25-118-19 4-34 10-46 27q-14 20-9 43c7 37 45 55 80 48M3770 3294c-12-1-111-1-118 1-43 22-110 14-142-25-64-77 14-166 101-155 17 2 38 14 50 13 75-1 157 6 231-2h2l-1 22q-8 5-20 6c-42 6-69 42-50 83 12 26 42 33 71 33l1 28c-5 1-19-1-24-1q-50-5-101-3m-172-144-25 3c-16 7-39 21-42 39-25 114 174 97 123-11-9-19-37-27-56-31"/>
  <path fill="#c0a057" d="M3587 3123c28 0 44 10 69 11q55 2 112 1 38 1 75 1 20-1 40-4c-4 23-20 15-37 23-7 3-14 13-20 18q-6 4-8 9-12 23-6 47c11 29 20 36 49 43q10 2 18 6 5 2 5 6l-3 5q-14 3-28 1l-149-2q-28-1-56 1l-39 9c-21 3-64-5-80-17a85 85 0 0 1-29-55c-3-22-6-46 8-64 18-24 51-35 79-39m11 27-25 3c-16 7-39 21-42 39-25 114 174 97 123-11-9-19-37-27-56-31"/>
  <path fill="#bba267" d="M3598 3150c94-11 96 126 1 128-13 0-30-8-42-10-52-19-46-121 16-115-16 7-39 21-42 39-25 114 174 97 123-11-9-19-37-27-56-31M3895 915c-23 1-44-3-67-4-45 1-93-3-138 0-56 3-101 28-156-5a93 93 0 0 1-43-61c-15-71 61-125 126-111 19 3 42 12 61 12 61-2 137 6 196-3 9 0 13 0 22-2v29c-107 3-98 113-10 118l8 1q-1 13 1 26m-236-114a73 73 0 0 0-104-19c-48 35-19 105 38 106 15 0 22-4 35-5 36-21 45-43 31-82"/>
  <path fill="#c0a057" d="M3573 741c44-5 54 5 95 13 7 3 46-4 49-2 24 11 158-5 170 5l-2 2-12 2 1 2 10 3c-14 4-17-8-41 8-61 42-28 114 36 124 3 3 2 1 2 5l-42 4h-97l-64-3c-28 1-55 12-83 11-46-3-83-23-98-70-7-24-2-34 8-55 16-35 35-38 68-49m86 60a73 73 0 0 0-104-19c-48 35-19 105 38 106 15 0 22-4 35-5 36-21 45-43 31-82"/>
  <path fill="#bba267" d="M3659 801c9 3 11 8 17 16-1 28-15 65-48 66 36-21 45-43 31-82"/>
  <path fill="#c0a057" d="M3894 2108c-50-9-112-6-163-7l-68 1c-15 2-30 9-45 11-53 9-119-20-129-78q-5-38 16-68c44-57 104-44 161-30q46 2 93 1c18 0 45 1 62-2 18 3 55-3 75-5v27q-17 1-34 7c-43 15-62 55-29 91 10 11 18 14 32 20 14 3 18 3 31 4v28zm-288-30q31-4 48-28 13-20 8-42-6-26-28-39-23-12-47-9-29 3-48 26-13 19-10 42 5 25 27 39 23 15 50 11"/>
  <path fill="#bba267" d="M3894 2108c-50-9-112-6-163-7l-68 1c-15 2-30 9-45 11-53 9-119-20-129-78q-5-38 16-68c44-57 104-44 161-30q46 2 93 1c18 0 45 1 62-2 18 3 55-3 75-5v27q-17 1-34 7c-43 15-62 55-29 91-55-14-15-102 52-106l1-2c-11-12-80-2-99-3l-141-3c-10 0-29-16-46-14-13 1-36 1-47 12-22 16-55 41-61 69-5 20 12 47 24 65 14 21 49 38 75 31q8-3 16-1c24 9 33-4 55-6l40-2c13-1 45 4 56 1l-10-4c21-7 127 10 138 2-2-11-13-10-21-19 14 3 18 3 31 4v28z"/>
  <path fill="#c0a057" d="M3701 1804h-28c-51 10-89 26-139-3-21-12-39-37-45-62q-6-34 14-64c24-36 70-55 112-48 18 3 40 13 57 13l76 1c47-1 95 1 142-6l3-1 3 1q3 13-1 25l-8 2c-26 5-44 9-60 32-28 37 4 81 45 86 24 4 25 5 24 29l-63-5c-39-2-92 0-132 0m-91-22c20-6 38-14 49-34q9-20 4-41c-5-17-19-30-34-38q-21-9-43-6c-21 6-39 14-50 34q-12 20-4 42 8 25 32 36 22 10 46 7"/>
  <path fill="#bba267" d="M3701 1804h-28c-51 10-89 26-139-3-21-12-39-37-45-62q-6-34 14-64c24-36 70-55 112-48 18 3 40 13 57 13l76 1c47-1 95 1 142-6l3-1 3 1q3 13-1 25l-8 2c5-9 8-14-3-21-70 7-145 4-217 4-16 0-37-10-54-9-15-1-44 5-50 3l-1-1 27-5c-2-2-17 0-21 0q-9 2-16 11l5-4c-4 7-7 6-15 6-17 13-42 28-44 51l3-6c-5 19-7 53 2 70 38 68 99 50 162 40 17-3 42 0 60-2 15-1 38-5 51-5 21 0 36 6 58 6h10l1 2 1-1c-6 3-7 2-13 3-39-2-92 0-132 0M6 1324c39 14 176 1 223 4 21 2 73-24 105-8 92 25 107 129 22 175-45 23-82 6-128-1-48 0-183-5-222 4l-2 1v-26c20-1 36-3 53-15 45-30 29-84-18-101q-17-5-35-7v-26zm227 86c12 45 32 61 80 60 16-1 34-9 45-23q15-17 13-42c-3-34-34-55-69-55l-2 1c-40 7-57 18-67 59"/>
  <path fill="#c0a057" d="m304 1322 23 2c21 3 58 29 69 47 27 48 2 99-48 118-27 11-26 14-54 8l-11 5c-28-16-54-12-84-12l-12-2h-6l7-2-50 2q-34 1-69 0c-10 2-47 3-54-2 9-8 38-16 51-26 32-24 34-57 9-88a81 81 0 0 0-55-30h-3l-1-3c10-12 20-1 28-3 29-6 64 6 92 0 20-4 25-1 45 0q27 0 53-1c28-3 40-12 70-13m-71 88c12 45 32 61 80 60 16-1 34-9 45-23q15-17 13-42c-3-34-34-55-69-55l-2 1c-40 7-57 18-67 59"/>
  <path fill="#bba267" d="m283 1344 39 2c24-1 21 4 37 19 35 35 25 73-13 100-8 5-12 6-19 13-18 3-29 4-47 0a66 66 0 0 1-27-118q14-10 30-16m-50 66c12 45 32 61 80 60 16-1 34-9 45-23q15-17 13-42c-3-34-34-55-69-55l-2 1c-40 7-57 18-67 59M3500 1170c-40-80 34-150 113-139 21 4 41 13 62 14h155q34 0 66-5v27c-39 2-79 17-79 65-1 35 47 56 75 58l3 24c-47-8-102-3-150-5-50-2-76 1-124 12-53 0-88-2-121-51m129-97q-35-13-71 4l-3 1c-30 28-38 67-2 94q27 18 58 14c45-8 74-58 41-95-8-8-13-12-23-18"/>
  <path fill="#c0a057" d="M3576 1039c11-2 48-1 58 3 27 15 40 12 68 12 60-1 124-3 183-1v3c-13 8-30 3-47 17-41 32-35 90 12 113 13 7 20 2 30 16h-1c-19 6-104-3-129-2-31 1-56 3-88 3l2 3c-26 7-49 5-75 5-33 1-51-10-72-34l-2 4-3-1c-22-27-17-82 4-109 9-12 43-31 60-32m53 34q-35-13-71 4l-3 1c-30 28-38 67-2 94q27 18 58 14c45-8 74-58 41-95-8-8-13-12-23-18"/>
  <path fill="#bba267" d="M3629 1073c12 0 15 1 25 9q17 16 20 40c3 42-33 71-72 71-20 0-33-5-51-11l-27-27c0-23-3-76 31-77-30 28-38 67-2 94q27 18 58 14c45-8 74-58 41-95-8-8-13-12-23-18"/>
  <path fill="#c0a057" d="M3513 1485c-36-33-31-94 3-124 46-43 93-36 148-19 9 3 57 1 71 1 18 0 91-1 106 1l34-5 21-2v27c-19 2-28 3-46 10-65 42-25 111 46 112v26c-10-4-28 0-46-6l-74 1c-24-2-84-3-108 1-56 8-84 27-139-9-8-5-9-7-16-14m48-8c49 22 115-8 103-64q-7-25-28-38-30-16-64-7l-23 14c-32 28-24 71 10 93z"/>
  <path fill="#bba267" d="M3513 1485c-36-33-31-94 3-124 46-43 93-36 148-19 9 3 57 1 71 1 15 4 48 2 64 3-40 5-87 1-129 1-13 0-23-8-30-6l10 6c-39-3-47-25-92-6-60 25-83 80-46 138zM3529 1499c11-1 47 25 66 16 27-13 239-22 255-9l-74 1c-24-2-84-3-108 1-56 8-84 27-139-9M3875 1339l21-2v27c-19 2-28 3-46 10 7-12 22-11 34-23l-75-5c5-3 22 1 32-2z"/>
  <path fill="#bba267" d="M3572 1368c8-18 41-14 55-7 96 43 29 153-58 125l-8-9c49 22 115-8 103-64q-7-25-28-38-30-16-64-7M6 1919q37 7 73 6l152-1c16 0 31-8 47-12 45-8 92 7 118 46 31 46 14 99-32 127-27 17-60 22-91 14-8-2-27-9-35-9q-87-3-176-1l-40 3-16 3H4c0-9-2-20 2-26l6-1c33-4 67-19 71-56q1-23-14-40c-17-20-40-24-65-26v-28zm352 52a78 78 0 0 0-58-24c-34 0-68 25-65 62 1 24 13 31 28 46q11 7 24 9 31 7 59-11c31-20 33-52 12-82"/>
  <path fill="#bba267" d="M4 2095c0-9-2-20 2-26l6-1 4 1c-3 6-4 7-4 14 4 6 4 5 10 9l-16 3z"/>
  <path fill="#c0a057" d="M280 1918c19 10 58-7 93 24q32 30 33 74c-12 15-13 36-26 49-7 8-19 21-29 23-27 7-59 6-85 1q-20-4-40-6-81-4-163-1c-11 0-37 5-46-2 7-8 40-16 53-27q18-14 21-37 1-17-8-32c-21-47-48-25-70-52l1-2q21-2 41 0 41 3 83 3c30 0 101 0 128-7q9-2 14-8m78 53a78 78 0 0 0-58-24c-34 0-68 25-65 62 1 24 13 31 28 46q11 7 24 9 31 7 59-11c31-20 33-52 12-82"/>
  <path fill="#bba267" d="M358 1971c14 4 28 36 24 49q-8 18-20 35c-27 17-73 33-98 5l-1-5q11 7 24 9 31 7 59-11c31-20 33-52 12-82M4 2216c76 10 155 6 231 6 27-1 40-19 80-14 88 11 135 111 55 170-21 15-64 28-88 20-44-14-69-11-114-12-58-1-106 0-164 7v-25c19-4 34-5 51-16 26-17 39-50 19-77-19-24-42-27-70-32zm305 147c21-4 39-10 51-28q10-15 12-31c-5-22-13-39-34-50q-19-10-42-10c-21 4-40 10-53 30q-12 19-7 42 8 25 30 38c11 7 30 11 43 9"/>
  <path fill="#c0a057" d="M291 2212q5-1 9 1 5 3 10 3 17 0 33 4c26 8 41 32 54 55h2l3 2q8 26 0 52c-9 23-37 50-60 59q-11 4-21 4c-20 3-31 7-50-3q-11-7-25-9c-24-3-178-5-197 0l-2 1h-2l-1 3c-6 1-8 2-14-1H19q-3 1-5-2 1-4 3-6c10-9 33-11 46-21q22-15 26-40c2-16-3-36-14-49a86 86 0 0 0-49-26q-5 0-9-2l-3-6c8-7 42-1 54-1q54 2 107 0 29 0 60-1 28-5 56-12c-4-5-17 3-24 1zm18 151c21-4 39-10 51-28q10-15 12-31c-5-22-13-39-34-50q-19-10-42-10c-21 4-40 10-53 30q-12 19-7 42 8 25 30 38c11 7 30 11 43 9M4 1621c24 7 55 7 80 7q75 0 148-1c17 0 37-11 54-13 66-7 133 35 125 108-3 18-15 47-32 55q-32 30-77 28c-24 0-45-10-68-13-44 0-194-5-228 6l-2-1v-26c36-2 75-14 79-56q1-23-14-40c-17-20-40-25-65-26zm308 148c20-4 39-10 51-28q12-20 8-43-7-25-29-38a86 86 0 0 0-50-10c-20 5-36 11-48 29q-11 20-6 42 7 25 29 39c12 6 32 12 45 9"/>
  <path fill="#bba267" d="M4 1621c24 7 55 7 80 7q75 0 148-1c17 0 37-11 54-13 66-7 133 35 125 108l-1-3c-9-33-6-61-41-80-45-25-87-20-135-4-8 3-42-2-53 0-31 3-62-1-92-1q-38 2-76 1l-1 3c8 4 23 5 27 7l39 25c5 4 12 26 14 34 4 19-6 41-21 52-23 18-44 16-67 28a3131 3131 0 0 1 175-1c50 1 82 5 131 17-5-1 38-8 38-8 6 0 18-15 31-15q-32 30-77 28c-24 0-45-10-68-13-44 0-194-5-228 6l-2-1v-26c36-2 75-14 79-56q1-23-14-40c-17-20-40-25-65-26z"/>
  <path fill="#c0a057" d="M3896 3000c-76-4-151-9-227-4-23 1-44 12-66 13-30 1-63-10-85-30a93 93 0 0 1-31-64q1-38 27-65c27-28 73-40 111-31 12 3 24 10 36 12q36 3 70 1h47q58 0 117-4c-2 10-2 14-2 23-44 8-67 14-79 62q3 17 13 33l21 18c29 13 50 0 48 36m-289-28c21-6 39-13 50-33q10-21 4-43-9-25-33-36-19-9-42-7c-20 5-39 12-50 31q-12 20-6 43 8 25 31 37c13 7 31 10 46 8"/>
  <path fill="#bba267" d="M3896 3000c-76-4-151-9-227-4-23 1-44 12-66 13-30 1-63-10-85-30a93 93 0 0 1-31-64q1-38 27-65c27-28 73-40 111-31 12 3 24 10 36 12q36 3 70 1l2 3c-11 6-71 8-84 1-62-29-129-12-154 55-19 49 33 69 35 91 14 11 64 22 84 17 23-6 51-8 75-10l-22-1c22-3 36 0 57 0h84c18 1 69 11 82 2-1-15-33-8-42-26 29 13 50 0 48 36"/>
  <path fill="#bba267" d="M3778 2832q58 0 117-4c-2 10-2 14-2 23-44 8-67 14-79 62q3 17 13 33c-10-1-12-8-16-16-2-13-1-21-1-35 9-15 18-24 31-36 13-13 25-8 39-16-10-8-92-3-102-11"/>
  <path fill="#c0a057" d="M5 2816c72 7 153 2 226 3 25 0 55-19 83-13 21 3 46 10 61 25 50 29 44 108-1 141-22 20-49 24-78 24-19 0-50-11-61-11-40-1-200-5-229 5H4v-20c2-13 34-9 51-22 12-7 25-19 27-33q6-42-31-63-21-11-45-14zm334 34c-37-14-73-13-98 22-44 99 131 123 130 24 0-20-17-35-32-46"/>
  <path fill="#bba267" d="M5 2816c72 7 153 2 226 3 25 0 55-19 83-13 21 3 46 10 61 25-20-3-39-18-61-18-20 0-38-1-57 7-7 2-12 7-18 7-50-1-98 1-148-2q-30-1-60-1l-14-1c1 5 0 3 3 7l3 1c68 12 99 89 34 127-9 5-36 13-40 18 5 4 257 2 286 14 8 4 58-13 68-20l3 2c-22 20-49 24-78 24-19 0-50-11-61-11-40-1-200-5-229 5H4v-20c2-13 34-9 51-22 12-7 25-19 27-33q6-42-31-63-21-11-45-14z"/>
  <path fill="#bba267" d="M241 2872c-1-36 76-60 98-22-37-14-73-13-98 22"/>
  <path fill="#c0a057" d="M21 2518c67 9 143 1 212 4 13 0 27-9 41-12 64-15 146 31 136 105-9 59-75 92-131 83-13-2-27-9-40-12-49 0-194-6-234 7H4v-28c20-1 26-3 44-9l9-7c44-32 30-82-18-100-13-5-22-5-35-6v-26h14zm301 142c20-8 34-16 43-36l7-22c-5-20-13-37-32-49-17-10-35-10-54-9q-30 7-46 32-11 21-4 43 9 23 32 36 26 12 54 5"/>
  <path fill="#bba267" d="M21 2518c67 9 143 1 212 4 13 0 27-9 41-12 64-15 146 31 136 105-9 59-75 92-131 83-13-2-27-9-40-12-49 0-194-6-234 7H4v-28c20-1 26-3 44-9-9 16-20 7-35 19-2 6-2 3 1 9 10 6 70-8 85-8 25-4 65 6 88 3 40-4 64 11 100 13l-9-2h47c23-4 56-27 69-46 25-37 5-86-30-110-17-12-58-25-78-16-50 20-96 12-147 10l-82-1c-11-1-28-2-36-9"/>
  <path fill="#c0a057" d="m7 3113 4 1c72 7 146 3 218 3 21 0 40-10 60-13 41-5 87 15 108 49q20 30 12 65c-10 42-44 67-84 75a113 113 0 0 1-73-8c-23-9-219-4-246 3H4v-18c6-18 36-10 53-24 39-31 35-73-9-97-14-8-25-9-42-12v-23zm226 86c6 21 12 39 33 51 16 9 33 9 52 8q31-7 46-34 5-13 8-25c-5-20-11-37-30-49-16-10-35-9-53-9q-32 6-48 33-5 12-8 25"/>
  <path fill="#bba267" d="m7 3113 4 1c72 7 146 3 218 3 21 0 40-10 60-13 41-5 87 15 108 49q20 30 12 65c-10 42-44 67-84 75 9-11 17-7 25-14 49-37 78-76 33-131-7-8-7-14-20-20q-28-15-60-16c-33-2-51 18-73 18-27 0-55-6-81-6-11-1-69 0-78 3-25 7-43-13-56-1l-1 3c15 15 55-4 71 49 22 75-65 84-75 101 10 2 27 0 36-2l-8-1c21-6 88-2 112-3 30 0 86-5 109 11l2 4-9-3c-23-9-219-4-246 3H4v-18c6-18 36-10 53-24 39-31 35-73-9-97-14-8-25-9-42-12v-23z"/>
  <path fill="#c0a057" d="M3574 2522c51-7 50 8 87 11 38 3 92-1 132 0 19 0 45 1 64-1q18-2 38-2c-1 9-2 13-1 22-40 7-67 15-79 58l-1 4c11 45 37 60 82 63v25q-35-3-70-5h-160c-7 0-27 7-35 9-32 9-67 5-96-12a89 89 0 0 1-34-127q28-38 73-45m38 150q29-7 45-33 11-20 3-42-10-23-33-34-22-9-45-7-30 7-46 31-12 20-6 42 7 24 31 37 24 11 51 6"/>
  <path fill="#bba267" d="M3896 2702q-35-3-70-5h-160c-7 0-27 7-35 9-32 9-67 5-96-12a89 89 0 0 1-34-127q28-38 73-45l-1 2c-1 2-7 5-9 6l-20 9c-29 14-60 66-48 98 3 7 11 15 15 22 11 18 26 35 49 40 44 10 84-9 130-8l-1-2h-10c17-7 179 11 202-1v-2c-14-7-44-17-53-28-47-53-12-98 52-117-31 1-60 6-90-3-6-2-16 1-22-2 9-2 19 1 25-3 19 0 45 1 64-1q18-2 38-2c-1 9-2 13-1 22-40 7-67 15-79 58l-1 4c11 45 37 60 82 63z"/>
  <path fill="#c0a057" d="m3894 2230 2 1q2 12-1 22l-6 2c-39 8-63 16-74 57 1 47 41 62 81 66v27h-3c-44-8-108-6-154-6-21 0-54-1-74 1-27 2-37 14-70 12q-24 0-47-10c-4-9-21-18-30-25a82 82 0 0 1-27-58c0-28 20-55 41-70q11-6 20-13c10-11 78 2 96-2l3-1c14 5 45 3 62 3 65-1 115 2 181-6m-293 146c20-4 38-10 51-27q13-18 10-41-5-25-27-40c-10-7-31-13-43-11h-2q-32 3-51 27-13 19-10 41 5 25 25 39 22 13 47 12"/>
  <path fill="#bba267" d="m3595 2412 2-2c3-2 15-3 19-2 12 2 23-13 33-14 50-4 100-1 150-3 18-1 78 8 88-3l-1-3c-39-3-78-28-74-71l3-2c1 47 41 62 81 66v27h-3c-44-8-108-6-154-6-21 0-54-1-74 1-27 2-37 14-70 12M3894 2230l2 1q2 12-1 22l-6 2-6-1q6-5 5-13c-17-10-89 7-111 5l-107-7q22 0 43-3c65-1 115 2 181-6M2043 3233c2 7 4 54 4 65l2-25c1 21 2 63 0 84l3 1c-11 12-58 9-73 5q-3 0-4-5c5-15-2-99 2-125z"/>
  <path fill="#2c2414" d="M2043 3233c2 7 4 54 4 65l2-25c1 21 2 63 0 84l3 1c-11 12-58 9-73 5q-3 0-4-5c5-15-2-99 2-125 4 24 2 97 1 125h64c0-17-2-114 1-125"/>
  <path fill="#c0a057" d="M1996 3238c11 3 23 1 35 3 5 8 3 91 1 102v2q1 5 4 7-14 5-29 2l-1-1c-6 1-17 3-22 0 4-3 26-2 33-2-9-3-18 1-28-2-8-19-4-81-3-104q3-6 10-7"/>
  <path fill="#2c2414" d="m3893 2405-3 5h-3c-22 1-38-5-57-5q-80 2-159 1c-15 0-27 7-41 10q-20 3-40 2l19 1c-14 6-57-6-71-12-8-1-15-14-20-17-33-16-50-69-32-103l1-3c22-43 73-76 122-68 16 1 37 12 53 12h138c30-1 62 0 90-9l1-1c0 5 1 5 2 9l1 3c-66 8-116 5-181 6-17 0-48 2-62-3l-3 1c-18 4-86-9-96 2q-9 7-20 13c-21 15-41 42-41 70q2 34 27 58c9 7 26 16 30 25q23 10 47 10c33 2 43-10 70-12 20-2 53-1 74-1 46 0 110-2 154 6"/>
  <path fill="#bba267" d="M3548 2402q-36-16-53-50-14-32-2-65c25-66 99-76 158-54l-3 1c-18 4-86-9-96 2q-9 7-20 13c-21 15-41 42-41 70q2 34 27 58c9 7 26 16 30 25M1711 3232h64c0 37-1 82 1 118l-2 5c-9 5-47 1-62 3z"/>
  <path fill="#c0a057" d="M1743 3236h26l1 3-7 1-1 2c6 11 7 88 3 101-2 6-6 6-11 9l-15-3q-10 0-18-5c-5-12-2-84 1-101q9-6 21-7"/>
  <path fill="#bba267" d="M2113 3233c9 0 58 0 64-2v127c-15-2-47-1-63 0 0-34 2-95-1-125"/>
  <path fill="#c0a057" d="M2120 3236c12 0 27 4 38 2l7-1 5 75 1 34v2l-3 1c-16-4-31 2-48-4-5-9-4-96 0-109"/>
  <path fill="#2c2414" d="m7 726 2-5c16-5 40 2 60 2 54-1 112 1 166 1 16 0 31-18 59-13l-11 4c13 2 19-6 32-4 92 9 153 116 67 182-32 24-78 27-115 20q-12-2-22-7l2-1 7 2 2-1c-11-6-221-1-249 2l-3 12v-20q30-1 60-4l92-1c24 3 58-2 81 1 27 4 38 14 70 12 45-2 86-20 102-66 8-23 5-49-6-70-23-41-74-60-120-53-11 1-35 11-45 11-75 0-154 4-228-3zM4 1005q0 11 5 15c72 1 146 4 219 1 35-1 52-16 94-10 55 9 98 44 98 103-1 68-66 104-127 100-28-1-43-9-67-12-27-3-64 3-93 2q-59-3-117 2-6 1-10-5c40-11 179-4 228-5 14 0 28 6 41 9 50 10 114-11 132-63 17-34-4-87-37-104-28-28-87-23-121-11-26 5-108 3-138 3-25 0-86 1-107-5zM7 3113l2-5c13-3 36 1 50 1 60-3 121 1 181 1 14 1 25-10 38-14 4-1 26 1 32 1l-5-1c44 2 95 26 103 70 4 11 15 25 13 37l-1 20c-9 21-31 47-50 60-16 12-32 22-53 20v-3c6-4 17-3 25-3-14-4-33 5-44 4-15-2-40-7-54-11-23-6-231 5-236 2l-2-4a1337 1337 0 0 1 255 0c17 7 45 10 64 5 40-8 74-33 84-75q7-35-12-65c-21-34-67-54-108-49-20 3-39 13-60 13-72 0-146 4-218-3zM3896 943c-3-10-2-16-6-21l-9 1c-20 5-38-7-60-7h-141c-16 0-37 16-67 17-44 1-66-5-101-35-12-9-36-43-33-58 2-10 12-48 13-60s35-34 45-38l1-2 1 1-3-1v-1c62-26 85-9 147 0 11 2 33-3 44-2 32 2 118-5 147 6-59 9-135 1-196 3-19 0-42-9-61-12-65-14-141 40-126 111q9 40 43 61c55 33 100 8 156 5 45-3 93 1 138 0 23 1 44 5 67 4zM6 1324c24-12 204 7 237-3 78-24 147-13 175 76v-5c10 28 3 34-4 57-15 47-102 81-144 61-39-18-52-2-78-8 4-4 2-3 8-4-49-1-107 11-156 4-13-2-22 12-36 5l-2-9c39-9 174-4 222-4 46 7 83 24 128 1 85-46 70-150-22-175-32-16-84 10-105 8-47-3-184 10-223-4M3 2211c8-3 28-1 38 1 54 9 108-2 163 5 27 3 57-12 84-16 40-5 96 17 117 53 17 29 14 58 5 89-5 21-21 36-39 45-52 25-89 17-141 7-16-3-82 1-101 1l-2-1c9-3 22 1 29-2-16-5-41 2-51-1-24-5-88 12-101 3v-2c58-7 106-8 164-7 45 1 70-2 114 12 24 8 67-5 88-20 80-59 33-159-55-170-40-5-53 13-80 14-76 0-155 4-231-6zM4 2815q5-6 13-7c65 6 136 6 201 4 38-1 80-20 121-10 13 3 19 8 29 16 118 73 17 214-96 183-48-14-96-8-145-10-12 0-24-5-36-3-18 1-71 9-85 2 29-10 189-6 229-5 11 0 42 11 61 11 29 0 56-4 78-24 45-33 51-112 1-141-15-15-40-22-61-25-28-6-58 13-83 13-73-1-154 4-226-3zM3896 3028q-5-10-4-22l-15 1c-16-2-28-3-44-3 7-1 4 0 9-3-7-1-27 5-37 5q-61-4-123-2c-4 1-19-2-23-1-42 15-119 13-151-21-28-30-41-104-7-134 9-8 26-15 35-25 6-6 38-12 47-15 30 2 63 14 92 19q70 0 139-2l78-7 4-12-1 22q-58 4-117 4h-47q-34 2-70-1c-12-2-24-9-36-12-38-9-84 3-111 31a90 90 0 0 0-27 65c1 23 13 48 31 64 22 20 55 31 85 30 22-1 43-12 66-13 76-5 151 0 227 4zM3 1618c15-3 27 1 42 1l86 1 104-2c16 0 37-9 53-9 32-1 58 2 85 20q34 20 41 59c4 24 5 53-9 75-9 14-30 23-42 36-3 4-32 8-38 10-36 7-74-9-109-11-17 0-33 4-49 3l-105-3c-13-1-40 8-53 5l-3-5c34-11 184-6 228-6 23 3 44 13 68 13q44 2 77-28c17-8 29-37 32-55 8-73-59-115-125-108-17 2-37 13-54 13q-73 1-148 1c-25 0-56 0-80-7zM3896 2731c-6-35-3-16-37-22-63-11-134-6-198-3-36 2-81 27-117-1-15-11-21-7-37-22-23-20-14-34-24-54l-1 7-2-1c-1-28-3-35 13-61 2-4 0-10 5-17 32-42 85-48 133-41q18 9 37 10 80-2 160 1c9 0 22-1 29 5-19 2-45 1-64 1-40-1-94 3-132 0-37-3-36-18-87-11q-45 7-72 45a89 89 0 0 0 33 127c29 17 64 21 96 12 8-2 28-9 35-9h160q35 2 70 5zM6 1919c10-13 34-3 49-2 46 1 92 6 138-4 12 0 30 4 42 3 30-5 50-14 81-11 42 5 57 21 84 49h2l-2-4 3 1 1 3 6 13q27 102-73 138-40 14-79-4c-29-11-49-4-79-4-32 1-64-2-96-1-25 0-50 5-73 4l-4-5 16-3 40-3q89-2 176 1c8 0 27 7 35 9 31 8 64 3 91-14 46-28 63-81 32-127-26-39-73-54-118-46-16 4-31 12-47 12l-152 1q-36 1-73-6M18 2517c10-4 28-1 39-1q49 0 96-3c43-2 81 5 121-11 8-3 27 5 39-2 28 1 98 39 101 72 1 17 9 39 1 53-8 19-2 23-19 39 1-11 10-3 5-10-26 25-33 36-68 48-41 14-70-1-110-9-13-2-37 2-51 0-44-2-98-7-141 2l-22 3-4-5c40-13 185-7 234-7 13 3 27 10 40 12 56 9 122-24 131-83 10-74-72-120-136-105-14 3-28 12-41 12-69-3-145 5-212-4zM3894 2108l-2 6q-12 3-25 0-86-10-173-3-15 2-28 0c-19-5-40 14-59 7l-17 2c-44 2-92-28-106-71-15-47 11-97 54-119 4-3 15-4 21-6l3-1c23-7 52-5 75 2 5 1 18 7 22 6 24-2 146-4 162 5-17 3-44 2-62 2q-47 1-93-1c-57-14-117-27-161 30a86 86 0 0 0-16 68c10 58 76 87 129 78 15-2 30-9 45-11l68-1c51 1 113-2 163 7M3491 1373c35-39 77-58 130-49 21 3 32 10 56 11 43 2 85-1 128-1 16 0 56 4 69 0l1 5-34 5c-15-2-88-1-106-1-14 0-62 2-71-1-55-17-102-24-148 19-34 30-39 91-3 124 7 7 8 9 16 14 55 36 83 17 139 9 24-4 84-3 108-1q16 0 32 2l-1 1c-22 3-43-2-68 3l27 1c-22 6-73 0-95-3q-12 3-24 8c-27 11-60 9-89 3-23-6-44-24-61-40-1-1-3-21-7-23-13-19-3-66 1-86M3770 3294c-6 7-20 0-31 3-13 7-61-3-70 0-28 11-49 20-80 14-7-1-1 2-10 4-14-14-42-11-60-26-18-12-22-35-35-49-13-15-9-56 5-70 2-13 8-16 16-26 27-30 77-43 116-35 27 8 48 16 77 15 56-2 112-1 169-5q15-3 27 7h-2c-74 8-156 1-231 2-12 1-33-11-50-13-87-11-165 78-101 155 32 39 99 47 142 25 7-2 106-2 118-1M3701 1804c-3 2-18 2-21 2-13-1-19 3-31 9h1c-23 12-56 12-81 9-33-5-58-35-79-59-6-7-8-26-7-35-4-75 77-124 145-110 9 2 27 12 35 12q79 3 157 1c16 0 58-8 71-4l2 5-3 1c-47 7-95 5-142 6l-76-1c-17 0-39-10-57-13-42-7-88 12-112 48a85 85 0 0 0-14 64c6 25 24 50 45 62 50 29 88 13 139 3zM3500 1170c-11 1-11-13-12-21l-5 1c-6-6-7-21-5-28 10-50 57-96 109-100 32-2 58 15 90 16 54 0 106-3 160 0 16 1 37-6 53-4 4 1 3 0 6-2v8q-32 5-66 5h-155c-21-1-41-10-62-14-79-11-153 59-113 139M1749 3359c-3 5-3 5-8 8-44 9-32-15-35-40q2 11 0 21h-3c-5-10 2-84 1-100-1-9 8-26 19-25q23 2 44 3c3 2 13 11 13 14q1 32 3 62v-24c5 25 6 57-4 81l-3-9c-2-36-1-81-1-118h-64l1 126zM3621 1221c48-11 74-14 124-12 48 2 103-3 150 5l1 11c-5-4-43-5-53-7h28c-14-5-133-1-155-1-12 0-36-2-47-1-18 1-27 7-48 5M195 424c8-8 47-7 58-7 24 3 149-3 164 5l-9 2c-12 2-66 1-81 1-39-1-96 3-132-1M427 424c9 11 6 33 7 47q2 55-1 110c0 8 1 33-2 39l-4 2-1-72zM3478 625c-13-16-9-175-1-197l1 13v184M2109 3358c-8-14-1-55-1-73v-34l-1 1q-1-12 3-21c14-11 56-11 67 0-6 2-55 2-64 2-2 21 2 115-4 125M1842 3359l-5-5c-1-17 0-27 2-44v8c3-27-1-61 3-88 8-8 54-9 63 0l-7 3-54-1c-4 37 2 89-2 127M6 625c28-3 71-1 101-1q10-1 20 2v3c-11 3-94 3-117 4v5H8z"/>
  <path fill="#e9e9da" d="M2191 377c15-19 77-36 94-21 13-2 21-3 32 5 17 13 6 27-9 35 1 43-46 36-63 60 0 11 5 18 6 28 8 48-22 71-62 83l-15 20c19 11 20 37 1 41h-1c-2 31-44 103-70 125-19 18-87 57-93 68v68q54 4 100 30l25-47-1-2c4-12-5-10-1-25 3-9 22-30 32-32l2 4c2-17 54-104 66-126 8-16 18-32 37-37 23-6 141 46 163 61q8 5 18 9c12 0 43 13 51 23q10 12 8 26c-2 22-107 205-124 233q-11 16-24 31l-30-6c29 21 172 134 177 161q2 15-7 27-11 12-27 14c-51 7-85-51-114-53-17-1-133-76-155-92-13 52-39 87-86 115q-27 16-59 25l2 87c-18 1-142 5-149 1 3-18-2-23-18-30-2-15 1-44 2-59-105-31-171-113-128-222q-107-25-213-52l-64-16c-29-34-29-57-34-98-7-65 1-129-3-193-44-14-45-27-42-72 8-13 11-16 24-24l-2-3c-27-42-47-111-39-161 2-14 17-22 29-17 29 13 37 55 51 82l2 3c6-14 9-26 23-33 13-7 26 1 30 14 15 39-3 80-19 116q14 2 26 7 16 9 22 26c9 32-11 53-41 60 0 56 0 105 6 160 3 28 3 52 11 81 47 21 105 21 153 29 29 5 91 22 119 31 36-34 92-52 140-56 2-40 10-48-32-58-11-5-17-7-29-7-29-4-113-37-113-72l-3 3c-13-3-49-13-34-39 3-5 15-8 21-9-6-14-6-31-8-47-81 5-56-73-13-63 4 23 15 41 41 21 18-14-16-46-14-68 3-25 18-40 35-57 30-31 68-56 113-45 12 3 28 14 37 14 25 3 56 1 81 1l6-7c36-41 82-50 135-54l11-13q4-4 7-12"/>
  <path fill="#0c0e0a" d="M2134 845c3-9 22-30 32-32l2 4 1 2c27 33 10 47-26 47l-7 6-1-2c4-12-5-10-1-25"/>
  <path d="M2134 845c3-9 22-30 32-32l2 4 1 2c-9 12-15 36-27 40q-6-4-8-14"/>
  <path fill="#272623" d="M2174 628c-14 2-31-2-32-19q0-7 4-13 10-9 23-8l5-1c19 11 20 37 1 41z"/>
  <path d="m2169 588 5-1c19 11 20 37 1 41-5-22-16-16-6-40M1776 752l-3 3c-13-3-49-13-34-39 3-5 15-8 21-9 19 24 11 18 18 39z"/>
  <path fill="#272623" d="M2452 724q5 9 2 20c-10 17-39 7-46-11 1-13 14-17 26-18q8 5 18 9"/>
  <path d="M2285 356c13-2 21-3 32 5 17 13 6 27-9 35-10-15-17-17-28-30z"/>
  <path fill="#0c0e0a" d="M2280 366c11 13 18 15 28 30l-8-1c-17-3-28-12-20-29"/>
  <path fill="#272623" d="M1760 707c27 4 28 18 18 39-7-21 1-15-18-39M1967 591q27 62 65 116c17 17 26 24 5 42-65 57-128 62-202 18 22-19 21-32 30-56h1l9 9 2-2c16-14 26-14 40 2l26-14c21-34 24-76 24-115"/>
  <path fill="#0c0e0a" d="M2037 749c-41 2-45-35-5-42 17 17 26 24 5 42"/>
  <path d="M1877 718c16-14 26-14 40 2 8 38-50 35-42 0z"/>
  <path fill="#272623" d="M1877 718c16-14 26-14 40 2-17 5-22 2-40-2M1895 585c41-1 34 41 27 69-3 16-8 24-22 32h-6c-6-4-1-39-2-52l-1-4c-24-14-23-35 4-45M1796 654q6 0 9 4c6 13 33 48 32 59-5 7-2 5-9 8-13-3-12 1-20 2-11 2-17-33-18-41-1-15-3-20 6-32M2182 973q23 10 44 21v15c4 21 34 39 51 51l-4 2c-21-12-47-26-67-40q-11-25-24-49M2026 469c33 2 43 31 10 43-33-1-41-29-10-43M2158 470c30 0 43 26 14 41-32 2-43-23-14-41M2020 586c29-1 45 22 16 40-30 2-45-22-16-40M1492 703c24-1 33 28 3 41-34-4-37-36-3-41M1895 467c30 5 33 33 1 42-30-7-32-35-1-42M2289 708c30-1 44 23 16 40q-16 3-27-9-4-6-3-14c2-9 7-12 14-17M1481 821c31-2 46 22 16 38l-6 1c-24 0-34-23-10-39M1987 1259a21 21 0 1 1 15 40 21 21 0 0 1-15-40M2291 823h6q12 0 20 9 5 6 3 14c-2 9-8 12-16 17-30 0-41-23-13-40M1483 469c29-3 46 17 20 38-29 3-45-18-20-38"/>
  <path fill="#373837" d="M1489 483c6 4 5 5 4 11l-2 1-2-2z"/>
  <path fill="#272623" d="M1481 587c29-2 43 20 16 38-29 1-44-20-16-38M2424 826c28-1 44 19 17 38-28 3-44-19-17-38M2256 826c14 21 28 39-5 49-33-11-12-26 3-39z"/>
  <path fill="#898a7d" d="M2277 1060c5 3 14 6 17 12-7 0-16-7-21-10z"/>
  <path fill="#2c2414" d="M212 33c67 2 122 19 163 77 23 34 31 79 21 119-6 23-38 66-59 81-5 4-23 8-29 13-19 14-59 22-82 21-37 0-97-16-127-40-11-9-31-40-38-53-8-15-22-48-15-65 3-10-1-15 3-26-1-5 11-19 9-23-4-11 15-35 24-41 15-11 51-46 68-50zm110 106c-28-32-47-45-92-49-86-8-166 86-96 161 44 48 131 52 176 1l12-12c20-40 20-62 0-101"/>
  <path fill="#c0a057" d="M193 45c28-4 68-3 94 8 64 24 113 82 103 153l-2 13q-6 25-20 46c-54 80-174 93-251 39q-49-34-60-93C42 124 111 57 193 45m129 94c-28-32-47-45-92-49-86-8-166 86-96 161 44 48 131 52 176 1l12-12c20-40 20-62 0-101"/>
  <path fill="#bba267" d="m193 45 3 2c-6 4-19 13-25 14l-8-4c-22 2-50 32-65 47-16 16-24 44-37 57l1 6c2 89 12 98 87 146l-11-3c38 24 73 24 116 17 54-9 87-38 119-80 5-6 8-27 15-28q-6 25-20 46c-54 80-174 93-251 39q-49-34-60-93C42 124 111 57 193 45M287 53c64 24 113 82 103 153-8-13 0-54-17-74l-2 4c-12-21-22-38-42-53-8-6-38-24-42-30"/>
  <path fill="#bba267" d="m322 139 4-1c25 23 33 87-4 102 20-40 20-62 0-101"/>
  <path fill="#2c2414" d="M202 3374h3q22-2 43-1c16 2 57 16 71 23 34 18 67 58 79 95q14 49-9 96c-25 48-61 72-112 88l11-3q-4 3-10 4l-13 3c-7-4-17-1-25 1h1l-5 1c-38 7-80-6-111-28-41-29-66-53-75-105q-8-57 28-105c31-43 74-61 124-69m48 252c36-12 49-16 74-48 42-72-8-137-82-148-25-4-42 3-65 7l-10 7c-24 14-44 30-51 59-19 88 59 132 134 123"/>
  <path fill="#bba267" d="M216 3381c43-3 90 11 123 38q47 37 54 97c3 35-8 71-31 99-32 38-77 55-125 60-43 4-92-12-125-39-29-23-50-58-54-96-3-36 9-72 32-99 32-38 77-56 126-60m34 245c36-12 49-16 74-48 42-72-8-137-82-148-25-4-42 3-65 7l-10 7c-24 14-44 30-51 59-19 88 59 132 134 123"/>
  <path fill="#c0a057" d="M218 3389q45-4 87 17c37 17 63 51 76 89 10 29 8 64-6 92-6 11-19 34-30 38l5-11q-8 6-16 14c-21 18-46 37-74 37l-20 2c-33 4-66-6-96-21-25-13-41-27-58-49-3-4-9-10-10-15-4-12-3-24-7-36q-4 8-1 15h-2l-3-8q1-6 5-13v-5l-1-6c-3-31 10-59 30-83 13-15 59-47 77-53q21-4 44-4m32 237c36-12 49-16 74-48 42-72-8-137-82-148-25-4-42 3-65 7l-10 7c-24 14-44 30-51 59-19 88 59 132 134 123"/>
  <path fill="#bba267" d="m250 3626-4 4c-62 28-155-49-144-114 4-26 47-82 75-79l-10 7c-24 14-44 30-51 59-19 88 59 132 134 123M177 3437c4-8 20-14 30-16 51-11 119 32 138 79 2 7 0 45 0 55q-6 13-15 22l-6 1c42-72-8-137-82-148-25-4-42 3-65 7"/>
  <path fill="#2c2414" d="M3641 3387q36-3 71 3l31 10 15 8 11-2c16 14 37 24 49 41l16 26 2 3q21 31 14 67l-1 2 4 2c-1 16-12 34-14 47l3 9q-12 24-33 42c-10 9-60 45-69 44 1-7 8-5 13-9l-3-2q-5 4-12 5-9 4-19 6c-43 12-93 9-133-14-33-19-73-59-83-97-12-45 1-77 24-116q10-17 26-30c28-24 46-31 82-40h-1zm173 69q-23-27-53-42-12-6-25-11c-216-65-331 211-108 280 82 26 192-23 213-108 8-26 3-87-18-106q-4-7-9-13"/>
  <path fill="#c0a057" d="M3823 3469c21 19 26 80 18 106-21 85-131 134-213 108-223-69-108-345 108-280q13 5 25 11 30 15 53 42 5 6 9 13m-56 11q-39-38-92-39c-31 1-67 15-87 37-68 77 7 168 95 163q28-2 54-16 9-7 19-11 6-9 13-16c31-40 26-80-2-118"/>
  <path fill="#bba267" d="M3823 3469c21 19 26 80 18 106-21 85-131 134-213 108-223-69-108-345 108-280-11 2-33-3-47-3-87-5-183 61-172 155 1 13 2 34 8 43 23 30 62 67 99 75l4 1-3 2-2 2c19 7 105 5 123-7l-2-1-10 3c6-6 5-5 13-7a155 155 0 0 0 84-74l-1-1-3 1c8-33 12-37 10-74-1-20-15-41-14-49"/>
  <path fill="#bba267" d="M3761 3414q30 15 53 42c-13 0-52-36-53-42M3767 3480c50 23 39 112-6 133l-5 1q6-9 13-16c31-40 26-80-2-118"/>
  <path fill="#2c2414" d="M3665 40c73-6 159 34 184 108 3 7 0 22 2 29 14 59-14 96-58 133q-9 5-17 9c-31 29-62 25-101 25l12 3 3 1h-1v1l-3-2 1 1c-37-1-53-3-89-18-34-15-77-59-90-94q-15-48 5-91c2-5-1-7 5-18 22-42 61-66 105-79 14-4 30-4 42-8m87 230c63-58 53-132-27-167-37-16-73-9-109 7-27 20-45 35-51 70q-5 38 19 68c36 45 101 59 151 30z"/>
  <path fill="#c0a057" d="m3566 302-11-9a134 134 0 0 1-9-192 185 185 0 0 1 244-17q46 32 56 87c5 25 1 66-15 87a182 182 0 0 1-265 44m186-32c63-58 53-132-27-167-37-16-73-9-109 7-27 20-45 35-51 70q-5 38 19 68c36 45 101 59 151 30z"/>
  <path fill="#bba267" d="m3566 302-11-9a134 134 0 0 1-9-192 185 185 0 0 1 244-17c-11 1-34-19-47-23-100-28-225 21-227 139 0 12 21 66 33 75 4 4 16 22 17 27M3610 327c8-1 28 3 38 3 46 3 85 7 125-20l-1-2-7 2 21-11c15-12 27-33 45-41a182 182 0 0 1-221 69"/>
  <path fill="#bba267" d="M3616 110c4-9 18-18 27-20 54-16 115 16 149 54 5 22 11 39 7 62-4 24-23 58-47 64 63-58 53-132-27-167-37-16-73-9-109 7M3134 3042h-3q-8 1-15-3l2 1 3-3c31-1 178-9 198 7q8 7 7 19-1 25-4 50c-1 30 4 81-4 110-10 6-36 3-49 3q9 2 19 3c-17 0-50 6-60 6-17-1-87-3-101-6l-2-3c-7 0-9 1-15-3v-180zm95 156c20-6 39-14 51-34q12-20 6-43-7-27-33-40-24-12-50-9c-21 5-40 13-52 32q-12 22-6 47 9 26 34 39 23 11 50 8"/>
  <path fill="#c0a057" d="M3117 3053c67-12 122 2 186 1v2l6 62c4 40-1 59-6 97-16 0-56 0-69 11h-40l-2-4c-30-6-45-5-75-7q3-12 1-22v2c0-47-6-95-1-142m112 145c20-6 39-14 51-34q12-20 6-43-7-27-33-40-24-12-50-9c-21 5-40 13-52 32q-12 22-6 47 9 26 34 39 23 11 50 8"/>
  <path fill="#2c2414" d="M3134 3042h-3q-8 1-15-3l2 1 3-3c31-1 178-9 198 7q8 7 7 19-1 25-4 50c-1 30 4 81-4 110-3-15-2-53-2-69l1-111zM3194 3226h75q9 2 19 3c-17 0-50 6-60 6-17-1-87-3-101-6l-2-3z"/>
  <path fill="#e9e9da" d="M2562 1297c60-3 123 22 136 89q7 41-17 74c-21 29-49 42-83 48-61 3-125-21-138-88q-7-41 16-74c22-30 51-42 86-49"/>
  <path fill="#272623" d="M2563 1318c48-4 96 16 109 66q8 33-9 61c-15 24-38 35-64 42-49 8-101-16-114-67q-7-33 11-62c16-24 40-34 67-40"/>
  <path fill="#e9e9da" d="M2533 1344c18 0 59-2 73 4 34 13 27 46-4 59l37 52h-27c-14-2-27-47-48-46-5 6-4 36-4 46l-27-1z"/>
  <path fill="#272623" d="M2560 1363c20 0 50-2 34 28q-16 5-34 4z"/>
  <path fill="#2c2414" d="M3211 2732h1q34 0 63 15c17 9 44 27 51 46 3 8 1 20 4 30l4 25v-3l1 5q3 10-2 15l-3-2-2 2 1 7 1 8q-1 7-5 11c-15 12-32 35-50 41-11 4-23 4-33 9l-2 2c-7 3-26 1-34-2-31-10-50-6-77-31a90 90 0 0 1-30-66q-2-42 25-73 29-33 73-36 6 1 11-2zm55 60c-41-26-95-23-117 27-7 16-3 17-3 31 32 105 204 31 120-58"/>
  <path fill="#bba267" d="M3209 2741q42-2 77 21 33 23 41 62 4 39-19 72c-20 26-48 36-79 40-29 1-56-3-80-20a96 96 0 0 1-41-64q-6-37 17-69c22-27 51-38 84-42m57 51c-41-26-95-23-117 27-7 16-3 17-3 31 32 105 204 31 120-58"/>
  <path fill="#c0a057" d="m3191 2750 11-2c28-3 62 2 83 20 20 18 36 45 37 72 0 23-17 56-37 68-11 6-23 7-32 16-6 7-11 7-19 8l-24-1h6q-23-2-45-11a95 95 0 0 1-53-56q-9-29 4-59c14-28 40-46 69-55m75 42c-41-26-95-23-117 27-7 16-3 17-3 31 32 105 204 31 120-58"/>
  <path fill="#e9e9da" d="M2266 1389c79-8 133 45 118 125-9 47-42 69-87 74-33 2-62 2-90-17-44-31-50-103-19-145 20-26 47-33 78-37"/>
  <path fill="#272623" d="M2269 1432c56-1 67 46 47 93-5 13-18 18-31 21-53 1-68-43-49-90 5-14 20-20 33-24"/>
  <path fill="#2c2414" d="M2527 3453q13-1 25 3 32 9 45 38 7 12 9 26c3 20 2 115-4 133-6 17-23 32-40 40-35 17-49 7-81-4l-3-2-23-22q-5-8-8-17c-6-29-3-106 2-137l2-1v7c4-39 20-35 42-56q-8 3-14 3c1-5 0-3 3-5 8 1 44-4 58-3q-6-2-13-3"/>
  <path fill="#bba267" d="M2516 3461q23-3 45 7 25 11 33 38c6 18 6 109 3 130q-2 12-8 24-18 25-48 31-29 4-53-8-22-13-30-39c-4-17-4-110-1-129q2-14 9-25c11-18 30-25 50-29"/>
  <path fill="#c0a057" d="m2521 3466 8-1q26 1 44 21 10 11 13 26c7 28 4 103 3 134l-8 12c-12 14-26 26-46 28q-15-1-31-3-15-1-25-14-10-16-12-34c-4-23-4-112 0-134 16-22 28-29 54-35"/>
  <path fill="#2c2414" d="m1353 3445 14-1c23 1 48 16 63 32 25 27 17 74 16 109l-2 1c-3-7-1-61-2-74-4 6 0 113-3 133-2 13-4 17-15 25q-7 10-19 12-13 2-26 8-22 7-45-3c-13-6-45-34-48-47-2-12 0-30 0-43 0-27-5-95 9-118a92 92 0 0 1 54-33z"/>
  <path fill="#bba267" d="M1362 3453q25-1 48 13 22 17 25 45c3 18 3 101 0 118q-1 18-13 31-20 22-50 24-29 1-53-15a62 62 0 0 1-24-42c-2-19-2-100 1-118q1-18 13-31 21-24 53-25"/>
  <path fill="#c0a057" d="M1354 3461c20 0 39 0 55 13q11 9 14 22c5 19 2 42 2 61l4 68 1-20 1 16v15c-4 18-21 31-36 38h-6c-21 3-41 4-59-8q-20-12-25-34c-3-15-4-100-2-115q3-17 12-31 14-21 39-25"/>
  <path fill="#2c2414" d="M1342 3084c28-1 50-1 73 15 19 13 23 42 27 63l-1-9c8 26 9 98 1 123-6 17-26 38-41 47q-6 2-13 3c-24 5-56-1-76-15a65 65 0 0 1-24-43c-4-25-5-128 6-149 5-10 16-14 23-23l1-2z"/>
  <path fill="#bba267" d="M1350 3091q27-3 51 8 24 13 32 39c5 19 5 107 2 128q-3 12-8 23c-11 18-29 25-47 30q-26 3-49-7t-32-34c-7-20-7-105-4-129q1-12 7-24 17-27 48-34"/>
  <path fill="#c0a057" d="M1364 3095c13-1 30 4 41 11q16 8 19 26c5 19 0 41 0 60 0 26 6 53 4 78q0 9-6 18c-9 15-28 23-44 26h-1c-18-6-35-3-51-15a60 60 0 0 1-24-42c-2-17-1-94 3-111q3-14 11-26 20-22 48-25"/>
  <path fill="#2c2414" d="M2507 3091h27c13 1 33 4 41 15 9 11 21 26 25 39l1 3c1-6-3-14-4-20l1-1c14 20 9 133 5 159-2 18-14 27-28 38-24 11-56 18-81 7-26-9-41-40-43-66 0-7 2-19-1-26l-1-2c-3-7-1-66 0-76l7-24c11-25 27-36 51-46"/>
  <path fill="#bba267" d="M2517 3099q27-3 50 10 22 14 28 39c5 22 5 103 1 126q-1 14-9 26-19 25-50 28-28 3-53-11-21-15-26-41c-4-19-4-105-1-124q3-15 11-26c11-17 30-24 49-27"/>
  <path fill="#c0a057" d="M2511 3108q17-2 35 0c22 4 32 21 43 39q0 29-2 59c0 20 3 41 1 62q-1 16-9 31-9 13-24 16l-10 3-3 2-7 1-7 1c-10 2-30-7-38-13a60 60 0 0 1-24-41c-3-16-3-97-1-112q3-15 12-28 13-17 34-20"/>
  <path fill="#e9e9da" d="M2057 1389c24-4 60 3 82 11-2 12-7 33-16 41-5 1-21-3-28-5-67-23-117 44-69 97 13 15 40 14 62 13v-33h-40v-41h96l-1 105c-41 18-120 21-158-8-42-32-49-100-16-141 23-28 54-36 88-39M1741 1391h65q17 36 38 73l38-73h63l-47 79c-34 54-28 53-28 116h-56c-2-21 1-46-3-67-5-21-19-40-30-59-12-23-30-46-40-69M1614 1741q22-3 45 6 24 13 32 40c6 20 5 45-6 63q-13 24-42 31-25 6-49-5-23-13-32-39c-6-20-5-44 6-63 10-19 26-27 46-33"/>
  <path fill="#272623" d="M1615 1760q9-2 20 0 17 4 26 20c9 15 10 36 4 52q-7 23-27 32h-18q-17-4-27-19c-9-15-10-36-5-52q6-22 27-33"/>
  <path fill="#e9e9da" d="M1357 1390h58v153c14 0 68-2 78 1l4 3q2 20-1 38l-3 1c-41 2-93 0-135 0z"/>
  <path fill="#898a7d" d="m1493 1544 4 3q2 20-1 38l-3 1z"/>
  <path fill="#e9e9da" d="M1612 1391h58v151h80l-1 45-137-1zM1498 1391h90c0 9 1 29-1 36-5 3-6 3-12 4-4 5-4 107 1 114 17 7 12 25 12 42-14 0-82 0-92-2q3-18 1-38 10 1 17-3c1-15 3-106-2-113-19-4-14-24-14-40M2574 1743q16-1 29 7 20 15 24 41c4 24 2 53-12 72-9 13-19 17-34 20q-14 1-27-5-22-15-26-40c-6-24-4-54 11-74q13-20 35-21"/>
  <path fill="#272623" d="M2571 1761h6q9 1 15 8c11 13 12 34 11 51q0 26-19 45l-10-1q-9-2-13-8c-11-14-12-35-10-52s6-31 20-43"/>
  <path fill="#e9e9da" d="m1465 3321 144-1c23 0 51-3 73 2l2 7q2 6-3 10c-16 5-164 1-193 1l1 96c0 22 2 181-2 188q-3 6-10 9-4 0-7-2-6-9-6-19c-2-24 1-49 1-73zM2203 3321h220c0 102 3 208-1 309l-11 2q-6 0-11-5c-4-21-1-63-1-87v-200h-124q-35 2-70 0c-3-5-2-14-2-19M1718 1743q28-3 57 0c11 2 24 6 31 16q7 14 5 30-6 17-22 26c18 18 21 43 29 66q-11 1-21 0c-6-1-6-5-9-10-3-12-6-30-15-40-8-9-20-8-32-8v59h-25c0-22-4-126 2-139"/>
  <path fill="#272623" d="M1741 1760c13-1 25-2 37 5q7 4 8 13c2 8-3 14-7 21-13 7-24 6-38 6z"/>
  <path fill="#e9e9da" d="M2161 1743h11q3 3 4 8c-4 16-34 7-54 30-4 5-10 12-9 18q8-5 17-7c13-3 29 0 40 7q15 11 17 29 2 24-12 41-13 11-29 14-20 4-37-7-20-14-24-38c-3-21 1-45 14-63 15-20 37-28 62-32"/>
  <path fill="#272623" d="M2127 1809h14q10 1 16 10 8 11 5 23-4 17-18 24l-12-1q-11-3-18-13-7-12-4-24 4-13 17-19"/>
  <path fill="#e9e9da" d="M3292 2265q15-1 28 6 18 10 23 31c4 16 3 36-7 50q-13 19-36 22c-12-1-24-1-34-8q-19-14-22-36-3-25 11-46 15-18 37-19"/>
  <path fill="#272623" d="M3293 2280q7 0 14 3 11 7 15 20 6 21-3 39c-6 11-12 14-23 17q-7-1-13-3-13-9-17-24-5-20 5-38 8-12 22-14"/>
  <path fill="#e9e9da" d="m2087 2950 111 1c0 21 4 51-13 68-11 12-25 13-41 14 0 17 3 39-5 55h-6c-9-13-6-42-6-58q-16-5-27-16c-16-17-13-42-13-64"/>
  <path fill="#272623" d="M2103 2968c21 0 48-4 68 0q8 1 12 9 0 15-9 28-11 8-26 9-18 2-32-9c-13-11-13-22-13-37"/>
  <path fill="#e9e9da" d="M3284 1971q16-2 32 3 18 9 26 28 8 24-2 48-10 21-32 27-17 3-35-3-18-10-26-28c-5-15-4-34 3-48q11-21 34-27"/>
  <path fill="#272623" d="m3285 1987 14-1q12 2 18 12 10 16 7 35-3 20-19 29-7 2-13 1-12-2-19-11-10-15-7-34 2-20 19-31"/>
  <path fill="#e9e9da" d="M530 2251q16-1 31 3 20 10 27 30 9 25-3 49-11 19-34 25-15 2-31-3-18-8-26-27-9-25 2-49 10-21 34-28"/>
  <path fill="#272623" d="m533 2266 14 1q11 3 18 14 10 18 4 38-5 17-22 24h-10q-11-2-19-12c-7-10-8-25-5-37 3-14 9-20 20-28"/>
  <path fill="#e9e9da" d="M3276 2569q16-1 31 4 20 9 26 29c6 15 5 34-3 48q-10 21-34 26-17 2-32-4-19-9-26-28-7-26 3-48 12-21 35-27"/>
  <path fill="url(#a)" d="M3281 2584q7 0 14 2 12 5 17 18c5 11 5 26 0 37q-7 15-21 21l-12-2q-12-5-18-16-9-19-1-40 6-15 21-20"/>
  <path fill="#e9e9da" d="M532 1954q16-2 31 4 18 9 26 29c5 15 5 34-3 48q-12 21-34 26-16 2-32-3-18-10-26-30-7-24 3-48 11-20 35-26"/>
  <path fill="#272623" d="m533 1969 14 1q12 3 19 13 9 18 4 38-4 17-21 25l-10 1q-12-2-20-12-10-18-5-38 3-18 19-28"/>
  <path fill="#e9e9da" d="M534 1653q17-1 32 5 19 11 24 31 7 25-5 47c-8 15-19 20-35 25q-15 0-28-4-20-10-28-31-7-24 3-46 13-21 37-27"/>
  <path fill="#272623" d="M533 1668h13q12 3 20 14 10 18 4 38-5 17-21 25h-9q-12-2-20-12-10-16-7-34 2-19 20-31"/>
  <path fill="#e9e9da" d="M3301 783c72-4 79 89 18 108-76 4-79-92-18-108"/>
  <path fill="#272623" d="M3299 800c44-8 51 51 21 74-42 11-53-49-21-74"/>
  <path fill="#e9e9da" d="M528 2552q17-3 32 2 20 8 28 27 9 22 1 46-10 21-32 30-16 3-33-1-20-8-29-27c-6-15-6-34 1-49q10-21 32-28"/>
  <path fill="#272623" d="M533 2567h15q10 3 16 12 10 18 5 38c-3 13-9 19-20 26h-12q-11-2-17-12-11-17-6-37 4-17 19-27"/>
  <path fill="#e9e9da" d="M3294 1676q15-2 29 3 20 8 27 29 9 24-2 48-11 20-33 27-16 2-32-4-19-8-27-28-8-24 2-48 12-21 36-27"/>
  <path fill="#272623" d="M3295 1691h14q11 3 17 13 11 16 6 37c-4 13-9 19-20 26h-14q-11-2-17-12-11-18-6-37 4-18 20-27"/>
  <path fill="#e9e9da" d="M3301 476c73-4 80 87 21 107-75 7-84-88-21-107"/>
  <path fill="#272623" d="M3304 491c43 0 48 59 12 78-44-3-46-59-12-78"/>
  <path fill="#e9e9da" d="M668 465c22-1 58-4 75 10 26 21 22 56 4 80-26 19-49 16-79 15z"/>
  <path fill="#272623" d="M695 478c14 1 24 1 34 11 19 18 13 43-4 60-8 4-29 12-37 4-1-10-2-66 1-73z"/>
  <path fill="#e9e9da" d="M3295 1372c72 1 73 97 8 107-72-4-71-95-8-107"/>
  <path fill="#272623" d="M3297 1386c40 3 44 64 7 78-44-2-45-64-7-78"/>
  <path fill="#e9e9da" d="M469 3158h22q25 1 42 20 13 18 10 39-5 25-25 38c-22 10-45 8-68 7 0-30-5-72 1-100q8-4 18-4"/>
  <path fill="#272623" d="M470 3173q19-3 36 5 12 8 16 22 3 22-11 38c-13 9-25 10-41 11z"/>
  <path fill="#e9e9da" d="M453 2852h1c24-2 56-5 74 12q15 15 14 35 1 26-17 44c-23 14-49 12-75 11 0-16-4-95 3-102"/>
  <path fill="#272623" d="M470 2866q21-3 38 7 12 8 14 22 1 20-11 35c-12 10-26 10-41 11z"/>
  <path fill="#e9e9da" d="m639 1058 9-1c21 0 42 2 58 17q14 15 14 35-1 27-22 45c-23 11-45 10-70 8 0-15-3-95 2-103z"/>
  <path fill="#272623" d="M648 1072c15-1 26-1 39 9 19 16 14 41 0 58-16 10-21 9-40 10z"/>
  <path fill="#e9e9da" d="M634 1349h5c23-2 48-2 66 15q15 15 15 35-1 26-20 44c-23 14-46 11-72 10 0-16-2-91 1-102z"/>
  <path fill="#272623" d="M648 1363c15 0 25-1 37 9 21 16 16 40 2 58-15 10-22 9-40 9z"/>
  <path fill="#e9e9da" d="M1874 1742h29l50 139h-27q-5-20-13-38-2-3-6-3h-43l-14 41h-26c13-44 35-94 50-139"/>
  <path fill="#272623" d="M1888 1771c7 14 13 34 16 49q-7 3-15 2h-16l-2-2z"/>
  <path fill="#e9e9da" d="M1687 3057h111c1 25 3 47-13 68q-18 13-41 13-25 2-45-16c-17-18-13-43-12-65"/>
  <path fill="#272623" d="M1701 3074h82c0 16 0 26-11 38q-16 9-33 9t-29-12c-9-10-9-22-9-35"/>
  <path fill="#e9e9da" d="M3345 2961h110c2 26 4 47-13 69a70 70 0 0 1-46 13c-14-1-30-6-40-18-15-17-11-43-11-64"/>
  <path fill="#272623" d="M3361 2978h80c0 14 0 23-8 36q-15 11-34 11-17 1-29-11c-10-11-9-22-9-36"/>
  <path fill="#e9e9da" d="M1955 2950h109c1 26 3 48-13 70q-21 14-46 14-20-1-34-15c-19-19-16-44-16-69"/>
  <path fill="#272623" d="m1971 2967 78 1c0 15 0 25-9 39q-17 9-35 9-14-1-25-11c-10-11-9-23-9-38"/>
  <path fill="#e9e9da" d="M561 3158h26l26 74 28-73h25c1 18 9 90 4 102l-6 1q-5 1-9-3c-7-7-5-33-5-44q1-10-2-18c-12 5-15 50-30 61q-5 4-11 1c-14-13-22-50-29-70-1 23 0 50-6 71q-7 2-15 1c-7-13 3-86 4-103M2241 1743l27-1 35 109 39-109 26 1-8 24-45 114h-25q-26-69-49-138M3376 2571q12-1 22 3 14 8 19 23c7 18 5 42-3 59q-8 15-25 20-11 1-20-2-16-9-22-25c-6-17-5-39 3-56q9-16 26-22"/>
  <path fill="#272623" d="M3378 2585q8 0 14 5 10 14 9 30c0 15-2 31-14 42q-8 1-14-5-10-13-9-30c0-16 2-30 14-42"/>
  <path fill="#e9e9da" d="M1932 1916q9 1 18 5 15 9 19 27c5 17 4 38-5 54-7 12-15 15-28 19q-11 0-21-5-16-12-20-31c-4-17-2-37 8-52q11-15 29-17"/>
  <path fill="#272623" d="M1926 1930q7-1 15 4c7 5 10 16 11 25q3 27-13 47-9 2-16-4-11-12-10-29-3-24 13-43"/>
  <path fill="#e9e9da" d="M625 2253q17-2 33 4 9 4 11 12 2 13-6 25l-3 6c-1 5 10 17 13 23q4 9 0 17-9 14-24 18c-12 1-31 1-41-5q-6-4-9-12c-3-12 5-25 12-35 6-9-14-21-9-34 3-10 14-15 23-19"/>
  <path fill="#272623" d="M628 2313a17 17 0 1 1 16 30 17 17 0 0 1-16-30M631 2267a14 14 0 1 1 11 27 14 14 0 0 1-11-27"/>
  <path fill="#e9e9da" d="M2024 1741q19-2 37 1 8 1 12 8 0 5-3 11c-13 3-28-3-41-2q-20 3-32 18a61 61 0 0 0-10 47q3 20 21 33c18 11 40 8 60 3q5 1 8 5l-2 9q-6 6-14 8c-18 6-50 1-66-9q-24-13-32-40-8-31 8-58c13-21 32-29 54-34M457 1057c42-1 90 3 50 55-2 3 24 38 13 50-7 1-7 1-14-1-6-5-4-5-7-13-2-12-3-29-20-29s-11 31-11 44c-4 0-20 2-20-5 2-14-3-90 2-98z"/>
  <path fill="#272623" d="M468 1072c20 0 42 0 29 27-9 5-18 9-26 3q-4-14-3-30"/>
  <path fill="#e9e9da" d="M448 1349c23-1 56-4 73 16 6 8-1 26-9 31s-8 6-3 12c6 9 16 35 11 45q-11 3-18-4c-4-18-5-43-30-38-12 11 2 26-5 39q-10 7-19 0z"/>
  <path fill="#272623" d="M468 1363c20 0 41 1 29 27-9 5-19 10-27 2q-3-14-2-29"/>
  <path fill="#e9e9da" d="M3359 1079c16 0 20-3 30 11l39 63c0-16-2-57 0-71 6-4 8-2 16-2 5 6 3 92 3 105-13 0-19 2-27-10q-22-33-42-69c0 12 3 71 0 77q-9 3-17-2c-3-14-1-81-2-102M629 538c0-12-3-68 2-73 8-1 8-1 16 1 1 11 2 97-2 104l-15-1c-11-8-42-61-52-76 1 12 4 71-2 76q-9 1-14-2c-3-15-2-83-2-102 11-1 19-3 25 6q24 32 44 67M3401 1973q8-1 15 1 3 1 4 4c-10 15-33 9-45 32l1 3q10 0 19-4 10-2 19 4 11 8 14 21 3 20-10 35-6 5-13 8-17 5-32-1-15-9-19-25-7-25 5-49c10-17 24-24 42-29"/>
  <path fill="#272623" d="M3384 2022q9-1 17 4 7 7 7 16 0 13-10 23h-7q-9-1-15-9-6-7-4-18 2-10 12-16"/>
  <path fill="#e9e9da" d="M709 1655h14c9 0 22 5 28 13q10 15 7 33-1 29-24 48c-9 7-23 14-35 12-6-1-7-3-11-8q3-6 8-6c21-5 31-12 43-30q-13 5-28 5-16-3-25-16-7-11-3-24 7-20 26-27"/>
  <path fill="#272623" d="M714 1668h4q10 1 15 7 7 10 4 21-2 10-10 13-9 1-17-4-8-6-7-15 1-13 11-22"/>
  <path fill="#e9e9da" d="M626 1956c14-1 25-1 35 8q13 12 14 31 2 28-17 49c-13 14-28 17-46 18-5-4-4-6-6-11 4-3 3-3 7-3q13-2 24-7 10-6 13-17c-5-4-21-1-29-3q-11-1-17-12-7-13-3-28 7-19 25-25"/>
  <path fill="#272623" d="M632 1969h4q10 1 15 10 6 8 4 17c-2 8-6 10-12 14q-9 1-17-4-6-7-6-16 2-13 12-21"/>
  <path fill="#e9e9da" d="M1687 2960c31-1 67-4 97 0q10 1 15 8l-1 5c-13 18-53 35-73 47 22 0 50-2 71 2q3 7 2 16c-21 0-97 5-110-6q-3-2-2-5c7-14 61-40 77-50-24-1-50 2-73-1q-5-8-3-16M1264 1742c28 0 87-4 112 2l1 3q2 6 0 13-22 3-44 1v120h-24l-1-120c-13 0-30 4-42-3q-3-6-2-16M3342 3282c21 0 98-5 112 3q3 2 3 6c-7 18-60 42-79 52q38-2 75 1 3 7 2 16c-27-1-88 4-110-5q-2-2-3-5c4-13 69-44 84-52-26 0-56 3-82 0q-3-8-2-16M3347 2866c23 0 86-5 104 1q5 1 7 6c-5 16-59 43-76 53l23-1c14 0 41-3 51 6q0 6-2 12c-20-1-93 3-106-4q-3-2-3-6c9-17 61-41 78-52q-37 3-74 0-3-8-2-15M562 2852c19-2 40-5 56 8q11 8 12 21 1 12-7 20c-12 13-26 15-42 15l-3 1c-3 12 1 24-2 35l-5 2q-8 1-14-2c-3-11-3-86 0-98z"/>
  <path fill="#272623" d="M580 2864q13 0 23 7 5 3 5 10 0 10-8 17l-10 3q-6 0-11-4-4-7-4-13 0-12 5-20"/>
  <path fill="#e9e9da" d="M1821 3061c31 0 80-4 108 2q3 5 2 11c-3 10-59 39-71 47 21 0 52-5 71 3 2 5 2 6 1 11l-4 2c-20 0-90 4-104-4q-3 0-3-5c9-17 62-42 80-52q-39 3-77-1-4-7-3-14M510 464q15-2 27 4c4 7 3 3 2 11-3 3-29 1-37 2-52 8-31 90 20 73 3-6 5-23-4-27-6 1-6 2-12 0-2-6-2-6-1-13 6-3 17-2 25-1 6-1 6-1 11 1 6 9 2 38 2 52l-12 3c-98 17-110-96-21-105M1465 1742l25 1v119c20 0 43-3 62 1q3 8 2 18h-90zM3390 2765q29-2 50 15 18 16 19 40 1 14-8 24-3 4-7 4c-9-10-3-37-9-51q-13-12-32-13a50 50 0 0 0-39 14q-6 14-5 27 0 5 4 7 12 1 25-1 3-6 3-16l3-2q6-1 11 2v34h-56l-4-15q-7-24 5-45c9-15 24-20 40-24M1733 2863q25-3 46 11 18 15 23 37 2 17-9 29-5 2-12-1c-3-5 2-17 3-23q1-12-7-22-11-12-27-14-23-2-41 12l-2 2q-7 14-4 31c5 4 15 3 22 3q4 0 7-4v-12q7-3 13-2c5 4 3 26 3 34h-57l-5-19q-5-23 8-42 16-18 39-20M529 1058l22-1 21 38 22-37h23l-33 51c6 10 28 43 31 52l-2 2h-14c-11-6-22-29-27-39l-23 39-22-1 33-53c-9-13-25-37-31-51M527 1349l24-1 21 37 22-36 23-1-34 52 34 53c-4 0-16 1-19-1-11-5-21-27-27-38l-23 39h-23l34-53zM3400 1375q9-3 17 2c7 11 4 26 3 39-3 30 7 15 15 25 0 5 1 5-2 10-5 0-6 0-11 2-6 11 6 19-7 25-7 0-7 1-12-2l-1-5c3-37-32-12-46-21l-1-4c4-16 34-54 45-71"/>
  <path fill="#272623" d="M3402 1399v38l-23-1c0-6 18-30 23-37"/>
  <path fill="#e9e9da" d="M520 763h23c9 24 18 55 26 79 5-17 18-69 33-78q7-3 13 0c2 5-2 10-4 16l-33 88h-18c-7-5-35-93-40-105M3280 1079c16 0 48-2 62 2l1 2c-1 8 1 5-4 10-10 3-28 2-39 1v28c10 0 34-2 41 3 1 7 1 4-2 11-8 5-24-2-38 2l-1 4v28c14 0 36-4 45 4 0 8 2 5-2 10-14 2-48 1-63 0zM1800 1918q8 0 14 3c8 15 1 31 2 47 2 16 7 7 15 13q1 6-1 10l-9 1c-8 5-1 19-6 27q-7 2-13-1-4-9-3-19l-1-5c-11-10-31 5-44-3q-2-6 1-13c5-11 35-56 45-60"/>
  <path fill="#272623" d="M1797 1944zc3 5 1 27 1 33l-23 1-2-1c3-11 16-25 23-34"/>
  <path fill="#e9e9da" d="M2420 1745h19l1 136q-12 3-22-2-4-9-3-21l1-92c-7 4-18 12-27 10q-3-7-3-13c8-8 24-13 34-18M479 762c40 4 38 22 20 50 9 10 20 19 16 34-6 20-28 27-47 25q-15 2-22-12c2-7 0-5 5-9l5 1c15 5 45 6 40-17-8-10-20-11-32-14-4-4-2-4-3-11 5-5 16-2 23-6 6-4 9-14 5-19-12-14-23 2-36-1q-6-7-1-15c12-4 15-4 27-6M1929 2929l3 3q2 6-1 12c-14 13-62 22-82 28 20 8 70 17 82 32v10c-5 2-14-2-19-3-18-6-83-23-91-37q-2-3 0-7c14-13 88-31 108-38M3395 783c38 0 50 18 27 50 3 8 12 12 15 22 10 34-50 45-68 30-2-7 0-7 3-15 16 7 48 13 45-15-9-16-19-8-32-17-1-4-2-4 0-9l20-4c7-6 12-14 4-22-12-12-25 8-36-3-2-8-3-5 0-10q10-5 22-7M3085 1078c9 0 33-1 39 6-1 8 1 5-4 10-14 6-24-10-39 6-6 23 40 25 46 48 7 25-12 33-32 38-8 1-30 0-36-6q-2-2-1-7c12-15 41 11 50-14-5-20-38-24-47-45-9-19 8-29 24-36M639 764c23-3 65 6 39 41-3 5-3 2-6 8 43 34-2 72-50 52-3-6-2-5 0-13l4-3c15 6 46 13 43-14-7-12-23-13-36-20 3-16 16-4 26-13q13-11 1-21c-12-3-30 6-37-3l1-6q5-6 15-8M3451 3152h2q3 9 2 19-41 9-83 22c22 7 69 13 83 32q2 4 0 9-10 0-21-4c-18-6-73-21-85-31q-5-4-4-10c10-14 86-31 106-37M3390 478h9c20-2 40 6 38 29-1 26-22 44-39 60 17 0 29-2 44 6l-1 5c-11 6-23 5-36 5-10 0-35 4-35-10 11-19 49-40 48-64-2-29-30-8-42-11-4-7-4-3-4-10 4-4 13-7 18-10M3375 1678h13c10-1 33-3 39 3q3 6-2 11-17 4-35 1l-2 23 15 1q16 3 25 17 6 10 3 21-5 17-21 25-14 4-27 3-11 0-20-7l1-4 4-7c5-4 30 6 41-4q4-2 5-7-1-11-8-18c-9-9-26-7-37-7zM2962 1079c17 0 46-2 62 1l2 3c-1 8 1 5-5 10-10 4-27 2-39 2v28c13 1 28-3 38 3 3 6 2 4 2 13h-40c1 10 3 37-3 45q-7 1-14-1c-5-7-3-90-3-104M2141 1918q15-2 30 1 10 1 15 9c6 13-6 27-11 37q10 7 16 18 3 11-2 20-8 12-22 15c-13 4-30 4-41-2-4-6-3-6-3-13l5-1q14 4 28 3 9 0 14-8 3-10-3-18-6-6-15-7l-13-2-2-3c6-8 20-10 28-17q5-2 5-9l-7-7q-9-5-18-1l-15 2q-3-3-4-9 6-5 15-8M1825 2864l11 3c5 8-2 21 2 31q3 7 9 9c22 7 29-31 45-39q9-4 18-1c8 3 19 9 23 18 5 11 2 23-1 34q-8 0-14-3-1-10 0-18 1-6-4-11c-26-8-25 29-47 36q-15 6-28-2-14-7-19-22-5-18 5-35M1702 1916c10 0 24 2 32 10q7 8 6 18c-1 25-25 45-42 61 15-1 31-3 45 5v3c-13 9-34 7-49 6h-13q-6 1-8-5c1-16 36-38 45-55q5-10 2-20-3-5-9-7-12-4-22 2c-5 2-6 3-11 3-3-4-4-4-4-9 7-8 19-10 28-12M3347 3082q9 2 16 6c-2 9-3 25 1 34q3 5 9 7c6 1 17-3 21-8 7-6 6-24 6-33q27 1 55 5v49q-9 1-16-3l-2-11 1-22-11-2c-21-2-11 25-25 35-8 5-21 6-30 4q-16-3-24-16c-8-13-4-30-1-45M3131 1079h56c7 0 23-1 28 3 0 8 1 5-2 11q-14 3-30 2v61c1 9 2 22-3 29-7 0-8 0-15-2-3-8-2-76-2-89-9 0-19 3-28 0-5-6-3-5-4-15M602 2554c21 0 45-3 66 0 4 1 3-1 5 3-2 26-30 73-42 100q-10 2-19-3c10-29 27-57 40-85-15 0-31 3-46-1q-6-6-4-14M3211 783q20 0 40 2c3 5 3 3 2 9-5 3-6 3-11 8-1 15-1 59 2 72 11 6 8 4 10 16-8 0-39 2-43-3 2-6 10-20 10-25 0-19 2-45-2-63l-6-3c-4-5-2-5-2-13M3208 477l44 1c0 5-7 16-8 21-3 13-3 59 1 69 11 4 8 5 9 15-9 0-37 0-44-2l-1-2q3-8 11-13c2-10 3-65 0-75-12-1-9-2-12-14M443 2552q21-1 41 2l2 4-1 4q-5 3-9 7c-2 3-2 69 0 73 4 7 7 2 10 15q-20 1-41-1c-1-4 4-13 5-17 6-15 5-55 2-72l-8-5zM3197 2267q20-2 39 1l3 5c-2 6-5 6-10 9l-2 9c-1 7-1 60 1 64l9 10q1 4-4 7c-11 0-25 2-35-2q13-39 8-81 0-7-7-12l-2-1zM3186 2571q21-2 40 1c2 8-6 16-8 23-3 17-1 49 2 66l4 2q4 5 4 13l-39-1q0-8 4-16c7-18 6-55 2-74l-7-4q-2-4-2-10M444 2251q19-1 38 1c1 5 1 3-1 7l-7 18c-3 16-2 44 1 59 1 8 3 8 8 12l1 9q-20 1-38-1l-1-2 5-15c6-14 5-49 3-65-1-7-1-8-7-12l-2-1zM3214 1972q11-1 22 1l1 6c0 8-4 4-9 9-1 9-2 67 0 73 3 6 8 6 9 13q-6 5-13 3-12 1-25-1l-3-5c3-6 7-6 11-11 0-22 3-51-1-73q-6-2-10-8l2-4q7-4 16-3M447 1654q17-1 35 1c2 5-7 18-8 25-2 16-1 38 1 55 0 9 1 9 8 15v9c-11 0-25 2-36-3q6-19 7-39 0-25-2-48l-6-5q-2-4 1-10M443 1955q20-1 39 1l2 4q-1 8-9 12c-2 7-3 67 1 73 4 7 6 4 9 14-11 3-27 2-38 1l-3-8 6-6 3-2c0-13 4-65-1-74-4-7-6-5-9-15M3201 1373c8 0 34-2 40 2 0 11-10 14-10 27 1 19-2 40 2 59 8 11 7 0 10 15-8 3-30 2-39 1l-3-5c2-6 2-5 9-10 3-10 0-48 1-60 2-16-7-13-10-29M3205 1677q20-1 39 2c1 8-8 17-9 25-1 17-1 40 1 57q1 8 8 11 2 4 3 9c-11 3-27 2-38 0-3-3-3-3-3-8q5-2 8-8c2-3 2-66 0-72-4-7-6-4-9-16M3388 2268q9-1 16 3c2 21 2 77-1 98l-5 2q-7 1-12-1l-1-4v-81l-10 5q-6 3-12 1l-1-3c6-12 14-15 26-20M635 1655q8-1 15 3c2 12 3 92-1 99q-1 3-6 3-6 1-10-3l-1-6v-79 1l-15 6q-3 0-7-4l1-2c4-10 15-13 24-18M2017 1918l12 3c4 26 3 69 0 96q-1 3-5 4-5 1-11-3-2-3-2-8-1-38 2-75-10 6-21 5l-2-2c5-12 16-15 27-20M2239 1919q8-1 15 2c4 21 3 75 0 97l-4 2q-6 1-12-2l-1-5v-78q-7 5-15 6-4 1-7-2v-2c4-10 15-13 24-18"/>
  <path d="m2893 1882 9 1q13 1 20 12 5 8 2 18-7 12-20 17l-16-1q-11-5-16-14-4-9-1-17 7-13 22-16M2896 1410c35 3 40 36 4 49-38-3-43-41-4-49M2438 2638h15q14 2 20 13 5 8 1 17-5 13-18 16h-14q-12-3-19-12-5-8-2-17c3-9 10-12 17-17M3025 1411c36-3 55 27 21 45-35 6-56-23-21-45M1130 3165h12q13 1 21 12 5 7 4 16-5 13-17 18-7 2-14 1-13-2-20-12-5-8-3-18 5-11 17-17M3024 1884q8-2 15-1 13 2 21 13 5 7 2 15-4 13-17 18h-14q-12 0-19-10-5-6-4-15c1-10 8-14 16-20M2583 2637l12 1q13 3 19 14 4 8 1 17-6 12-19 16h-12q-12-3-19-13-5-9-2-17 6-13 20-18M2888 1760q8-1 16 1 11 4 17 13 4 9 1 17-6 12-20 16l-10-1q-12-1-21-11-5-8-2-17 6-13 19-18M3030 2003l13 2q13 3 19 15 4 8 0 16-6 11-19 15l-15-1q-11-3-17-13-4-8-1-16c4-10 11-13 20-18M2887 2004h14q12 2 19 11 5 6 4 15-4 12-17 19-7 2-15 1-12-2-19-11-4-7-3-16 4-13 17-19M2748 1760h13q11 1 19 10 6 8 4 17-5 14-19 19l-10 1q-13-1-21-12-6-7-4-16 4-13 18-19M1273 2927l8 1q13 3 19 14 5 9 0 17c-4 10-12 13-21 17l-11-1q-12-2-18-14-3-8 1-18 7-12 22-16M730 2925l13 1q12 4 17 13t2 17q-7 12-20 17-7 1-15-2-12-3-17-14-3-8 0-16 7-13 20-16M2746 2003h13q12 1 21 10 5 7 4 15-3 14-17 21h-16q-13-2-19-14-4-6-2-14 4-11 16-18M996 3045q8 0 17 2 11 3 17 14 3 8-1 17-5 10-18 14l-15-1q-11-3-17-13-3-8-1-16 6-12 18-17M729 3163l14 1q12 3 17 13 4 9 1 17c-3 10-11 13-19 17l-11-1q-12-1-19-12-5-8-2-17 5-13 19-18M1036 3340q7 0 15 2 12 4 17 13 3 8 0 16-5 13-19 16l-13-1q-11-2-18-13-4-8-1-17 6-12 19-16M2755 1882q16 1 25 13 5 7 2 16-5 13-21 19l-15-2q-10-4-15-15-4-8 0-17 9-12 24-14M1139 3340l15 1q10 3 16 13 5 6 2 15-5 13-19 18h-12q-11-2-18-12-4-8-3-17 5-13 19-18M1130 2809l17 1q12 4 17 14 4 8 1 15c-4 10-11 13-19 17h-10q-12-1-19-10-6-8-4-17 5-14 17-20M1000 3163q8 1 16 4 11 5 14 15 2 8-2 15c-5 9-13 11-22 14l-13-2q-11-3-14-14-3-8 1-16 6-12 20-16"/>
  <path fill="#e9e9da" d="M3344 3245c28 0 84-4 110 1q3 8 2 17c-36-2-75 4-110-1q-3-8-2-17M1821 3024c36 1 74-3 109 1 4 5 2 12 2 18-31-1-80 4-108-1q-5-8-3-18"/>
  <path d="M725 2807h12q13 0 21 10 6 6 4 15-3 14-16 21h-15q-12-2-19-12-5-9-2-16 5-13 15-18M860 3045h14q13 3 20 14 4 7 1 15c-3 10-10 13-18 17l-15-1q-11-2-17-11-5-7-2-15 4-13 17-19M1131 2929h12q13 2 20 12 6 8 3 16-5 12-18 18l-16-1q-11-3-17-13-4-8-1-16 6-11 17-16M1266 3047h12q12 1 19 10 6 7 4 16c-2 10-9 14-17 20l-14-1q-12-1-19-12-5-7-2-16 5-11 17-17M1347 817c35-3 52 29 18 46q-19 4-31-10-5-8-3-17 4-13 16-19M940 111c35-4 52 26 22 43-13 3-27 3-35-9q-4-7-3-15 4-13 16-19M1615 112c34-3 51 25 19 46-34 3-52-25-19-46M3033 2221q7 0 14 2 12 2 17 14 4 8 0 16-6 12-19 15h-10c-7-1-16-5-19-12q-5-9-2-17 6-14 19-18M1888 350c35-3 49 30 16 46-35 2-50-27-16-46M3028 941c33-3 52 26 19 45-35 4-52-24-19-45M1269 2809q9 1 17 3 10 4 14 14 3 9-1 17-7 12-22 13l-9-1q-11-1-17-12-4-8-1-17 6-12 19-17M863 3163q8 0 15 2 13 4 16 16 2 9-1 16-7 11-20 13l-10-1q-12-1-18-12-5-7-2-16c4-10 11-13 20-18"/>
  <path fill="#e9e9da" d="M1996 3044q7-1 13 3c4 9 2 22 2 32h23q7 1 11 6l-3 3c-10 5-21 3-32 3v32q-7 1-12-2c-5-8-3-20-2-30-9 1-21 2-28-2-4-2-3-1-4-5l1-1c7-6 22-4 31-4z"/>
  <path d="M613 343c33 0 47 32 10 47-37-2-45-35-10-47M2704 2927h14q11 0 19 10 5 7 3 15-4 14-17 20l-8 1q-14 0-22-10-6-6-6-16 4-14 17-20M1346 349c36-3 53 24 19 45q-20 3-32-12-5-7-3-16 5-12 16-17M861 2927l15 1q10 2 17 10 4 8 3 15-4 13-15 19l-13 1q-13-2-21-11-6-8-3-17 4-12 17-18M1130 3047h15q11 2 18 12 4 8 2 17-5 11-17 16l-9 1q-14-1-22-11-6-6-4-16 4-13 17-19M1246 3342h14q12 3 17 12 5 8 2 16c-3 10-10 13-19 17q-7 2-15-1-11-3-16-13-4-6-1-14c3-10 10-13 18-17M751 225c35 3 42 32 7 48-34-3-43-36-7-48M3161 943h12q12 2 19 11c11 16-2 28-15 35-34 1-50-28-16-46M996 2809l9-1q12 1 21 10 6 8 5 17-5 13-17 19h-15q-11-2-18-12-4-6-3-15 5-13 18-18M2693 118c36-2 51 29 17 45-34 5-48-26-17-45M997 2927h11q11 2 18 11 6 7 4 16-4 13-18 19h-13q-11-2-18-11-4-8-3-17 5-12 19-18M3030 2306h16q11 4 17 13 4 8 1 17-4 11-16 15h-13q-11-1-19-10-5-8-3-17 5-12 17-18M2557 118c37-5 53 27 19 45q-18 3-30-9-6-8-4-17 2-12 15-19M865 2807l9 1q12 2 18 12 6 8 2 18-6 13-21 16l-9-1q-11-1-18-12-5-8-2-17 6-12 21-17M750 343c37 2 43 37 7 47-36-4-40-37-7-47M1348 110c32-1 48 28 16 46-37 3-50-28-16-46M614 225c38 4 41 38 5 47-32-2-41-35-5-47M1347 465c34-3 52 24 18 45-13 1-24 0-32-12q-4-6-3-14 4-13 17-19M726 3045h17q11 4 17 13 5 7 2 16-4 10-14 14-10 3-20 1-11-2-17-12-3-7-1-15 5-11 16-17M3030 2141q9-2 18 0 11 3 17 13 3 8 1 15-6 11-17 15l-14 1q-12-2-19-11-5-8-2-17 4-11 16-16M2020 114h13q12 2 19 11c11 15-1 27-14 34-32 4-50-25-18-45M1350 699c33-1 48 27 14 46-35 1-49-30-14-46M2157 115c34-1 47 29 14 45-38 0-48-31-14-45M2756 1410c35 5 38 37 2 47-34-4-41-38-2-47M1753 113c34-3 48 30 15 45-35 2-50-28-15-45M3117 2261h9q13 2 21 11 5 7 3 15-4 13-17 19h-16q-12-3-17-13-4-7-2-15 6-13 19-17M609 581c33-1 50 26 16 45-13 1-27-1-33-14q-4-8-1-16 7-10 18-15M1212 111q18-4 29 9 7 8 4 17-3 14-16 19c-35 3-51-27-17-45M2704 2822h15q11 2 18 11 6 8 2 16-4 12-16 17h-16q-11-2-17-12-4-6-2-14 4-12 16-18M2285 2403q9-1 18 1 12 5 17 16 2 7-1 14-5 11-17 13l-14 1q-11-3-17-11-5-8-2-16 4-12 16-18M2289 116c34-2 49 27 18 44-14 2-26 1-34-12q-4-9-1-17 6-10 17-15M1485 111c33 2 45 30 12 46h-11q-12-1-18-12c-12-17 4-28 17-34M1253 2542h6q13 1 22 12 6 7 4 16-5 14-20 18h-8q-13 0-21-11-4-7-3-16 6-14 20-19M2018 353c35-5 54 23 22 43-33 4-52-19-22-43M2428 352c35 0 48 31 13 46-33 1-47-27-13-46M891 2262h14q12 2 19 12 5 7 3 15-4 13-18 18h-8q-12 0-22-10-5-6-4-16 4-13 16-19M1213 818c35-2 49 28 15 45-33 1-48-29-15-45M1889 112q21-2 30 16 4 8 0 16-5 11-19 14c-12 0-24-2-30-15q-3-8 0-15 7-12 19-16M2430 116q20-1 29 15 3 8 1 16c-4 9-10 11-19 15-36 0-47-33-11-46M2806 2422l14 2q10 3 15 12 5 6 2 15-5 12-18 17-9 1-18-2-10-4-15-14-2-7 1-15 7-11 19-15M1209 465c36-5 53 25 20 44-27 7-52-22-20-44M2804 2074q7-1 14 1 11 4 16 13 5 8 0 17-7 11-19 15l-13-2q-10-3-16-12-4-8-1-17 6-11 19-15M2593 2426q5 1 10 3 10 4 15 13 3 8 0 16-7 12-21 15-7 1-14-2-10-4-15-14-2-7 1-15 8-12 24-16M2491 2350l14 1q10 3 16 12 5 6 2 14-4 13-17 19h-11q-12-2-19-11-6-9-3-19 5-11 18-16M1212 581c34-1 49 25 17 46-33 1-51-26-17-46M898 2165l11 1q12 4 17 14 3 9-1 17-6 11-19 14-10 1-18-3-8-5-12-14-1-8 3-17 7-10 19-12M1346 583c33-4 52 24 20 44-30 6-52-24-20-44M2830 118c33-1 49 29 15 45-34 2-50-27-15-45M3115 2179h12q12 2 18 11 4 7 3 16c-4 10-11 13-20 18h-9q-11-2-19-11-4-6-3-16 4-13 18-18M3124 2341l13 4q10 4 12 14 3 8-2 15-7 11-21 14-8-1-14-3-9-5-13-14-2-10 3-18 7-10 22-12M1214 347c32-1 48 30 12 45-34 1-47-30-12-45M2870 617c35-3 51 26 18 43-32 7-50-23-18-43M847 1383c33 4 37 35 4 46-37-3-41-38-4-46M1758 351c37 7 37 40 2 46-31-3-38-35-2-46M2805 2152q7-1 14 2 11 4 16 13 3 9-1 17-6 10-18 13-8 1-15-1-11-3-16-14-3-7 1-14 6-11 19-16M983 2357l15 1q11 2 18 11 3 7 2 13-4 13-16 19l-10 1q-13-1-21-9-6-7-4-16c1-10 8-14 16-20M3432 947c34 1 42 35 7 45-34-1-43-33-7-45M1615 821c34-2 49 26 17 45-33 4-49-26-17-45M2032 2569l14 1q11 2 17 12 4 7 1 15-6 12-19 17h-9q-12-2-19-11-6-8-3-17 6-12 18-17M987 2165l12 1q11 4 18 13 3 9 0 17-6 11-18 15l-11-1q-12-1-18-12-6-9-2-18 7-10 19-15M2802 2348q9-1 16 1 11 3 17 12 4 8 1 15-4 12-17 17l-11-1q-12-2-19-11-5-6-3-15 4-12 16-18M2779 615c11 1 23 4 28 15q4 8 1 16-7 11-18 15c-34 0-48-28-11-46M2968 118c30-1 46 30 12 46-34 1-47-29-12-46"/>
  <path fill="#e9e9da" d="m3256 1077 14 2c2 5-38 100-43 113h-13l-1-3c11-34 30-78 43-112"/>
  <path d="M2184 389c-9 4-18 9-28 7-50-13 17-83 35-19q-3 8-7 12M1352 3342q8-1 16 1 10 3 15 12 4 8 1 16-5 11-18 16h-9q-12-1-20-11-5-8-2-17c2-9 9-12 17-17M1743 2074l10 2q10 3 15 13 3 8-1 17-7 11-20 15l-12-2q-10-4-15-14-4-8 0-16 8-13 23-15M1364 1280c33-2 50 21 20 43-35 4-52-25-20-43M1211 699h6c27-1 41 21 16 43-35 6-55-21-22-43M878 2542l9 1q12 3 18 12 5 9 2 17-7 12-19 17l-12-1q-11-3-17-13-4-8-1-16c4-10 11-13 20-17M2426 471c32-3 50 23 18 43-34 4-51-24-18-43M3063 527c32-2 49 22 18 44-33 2-52-23-18-44M1079 111c33-1 45 30 12 45-33 1-45-28-12-45M1922 2078h13q11 3 17 12 4 8 1 17-6 11-18 16l-15-2q-12-4-16-14-3-8 0-14 7-11 18-15M1623 2695l14-1q11 2 19 11 5 6 2 14-3 13-16 19h-11q-12 0-20-10-5-6-3-16 4-12 15-17M2266 2790l14-1q12 2 19 11 6 6 4 15-4 12-15 17-8 2-16 1-11-2-18-11-4-7-2-15 3-11 14-17M1027 1857l5 1q13 2 20 12 4 7 1 16c-3 10-10 13-19 17q-9 1-16-3-11-5-14-15-3-9 3-16 8-11 20-12M1351 2516l15-1q12 2 19 12 5 6 3 14-4 12-15 18h-14q-11-1-18-9-7-6-4-16 4-11 14-18M1065 2542l11 1q12 3 18 13 5 8 1 16-4 11-16 15l-13 1q-11-2-18-12-5-9-1-18 6-11 18-16M987 2447l15 3q10 3 14 14 3 8-1 16-8 10-19 13l-14-2q-10-3-14-13-4-7-1-15 7-12 20-16M2428 587c33-1 47 28 13 45-32 1-48-26-13-45M2289 471c34-3 49 27 16 44-30 4-49-23-16-44M1181 1636l15 1q11 5 16 14 3 8 0 15-5 11-18 15l-12-1q-11-2-17-12-5-7-2-15 5-12 18-17M2087 1266c36-1 50 30 15 45-33 1-45-27-15-45M897 1943l11 2q12 4 18 13 3 8 0 17-7 10-19 13l-12-1q-11-2-17-12-4-9-1-16 6-13 20-16M2242 2706q8 0 16 2 9 4 13 12 4 9 0 17-7 12-19 15h-3q-14-1-23-11-6-8-3-17 4-14 19-18M2340 2459h14q13 2 19 12 4 8 1 15-5 11-16 16h-15q-11-2-17-12-4-8-2-15 4-11 16-16M2620 3352q9-1 17 1 10 5 15 15 3 8-1 15-6 10-18 14l-11-1q-11-2-17-11-5-6-2-15 4-12 17-18M1079 2403h11q11 1 19 9 6 8 4 17-4 12-14 17-7 2-13 1-12 0-20-10-5-6-3-16 3-12 16-18M2584 2350h11q12 1 19 9 6 7 4 16c-2 9-10 14-16 18l-15 1q-10-2-17-11-5-7-3-15 4-12 17-18M1161 2543q7-1 13 2 10 3 15 14 2 8-1 15-6 11-18 14h-11q-11-3-18-13-4-8-1-16 7-13 21-16M437 3348h9q13 3 19 13 4 9 0 18-7 11-20 15-8 0-14-3-10-4-14-14-3-7 1-15 7-11 19-14M1277 1636l9 1q11 2 18 11 6 8 3 16-6 14-19 18h-8q-12-2-20-11-5-8-2-17 4-13 19-18M984 2262l14 1q10 1 16 10 6 7 4 17-4 11-16 16l-11 1q-11-1-20-10-6-8-3-17c2-9 10-13 16-18M744 581c33-2 52 21 21 43l-9 1c-27 0-36-25-12-44M1920 2158h15q10 4 16 13 3 8 1 15-5 11-17 16l-15-1q-10-3-16-11-4-8-1-15 4-12 17-17M1491 349c33 7 33 40-3 46l-12-4c-25-12-11-37 15-42M603 2165h15q10 2 16 10t4 15q-4 12-17 18h-14q-11-2-18-11-3-6-2-14 4-12 16-18M2191 2832l11-1q12 2 19 11 6 7 4 16-5 12-15 17h-15q-12-2-18-11-5-7-2-15 4-12 16-17M1828 2240h10q11 1 18 10 5 8 3 17-5 12-18 18l-16-2q-10-4-15-12-3-8 0-16 6-11 18-15M1084 2310l12 1q10 3 16 12 4 7 1 16c-4 10-11 13-20 17l-12-2q-10-3-15-12-4-9 0-18 6-11 18-14M3036 2388l11 2q10 2 16 11 4 7 1 15-6 14-19 18l-11-1q-12-2-18-13-4-9 1-18c4-8 11-10 19-14M2508 3354q9-2 17-1 12 3 17 12 5 8 2 16-6 11-17 16h-11q-12-1-19-10-4-7-3-15 4-12 14-18M1432 2691l14-1q12 2 19 11 5 6 3 14-3 13-16 19h-11q-11-1-19-9-6-8-4-17 3-11 14-17M1619 585c30 0 44 30 10 46-34-2-43-28-10-46M2023 2078l6 1q13 2 19 12 4 9 1 17-7 13-21 16-6-1-13-3-10-3-14-14-3-8 1-17 8-10 21-12M795 1945q7-2 14-1 12 1 19 9 6 8 4 17-4 12-16 17c-10 1-20 2-28-6q-6-6-6-15 1-13 13-21M1772 1285c32 2 46 27 14 45-36 0-47-27-14-45M967 2544h15q10 2 17 10 5 8 3 16-4 12-15 17l-8 1q-13 1-22-8-6-8-5-17 4-12 15-19M3062 617c33 0 46 29 13 45q-19 3-30-13-4-9 0-17 5-11 17-15M654 2070l12 1q11 3 16 11 5 7 2 16-5 10-17 16l-16-1q-10-3-15-12-4-6-2-15 6-12 20-16M760 1434q8-1 16 2 10 4 14 12 5 8 0 17-6 10-18 14-6 0-13-2-10-3-15-11-4-7-2-16 5-12 18-16M1078 2219l11-1q11 0 19 9 5 6 5 14-3 14-16 21h-14q-10-2-17-10-4-6-4-14 4-13 16-19M1641 2074h11q12 3 19 12 5 9 1 18-6 11-17 15h-5q-14-1-23-10-5-7-3-16 4-13 17-19M1829 2157l12 1q10 2 17 10 5 7 3 16-4 12-15 17l-9 1q-13-1-21-10-6-7-5-16 4-13 18-19M1639 2157h11q12 2 20 11 5 7 3 16-5 11-16 16-6 2-12 1-12-1-19-10-5-7-3-16 4-12 16-18M1828 2076h14q11 3 16 12 5 8 2 17-5 10-16 14h-15q-11-3-17-13-4-7-1-15 6-11 17-15M1444 2613l11 2q11 5 15 14 3 10-2 18-8 10-20 12l-12-3q-10-3-14-12-3-8 1-17 7-11 21-14M1737 2240h7q13 2 20 11 4 8 3 17-6 11-17 16h-13q-12-2-17-12-6-9-2-18 7-11 19-14M2965 617c32 0 46 25 16 45-32 2-49-27-16-45M1616 468c32-2 47 23 19 44h-5c-30 2-43-23-14-44M987 1944h10q12 0 19 10 7 6 4 16-2 11-14 17l-14 1q-12-2-18-11-5-7-3-16c3-9 9-12 16-17M2415 2421l14-1q12 1 19 10 5 7 3 15-3 11-14 18h-11q-11 0-20-9-5-6-5-15 3-13 14-18M1080 1944q8 0 16 2 9 3 14 12t0 17q-5 10-17 13-8 1-14-1-10-3-15-13-4-6-1-14 5-12 17-16M2153 707c35-7 50 26 21 42q-18 4-30-9-6-7-4-16c1-9 6-12 13-17M1735 2158h13q11 2 18 12 5 7 2 16-5 10-16 15h-14q-10-2-17-10-5-8-2-17 5-11 16-16M717 2005q8-1 16 1 11 3 15 12 4 7 1 15-5 11-17 16h-7q-12 1-19-8t-5-19q5-11 16-17M2291 588c32-1 47 27 15 43-34 1-47-26-15-43M1635 2242l11-1q12 0 21 9 6 6 5 15-3 11-14 18l-14 1c-6-1-15-5-19-11q-4-6-3-13 3-12 13-18M3292 949c32-4 50 22 18 42-11 1-22 1-29-10q-5-6-4-15c2-9 8-12 15-17M1749 823c32-5 52 22 20 42-31 3-46-19-20-42M1615 705c35-2 46 24 16 43h-2c-31 0-42-25-14-43M1754 469c32 0 44 31 10 44-28 0-43-30-10-44M1102 891c33 2 44 30 12 44-32 1-45-27-12-44M1621 351c32 0 41 31 8 45-30-3-40-31-8-45M2011 821c75-8 38 61 3 38l-3-5zM1098 1084q20-4 32 10 3 8 2 15-5 11-16 16c-31 2-49-21-18-41M1101 988c33-1 45 30 10 44-31-1-40-26-10-44M1099 1177c32-4 48 23 18 41-33 3-48-23-18-41M1889 824c12 0 18 2 29 7 2 8 2 20-3 26-24 29-78-32-26-33M1634 1990l11 1q10 1 16 10 6 6 4 15-4 11-15 16l-13-1c-6 0-15-5-18-10q-3-6-2-13 4-12 17-18M1915 1316h-1c-28 40-78-24-17-30 16 7 21 12 18 30M1632 1912h11q12 0 20 8 2 5 1 8-4 10-15 15h-2c-9 0-22-1-28-10q-3-4-1-10 5-8 14-11"/>
  <path fill="#e9e9da" d="M1383 1816c19 0 40-5 57 1 5 6 3 9 4 16-19-1-40 3-58-3q-5-6-3-14M2494 1853a16 16 0 1 1 12 30 16 16 0 0 1-12-30M1839 1971c14 0 29-3 43 1q4 5 4 11c-12 0-34 4-44-2q-4-4-3-10M2065 1970c12 1 33-4 43 3 3 1 2 7 3 10q-22 2-42-1-6-4-4-12M3026 1165c10 0 15-2 22 5 1 8 0 9-2 15-10 1-13 2-21-4-2-7-1-9 1-16"/>
  <path fill="#2c2414" d="M1986 3224c14-3 39-2 52 4l1 2-3 1q-30 1-60-1z"/>
  <path d="M1754 582c6 2 4 0 7 5-5 5-4 3-12 5l-4 3-2-2c4-8 2-5 11-11"/>
</svg>
