<svg xmlns="http://www.w3.org/2000/svg" width="3303" height="4096" preserveAspectRatio="none" style="display:block" viewBox="0 0 4096 4096">
  <path d="M3333 0h51c6 3 17 8 18 15 6 38 1 79 2 117q0 22-11 40-15 26-39 41l-1 59c16 0 38-3 50 5 8 20 3 219 3 257h-25l12 36c6 3 20 10 21 18q5 59-1 119c0 6-15 15-20 18v3c0 32-18 19-28 36 1 6 0 6 4 11 14 5 83 1 102 1h195q39 2 77 1c133-2 276 63 332 190 12 27 12 50 21 73v2789c-4 8-7 35-11 46-47 146-199 217-343 218l-1385 1h-413c-77 0-166 4-242-6-128-17-266-116-282-252q-4-42-3-85V1761q-16-7-25-22c-17-32-15-273-2-309 5-14 13-20 27-26v-216c0-110-13-204 68-292 54-59 119-93 197-110 49-11 91-8 139-9q130-2 260-2h936c39 0 85 2 123 0 8-7 3-15-3-21-8-1-9 0-16-4-11-14 6-21-24-41-6-3-4-109-2-121 1-8 13-15 18-18l3-1 12-35q-13 2-24-3c-2-27-1-83-1-112 0-43-2-100 2-142 11-8 36-5 51-5 0-13 3-29-6-38-40-5-18 26-63 26l-452-1-1106-1q-476 2-951-1c-124-1-247 3-371-1q-21 1-42-5-14-6-25-16C119 218 12 118 5 99Q1 89 6 78q6-7 15-11c22-5 100-4 126-5q192-2 385-7l652-13 1649-31 397-8c25-1 81 2 103-3"/>
  <path fill="#bdbfc4" d="M1759 787c42-4 102-1 146-1h1769c120 0 224 5 319 91 49 43 88 107 89 175q2 98 1 197v2549c2 169-160 278-317 284-40 3-99 2-140 2H1845c-121 0-224-3-322-88-50-44-90-109-92-177q-2-92-1-184V1170c0-104-10-185 66-269 71-76 161-109 263-114"/>
  <path d="M1753 871c26-4 88-1 117-1h1788q58-1 116 2c91 7 198 78 203 177 3 51 1 111 1 163v2455q2 75-1 150c-7 113-122 175-223 182-17 2-70 0-89 0H1829c-101 5-201-11-264-100-33-45-31-88-30-142V1209c0-50-3-109 1-159 9-109 120-170 217-179"/>
  <path fill="#2a2b2a" d="M1762 881c49-2 105-1 154-1h1752c83 0 163-4 231 53 30 25 64 74 66 115q2 72 1 143v261l-1 866v1019l1 319c0 52 3 110-1 161-9 113-118 164-215 172-27 2-85 1-114 1l-217-1H2059l-188 1c-40 0-80 2-119-2-90-6-195-68-203-166-4-47-1-111-1-160V1199q-1-72 1-144c1-34 19-71 41-96 46-54 105-72 172-78"/>
  <path fill="#bdbfc4" d="M1752 3330h988v244h-988z"/>
  <path fill="#414467" d="M1765 3340h963c-1 26 1 217-3 224h-960z"/>
  <path fill="#bdbfc4" d="M1752 3616c108 2 221 0 329 0h659v244h-988z"/>
  <path fill="#414467" d="M1766 3627h961v223h-962z"/>
  <path fill="#bdbfc4" d="M1752 3044h988v244l-367-1h-621z"/>
  <path fill="#414467" d="M1765 3054h963l-1 220-3 3h-959z"/>
  <path fill="#bdbfc4" d="M1752 2466q183 1 366 0h622v244h-988z"/>
  <path fill="#414467" d="M1765 2477h963c-2 70-1 151 0 222l-964 1z"/>
  <path fill="#bdbfc4" d="M1752 1884h989v242h-989z"/>
  <path fill="#414467" d="M1765 1894h963q0 111-1 222h-962z"/>
  <path fill="#bdbfc4" d="M1752 2758h988v243h-988z"/>
  <path fill="#414467" d="M1765 2768h963c-2 74 1 149-1 222h-962z"/>
  <path fill="#bdbfc4" d="M1760 2175h981l-1 232c0 8 2 5-2 10-25 3-75 0-102 0l-202 1h-682c0-18-1-237 2-242z"/>
  <path fill="#414467" d="M1765 2185q156 2 312 1h651c-2 24 0 55 0 80l-1 141h-962z"/>
  <path fill="#bdbfc4" d="M1752 1592h989v243h-989z"/>
  <path fill="#414467" d="M1807 1603h920v221h-962v-221z"/>
  <path fill="#bdbfc4" d="M1752 1010h988v242h-988z"/>
  <path fill="#414467" d="M1765 1020h963c-2 72 2 152-1 222q-172-2-344 0h-618z"/>
  <path fill="#bdbfc4" d="m1752 1301 988 1c-1 77 0 163 1 242l-989-1z"/>
  <path fill="#414467" d="M1765 1312h963c-1 25 1 213-2 221h-961z"/>
  <path fill="#bdbfc4" d="M2790 3330h958v244h-959z"/>
  <path fill="#414467" d="M2802 3340h933v223c-7 2-59 1-70 1h-863z"/>
  <path fill="#bdbfc4" d="M2789 2466h959v244h-958z"/>
  <path fill="#414467" d="M2803 2477h932v218l-1 3c-5 3-175 1-195 1l-737 1v-154c0-16-1-54 1-69"/>
  <path fill="#bdbfc4" d="M2790 3616h626q166 1 332 0v244h-958z"/>
  <path fill="#414467" d="M2859 3627h876v223h-933v-223z"/>
  <path fill="#bdbfc4" d="M2790 3044h958c-2 79 0 164 0 243h-639c-102 0-219 3-319 0z"/>
  <path fill="#414467" d="m2802 3054 933 1v222h-933z"/>
  <path fill="#bdbfc4" d="M2790 2175h958v232l-1 8c-7 6-78 2-92 2l-223 1h-642z"/>
  <path fill="#414467" d="m2802 2186 933-1v222h-933z"/>
  <path fill="#bdbfc4" d="m2789 1884 959-1-1 243h-958z"/>
  <path fill="#414467" d="M2802 1894h932l1 222h-933z"/>
  <path fill="#bdbfc4" d="M2790 2758h958v243h-958z"/>
  <path fill="#414467" d="M2802 2768h933v220c-7 4-96 2-112 2h-821z"/>
  <path fill="#bdbfc4" d="M2789 1592h959v242l-959 1z"/>
  <path fill="#414467" d="M2844 1603c105-2 216 0 322 0h568l1 221h-933v-221z"/>
  <path fill="#bdbfc4" d="M2789 1010h959v242h-959z"/>
  <path fill="#414467" d="M2802 1020h932v222h-932z"/>
  <path fill="#bdbfc4" d="M2789 1301h959l-1 242h-355l-603 1z"/>
  <path fill="#414467" d="M2802 1312h933v149c0 14 1 61-2 72h-931z"/>
  <path fill="#2a2b2a" d="M3291 11c12-1 96-6 99 6 7 29 1 63 3 92 4 105-72 116-157 116l-75-1c-30 0-44-5-54 27-84-2-173-1-257-1h-449l-1424-1-523-1H191q-23-3-40-19C128 211 17 112 14 89q-1-4 3-9 7-6 17-6 45-2 91-2l229-5 676-13z"/>
  <path d="M3248 100c16 0 33 4 39 21q5 11-1 21c-6 12-14 14-26 18-17 1-38-4-43-24q-3-10 3-19c7-11 16-13 28-17"/>
  <path fill="#2a2b2a" d="M3243 110c32-2 51 22 20 40-31 3-52-19-20-40"/>
  <path fill="#606060" d="m3114 280 282 1q-2 121-1 242c-9 3-85 1-101 1l-181 1zM3218 578h74c47 25 49 111 0 136h-78c-46-29-46-109 4-136M3141 534h227c5 10 15 25 8 35h-250z"/>
  <path fill="#bdbfc4" d="m1415 1415 1 3c3 15 1 324 1 325l-2 3-7-2c-26-34-16-255-7-305q2-15 14-24"/>
  <path fill="#2a2b2a" d="M3337 222h2l3 1c2 14 1 35 1 49h-169l-6-1c-4-6-2-28-2-37 56 0 120 6 171-12"/>
  <path fill="#606060" d="M3127 724c23 0 249-1 254 2q2 10 0 19c-26 2-248 1-252-2q-5-9-2-19M3156 754h198c0 8 2 18-4 23h-122c-15 0-56 1-70-1q-4-10-2-22M3119 579l36-1c-33 35-34 97-3 134v2c-51 8-51-13-48-56 2-28-9-64 15-79M3354 578c70-1 45 20 51 81 1 18 3 52-18 55h-32c32-38 33-98-1-136"/>
  <path fill="#606060" d="M3310 578h29c40 30 39 104 1 136h-29c35-35 38-102-1-136M3169 578h30l-4 4c-36 34-31 98 3 132h-29c-38-35-39-101 0-136"/>
</svg>
