<svg version="1.1" xmlns="http://www.w3.org/2000/svg" style="display: block;" viewBox="0 0 3813 3813" width="3816" height="3813" preserveAspectRatio="none">
<path transform="translate(0,0)" fill="rgb(66,66,65)" d="M 382.503 0 L 3370.83 0 L 3372.76 0.210405 C 3416.54 4.61172 3490.25 3.89041 3535.2 2.72688 C 3624.73 0.409542 3690.21 9.64391 3752.95 81.4941 C 3808.09 144.649 3812.98 216.617 3810 296.218 C 3809.35 338.36 3809.45 389.175 3810.12 431.312 C 3809.83 447.063 3809.68 461.462 3810.18 477.193 C 3770.61 476.89 3731.79 491.567 3731 537.761 C 3730.58 553.944 3736.73 569.605 3748.06 581.17 C 3766.97 600.39 3785.46 600.084 3809.61 599.947 L 3809.98 646.546 L 3813 648.491 L 3813 649.766 C 3808.91 657.204 3810.66 689.159 3810.74 699.969 C 3809.48 715.698 3809.79 731.015 3809.88 746.763 C 3786.15 746.46 3768.49 747.031 3749.78 764.164 C 3728.78 783.406 3725.54 817.552 3740.79 841.128 C 3756.9 866.021 3782.68 870.112 3809.86 869.793 L 3810.15 915.853 L 3813 915.84 L 3813 970.908 L 3809.76 970.314 C 3809.87 985.075 3809.67 1002.15 3810.38 1016.78 C 3785.79 1016.46 3765.84 1017.3 3747.01 1036.17 C 3723.82 1059.4 3726.06 1100.35 3751.08 1121.48 C 3770.33 1137.74 3786.46 1137.55 3810.08 1137.37 L 3810.05 1185.78 L 3813 1185.94 L 3813 1242.01 L 3810.48 1241.16 C 3809.94 1257.63 3809.8 1270.49 3810.5 1286.91 C 3786.72 1286.34 3768.36 1286.24 3749.26 1304.07 C 3737.39 1315.01 3730.64 1330.41 3730.64 1346.55 C 3730.53 1362.49 3736.78 1378.86 3748.69 1389.45 C 3769.22 1407.73 3785.47 1407.46 3810.43 1407.16 C 3810.28 1422.86 3810.03 1438.55 3809.67 1454.24 L 3813 1452.8 L 3813 1509.56 L 3810.04 1508.46 C 3810.08 1522.56 3809.63 1540.46 3810.45 1554.26 C 3786.84 1553.96 3766.21 1554.82 3747.87 1573.01 C 3736.55 1584.36 3730.17 1599.72 3730.12 1615.75 C 3730.14 1632.11 3736.82 1647.76 3748.61 1659.1 C 3766.65 1676.57 3786.58 1677.54 3809.9 1677.23 C 3810.45 1691.41 3809.03 1715.14 3813 1726.7 L 3813 1779.63 L 3810.16 1778.41 C 3810.11 1793.51 3809.83 1809.14 3810.05 1824.19 C 3787.12 1823.64 3768.48 1824.17 3749.98 1840.95 C 3738.2 1851.68 3731.3 1866.76 3730.88 1882.69 C 3730.21 1899.12 3736.21 1915.12 3747.52 1927.05 C 3762.35 1942.58 3780.81 1947.3 3801.53 1947.31 C 3804.43 1947.31 3807.34 1947.27 3810.24 1947.2 C 3810.41 1959.26 3808.94 1987.26 3813 1996.53 L 3813 2048.82 C 3809.28 2053.53 3810.17 2061.63 3809.78 2068.79 L 3810.43 2094.17 C 3786.2 2093.8 3768.62 2093.79 3749.49 2111.32 C 3725.29 2133.49 3725.49 2174.56 3748.38 2197.44 C 3765.27 2214.32 3787.14 2217.39 3809.87 2217.22 C 3810 2231.61 3809.74 2248.13 3810.41 2262.35 L 3813 2261.64 L 3813 2272.13 C 3807.7 2290.55 3812.33 2342.42 3810.18 2363.38 C 3786.04 2364.43 3765.4 2362.85 3747.38 2382.16 C 3724.64 2406.52 3726.78 2447.18 3751.12 2469.61 C 3768.65 2485.74 3787.61 2484.01 3809.52 2484.35 C 3809.78 2497.22 3809.44 2520.17 3810.73 2532.03 C 3810.51 2550.76 3811.05 2566.95 3811.34 2585.36 C 3809.13 2598.87 3809.78 2618.55 3809.79 2632.7 C 3781.53 2635.83 3766.58 2630.62 3743.08 2656.83 C 3732.58 2668.55 3729.66 2686.15 3731.84 2701.58 C 3734.03 2717.89 3743 2732.51 3756.54 2741.86 C 3773.39 2753.63 3790.46 2754.31 3810 2753.86 L 3809.99 2801.27 L 3810.34 2854.13 C 3809.94 2869.66 3809.84 2885.2 3810.05 2900.74 C 3786.32 2900.59 3765.13 2901.96 3747.02 2920.55 C 3735.65 2932.29 3729.53 2948.14 3730.05 2964.47 C 3730.42 2980.56 3737.31 2995.8 3749.13 3006.71 C 3766.59 3022.8 3787.52 3024.3 3809.92 3023.8 C 3809.96 3038.45 3809.45 3058.08 3810.48 3072.32 C 3810.13 3089.71 3810.01 3107.1 3810.12 3124.49 C 3810.04 3139.76 3809.73 3155.63 3809.96 3170.84 C 3786.52 3170.64 3765.53 3171.89 3747.49 3189.78 C 3736.07 3201.13 3729.82 3216.68 3730.21 3232.78 C 3731.13 3279.47 3769.47 3294.44 3809.98 3293.77 C 3809.97 3309.45 3809.72 3325.78 3810.2 3341.39 L 3810.11 3489.21 C 3810.16 3587.5 3816.82 3664.68 3739.46 3741.88 C 3675.39 3805.82 3612.18 3810.17 3528.8 3809.71 L 3307.54 3809.57 L 3258.36 3810.03 C 3258.57 3797.78 3259.25 3787.62 3256.12 3775.61 C 3249.11 3748.74 3227.11 3727.14 3198.04 3726.75 C 3182.38 3726.61 3167.35 3732.91 3156.46 3744.17 C 3136.19 3764.8 3138.37 3783.71 3138.51 3809.75 L 3086.99 3809.77 C 3065.49 3809.33 3042.99 3809.6 3021.41 3809.52 C 3005.25 3810.15 2987.14 3809.78 2970.83 3809.8 C 2970.86 3784.87 2971.23 3766.62 2954.07 3746.76 C 2921.33 3708.86 2863.79 3728.36 2852.67 3774.78 C 2849.59 3787.61 2850.35 3796.99 2850.54 3809.86 C 2833.46 3809.99 2817.26 3810.09 2800.15 3809.46 L 2733.93 3809.62 C 2718.95 3810.45 2698.67 3809.85 2683.29 3809.87 L 2683.03 3795.26 C 2682.69 3760.45 2661.41 3726.15 2623.46 3726.75 C 2607.39 3727.11 2592.15 3733.98 2581.23 3745.79 C 2563.4 3765.03 2562.79 3785.76 2563.38 3809.81 L 2513.46 3809.74 L 2447.45 3809.55 L 2398.05 3810 C 2398.54 3786.43 2397.71 3766.14 2380.84 3747.13 C 2369.95 3734.86 2354.5 3727.6 2338.1 3727.05 C 2322.71 3726.59 2306.75 3733.1 2296.44 3744.32 C 2275.39 3767.23 2278.34 3782.02 2277.98 3809.45 C 2262.76 3810.32 2242.39 3809.76 2226.78 3809.8 C 2205.27 3809.3 2182.42 3809.63 2160.8 3809.6 L 2110.37 3809.87 C 2110.22 3784.52 2111.57 3767.05 2093.03 3746.04 C 2082.6 3734.23 2066.68 3727.15 2050.81 3727.21 C 2034.83 3727.34 2019.58 3733.97 2008.58 3745.56 C 1989.98 3765.02 1989.99 3785.38 1990.36 3809.89 C 1973.63 3810 1956.9 3809.88 1940.17 3809.53 C 1917.99 3809.49 1895.81 3809.63 1873.63 3809.93 L 1823.08 3809.6 L 1822.8 3784.32 C 1822.63 3769 1813.26 3752.51 1802.42 3742.27 C 1791.8 3732.04 1777.48 3726.56 1762.75 3727.09 C 1746.25 3727.82 1730.76 3735.21 1719.81 3747.57 C 1702.91 3766.56 1701.96 3786.42 1703.32 3809.92 L 1653.34 3809.72 L 1587.3 3809.56 L 1537.69 3809.99 C 1538.2 3787.54 1537.87 3769.97 1523.22 3750.84 C 1513.38 3737.95 1498.75 3729.6 1482.65 3727.67 C 1467.39 3725.9 1452.07 3730.46 1440.24 3740.27 C 1414.9 3761.33 1419.43 3782.17 1416.64 3809.74 C 1400.21 3810.02 1383.18 3809.75 1366.7 3809.72 L 1300.52 3809.56 C 1283.93 3810.02 1266.53 3809.87 1249.87 3809.98 C 1250.39 3786.04 1250.8 3766.04 1233.27 3746.83 C 1222.59 3734.94 1207.47 3727.99 1191.49 3727.63 C 1175.32 3727.34 1159.75 3733.7 1148.4 3745.21 C 1129.26 3764.51 1129.74 3785.25 1130.11 3809.73 C 1113.37 3810.05 1096.62 3809.95 1079.88 3809.45 L 1013.38 3809.69 L 962.372 3810.02 C 962.875 3783.88 964.278 3766.46 944.452 3745 C 933.8 3733.47 917.868 3726.9 902.046 3727.33 C 886.056 3727.85 870.959 3734.83 860.204 3746.67 C 842.948 3765.44 842.095 3786.34 842.671 3809.87 C 826.183 3809.95 809.694 3809.84 793.209 3809.54 C 792.267 3809.57 791.325 3809.59 790.384 3809.62 C 666.436 3809.64 542.351 3809.5 418.418 3809.56 L 299.321 3809.73 C 261.417 3809.79 226.193 3811.66 189.093 3804.3 C 97.7164 3786.16 28.2751 3712.26 8.60911 3622.2 C 0.66237 3585.81 3.1683 3537.55 3.18385 3499.44 L 3.05218 3340.99 L 2.94785 3293.75 C 25.1044 3294.4 47.3393 3291.89 64.385 3276.18 C 76.1502 3265.17 82.8957 3249.82 83.0528 3233.71 C 83.3049 3217.31 76.9025 3201.51 65.3066 3189.91 C 47.3549 3172.13 26.2752 3170.72 2.94159 3170.91 L 3.15985 3124.2 C 2.17271 3114.53 2.95672 3083.57 2.92686 3072.28 L 3.10622 3023.84 C 24.9294 3024.29 46.8884 3021.93 63.8409 3006.79 C 76.1006 2995.81 83.2059 2980.2 83.4342 2963.75 C 83.7713 2947.55 77.5432 2931.91 66.1665 2920.37 C 47.7439 2901.76 27.0811 2900.55 3.11327 2900.93 L 2.9929 2854.04 L 2.71518 2801.83 L 3.1514 2753.88 C 26.0538 2754.16 44.5884 2753.73 63.2522 2737.47 C 75.3371 2727.09 82.6302 2712.2 83.4267 2696.28 C 84.1361 2680.17 78.2416 2664.46 67.1056 2652.79 C 48.0479 2632.89 27.5546 2633.84 2.86641 2633.77 C 3.22139 2617.78 3.14539 2601.78 2.63847 2585.78 C 3.16776 2567.43 2.96644 2550.5 2.64061 2532.19 C 3.32624 2517.76 3.0695 2501.09 3.19427 2486.48 C 42.7294 2482.75 82.8001 2474.37 82.5503 2424.21 C 82.6228 2408.1 76.0642 2392.67 64.4147 2381.54 C 45.3512 2363.27 26.8065 2363.88 2.8491 2363.94 C 3.10006 2347.63 3.39881 2332.52 2.50947 2316.17 C 2.76192 2297.86 1.86351 2281.08 1.81535 2263.12 C 3.82862 2250.8 3.00557 2230.1 2.91358 2216.98 L 6.6433 2217.07 C 68.5842 2217.91 108.254 2165.67 63.6332 2111.11 C 50.3049 2094.81 23.2302 2093.91 2.9601 2094.15 C 3.26964 2078.72 3.04107 2062.81 3.01388 2047.33 L 0 2047.68 L 0 2025.82 C 2.83515 2013.69 2.33338 2006.62 2.22624 1994.34 C 3.67385 1980.72 3.01613 1961.25 2.94825 1947.14 C 26.5013 1947.76 46.8275 1946 64.7995 1928.32 C 76.3633 1916.92 82.8631 1901.35 82.8388 1885.11 C 82.6036 1868.85 75.8614 1853.36 64.1193 1842.1 C 45.4733 1824.33 26.4891 1823.9 2.9641 1824.11 C 3.17973 1808.56 3.27836 1794.56 2.622 1779.04 L 0 1779.86 L 0 1723.29 C 3.93598 1719.44 2.67066 1686.06 2.93983 1677.14 C 26.0467 1677.64 46.0893 1676.41 64.128 1659.65 C 76.3451 1648.34 83.2415 1632.41 83.1296 1615.76 C 83.1083 1599.68 76.6029 1584.28 65.0845 1573.05 C 47.0889 1555.68 25.9798 1554.24 2.82177 1554.27 C 3.12838 1539.15 2.95278 1523.56 2.97545 1508.41 L 0 1509.48 L 0 1454.17 L 2.62522 1454.37 C 3.15734 1438.81 2.79778 1422.82 2.64853 1407.22 C 52.7754 1407.58 72.1419 1397.24 84.8077 1347.5 C 72.9943 1297.58 52.7386 1286.16 2.98108 1286.9 C 3.17 1271.21 3.62471 1255.77 2.29947 1240.12 C 2.72635 1222.05 2.84804 1203.97 2.6645 1185.89 C 3.38198 1171 3.00081 1152.86 3.09237 1137.72 C 11.8274 1137.62 23.987 1138.16 32.3407 1136.39 C 98.3377 1122.43 101.799 1038.05 36.6101 1019.48 C 24.5408 1016.04 15.5269 1016.75 3.17736 1016.94 C 3.20938 1001.24 3.4408 985.738 2.30941 970.067 C 2.44598 957.02 3.89654 930.449 0 918.951 L 0 917.093 L 2.901 916.029 L 3.22763 869.882 C 26.6701 870.121 49.1834 867.432 66.5761 849.666 C 78.047 837.949 84.21 822.04 83.6262 805.653 C 82.5891 777.374 60.7194 754.212 33.6441 748.13 C 23.7488 745.907 13.0135 746.615 2.9121 746.849 L 2.9388 700.052 C 3.1094 682.305 2.93847 664.555 2.42611 646.815 C 3.5889 633.087 3.05936 614.068 3.06829 599.92 C 27.5816 600.175 44.9123 599.951 64.6682 582.153 C 76.3326 571.645 83.5177 555.606 83.6767 539.798 C 83.8222 523.408 77.2774 507.668 65.5541 496.212 C 46.8359 477.823 27.0902 476.446 2.96636 476.908 L 3.34039 431.532 C 4.24575 384.373 2.98155 336.414 3.39795 289.188 C 3.70267 254.628 0.938717 224.665 7.80504 190.593 C 14.1399 159.825 26.3696 130.573 43.8195 104.451 C 109.134 4.95897 202.509 -2.70022 308.813 2.95639 C 326.855 3.91641 365.72 3.98833 382.503 0 z"/>
<path transform="translate(0,0)" fill="rgb(179,179,178)" d="M 1079.88 3809.45 C 1079.23 3766.22 1079.25 3730.14 1112.26 3696.33 C 1132.99 3675.43 1161.31 3663.81 1190.75 3664.15 C 1219.87 3663.96 1247.8 3675.66 1268.09 3696.55 C 1300.79 3730.09 1300.73 3766.26 1300.52 3809.56 C 1283.93 3810.02 1266.53 3809.87 1249.87 3809.98 C 1250.39 3786.04 1250.8 3766.04 1233.27 3746.83 C 1222.59 3734.94 1207.47 3727.99 1191.49 3727.63 C 1175.32 3727.34 1159.75 3733.7 1148.4 3745.21 C 1129.26 3764.51 1129.74 3785.25 1130.11 3809.73 C 1113.37 3810.05 1096.62 3809.95 1079.88 3809.45 z"/>
<path transform="translate(0,0)" fill="rgb(179,179,178)" d="M 1366.7 3809.72 C 1366.03 3765.81 1366.02 3730.51 1399.58 3696.47 C 1420 3675.48 1448.12 3663.74 1477.4 3663.99 C 1506.75 3663.98 1534.85 3675.92 1555.21 3697.06 C 1588.17 3731 1587.68 3765.9 1587.3 3809.56 L 1537.69 3809.99 C 1538.2 3787.54 1537.87 3769.97 1523.22 3750.84 C 1513.38 3737.95 1498.75 3729.6 1482.65 3727.67 C 1467.39 3725.9 1452.07 3730.46 1440.24 3740.27 C 1414.9 3761.33 1419.43 3782.17 1416.64 3809.74 C 1400.21 3810.02 1383.18 3809.75 1366.7 3809.72 z"/>
<path transform="translate(0,0)" fill="rgb(179,179,178)" d="M 2226.78 3809.8 C 2226.75 3764.92 2225.3 3730.47 2260.24 3695.77 C 2281.22 3674.85 2309.78 3663.34 2339.4 3663.85 C 2368.22 3664.18 2395.69 3676.18 2415.51 3697.1 C 2447.57 3730.59 2448.26 3766.37 2447.45 3809.55 L 2398.05 3810 C 2398.54 3786.43 2397.71 3766.14 2380.84 3747.13 C 2369.95 3734.86 2354.5 3727.6 2338.1 3727.05 C 2322.71 3726.59 2306.75 3733.1 2296.44 3744.32 C 2275.39 3767.23 2278.34 3782.02 2277.98 3809.45 C 2262.76 3810.32 2242.39 3809.76 2226.78 3809.8 z"/>
<path transform="translate(0,0)" fill="rgb(179,179,178)" d="M 1940.17 3809.53 C 1939.47 3765.64 1939.35 3730.81 1972.7 3696.61 C 1992.91 3675.68 2020.77 3663.88 2049.86 3663.93 C 2078.9 3663.67 2106.82 3675.16 2127.27 3695.78 C 2162.24 3730.92 2160.48 3764.9 2160.8 3809.6 L 2110.37 3809.87 C 2110.22 3784.52 2111.57 3767.05 2093.03 3746.04 C 2082.6 3734.23 2066.68 3727.15 2050.81 3727.21 C 2034.83 3727.34 2019.58 3733.97 2008.58 3745.56 C 1989.98 3765.02 1989.99 3785.38 1990.36 3809.89 C 1973.63 3810 1956.9 3809.88 1940.17 3809.53 z"/>
<path transform="translate(0,0)" fill="rgb(179,179,178)" d="M 2800.15 3809.46 C 2799.91 3765.47 2799.31 3730.64 2832.86 3696.31 C 2853.2 3675.62 2881.02 3664 2910.04 3664.05 C 2970.17 3663.79 3014.71 3709.16 3020.23 3767.41 C 3021.56 3781.4 3021.46 3795.48 3021.41 3809.52 C 3005.25 3810.15 2987.14 3809.78 2970.83 3809.8 C 2970.86 3784.87 2971.23 3766.62 2954.07 3746.76 C 2921.33 3708.86 2863.79 3728.36 2852.67 3774.78 C 2849.59 3787.61 2850.35 3796.99 2850.54 3809.86 C 2833.46 3809.99 2817.26 3810.09 2800.15 3809.46 z"/>
<path transform="translate(0,0)" fill="rgb(179,179,178)" d="M 2513.46 3809.74 C 2513.23 3765.33 2512.54 3729.99 2546.73 3695.6 C 2567.24 3674.94 2595.29 3663.54 2624.4 3664.02 C 2653.73 3664.05 2681.8 3676.01 2702.13 3697.15 C 2732.73 3729.38 2735.31 3767.65 2733.93 3809.62 C 2718.95 3810.45 2698.67 3809.85 2683.29 3809.87 L 2683.03 3795.26 C 2682.69 3760.45 2661.41 3726.15 2623.46 3726.75 C 2607.39 3727.11 2592.15 3733.98 2581.23 3745.79 C 2563.4 3765.03 2562.79 3785.76 2563.38 3809.81 L 2513.46 3809.74 z"/>
<path transform="translate(0,0)" fill="rgb(179,179,178)" d="M 793.209 3809.54 C 792.615 3766.16 791.683 3731.22 824.659 3697.46 C 845.55 3676.07 874.214 3664.05 904.112 3664.15 C 932.05 3664.16 960.656 3674.92 980.007 3695.26 C 1013.04 3729.98 1014.2 3764.82 1013.38 3809.69 L 962.372 3810.02 C 962.875 3783.88 964.278 3766.46 944.452 3745 C 933.8 3733.47 917.868 3726.9 902.046 3727.33 C 886.056 3727.85 870.959 3734.83 860.204 3746.67 C 842.948 3765.44 842.095 3786.34 842.671 3809.87 C 826.183 3809.95 809.694 3809.84 793.209 3809.54 z"/>
<path transform="translate(0,0)" fill="rgb(179,179,178)" d="M 1653.34 3809.72 C 1652.79 3765.82 1651.38 3732.59 1684.75 3697.81 C 1705.15 3676.26 1733.49 3664.02 1763.16 3663.94 C 1791.69 3663.55 1819.17 3674.68 1839.4 3694.8 C 1868.09 3723.18 1873.92 3754.07 1873.86 3792.48 C 1873.87 3798.3 1873.79 3804.12 1873.63 3809.93 L 1823.08 3809.6 L 1822.8 3784.32 C 1822.63 3769 1813.26 3752.51 1802.42 3742.27 C 1791.8 3732.04 1777.48 3726.56 1762.75 3727.09 C 1746.25 3727.82 1730.76 3735.21 1719.81 3747.57 C 1702.91 3766.56 1701.96 3786.42 1703.32 3809.92 L 1653.34 3809.72 z"/>
<path transform="translate(0,0)" fill="rgb(179,179,178)" d="M 3086.99 3809.77 C 3086.83 3765.04 3086.29 3729.5 3120.92 3694.88 C 3141.42 3674.71 3169.14 3663.6 3197.9 3664.02 C 3227.26 3663.9 3255.4 3675.78 3275.79 3696.91 C 3306.5 3729.1 3309.11 3767.36 3307.54 3809.57 L 3258.36 3810.03 C 3258.57 3797.78 3259.25 3787.62 3256.12 3775.61 C 3249.11 3748.74 3227.11 3727.14 3198.04 3726.75 C 3182.38 3726.61 3167.35 3732.91 3156.46 3744.17 C 3136.19 3764.8 3138.37 3783.71 3138.51 3809.75 L 3086.99 3809.77 z"/>
<path transform="translate(0,0)" fill="rgb(179,179,178)" d="M 3809.31 1725.52 C 3801.54 1725.67 3793.77 1725.75 3786 1725.77 C 3749.75 1725.77 3720.73 1717.86 3694.77 1690.87 C 3675.14 1670.58 3664.51 1643.23 3665.28 1615.01 C 3666.24 1585.16 3679.35 1557 3701.57 1537.06 C 3735.4 1506.22 3767.6 1506.76 3810.04 1508.46 C 3810.08 1522.56 3809.63 1540.46 3810.45 1554.26 C 3786.84 1553.96 3766.21 1554.82 3747.87 1573.01 C 3736.55 1584.36 3730.17 1599.72 3730.12 1615.75 C 3730.14 1632.11 3736.82 1647.76 3748.61 1659.1 C 3766.65 1676.57 3786.58 1677.54 3809.9 1677.23 C 3808.84 1691.08 3809.37 1711.21 3809.31 1725.52 z"/>
<path transform="translate(0,0)" fill="rgb(179,179,178)" d="M 3810.05 1185.78 C 3767 1186.3 3733.01 1187.15 3698.85 1155.4 C 3677.83 1135.82 3665.77 1108.46 3665.51 1079.73 C 3665.03 1050.53 3676.62 1022.43 3697.55 1002.05 C 3731.07 969.485 3766.82 969.298 3809.76 970.314 C 3809.87 985.075 3809.67 1002.15 3810.38 1016.78 C 3785.79 1016.46 3765.84 1017.3 3747.01 1036.17 C 3723.82 1059.4 3726.06 1100.35 3751.08 1121.48 C 3770.33 1137.74 3786.46 1137.55 3810.08 1137.37 L 3810.05 1185.78 z"/>
<path transform="translate(0,0)" fill="rgb(179,179,178)" d="M 3810.48 3072.32 C 3766.11 3072.91 3732.35 3073.37 3697.53 3040.66 C 3676.67 3021.07 3665.6 2991.61 3665.64 2963.14 C 3665.58 2934.94 3676.78 2907.88 3696.76 2887.97 C 3730.25 2854.95 3766.9 2853.75 3810.34 2854.13 C 3809.94 2869.66 3809.84 2885.2 3810.05 2900.74 C 3786.32 2900.59 3765.13 2901.96 3747.02 2920.55 C 3735.65 2932.29 3729.53 2948.14 3730.05 2964.47 C 3730.42 2980.56 3737.31 2995.8 3749.13 3006.71 C 3766.59 3022.8 3787.52 3024.3 3809.92 3023.8 C 3809.96 3038.45 3809.45 3058.08 3810.48 3072.32 z"/>
<path transform="translate(0,0)" fill="rgb(179,179,178)" d="M 3809.35 1994.13 L 3787.13 1994.45 C 3750.68 1994.78 3722.9 1987.25 3696.41 1960.82 C 3675.81 1940.65 3664.43 1912.87 3664.96 1884.04 C 3665.99 1826.22 3714.48 1780.53 3771.04 1777.77 C 3783.68 1777.15 3797.46 1777.97 3810.16 1778.41 C 3810.11 1793.51 3809.83 1809.14 3810.05 1824.19 C 3787.12 1823.64 3768.48 1824.17 3749.98 1840.95 C 3738.2 1851.68 3731.3 1866.76 3730.88 1882.69 C 3730.21 1899.12 3736.21 1915.12 3747.52 1927.05 C 3762.35 1942.58 3780.81 1947.3 3801.53 1947.31 C 3804.43 1947.31 3807.34 1947.27 3810.24 1947.2 C 3808.82 1960.38 3809.37 1980.38 3809.35 1994.13 z"/>
<path transform="translate(0,0)" fill="rgb(179,179,178)" d="M 3809.99 2801.27 C 3767.72 2802.88 3731.17 2801.33 3698.37 2769.95 C 3677.9 2750.38 3666.15 2723.4 3665.75 2695.08 C 3665.09 2667.23 3675.69 2640.29 3695.17 2620.37 C 3730.37 2584.1 3765.4 2585.69 3811.34 2585.36 C 3809.13 2598.87 3809.78 2618.55 3809.79 2632.7 C 3781.53 2635.83 3766.58 2630.62 3743.08 2656.83 C 3732.58 2668.55 3729.66 2686.15 3731.84 2701.58 C 3734.03 2717.89 3743 2732.51 3756.54 2741.86 C 3773.39 2753.63 3790.46 2754.31 3810 2753.86 L 3809.99 2801.27 z"/>
<path transform="translate(0,0)" fill="rgb(179,179,178)" d="M 3809.67 1454.24 C 3762.51 1458.93 3719.26 1452.9 3688.05 1412.51 C 3670.39 1390.07 3662.71 1361.36 3666.8 1333.09 C 3671.13 1303.64 3687.35 1277.24 3711.67 1260.07 C 3739.65 1240.13 3777.29 1235.88 3810.48 1241.16 C 3809.94 1257.63 3809.8 1270.49 3810.5 1286.91 C 3786.72 1286.34 3768.36 1286.24 3749.26 1304.07 C 3737.39 1315.01 3730.64 1330.41 3730.64 1346.55 C 3730.53 1362.49 3736.78 1378.86 3748.69 1389.45 C 3769.22 1407.73 3785.47 1407.46 3810.43 1407.16 C 3810.28 1422.86 3810.03 1438.55 3809.67 1454.24 z"/>
<path transform="translate(0,0)" fill="rgb(179,179,178)" d="M 3810.73 2532.03 C 3795.95 2532.29 3780.94 2532.53 3766.19 2531.64 C 3711.86 2528.35 3667.02 2481.07 3665.72 2426.86 C 3665.15 2397.57 3676.64 2369.34 3697.51 2348.78 C 3731.17 2315.27 3766.24 2315.51 3809.41 2316.24 C 3809.33 2332.01 3809.02 2347.65 3810.18 2363.38 C 3786.04 2364.43 3765.4 2362.85 3747.38 2382.16 C 3724.64 2406.52 3726.78 2447.18 3751.12 2469.61 C 3768.65 2485.74 3787.61 2484.01 3809.52 2484.35 C 3809.78 2497.22 3809.44 2520.17 3810.73 2532.03 z"/>
<path transform="translate(0,0)" fill="rgb(179,179,178)" d="M 2.97545 1508.41 C 45.5787 1506.96 78.4933 1506.04 112.403 1537.94 C 133.954 1557.88 146.584 1585.65 147.451 1615 C 148.379 1661.74 117.673 1702.89 74.5706 1718.8 C 50.8825 1727.55 27.9962 1725.7 3.34708 1725.7 C 3.48025 1710.16 4.05741 1692.46 2.93983 1677.14 C 26.0467 1677.64 46.0893 1676.41 64.128 1659.65 C 76.3451 1648.34 83.2415 1632.41 83.1296 1615.76 C 83.1083 1599.68 76.6029 1584.28 65.0845 1573.05 C 47.0889 1555.68 25.9798 1554.24 2.82177 1554.27 C 3.12838 1539.15 2.95278 1523.56 2.97545 1508.41 z"/>
<path transform="translate(0,0)" fill="rgb(179,179,178)" d="M 3810.15 915.853 C 3767.49 916.885 3733.64 917.464 3699.61 886.091 C 3678.63 867.035 3666.32 840.257 3665.5 811.926 C 3664.63 782.214 3676.06 753.46 3697.1 732.458 C 3731.02 698.816 3766.96 699.926 3810.74 699.969 C 3809.48 715.698 3809.79 731.015 3809.88 746.763 C 3786.15 746.46 3768.49 747.031 3749.78 764.164 C 3728.78 783.406 3725.54 817.552 3740.79 841.128 C 3756.9 866.021 3782.68 870.112 3809.86 869.793 L 3810.15 915.853 z"/>
<path transform="translate(0,0)" fill="rgb(179,179,178)" d="M 3809.98 646.546 C 3766.23 647.323 3736.32 649.76 3700.78 617.754 C 3679.32 598.423 3665.77 569.961 3665.26 540.874 C 3664.67 511.491 3676.26 483.173 3697.28 462.634 C 3730.82 429.704 3767.16 430.556 3810.12 431.312 C 3809.83 447.063 3809.68 461.462 3810.18 477.193 C 3770.61 476.89 3731.79 491.567 3731 537.761 C 3730.58 553.944 3736.73 569.605 3748.06 581.17 C 3766.97 600.39 3785.46 600.084 3809.61 599.947 L 3809.98 646.546 z"/>
<path transform="translate(0,0)" fill="rgb(179,179,178)" d="M 3810.2 3341.39 C 3766.23 3342.09 3731.55 3342.05 3697.85 3309.24 C 3676.59 3288.5 3664.83 3259.91 3665.34 3230.21 C 3666.37 3170.31 3715.63 3127.74 3772.99 3124.65 C 3785.26 3123.99 3797.82 3124.33 3810.12 3124.49 C 3810.04 3139.76 3809.73 3155.63 3809.96 3170.84 C 3786.52 3170.64 3765.53 3171.89 3747.49 3189.78 C 3736.07 3201.13 3729.82 3216.68 3730.21 3232.78 C 3731.13 3279.47 3769.47 3294.44 3809.98 3293.77 C 3809.97 3309.45 3809.72 3325.78 3810.2 3341.39 z"/>
<path transform="translate(0,0)" fill="rgb(179,179,178)" d="M 2.9929 2854.04 C 45.3573 2853.44 81.5638 2854.76 114.416 2886.56 C 134.628 2906.18 146.31 2932.96 146.94 2961.12 C 147.841 2990.71 136.487 3019.36 115.56 3040.3 C 85.2582 3070.63 52.0009 3072.77 12.2114 3072.43 C 9.11621 3072.41 6.02124 3072.36 2.92686 3072.28 L 3.10622 3023.84 C 24.9294 3024.29 46.8884 3021.93 63.8409 3006.79 C 76.1006 2995.81 83.2059 2980.2 83.4342 2963.75 C 83.7713 2947.55 77.5432 2931.91 66.1665 2920.37 C 47.7439 2901.76 27.0811 2900.55 3.11327 2900.93 L 2.9929 2854.04 z"/>
<path transform="translate(0,0)" fill="rgb(179,179,178)" d="M 2.50947 2316.17 C 46.5487 2315.41 82.2561 2315.08 116.273 2349.08 C 136.728 2369.37 147.928 2397.19 147.242 2426 C 146.413 2455.54 133.591 2483.46 111.729 2503.34 C 77.884 2534.53 44.6771 2532.45 2.64061 2532.19 C 3.32624 2517.76 3.0695 2501.09 3.19427 2486.48 C 42.7294 2482.75 82.8001 2474.37 82.5503 2424.21 C 82.6228 2408.1 76.0642 2392.67 64.4147 2381.54 C 45.3512 2363.27 26.8065 2363.88 2.8491 2363.94 C 3.10006 2347.63 3.39881 2332.52 2.50947 2316.17 z"/>
<path transform="translate(0,0)" fill="rgb(179,179,178)" d="M 3810.41 2262.35 C 3783.41 2265.82 3751.92 2264.11 3727.19 2251.93 C 3700.18 2238.69 3679.7 2215.04 3670.45 2186.42 C 3662.12 2159.04 3665.18 2129.46 3678.94 2104.36 C 3692.77 2078.82 3716.24 2059.87 3744.12 2051.74 C 3756.57 2048.07 3797.15 2043.05 3806.75 2048.34 C 3810.79 2053.76 3809.74 2061.66 3809.78 2068.79 L 3810.43 2094.17 C 3786.2 2093.8 3768.62 2093.79 3749.49 2111.32 C 3725.29 2133.49 3725.49 2174.56 3748.38 2197.44 C 3765.27 2214.32 3787.14 2217.39 3809.87 2217.22 C 3810 2231.61 3809.74 2248.13 3810.41 2262.35 z"/>
<path transform="translate(0,0)" fill="rgb(179,179,178)" d="M 3.01388 2047.33 C 40.6531 2043.79 77.3847 2047.12 107.641 2072.11 C 130.389 2090.93 144.57 2118.14 146.965 2147.57 C 149.125 2176.13 139.511 2204.34 120.355 2225.63 C 87.5253 2262.44 48.0203 2265.24 1.81535 2263.12 C 3.82862 2250.8 3.00557 2230.1 2.91358 2216.98 L 6.6433 2217.07 C 68.5842 2217.91 108.254 2165.67 63.6332 2111.11 C 50.3049 2094.81 23.2302 2093.91 2.9601 2094.15 C 3.26964 2078.72 3.04107 2062.81 3.01388 2047.33 z"/>
<path transform="translate(0,0)" fill="rgb(179,179,178)" d="M 2.63847 2585.78 C 46.0017 2584.81 81.7633 2585.06 115.709 2617.96 C 136.197 2637.94 147.571 2665.46 147.165 2694.07 C 147.15 2723.21 135.136 2751.06 113.948 2771.06 C 80.1953 2802.81 45.307 2801.57 2.71518 2801.83 L 3.1514 2753.88 C 26.0538 2754.16 44.5884 2753.73 63.2522 2737.47 C 75.3371 2727.09 82.6302 2712.2 83.4267 2696.28 C 84.1361 2680.17 78.2416 2664.46 67.1056 2652.79 C 48.0479 2632.89 27.5546 2633.84 2.86641 2633.77 C 3.22139 2617.78 3.14539 2601.78 2.63847 2585.78 z"/>
<path transform="translate(0,0)" fill="rgb(179,179,178)" d="M 2.622 1779.04 C 38.3087 1774.28 75.003 1777.92 104.499 1800.29 C 127.253 1817.47 142.313 1842.93 146.411 1871.14 C 150.513 1899.47 142.726 1928.23 124.893 1950.61 C 105.868 1974.79 77.956 1990.34 47.3861 1993.81 C 34.8493 1995.32 15.3171 1994.59 2.22624 1994.34 C 3.67385 1980.72 3.01613 1961.25 2.94825 1947.14 C 26.5013 1947.76 46.8275 1946 64.7995 1928.32 C 76.3633 1916.92 82.8631 1901.35 82.8388 1885.11 C 82.6036 1868.85 75.8614 1853.36 64.1193 1842.1 C 45.4733 1824.33 26.4891 1823.9 2.9641 1824.11 C 3.17973 1808.56 3.27836 1794.56 2.622 1779.04 z"/>
<path transform="translate(0,0)" fill="rgb(179,179,178)" d="M 2.30941 970.067 C 46.1872 969.509 82.3087 969.264 116.428 1002.84 C 136.46 1022.7 147.601 1049.82 147.311 1078.02 C 147.147 1106.04 135.944 1132.87 116.132 1152.69 C 81.6349 1187.24 47.0199 1186.11 2.6645 1185.89 C 3.38198 1171 3.00081 1152.86 3.09237 1137.72 C 11.8274 1137.62 23.987 1138.16 32.3407 1136.39 C 98.3377 1122.43 101.799 1038.05 36.6101 1019.48 C 24.5408 1016.04 15.5269 1016.75 3.17736 1016.94 C 3.20938 1001.24 3.4408 985.738 2.30941 970.067 z"/>
<path transform="translate(0,0)" fill="rgb(179,179,178)" d="M 3.15985 3124.2 C 46.6966 3124.21 82.2144 3123.03 116.051 3157.38 C 136.782 3178.54 147.923 3207.28 146.871 3236.89 C 145.797 3265.93 132.936 3293.27 111.255 3312.62 C 78.9178 3341.66 43.9668 3342.75 3.05218 3340.99 L 2.94785 3293.75 C 25.1044 3294.4 47.3393 3291.89 64.385 3276.18 C 76.1502 3265.17 82.8957 3249.82 83.0528 3233.71 C 83.3049 3217.31 76.9025 3201.51 65.3066 3189.91 C 47.3549 3172.13 26.2752 3170.72 2.94159 3170.91 L 3.15985 3124.2 z"/>
<path transform="translate(0,0)" fill="rgb(179,179,178)" d="M 2.29947 1240.12 C 45.6923 1239.52 80.8797 1238.24 115.008 1271.37 C 135.722 1291.52 147.369 1319.23 147.282 1348.13 C 146.912 1423.94 72.5131 1466.26 2.62522 1454.37 C 3.15734 1438.81 2.79778 1422.82 2.64853 1407.22 C 52.7754 1407.58 72.1419 1397.24 84.8077 1347.5 C 72.9943 1297.58 52.7386 1286.16 2.98108 1286.9 C 3.17 1271.21 3.62471 1255.77 2.29947 1240.12 z"/>
<path transform="translate(0,0)" fill="rgb(179,179,178)" d="M 2.9388 700.052 C 44.7797 699.534 81.7035 699.471 114.634 731.023 C 135.44 751.293 147.192 779.097 147.231 808.144 C 147.257 837.571 135.107 865.698 113.664 885.851 C 80.2221 917.244 45.08 916.804 2.901 916.029 L 3.22763 869.882 C 26.6701 870.121 49.1834 867.432 66.5761 849.666 C 78.047 837.949 84.21 822.04 83.6262 805.653 C 82.5891 777.374 60.7194 754.212 33.6441 748.13 C 23.7488 745.907 13.0135 746.615 2.9121 746.849 L 2.9388 700.052 z"/>
<path transform="translate(0,0)" fill="rgb(179,179,178)" d="M 3.34039 431.532 C 45.6452 430.607 79.9828 429.131 113.594 461.169 C 134.824 481.535 146.893 509.638 147.042 539.057 C 146.914 568.051 135.097 595.767 114.265 615.932 C 79.8474 649.112 46.0147 647.114 2.42611 646.815 C 3.5889 633.087 3.05936 614.068 3.06829 599.92 C 27.5816 600.175 44.9123 599.951 64.6682 582.153 C 76.3326 571.645 83.5177 555.606 83.6767 539.798 C 83.8222 523.408 77.2774 507.668 65.5541 496.212 C 46.8359 477.823 27.0902 476.446 2.96636 476.908 L 3.34039 431.532 z"/>
<path transform="translate(0,0)" fill="rgb(233,230,215)" d="M 290.736 199.552 C 331.327 197.553 385.191 199.072 426.743 199.098 L 671.249 199.093 L 1439.91 199.111 L 2382.31 199.135 L 2692.92 199.12 C 2747.24 199.113 2801.13 199.035 2855.87 199.365 C 2895.96 199.606 2935.44 231.712 2947.22 269.921 C 2955.09 295.443 2952.04 327.866 2952.49 354.387 C 2952.85 375.561 2952.49 397.429 2952.5 418.752 L 2952.32 665.186 C 2952.23 694.572 2948.94 740.196 2956.7 767.209 C 2982.79 858.087 3071.07 843.684 3143.46 843.651 L 3394.07 843.509 C 3434.55 843.483 3475.73 842.764 3515.88 844.165 C 3554.24 845.696 3595.08 879.019 3604.94 916.35 C 3613.19 947.593 3610.12 993.012 3610.13 1026.3 L 3610.12 1165.31 L 3610.1 1683.07 L 3610.28 2896.4 L 3610.27 3285.41 C 3610.32 3357.94 3610.68 3430.5 3610.03 3503.03 C 3609.55 3557.66 3575.57 3593.52 3525.29 3608.28 C 3509.62 3611.37 3477.18 3610.42 3459.76 3610.41 L 3351.5 3610.31 L 2954.85 3610.25 L 1378.97 3610.29 L 1103.77 3610.32 C 1058.16 3610.4 1008.96 3611.42 963.338 3609.11 C 955.445 3608.7 940.545 3602.9 933.095 3599.08 C 907.506 3586.24 888.109 3563.7 879.213 3536.48 C 870.596 3509.68 873.967 3448.11 874.014 3417.46 L 873.823 3146.19 C 873.843 3099.57 874.284 3052.82 873.83 3006.38 C 873.461 2968.67 845.195 2924.79 808.314 2913.93 C 773.55 2903.68 720.772 2907.91 683.895 2908.04 L 424.494 2907.96 C 392.299 2907.94 360.029 2907.89 327.855 2908.14 C 303.579 2908.33 280.057 2908.15 258.149 2895.88 C 193.218 2859.53 202.704 2798.63 202.724 2735.74 L 202.737 2618.48 L 202.763 2139.9 L 202.822 912.44 L 202.835 523.987 C 202.741 452.247 202.387 380.477 202.783 308.744 C 203.108 249.951 234.554 213.315 290.736 199.552 z"/>
<path transform="translate(0,0)" fill="rgb(66,66,65)" d="M 598.696 325.307 C 716.26 348.124 787.083 401.368 743.626 524.363 C 736.856 543.522 731.055 570.743 725.501 591.293 L 644.261 898.433 C 629.633 953.031 608.677 1019.38 601.189 1074.78 C 597.568 1101.57 607.102 1118.2 624.473 1137.39 C 545.979 1120.26 448.925 1086.77 466.888 982.226 C 472.464 949.774 484.257 914.342 493.095 882.396 L 540.315 711.833 C 543.356 700.947 554.487 666.968 552.703 659.488 C 547.444 655.642 540.708 656.916 533.876 657.181 L 460.136 657.123 C 447.583 707.219 433.344 757.248 420.805 807.349 C 412.733 839.6 416.902 850.547 433.41 877.03 C 378.785 865.533 307.776 834.865 310.908 768.785 C 312.097 743.717 326.772 699.368 333.746 673.828 L 382.342 495.592 C 389.802 468.095 398.199 439.494 404.863 411.888 C 411.577 384.074 401.493 367.68 386.97 345.774 C 388.724 346.135 390.475 346.511 392.223 346.901 C 543.444 380.809 515.226 448.156 484.278 565.516 C 515.927 565.368 547.576 565.386 579.225 565.57 C 588.01 528.281 600.056 490.319 609.377 453.04 C 623.553 396.35 638.69 374.964 598.696 325.307 z"/>
<path transform="translate(0,0)" fill="rgb(66,66,65)" d="M 2151.43 496.017 C 2186.47 493.238 2221.57 500.485 2252.65 516.912 C 2244.38 558.767 2232.39 603.439 2223.18 645.786 C 2218.45 636.546 2213.18 626.184 2206.57 618.974 C 2141.97 548.527 2026.68 629.096 2027.69 711.252 C 2028.25 757.218 2056.73 779.702 2099.09 779.942 C 2140 780.173 2173.37 754.025 2199.99 726.194 C 2196.79 740.019 2192.92 754.133 2189.32 767.901 L 2163.85 864.593 C 2058.57 900.783 1934.31 881.543 1922.58 751.985 C 1910.39 617.272 2022.18 507.32 2151.43 496.017 z"/>
<path transform="translate(0,0)" fill="rgb(66,66,65)" d="M 1078.4 503.597 C 1086.03 503.394 1083.34 502.061 1088.58 505.334 C 1087.79 515.161 1071.54 572.632 1068.28 584.83 L 953.993 584.72 L 937.174 646.356 L 1049.4 646.275 C 1041.16 671.271 1033.6 702.369 1027.4 728.028 L 915.594 727.878 L 899.036 790.277 L 1013.92 790.079 C 1007.7 809.429 1001.7 833.671 996.265 853.583 L 991.514 871.438 L 779.656 871.344 C 800.448 797.306 820.714 723.12 840.453 648.794 C 850.012 612.89 858.677 576.592 869.383 541.054 C 874.566 523.849 888.645 509.222 906.742 506.164 C 929.083 502.389 953.083 503.722 975.784 503.774 C 1009.99 504.008 1044.2 503.949 1078.4 503.597 z"/>
<path transform="translate(0,0)" fill="rgb(66,66,65)" d="M 1732.22 504.798 C 1778.5 501.116 1862.31 503.832 1911.61 503.776 C 1903.78 528.498 1896.1 559.569 1890.02 584.891 L 1776.96 584.916 L 1759.47 646.797 L 1872.18 646.559 C 1864.8 673.116 1857.98 701.151 1851.04 727.93 L 1738.1 727.925 L 1721.79 790.485 L 1743.59 790.558 L 1835.02 790.154 L 1813.28 871.724 L 1602.81 871.426 C 1624.64 794.07 1645.46 716.431 1665.25 638.528 C 1672.17 612.247 1679.17 585.725 1686.19 559.481 C 1694.51 528.378 1701.18 515.519 1732.22 504.798 z"/>
<path transform="translate(0,0)" fill="rgb(66,66,65)" d="M 1492.26 503.601 L 1632.73 503.404 L 1610.43 584.504 C 1578.03 584.664 1552.73 580.449 1528.65 603.302 C 1519.41 629.123 1507.14 679.75 1499.79 707.497 L 1455.79 871.499 L 1427.08 871.482 L 1356.48 871.421 C 1383.8 776.602 1407.72 679.599 1435.64 585.181 L 1357.21 585.464 L 1378.97 503.884 L 1492.26 503.601 z"/>
<path transform="translate(0,0)" fill="rgb(66,66,65)" d="M 2879.3 2277.8 C 2934.55 2277.24 2962.87 2290.81 2983.75 2343.88 C 2960.84 2345.42 2932.49 2349.28 2909.25 2351.79 C 2909.04 2351.18 2908.84 2350.57 2908.63 2349.97 L 2907.54 2346.94 C 2899.72 2324.96 2883.66 2317.53 2862.58 2332.08 C 2846.04 2343.5 2844.41 2378.98 2842.47 2398.96 C 2858.56 2382.87 2872.89 2372.99 2896.92 2371.71 C 2920.36 2370.49 2943.24 2379.12 2960.04 2395.5 C 2983.51 2418.21 2986.95 2441.56 2987.14 2471.84 C 2984.24 2490.11 2980.33 2505.48 2968.49 2520.58 C 2935.03 2563.26 2849.02 2564.05 2808.77 2531.64 C 2783.52 2510.88 2770.3 2474.77 2768.46 2442.8 C 2763.67 2359.39 2781.81 2284.1 2879.3 2277.8 z"/>
<path transform="translate(0,0)" fill="rgb(233,230,215)" d="M 2872.75 2418.68 C 2928.1 2416.08 2932.15 2489.59 2889.58 2507.04 C 2834.73 2507.71 2828.34 2437.5 2872.75 2418.68 z"/>
<path transform="translate(0,0)" fill="rgb(66,66,65)" d="M 1160.51 504.653 C 1192.22 504.076 1223.94 503.818 1255.66 503.88 C 1246.4 531.84 1236.34 574.162 1228.56 603.397 L 1178.84 789.701 C 1216.41 789.211 1255.14 789.625 1292.79 789.62 C 1288.05 804.058 1273.36 865.997 1267.86 871.549 L 1059.12 871.66 L 1121.25 641.609 C 1128.68 613.409 1149.66 526.284 1160.51 504.653 z"/>
<path transform="translate(0,0)" fill="rgb(66,66,65)" d="M 724.113 1451.58 L 943.732 1451.5 L 943.667 1507.67 L 803.605 1507.57 L 803.851 1551.62 C 846.227 1551.12 890.079 1551.81 932.564 1551.96 L 932.575 1604.67 L 815.01 1604.74 C 810.952 1604.75 810.646 1604.96 806.607 1605.67 C 801.405 1613.14 803.546 1647.29 803.527 1658.62 L 947.614 1658.28 C 947.548 1678.28 947.586 1698.28 947.729 1718.28 L 723.973 1718.49 L 724.113 1451.58 z"/>
<path transform="translate(0,0)" fill="rgb(66,66,65)" d="M 1981.12 2281.69 C 2010.82 2282.26 2041.64 2281.93 2071.44 2282.02 L 2119.52 2362.71 C 2132.68 2337.86 2152.33 2306.8 2166.99 2282.06 L 2257.18 2282.02 L 2173 2410.55 C 2184.27 2428.01 2260.41 2540.85 2260.06 2549.22 L 2256.04 2549.63 L 2170.11 2549.57 C 2155.84 2523.53 2133.78 2490.1 2117.78 2464.2 C 2100.37 2492.89 2082.7 2521.41 2064.75 2549.77 C 2036.32 2548.91 2004.47 2549.7 1975.79 2549.8 C 2004.67 2503.5 2036.35 2456.08 2066.09 2410.1 L 1981.12 2281.69 z"/>
<path transform="translate(0,0)" fill="rgb(66,66,65)" d="M 1838.95 2277.84 C 1904.96 2277.93 1940 2288.64 1956.09 2358.73 C 1932.1 2358.95 1902.33 2361.51 1877.98 2362.96 C 1871.42 2332.67 1845.91 2314.71 1816.32 2335.68 C 1806.35 2343.65 1807.54 2360.95 1819.75 2364.83 C 1872.92 2381.69 1960.24 2384.61 1963.67 2459.74 C 1964.85 2483.19 1956.32 2506.1 1940.08 2523.06 C 1913.06 2550.76 1870.42 2553.99 1834.18 2554.07 C 1763.63 2548.47 1734.27 2533.31 1719.86 2460.09 C 1745.84 2458.94 1771.81 2457.43 1797.75 2455.56 C 1800.97 2469.27 1803.52 2479.83 1814.04 2490.28 C 1828.27 2506.77 1865.51 2507.7 1878.33 2489.31 C 1896.82 2462.8 1862.26 2446.02 1840.75 2442.33 C 1828.24 2439.88 1816.43 2435.52 1804.08 2432.78 C 1742.96 2419.23 1708.38 2363.19 1750.57 2308.35 C 1769.23 2284.1 1808.33 2279.48 1838.95 2277.84 z"/>
<path transform="translate(0,0)" fill="rgb(66,66,65)" d="M 1081.23 1447.39 C 1147.99 1441.76 1193.96 1457.04 1208.67 1528.34 C 1183.87 1528.1 1157.17 1529.65 1132.23 1530.7 C 1130.42 1523.97 1128.66 1517.64 1124.62 1511.84 C 1118.85 1503.51 1109.9 1497.91 1099.88 1496.38 C 1066.97 1491.38 1048.78 1525.59 1071.83 1534.07 C 1120.87 1552.13 1213.48 1550.17 1216.26 1628.09 C 1216.94 1651.48 1208.15 1674.15 1191.87 1690.96 C 1166.21 1717.17 1134.78 1721.36 1100.46 1722.39 C 1029.66 1722.29 985.295 1706.83 974.319 1629.1 C 999.192 1628.48 1027.08 1626.32 1052.23 1625.04 C 1059.9 1666.05 1098.06 1684.7 1128.13 1659.47 C 1158.73 1633.78 1107.08 1611.98 1087.71 1609.33 C 1018.98 1599.91 951.752 1556.48 1000.22 1480.68 C 1015.54 1456.73 1055.33 1449.88 1081.23 1447.39 z"/>
<path transform="translate(0,0)" fill="rgb(66,66,65)" d="M 1255.1 1451.61 C 1301.08 1451.58 1346.95 1451.39 1393.02 1451.9 C 1441.58 1452.43 1482.48 1477.97 1481.5 1531.34 C 1480.3 1596.83 1443.52 1617.94 1383.44 1620.04 L 1336.6 1620.02 L 1336.67 1718.16 L 1255.07 1718.36 L 1255.1 1451.61 z"/>
<path transform="translate(0,0)" fill="rgb(233,230,215)" d="M 1336.63 1503.63 C 1370.76 1503.53 1425.19 1509.11 1393.14 1557.74 C 1375.64 1569.78 1357.35 1567.69 1336.72 1567.58 L 1336.63 1503.63 z"/>
<path transform="translate(0,0)" fill="rgb(66,66,65)" d="M 2116.29 1449.03 C 2189.83 1442.13 2235.23 1458.33 2262.36 1530.73 C 2239.27 1534.61 2214.99 1540.62 2192.06 1545.82 C 2184.95 1532.24 2174.78 1516.67 2159.79 1510.51 C 2080.63 1478 2060.58 1637.59 2122.22 1657.5 C 2164.52 1671.17 2182.27 1646.02 2193.05 1609.49 L 2214.54 1616.87 L 2264.64 1631.38 C 2254.2 1674.44 2229.33 1709.38 2180.57 1719.46 C 2033.31 1749.9 1962.13 1611.67 2032.34 1493.27 C 2048.3 1466.35 2085.08 1453.96 2116.29 1449.03 z"/>
<path transform="translate(0,0)" fill="rgb(66,66,65)" d="M 1841.65 1449.11 C 1968.44 1433.25 2023.21 1532.09 1917.82 1613.03 C 1898.43 1627.92 1878.75 1641.62 1860.84 1658.44 C 1897.66 1657.57 1938.22 1658.24 1975.29 1658.19 L 1975.42 1718.37 L 1811.08 1718.21 L 1752.52 1718.26 C 1767.15 1639.63 1811.31 1618.59 1869.7 1571.04 C 1887.26 1556.73 1908.03 1535.63 1894.06 1511.55 C 1890.38 1505.18 1884.23 1500.61 1877.07 1498.91 C 1867.77 1496.68 1857.96 1498.4 1849.97 1503.66 C 1835.14 1513.47 1833.36 1525.37 1830.35 1541.3 C 1807.49 1538.17 1780.08 1536.16 1756.8 1533.87 C 1767.52 1479.38 1784.71 1457.1 1841.65 1449.11 z"/>
<path transform="translate(0,0)" fill="rgb(66,66,65)" d="M 2604.16 2279.45 C 2608.36 2279.02 2612.57 2278.74 2616.79 2278.59 C 2651.5 2277.37 2687.9 2279.02 2714.54 2304.77 C 2728.78 2318.28 2736.66 2337.17 2736.25 2356.79 C 2735.34 2424.8 2664.08 2449.28 2622.04 2490.63 C 2660.42 2490.83 2698.8 2490.76 2737.18 2490.42 L 2737.18 2549.94 C 2688.35 2548.44 2633.07 2549.68 2583.74 2549.67 C 2561.13 2549.55 2538.52 2549.61 2515.91 2549.86 C 2536.49 2436.42 2644.86 2423.49 2661.03 2368.07 C 2663.37 2360.04 2661.69 2349.78 2657.63 2342.55 C 2654.15 2336.48 2648.33 2332.1 2641.54 2330.44 C 2611.83 2322.96 2599.31 2347.14 2594.3 2371.05 C 2569.72 2369.07 2545.14 2366.96 2520.58 2364.73 C 2530.47 2311.03 2547.2 2287.5 2604.16 2279.45 z"/>
<path transform="translate(0,0)" fill="rgb(66,66,65)" d="M 3099.11 2279.54 C 3104.3 2279.05 3109.52 2278.73 3114.74 2278.59 C 3148.12 2277.58 3182.42 2280.07 3207.85 2304.9 C 3221.98 2318.48 3229.88 2337.29 3229.68 2356.89 C 3229.32 2423.69 3157.27 2449.41 3116.46 2490.72 L 3229.95 2490.66 L 3230.05 2549.94 C 3178.3 2549.54 3126.54 2549.43 3074.79 2549.61 C 3053.24 2549.43 3031.68 2549.58 3010.13 2550.05 C 3030.51 2435.07 3140.11 2420.34 3154.77 2368.1 C 3157.04 2360.03 3155.25 2349.69 3151.01 2342.54 C 3147.14 2335.99 3140.92 2331.74 3133.51 2330.18 C 3123.8 2328.14 3113.28 2330.64 3105.24 2336.35 C 3092.75 2345.22 3090.56 2356.81 3088.04 2370.9 C 3063.51 2369.3 3039.02 2367.13 3014.59 2364.4 C 3023.3 2308.8 3042.27 2286.95 3099.11 2279.54 z"/>
<path transform="translate(0,0)" fill="rgb(66,66,65)" d="M 2373.11 1448.93 C 2384.53 1447.99 2395.99 1447.61 2407.44 1447.76 C 2485.95 1449.22 2530.19 1513.83 2464.53 1572.37 C 2506.11 1590.35 2519.51 1625.96 2501.31 1668.13 C 2491.93 1689.7 2474.15 1706.51 2452.08 1714.67 C 2422.73 1725.84 2370.8 1726.7 2342.04 1713.04 C 2310.08 1697.87 2299.46 1676.6 2287.95 1646.26 L 2311.45 1643.44 C 2327.15 1641.34 2344.29 1638.68 2359.97 1637.42 C 2379.75 1698.03 2433.81 1683.46 2434.01 1629.52 C 2434.12 1599.56 2399.52 1599.14 2375.09 1604.05 C 2375.98 1586.41 2377.05 1568.78 2378.31 1551.16 C 2387.64 1551.03 2394.87 1551.98 2403.77 1548.46 C 2444.73 1532.29 2415.26 1478.69 2379.28 1497.51 C 2367.46 1503.69 2363.95 1518.02 2361.43 1529.83 C 2340.29 1527.15 2313.32 1521.23 2291.89 1517.04 C 2307.42 1472.3 2326.65 1457.11 2373.11 1448.93 z"/>
<path transform="translate(0,0)" fill="rgb(66,66,65)" d="M 1594.29 1449.04 C 1680.59 1436.31 1763.86 1495.32 1684.93 1572.72 C 1756.59 1604.16 1733.62 1693.35 1669.67 1715.76 C 1637.49 1727.04 1589.24 1725.38 1558.15 1711.13 C 1529.98 1698.22 1517.32 1674.12 1507.79 1646.2 L 1532.25 1643.43 L 1580.65 1637.06 C 1584.15 1649.67 1587.13 1660.2 1597.51 1669.39 C 1603.5 1674.79 1611.5 1677.4 1619.52 1676.58 C 1630.38 1675.45 1640.24 1669.77 1646.65 1660.93 C 1657.48 1646.19 1658.99 1619.05 1642.27 1607.46 C 1628.18 1597.68 1610.84 1600.8 1595.09 1604.09 L 1598.63 1551.55 C 1610.45 1551.01 1616.62 1552.48 1627.65 1547.08 C 1642.83 1539.64 1648.58 1522.99 1639.59 1507.95 C 1635.23 1500.77 1628.08 1495.72 1619.85 1494.03 C 1594.57 1488.78 1586.08 1510.7 1581.58 1530.27 C 1559.15 1526.93 1534.84 1522.07 1512.32 1518.12 C 1526.73 1472.65 1547.88 1455.34 1594.29 1449.04 z"/>
<path transform="translate(0,0)" fill="rgb(66,66,65)" d="M 2380.67 2277.43 L 2442.25 2277.49 L 2442.18 2549.58 C 2417.3 2549.16 2391.41 2549.56 2366.45 2549.61 L 2366.42 2497.63 L 2366.53 2372.01 C 2337.61 2393.63 2323.52 2399.57 2289.22 2410.21 C 2289.59 2390.7 2289.04 2369.1 2288.89 2349.45 C 2291.51 2348.72 2294.11 2347.93 2296.7 2347.11 C 2337.38 2334.2 2361.3 2315.03 2380.67 2277.43 z"/>
<path transform="translate(0,0)" fill="rgb(66,66,65)" d="M 2155.09 1913.92 L 2214.1 1913.88 L 2214.1 1983.45 L 2283.11 1983.14 L 2283.15 2043.9 L 2214.94 2043.85 C 2215.14 2065.58 2215.97 2092.16 2214.88 2113.43 L 2154.66 2113.3 C 2155.37 2090.63 2155.14 2066.37 2155.3 2043.58 L 2086.72 2044.05 L 2086.48 1983.19 L 2155.47 1983.3 L 2155.09 1913.92 z"/>
<path transform="translate(0,0)" fill="rgb(66,66,65)" d="M 1312.54 937.67 L 1362.5 937.914 L 1362.81 1014.52 C 1374.94 988.822 1387.36 963.26 1400.07 937.837 L 1450.65 937.931 L 1419.43 1063 L 1387.73 1062.9 C 1393.85 1039.38 1399.6 1015.37 1405.48 991.746 C 1406.44 987.568 1406.41 986.526 1406.59 982.201 C 1400.42 985.924 1370.29 1051.36 1364.77 1062.76 L 1336.86 1062.85 C 1336.28 1032.09 1336.15 1001.32 1336.47 970.559 C 1328.03 1000.13 1320.51 1033.03 1313.13 1062.95 L 1281.5 1062.84 C 1292.22 1021.21 1302.57 979.486 1312.54 937.67 z"/>
<path transform="translate(0,0)" fill="rgb(66,66,65)" d="M 1833.03 936.979 C 1900.04 933.801 1911.74 973.196 1881.77 1031.56 C 1872.03 1050.54 1850.89 1060.41 1830.31 1064.44 C 1765.51 1067.29 1750.14 1030.83 1780.2 972.478 C 1790.5 952.482 1811.52 942.012 1833.03 936.979 z"/>
<path transform="translate(0,0)" fill="rgb(233,230,215)" d="M 1832.03 966.33 C 1861.17 965.766 1862.65 982.85 1854.62 1007.41 C 1850.18 1020.98 1843.11 1029.49 1829.94 1035.33 C 1786.3 1036.21 1803.72 980.946 1832.03 966.33 z"/>
<path transform="translate(0,0)" fill="rgb(66,66,65)" d="M 1214.61 937.036 C 1279.83 932.796 1294.38 969.37 1265.86 1028 C 1256.96 1046.29 1237.46 1058.02 1217.8 1062.87 C 1153.15 1070.62 1133.61 1033.03 1162.63 974.057 C 1172.66 953.673 1193.12 942.713 1214.61 937.036 z"/>
<path transform="translate(0,0)" fill="rgb(233,230,215)" d="M 1213.73 966.482 C 1260.48 962.259 1240.59 1019.12 1215.38 1034.78 C 1168.82 1038.55 1186.49 982.073 1213.73 966.482 z"/>
<path transform="translate(0,0)" fill="rgb(66,66,65)" d="M 1931.63 937.535 L 1967.09 937.667 C 1976.32 960.788 1986.01 983.72 1996.16 1006.45 C 2001.37 983.589 2006.69 960.757 2012.13 937.953 L 2047.53 937.801 C 2041.43 972.093 2025.93 1027.34 2017.44 1062.9 L 1982.34 1062.76 C 1972.29 1040.17 1962.72 1016.56 1953.16 993.696 L 1936.36 1062.86 L 1900.41 1062.87 L 1931.63 937.535 z"/>
<path transform="translate(0,0)" fill="rgb(66,66,65)" d="M 811.48 938.016 L 852.967 937.746 C 858.015 979.448 863.382 1021.11 869.066 1062.73 L 828.787 1062.69 L 827.96 1040.85 L 790.807 1040.78 L 786.849 1041.3 C 781.26 1046.69 777.602 1055.5 773.967 1062.66 L 734.697 1062.47 L 811.48 938.016 z"/>
<path transform="translate(0,0)" fill="rgb(233,230,215)" d="M 821.888 975.064 L 824.108 978.414 C 824.856 986.717 828.06 1008.11 823.297 1014.02 L 806.045 1014.21 L 803.947 1013.93 L 802.777 1011.15 C 807.244 999.813 815.693 985.959 821.888 975.064 z"/>
<path transform="translate(0,0)" fill="rgb(66,66,65)" d="M 913.033 937.597 L 950.632 937.727 C 945.817 956.516 927.71 1018.73 933.969 1026.52 C 970.437 1071.94 988.926 947.559 991.311 937.733 L 1028.59 937.601 C 1026.59 944.865 1025.01 952.829 1023.38 960.23 C 1015.81 989.173 1010.96 1035.15 985.22 1051.65 C 951.105 1073.53 883.146 1072.99 894.668 1015.26 C 899.987 988.613 906.468 963.662 913.033 937.597 z"/>
<path transform="translate(0,0)" fill="rgb(66,66,65)" d="M 1507.86 937.832 L 1548.58 937.636 C 1554.17 979.266 1559.4 1020.94 1564.27 1062.67 L 1525.09 1062.6 L 1524.24 1040.63 L 1487.13 1040.76 L 1483.23 1041.49 C 1478.11 1046.61 1474.12 1056.02 1470.73 1062.78 L 1432.24 1062.55 L 1507.86 937.832 z"/>
<path transform="translate(0,0)" fill="rgb(233,230,215)" d="M 1518.68 973.168 C 1521.17 986.307 1525.56 1000.57 1519.44 1011.86 C 1512.8 1015.89 1509.54 1014.4 1500.81 1014.32 L 1498.28 1012.35 C 1502.07 1002.03 1513 983.473 1518.68 973.168 z"/>
<path transform="translate(0,0)" fill="rgb(66,66,65)" d="M 1587.49 937.573 L 1701.21 937.976 L 1693.41 969.75 L 1655.83 969.88 L 1639.99 1034.74 L 1633.44 1062.83 L 1595.21 1062.63 C 1603.15 1032.21 1610.46 1000.4 1617.95 969.767 L 1579.47 969.856 C 1582.26 959.204 1584.85 948.284 1587.49 937.573 z"/>
<path transform="translate(0,0)" fill="rgb(66,66,65)" d="M 1045.56 937.942 L 1159.42 937.969 C 1156.54 947.608 1153.92 959.707 1151.5 969.686 L 1113.33 969.677 L 1098.47 1030.59 L 1091.09 1062.98 L 1053.03 1062.91 C 1061.18 1033.63 1068.64 999.482 1075.92 969.621 L 1037.65 969.814 L 1045.56 937.942 z"/>
<path transform="translate(0,0)" fill="rgb(66,66,65)" d="M 1721.23 937.766 L 1759.16 937.77 C 1748.24 977.353 1738.31 1022.25 1728.63 1062.5 L 1690.62 1062.52 L 1721.23 937.766 z"/>
<path transform="translate(0,0)" fill="rgb(232,216,173)" d="M 591.599 2977.01 C 606.397 2973.2 663.243 2962.78 674.819 2968.44 C 670.069 2970.46 664.739 2970.23 659.478 2970.49 L 660.239 2971.98 C 673.55 2974.59 737.19 2973.71 740.584 2976.08 L 737.865 2977.65 C 813.898 2998.53 804.557 3051.26 804.613 3114.8 L 804.756 3220.24 L 804.653 3356.59 C 804.6 3382.74 807.586 3434.15 798.875 3458.26 C 786.134 3493.53 749.463 3506.56 713.45 3505.42 C 714.492 3541.48 713.73 3580.12 713.734 3616.44 L 349.728 3616.24 L 349.737 3505.83 C 311.668 3506.22 278.594 3492.06 265.526 3453.78 C 257.414 3436.29 260.605 3319.25 260.629 3293.35 L 207.717 3293.28 C 208.206 3258.2 208.211 3223.12 207.733 3188.05 C 218.084 3188.35 253.735 3190.54 261.078 3186.44 C 259.993 3164.36 259.09 3051.9 263.396 3034.53 C 266.272 3023.26 271.803 3012.84 279.526 3004.14 C 289.969 2992.35 303.746 2984 319.033 2980.21 C 339.919 2975.2 380.485 2977.92 403.691 2977.36 C 464.626 2975.9 531.094 2979.73 591.599 2977.01 z"/>
<path transform="translate(0,0)" fill="rgb(223,182,89)" d="M 320.081 3187.09 C 332.273 3132.64 370.696 3083.78 417.319 3054.76 C 520.895 2990.31 661.969 3024.83 721.638 3130.13 C 819.697 3303.17 662.469 3507.02 470.406 3452.57 C 401.3 3432.97 333.558 3365.37 319.867 3297.19 C 308.552 3292.8 274.477 3293.52 260.629 3293.35 L 207.717 3293.28 C 208.206 3258.2 208.211 3223.12 207.733 3188.05 C 218.084 3188.35 253.735 3190.54 261.078 3186.44 C 266.917 3190.75 311.744 3188.23 320.081 3187.09 z"/>
<path transform="translate(0,0)" fill="rgb(221,190,114)" d="M 261.078 3186.44 C 266.917 3190.75 311.744 3188.23 320.081 3187.09 C 309.147 3210.59 246.072 3190.26 225.796 3199.6 C 211.083 3206.37 211.66 3262.32 213.207 3277.22 C 215.055 3295.03 248.597 3276.7 257.917 3282.11 C 266.126 3286.82 314.461 3290.33 319.036 3294.61 L 319.867 3297.19 C 308.552 3292.8 274.477 3293.52 260.629 3293.35 L 207.717 3293.28 C 208.206 3258.2 208.211 3223.12 207.733 3188.05 C 218.084 3188.35 253.735 3190.54 261.078 3186.44 z"/>
<path transform="translate(0,0)" fill="rgb(170,136,59)" d="M 514.978 3069.43 C 609.947 3059.86 694.722 3129.02 704.418 3223.97 C 714.114 3318.93 645.067 3403.79 550.123 3413.61 C 455.003 3423.45 369.944 3354.25 360.23 3259.12 C 350.516 3163.98 419.832 3079.02 514.978 3069.43 z"/>
<path transform="translate(0,0)" fill="rgb(223,182,89)" d="M 525.205 3184.3 C 555.966 3180.2 584.369 3201.43 589.139 3232.09 C 593.91 3262.76 573.299 3291.61 542.744 3297.05 C 522.382 3300.67 501.655 3292.99 488.568 3276.97 C 475.482 3260.96 472.084 3239.12 479.687 3219.89 C 487.291 3200.65 504.705 3187.04 525.205 3184.3 z"/>
<path transform="translate(0,0)" fill="rgb(179,179,178)" d="M 365.404 3505.08 L 597.773 3505.24 C 631.76 3505.22 680.99 3503.45 713.45 3505.42 C 714.492 3541.48 713.73 3580.12 713.734 3616.44 L 349.728 3616.24 L 349.737 3505.83 L 365.404 3505.08 z"/>
<path transform="translate(0,0)" fill="rgb(63,59,47)" d="M 591.599 2977.01 C 606.397 2973.2 663.243 2962.78 674.819 2968.44 C 670.069 2970.46 664.739 2970.23 659.478 2970.49 L 660.239 2971.98 C 673.55 2974.59 737.19 2973.71 740.584 2976.08 L 737.865 2977.65 C 689.633 2977.66 639.674 2978.22 591.599 2977.01 z"/>
<path transform="translate(0,0)" fill="rgb(233,230,215)" d="M 265.526 3453.78 L 268.475 3453.99 C 281.566 3478.28 290.97 3488.89 319.376 3499.12 C 323.788 3500.71 334.304 3493.63 339.288 3494.28 C 356.893 3496.56 367.951 3502.03 386.302 3503.05 C 378.865 3503.03 371.26 3501.85 365.404 3505.08 L 349.737 3505.83 C 311.668 3506.22 278.594 3492.06 265.526 3453.78 z"/>
<path transform="translate(0,0)" fill="rgb(232,216,173)" d="M 3112.29 143.005 L 3476.31 142.825 C 3476.32 155.982 3477.51 236.944 3475.13 245.944 L 3478.13 252.644 C 3519.55 253.418 3559.95 272.08 3564.05 318.266 L 3565.4 318.244 L 3566.7 313.612 C 3568.91 320.922 3572.18 347.935 3572.2 355.707 L 3573.5 337.902 C 3577.15 366.086 3576.29 412.872 3570.45 440.83 L 3565.12 445.596 L 3565.21 467.318 C 3574.36 467.271 3608.06 466.153 3614.65 468.999 L 3618.3 470.496 C 3622.89 481.605 3620.85 555.069 3617.56 569.258 C 3615.33 578.879 3579.13 577.514 3569.49 577.732 C 3569.88 602.061 3579.54 689.322 3574.07 705.002 L 3571.43 705.648 C 3570.61 693.246 3570.94 679.117 3570.98 666.536 L 3569.99 666.547 C 3569.95 675.504 3567.35 711.62 3568.18 716 L 3566.66 718.267 C 3564.67 714.17 3565.27 716.359 3564.94 711.682 L 3563.91 711.715 C 3563.68 728.281 3554.52 746.403 3542.77 757.885 C 3522.45 777.733 3504.73 778.516 3478.19 778.731 L 3201.48 778.796 C 3162.28 778.718 3121.85 779.46 3083.24 777.612 C 3058.18 776.413 3026.43 744.518 3024.31 720.502 C 3020.59 678.32 3022.03 631.571 3022.05 589.161 L 3021.79 341.594 C 3022.24 283.207 3051.94 252.377 3110.67 253.122 L 3112.58 248.615 C 3111.59 213.502 3112.5 178.155 3112.29 143.005 z"/>
<path transform="translate(0,0)" fill="rgb(223,182,89)" d="M 3495.95 601.946 C 3477.84 650.17 3426.66 699.032 3378.65 717.653 C 3263.17 762.442 3136.55 710.297 3089.23 595.317 C 3068.46 544.841 3070.44 478.497 3092.63 429.168 C 3143.16 312.806 3274.47 266.02 3388.99 317.14 C 3442.56 341.193 3484.71 395.154 3504.62 450.869 C 3505.62 460.154 3504.16 459.483 3508.83 466.102 C 3532.41 478.639 3594.36 466.446 3607.2 485.565 C 3609.2 496.281 3605.35 543.714 3602.6 554.817 C 3578.11 579.529 3496.22 519.01 3495.95 601.946 z"/>
<path transform="translate(0,0)" fill="rgb(170,136,59)" d="M 3288.33 343.327 C 3382.84 340.264 3462.11 414.026 3465.85 508.505 C 3469.59 602.984 3396.39 682.78 3301.94 687.195 C 3206.53 691.655 3125.75 617.554 3121.97 522.114 C 3118.19 426.674 3192.87 346.421 3288.33 343.327 z"/>
<path transform="translate(0,0)" fill="rgb(223,182,89)" d="M 3284.45 460.59 C 3315.51 455.51 3344.78 476.659 3349.72 507.747 C 3354.65 538.834 3333.36 568.004 3302.25 572.787 C 3271.35 577.538 3242.42 556.423 3237.52 525.545 C 3232.62 494.667 3253.59 465.635 3284.45 460.59 z"/>
<path transform="translate(0,0)" fill="rgb(179,179,178)" d="M 3112.29 143.005 L 3476.31 142.825 C 3476.32 155.982 3477.51 236.944 3475.13 245.944 L 3478.13 252.644 C 3440.05 255.076 3383.68 253.267 3344.18 253.256 L 3110.67 253.122 L 3112.58 248.615 C 3111.59 213.502 3112.5 178.155 3112.29 143.005 z"/>
<path transform="translate(0,0)" fill="rgb(186,184,172)" d="M 3112.58 248.615 C 3124.01 240.834 3153.63 248.904 3170.99 247.752 C 3252.51 242.346 3335.51 246.916 3417.29 246.144 C 3429.23 246.031 3446.5 241.89 3453.82 242.127 C 3451.08 246.83 3452.12 245.121 3446.73 248.301 C 3453.97 249.238 3469.09 249.831 3475.13 245.944 L 3478.13 252.644 C 3440.05 255.076 3383.68 253.267 3344.18 253.256 L 3110.67 253.122 L 3112.58 248.615 z"/>
<path transform="translate(0,0)" fill="rgb(221,190,114)" d="M 3565.4 318.244 L 3566.7 313.612 C 3568.91 320.922 3572.18 347.935 3572.2 355.707 L 3573.5 337.902 C 3577.15 366.086 3576.29 412.872 3570.45 440.83 L 3565.12 445.596 L 3565.21 467.318 C 3574.36 467.271 3608.06 466.153 3614.65 468.999 L 3618.3 470.496 C 3622.89 481.605 3620.85 555.069 3617.56 569.258 C 3615.33 578.879 3579.13 577.514 3569.49 577.732 C 3569.88 602.061 3579.54 689.322 3574.07 705.002 L 3571.43 705.648 C 3570.61 693.246 3570.94 679.117 3570.98 666.536 L 3569.99 666.547 C 3569.95 675.504 3567.35 711.62 3568.18 716 L 3566.66 718.267 C 3564.67 714.17 3565.27 716.359 3564.94 711.682 L 3563.91 711.715 C 3561.3 675.456 3563.49 606.947 3563.59 568.352 C 3544.76 568.286 3525.93 568.374 3507.1 568.615 C 3503.49 580.47 3500.31 590.361 3495.95 601.946 C 3496.22 519.01 3578.11 579.529 3602.6 554.817 C 3605.35 543.714 3609.2 496.281 3607.2 485.565 C 3594.36 466.446 3532.41 478.639 3508.83 466.102 C 3504.16 459.483 3505.62 460.154 3504.62 450.869 L 3506.12 451.906 C 3508.39 457.697 3508.7 459.514 3513.03 464.144 C 3523.56 467.69 3550.73 467.418 3563.34 467.721 C 3565.61 422.019 3562.85 365.678 3564.05 318.266 L 3565.4 318.244 z"/>
<path transform="translate(0,0)" fill="rgb(63,59,47)" d="M 3614.65 468.999 L 3618.3 470.496 C 3622.89 481.605 3620.85 555.069 3617.56 569.258 C 3615.33 578.879 3579.13 577.514 3569.49 577.732 C 3569.88 602.061 3579.54 689.322 3574.07 705.002 L 3571.43 705.648 C 3570.61 693.246 3570.94 679.117 3570.98 666.536 L 3569.99 666.547 C 3569.95 675.504 3567.35 711.62 3568.18 716 L 3566.66 718.267 C 3564.67 714.17 3565.27 716.359 3564.94 711.682 L 3565.23 568.277 C 3581.13 568.853 3598.11 568.565 3614.1 568.574 C 3613.88 537.776 3612.67 499.125 3614.65 468.999 z"/>
<path transform="translate(0,0)" fill="rgb(63,59,47)" d="M 3565.4 318.244 L 3566.7 313.612 C 3568.91 320.922 3572.18 347.935 3572.2 355.707 L 3573.5 337.902 C 3577.15 366.086 3576.29 412.872 3570.45 440.83 L 3565.12 445.596 C 3564.79 403.145 3564.88 360.692 3565.4 318.244 z"/>
</svg>