<svg xmlns="http://www.w3.org/2000/svg" width="4096" height="1913" preserveAspectRatio="none" style="display:block">
  <defs>
    <linearGradient id="a" x1="3879.7" x2="3969.8" y1="137" y2="174.2" gradientUnits="userSpaceOnUse">
      <stop class="stop0" offset="0" stop-color="#bbd1d3"/>
      <stop class="stop1" offset="1" stop-color="#e0dfdd"/>
    </linearGradient>
  </defs>
  <path fill="#010101" d="M226 0h3773c2 4 15 3 21 5q45 13 65 55c4 8 10 28 11 30v1736l-9 24c-10 29-35 51-65 59-5 2-7 0-13 4H213c-5-4-9-2-16-5q-24-7-42-25c-36-33-31-74-31-118v-476c-33-3-70 1-103 0l-21-1V626l6-2h118V142c0-15-1-35 1-49q3-21 14-40c13-21 35-40 60-47 5-2 25-3 27-6"/>
  <path fill="#f4f4f3" d="m887 415-101-1c-17 1-47 1-63-1q-21-4-39-14c-35-19-61-58-66-97-3-29-2-70-2-100V11c15-2 35-1 51-1h3332q33 3 59 27l4 4q27 31 25 71v406l1 724v510c0 45 7 90-28 125-31 31-62 28-102 28H617v-184c0-28-2-90 4-115q9-37 36-65c43-43 85-38 140-37h90v-35c-48 2-98-1-147 0a167 167 0 0 0-153 131c-6 26-4 89-4 121v184H266q-32 2-62-4c-39-9-70-46-71-86l-1-49v-91l1-339h349c17 0 39 1 56-1a108 108 0 0 0 91-77c10-29 6-103 6-137V765c0-22 1-60-1-81q-2-23-13-43c-13-25-38-49-65-57-23-7-55-5-80-5H206c-13 0-62 1-71-1-2-3-2-17-2-21V148q-1-30 2-60c6-38 39-70 77-76q27-3 53-2h319c-2 7-2 10-2 17v226c0 24-1 47 5 70q11 44 42 76c54 54 102 49 171 49h87z"/>
  <path fill="#3b8693" d="M960 83c3-14 45-4 57-5 21-2 57 1 75-2h77l-8 2c9 2 16-1 24-1 23 0 54 3 76 0h-1l24-1 14 2c33-2 66 1 99-1 11-1 28 3 38 2l-11-3q6 0 12 1 10-1 18-1h32q34 0 70 2l29-2 76 1 3 3c9 0 16-4 25-3q18 2 37 0 61-1 121 1 15 1 28 3v-2c-8-5-10 0-16-3l15-1c6 1 12 7 20 4 15-8 45 4 58-1q-6-2-13-2h25v1h-4l1 2c3 0 10 0 12-2h-4v-1q29 3 59 2c7 0 3-4 20-3v3c24 0 49 2 73-2 7-1 22 4 30 2 8 0 26-5 31-4l-5 1c14 4 45-2 59 3h20l-4-2c4-1 116 3 126 3l-2-1v-1c19-2 41 1 61-1 1 0 6 5 8 3l10-1 1-2c7-1 28 1 37 1q3 2 13 2l-9-3 1-1c6-2 12 3 17 3 4 1 11-3 16-2q46 2 91 3l1-1-3-3h7l8 3c3 1 81 2 88 1 7-5 12-3 22-2v1l-4 1h41l1-2-6-1h22v1h-6l1 1c7 0 33-3 38-2v1l-5 1c6 0 28-1 32 1l2-1-17-2c16-2 44 1 60 3 14 1 81-6 89-1l-1 1v1l21-3q42 2 85-1l20 1q69-2 140 1c9 1 25-4 32 1q7 3 7-3h3v3c3 1 14-3 19-3h66l45 1 8 3 15-3q48 1 95-1c6 0 9 5 18 0h43c62-1 124 6 186 2h12q84-4 168-1c12 0 33-4 42 5 3 8-1 31 2 43l1-13v48h-1v-15l-2 1 1 23 2-3c2 5 0 28 1 35 2 47-2 96-1 143l-1 1-2 2c2 10 3 7 2 17v-3c0 20 0 46 2 66q0 10-1 21v178q0 57 1 114v231l-2 503 1 257 1 59c-1 16 1 24-1 41-10 15-55 8-71 8q-24 1-47 1l9-1h-90 3c-22-1-42 2-63 0l-21 2q-27-1-52-1l7-1q-40-2-80 1c-14 0-33-3-46-1l7 1c-19 1-50-2-68-1-13 1-122-2-125 0l9 2h-21l9-2-1-1q-20 2-40 2c-30-3-60 0-90-1h5-125l6 1q-41 0-84-1l-126 1h-23l-21-1h-58l-255 1h-139c-15 0-27-3-46-1h10v1c-6 2-18 0-25-1-19-1-37 2-56 1-4 0-23-2-25-1q6-1 10 1-8 3-14 0-13-2-27-1h-84q-7 1-14-1l-1 1 3 2-4-1q-24-3-47-1-85 3-170 0c-9-1-22 3-31 1q8-1 10-1c-3-2-14 0-19 0q-27 2-56 2c-6 0-13-5-18-3v1h5v1c-46 3-96-2-142 1-4 0-17-2-19-1-15 3-126-4-130-1l39 1h2c-10 1-45 2-52-1l-50 1-48 1h-146l-20-2-29 1c-12 0-30-2-42-1l7 1c-35 1-74 1-109-1-11-1-105 4-109 1l-1-2c-9-1-9 8-18 1-2-2-5-1-8-5-2-16 0-26 0-42 1-68-3-137 0-205v-29 1c-1-8-2-45 0-50v1-65 14-41l1 6-1-21v-375l1-609V127c0-8-3-34 2-42z"/>
  <path fill="#e5f8fb" d="M960 83c3-14 45-4 57-5 21-2 57 1 75-2h77l-8 2c9 2 16-1 24-1 23 0 54 3 76 0h-1l24-1 14 2c33-2 66 1 99-1 11-1 28 3 38 2l-11-3q6 0 12 1 10-1 18-1h32q34 0 70 2l29-2 76 1 3 3c9 0 16-4 25-3q18 2 37 0 61-1 121 1 15 1 28 3v-2c-8-5-10 0-16-3l15-1c6 1 12 7 20 4 15-8 45 4 58-1q-6-2-13-2h25v1h-4l1 2c3 0 10 0 12-2h-4v-1q29 3 59 2c7 0 3-4 20-3v3c24 0 49 2 73-2 7-1 22 4 30 2 8 0 26-5 31-4l-5 1c14 4 45-2 59 3h20l-4-2c4-1 116 3 126 3l-2-1v-1c19-2 41 1 61-1 1 0 6 5 8 3l10-1 1-2c7-1 28 1 37 1q3 2 13 2l-9-3 1-1c6-2 12 3 17 3 4 1 11-3 16-2q46 2 91 3l1-1-3-3h7l8 3c3 1 81 2 88 1 7-5 12-3 22-2v1l-4 1h41l1-2-6-1h22v1h-6l1 1c7 0 33-3 38-2v1l-5 1c6 0 28-1 32 1l2-1-17-2c16-2 44 1 60 3 14 1 81-6 89-1l-1 1v1l21-3q42 2 85-1l20 1q69-2 140 1c9 1 25-4 32 1q7 3 7-3h3v3c3 1 14-3 19-3h66l45 1 8 3 15-3q48 1 95-1c6 0 9 5 18 0h43c62-1 124 6 186 2h12q84-4 168-1c12 0 33-4 42 5 3 8-1 31 2 43l1-13v48h-1v-15l-2 1 1 23 2-3c2 5 0 28 1 35 2 47-2 96-1 143l-1 1-2 2c2 10 3 7 2 17v-3c0 20 0 46 2 66q0 10-1 21v178q0 57 1 114v231l-2 503 1 257 1 59c-1 16 1 24-1 41-10 15-55 8-71 8q-24 1-47 1l9-1h-90 3c-22-1-42 2-63 0l-21 2q-27-1-52-1l7-1q-40-2-80 1c-14 0-33-3-46-1l7 1c-19 1-50-2-68-1-13 1-122-2-125 0l9 2h-21l9-2-1-1q-20 2-40 2c-30-3-60 0-90-1h5-125l6 1q-41 0-84-1l-126 1h-23l-21-1h-58l-255 1h-139c-15 0-27-3-46-1h10v1c-6 2-18 0-25-1-19-1-37 2-56 1-4 0-23-2-25-1q6-1 10 1-8 3-14 0-13-2-27-1h-84q-7 1-14-1l-1 1 3 2-4-1q-24-3-47-1-85 3-170 0c-9-1-22 3-31 1q8-1 10-1c-3-2-14 0-19 0q-27 2-56 2c-6 0-13-5-18-3v1h5v1c-46 3-96-2-142 1-4 0-17-2-19-1-15 3-126-4-130-1l39 1h2c-10 1-45 2-52-1l-50 1-48 1h-146l-20-2-29 1c-12 0-30-2-42-1l7 1c-35 1-74 1-109-1-11-1-105 4-109 1l-1-2c-9-1-9 8-18 1-2-2-5-1-8-5-2-16 0-26 0-42 1-68-3-137 0-205v-29 1c-1-8-2-45 0-50v1-65 14-41l1 6-1-21v-375l1-609V127c0-8-3-34 2-42zl1 1750c123-2 250 0 373 0h2680V82H1014z"/>
  <path fill="#2990a2" d="m3346 87 70 1 177-1h63l149 1c23-1 196-2 202 4v59l1 119v308l2 972v95l-1 76v71c0 7 1 30-2 34l-26 1h-548l-1173 1h-255l-124-1q-88 2-176 0c-35-2-69 1-104 0h6c-17 2-47 0-65 0h-105c-8 0-58 2-62 0h-38c-44 1-90-2-134 1l4-2h-15c-37 2-75-2-112 1q-10 2-19 0-13-2-25 1l-1 1c4 2 70 1 79 1l-1-1c13 1 55-1 64 1-4 3-71 1-81 1H994c4-4 29 3 39-2l-1-1c-11 0-54 1-63-2l-2-2c-4-10-1-237-1-269V172c0-16-2-72 3-84 32-2 80 1 114 1l207-1 340 1c49 0 102-2 151-1h-1 21l55 1 138-1h-1 128l218 1 83-1 13 2h79l70-1h-1 12-2 53l207 1v-1l-4-1h4c12 4 110 1 129 1h135c5-2 40-1 47-1h134z"/>
  <path fill="#3b8693" d="m1386 406 3 1 6 2c9 0 40-4 47 0l-3 3q14-1 29-4l51 1-5 1c10 1 49-4 55-1q10 4 21 1h-15l1-1c14-3 32 1 47 1 11 0 41-4 49-1l5 2 13-3h33l4 3 3-1c2-2 23 0 27 0l-5-1 1-1c3-2 52 2 62 0h6v1l-4 1 4 1c3 0 25 1 26-1-4 0-16 2-19-1 3-3 29 0 35 0h233c11 0 35 5 43 2l6-1h1l-10-1v-1q11-1 21 1c11 2 28-1 40-1l49 1h66l1 2 1 1 3-2q4-1 10 2l3-3q17 0 33 2 52-3 104-1c11-6 21 1 32 0l-3-1v-2l5-1 13 4c8 0 15-3 23-1 9 2 16-2 25-1 43 3 91 2 135 1q27-1 53-1l16 2-2-1v-1h16q6 0 9 4v1l-7-1q9 2 14 5l2 2 2-1c4 4 9 17 9 23v11l1 4-2 1-2-17v33q-1 18-1 36l2 5 1 2v4l-2-5-1 4 1 21 1-3 1 1 1 3v-2 4l-3 1-1 3 3 6v60q2 14 1 26l-3 4q-2 7 3 12-4 24-3 48v82l2 32v107l-1 24q2 7 1 15l-1-3-1 1-1 18h1l2-1-2 4q0 10 2 20c0 10-4 19-1 29l1-7q2 7 0 16l-2-6c-2 8 2 16 2 24q1 20-1 40l-1 18q2 12 3 23-1 9-3 17 0 4 2 5l1 1-3 15q0 11 1 22v39l2 19v22l-1 1c-2-7 0-15-2-22q-2 27-1 54l2 114c0 15 3 54-1 67q-6 14-19 20l-2 1c-12 6-94 3-113 3q-34 2-69 0H1325c-87-2-174 3-261-1h-31c-8-1-23-4-29-9-4-4-9-14-10-19-2-15 0-37 1-52l-1-69q3-31 2-62l-1 7V965l-1-250V605q2-16 3-32l-3-97q-1-20 1-39l1-6c7-15 10-14 25-19h-5l1-1c14-7 38-1 53-1l44 1h24q3 0 5-2l-2-1q8-1 15 1 12 2 23 2l-7-2v-1c6-2 32 2 41 1q47-2 94 0 16-1 32-1l3 1c6 3 5-1 10 0l2 2c11 2 52 1 66 0-10-3-25 2-35-1l-1-1z"/>
  <path fill="#b5d8e0" d="M2758 413c12 0 26 0 36 9q10 10 9 24v1034q-1 12-9 23-10 8-22 9H1049c-13 0-29 1-39-7q-10-10-11-24v-129l1-292-1-399V447q-1-13 7-24 8-8 20-9h1594z"/>
  <path fill="#2990a2" d="M1017 1497q-6-5-7-13V700l-1-179 1-57c0-11-2-31 8-37 10-5 30-4 42-4h1715c8 2 17 7 17 16v156l1 630-1 178v49c1 10 3 39-5 45q-6 4-13 5h-87l-172 1-1079 1-294-1-78-1c-12 0-38 2-47-5"/>
  <path fill="#3b8693" d="M2775 423c8 2 17 7 17 16v156l1 630-1 178v49c1 10 3 39-5 45q-6 4-13 5h-87l-172 1-1079 1-294-1-78-1c-12 0-38 2-47-5l2-1c11 6 66 1 83 1 47 3 96-1 143 0l513 3 126-1c21 1 38 2 59 1h-7 30-19 39-8l36-1h74c43 0 92-1 135 1h-1 16-4 49l39-1h399c76 0 64 5 68-65v-16 1l-1-39v-141l2-13-2-30c-1-11 4-16 2-26q-1-14-1-29c0-11-4-72 0-78q1 3 1 9v-24l-2 6v-63c2 2 0 19 1 24 1-30 5-72-1-100v1-17l1 12 2-5c-3-6 0-6-1-10-6-23-2-50-2-74q2-8 3-20l-1-92-1 2-2-1v-53c1-13-2-32 0-45 2-15 2-17 2-32l-2 2v-5l1 1 2-105q-2-18-1-37z"/>
  <path fill="#010101" d="m2773 1482 1 1c-5 2-31 1-38 1l-85 1-227-1-290 1-39 1-496-2-189 1h1c-49 2-96-1-146-1l-144 1-83-1c-7 0-15-2-15-9v-331l-1-41-1-25 1-454c1-61-2-122 0-182 0-3 12-9 16-9q13 3 28 3 230 1 459-2h-4c18-2 35 2 53 2h79l288-1c50 0 105 1 154-2h-9q17-1 33 1h51l271 1 235 1h92q14 0 15 13l-1 34-1 115 1 478-2 76 1 228-1 71c0 6 3 23-2 27-2-4-1-107-1-120l-1 119q-1 2-3 5"/>
  <path fill="#3b8693" d="m2773 1482 1 1c-5 2-31 1-38 1l-85 1-227-1-290 1-39 1-496-2-189 1h1c-49 2-96-1-146-1l-144 1-83-1c-7 0-15-2-15-9v-331l-1-41-1-25 1-454c1-61-2-122 0-182 0-3 12-9 16-9q13 3 28 3 230 1 459-2h-4c18-2 35 2 53 2h79l288-1c50 0 105 1 154-2h-9q17-1 33 1h51l271 1 235 1h92q14 0 15 13l-1 34-1 115 1 478-2 76 1 228-1 71c0 6 3 23-2 27-2-4-1-107-1-120V512c0-11 1-63-1-72l-41-1H1063c-6 1-30-1-35 2-3 7-1 235-1 262v694c0 24-2 60 0 83q234 3 469 1h1238z"/>
  <path fill="#e5f8fb" d="M1028 390q-5-4-5-11l-1-85c0-3 10-17 13-19 13-14 23-23 33-39q2 4 4 4l1-1 9-11-7 4v-1 1h-1c5-6 13-19 19-22 6-2 44-43 50-50 4-5 14-20 19-23 2-1 4 2 5 0q3-4 8-5 20-2 41-1h90q267 2 536-1l706 1h432c12 0 78-3 80 6 7 28 0 74 4 105 2 16-15 29-25 39-25 28-56 54-82 82h-1l1-3-2-1c-4 5-14 14-16 19l2-2c-3 5-14 20-19 20-25 3-62-1-86-1l-244 2-105 1q-21 1-42-2c-4 2-22 2-27 1h-146c-17 0-35 2-52-3-4-2-23 3-28 2q0-1-6-3l-1 1q-3 2-7 3h-150c-70 2-141-1-210 0l-538-2q-20 1-40 1-47-1-93 1c-36 0-80 4-114-2q-3-2-3-4z"/>
  <path fill="#3b8693" d="M1028 390q-5-4-5-11l-1-85c0-3 10-17 13-19 13-14 23-23 33-39q2 4 4 4l1-1 9-11-7 4v-1 1h-1c5-6 13-19 19-22 6-2 44-43 50-50 4-5 14-20 19-23 2-1 4 2 5 0q3-4 8-5 20-2 41-1h90q267 2 536-1l706 1h432c12 0 78-3 80 6 7 28 0 74 4 105 2 16-15 29-25 39-25 28-56 54-82 82h-1l1-3-2-1c-4 5-14 14-16 19l2-2c-3 5-14 20-19 20-25 3-62-1-86-1l-244 2-105 1q-21 1-42-2c-4 2-22 2-27 1h-146c-17 0-35 2-52-3-4-2-23 3-28 2q0-1-6-3l-1 1q-3 2-7 3h-150c-70 2-141-1-210 0l-538-2q-20 1-40 1-47-1-93 1c-36 0-80 4-114-2q-3-2-3-4h549l1342-1a10599 10599 0 0 1 136-135V137H1172c-6 5-18 19-24 26l-49 52-45 47-25 28c-3 30 2 69-1 100"/>
  <path fill="#2990a2" d="m2418 397-49-2c13-2 65-2 76 1-4 2-22 2-27 1"/>
  <path fill="#f4f4f3" d="m1507 140 1027 2 339-1h112c14 0 50 0 64 2v31c0 12 6 72 0 80-11 15-35 35-49 49-23 22-59 65-85 82l-43 1q-67 0-134-2c-14-1-31 2-45 1-45-2-95 2-140-1q-21-1-42 1-6-2-11-2c-3 0-2 3-7 4l-1-1 4-3q-6 0-11 2h1c-7 4-12 0-18 0q-124 1-247-1l-21-1-28 2-76 1-499-1h-450c-31 1-62-2-93-1-27 1-12-3-20-10 0-4 4-10 4-21 1-9-6-57-2-62 30-35 72-76 103-111 12-14 22-17 29-30q3 0 4-2v-1l-2-1c12-11 295-2 336-5z"/>
  <path fill="#010101" d="M1203 201h38c3 28 11 64 15 92q22-31 41-63l19-29h38l-11 44-22 91h-31c7-20 14-49 18-70l-1-2q-4 6-11 10l-39 62h-23l-13-92q-12 46-22 92l-30 1 12-47z"/>
  <path fill="#f4f4f3" d="M1314 244q-1 12-6 22l-1-2q-4 6-11 10z"/>
  <path fill="#010101" d="M2457 199c24-1 49 4 52 32 4 44-20 100-67 107-23 2-44-4-49-30-5-24 4-55 16-76q17-26 48-33"/>
  <path fill="#f4f4f3" d="M2460 222c34 0 16 53 8 70q-8 16-25 22-17 1-20-14c-4-27 7-70 37-78"/>
  <path fill="#010101" d="M2579 199c28-2 52 6 54 39 2 26-10 57-26 76-19 22-56 34-80 14-8-7-10-20-10-31h13l16 1 2 9c5 8 20 7 26 4 16-9 22-27 27-43-14 17-37 30-58 17q-12-8-15-21c-2-12 2-27 8-37 11-17 24-23 43-28"/>
  <path fill="#f4f4f3" d="M2580 222c33-5 30 36 2 46q-9 2-17-1-5-3-7-9c-6-16 7-31 22-36"/>
  <path fill="#010101" d="M2689 253c15-7 32-10 48 1q9 9 11 23c0 33-28 60-60 61-26 1-46-11-47-39 1-28 11-57 30-79 18-21 55-30 78-10 8 7 8 18 8 28h-29q-3-21-23-14-16 6-23 23-5 9-7 19z"/>
  <path fill="#f4f4f3" d="M2695 268q7-1 13 2 6 2 9 9 3 9-2 18-6 13-21 18-6 1-13-2-6-1-9-9-3-10 2-19 8-13 21-17"/>
  <path fill="#010101" d="m1848 201 29-1-7 29-17 65c-1 7-9 40-12 43h-25c-11-27-25-61-38-88l-22 88h-30l35-136h29c8 26 25 60 36 87 5-27 15-60 22-87M2083 200h29l-34 136h-28l4-17c-13 15-20 19-39 19l-4-1c-26-6-26-32-20-54 7-27 32-57 64-50q12 5 17 17z"/>
  <path fill="#f4f4f3" d="M2042 256h13q6 3 8 8 4 13-2 26-5 16-21 24h-12q-6-2-8-7-4-14 2-29t20-22"/>
  <path fill="#010101" d="M1928 233q19-2 36 7 11 9 13 23c3 17-3 36-14 49a63 63 0 0 1-42 26q-18 2-34-6-11-8-14-22c-3-16 2-35 11-48q16-23 44-29"/>
  <path fill="#f4f4f3" d="m1928 255 11 1q5 3 8 8 3 14-3 29-7 16-22 23l-10-1q-6-3-9-9-5-14 3-29 7-16 22-22"/>
  <path fill="#010101" d="M1598 201h28l-13 51q16-24 45-19c11 1 21 14 19 26q-6 40-17 78h-30l11-44c3-9 8-24 3-31-6-12-29-3-33 6-8 21-13 48-18 69h-30c12-41 24-93 35-136M2162 233q11-1 22 1 14 3 21 14c9 13 5 30 2 44-12 0-61-2-70 1l-2 5q-1 8 6 13 7 6 15 5 13-1 20-12l26 2-2 5q-12 19-34 25c-13 4-30 4-43-3q-11-7-15-21-4-27 11-50 16-23 43-29"/>
  <path fill="#f4f4f3" d="M2162 254h10q8 3 12 11 2 4 1 7c-5 5-14 3-20 3h-25q6-15 22-21"/>
  <path fill="#010101" d="M1405 233q11-1 23 1 13 3 21 14c8 13 5 30 2 44-10 0-64-2-69 1l-2 2-1 3a19 19 0 0 0 21 18q12 0 19-10l1-1 26 1-2 5c-6 13-20 21-33 25s-31 4-43-3q-12-8-16-22c-3-16 2-35 11-49q15-23 42-29"/>
  <path fill="#f4f4f3" d="M1405 254q8-1 15 2 7 5 9 13 0 2-3 5-7 2-16 1h-26q6-14 21-21"/>
  <path fill="#010101" d="M1523 232q12 1 22 3 11 4 15 13 3 7 2 14c-5 2-22 4-26 1-5-4-6-10-13-11q-9-1-16 6-4 2-5 7c5 11 36 10 48 20q5 4 5 12 0 14-9 24-20 18-48 17-13 0-24-5-9-4-13-15-2-7 1-12 12-3 26-2l4 8q5 6 13 5 9 0 16-6l3-6c-9-15-50-7-51-30-1-31 26-41 50-43M2288 200h111l-5 23h-42l-21 83-7 31h-30l29-114h-42z"/>
  <path fill="#b5d8e0" d="M3965 1472c-11 4-22-8-27-17l-1 2c-6 0-27-23-36-25q-12-12-27-21c-40-34-85-61-126-93l-43-33-60-43-30-22 1-1c-50-29-93-74-144-102-4-3-9-11-13-13-28-16-52-38-78-57l-94-70c-5-4-8-3-11-5l-40-31c-8-5-7-7-15-9l-16-12-63-48-80-58c-8-6-10-11-21-17l-24-15-62-49-39-26c-5-3-13-13-17-15-20-11-36-26-55-37-3-1-13-12-13-15q-2-45-1-90v-71c0-17-2-29 3-46 5-6 63-3 73-4l36-1c7-1 20 2 28 4l4 2-1 1-5-1c6 3 40 23 41 28v-1 3l2-1 41 29 11 10q32 21 62 44c22 14 41 32 63 46 4 2 5 0 6 6h-3l3 2 2-3q8 9 18 14l134 98 4 8c4 4 8 1 12 4l55 41c8 5 11 10 18 16l5 1q36 26 72 53l29 21-1 3 1 1h1v-2q0-1 4 2l38 27 97 72 129 95c20 15 36 28 58 43q19 12 36 27c7 5 20 18 27 18 5 6-1 1 1 6l3-1c8 4 26 17 32 24-1 6 2 17 2 23v163c0 8-3 48 1 53l1-2c3 9 1 33 0 43v-3l-6 24z"/>
  <path fill="#3b8693" d="M3965 1472c-11 4-22-8-27-17l-1 2c-6 0-27-23-36-25q-12-12-27-21c-40-34-85-61-126-93l-43-33-60-43-30-22 1-1c-50-29-93-74-144-102-4-3-9-11-13-13-28-16-52-38-78-57l-94-70c-5-4-8-3-11-5l-40-31c-8-5-7-7-15-9l-16-12-63-48-80-58c-8-6-10-11-21-17l-24-15-62-49-39-26c-5-3-13-13-17-15-20-11-36-26-55-37-3-1-13-12-13-15q-2-45-1-90v-71c0-17-2-29 3-46 5-6 63-3 73-4l36-1c7-1 20 2 28 4l4 2-1 1-5-1c6 3 40 23 41 28v-1 3l2-1 41 29 11 10q32 21 62 44c22 14 41 32 63 46 4 2 5 0 6 6h-3l3 2 2-3q8 9 18 14l134 98 4 8c4 4 8 1 12 4l55 41c8 5 11 10 18 16l5 1q36 26 72 53l29 21-1 3 1 1h1v-2q0-1 4 2l38 27 97 72 129 95c20 15 36 28 58 43q19 12 36 27c7 5 20 18 27 18 5 6-1 1 1 6l3-1c8 4 26 17 32 24-1 6 2 17 2 23v163c0 8-3 48 1 53l1-2c3 9 1 33 0 43v-3l-6 24-1-31v-266c-6-6-25-20-33-25l-64-47-208-154-698-512h-128l-1 206 777 571 230 169c40 29 85 61 124 92"/>
  <path fill="#c8c8c9" d="M2844 437c12 10 99-6 125 7 11 5 20 15 30 22l69 50 57 44q19 14 39 27a3693 3693 0 0 1 158 117c5 2 7 11 14 12l5 2 16 14q20 14 42 28l21 16 29 23q12 6 22 14c6 7 13 8 21 13l-1 2c1 3 19 14 23 17l34 26 15 9 12 12 23 14 29 22 15 12 6 2 30 24q37 28 75 55 5 4 9 8 17 9 33 23l38 26q7 7 13 12 11 9 24 16l57 44c10 7 23 14 31 23 6 7 3 246 3 273l-1 11-2 1q-6-3-10-7c-29-18-55-41-84-61q-6-6-14-10l-4-1-3-1-6-7q-8-7-18-13l-36-29-48-33-7-6-26-19q-21-16-43-30-7-4-10-9-2-4-6-5c-11-3-20-15-29-21q-10-6-21-13l-19-17-57-40-25-19-39-30-20-13-18-15-22-14-16-13-58-42-25-17-32-26-23-13-8-9-33-25-43-30-22-17q-21-14-41-30l-1-1-1 1h-1c-16-16-25-18-40-30l-24-21-19-12-41-29-31-24-23-17-39-31c-9-7-21-10-29-18q-5-6-4-13-2-59 0-118c1-21-1-46 1-67q0-4 4-6"/>
  <path fill="#b5d8e0" d="M3558 1004c-26 0-13-22-30-32-4 0-3 0-7 2q-3 7 3 14c10 15 18 19 18 38q0 25-24 31c-25 7-56-17-62-41-1-3 2-13 0-19-6 0-28 5-31 4-27-7-51-29-45-59h1c6-23 21-11 30 0l-1 8c6 7 7 16 19 15 3 0 1 0 3-2-3-12-12-10-13-24h-1l-2 3-1-1c2-11-2-7-5-15-5-12 2-31 13-38 29-15 69 8 70 40 0 8 0 16-10 18h-1v2c-16 2-20-17-25-28l-11-6c-7 9 7 17 11 25l-1 1-2-1 2 4h1l1-1c12 5 16 25 9 35-3 5-12 13-12 16l1 3c6-1 6-9 11-9 23 2 20 14 22 29 6 7 9 7 18 9l1-1c-1-19-20-27-21-39h3c-1-4-8-7-7-16 2-12 5-16 15-21 7-13 16-5 26-6 9 0 8-2 17 4 17 8 42 44 20 58z"/>
  <path fill="#3b8693" d="M3485 1002q-5 8 0 16 6 11 17 13c6 2 15-1 13-7-5-20-26-32-26-54 1-32 46-28 62-10 14 15 16 26 10 44h-3l-17-12q3-10-3-18c-14-14-35-8-19 13 11 15 28 37 14 55-22 29-64-1-73-27v-2c1-10 2-15 6-24z"/>
  <path fill="#2990a2" d="m3513 952 9-1c9 1 23 9 29 16q8 8 8 19l-4 7c-9-1-10-16-15-22l-10-7-3-1q-9-1-15 4c-11 12 21 38 21 60 0 11-7 15-14 21q-11 3-20-1h-1q-17-8-29-23-6-11-3-21v-5l2 1 8 3c5 3 4 10 5 16q3 8 10 11c5 3 16 8 21 6 4-2 6-9 7-13q-1-6-5-11c-7-13-21-24-19-41q1-8 8-14l9-3zM3415 925l5 2 3-1c0-12-4-19 6-29l6-1c13-3 22-5 34 4q9 8 14 20 3 7 2 15-6 6-13 1c-7-14 3-19-20-31-7 0-22 2-20 13 3 19 37 42 22 63-11 14-33 13-45 2-8-6-29-31-16-40 10 2 12 28 24 31 24 7 34-5 17-25-5-6-7-13-15-16z"/>
  <path fill="#3b8693" d="M3415 925c-7-13 1-28 14-35 30-14 74 26 54 56h-1l-17-11q2-7-1-15c-4-10-16-15-26-10-11 17 42 44 19 74-30 38-92-22-67-50q5 1 10 4c4 4 7 5 7 12-2 29 54 34 24-1l-12-16c8 3 10 10 15 16 17 20 7 32-17 25-12-3-14-29-24-31-13 9 8 34 16 40 12 11 34 12 45-2 15-21-19-44-22-63-2-11 13-13 20-13 23 12 13 17 20 31q7 5 13-1 1-8-2-15-5-12-14-20c-12-9-21-7-34-4l-6 1c-10 10-6 17-6 29l-3 1z"/>
  <path fill="#2990a2" d="M3287 892v-3c4-11 46-66 56-78q3-3 9-6l15 8c7 12 6 50 3 62l-2-1 1 13-4 1v2l2 1c7-2 24-37 35-40 7-2 15 6 21 11-7 10-63 84-66 85-11 1-12-3-19-10q-2-26 1-53c0-4 3-15 2-17-3 0-2-1-5 1l-1 7v1c-7 10-17 23-26 31-8 6-19-3-23-11l1-2z"/>
  <path fill="#3b8693" d="M3402 851c7-2 15 6 21 11-7 10-63 84-66 85-11 1-12-3-19-10q-2-26 1-53c0-4 3-15 2-17-3 0-2-1-5 1l-1 7v1c-7 10-17 23-26 31-8 6-19-3-23-11l1-2 18 13c5-7 36-50 40-51v2q4 3 5 7l-3 66q3 5 7 7 4 1 6-1c10-11 15-19 25-32 8-12 23-27 28-41q1-2-2-3c-14-6-31 35-44 39 3-8 31-39 35-49"/>
  <path fill="#b5d8e0" d="M3305 907c5-7 36-50 40-51v2l-3 77 15 12c-11 1-12-3-19-10q-2-26 1-53c0-4 3-15 2-17-3 0-2-1-5 1l-1 7v1c-7 10-17 23-26 31-8 6-19-3-23-11l1-2z"/>
  <path fill="#b5d8e0" d="M3287 892v-3c4-11 46-66 56-78q3-3 9-6l15 8c7 12 6 50 3 62l-2-1 1 13-4 1v2l2 1c7-2 24-37 35-40-4 10-32 41-35 49l-3-1c-1-25 3-54 3-79l-17-12-44 59q-9 13-19 25"/>
  <path fill="#3b8693" d="M3242 805zc1 9-3 21 5 28 5 4 22 12 27 5v-2l-13-10-2 2c-1-11-2-19 10-22 11-3 44 23 42 30-8 37-58 44-83 18-12-12-15-19-17-35 1-3 0-17 2-19 6-10 7-20 15-29 36-37 91-16 98 33l-3 14q-2 4-6 3l-18-11c5-41-42-43-57-6"/>
  <path fill="#2990a2" d="M3277 835c-2-7-11-10-7-16 5-2 3-1 8-1h-2c9 3 26 15 23 26-13 10-18 20-37 18-14-1-27-13-35-23-17-21-3-53 17-68q16-11 35-8c17 3 26 15 35 28q2 10-1 19l-2 1-7-4c-3-6 0-16-5-21l-5-2c-9-10-27-10-38-3-6 5-16 16-15 24q-6 13 0 26c8 12 23 21 36 10q4-2 3-4z"/>
  <path fill="#b5d8e0" d="M3242 805zc1 9-3 21 5 28 5 4 22 12 27 5v-2l-13-10-2 2c-1-11-2-19 10-22 11-3 44 23 42 30-8 37-58 44-83 18-12-12-15-19-17-35 1-3 0-17 2-19 6-10 7-20 15-29 36-37 91-16 98 33l-3 14q-2 4-6 3c11-25-4-52-28-62q-19-7-38 1c-45 21-51 87 1 104q17 6 33-3 15-9 23-26c-10-9-25-19-37-26l-9 14 15 11 3 2q1 2-3 4c-13 11-28 2-36-10q-6-13 0-26z"/>
  <path fill="#e5f8fb" d="M1072 1562c29 1 60-2 90 0 9 0 40-2 46 0v1q-6 2-14 0l-51 1c-10 0-53-3-59 0 3 2 560 0 599 1l249 1h132c11 0 57-1 65 1 35 2 73-1 108 0h25c5-2 35-1 43-1h94l319-2c-7-1-26 0-30-2 43-1 40 1 67 36 8 11 22 29 26 41l6 4-3-5 1-1c8 5 11 27 5 34-7 3-18 13-21 19l7-6v1c-6 12-15 18-24 28-8 10-18 33-32 35q-38 3-74 1h-800q-49 1-97 3-15 0-28-2l-75-2c-85-1-170 3-256 2q-47-1-95-1l-219 1q-9 0-14-7-17-21-33-45l-26-33c-10-12 7-31 16-40l-2 6c9-5 7-13 12-20q19-26 43-49"/>
  <path fill="#3b8693" d="M1072 1562c29 1 60-2 90 0 9 0 40-2 46 0v1q-6 2-14 0l-51 1c-10 0-53-3-59 0 3 2 560 0 599 1l249 1h132c11 0 57-1 65 1-81 2-168 0-250 0h-706c-29 0-74-2-101 0-20 22-51 64-70 89 21 27 47 64 69 88q120 2 242 0h1409c20-24 52-63 70-89-21-26-47-63-68-88h-462c5-2 35-1 43-1h94l319-2c-7-1-26 0-30-2 43-1 40 1 67 36 8 11 22 29 26 41l6 4-3-5 1-1c8 5 11 27 5 34-7 3-18 13-21 19l7-6v1c-6 12-15 18-24 28-8 10-18 33-32 35q-38 3-74 1h-800q-49 1-97 3-15 0-28-2l-75-2c-85-1-170 3-256 2q-47-1-95-1l-219 1q-9 0-14-7-17-21-33-45l-26-33c-10-12 7-31 16-40l-2 6c9-5 7-13 12-20q19-26 43-49"/>
  <path fill="#f4f4f3" d="m1083 1571 2 1h-1c6 2 42 0 51 1q21 1 41 3l21-3q13 0 25 2c9 1 74-2 77-1l4 2 21-3 91-1 927 1h379q16 17 29 38l16 18 10 17 4 5v6h-1l-2 7q-14 19-29 37l-23 31-5 4c-10 3-23-3-34 0l5 1h12-46l-55 1-24-1q-238 3-477 1h-292l-48-2-111 3q-72 2-143-2c-19-3-46 2-67 0v-2l-86 3-94 1q-68 2-134-1l-27-2q-10 1-20 1c-10-1-21-21-28-28-8-8-32-40-35-49q-3-4 0-8c6-14 43-64 55-75q6-4 12-6"/>
  <path fill="#010101" d="M1677 1613q13 0 22 7 13 9 15 25c2 15 1 35-8 47q-9 11-23 12-11 0-20-5-12-9-15-24c-3-15-3-34 6-47q8-13 23-15"/>
  <path fill="#f4f4f3" d="M1676 1628h6q7 1 11 6c6 9 7 23 5 33q-1 14-12 23h-7q-8-2-11-8c-6-9-7-25-4-35q2-13 12-19"/>
  <path fill="#010101" d="M1514 1614h14q13 3 20 13 5 7 3 15-4 10-14 15 13 5 16 17 3 8-1 15-7 11-20 14h-18q-13-2-22-12-4-7-3-16 4-12 16-18-8-5-12-14-3-8 1-15 7-11 20-14"/>
  <path fill="#f4f4f3" d="m1519 1665 9 1q6 2 8 7 3 5 0 10-3 6-11 8l-10-1q-6-3-8-8v-9q5-6 12-8M1519 1627l8 1q5 2 7 6 2 5 0 9-2 6-9 8l-8-1q-6-2-8-8-2-3 1-8 3-6 9-7"/>
  <path fill="#010101" d="M1193 1615h37q13 0 22 10 7 10 5 23-2 14-15 20l19 34h-18c-8-8-13-22-18-32h-15v32h-17z"/>
  <path fill="#f4f4f3" d="M1210 1629q12-1 24 3 5 2 6 6 2 8-4 15-12 5-26 3z"/>
  <path fill="#010101" d="M1604 1615h20c0 13-3 46 1 57l6 1h1q3 2 3 6l-1 7q-5 0-9 3-2 7-1 13h-8q-4 1-8-1-2-5-1-11l-1-2c-9-6-26 3-36-1q-4-1-4-4-1-6 2-11c5-12 28-45 36-57"/>
  <path fill="#f4f4f3" d="M1607 1635c2 4 1 31 1 38h-22l-1-1c0-5 18-32 22-37"/>
  <path fill="#010101" d="M1346 1615h53v14h-39l-2 22 7-4q11-5 22 0t16 16q4 13-1 24-6 13-20 16-11 2-23-1-12-5-18-16-2-3 1-7 6-1 13 0h1l1 1q3 7 10 10 8 1 15-2 5-4 6-10 1-8-4-15-4-5-10-6-10 0-17 7l-15-1q1-24 4-48M1438 1614h6q14-1 24 8 8 7 9 18c-1 18-25 37-38 49 8 0 34-2 38 2l1 9c-5 4-40 2-47 2h-10q-4 0-5-4c-2-12 37-36 43-52q3-5 0-12-3-5-8-6-7-1-13 2-6 5-7 13h-16l3-12q6-12 20-17M1272 1614h56l1 15h-40l-1 22h38v13c-3 3-32 2-38 2v36h-16zM1150 1636h2q11-1 19 6c10 11 6 45 7 60h-16c-1-12 2-32-2-43q-1-5-5-8-7-2-13 1l-3 2c-7 8-4 38-4 48h-16v-65q8-1 14 1l2 6 3-1z"/>
  <path fill="#b5d8e0" d="M2836 773c7-1 54 32 62 39 19 17 40 27 60 43l104 76c17 12 29 23 47 33 16 10 33 26 48 37q83 57 163 117l32 22-1 2h-2v-1l9 9 1-1-7-7 1-1c7 3 37 29 46 35l19 13q27 22 55 40l28 19 4 7 2-1v-2q8 6 12 13l-1-1c7 12 12 3 19 11-2 2-1 1-5 1l16 7 13 11 213 156c6 5 35 24 38 28l-2 2c7 3 20 8 25 13l-2 1v2l3 2v3q5 3 7 8l-1 2h-17l7 2v1h-14l-167-2q-20 1-39 1c-50-2-101 1-151 0q-6-1-12-4c-20-11-39-27-58-40q-20-12-37-29c1 0-17-2-21-15v-1l-2-1-1 2c-4-2-10-10-15-13q-34-23-69-48-27-20-56-39l1-2v-2l-2 1v2h-1c-6-8-13-7-18-12q-18-15-37-29l-11-7-2-6q-2-2-3-2l2 5h-2q-9-5-16-13l2-2-2-2-1 3h-1q-11-7-20-18l-3 1c-24-20-46-35-72-53l-31-23-8-6c-20-8-34-25-53-36l-13-11-61-46q-4-3-5-7c-5-7-1-13-2-20-4-46 3-93 0-139 0-13-2-33 0-45 3-16-6-71 2-82z"/>
  <path fill="#3b8693" d="m3843 1509-1 2h-17l7 2v1h-14l-167-2q-20 1-39 1c-50-2-101 1-151 0q-6-1-12-4c-20-11-39-27-58-40q-20-12-37-29c1 0-17-2-21-15v-1l-2-1-1 2c-4-2-10-10-15-13q-34-23-69-48-27-20-56-39l1-2v-2l-2 1v2h-1c-6-8-13-7-18-12q-18-15-37-29l-11-7-2-6q-2-2-3-2l2 5h-2q-9-5-16-13l2-2-2-2-1 3h-1q-11-7-20-18l-3 1c-24-20-46-35-72-53l-31-23-8-6c-20-8-34-25-53-36l-13-11-61-46q-4-3-5-7c-5-7-1-13-2-20-4-46 3-93 0-139 0-13-2-33 0-45 3-16-6-71 2-82 2 9 1 59 1 70l1 142v75l35 26 55 39 160 116 253 183c37 26 79 59 115 83h353zM2836 773c7-1 54 32 62 39 19 17 40 27 60 43l104 76c17 12 29 23 47 33 16 10 33 26 48 37q83 57 163 117l32 22-1 2h-2v-1l9 9 1-1-7-7 1-1c7 3 37 29 46 35l19 13q27 22 55 40l28 19 4 7 2-1v-2q8 6 12 13l-1-1c7 12 12 3 19 11-2 2-1 1-5 1l16 7 13 11 213 156c6 5 35 24 38 28l-2 2c7 3 20 8 25 13l-2 1v2l3 2v3l-72-52-138-101-459-335-248-180-54-39z"/>
  <path fill="#c8c8c9" d="M2840 784c12 3 41 29 53 37q11 8 22 15l29 22c7 5 17 8 22 15 4 5 15 9 20 13l79 58 289 212 40 27 11 10 15 10 38 27 65 49c6 4 15 8 19 14 2 4 13 9 18 12l27 20q8 4 14 10c2 4 48 35 55 39q7 6 13 12 10 8 22 14l41 31 13 8q7 7 13 12l28 19 26 19q13 7 23 16l-1 1q-10-3-21-4h-1l-4 1h-1q-44-2-88-1l-149-1-28 2-42-1h-44l-47-32-33-24-29-22-16-11-52-38-11-7-3-4-3-3q-29-19-57-39l-24-18q-19-12-36-25l-13-12-24-15q-19-16-40-28-7-6-13-12l-45-30-10-7-11-10-10-6-23-18-16-11-29-21q-16-13-32-24c-12-7-27-14-35-24-3-3-4-12-4-17V909l-1-84z"/>
  <path fill="#9f9f9f" d="M3112 1024q18 12 35 27l5 99q-47 11-92 25c-7-2-30-21-37-26q46-15 93-26-4-49-4-99M3203 1091c8 3 26 19 34 24 2 11 6 94 4 98-3 4-81 24-91 27-12-6-26-18-36-27q19-7 39-12 27-9 54-14-4-47-4-96M3009 951c11 5 24 17 34 25q2 17 3 35l3 62q-46 14-92 27c-9-1-28-19-36-25 29-12 61-19 92-29q-3-48-4-95M3297 1160c10 4 25 18 34 25q3 49 4 97l-93 26q-20-11-36-26l51-15q21-5 43-12-3-47-3-95M3390 1230q19 11 35 26l3 96-92 26c-9-4-27-20-36-27q46-13 93-25z"/>
  <path fill="#c8c8c9" d="M3964 991q-5 2-9 0l-101-72-26-16-12-13c-4-3-4 1-12-4l-85-60-181-127-12-11q-45-29-87-59 0-2 2-2c-5-3-13-4-16-7-47-38-99-69-148-104l1-2q-60-40-119-84l-53-37c-5-4-3-23-3-28-2-55 2-110 1-165 0-20-3-40 0-60q1-7 8-7c3 2 2 1 7 1l-4-1v-1c8-2 12 8 18 12 23 14 43 33 67 46 11 5 16 3 18 16l6 1c4 2 39 27 42 31v1l-1 1h1l2-2c11 5 30 24 40 30l69 48q26 14 47 33c-3-3 45 30 40 28 16 7 88 66 99 66 5 5 5 6 11 9l-1 1h-4q2 2 6 1c21 13 45 32 66 47l43 30c6 4 18 11 21 18l5 3-1-3 23 16v1h-5l13 4 89 65q70 47 138 98 3 14 4 28 0 27-1 53c0 19 4 169 0 175l-3 3z"/>
  <path fill="#3b8693" d="M3964 991q-5 2-9 0l-101-72-26-16-12-13c-4-3-4 1-12-4l-85-60-181-127-12-11q-45-29-87-59 0-2 2-2c-5-3-13-4-16-7-47-38-99-69-148-104l1-2q-60-40-119-84l-53-37c-5-4-3-23-3-28-2-55 2-110 1-165 0-20-3-40 0-60q1-7 8-7c3 2 2 1 7 1l-4-1v-1c8-2 12 8 18 12 23 14 43 33 67 46 11 5 16 3 18 16l6 1c4 2 39 27 42 31v1l-1 1h1l2-2c11 5 30 24 40 30l69 48q26 14 47 33c-3-3 45 30 40 28 16 7 88 66 99 66 5 5 5 6 11 9l-1 1h-4q2 2 6 1c21 13 45 32 66 47l43 30c6 4 18 11 21 18l5 3-1-3 23 16v1h-5l13 4 89 65q70 47 138 98 3 14 4 28 0 27-1 53c0 19 4 169 0 175l-3 3c-2-10-1-56-1-68q0-93-1-187-24-19-51-36l-108-77-59-42c-10-7-25-19-35-24-12-2-23-14-32-20q-28-17-55-36c-10-8-23-12-32-21-3-2-4 0-8-2-14-9-22-24-39-27-1 0-7-11-11-12q-6-1-11-6l-38-30c-6-4-17-9-21-14-9-10-16-9-25-19l-3-2-1-1c-5 0-32-20-37-24-10 0-10-7-17-12l-20-13c-7-5-19-19-27-19-22-20-60-43-85-60l-19-11-14-12q-36-26-72-51-11-9-24-17c-2-5-4-4-7-8l-1 3q-2 27-2 54l1 102q-1 39-1 78l3 8c13 18 82 55 89 68l1 2 39 28 70 49 210 149 281 197 97 68z"/>
  <path fill="#b5d8e0" d="M3109 134c43 27 95 66 137 96l302 212 118 83 46 33c-12-2-23-14-32-20q-28-17-55-36c-10-8-23-12-32-21-3-2-4 0-8-2-14-9-22-24-39-27-1 0-7-11-11-12q-6-1-11-6l-38-30c-6-4-17-9-21-14-9-10-16-9-25-19l-3-2-1-1c-5 0-32-20-37-24-10 0-10-7-17-12l-20-13c-7-5-19-19-27-19-22-20-60-43-85-60l-19-11-14-12q-36-26-72-51-11-9-24-17c-2-5-4-4-7-8l-1 3q-2 27-2 54l1 102q-1 39-1 78l3 8c13 18 82 55 89 68l1 2c-9-5-27-19-35-25l-61-43q0-54 1-107z"/>
  <path fill="#3b8693" d="M3693 609c11 6 27 17 37 25q13 11 15 27 1 15-10 25-13 13-32 13-3 23-4 46-12-6-21-14l1-14 4-30-13-8q-12 14-22 31l-19-12q12-20 27-39z"/>
  <path fill="#2990a2" d="M3692 618h6c8 1 32 22 38 29 6 10 4 20 2 30q-6 7-13 12c-7 4-15 4-21 8-12 6-7 25-10 36l-4 1-1-3-3-3c-3-5 0-24 1-31q1-9-4-16l-5-2h-1l-4-2q-7 0-12 6h-1 1q-6 10-14 16l-7 1 3 2-1 1-2-1-1-4q-1-8 3-14l8-7 9-11c11-16 19-33 33-48"/>
  <path fill="#e5f8fb" d="M3699 639q5 0 8 3 11 5 14 16 1 6-2 11-5 7-13 7-14-3-24-13 8-14 17-24"/>
  <path fill="#b5d8e0" d="m3606 586 12 1q21 5 33 22 8 17 3 36l-3 1c-2 1-8 17-10 20q-3 6-10 7l-6 2 2 2h1l-2 2c-13 2-22 4-34-2q-18-8-26-26-5-19 3-35c9-18 19-24 37-30"/>
  <path fill="#3b8693" d="M3609 591q13 1 25 9 13 10 15 26 1 20-10 35-12 14-29 14-14 0-26-9-13-8-15-24-2-19 10-35 11-14 30-16"/>
  <path fill="#2990a2" d="M3608 596zh2l7 1c13 3 19 14 26 25v1c0 14-2 30-12 40q-10 9-24 8l-2-1q-22-5-34-26c1-11 1-21 8-31q10-15 28-17"/>
  <path fill="#b5d8e0" d="M3598 654c-19-1-16-23-6-36 14-16 38-16 40 8 1 8-6 25-17 25z"/>
  <path fill="#3b8693" d="M3598 654c-19-1-16-23-6-36 14-16 38-16 40 8 1 8-6 25-17 25 7-6 14-14 13-23-1-32-43-11-38 14 2 7 3 6 8 12"/>
  <path fill="#e5f8fb" d="m3617 618 3 3q3 9 0 18-4 6-11 9h-1l2 1-1 1-1-1-6-1q-3-1-5-6c-3-6 1-12 4-17q7-6 16-7"/>
  <path fill="#3b8693" d="M3766 715c-11 0-16 0-24-9-4-18 62-5 57 23-4 23-24 43-36 62l-16-12 2-7-11-1q-18-3-25-19-2-9 1-18c14-25 40-7 57 2 14-8 5-16-5-21"/>
  <path fill="#2990a2" d="M3766 715c-8-8-11-1-17-6v-1q0-4 4-7c10-2 27 9 28 8l-5-5q6 2 8 6v2q10 8 9 21c-2 11-23 47-36 46-4-2-5-9-2-13 4-4 10-8 10-14v-3l-2-2v-3c-8-6-15-12-24-7q-4-3-7 1c-5 8 4 19 4 25l-2 1c-6 0-14-8-16-13-1-2 0-14 2-16 7-10 25-7 35-4 7 2 9 6 16 5 14-8 5-16-5-21"/>
  <path fill="#e5f8fb" d="M3765 749q-3 4-7 7c-10 9-26 2-24-12q0-4 4-5 12 0 24 8h1z"/>
  <path fill="#2990a2" d="m3553 510 18 13c-14 22-35 48-50 71l2 3 36 26-10 15c-15-9-44-30-58-41l14-21z"/>
  <path fill="#3b8693" d="m3553 510 18 13c-14 22-35 48-50 71-7-13 44-58 39-71q-2-3-6-2c-21 20-35 47-53 70-7 8 40 38 46 37q3-1 3-4c-4-10-20-16-27-24v-3l36 26-10 15c-15-9-44-30-58-41l14-21z"/>
  <path fill="#b5d8e0" d="M3693 139c8-1 32 20 41 26 10 6 35 18 40 28h5l17 12-1 3 2-2c22 13 44 37 69 49 7 4 18 15 25 20l31 20c15 9 25 23 41 28 6 2 6 33 7 38 4 38 0 77 0 116v30-1l-1 51-3 27-2 2h-4c-24-6-66-46-90-61-59-39-116-83-175-123q-39-24-76-51c-7-5-1-2-5-9h-1l-1 3c-12-7-15-9-26-18-23-21-54-37-78-56-54-43-119-79-172-124l1-1q-3-2-5-6l1-1z"/>
  <path fill="#c8c8c9" d="M3556 300c-2-7-14-14-20-18l-34-24-122-87c-7-5-35-23-37-28l1-2q3-1 7 3c23-3 25 0 46 0l98 1 24 1 30 1q48 0 95-2c19 1 43-7 58 7 16 14 39 24 54 37 9 11 19 15 30 23q67 43 131 91c9 7 40 24 43 36l1 31v59l-1 84c0 14 3 46-3 60l-3 3c-4-2 1 0-2-2q-56-41-115-80l-9-4c-7-3-26-17-33-23l-76-53-106-74z"/>
  <path fill="#3b8693" d="M3693 139c8-1 32 20 41 26 10 6 35 18 40 28h5l17 12-1 3 2-2c22 13 44 37 69 49 7 4 18 15 25 20l31 20c15 9 25 23 41 28 6 2 6 33 7 38 4 38 0 77 0 116v30-1l-1 51-3 27-2 2V332c-59-45-126-90-187-133l-53-37zM3337 146c15 8 36 25 51 35l116 82 52 37 57 40 106 74 76 53c7 6 26 20 33 23q20 16 42 30 46 32 92 66h-2c-24-6-66-46-90-61-59-39-116-83-175-123q-39-24-76-51c-7-5-1-2-5-9h-1l-1 3c-12-7-15-9-26-18-23-21-54-37-78-56-54-43-119-79-172-124z"/>
  <path fill="#b5d8e0" d="M2837 1506q-3-40-1-81l-1-126c-1-11-4-41 4-47 14 0 85 54 100 64 13 10 127 88 128 90q-8-3-15-7c7 9 22 10 29 16q50 39 102 74c3 3 3 2 4 7 6 1 4 4 9 4l1 4v4l-2 4a7194 7194 0 0 0-150 1h-55q-16 1-31-1h-63l-45 1q-8-1-14-7"/>
  <path fill="#3b8693" d="M2837 1506q-3-40-1-81l-1-126c-1-11-4-41 4-47 14 0 85 54 100 64 13 10 127 88 128 90q-8-3-15-7c7 9 22 10 29 16q50 39 102 74c3 3 3 2 4 7 6 1 4 4 9 4l1 4c-6-2-22-15-28-19l-55-39-189-134c-27-18-58-41-85-58l2 254h355l-2 4a7194 7194 0 0 0-150 1h-55q-16 1-31-1h-63l-45 1q-8-1-14-7"/>
  <path fill="#c8c8c9" d="M2845 1266c12 2 40 26 52 34l79 56 141 98 27 21 20 13 10 9 5 1 4 1v3q-6 2-12 0v-1h-5l-1 1v-1c-11-2-39 0-53 0h-176l-24 1h-38q-13 1-26-3v-35l-1-76-3-80c0-13-2-30 1-42"/>
  <path fill="#b5d8e0" d="M3658 1566c9-6 42-5 52-1a167 167 0 0 1 28 39l-1 1-2-1q0 4 2 4l3-1c4 5 25 36 26 40l-1 3 1 1q4 2 4 5c-11 34-40 66-61 94-5 6-47 4-54 2l-2-1-1-2-1-1h-2c-1-2-1-9 1-11q29-36 55-76c2-3-10-21-12-24-7-13-41-55-40-68v-2z"/>
  <path fill="#3b8693" d="M3658 1566c9-6 42-5 52-1a167 167 0 0 1 28 39l-1 1-2-1q0 4 2 4l3-1c4 5 25 36 26 40l-1 3 1 1q4 2 4 5c-11 34-40 66-61 94-5 6-47 4-54 2l-2-1-1-2h52l11-15 53-77-62-90z"/>
  <path fill="#3b8693" d="M3653 1569c17 24 47 65 61 89-18 28-47 63-63 90h-2c-1-2-1-9 1-11q29-36 55-76c2-3-10-21-12-24-7-13-41-55-40-68"/>
  <path fill="#c8c8c9" d="M3673 1570h1q16-1 30 2 19 25 37 54c4 6 17 22 19 27l1 3-8 17c-7 10-44 63-50 67l-1 1v1c-4 1-26 2-31 1l-3-3c-2-12 36-56 44-70q4-8 4-16c-2-11-34-52-42-63l-10-16q0-2-2-3l1-1z"/>
  <path fill="#b5d8e0" d="m2816 1567-5-1-1-1c4-3 47-6 53-1l4 8 1-5 3 4 8 15 9 11c9 10 38 48 39 60l-1 5c-4 10-50 76-59 86q-6 6-15 5c-8 0-40 0-46-4l3-6c-3-9 13-20 13-28l2-5c6-1 0 1 4 3l4-4c-2-11 21-29 28-42 10-19-7-24-17-39l-4-11c-9-1-12-14-17-21h-2q-12-11-12-27v-1c3-2 3-1 8-1"/>
  <path fill="#3b8693" d="m2816 1567-5-1-1-1c4-3 47-6 53-1l4 8 1-5 3 4 8 15 9 11c9 10 38 48 39 60l-1 5c-4 10-50 76-59 86q-6 6-15 5c-8 0-40 0-46-4l54-1 26-35 38-56c-4-8-17-25-22-33l-41-57z"/>
  <path fill="#3b8693" d="m2808 1569 33 45c7 10 24 34 29 44-18 26-41 60-61 85-3-9 13-20 13-28l2-5c6-1 0 1 4 3l4-4c-2-11 21-29 28-42 10-19-7-24-17-39l-4-11c-9-1-12-14-17-21h-2q-12-11-12-27"/>
  <path fill="#c8c8c9" d="M2832 1571c7 1 20-1 26 3 8 4 57 75 59 85-3 9-47 69-56 80-5 5-14 4-20 5h-11q-6-1-10-1-2 0-3 2c-1-6 10-13 13-19v-1l-5 1v-1q5-3 10-6l6-11c7-11 18-31 29-39l2-11-2-7c-3-12-37-56-46-71q-3-3-1-6 4-2 9-3M2957 1567l-1-2c4-5 53-5 55-1 20 28 44 57 61 86l2 13q-26 40-54 79c-12 15-20 10-37 10q-13 1-25-3l-4-2 2-3v-5l31-48c6-9 20-24 23-34-1-11-46-68-54-82q-3-3-1-7z"/>
  <path fill="#e5f8fb" d="M2957 1567h52l62 89-8 12c-1-5 2-11 0-14q-9-12-19-22-13-19-24-40l-14-18c-9 1-30 0-38-4l-1 1c2 19 52 64 52 89 0 3-11 17-16 19l-18 24-29 41v-5l31-48c6-9 20-24 23-34-1-11-46-68-54-82q-3-3-1-7z"/>
  <path fill="#3b8693" d="m2955 1568 25 34q20 28 38 56l-15 21-18 24-29 41v-5l31-48c6-9 20-24 23-34-1-11-46-68-54-82q-3-3-1-7"/>
  <path fill="#3b8693" d="m2957 1567-1-2c4-5 53-5 55-1 20 28 44 57 61 86l2 13q-26 40-54 79c-12 15-20 10-37 10q-13 1-25-3h49c15-18 43-61 56-81l8-12-62-89z"/>
  <path fill="#b5d8e0" d="M3517 1567v-2c9-5 48-4 58-1q7 8 12 17l28 40c5 7 21 26 22 34 0 13-16 33-24 42h-4c-6 11-27 45-37 52h-4c-11-1-46 1-51-2v-2c-3-11 32-56 40-65 21-23 16-27-1-51l-25-33q-7-9-13-17h1q3 2 5 5c1-4-7-9-8-15l2-1z"/>
  <path fill="#3b8693" d="M3517 1567v-2c9-5 48-4 58-1q7 8 12 17l28 40c5 7 21 26 22 34 0 13-16 33-24 42h-4c-6 11-27 45-37 52h-4c6-3 59-81 66-92l-63-90z"/>
  <path fill="#3b8693" d="M3517 1745c-3-11 32-56 40-65 21-23 16-27-1-51l-25-33q-7-9-13-17h1q3 2 5 5c1-4-7-9-8-15l2-1 62 89-40 56z"/>
  <path fill="#c8c8c9" d="M3537 1572c8 0 24-2 31 1 5 3 56 74 59 82q0 4-2 8-9 15-20 28c-11 15-22 35-35 49l-6 3-4 1c-6 1-28 2-32-1v-4c4-10 28-39 35-50 6-9 17-21 19-31 2-8-48-67-49-82z"/>
  <path fill="#b5d8e0" d="M3381 1566c9-6 35-4 46-4 12 1 24 27 31 31l-1 3-3-1 4 5h1l2-4c3 6-1 5 6 7v1l-3 1 6 3c8 10 9 23 13 28l4-1q9 9 10 22 0 6-2 12-17 27-38 50l-17 24q-2 3-5 2-3 4-9 4l-47-1-1-2c-2-10 43-66 50-77 4-6 0-13 3-17h3c-3-4-7-3-9-6q-22-32-43-64c-3-6-4-6-3-13v-2z"/>
  <path fill="#3b8693" d="M3381 1566c9-6 35-4 46-4 12 1 24 27 31 31l-1 3-3-1 4 5h1l2-4c3 6-1 5 6 7v1l-3 1 6 3c8 10 9 23 13 28l4-1q9 9 10 22 0 6-2 12-17 27-38 50l-17 24q-2 3-5 2c18-26 44-62 60-88-20-24-44-67-64-90z"/>
  <path fill="#3b8693" d="M3379 1569c20 26 44 62 62 89l-43 62-19 28-1-2c-2-10 43-66 50-77 4-6 0-13 3-17h3c-3-4-7-3-9-6q-22-32-43-64c-3-6-4-6-3-13"/>
  <path fill="#c8c8c9" d="M3391 1573c11-1 26-3 36 1a689 689 0 0 1 56 83l-2 9-48 76q-3 3-7 2l-23 2q-8 2-15-2v-3l41-57c5-7 13-12 15-21q1-5-1-12-6-13-17-25l-32-46q-3-3-3-7M3248 1745c0-19 57-77 56-88 0-5-40-62-46-68q-9-9-12-22 0-3 3-4c12-2 42-4 52 1 11 5 19 25 24 34v-5q4 5 7 12l22 31 9 11-4-1 3 4 2-1 1 2-3 1c9 16-4 20-11 32q-15 20-27 41h-2l-2-1-1 1 4 3c-2 4-17 21-21 23-10 5-46 5-54-2l-2-1z"/>
  <path fill="#3b8693" d="M3248 1745c0-19 57-77 56-88 0-5-40-62-46-68q-9-9-12-22 0-3 3-4c12-2 42-4 52 1 11 5 19 25 24 34v-5q4 5 7 12l22 31 9 11-4-1 3 4 2-1 1 2-3 1c9 16-4 20-11 32q-15 20-27 41h-2l-2-1-1 1 4 3c-2 4-17 21-21 23-10 5-46 5-54-2l51-1c19-25 49-65 64-91l-63-90h-54l29 40c10 15 26 36 34 51z"/>
  <path fill="#b5d8e0" d="M3119 1566c7-4 48-6 53-1 10 9 62 83 60 91-18 30-43 65-64 93-7 0-49 1-52-2l-1-1c3-10 37-57 45-70 3-4 9-11 10-16 2-10-33-50-40-61-6-7-16-21-14-30v-2z"/>
  <path fill="#3b8693" d="M3116 1569c20 27 44 61 62 89l-41 58c-4 6-17 26-22 30 3-10 37-57 45-70 3-4 9-11 10-16 2-10-33-50-40-61-6-7-16-21-14-30M3119 1566c7-4 48-6 53-1 10 9 62 83 60 91l-23-31-41-58z"/>
  <path fill="#c8c8c9" d="m3137 1572 22 1 7 2c7 5 45 66 56 79l3-2q0 5-4 11l-37 55q-7 12-15 22-5 3-11 4c-8 0-23 3-31 0-3-15 53-65 54-87q1-3-1-7l-13-19q-19-29-41-57z"/>
  <path fill="#fbc749" d="M1032 136c12-1 93-3 99 2-2 6-44 48-53 57-14 15-33 37-48 50l-1-6c-3-27 2-62 0-90q-1-8 3-13"/>
  <path fill="url(#a)" d="m3966 203-2 1h-6c-10-2-75-50-80-57q-2-4-5-6l1-3h1c16 2 79-3 87 6 4 3 3 51 4 59"/>
  <path fill="#3b8693" d="m3966 203-2 1h-6c-10-2-75-50-80-57q-2-4-5-6l1-3c8 8 80 59 92 65"/>
  <path fill="#c8c8c9" d="M12 632h535v172h-53v-29h-13v102h13l1-29h52v221l-52-1-1-28h-13l-1 101q8 1 14-1l1-3v-25q26-1 52 1v168H9V715q-1-38 1-76 0-4 2-7"/>
  <path fill="#010101" d="M359 1065h37v50h-37zM359 801h37v50h-37z"/>
  <path fill="#141110" d="M4058 37v-3l-3-4q5 1 10 7v2l-3 2z"/>
</svg>
