<svg xmlns="http://www.w3.org/2000/svg" width="1559" height="4096" preserveAspectRatio="none" style="display:block" viewBox="0 0 4096 4096">
  <defs>
    <linearGradient id="a" x1="2280.1" x2="2294.8" y1="1436.1" y2="1435.8" gradientUnits="userSpaceOnUse">
      <stop class="stop0" offset="0" stop-color="#050505"/>
      <stop class="stop1" offset="1" stop-color="#010201"/>
    </linearGradient>
  </defs>
  <path d="M1918 0h112l2 3 34 5c49 4 120 25 154 65 10 11 8 14 10 28l7 8q3 106 4 211c0 14 6 30 7 44l4 79c3 37-1 84 1 120 3 34 9 59 10 96 1 38-1 82 1 120 2 35 11 75 12 113v117c0 8 7 30 8 49q4 94 3 188c0 14 7 30 7 44l4 73-3-4c-2-13-9-33-14-45l-5-2c-4 26 6 69 8 97q3 38 2 76c9 23-2 64 9 86 4-4 0-92 4-110v4c0 35 9 77 9 111 0 28 8 153 0 168-12 9-27 7-36 15 23 17 5 24 16 32 22 18 41-8 43 40v50l-12 18c-10 3-28 5-32 12-8 13 5 28-10 33-17 5-28-6-39 7v5c15 11 152 8 177 7l695 1h203c82 0 160-3 241 15 69 14 208 49 223 134 3 14 1 37 0 51 41 1 146-5 176 11 1 11 3 65-1 71l-9 3v2c39 6 65 3 102 27 10 40 5 60 6 101 1 36 2 39-6 74q-35 19-75 20c-14 2-21 1-35 1l18 11c2 57 16 76-48 77-20 1-113-3-127 3v377c86-3 234-7 300 53l8 8 10 2v38c-7 0-8-1-13 4-6 7-30 27-39 31-36 15-88 24-127 26-45 3-95-1-139 2 0 123 3 256 0 378 43-2 138-4 176 13 0 16 3 56-4 67l-13 4c25 15 100-3 111 39 9 36 0 83 5 119 8 64-47 73-102 72l-15 1v1q12 4 15 14c5 19 3 42 3 61-36 20-82 10-124 12-62 3-50-14-52 43-6 111-196 145-282 156-18 3-54 3-65 8l-1 2H512c-2-7-31-7-38-7-78-6-170-24-237-65-34-20-67-48-70-91-1-11 2-26-1-37-8-25-128-27-154-42l-12-4v-68h11c6 0 4-1 8 2q3-12 1-26 2-57 1-114c0-20 1-51-1-70l-11-3 1 7c-4 4-5 3-10 6v-73c16-1 12-10 25-9 42-13 98-11 142-31 1-13-1-32-1-45v-701c0-36 3-116-1-147-21-28-122-22-154-42l-2-3-9-2v-69c10 0 9 2 16-3q3-9 2-19v-164c-1-5 0-4-3-7l-15 1v-69c6-1 4 0 9-3 19-9 30-12 50-12 5-4 86-16 106-25 5-16 0-47 9-68 36-77 174-107 250-120 68-11 135-9 201-9h891c26 0 182 3 197-4 4-6 3-3 3-9-14-13-44 0-56-12-2-7 0-23 1-31-13-3-27-5-36-14-3-16-2-72-2-92 14-5 21-6 36-9v-12c0-14 0-15 12-22-10-9-27-6-36-21-4-22 0-56 2-80l7-121c4-55 0-110 2-166q1-33 4-65c1-13 6-25 6-38 3-53 1-107 3-161 1-19 0-40 5-59 10-34 4-119 6-158 2-36 8-71 9-107l23-459c2-33-3-168 11-193q4-25 3-49c42-45 91-63 151-72l49-7zm1996 3051c15-5 53-10 45-35-19-21-77-26-104-21-120 22-9 74 59 56"/>
  <path fill="#f5f3e6" d="M184 2178c3-44-6-89 32-119 119-94 304-90 446-91h248l826 1 1121-1h365c71 0 152-1 223 3 89 5 231 30 294 97 29 31 17 60 20 97h-213q2-31-3-61c-60-71-220-56-309-56H727q-88-1-175 1c-48 2-118 14-149 54-5 27-2 135-2 167l-1 362v1300q0 14 8 26c19 27 76 41 106 45 46 6 98 5 144 5h2509c91 0 188 4 278-8 38-5 72-17 98-46q4-32 3-66c23 0 201-2 210 2 5 8 3 53 0 63 2 11-10 29-18 36-85 76-225 95-335 98q-110 3-219 1H643c-54 0-106 2-168-5-84-9-245-36-284-123-7-13-7-99-7-121 2-23 1-107 0-133-1-69 3-149 0-218-1-6 1-13-3-18l-14 1c1-13-1-32-1-45v-701c0-36 3-116-1-147-21-28-122-22-154-42 3-4 3-5 8-7l4 2c13 8 120 26 144 32l2-1v-10l9 15c6-3 3-1 7-7z"/>
  <path fill="#24251e" d="M11 2536c3-4 3-5 8-7l4 2c13 8 120 26 144 32l2-1v-10l9 15c6-3 3-1 7-7 4 36 0 124 0 166l1 387v260c0 23 1 98-2 115-1-6 1-13-3-18l-14 1c1-13-1-32-1-45v-701c0-36 3-116-1-147-21-28-122-22-154-42"/>
  <path fill="#f4f5ef" d="M3756 3890c5 8 3 53 0 63-2-1-7-3-7-6 0-14-9-52 7-57"/>
  <path fill="#292929" d="M1885 11zc53-4 111-1 163-2 53 10 133 26 162 73 13 22 3 69 6 95 3 23 9 46 10 70q2 80 1 161c0 18 9 43 9 62q3 81 3 160c1 24 9 52 10 77q2 74 1 146c1 25 9 58 10 84 3 51 1 102 2 153 1 23 10 57 10 82q2 54 2 109l1 31c-4 26 6 69 8 97q3 38 2 76-3 80 6 159c4 32 6 68 4 100-27 7-91 3-122 3h-423c-27 0-70 1-95-4-4-11 1-77 2-95 3-88-3-177 7-264l4-48 23-462 13-276c3-69 1-129 11-199 2-47 0-96 3-144q3-45 7-89c2-11 4-32 3-43-8-71 66-88 119-102 11-3 27-5 37-10"/>
  <path fill="#f5f3e6" d="m3758 2566 3 6v-1h2c5-8 2-7 9-9l6 4v376l-14-2c-3 6-2 7-2 14-3 42-1 82-2 123l-1 217v118c0 22-1 53 1 74h-215c4-98 1-212 1-312v-611h208z"/>
  <path fill="#43453f" d="m3758 2566 3 6v-1h2c5-8 2-7 9-9l6 4v376l-14-2c-3 6-2 7-2 14-5-22-4-57-4-81v-228c0-21-2-60 0-79"/>
  <path fill="#f4f5ef" d="M3758 2566c-2 19 0 58 0 79v228c-6 14-1 47-6 59l-2-4c-4-7-2-350 2-361z"/>
  <path fill="#f5f3e6" d="m3697 3579 162 1c16 0 65 1 80-1 3 25 0 87 1 115v96l-10 6c-17-5-179-2-206-2q-15 0-31 2c-6-3-6-3-11-8-3-18-3-186 0-203 7-6 6-4 15-6M23 2259c38-3 107 0 147 0q-2 65-1 130c0 25-1 59 1 83-21-1-137 1-150-2-7 0-5-1-9 3q2 8 11 6 2 26 1 52l-4-2c-5 2-5 3-8 7l-2-3-9-2v-69c10 0 9 2 16-3q3-9 2-19v-85c3-19-2-82 3-92z"/>
  <path fill="#43453f" d="M18 2355c3-19-2-82 3-92 3 35 1 80 1 116 1 20 1 75-2 91-7 0-5-1-9 3q2 8 11 6 2 26 1 52l-4-2c-5 2-5 3-8 7l-2-3-9-2v-69c10 0 9 2 16-3q3-9 2-19z"/>
  <path fill="#f5f3e6" d="M20 3574c37-4 107-1 149-2l-1 140c0 19-1 57 2 74-9 5-145 5-151-2q3-12 1-26 2-57 1-114c0-20 1-51-1-70"/>
  <path fill="#f4f5ef" d="M23 3511c9-5 126-27 141-28l3 2c3 23 1 59 2 82-20 0-139 2-149-2h-6l-5 6 1 7c-4 4-5 3-10 6v-73c16-1 12-10 25-9l-9 8v2c5 0 3 1 7-1"/>
  <path fill="#24251e" d="M0 3511c16-1 12-10 25-9l-9 8v2c5 0 3 1 7-1 0 13 0 42-3 54h-6l-5 6 1 7c-4 4-5 3-10 6z"/>
  <path d="m92 3511 48-1c-1 16-1 26 1 42l-33 1c-15 0-36 4-45-6-4-12-1-23 0-35z"/>
  <path fill="#f4f5ef" d="M82 3517h44c0 8 1 24-2 30H80c0-8-2-24 2-30M0 3782h11c-2 8-2 4 0 11 6 3 3 3 10 2 46-2 100 0 147-1v89c-23-8-38-12-62-16-25-5-58-8-82-15l-6-3-6 5-12-4z"/>
  <path fill="#24251e" d="M0 3782h11c-2 8-2 4 0 11 6 3 3 3 10 2 1 14 1 47 3 57l-6-3-6 5-12-4z"/>
  <path d="M62 3808h78v41c-19 3-58 1-77-3z"/>
  <path fill="#f4f5ef" d="M79 3814h45l1 29H80zM22 2479c29-4 110-2 146-3l1 76v10l-2 1c-24-6-131-24-144-32q1-26-1-52"/>
  <path d="M66 2490q36 2 73 1 2 20 0 39l-3 3c-20 0-47 3-65-3-14-5-11-31-5-40"/>
  <path fill="#f4f5ef" d="M81 2497h44c-1 9 1 23-3 29H80c0-8-3-23 1-29M170 2167c-3 19 0 65 0 86H70l-48-1c1-33-13-49 24-59 53-8 72-12 124-26"/>
  <path d="M68 2200h72l1 40H68c-9-9-6-30 0-40"/>
  <path fill="#f4f5ef" d="M81 2207h44v27H80z"/>
  <path fill="#24251e" d="M0 2201c6-1 4 0 9-3 19-9 30-12 50-12q-10 1-15 6l2 1c-37 10-23 26-24 59l-6 1-2 3c4 3 4 3 9 3l-2 4c-5 10 0 73-3 92v-79c-1-5 0-4-3-7l-15 1zM3724 3794c27 0 189-3 206 2v1l6 2v1c-35 0-190 6-213-3z"/>
  <path fill="#f5f3e6" d="M557 2055c39-2 99-1 139-1h2491l196 1c41 1 111 10 141 43 5 6 6 26 6 35v1626c0 51 3 146-2 194-35 39-90 45-139 48-59 3-146 1-207 1H665c-66 0-204 8-247-51-3-26-3-59-2-86V2640q-2-267 1-534c26-41 96-48 140-51M3689 2260c21-3 47-1 68-1h181c3 11 3 185 1 206-7 6-15 5-25 5h-64c-42-1-130 3-167-3q-2-28-1-57v-139c0-7 3-8 7-11M3778 2948q82-2 163 3c54 4 199 48 104 115-73 39-186 34-268 34q2-76 1-152m136 103c15-5 53-10 45-35-19-21-77-26-104-21-120 22-9 74 59 56"/>
  <path fill="#24251e" d="M3856 2989c89-14 187 50 56 69-32 5-68 3-98-9-12-5-38-21-25-36 13-16 47-22 67-24m58 62c15-5 53-10 45-35-19-21-77-26-104-21-120 22-9 74 59 56"/>
  <path fill="#f5f3e6" d="M3546 2171h255c30 1 113-3 137 7v65q-38 2-76 1c6 4 6 1 10 6l-3 3c-46 2-112 3-156-9l-167 1z"/>
  <path fill="#24251e" d="M3713 2244h149c6 4 6 1 10 6l-3 3c-46 2-112 3-156-9"/>
  <path fill="#a8a8a6" d="M1853 1808q118-21 237 0l3 3 4 12 4 1 3-5 2-2 1-6c7-6 46-3 59-3q1 42 1 85l-62-1c-3-8 1-14-9-17-4 6-3 7-4 17-50 16-185 12-239 1z"/>
  <path fill="#a8a8a6" d="m2106 1817 1-6c7-6 46-3 59-3q1 42 1 85l-62-1c4-14 4-61 1-75"/>
  <path fill="#24251e" d="m2093 1811 4 12 4 1 3-5 2-2c3 14 3 61-1 75-3-8 1-14-9-17-4 6-3 7-4 17-4-19-3-62 1-81"/>
  <path fill="#f5f3e6" d="M3546 3492h85c39 4 280-8 303 6 6 13 5 50 3 64-25 5-99 2-127 3l-265 1zM3545 3808c113 4 240 1 354 1 12 0 27-2 36 5 4 13 6 54-2 64-29 8-121 4-156 4h-231z"/>
  <path fill="#f4f5ef" d="M3899 3809c12 0 27-2 36 5 4 13 6 54-2 64 0-29-1-61-34-69"/>
  <path fill="#f5f3e6" d="M3545 2484h247c26 0 121-2 142 2 7 8 6 58 1 67-27 6-100 4-130 4h-260zM3545 3572h126l6 4q-9 3-11 11c-2 13-2 196 2 203q5 6 14 8h3c5 1 5 1 9 4-14 3-126 1-148 1zM3546 2252c18-1 136-2 147 1l-5 2c-9 2-11 1-18 7-4 8-4 183-3 201 4 6 6 8 14 10l16 2c-9 5-132 3-152 3z"/>
  <path fill="#a8a8a6" d="M1683 1908h510c23 0 54-1 76 2 0 10 2 20-4 28-74 2-154 0-229 0h-357c0-9-1-24 4-30"/>
  <path fill="#f5f3e6" d="M3954 3580c22 0 72 6 78 21 8 18 6 150 3 164-15 20-59 29-81 26 2-22 1-56 1-79zM3954 2259c19 1 78 8 81 32 4 40 1 85 2 125 0 10-2 29-8 34-18 14-53 18-74 19-4-11-1-185-1-210"/>
  <path fill="#a8a8a6" d="M1679 1766h72c171 3 345-4 515 0l-1 22-3 3c-193 3-390-2-583 0zM2217 1799l4-1c111-7 86 6 90 94v2c-16 6-22 6-38 7-31 1-63 2-92-6v-87q17-6 36-9M1766 1881c-1 29-68 19-87 20-8 0-39-2-42-10-4-10-4-75-1-81 18-17 113-17 130 0-1 12-5 62 0 71M2196 1945c10 0 21-2 24 11l-2 3c-11 6-140 3-163 3h-323l-3-4c-1-8-2-5 2-11 15-4 104-2 125-2z"/>
  <path fill="#a8a8a6" d="M1781 1812c6-7 45-4 57-4v84c-12 0-46 1-56-2-8-6 0-5-9-11l-7 2c-5-9-1-59 0-71 2 8 0 7 5 13q8-3 8-10z"/>
  <path fill="#24251e" d="M1766 1810c2 8 0 7 5 13q8-3 8-10l2-1c4 15 4 64 1 78-8-6 0-5-9-11l-7 2c-5-9-1-59 0-71"/>
  <path fill="#8f8f8d" d="M2090 1799c13-3 83-5 91 2-16 2-76 4-91-2M1767 1797c15 0 81-3 88 4-22 3-58 2-80 1-6 0-5-2-8-5M2089 1899c12-1 77-3 86 1l-1 2c-12 0-79 1-87-1zM1769 1899c11-3 74-4 81 2-13 1-72 4-81-2"/>
  <path fill="#a8a8a6" d="M3671 3572q18-2 37 0v1l-14 3h-17z"/>
  <path fill="url(#a)" d="m2276 1312 5 2c5 12 12 32 14 45l3 4c3 27 1 70 1 98-4 18 0 106-4 110-11-22 0-63-9-86q1-38-2-76c-2-28-12-71-8-97"/>
  <path fill="#292929" fill-opacity=".8" d="m9 3571 11 3c2 19 1 50 1 70q1 57-1 114l-4-5c3-20 3-154-2-168-5 7-4 52-4 64-1 10 1 23-3 32-4 3-2 2-7 3v-100c5-3 6-2 10-6z"/>
  <path fill="#24251e" fill-opacity=".8" d="M10 3649c0-12-1-57 4-64 5 14 5 148 2 168l-1-3c-4 5-4 7-5 14-1-18 3-104 0-115M0 2322l7 7 2-1c4-14-3-46 5-53l4 1v79c-4-20-1-40-4-59-2 38-4 70-3 109l-2 4c-3-7-3-12-9-16z"/>
  <path fill="#292929" fill-opacity=".8" d="M10 3649c3 11-1 97 0 115-2 7-2 8-10 11v-91c5-1 3 0 7-3 4-9 2-22 3-32"/>
  <path fill="#24251e" fill-opacity=".8" d="M0 2393c6 4 6 9 9 16l2-4c2 12-1 26 2 36 4 1 2 1 5-1q1 10-2 19c-7 5-6 3-16 3z"/>
  <path fill="#292929" fill-opacity=".8" d="M11 2405c-1-39 1-71 3-109 3 19 0 39 4 59v85c-3 2-1 2-5 1-3-10 0-24-2-36"/>
  <path fill="#24251e" fill-opacity=".9" d="m0 2270 15-1c3 3 2 2 3 7l-4-1c-8 7-1 39-5 53l-2 1-7-7z"/>
  <path fill="#24251e" fill-opacity=".8" d="M10 3764c1-7 1-9 5-14l1 3 4 5q2 14-1 26c-4-3-2-2-8-2H0v-7c8-3 8-4 10-11"/>
</svg>
